<?xml version="1.0" encoding="iso-8859-1"?>
<!-- Generator: Adobe Illustrator 21.0.0, SVG Export Plug-In . SVG Version: 6.00 Build 0)  -->
<svg version="1.1" id="Capa_1" xmlns="http://www.w3.org/2000/svg" xmlns:xlink="http://www.w3.org/1999/xlink" x="0px" y="0px"
	 viewBox="0 0 512.007 512.007" style="enable-background:new 0 0 512.007 512.007;" xml:space="preserve">
<g>
	<path style="fill:#41767F;" d="M349.867,499.203H8.533c-4.713,0-8.533-3.82-8.533-8.533s3.821-8.533,8.533-8.533h341.333
		c4.713,0,8.533,3.821,8.533,8.533S354.579,499.203,349.867,499.203z"/>
	<rect x="153.6" y="379.736" style="fill:#BDC3C7;" width="34.133" height="119.467"/>
	<path style="fill:#95A5A5;" d="M93.867,473.603h153.6c4.713,0,8.533,3.821,8.533,8.533v17.067c0,4.713-3.82,8.533-8.533,8.533
		h-153.6c-4.713,0-8.533-3.82-8.533-8.533v-17.067C85.333,477.423,89.154,473.603,93.867,473.603z"/>
	<g>
		<path style="fill:#2FA8CC;" d="M420.634,61.502c3.348,3.234,8.671,3.188,11.962-0.104c3.292-3.292,3.338-8.614,0.104-11.962
			L390.033,6.77c-0.795-0.796-1.741-1.426-2.782-1.852c-2.087-0.863-4.432-0.863-6.519,0c-1.041,0.426-1.987,1.055-2.782,1.852
			l-42.667,42.667c-3.234,3.348-3.188,8.671,0.104,11.962c3.292,3.292,8.614,3.338,11.962,0.104l28.117-28.1v133.001
			c0,4.713,3.821,8.533,8.533,8.533s8.533-3.821,8.533-8.533V33.402L420.634,61.502z"/>
		<path style="fill:#2FA8CC;" d="M509.5,185.97c-3.332-3.331-8.734-3.331-12.066,0l-28.1,28.1V81.069
			c0-4.713-3.82-8.533-8.533-8.533s-8.533,3.82-8.533,8.533V214.07l-28.1-28.1c-3.348-3.234-8.671-3.188-11.962,0.104
			c-3.292,3.292-3.338,8.614-0.104,11.962l42.667,42.667c1.601,1.605,3.775,2.507,6.042,2.507c2.267,0,4.441-0.902,6.042-2.507
			l42.667-42.667C512.843,194.699,512.836,189.297,509.5,185.97z"/>
	</g>
	<g>
		<path style="fill:#A5A5A4;" d="M298.667,302.936v-8.533h-256v8.533c-18.851,0-34.133,15.282-34.133,34.133v34.133
			c0,18.851,15.282,34.133,34.133,34.133h256c18.851,0,34.133-15.282,34.133-34.133v-34.133
			C332.8,318.218,317.518,302.936,298.667,302.936z"/>
		<path style="fill:#A5A5A4;" d="M298.667,98.136h-256c-18.851,0-34.133,15.282-34.133,34.133v34.133
			c0,18.851,15.282,34.133,34.133,34.133v8.533h247.467v-8.533h8.533c18.851,0,34.133-15.282,34.133-34.133v-34.133
			C332.8,113.418,317.518,98.136,298.667,98.136z"/>
	</g>
	<path style="fill:#14A085;" d="M273.067,140.803H256c-4.713,0-8.533,3.821-8.533,8.533s3.821,8.533,8.533,8.533h17.067
		c4.713,0,8.533-3.82,8.533-8.533S277.78,140.803,273.067,140.803z"/>
	<path style="fill:#CC4B4C;" d="M221.867,140.803H204.8c-4.713,0-8.533,3.821-8.533,8.533s3.821,8.533,8.533,8.533h17.067
		c4.713,0,8.533-3.82,8.533-8.533S226.579,140.803,221.867,140.803z"/>
	<g>
		<circle style="fill:#237E99;" cx="76.8" cy="149.336" r="17.067"/>
		<circle style="fill:#237E99;" cx="76.8" cy="354.136" r="17.067"/>
	</g>
	<path style="fill:#D1D4D1;" d="M298.667,302.936h-256c-18.851,0-34.133-15.282-34.133-34.133v-34.133
		c0-18.851,15.282-34.133,34.133-34.133h256c18.851,0,34.133,15.282,34.133,34.133v34.133
		C332.8,287.654,317.518,302.936,298.667,302.936z"/>
	<path style="fill:#14A085;" d="M273.067,243.203H256c-4.713,0-8.533,3.821-8.533,8.533s3.821,8.533,8.533,8.533h17.067
		c4.713,0,8.533-3.82,8.533-8.533S277.78,243.203,273.067,243.203z"/>
	<path style="fill:#CC4B4C;" d="M221.867,243.203H204.8c-4.713,0-8.533,3.821-8.533,8.533s3.821,8.533,8.533,8.533h17.067
		c4.713,0,8.533-3.82,8.533-8.533S226.579,243.203,221.867,243.203z"/>
	<path style="fill:#14A085;" d="M273.067,345.603H256c-4.713,0-8.533,3.82-8.533,8.533s3.821,8.533,8.533,8.533h17.067
		c4.713,0,8.533-3.82,8.533-8.533S277.78,345.603,273.067,345.603z"/>
	<path style="fill:#CC4B4C;" d="M221.867,345.603H204.8c-4.713,0-8.533,3.82-8.533,8.533s3.821,8.533,8.533,8.533h17.067
		c4.713,0,8.533-3.82,8.533-8.533S226.579,345.603,221.867,345.603z"/>
	<circle style="fill:#2FA8CC;" cx="76.8" cy="251.736" r="17.067"/>
</g>
<g>
</g>
<g>
</g>
<g>
</g>
<g>
</g>
<g>
</g>
<g>
</g>
<g>
</g>
<g>
</g>
<g>
</g>
<g>
</g>
<g>
</g>
<g>
</g>
<g>
</g>
<g>
</g>
<g>
</g>
</svg>
