<?xml version="1.0" encoding="iso-8859-1"?>
<!-- Generator: Adobe Illustrator 21.0.0, SVG Export Plug-In . SVG Version: 6.00 Build 0)  -->
<svg version="1.1" id="Capa_1" xmlns="http://www.w3.org/2000/svg" xmlns:xlink="http://www.w3.org/1999/xlink" x="0px" y="0px"
	 viewBox="0 0 512 512" style="enable-background:new 0 0 512 512;" xml:space="preserve">
<g>
	<g>
		<path style="fill:#A5A5A4;" d="M388.414,406.069v-8.828H123.586v8.828c-19.501,0-35.31,15.809-35.31,35.31v35.31
			c0,19.501,15.809,35.31,35.31,35.31h264.828c19.501,0,35.31-15.809,35.31-35.31v-35.31
			C423.724,421.878,407.915,406.069,388.414,406.069z"/>
		<path style="fill:#A5A5A4;" d="M388.414,194.207H123.586c-19.501,0-35.31,15.809-35.31,35.31v35.31
			c0,19.501,15.809,35.31,35.31,35.31v8.828h256v-8.828h8.828c19.501,0,35.31-15.809,35.31-35.31v-35.31
			C423.724,210.016,407.915,194.207,388.414,194.207z"/>
	</g>
	<path style="fill:#14A085;" d="M361.931,238.345h-17.655c-4.875,0-8.828,3.952-8.828,8.828s3.952,8.828,8.828,8.828h17.655
		c4.875,0,8.828-3.952,8.828-8.828S366.806,238.345,361.931,238.345z"/>
	<path style="fill:#CC4B4C;" d="M308.966,238.345H291.31c-4.875,0-8.828,3.952-8.828,8.828S286.435,256,291.31,256h17.655
		c4.875,0,8.828-3.952,8.828-8.828S313.841,238.345,308.966,238.345z"/>
	<g>
		<circle style="fill:#237E99;" cx="158.897" cy="247.172" r="17.655"/>
		<circle style="fill:#237E99;" cx="158.897" cy="459.034" r="17.655"/>
	</g>
	<path style="fill:#D1D4D1;" d="M388.414,406.069H123.586c-19.501,0-35.31-15.809-35.31-35.31v-35.31
		c0-19.501,15.809-35.31,35.31-35.31h264.828c19.501,0,35.31,15.809,35.31,35.31v35.31
		C423.724,390.26,407.915,406.069,388.414,406.069z"/>
	<path style="fill:#14A085;" d="M361.931,344.276h-17.655c-4.875,0-8.828,3.952-8.828,8.828s3.952,8.828,8.828,8.828h17.655
		c4.875,0,8.828-3.952,8.828-8.828S366.806,344.276,361.931,344.276z"/>
	<path style="fill:#CC4B4C;" d="M308.966,344.276H291.31c-4.875,0-8.828,3.952-8.828,8.828s3.952,8.828,8.828,8.828h17.655
		c4.875,0,8.828-3.952,8.828-8.828S313.841,344.276,308.966,344.276z"/>
	<path style="fill:#14A085;" d="M361.931,450.207h-17.655c-4.875,0-8.828,3.952-8.828,8.828s3.952,8.828,8.828,8.828h17.655
		c4.875,0,8.828-3.952,8.828-8.828S366.806,450.207,361.931,450.207z"/>
	<path style="fill:#CC4B4C;" d="M308.966,450.207H291.31c-4.875,0-8.828,3.952-8.828,8.828s3.952,8.828,8.828,8.828h17.655
		c4.875,0,8.828-3.952,8.828-8.828S313.841,450.207,308.966,450.207z"/>
	<circle style="fill:#2FA8CC;" cx="158.897" cy="353.103" r="17.655"/>
	<circle style="fill:#E57E25;" cx="256" cy="105.931" r="105.931"/>
	<path style="fill:#F0C419;" d="M265.242,42.116l13.895,27.754c1.519,3.028,4.424,5.122,7.777,5.606l30.826,4.414
		c3.898,0.57,7.133,3.306,8.342,7.055c1.209,3.749,0.182,7.86-2.648,10.6l-22.113,21.274c-2.476,2.386-3.607,5.846-3.019,9.234
		l5.244,30.146c0.673,3.871-0.907,7.789-4.076,10.11c-3.17,2.322-7.381,2.646-10.869,0.836l-27.842-14.424
		c-2.984-1.545-6.532-1.545-9.516,0L223.4,169.145c-3.487,1.809-7.699,1.486-10.869-0.836c-3.17-2.322-4.749-6.239-4.076-10.11
		l5.244-30.146c0.588-3.388-0.543-6.847-3.019-9.234L188.61,97.58c-2.83-2.74-3.857-6.851-2.648-10.6
		c1.209-3.749,4.444-6.485,8.342-7.055l30.826-4.414c3.353-0.484,6.258-2.577,7.777-5.606l13.895-27.754
		c1.754-3.478,5.314-5.674,9.21-5.681C259.906,36.463,263.475,38.645,265.242,42.116z"/>
</g>
<g>
</g>
<g>
</g>
<g>
</g>
<g>
</g>
<g>
</g>
<g>
</g>
<g>
</g>
<g>
</g>
<g>
</g>
<g>
</g>
<g>
</g>
<g>
</g>
<g>
</g>
<g>
</g>
<g>
</g>
</svg>
