<?xml version="1.0" encoding="iso-8859-1"?>
<!-- Generator: Adobe Illustrator 21.0.0, SVG Export Plug-In . SVG Version: 6.00 Build 0)  -->
<svg version="1.1" id="Capa_1" xmlns="http://www.w3.org/2000/svg" xmlns:xlink="http://www.w3.org/1999/xlink" x="0px" y="0px"
	 viewBox="0 0 512 512" style="enable-background:new 0 0 512 512;" xml:space="preserve">
<g>
	<g>
		<path style="fill:#3F5C6C;" d="M418.133,460.8H8.533C3.821,460.8,0,464.621,0,469.333c0,4.713,3.821,8.533,8.533,8.533h409.6
			c4.713,0,8.533-3.821,8.533-8.533C426.667,464.621,422.846,460.8,418.133,460.8z"/>
		<path style="fill:#3F5C6C;" d="M145.067,452.267v-85.333c0-4.713-3.821-8.533-8.533-8.533s-8.533,3.82-8.533,8.533v85.333
			c0,4.713,3.821,8.533,8.533,8.533S145.067,456.98,145.067,452.267z"/>
		<path style="fill:#3F5C6C;" d="M503.467,460.8h-51.2c-4.713,0-8.533,3.821-8.533,8.533c0,4.713,3.82,8.533,8.533,8.533h51.2
			c4.713,0,8.533-3.821,8.533-8.533C512,464.621,508.18,460.8,503.467,460.8z"/>
		<path style="fill:#3F5C6C;" d="M136.533,8.533c-70.656,0-128,22.955-128,51.2V332.8c0,28.245,57.344,51.2,128,51.2
			s128-22.955,128-51.2V59.733C264.533,31.488,207.189,8.533,136.533,8.533z"/>
		<ellipse style="fill:#3F5C6C;" cx="136.533" cy="59.733" rx="128" ry="51.2"/>
	</g>
	<g>
		<path style="fill:#547580;" d="M264.533,59.733V128c0,28.245-57.344,51.2-128,51.2s-128-22.955-128-51.2V59.733
			c0,28.245,57.344,51.2,128,51.2S264.533,87.979,264.533,59.733z"/>
		<path style="fill:#547580;" d="M264.533,196.267v68.267c0,28.245-57.344,51.2-128,51.2s-128-22.955-128-51.2v-68.267
			c0,28.245,57.344,51.2,128,51.2S264.533,224.512,264.533,196.267z"/>
	</g>
	<path style="fill:#D1D4D1;" d="M503.467,256c-0.042,28.259-22.941,51.158-51.2,51.2h-204.8
		c-27.349-0.337-49.604-22.11-50.539-49.445s19.779-50.579,47.041-52.784c-8.551-21.053-6.075-44.98,6.604-63.837
		c12.68-18.857,33.904-30.176,56.628-30.2h0.085c27.205-35.745,77.463-44.28,114.942-19.519s49.345,74.339,27.138,113.386h2.901
		C480.544,204.8,503.467,227.723,503.467,256z"/>
	<g>
		<path style="fill:#E6E7E8;" d="M267.699,204.8c-3.64,0.004-6.882-2.303-8.073-5.743c-5.331-13.415-4.852-28.441,1.323-41.489
			c7.77-13.662,20.25-24.028,35.106-29.158c4.382-1.16,8.906,1.309,10.302,5.621s-0.824,8.964-5.054,10.592
			c-10.54,3.726-19.437,11.035-25.139,20.651c-3.995,8.933-4.14,19.116-0.401,28.16c0.92,2.614,0.514,5.511-1.09,7.771
			C273.07,203.464,270.47,204.805,267.699,204.8z"/>
		<path style="fill:#E6E7E8;" d="M238.933,290.133c-0.716,0-1.43-0.089-2.125-0.265c-15.434-3.998-26.213-17.925-26.213-33.869
			s10.779-29.871,26.213-33.869c4.567-1.178,9.224,1.569,10.402,6.135s-1.569,9.224-6.135,10.402
			c-7.875,2.07-13.364,9.189-13.364,17.331c0,8.142,5.489,15.261,13.364,17.331c4.175,1.064,6.902,5.074,6.357,9.348
			C246.887,286.953,243.242,290.15,238.933,290.133z"/>
	</g>
	<circle style="fill:#71C285;" cx="136.533" cy="469.333" r="34.133"/>
</g>
<g>
</g>
<g>
</g>
<g>
</g>
<g>
</g>
<g>
</g>
<g>
</g>
<g>
</g>
<g>
</g>
<g>
</g>
<g>
</g>
<g>
</g>
<g>
</g>
<g>
</g>
<g>
</g>
<g>
</g>
</svg>
