<?xml version="1.0" encoding="iso-8859-1"?>
<!-- Generator: Adobe Illustrator 21.0.0, SVG Export Plug-In . SVG Version: 6.00 Build 0)  -->
<svg version="1.1" id="Capa_1" xmlns="http://www.w3.org/2000/svg" xmlns:xlink="http://www.w3.org/1999/xlink" x="0px" y="0px"
	 viewBox="0 0 512 512" style="enable-background:new 0 0 512 512;" xml:space="preserve">
<g>
	<path style="fill:#D1D4D1;" d="M512,52.966V476.69c0,19.501-15.809,35.31-35.31,35.31H35.31C15.809,512,0,496.191,0,476.69V52.966
		H512z"/>
	<path style="fill:#955BA5;" d="M512,35.31v35.31H0V35.31C0,15.809,15.809,0,35.31,0H476.69C496.191,0,512,15.809,512,35.31z"/>
	<path style="fill:#FF5364;" d="M52.966,26.483h-8.828c-4.875,0-8.828,3.952-8.828,8.828s3.952,8.828,8.828,8.828h8.828
		c4.875,0,8.828-3.952,8.828-8.828S57.841,26.483,52.966,26.483z"/>
	<path style="fill:#F0C419;" d="M91.63,27.189c-2.131-0.972-4.578-0.972-6.709,0c-1.069,0.448-2.055,1.075-2.913,1.854
		c-3.414,3.481-3.414,9.054,0,12.535c0.859,0.779,1.844,1.406,2.913,1.854c2.137,0.941,4.572,0.941,6.709,0
		c1.069-0.448,2.055-1.075,2.913-1.854c3.414-3.481,3.414-9.054,0-12.535C93.685,28.264,92.7,27.637,91.63,27.189z"/>
	<path style="fill:#65DDB9;" d="M117.319,29.043c-0.779,0.859-1.406,1.844-1.854,2.913c-0.942,2.137-0.942,4.572,0,6.709
		c0.448,1.069,1.075,2.055,1.854,2.913c3.481,3.414,9.054,3.414,12.535,0c0.779-0.859,1.406-1.844,1.854-2.913
		c0.495-1.047,0.737-2.196,0.706-3.354c0.021-3.586-2.13-6.829-5.442-8.204C123.659,25.731,119.844,26.496,117.319,29.043z"/>
	<path style="fill:#804169;" d="M467.862,26.483H167.724c-4.875,0-8.828,3.952-8.828,8.828s3.952,8.828,8.828,8.828h300.138
		c4.875,0,8.828-3.952,8.828-8.828S472.737,26.483,467.862,26.483z"/>
	<path style="fill:#3B97D3;" d="M229.517,161.28c-76.509,13.717-129.882,83.584-122.996,161.007
		c6.886,77.423,71.75,136.775,149.479,136.775s142.594-59.352,149.479-136.775c6.885-77.423-46.487-147.291-122.996-161.007H229.517
		z"/>
	<path style="fill:#FFFFFF;" d="M229.517,132.414v105.931h-27.639c-3.258-0.004-6.253,1.787-7.792,4.659
		c-1.538,2.872-1.37,6.358,0.438,9.068l54.131,81.214c1.637,2.455,4.393,3.93,7.345,3.93s5.707-1.475,7.345-3.93l54.131-81.214
		c1.808-2.71,1.977-6.196,0.438-9.068s-4.534-4.663-7.792-4.659h-27.639V132.414c0-4.875-3.952-8.828-8.828-8.828h-35.31
		C233.469,123.586,229.517,127.538,229.517,132.414z"/>
	<path style="fill:#2980BA;" d="M203.034,379.586h105.931c4.875,0,8.828,3.952,8.828,8.828s-3.952,8.828-8.828,8.828H203.034
		c-4.875,0-8.828-3.952-8.828-8.828S198.159,379.586,203.034,379.586z"/>
</g>
<g>
</g>
<g>
</g>
<g>
</g>
<g>
</g>
<g>
</g>
<g>
</g>
<g>
</g>
<g>
</g>
<g>
</g>
<g>
</g>
<g>
</g>
<g>
</g>
<g>
</g>
<g>
</g>
<g>
</g>
</svg>
