<?xml version="1.0" encoding="iso-8859-1"?>
<!-- Generator: Adobe Illustrator 21.0.0, SVG Export Plug-In . SVG Version: 6.00 Build 0)  -->
<svg version="1.1" id="Capa_1" xmlns="http://www.w3.org/2000/svg" xmlns:xlink="http://www.w3.org/1999/xlink" x="0px" y="0px"
	 viewBox="0 0 512 512" style="enable-background:new 0 0 512 512;" xml:space="preserve">
<g>
	<rect x="176.552" y="313.379" style="fill:#3D324C;" width="132.414" height="97.103"/>
	<path style="fill:#2FA8CC;" d="M88.276,313.379V92.69c0-19.501,15.809-35.31,35.31-35.31h264.828
		c19.501,0,35.31,15.809,35.31,35.31v220.69H88.276z"/>
	<g>
		<path style="fill:#7D6599;" d="M176.552,295.724h247.172v42.99c-3.693,0.792-7.461,1.177-11.238,1.148H176.552V295.724z"/>
		<path style="fill:#7D6599;" d="M176.199,428.138h185.732v-17.655c-0.029-9.739-7.917-17.626-17.655-17.655H176.552
			L176.199,428.138z"/>
	</g>
	<rect x="397.241" y="278.069" style="fill:#67B9CC;" width="114.759" height="150.069"/>
	<g>
		<path style="fill:#894B9D;" d="M512,278.952v16.772H397.241v-16.772c0-10.238,8.3-18.538,18.538-18.538h77.683
			C503.7,260.414,512,268.714,512,278.952z"/>
		<path style="fill:#894B9D;" d="M512,419.31v16.772c0,4.917-1.953,9.632-5.43,13.108c-3.477,3.477-8.192,5.43-13.108,5.43h-77.683
			c-10.238,0-18.538-8.3-18.538-18.538V419.31H512z"/>
	</g>
	<rect x="0" y="189.793" style="fill:#67B9CC;" width="203.034" height="229.517"/>
	<g>
		<path style="fill:#894B9D;" d="M203.034,410.483v13.153c0.005,8.219-3.258,16.103-9.07,21.915
			c-5.812,5.812-13.696,9.075-21.915,9.07H30.985c-8.219,0.005-16.103-3.258-21.915-9.07c-5.812-5.812-9.075-13.696-9.07-21.915
			l0-13.153H203.034z"/>
		<path style="fill:#894B9D;" d="M203.034,185.468v13.153H0l0-13.153c-0.005-8.219,3.258-16.103,9.07-21.915
			s13.696-9.075,21.915-9.07H172.05c8.219-0.005,16.103,3.258,21.915,9.07S203.039,177.248,203.034,185.468z"/>
	</g>
</g>
<g>
</g>
<g>
</g>
<g>
</g>
<g>
</g>
<g>
</g>
<g>
</g>
<g>
</g>
<g>
</g>
<g>
</g>
<g>
</g>
<g>
</g>
<g>
</g>
<g>
</g>
<g>
</g>
<g>
</g>
</svg>
