<?xml version="1.0" encoding="iso-8859-1"?>
<!-- Generator: Adobe Illustrator 21.0.0, SVG Export Plug-In . SVG Version: 6.00 Build 0)  -->
<svg version="1.1" id="Capa_1" xmlns="http://www.w3.org/2000/svg" xmlns:xlink="http://www.w3.org/1999/xlink" x="0px" y="0px"
	 viewBox="0 0 512 512" style="enable-background:new 0 0 512 512;" xml:space="preserve">
<g>
	<g>
		<path style="fill:#A5A5A4;" d="M300.138,211.862v-8.828H35.31v8.828c-19.501,0-35.31,15.809-35.31,35.31v35.31
			c0,19.501,15.809,35.31,35.31,35.31h264.828c19.501,0,35.31-15.809,35.31-35.31v-35.31
			C335.448,227.671,319.639,211.862,300.138,211.862z"/>
		<path style="fill:#A5A5A4;" d="M300.138,0H35.31C15.809,0,0,15.809,0,35.31v35.31c0,19.501,15.809,35.31,35.31,35.31v8.828h256
			v-8.828h8.828c19.501,0,35.31-15.809,35.31-35.31V35.31C335.448,15.809,319.639,0,300.138,0z"/>
	</g>
	<path style="fill:#14A085;" d="M273.655,44.138H256c-4.875,0-8.828,3.952-8.828,8.828s3.952,8.828,8.828,8.828h17.655
		c4.875,0,8.828-3.952,8.828-8.828S278.531,44.138,273.655,44.138z"/>
	<path style="fill:#CC4B4C;" d="M220.69,44.138h-17.655c-4.875,0-8.828,3.952-8.828,8.828s3.952,8.828,8.828,8.828h17.655
		c4.875,0,8.828-3.952,8.828-8.828S225.565,44.138,220.69,44.138z"/>
	<g>
		<circle style="fill:#237E99;" cx="70.621" cy="52.966" r="17.655"/>
		<circle style="fill:#237E99;" cx="70.621" cy="264.828" r="17.655"/>
	</g>
	<path style="fill:#D1D4D1;" d="M300.138,211.862H35.31c-19.501,0-35.31-15.809-35.31-35.31v-35.31
		c0-19.501,15.809-35.31,35.31-35.31h264.828c19.501,0,35.31,15.809,35.31,35.31v35.31
		C335.448,196.053,319.639,211.862,300.138,211.862z"/>
	<path style="fill:#14A085;" d="M273.655,150.069H256c-4.875,0-8.828,3.952-8.828,8.828s3.952,8.828,8.828,8.828h17.655
		c4.875,0,8.828-3.952,8.828-8.828S278.531,150.069,273.655,150.069z"/>
	<g>
		<path style="fill:#CC4B4C;" d="M220.69,150.069h-17.655c-4.875,0-8.828,3.952-8.828,8.828s3.952,8.828,8.828,8.828h17.655
			c4.875,0,8.828-3.952,8.828-8.828S225.565,150.069,220.69,150.069z"/>
		<path style="fill:#CC4B4C;" d="M220.69,256h-17.655c-4.875,0-8.828,3.952-8.828,8.828s3.952,8.828,8.828,8.828h17.655
			c4.875,0,8.828-3.952,8.828-8.828S225.565,256,220.69,256z"/>
	</g>
	<circle style="fill:#2FA8CC;" cx="70.621" cy="158.897" r="17.655"/>
	<path style="fill:#BDC3C7;" d="M282.483,247.172H476.69c19.501,0,35.31,15.809,35.31,35.31V476.69
		c0,19.501-15.809,35.31-35.31,35.31H282.483c-19.501,0-35.31-15.809-35.31-35.31V282.483
		C247.172,262.981,262.981,247.172,282.483,247.172z"/>
	<g>
		<path style="fill:#3F5C6C;" d="M308.966,476.69c-4.875,0-8.828-3.952-8.828-8.828V291.31c0-4.875,3.952-8.828,8.828-8.828
			s8.828,3.952,8.828,8.828v176.552C317.793,472.737,313.841,476.69,308.966,476.69z"/>
		<path style="fill:#3F5C6C;" d="M379.586,476.69c-4.875,0-8.828-3.952-8.828-8.828V291.31c0-4.875,3.952-8.828,8.828-8.828
			s8.828,3.952,8.828,8.828v176.552C388.414,472.737,384.462,476.69,379.586,476.69z"/>
		<path style="fill:#3F5C6C;" d="M450.207,476.69c-4.875,0-8.828-3.952-8.828-8.828V291.31c0-4.875,3.952-8.828,8.828-8.828
			c4.875,0,8.828,3.952,8.828,8.828v176.552C459.034,472.737,455.082,476.69,450.207,476.69z"/>
	</g>
	<g>
		<circle style="fill:#DF4D60;" cx="308.966" cy="423.724" r="26.483"/>
		<circle style="fill:#DF4D60;" cx="379.586" cy="335.448" r="26.483"/>
		<circle style="fill:#DF4D60;" cx="450.207" cy="423.724" r="26.483"/>
	</g>
</g>
<g>
</g>
<g>
</g>
<g>
</g>
<g>
</g>
<g>
</g>
<g>
</g>
<g>
</g>
<g>
</g>
<g>
</g>
<g>
</g>
<g>
</g>
<g>
</g>
<g>
</g>
<g>
</g>
<g>
</g>
</svg>
