<?xml version="1.0" encoding="iso-8859-1"?>
<!-- Generator: Adobe Illustrator 21.0.0, SVG Export Plug-In . SVG Version: 6.00 Build 0)  -->
<svg version="1.1" id="Capa_1" xmlns="http://www.w3.org/2000/svg" xmlns:xlink="http://www.w3.org/1999/xlink" x="0px" y="0px"
	 viewBox="0 0 511.998 511.998" style="enable-background:new 0 0 511.998 511.998;" xml:space="preserve">
<g>
	<circle style="fill:#3B97D3;" cx="208.262" cy="208.27" r="199.593"/>
	<path style="fill:#2980BA;" d="M361.203,67.088c-0.12-0.233-0.253-0.459-0.399-0.677c-0.274-0.239-0.564-0.46-0.868-0.66
		C320.649,23.803,265.743,0,208.271,0S95.893,23.803,56.606,65.751c-0.304,0.2-0.594,0.42-0.868,0.66
		c-0.146,0.217-0.28,0.444-0.399,0.677c-73.919,79.815-73.756,203.135,0.373,282.754c0.13,0.156,0.182,0.347,0.321,0.495
		c0.139,0.148,0.295,0.165,0.417,0.278c78.555,82.89,209.228,87.002,292.839,9.215S438.216,151.412,361.203,67.088z M17.564,216.948
		h82.345c0.061,1.996,0.121,3.975,0.226,5.814c0,3.541,0.182,6.942,0.417,9.789c0,0.174,0,0.347,0,0.512
		c0.004,1.488,0.097,2.975,0.278,4.452v0.399v0.069c0.26,3.723,0.538,7.446,0.92,10.631v0.182v0.13
		c0.095,1.31,0.2,2.603,0.373,3.931c0,0.182,0.139,0.33,0.174,0.512c1.868,16.736,4.937,33.316,9.181,49.612
		c-17.303,7.567-33.497,17.452-48.137,29.384C35.59,300.102,19.47,259.46,17.564,216.948z M63.34,84.218
		c14.602,11.897,30.73,21.788,47.954,29.41c-7.117,28.116-10.94,56.965-11.394,85.964H17.564
		C19.48,157.094,35.599,116.469,63.34,84.218z M298.617,232.212l-0.252,4.079c-0.26,3.662-0.599,7.316-0.946,10.847
		c-1.67,16.605-4.57,33.063-8.678,49.239c-23.095-8.169-47.316-12.715-71.801-13.477v-65.953h82.311
		c-0.052,1.9-0.113,3.81-0.217,5.814C299.034,225.921,298.86,229.001,298.617,232.212z M199.584,282.9
		c-24.487,0.753-48.711,5.29-71.81,13.451c-4.106-16.164-7.006-32.611-8.678-49.204v-0.113v-0.087v-0.234
		c-0.304-3.159-0.599-6.43-0.868-10.032v-0.417l-0.043-0.486c-0.145-1.236-0.218-2.479-0.217-3.723
		c-0.243-3.063-0.408-6.135-0.408-9.285c0-0.165,0-0.295,0-0.451c-0.095-1.736-0.078-3.558-0.121-5.337h82.146V282.9z
		 M199.584,300.256v98.061c-26.789-5.632-51.755-37.315-67.055-85.166C154.072,305.382,176.697,301.031,199.584,300.256z
		 M283.995,313.108c-15.291,47.833-40.24,79.525-67.055,85.209v-98.061c22.886,0.773,45.511,5.118,67.055,12.878V313.108z
		 M216.94,199.592v-66.178c24.457-0.719,48.662-5.155,71.784-13.156c6.492,25.963,10.029,52.577,10.544,79.334H216.94z
		 M216.94,116.049V18.283c27.57,5.753,51.981,38.53,66.951,85.131C262.344,110.999,239.769,115.259,216.94,116.049z M199.584,18.283
		v97.766c-22.829-0.79-45.404-5.05-66.951-12.635C147.603,56.813,172.014,24.036,199.584,18.283z M199.584,133.413v66.178h-82.328
		c0.514-26.757,4.052-53.371,10.544-79.334C150.922,128.259,175.127,132.695,199.584,133.413z M116.441,319.799
		c7.769,26.782,21.482,51.465,40.118,72.209c-30.627-8.652-58.606-24.823-81.391-47.043
		C87.804,334.861,101.672,326.405,116.441,319.799z M300.092,319.799c14.771,6.606,28.642,15.062,41.281,25.166
		c-22.789,22.236-50.777,38.42-81.417,47.078c18.645-20.757,32.364-45.455,40.136-72.253V319.799z M304.961,302.99
		c4.242-16.29,7.308-32.865,9.173-49.595c0-0.191,0.148-0.338,0.174-0.529c0.191-1.415,0.304-2.82,0.364-3.801
		c0.425-3.593,0.694-7.281,0.981-11.412v-0.208l0.252-4.001v-0.095c0.26-3.471,0.451-6.994,0.434-10.11v-0.217v-0.286
		c0.104-1.909,0.095-3.862,0.148-5.788h82.441c-1.907,42.477-18.007,83.086-45.724,115.33
		c-14.676-11.909-30.906-21.765-48.241-29.297V302.99z M316.624,199.592c-0.445-28.998-4.26-57.847-11.368-85.964
		c17.215-7.624,33.334-17.514,47.928-29.41c27.741,32.251,43.86,72.876,45.776,115.374H316.624z M341.304,71.531
		c-12.561,10.058-26.326,18.512-40.977,25.166c-7.793-26.756-21.517-51.411-40.153-72.131
		C290.699,33.238,318.582,49.379,341.304,71.531z M116.198,96.697c-14.651-6.654-28.416-15.108-40.977-25.166
		c22.724-22.145,50.607-38.28,81.13-46.948c-18.636,20.72-32.36,45.375-40.153,72.131V96.697z"/>
	<path style="fill:#BDC3C7;" d="M286.364,251.659h190.915c19.171,0,34.712,15.541,34.712,34.712v190.915
		c0,19.171-15.541,34.712-34.712,34.712H286.364c-19.171,0-34.712-15.541-34.712-34.712V286.371
		C251.652,267.2,267.193,251.659,286.364,251.659z"/>
	<g>
		<path style="fill:#3F5C6C;" d="M312.398,477.287c-4.793,0-8.678-3.885-8.678-8.678V295.049c0-4.793,3.885-8.678,8.678-8.678
			c4.793,0,8.678,3.885,8.678,8.678v173.559C321.076,473.401,317.191,477.287,312.398,477.287z"/>
		<path style="fill:#3F5C6C;" d="M381.822,477.287c-4.793,0-8.678-3.885-8.678-8.678V295.049c0-4.793,3.885-8.678,8.678-8.678
			s8.678,3.885,8.678,8.678v173.559C390.5,473.401,386.614,477.287,381.822,477.287z"/>
		<path style="fill:#3F5C6C;" d="M451.245,477.287c-4.793,0-8.678-3.885-8.678-8.678V295.049c0-4.793,3.885-8.678,8.678-8.678
			c4.793,0,8.678,3.885,8.678,8.678v173.559C459.923,473.401,456.038,477.287,451.245,477.287z"/>
	</g>
	<g>
		<circle style="fill:#DF4D60;" cx="312.398" cy="425.219" r="26.034"/>
		<circle style="fill:#DF4D60;" cx="381.822" cy="338.439" r="26.034"/>
		<circle style="fill:#DF4D60;" cx="451.245" cy="425.219" r="26.034"/>
	</g>
</g>
<g>
</g>
<g>
</g>
<g>
</g>
<g>
</g>
<g>
</g>
<g>
</g>
<g>
</g>
<g>
</g>
<g>
</g>
<g>
</g>
<g>
</g>
<g>
</g>
<g>
</g>
<g>
</g>
<g>
</g>
</svg>
