<?xml version="1.0" encoding="iso-8859-1"?>
<!-- Generator: Adobe Illustrator 21.0.0, SVG Export Plug-In . SVG Version: 6.00 Build 0)  -->
<svg version="1.1" id="Capa_1" xmlns="http://www.w3.org/2000/svg" xmlns:xlink="http://www.w3.org/1999/xlink" x="0px" y="0px"
	 viewBox="0 0 512 512" style="enable-background:new 0 0 512 512;" xml:space="preserve">
<g>
	<path style="fill:#D1D4D1;" d="M512,52.966V476.69c0,19.501-15.809,35.31-35.31,35.31H35.31C15.809,512,0,496.191,0,476.69V52.966
		H512z"/>
	<path style="fill:#955BA5;" d="M512,35.31v35.31H0V35.31C0,15.809,15.809,0,35.31,0H476.69C496.191,0,512,15.809,512,35.31z"/>
	<path style="fill:#FF5364;" d="M52.966,26.483h-8.828c-4.875,0-8.828,3.952-8.828,8.828s3.952,8.828,8.828,8.828h8.828
		c4.875,0,8.828-3.952,8.828-8.828S57.841,26.483,52.966,26.483z"/>
	<path style="fill:#F0C419;" d="M91.63,27.189c-2.131-0.972-4.578-0.972-6.709,0c-1.069,0.448-2.055,1.075-2.913,1.854
		c-3.414,3.481-3.414,9.054,0,12.535c0.859,0.779,1.844,1.406,2.913,1.854c2.137,0.941,4.572,0.941,6.709,0
		c1.069-0.448,2.055-1.075,2.913-1.854c3.414-3.481,3.414-9.054,0-12.535C93.685,28.264,92.7,27.637,91.63,27.189z"/>
	<path style="fill:#65DDB9;" d="M117.319,29.043c-0.779,0.859-1.406,1.844-1.854,2.913c-0.942,2.137-0.942,4.572,0,6.709
		c0.448,1.069,1.075,2.055,1.854,2.913c3.481,3.414,9.054,3.414,12.535,0c0.779-0.859,1.406-1.844,1.854-2.913
		c0.495-1.047,0.737-2.196,0.706-3.354c0.021-3.586-2.13-6.829-5.442-8.204C123.659,25.731,119.844,26.496,117.319,29.043z"/>
	<path style="fill:#804169;" d="M467.862,26.483H167.724c-4.875,0-8.828,3.952-8.828,8.828s3.952,8.828,8.828,8.828h300.138
		c4.875,0,8.828-3.952,8.828-8.828S472.737,26.483,467.862,26.483z"/>
	<path style="fill:#41767F;" d="M247.172,476.69h6.727c34.051,1.248,67.279-10.638,92.813-33.201
		c27.149-25.706,42.275-61.618,41.702-99.001v-186.73c0.007-2.462-1.014-4.816-2.818-6.492c-1.804-1.676-4.225-2.523-6.68-2.336
		c-22.166,1.668-78.972,1.368-125.943-37.959c-3.348-2.833-8.252-2.833-11.599,0c-46.972,39.292-103.777,39.592-125.943,37.959
		c-2.455-0.187-4.877,0.66-6.68,2.336c-1.804,1.676-2.825,4.03-2.818,6.492v186.73c-0.574,37.384,14.553,73.295,41.702,99.001
		c25.534,22.562,58.762,34.449,92.813,33.201H247.172z"/>
	<g>
		<path style="fill:#65DDB9;" d="M247.172,300.138v141.241h-6.709c-25.229,1.083-49.92-7.505-69.032-24.011
			c-19.847-18.993-30.802-45.451-30.19-72.916v-44.314H247.172z"/>
		<path style="fill:#65DDB9;" d="M353.103,184.408v115.73H247.172V150.687C278.866,171.127,315.427,182.765,353.103,184.408z"/>
	</g>
	<g>
		<path style="fill:#26B99A;" d="M247.172,150.687v149.451H141.241v-115.73C178.918,182.765,215.479,171.127,247.172,150.687z"/>
		<path style="fill:#26B99A;" d="M353.103,300.138v44.314c0.612,27.464-10.343,53.922-30.19,72.916
			c-19.111,16.506-43.802,25.094-69.032,24.011h-6.709V300.138H353.103z"/>
	</g>
	<g>
		<path style="fill:#65DDB9;" d="M176.552,229.517c2.341-0.001,4.586-0.931,6.241-2.586l8.828-8.828
			c3.345-3.464,3.298-8.97-0.108-12.375s-8.911-3.453-12.375-0.108l-8.828,8.828c-2.524,2.525-3.279,6.321-1.913,9.619
			C169.764,227.366,172.982,229.516,176.552,229.517z"/>
		<path style="fill:#65DDB9;" d="M205.621,223.276l-35.31,35.31c-2.295,2.216-3.215,5.499-2.407,8.585
			c0.808,3.086,3.218,5.497,6.305,6.305c3.086,0.808,6.368-0.112,8.585-2.407l35.31-35.31c3.345-3.464,3.298-8.97-0.108-12.375
			S209.085,219.931,205.621,223.276z"/>
		<path style="fill:#65DDB9;" d="M282.483,353.103c2.341-0.001,4.586-0.931,6.241-2.586l8.828-8.828
			c3.345-3.464,3.298-8.97-0.108-12.375c-3.405-3.405-8.911-3.453-12.375-0.108l-8.828,8.828c-2.524,2.525-3.279,6.321-1.913,9.619
			C275.695,350.952,278.913,353.103,282.483,353.103z"/>
		<path style="fill:#65DDB9;" d="M324.034,346.862c-3.447-3.446-9.035-3.446-12.482,0l-35.31,35.31
			c-2.295,2.216-3.215,5.499-2.407,8.585c0.808,3.086,3.218,5.497,6.305,6.305c3.086,0.808,6.368-0.112,8.585-2.407l35.31-35.31
			C327.48,355.897,327.48,350.31,324.034,346.862z"/>
	</g>
</g>
<g>
</g>
<g>
</g>
<g>
</g>
<g>
</g>
<g>
</g>
<g>
</g>
<g>
</g>
<g>
</g>
<g>
</g>
<g>
</g>
<g>
</g>
<g>
</g>
<g>
</g>
<g>
</g>
<g>
</g>
</svg>
