<?xml version="1.0" encoding="iso-8859-1"?>
<!-- Generator: Adobe Illustrator 21.0.0, SVG Export Plug-In . SVG Version: 6.00 Build 0)  -->
<svg version="1.1" id="Capa_1" xmlns="http://www.w3.org/2000/svg" xmlns:xlink="http://www.w3.org/1999/xlink" x="0px" y="0px"
	 viewBox="0 0 512 512" style="enable-background:new 0 0 512 512;" xml:space="preserve">
<g>
	<path style="fill:#F0C419;" d="M256,35.31C134.116,35.31,35.31,134.116,35.31,256S134.116,476.69,256,476.69
		S476.69,377.884,476.69,256c0-58.531-23.251-114.664-64.639-156.051S314.531,35.31,256,35.31z M256,432.552
		c-97.507,0-176.552-79.045-176.552-176.552S158.493,79.448,256,79.448S432.552,158.493,432.552,256
		C432.454,353.466,353.466,432.454,256,432.552z"/>
	<path style="fill:#E64C3C;" d="M256,0c-58.527,0-105.931,15.801-105.931,35.31v158.897c0,19.509,47.404,35.31,105.931,35.31
		s105.931-15.801,105.931-35.31V35.31C361.931,15.801,314.527,0,256,0z"/>
	<g>
		<path style="fill:#C03A2B;" d="M361.931,141.241v52.966c0,19.509-47.404,35.31-105.931,35.31s-105.931-15.801-105.931-35.31
			v-52.966c0,19.509,47.404,35.31,105.931,35.31S361.931,160.75,361.931,141.241z"/>
		<path style="fill:#C03A2B;" d="M361.931,35.31v52.966c0,19.509-47.404,35.31-105.931,35.31s-105.931-15.801-105.931-35.31V35.31
			c0,19.509,47.404,35.31,105.931,35.31S361.931,54.819,361.931,35.31z"/>
	</g>
	<path style="fill:#DB493E;" d="M220.69,174.521v52.966c-11.953-1.276-23.77-3.609-35.31-6.974v-52.966
		C196.92,170.912,208.736,173.246,220.69,174.521z"/>
	<path style="fill:#FB7B76;" d="M220.69,121.556v52.966c-11.953-1.276-23.77-3.609-35.31-6.974v-52.966
		C196.92,117.947,208.736,120.28,220.69,121.556z"/>
	<path style="fill:#DB493E;" d="M220.69,68.59v52.966c-11.953-1.276-23.77-3.609-35.31-6.974V61.617
		C196.92,64.981,208.736,67.315,220.69,68.59z"/>
	<path style="fill:#E64C3C;" d="M105.931,282.483C47.404,282.483,0,298.284,0,317.793V476.69C0,496.199,47.404,512,105.931,512
		s105.931-15.801,105.931-35.31V317.793C211.862,298.284,164.458,282.483,105.931,282.483z"/>
	<g>
		<path style="fill:#C03A2B;" d="M211.862,423.724v52.966c0,19.509-47.404,35.31-105.931,35.31S0,496.199,0,476.69v-52.966
			c0,19.509,47.404,35.31,105.931,35.31S211.862,443.233,211.862,423.724z"/>
		<path style="fill:#C03A2B;" d="M211.862,317.793v52.966c0,19.509-47.404,35.31-105.931,35.31S0,390.268,0,370.759v-52.966
			c0,19.509,47.404,35.31,105.931,35.31S211.862,337.302,211.862,317.793z"/>
	</g>
	<path style="fill:#DB493E;" d="M70.621,457.004v52.966c-11.953-1.276-23.77-3.609-35.31-6.974V450.03
		C46.851,453.395,58.667,455.729,70.621,457.004z"/>
	<path style="fill:#FB7B76;" d="M70.621,404.039v52.966c-11.953-1.276-23.77-3.609-35.31-6.974v-52.966
		C46.851,400.429,58.667,402.763,70.621,404.039z"/>
	<path style="fill:#DB493E;" d="M70.621,351.073v52.966c-11.953-1.276-23.77-3.609-35.31-6.974v-52.966
		C46.851,347.464,58.667,349.798,70.621,351.073z"/>
	<path style="fill:#E64C3C;" d="M406.069,282.483c-58.527,0-105.931,15.801-105.931,35.31V476.69
		c0,19.509,47.404,35.31,105.931,35.31S512,496.199,512,476.69V317.793C512,298.284,464.596,282.483,406.069,282.483z"/>
	<g>
		<path style="fill:#C03A2B;" d="M512,423.724v52.966c0,19.509-47.404,35.31-105.931,35.31s-105.931-15.801-105.931-35.31v-52.966
			c0,19.509,47.404,35.31,105.931,35.31S512,443.233,512,423.724z"/>
		<path style="fill:#C03A2B;" d="M512,317.793v52.966c0,19.509-47.404,35.31-105.931,35.31s-105.931-15.801-105.931-35.31v-52.966
			c0,19.509,47.404,35.31,105.931,35.31S512,337.302,512,317.793z"/>
	</g>
	<path style="fill:#DB493E;" d="M370.759,457.004v52.966c-11.953-1.276-23.77-3.609-35.31-6.974V450.03
		C346.989,453.395,358.805,455.729,370.759,457.004z"/>
	<path style="fill:#FB7B76;" d="M370.759,404.039v52.966c-11.953-1.276-23.77-3.609-35.31-6.974v-52.966
		C346.989,400.429,358.805,402.763,370.759,404.039z"/>
	<path style="fill:#DB493E;" d="M370.759,351.073v52.966c-11.953-1.276-23.77-3.609-35.31-6.974v-52.966
		C346.989,347.464,358.805,349.798,370.759,351.073z"/>
</g>
<g>
</g>
<g>
</g>
<g>
</g>
<g>
</g>
<g>
</g>
<g>
</g>
<g>
</g>
<g>
</g>
<g>
</g>
<g>
</g>
<g>
</g>
<g>
</g>
<g>
</g>
<g>
</g>
<g>
</g>
</svg>
