<?xml version="1.0" encoding="iso-8859-1"?>
<!-- Generator: Adobe Illustrator 21.0.0, SVG Export Plug-In . SVG Version: 6.00 Build 0)  -->
<svg version="1.1" id="Capa_1" xmlns="http://www.w3.org/2000/svg" xmlns:xlink="http://www.w3.org/1999/xlink" x="0px" y="0px"
	 viewBox="0 0 512 512" style="enable-background:new 0 0 512 512;" xml:space="preserve">
<g>
	<path style="fill:#D1D4D1;" d="M512,79.448V476.69c0,19.501-15.809,35.31-35.31,35.31H35.31C15.809,512,0,496.191,0,476.69V79.448
		H512z"/>
	<path style="fill:#E64C3C;" d="M512,70.621v26.483H0V70.621c0-19.501,15.809-35.31,35.31-35.31H476.69
		C496.191,35.31,512,51.119,512,70.621z"/>
	<g>
		<path style="fill:#E6E7E8;" d="M67.734,0h5.773c8.156,0,14.769,6.612,14.769,14.769v32.256c0,8.156-6.612,14.769-14.769,14.769
			h-5.773c-8.156,0-14.769-6.612-14.769-14.769V14.769C52.966,6.612,59.578,0,67.734,0z"/>
		<path style="fill:#E6E7E8;" d="M191.32,0h5.773c8.156,0,14.769,6.612,14.769,14.769v32.256c0,8.156-6.612,14.769-14.769,14.769
			h-5.773c-8.156,0-14.769-6.612-14.769-14.769V14.769C176.552,6.612,183.164,0,191.32,0z"/>
		<path style="fill:#E6E7E8;" d="M314.906,0h5.773c8.156,0,14.769,6.612,14.769,14.769v32.256c0,8.156-6.612,14.769-14.769,14.769
			h-5.773c-8.156,0-14.769-6.612-14.769-14.769V14.769C300.138,6.612,306.75,0,314.906,0z"/>
		<path style="fill:#E6E7E8;" d="M438.493,0h5.773c8.156,0,14.769,6.612,14.769,14.769v32.256c0,8.156-6.612,14.769-14.769,14.769
			h-5.773c-8.156,0-14.769-6.612-14.769-14.769V14.769C423.724,6.612,430.336,0,438.493,0z"/>
	</g>
	<path style="fill:#41767F;" d="M209.814,291.752l-25.423-25.423c-26.504,11.206-57.155,5.234-77.512-15.104
		s-26.359-50.983-15.178-77.497l35.046,34.957c6.621,7.003,16.523,9.856,25.855,7.451c9.332-2.406,16.62-9.691,19.031-19.022
		c2.41-9.331-0.439-19.234-7.439-25.858l-34.957-35.046c26.517-11.22,57.189-5.233,77.539,15.136
		c20.35,20.369,26.308,51.047,15.063,77.553l44.138,44.138l24.982,24.982L432.64,439.702c5.139,5.132,7.945,12.148,7.761,19.409
		s-3.341,14.126-8.732,18.991c-11.092,9.3-27.494,8.412-37.517-2.03L272.225,354.163L209.814,291.752z"/>
	<polygon style="fill:#A5A5A4;" points="371.712,217.247 415.409,185.997 440.391,148.568 415.409,123.586 377.98,148.568 
		346.73,192.265 225.351,313.644 250.333,338.626 	"/>
	<path style="fill:#F0C419;" d="M196.952,311.932v12.482c0,9.751-7.904,17.655-17.655,17.655h-12.456
		c-4.682,0.001-9.172,1.862-12.482,5.173L84.621,416.98c-6.858,6.908-6.858,18.056,0,24.964l37.455,37.455
		c6.908,6.858,18.056,6.858,24.964,0l69.738-69.738c3.311-3.31,5.172-7.8,5.173-12.482v-12.482c0-9.751,7.904-17.655,17.655-17.655
		h12.482c4.682-0.001,9.172-1.862,12.482-5.173l7.318-7.309c6.859-6.911,6.859-18.062,0-24.973l-37.455-37.455
		c-6.911-6.859-18.062-6.859-24.973,0l-7.309,7.318C198.831,302.755,196.96,307.246,196.952,311.932z"/>
	<g>
		<path style="fill:#679199;" d="M156.469,260.979c-16.914,0-33.916-8.969-49.346-26.624c-3.21-3.671-2.837-9.25,0.834-12.46
			c3.671-3.21,9.25-2.837,12.46,0.834c19.703,22.546,39.442,26.598,58.65,12.076c2.51-1.977,5.893-2.443,8.844-1.218
			c2.951,1.224,5.01,3.948,5.384,7.121c0.374,3.173-0.996,6.301-3.582,8.177C180.274,256.481,168.583,260.734,156.469,260.979z"/>
		<path style="fill:#679199;" d="M387.425,449.236c-2.341,0-4.586-0.931-6.241-2.586l-79.448-79.448
			c-3.447-3.459-3.437-9.057,0.022-12.504c3.459-3.447,9.057-3.437,12.504,0.022l79.448,79.448c2.524,2.525,3.279,6.321,1.913,9.619
			c-1.366,3.298-4.584,5.449-8.154,5.45H387.425z"/>
	</g>
	<path style="fill:#F5D96C;" d="M109.356,435.994c-3.57-0.001-6.788-2.152-8.154-5.45c-1.366-3.298-0.611-7.094,1.913-9.619
		l48.552-48.552c3.454-3.459,9.058-3.463,12.518-0.009c3.459,3.454,3.463,9.058,0.009,12.518l-48.552,48.552
		C113.971,435.091,111.709,436.013,109.356,435.994z"/>
</g>
<g>
</g>
<g>
</g>
<g>
</g>
<g>
</g>
<g>
</g>
<g>
</g>
<g>
</g>
<g>
</g>
<g>
</g>
<g>
</g>
<g>
</g>
<g>
</g>
<g>
</g>
<g>
</g>
<g>
</g>
</svg>
