<?xml version="1.0" encoding="iso-8859-1"?>
<!-- Generator: Adobe Illustrator 21.0.0, SVG Export Plug-In . SVG Version: 6.00 Build 0)  -->
<svg version="1.1" id="Capa_1" xmlns="http://www.w3.org/2000/svg" xmlns:xlink="http://www.w3.org/1999/xlink" x="0px" y="0px"
	 viewBox="0 0 509.279 509.279" style="enable-background:new 0 0 509.279 509.279;" xml:space="preserve">
<g transform="translate(-1)">
	<path style="fill:#547580;" d="M367.507,59.084v234.687c0.511,46.107-18.681,90.241-52.753,121.309
		c-11.221,10.007-23.82,18.354-37.411,24.784c-2.777,1.302-5.641,2.603-8.591,3.732s-5.988,2.343-9.025,3.384
		s-6.335,2.083-9.633,2.951c-0.255,0.176-0.558,0.267-0.868,0.26c-3.037,0.868-6.075,1.562-9.285,2.256
		c-2.951,0.694-5.901,1.302-9.025,1.736c-1.475,0.26-2.951,0.521-4.426,0.694c-1.909,0.347-3.818,0.607-5.727,0.781
		c-1.784,0.264-3.579,0.437-5.38,0.521c-2.951,0.347-5.988,0.607-9.112,0.694c-3.992,0.26-8.071,0.347-12.323,0.347h-17.356
		c-4.252,0-8.331-0.087-12.323-0.347c-3.124-0.087-6.161-0.347-9.112-0.694c-1.801-0.083-3.597-0.257-5.38-0.521
		c-1.909-0.174-3.818-0.434-5.727-0.781c-1.475-0.174-2.951-0.434-4.426-0.694c-3.124-0.434-6.075-1.041-9.025-1.736
		c-3.211-0.694-6.248-1.388-9.285-2.256c-0.347-0.087-0.607-0.174-0.868-0.26c-3.298-0.868-6.508-1.822-9.633-2.951
		c-3.124-1.128-6.075-2.169-9.025-3.384c-2.951-1.215-5.814-2.43-8.591-3.732c-13.591-6.43-26.189-14.777-37.411-24.784
		C21.713,384.012,2.521,339.878,3.032,293.771V59.084c-0.009-2.435,1.006-4.762,2.797-6.413c1.791-1.65,4.192-2.472,6.619-2.265
		c26.546,2.282,104.179,3.653,167.259-48.388c3.221-2.69,7.904-2.69,11.125,0c63.08,52.068,140.713,50.671,167.259,48.388
		c2.426-0.207,4.828,0.615,6.619,2.265C366.501,54.321,367.515,56.648,367.507,59.084z"/>
	<path style="fill:#26B99A;" d="M185.269,41.285v181.63H37.744V85.977C90.2,85.622,141.435,70.101,185.269,41.285z"/>
	<path style="fill:#65DDB9;" d="M185.269,222.915v199.593h-8.678c-3.211,0-6.335-0.087-9.459-0.174
		c-1.736-0.087-3.384-0.26-5.033-0.347c-1.649-0.087-3.298-0.26-4.946-0.434c-1.475-0.174-2.864-0.26-4.339-0.521
		c-6.171-0.682-12.289-1.784-18.311-3.298c-5.461-1.269-10.826-2.922-16.054-4.946c-1.736-0.607-3.471-1.302-5.12-1.996
		c-8.294-3.426-16.181-7.762-23.517-12.93c-3.521-2.483-6.91-5.148-10.153-7.984c-27.26-24.671-42.54-59.911-41.915-96.673v-70.292
		H185.269z"/>
	<path style="fill:#26B99A;" d="M332.795,222.915v70.292c0.625,36.761-14.654,72.002-41.915,96.673
		c-3.244,2.836-6.633,5.501-10.153,7.984c-7.336,5.168-15.223,9.505-23.517,12.93c-1.649,0.694-3.384,1.388-5.12,1.996
		c-5.228,2.025-10.593,3.678-16.054,4.946c-6.02,1.522-12.138,2.623-18.311,3.298c-1.475,0.26-2.864,0.347-4.339,0.521
		c-1.649,0.174-3.298,0.347-4.946,0.434c-1.649,0.087-3.298,0.26-5.033,0.347c-3.124,0.087-6.248,0.174-9.459,0.174h-8.678V222.915
		H332.795z"/>
	<g>
		<path style="fill:#65DDB9;" d="M332.795,85.977v136.938H185.269V41.285C229.109,70.09,280.34,85.61,332.795,85.977z"/>
		<path style="fill:#65DDB9;" d="M72.456,144.813c1.878,0.004,3.706-0.606,5.207-1.736l34.712-26.034
			c3.834-2.876,4.611-8.315,1.736-12.149c-2.876-3.834-8.315-4.611-12.149-1.736l-34.712,26.034
			c-2.988,2.241-4.207,6.143-3.026,9.687C65.404,142.423,68.72,144.813,72.456,144.813z"/>
		<path style="fill:#65DDB9;" d="M145.229,111.924l-78.102,60.746c-3.786,2.943-4.47,8.398-1.527,12.184
			c2.943,3.786,8.398,4.47,12.184,1.527l78.102-60.746c3.786-2.943,4.47-8.398,1.527-12.184
			C154.47,109.665,149.015,108.981,145.229,111.924z"/>
		<path style="fill:#65DDB9;" d="M219.981,292.339c1.878,0.004,3.706-0.606,5.207-1.736l34.712-26.034
			c2.48-1.86,3.78-4.902,3.409-7.98c-0.371-3.078-2.356-5.724-5.207-6.942c-2.851-1.218-6.135-0.822-8.616,1.038l-34.712,26.034
			c-2.988,2.241-4.207,6.143-3.026,9.687C212.93,289.948,216.246,292.339,219.981,292.339z"/>
		<path style="fill:#65DDB9;" d="M304.93,260.976c-2.939-3.767-8.369-4.449-12.149-1.527l-78.102,60.746
			c-3.786,2.943-4.47,8.398-1.527,12.184c2.943,3.786,8.398,4.47,12.184,1.527l78.102-60.746c1.814-1.418,2.99-3.498,3.27-5.783
			C306.987,265.093,306.348,262.79,304.93,260.976z"/>
	</g>
	<g>
		<path style="fill:#7D6599;" d="M352.902,287.245c-3.388-3.396-8.888-3.401-12.284-0.013c-3.396,3.388-3.401,8.888-0.013,12.284
			l24.993,24.993c2.192,2.201,5.392,3.066,8.394,2.268c3.002-0.798,5.351-3.136,6.161-6.135c0.81-2.999-0.041-6.202-2.233-8.404
			L352.902,287.245z"/>
		<path style="fill:#7D6599;" d="M457.037,287.245c-3.389-3.388-8.882-3.388-12.271,0l-24.993,24.993
			c-2.256,2.179-3.161,5.405-2.366,8.439c0.794,3.034,3.164,5.404,6.198,6.198c3.034,0.794,6.261-0.111,8.439-2.366l24.993-24.993
			C460.425,296.127,460.425,290.633,457.037,287.245z"/>
	</g>
	<g>
		<path style="fill:#3D324C;" d="M307.195,375.074l36.821,12.279c4.553,1.517,9.474-0.944,10.991-5.498
			c1.517-4.553-0.944-9.474-5.498-10.991l-36.821-12.271c-4.301-1.434-6.774-5.937-5.675-10.335l4.782-19.092
			c1.126-4.634-1.698-9.308-6.324-10.466c-4.626-1.159-9.32,1.632-10.511,6.249l-4.782,19.092
			C286.923,357.237,294.319,370.725,307.195,375.074z"/>
		<path style="fill:#3D324C;" d="M344.015,440.307l-36.812,12.279c-12.871,4.346-20.269,17.823-17.026,31.015l4.782,19.092
			c0.966,3.858,4.432,6.565,8.409,6.569c0.711,0.003,1.42-0.085,2.109-0.26c2.234-0.557,4.155-1.98,5.34-3.954
			s1.537-4.339,0.978-6.572l-4.782-19.092c-1.104-4.402,1.37-8.91,5.675-10.344l36.821-12.271c4.553-1.517,7.014-6.438,5.498-10.991
			c-1.517-4.553-6.438-7.014-10.991-5.497V440.307z"/>
		<path style="fill:#3D324C;" d="M346.766,405.152h-43.39c-4.793,0-8.678,3.885-8.678,8.678c0,4.793,3.885,8.678,8.678,8.678h43.39
			c4.793,0,8.678-3.885,8.678-8.678C355.444,409.037,351.559,405.152,346.766,405.152z"/>
		<path style="fill:#3D324C;" d="M450.902,387.796c0.932,0.001,1.858-0.149,2.742-0.443l36.821-12.279
			c12.871-4.346,20.269-17.823,17.026-31.015l-4.782-19.092c-0.735-3.027-3.037-5.428-6.03-6.29s-6.219-0.054-8.453,2.117
			c-2.233,2.172-3.131,5.374-2.353,8.39l4.773,19.092c1.105,4.399-1.365,8.907-5.667,10.344l-36.829,12.271
			c-4.03,1.353-6.486,5.425-5.803,9.621C443.03,384.708,446.651,387.791,450.902,387.796z"/>
		<path style="fill:#3D324C;" d="M490.465,452.586l-36.821-12.279c-4.553-1.517-9.474,0.944-10.991,5.498
			c-1.517,4.553,0.944,9.474,5.497,10.991l36.829,12.271c4.298,1.437,6.766,5.939,5.667,10.335l-4.773,19.092
			c-1.164,4.649,1.66,9.362,6.309,10.526c0.692,0.176,1.403,0.263,2.117,0.26c3.977-0.004,7.443-2.711,8.409-6.569l4.782-19.092
			C510.749,470.421,503.346,456.929,490.465,452.586z"/>
		<path style="fill:#3D324C;" d="M450.902,422.508h43.39c4.793,0,8.678-3.885,8.678-8.678c0-4.793-3.885-8.678-8.678-8.678h-43.39
			c-4.793,0-8.678,3.885-8.678,8.678C442.224,418.623,446.109,422.508,450.902,422.508z"/>
	</g>
	<path style="fill:#7D6599;" d="M450.902,353.084v86.78c0.01,25.401-18.338,47.089-43.39,51.287c-5.738,1.041-11.617,1.041-17.356,0
		c-25.051-4.198-43.4-25.886-43.39-51.287v-86.78H450.902z"/>
	<g>
		<path style="fill:#3D324C;" d="M450.902,353.084H346.766c0-28.756,23.312-52.068,52.068-52.068
			C427.572,301.06,450.859,324.346,450.902,353.084z"/>
		<path style="fill:#3D324C;" d="M407.512,405.152v85.999c-5.738,1.041-11.617,1.041-17.356,0v-85.999
			c0-4.793,3.885-8.678,8.678-8.678C403.627,396.474,407.512,400.359,407.512,405.152z"/>
	</g>
</g>
<g>
</g>
<g>
</g>
<g>
</g>
<g>
</g>
<g>
</g>
<g>
</g>
<g>
</g>
<g>
</g>
<g>
</g>
<g>
</g>
<g>
</g>
<g>
</g>
<g>
</g>
<g>
</g>
<g>
</g>
</svg>
