<?xml version="1.0" encoding="iso-8859-1"?>
<!-- Generator: Adobe Illustrator 21.0.0, SVG Export Plug-In . SVG Version: 6.00 Build 0)  -->
<svg version="1.1" id="Capa_1" xmlns="http://www.w3.org/2000/svg" xmlns:xlink="http://www.w3.org/1999/xlink" x="0px" y="0px"
	 viewBox="0 0 504.749 504.749" style="enable-background:new 0 0 504.749 504.749;" xml:space="preserve">
<g>
	<path style="fill:#59474E;" d="M407.147,383.045l91.466,91.466c4.754,4.292,6.757,10.853,5.212,17.069
		c-1.545,6.215-6.387,11.075-12.597,12.642c-6.21,1.567-12.778-0.413-17.087-5.152l-91.553-91.553L407.147,383.045z"/>
	<path style="fill:#547580;" d="M382.242,286.373v104.136c0,43.129-85.478,78.102-190.915,78.102S0.411,433.638,0.411,390.508
		V286.373C0.411,329.502,382.242,329.502,382.242,286.373z"/>
	<path style="fill:#B0D3F0;" d="M35.123,390.508c-2.297-0.034-4.497-0.932-6.161-2.517c-0.766-0.844-1.382-1.812-1.822-2.864
		c-0.445-1.043-0.681-2.164-0.694-3.298c0.034-2.297,0.932-4.497,2.517-6.161c2.514-2.426,6.223-3.141,9.459-1.822
		c1.051,0.44,2.02,1.056,2.864,1.822c1.584,1.664,2.483,3.864,2.517,6.161c-0.014,1.134-0.25,2.254-0.694,3.298
		c-0.44,1.051-1.057,2.02-1.822,2.864c-0.844,0.766-1.812,1.382-2.864,1.822C37.377,390.259,36.257,390.495,35.123,390.508z"/>
	<path style="fill:#3F5C6C;" d="M382.242,182.237v104.136c0,43.129-85.478,78.102-190.915,78.102S0.411,329.502,0.411,286.373
		V182.237C0.411,225.367,382.242,225.367,382.242,182.237z"/>
	<g>
		<path style="fill:#547580;" d="M35.123,286.373c-2.297-0.034-4.497-0.932-6.161-2.517c-0.766-0.844-1.382-1.812-1.822-2.864
			c-0.445-1.043-0.681-2.164-0.694-3.298c0.034-2.297,0.932-4.497,2.517-6.161c2.514-2.426,6.223-3.141,9.459-1.822
			c1.051,0.44,2.02,1.057,2.864,1.822c1.584,1.664,2.483,3.864,2.517,6.161c-0.014,1.134-0.25,2.254-0.694,3.298
			c-0.44,1.051-1.057,2.02-1.822,2.864c-0.844,0.766-1.812,1.382-2.864,1.822C37.377,286.123,36.257,286.359,35.123,286.373z"/>
		<path style="fill:#547580;" d="M382.242,78.102v104.136c0,43.129-85.478,78.102-190.915,78.102S0.411,225.367,0.411,182.237
			V78.102C0.411,121.231,382.242,121.231,382.242,78.102z"/>
	</g>
	<path style="fill:#B0D3F0;" d="M35.123,182.237c-2.297-0.034-4.497-0.932-6.161-2.517c-0.766-0.844-1.382-1.812-1.822-2.864
		c-0.445-1.043-0.681-2.164-0.694-3.298c0.034-2.297,0.932-4.497,2.517-6.161c2.514-2.426,6.223-3.141,9.459-1.822
		c1.051,0.44,2.02,1.057,2.864,1.822c1.584,1.664,2.483,3.864,2.517,6.161c-0.014,1.134-0.25,2.254-0.694,3.298
		c-0.44,1.051-1.057,2.02-1.822,2.864c-0.844,0.766-1.812,1.382-2.864,1.822C37.377,181.988,36.257,182.224,35.123,182.237z"/>
	<ellipse style="fill:#3F5C6C;" cx="191.326" cy="78.102" rx="190.915" ry="78.102"/>
	<g>
		<path style="fill:#547580;" d="M69.835,69.424c1.105-0.001,2.2-0.21,3.228-0.616l43.39-17.356
			c4.452-1.783,6.617-6.838,4.834-11.29c-1.783-4.452-6.838-6.617-11.29-4.834l-43.39,17.356c-3.87,1.542-6.098,5.615-5.309,9.705
			C62.086,66.479,65.669,69.432,69.835,69.424z"/>
		<path style="fill:#547580;" d="M225.387,31.406c-0.876-2.13-2.563-3.824-4.688-4.709s-4.516-0.89-6.645-0.012L66.529,87.431
			c-4.433,1.826-6.547,6.9-4.721,11.333c1.826,4.433,6.9,6.547,11.333,4.721l147.525-60.746c2.13-0.876,3.824-2.563,4.709-4.688
			C226.261,35.925,226.265,33.534,225.387,31.406z"/>
	</g>
	<circle style="fill:#285680;" cx="320.698" cy="321.085" r="130.169"/>
	<path style="fill:#90BAE1;" d="M320.698,416.542c-45.54-0.003-84.736-32.173-93.619-76.838s15.022-89.385,57.096-106.811
		s90.598-2.706,115.898,35.158c25.301,37.865,20.331,88.329-11.87,120.531C370.338,406.542,346.03,416.61,320.698,416.542z"/>
	<g>
		<path style="fill:#B0D3F0;" d="M278.106,295.051c2.301,0,4.508-0.915,6.135-2.543l17.356-17.356
			c3.289-3.405,3.242-8.818-0.106-12.165c-3.347-3.347-8.76-3.394-12.165-0.106l-17.356,17.356c-2.481,2.482-3.223,6.214-1.88,9.456
			C271.433,292.936,274.597,295.05,278.106,295.051z"/>
		<path style="fill:#B0D3F0;" d="M344.987,271.56c-3.389-3.388-8.882-3.388-12.271,0l-60.746,60.746
			c-2.256,2.179-3.161,5.405-2.366,8.439c0.794,3.034,3.164,5.404,6.198,6.198c3.034,0.794,6.261-0.111,8.439-2.366l60.746-60.746
			C348.375,280.441,348.375,274.948,344.987,271.56z"/>
	</g>
</g>
<g>
</g>
<g>
</g>
<g>
</g>
<g>
</g>
<g>
</g>
<g>
</g>
<g>
</g>
<g>
</g>
<g>
</g>
<g>
</g>
<g>
</g>
<g>
</g>
<g>
</g>
<g>
</g>
<g>
</g>
</svg>
