<?xml version="1.0" encoding="iso-8859-1"?>
<!-- Generator: Adobe Illustrator 21.0.0, SVG Export Plug-In . SVG Version: 6.00 Build 0)  -->
<svg version="1.1" id="Capa_1" xmlns="http://www.w3.org/2000/svg" xmlns:xlink="http://www.w3.org/1999/xlink" x="0px" y="0px"
	 viewBox="0 0 512 512" style="enable-background:new 0 0 512 512;" xml:space="preserve">
<g>
	<path style="fill:#804169;" d="M335.448,247.172h-26.483V79.448c0-14.626-11.857-26.483-26.483-26.483h-44.138
		c-4.875,0-8.828,3.952-8.828,8.828s3.952,8.828,8.828,8.828h44.138c4.875,0,8.828,3.952,8.828,8.828v167.724H256
		c-4.875,0-8.828,3.952-8.828,8.828s3.952,8.828,8.828,8.828h35.31v167.724c0,4.875-3.952,8.828-8.828,8.828h-44.138
		c-4.875,0-8.828,3.952-8.828,8.828c0,4.875,3.952,8.828,8.828,8.828h44.138c14.626,0,26.483-11.857,26.483-26.483V264.828h26.483
		c4.875,0,8.828-3.952,8.828-8.828S340.324,247.172,335.448,247.172z"/>
	<path style="fill:#D1D4D1;" d="M225.624,123.586H30.376C13.6,123.586,0,109.987,0,93.21V30.376C0,13.6,13.6,0,30.376,0h195.249
		C242.4,0,256,13.6,256,30.376V93.21C256,109.987,242.4,123.586,225.624,123.586z"/>
	<circle style="fill:#2FA8CC;" cx="44.138" cy="61.793" r="17.655"/>
	<path style="fill:#D1D4D1;" d="M225.624,317.793H30.376C13.6,317.793,0,304.193,0,287.417v-62.835
		c0-16.776,13.6-30.376,30.376-30.376h195.249c16.776,0,30.376,13.6,30.376,30.376v62.835
		C256,304.193,242.4,317.793,225.624,317.793z"/>
	<circle style="fill:#2FA8CC;" cx="44.138" cy="256" r="17.655"/>
	<path style="fill:#D1D4D1;" d="M225.624,512H30.376C13.6,512,0,498.4,0,481.624V418.79c0-16.776,13.6-30.376,30.376-30.376h195.249
		c16.776,0,30.376,13.6,30.376,30.376v62.835C256,498.4,242.4,512,225.624,512z"/>
	<g>
		<path style="fill:#CC4B4C;" d="M97.103,70.621h17.655c4.875,0,8.828-3.952,8.828-8.828s-3.952-8.828-8.828-8.828H97.103
			c-4.875,0-8.828,3.952-8.828,8.828S92.228,70.621,97.103,70.621z"/>
		<path style="fill:#CC4B4C;" d="M114.759,247.172H97.103c-4.875,0-8.828,3.952-8.828,8.828s3.952,8.828,8.828,8.828h17.655
			c4.875,0,8.828-3.952,8.828-8.828S119.634,247.172,114.759,247.172z"/>
		<path style="fill:#CC4B4C;" d="M114.759,441.379H97.103c-4.875,0-8.828,3.952-8.828,8.828c0,4.875,3.952,8.828,8.828,8.828h17.655
			c4.875,0,8.828-3.952,8.828-8.828C123.586,445.332,119.634,441.379,114.759,441.379z"/>
	</g>
	<circle style="fill:#2FA8CC;" cx="44.138" cy="450.207" r="17.655"/>
	<g>
		<path style="fill:#A5A5A4;" d="M150.069,26.483c-4.875,0-8.828,3.952-8.828,8.828v52.966c0,4.875,3.952,8.828,8.828,8.828
			s8.828-3.952,8.828-8.828V35.31C158.897,30.435,154.944,26.483,150.069,26.483z"/>
		<path style="fill:#A5A5A4;" d="M185.379,26.483c-4.875,0-8.828,3.952-8.828,8.828v52.966c0,4.875,3.952,8.828,8.828,8.828
			c4.875,0,8.828-3.952,8.828-8.828V35.31C194.207,30.435,190.255,26.483,185.379,26.483z"/>
		<path style="fill:#A5A5A4;" d="M220.69,26.483c-4.875,0-8.828,3.952-8.828,8.828v52.966c0,4.875,3.952,8.828,8.828,8.828
			s8.828-3.952,8.828-8.828V35.31C229.517,30.435,225.565,26.483,220.69,26.483z"/>
		<path style="fill:#A5A5A4;" d="M150.069,220.69c-4.875,0-8.828,3.952-8.828,8.828v52.966c0,4.875,3.952,8.828,8.828,8.828
			s8.828-3.952,8.828-8.828v-52.966C158.897,224.642,154.944,220.69,150.069,220.69z"/>
		<path style="fill:#A5A5A4;" d="M185.379,220.69c-4.875,0-8.828,3.952-8.828,8.828v52.966c0,4.875,3.952,8.828,8.828,8.828
			c4.875,0,8.828-3.952,8.828-8.828v-52.966C194.207,224.642,190.255,220.69,185.379,220.69z"/>
		<path style="fill:#A5A5A4;" d="M220.69,220.69c-4.875,0-8.828,3.952-8.828,8.828v52.966c0,4.875,3.952,8.828,8.828,8.828
			s8.828-3.952,8.828-8.828v-52.966C229.517,224.642,225.565,220.69,220.69,220.69z"/>
		<path style="fill:#A5A5A4;" d="M150.069,414.897c-4.875,0-8.828,3.952-8.828,8.828v52.966c0,4.875,3.952,8.828,8.828,8.828
			s8.828-3.952,8.828-8.828v-52.966C158.897,418.849,154.944,414.897,150.069,414.897z"/>
		<path style="fill:#A5A5A4;" d="M185.379,414.897c-4.875,0-8.828,3.952-8.828,8.828v52.966c0,4.875,3.952,8.828,8.828,8.828
			c4.875,0,8.828-3.952,8.828-8.828v-52.966C194.207,418.849,190.255,414.897,185.379,414.897z"/>
		<path style="fill:#A5A5A4;" d="M220.69,414.897c-4.875,0-8.828,3.952-8.828,8.828v52.966c0,4.875,3.952,8.828,8.828,8.828
			s8.828-3.952,8.828-8.828v-52.966C229.517,418.849,225.565,414.897,220.69,414.897z"/>
	</g>
	<circle style="fill:#3B97D3;" cx="423.724" cy="256" r="88.276"/>
	<path style="fill:#FFFFFF;" d="M459.034,238.345c0,19.501-15.809,35.31-35.31,35.31c-19.501,0-35.31-15.809-35.31-35.31
		s15.809-35.31,35.31-35.31C443.213,203.064,459.005,218.856,459.034,238.345z"/>
	<path style="fill:#E6E7E8;" d="M485.517,317.793c0.015,0.414-0.015,0.828-0.088,1.236v0.088c-34.304,33.531-89.106,33.531-123.41,0
		v-0.088c-0.073-0.408-0.103-0.822-0.088-1.236c-0.041-23.941,13.8-45.736,35.487-55.879c6.698,7.481,16.265,11.756,26.306,11.756
		c10.041,0,19.608-4.275,26.306-11.756C471.717,272.057,485.558,293.852,485.517,317.793z"/>
</g>
<g>
</g>
<g>
</g>
<g>
</g>
<g>
</g>
<g>
</g>
<g>
</g>
<g>
</g>
<g>
</g>
<g>
</g>
<g>
</g>
<g>
</g>
<g>
</g>
<g>
</g>
<g>
</g>
<g>
</g>
</svg>
