<?xml version="1.0" encoding="iso-8859-1"?>
<!-- Generator: Adobe Illustrator 21.0.0, SVG Export Plug-In . SVG Version: 6.00 Build 0)  -->
<svg version="1.1" id="Capa_1" xmlns="http://www.w3.org/2000/svg" xmlns:xlink="http://www.w3.org/1999/xlink" x="0px" y="0px"
	 viewBox="0 0 512 512" style="enable-background:new 0 0 512 512;" xml:space="preserve">
<g>
	<circle style="fill:#955BA5;" cx="256" cy="261.884" r="203.034"/>
	<path style="fill:#FF5364;" d="M512,429.608h-52.966V385.47c0,0-67.708-52.966-203.034-52.966S52.966,385.47,52.966,385.47v44.138
		H0l17.655,35.31L0,500.228h105.931v-61.793l-0.265-0.706c48.097-17.776,99.063-26.515,150.334-25.777
		c51.271-0.738,102.237,8.001,150.334,25.777l-0.265,0.706v61.793H512l-17.655-35.31L512,429.608z"/>
	<polygon style="fill:#DF4D60;" points="0,500.228 17.655,464.918 0,429.608 52.966,429.608 52.966,464.918 105.931,500.228 	"/>
	<g>
		<path style="fill:#802D40;" d="M105.931,438.435v61.793l-52.966-35.31c16.252-11.413,33.981-20.56,52.701-27.189L105.931,438.435z
			"/>
		<path style="fill:#802D40;" d="M459.034,464.918l-52.966,35.31v-61.793l0.265-0.706
			C425.053,444.358,442.783,453.505,459.034,464.918z"/>
	</g>
	<polygon style="fill:#DF4D60;" points="494.345,464.918 512,500.228 406.069,500.228 459.034,464.918 459.034,429.608 512,429.608 
			"/>
	<path style="fill:#65DDB9;" d="M291.31,173.608v-61.793h26.483c3.344,0,6.4-1.889,7.896-4.88c1.495-2.991,1.173-6.569-0.834-9.244
		l-61.793-82.388c-1.667-2.223-4.284-3.531-7.062-3.531s-5.395,1.308-7.062,3.531L187.145,97.69
		c-2.006,2.675-2.329,6.254-0.834,9.244c1.495,2.991,4.552,4.88,7.896,4.88h26.483v61.793c0,4.875,3.952,8.828,8.828,8.828h52.966
		C287.358,182.435,291.31,178.483,291.31,173.608z"/>
	<g>
		<path style="fill:#E6E7E8;" d="M167.724,288.366h-8.828v-61.793c0.001-3.06-1.582-5.902-4.184-7.512
			c-2.602-1.61-5.852-1.757-8.59-0.389l-17.655,8.828c-4.363,2.179-6.134,7.483-3.955,11.847c2.179,4.363,7.483,6.134,11.847,3.955
			l4.882-2.445v47.51h-8.828c-4.875,0-8.828,3.952-8.828,8.828s3.952,8.828,8.828,8.828h35.31c4.875,0,8.828-3.952,8.828-8.828
			S172.599,288.366,167.724,288.366z"/>
		<path style="fill:#E6E7E8;" d="M229.517,217.746h-26.483c-9.751,0-17.655,7.904-17.655,17.655v52.965
			c0,9.751,7.904,17.655,17.655,17.655h26.483c9.751,0,17.655-7.905,17.655-17.655v-52.965
			C247.172,225.65,239.268,217.746,229.517,217.746z M203.034,288.366v-52.965h26.483v52.965H203.034z"/>
		<path style="fill:#E6E7E8;" d="M300.138,217.746h-26.483c-9.751,0-17.655,7.904-17.655,17.655v52.965
			c0,9.751,7.904,17.655,17.655,17.655h26.483c9.751,0,17.655-7.905,17.655-17.655v-52.965
			C317.793,225.65,309.889,217.746,300.138,217.746z M273.655,288.366v-52.965h26.483v52.965H273.655z"/>
		<path style="fill:#E6E7E8;" d="M340.921,243.522c2.137,0.942,4.572,0.942,6.709,0c1.069-0.448,2.055-1.075,2.913-1.854
			c1.612-1.693,2.526-3.931,2.56-6.268c-0.015-0.592-0.074-1.182-0.177-1.766c-0.096-0.553-0.275-1.089-0.53-1.589
			c-0.176-0.543-0.444-1.05-0.794-1.501c-0.353-0.53-0.706-0.971-1.059-1.412c-0.859-0.779-1.844-1.406-2.913-1.854
			c-2.149-0.883-4.56-0.883-6.709,0c-1.069,0.448-2.055,1.075-2.913,1.854c-0.353,0.441-0.706,0.883-1.059,1.412
			c-0.35,0.45-0.619,0.958-0.794,1.501c-0.255,0.5-0.434,1.036-0.53,1.589c-0.102,0.583-0.161,1.173-0.177,1.766
			c0.034,2.337,0.948,4.575,2.56,6.268C338.867,242.447,339.852,243.074,340.921,243.522z"/>
		<path style="fill:#E6E7E8;" d="M405.363,284.968c-0.176-0.543-0.444-1.05-0.794-1.501c-0.353-0.53-0.706-0.971-1.059-1.412
			c-0.859-0.779-1.844-1.406-2.913-1.854c-2.149-0.883-4.56-0.883-6.709,0c-1.069,0.448-2.055,1.075-2.913,1.854
			c-0.353,0.441-0.706,0.883-1.059,1.412c-0.35,0.45-0.619,0.958-0.794,1.501c-0.255,0.5-0.434,1.036-0.53,1.589
			c-0.102,0.583-0.162,1.173-0.177,1.766c0.034,2.337,0.948,4.575,2.56,6.268c0.859,0.779,1.844,1.406,2.913,1.854
			c2.137,0.942,4.572,0.942,6.709,0c1.069-0.448,2.055-1.075,2.913-1.854c1.612-1.693,2.526-3.931,2.56-6.268
			c-0.015-0.592-0.074-1.182-0.177-1.766C405.796,286.004,405.618,285.468,405.363,284.968z"/>
		<path style="fill:#E6E7E8;" d="M403.482,229.16c-3.447-3.446-9.035-3.446-12.482,0l-52.966,52.966
			c-2.295,2.216-3.215,5.499-2.407,8.585c0.808,3.086,3.218,5.497,6.305,6.305c3.086,0.808,6.368-0.112,8.585-2.407l52.966-52.966
			C406.929,238.195,406.929,232.607,403.482,229.16z"/>
	</g>
</g>
<g>
</g>
<g>
</g>
<g>
</g>
<g>
</g>
<g>
</g>
<g>
</g>
<g>
</g>
<g>
</g>
<g>
</g>
<g>
</g>
<g>
</g>
<g>
</g>
<g>
</g>
<g>
</g>
<g>
</g>
</svg>
