<?xml version="1.0" encoding="iso-8859-1"?>
<!-- Generator: Adobe Illustrator 21.0.0, SVG Export Plug-In . SVG Version: 6.00 Build 0)  -->
<svg version="1.1" id="Capa_1" xmlns="http://www.w3.org/2000/svg" xmlns:xlink="http://www.w3.org/1999/xlink" x="0px" y="0px"
	 viewBox="0 0 512 512" style="enable-background:new 0 0 512 512;" xml:space="preserve">
<g>
	<path style="fill:#D1D4D1;" d="M512,52.966V476.69c0,19.501-15.809,35.31-35.31,35.31H35.31C15.809,512,0,496.191,0,476.69V52.966
		H512z"/>
	<path style="fill:#955BA5;" d="M512,35.31v35.31H0V35.31C0,15.809,15.809,0,35.31,0H476.69C496.191,0,512,15.809,512,35.31z"/>
	<path style="fill:#FF5364;" d="M52.966,26.483h-8.828c-4.875,0-8.828,3.952-8.828,8.828s3.952,8.828,8.828,8.828h8.828
		c4.875,0,8.828-3.952,8.828-8.828S57.841,26.483,52.966,26.483z"/>
	<path style="fill:#F0C419;" d="M91.63,27.189c-2.131-0.972-4.578-0.972-6.709,0c-1.069,0.448-2.055,1.075-2.913,1.854
		c-3.414,3.481-3.414,9.054,0,12.535c0.859,0.779,1.844,1.406,2.913,1.854c2.137,0.941,4.572,0.941,6.709,0
		c1.069-0.448,2.055-1.075,2.913-1.854c3.414-3.481,3.414-9.054,0-12.535C93.685,28.264,92.7,27.637,91.63,27.189z"/>
	<path style="fill:#65DDB9;" d="M117.319,29.043c-0.779,0.859-1.406,1.844-1.854,2.913c-0.942,2.137-0.942,4.572,0,6.709
		c0.448,1.069,1.075,2.055,1.854,2.913c3.481,3.414,9.054,3.414,12.535,0c0.779-0.859,1.406-1.844,1.854-2.913
		c0.495-1.047,0.737-2.196,0.706-3.354c0.021-3.586-2.13-6.829-5.442-8.204C123.659,25.731,119.844,26.496,117.319,29.043z"/>
	<path style="fill:#804169;" d="M467.862,26.483H167.724c-4.875,0-8.828,3.952-8.828,8.828s3.952,8.828,8.828,8.828h300.138
		c4.875,0,8.828-3.952,8.828-8.828S472.737,26.483,467.862,26.483z"/>
	<path style="fill:#547580;" d="M335.448,167.724h123.586c9.751,0,17.655,7.904,17.655,17.655v256
		c0,9.751-7.905,17.655-17.655,17.655H52.966c-9.751,0-17.655-7.905-17.655-17.655v-256c0-9.751,7.904-17.655,17.655-17.655H335.448
		z"/>
	<g>
		<path style="fill:#3F5C6C;" d="M70.621,397.241h8.828c4.875,0,8.828-3.952,8.828-8.828s-3.952-8.828-8.828-8.828h-8.828
			c-4.875,0-8.828,3.952-8.828,8.828S65.745,397.241,70.621,397.241z"/>
		<path style="fill:#3F5C6C;" d="M114.759,397.241h26.483c4.875,0,8.828-3.952,8.828-8.828s-3.952-8.828-8.828-8.828h-26.483
			c-4.875,0-8.828,3.952-8.828,8.828S109.883,397.241,114.759,397.241z"/>
		<path style="fill:#3F5C6C;" d="M141.241,414.897H70.621c-4.875,0-8.828,3.952-8.828,8.828c0,4.875,3.952,8.828,8.828,8.828h70.621
			c4.875,0,8.828-3.952,8.828-8.828C150.069,418.849,146.117,414.897,141.241,414.897z"/>
	</g>
	<path style="fill:#F0C419;" d="M194.207,123.586h123.586c9.751,0,17.655,7.904,17.655,17.655v317.793H176.552V141.241
		C176.552,131.491,184.456,123.586,194.207,123.586z"/>
	<path style="fill:#3F5C6C;" d="M176.552,220.69H70.621c-4.875,0-8.828-3.952-8.828-8.828c0-4.875,3.952-8.828,8.828-8.828h105.931
		V220.69z"/>
	<circle style="fill:#9FC9D3;" cx="105.931" cy="282.483" r="35.31"/>
	<g>
		<rect x="35.31" y="344.276" style="fill:#3F5C6C;" width="141.241" height="17.655"/>
		<path style="fill:#3F5C6C;" d="M370.759,397.241h8.828c4.875,0,8.828-3.952,8.828-8.828s-3.952-8.828-8.828-8.828h-8.828
			c-4.875,0-8.828,3.952-8.828,8.828S365.883,397.241,370.759,397.241z"/>
		<path style="fill:#3F5C6C;" d="M414.897,397.241h26.483c4.875,0,8.828-3.952,8.828-8.828s-3.952-8.828-8.828-8.828h-26.483
			c-4.875,0-8.828,3.952-8.828,8.828S410.021,397.241,414.897,397.241z"/>
		<path style="fill:#3F5C6C;" d="M441.379,414.897h-70.621c-4.875,0-8.828,3.952-8.828,8.828c0,4.875,3.952,8.828,8.828,8.828
			h70.621c4.875,0,8.828-3.952,8.828-8.828C450.207,418.849,446.255,414.897,441.379,414.897z"/>
		<path style="fill:#3F5C6C;" d="M335.448,220.69h105.931c4.875,0,8.828-3.952,8.828-8.828c0-4.875-3.952-8.828-8.828-8.828H335.448
			V220.69z"/>
	</g>
	<circle style="fill:#9FC9D3;" cx="406.069" cy="282.483" r="35.31"/>
	<rect x="335.448" y="344.276" style="fill:#3F5C6C;" width="141.241" height="17.655"/>
	<g>
		<path style="fill:#F29C1F;" d="M220.69,370.759h8.828c4.875,0,8.828-3.952,8.828-8.828s-3.952-8.828-8.828-8.828h-8.828
			c-4.875,0-8.828,3.952-8.828,8.828S215.814,370.759,220.69,370.759z"/>
		<path style="fill:#F29C1F;" d="M264.828,370.759h26.483c4.875,0,8.828-3.952,8.828-8.828s-3.952-8.828-8.828-8.828h-26.483
			c-4.875,0-8.828,3.952-8.828,8.828S259.952,370.759,264.828,370.759z"/>
		<path style="fill:#F29C1F;" d="M291.31,388.414H220.69c-4.875,0-8.828,3.952-8.828,8.828c0,4.875,3.952,8.828,8.828,8.828h70.621
			c4.875,0,8.828-3.952,8.828-8.828C300.138,392.366,296.186,388.414,291.31,388.414z"/>
	</g>
	<circle style="fill:#F9EAB0;" cx="256" cy="238.345" r="35.31"/>
	<g>
		<path style="fill:#F5EFCA;" d="M211.862,176.552h88.276c4.875,0,8.828-3.952,8.828-8.828s-3.952-8.828-8.828-8.828h-88.276
			c-4.875,0-8.828,3.952-8.828,8.828S206.987,176.552,211.862,176.552z"/>
		<path style="fill:#F5EFCA;" d="M300.138,300.138h-88.276c-4.875,0-8.828,3.952-8.828,8.828s3.952,8.828,8.828,8.828h88.276
			c4.875,0,8.828-3.952,8.828-8.828S305.013,300.138,300.138,300.138z"/>
	</g>
</g>
<g>
</g>
<g>
</g>
<g>
</g>
<g>
</g>
<g>
</g>
<g>
</g>
<g>
</g>
<g>
</g>
<g>
</g>
<g>
</g>
<g>
</g>
<g>
</g>
<g>
</g>
<g>
</g>
<g>
</g>
</svg>
