<?xml version="1.0" encoding="iso-8859-1"?>
<!-- Generator: Adobe Illustrator 21.0.0, SVG Export Plug-In . SVG Version: 6.00 Build 0)  -->
<svg version="1.1" id="Capa_1" xmlns="http://www.w3.org/2000/svg" xmlns:xlink="http://www.w3.org/1999/xlink" x="0px" y="0px"
	 viewBox="0 0 512.005 512.005" style="enable-background:new 0 0 512.005 512.005;" xml:space="preserve">
<g>
	<path style="fill:#547580;" d="M361.935,251.59v89.335c0,36.634-81.037,66.207-180.965,66.207S0.004,377.56,0.004,340.925V251.59
		C0.004,288.136,361.935,288.136,361.935,251.59z"/>
	<path style="fill:#B0D3F0;" d="M35.314,344.28c-2.337-0.033-4.576-0.947-6.268-2.56c-0.798-0.844-1.427-1.833-1.854-2.913
		c-0.942-2.137-0.942-4.572,0-6.709c0.448-1.069,1.075-2.055,1.854-2.913c0.844-0.798,1.833-1.427,2.913-1.854
		c2.149-0.883,4.56-0.883,6.709,0c1.068,0.45,2.053,1.077,2.913,1.854c0.779,0.859,1.406,1.844,1.854,2.913
		c0.49,1.049,0.732,2.197,0.706,3.354c0.024,2.348-0.899,4.608-2.559,6.268S37.662,344.304,35.314,344.28z"/>
	<path style="fill:#3F5C6C;" d="M361.935,154.487v97.103c0,36.546-81.037,66.207-180.965,66.207S0.004,288.136,0.004,251.59v-97.103
		C0.004,191.033,361.935,191.033,361.935,154.487z"/>
	<g>
		<path style="fill:#547580;" d="M35.314,256.004c-2.337-0.033-4.576-0.947-6.268-2.56c-0.798-0.844-1.427-1.833-1.854-2.913
			c-0.942-2.137-0.942-4.572,0-6.709c0.448-1.069,1.075-2.055,1.854-2.913c0.844-0.798,1.833-1.427,2.913-1.854
			c2.149-0.883,4.56-0.883,6.709,0c1.068,0.45,2.053,1.077,2.913,1.854c0.779,0.859,1.406,1.844,1.854,2.913
			c0.49,1.049,0.732,2.197,0.706,3.354c0.024,2.348-0.899,4.608-2.559,6.268S37.662,256.028,35.314,256.004z"/>
		<path style="fill:#547580;" d="M361.935,67.888v86.599c0,36.546-81.037,66.207-180.965,66.207S0.004,191.033,0.004,154.487V67.888
			h0.088c2.383,35.752,359.371,35.752,361.754,0H361.935z"/>
	</g>
	<path style="fill:#B0D3F0;" d="M35.314,158.9c-2.337-0.033-4.576-0.947-6.268-2.56c-0.798-0.844-1.427-1.833-1.854-2.913
		c-0.942-2.137-0.942-4.572,0-6.709c0.448-1.069,1.075-2.055,1.854-2.913c0.844-0.798,1.833-1.427,2.913-1.854
		c2.149-0.883,4.56-0.883,6.709,0c1.068,0.45,2.053,1.077,2.913,1.854c0.779,0.859,1.406,1.844,1.854,2.913
		c0.49,1.049,0.732,2.197,0.706,3.354c0.024,2.348-0.899,4.608-2.559,6.268C39.922,158.002,37.662,158.924,35.314,158.9z"/>
	<path style="fill:#3F5C6C;" d="M361.935,66.211c0.015,0.561-0.015,1.121-0.088,1.677c-2.383,35.752-82.45,64.53-180.877,64.53
		S2.475,103.64,0.092,67.888c-0.073-0.556-0.103-1.117-0.088-1.677c0-36.546,81.037-66.207,180.966-66.207
		S361.935,29.665,361.935,66.211z"/>
	<g>
		<path style="fill:#547580;" d="M123.131,41.352c-1.54-4.623-6.534-7.124-11.158-5.588L59.007,53.42
			c-4.632,1.541-7.137,6.544-5.597,11.176c1.541,4.632,6.544,7.137,11.176,5.597l52.966-17.655c2.225-0.741,4.063-2.337,5.11-4.435
			C123.708,46.004,123.877,43.575,123.131,41.352z"/>
		<path style="fill:#547580;" d="M220.172,41.176c-1.638-4.588-6.683-6.983-11.273-5.35L85.313,79.964
			c-4.047,1.442-6.468,5.587-5.736,9.821s4.406,7.324,8.702,7.323c1.011-0.002,2.013-0.175,2.966-0.512l123.586-44.138
			C219.421,50.816,221.812,45.766,220.172,41.176z"/>
	</g>
	<path style="fill:#A5A5A4;" d="M281.427,319.209l-25.423-25.423c-26.504,11.206-57.155,5.234-77.512-15.104
		s-26.359-50.983-15.178-77.497l35.046,34.957c6.602,7.085,16.545,10.002,25.928,7.605c9.383-2.396,16.71-9.723,19.106-19.106
		c2.396-9.383-0.52-19.326-7.605-25.928l-34.957-35.046c26.517-11.22,57.189-5.233,77.539,15.136
		c20.35,20.369,26.308,51.047,15.063,77.553l44.138,44.138l24.982,24.982L504.235,467.16c5.139,5.132,7.945,12.149,7.761,19.409
		s-3.341,14.126-8.732,18.991c-11.092,9.3-27.494,8.412-37.517-2.03L343.838,381.62L281.427,319.209z"/>
	<polygon style="fill:#D1D4D1;" points="443.325,244.705 487.022,213.455 512.004,176.026 487.022,151.044 449.593,176.026 
		418.343,219.722 296.964,341.102 321.946,366.084 	"/>
	<path style="fill:#F0C419;" d="M268.565,339.389v12.482c0,9.751-7.905,17.655-17.655,17.655h-12.482
		c-4.685-0.001-9.179,1.86-12.491,5.173l-69.738,69.738c-6.868,6.904-6.868,18.06,0,24.964l37.455,37.455
		c6.908,6.858,18.056,6.858,24.964,0l69.738-69.738c3.311-3.31,5.172-7.8,5.173-12.482v-12.482c0-9.751,7.905-17.655,17.655-17.655
		h12.482c4.689-0.006,9.183-1.876,12.491-5.199l7.309-7.309c6.869-6.907,6.869-18.066,0-24.973l-37.455-37.455
		c-6.908-6.858-18.056-6.858-24.964,0l-7.309,7.318C270.421,330.197,268.559,334.698,268.565,339.389z"/>
	<g>
		<path style="fill:#BDC3C7;" d="M228.073,288.436c-16.905,0-33.907-8.969-49.337-26.624c-3.21-3.671-2.837-9.25,0.834-12.46
			c3.671-3.21,9.25-2.837,12.46,0.834c19.703,22.546,39.433,26.598,58.65,12.076c2.486-2.184,5.984-2.794,9.062-1.581
			c3.078,1.213,5.22,4.045,5.548,7.338c0.328,3.292-1.212,6.492-3.991,8.288C251.869,283.911,240.185,288.176,228.073,288.436z"/>
		<path style="fill:#BDC3C7;" d="M459.038,476.693c-2.341-0.001-4.586-0.931-6.241-2.586l-79.448-79.448
			c-3.345-3.464-3.298-8.97,0.108-12.375c3.405-3.405,8.911-3.453,12.375-0.108l79.448,79.448c2.524,2.525,3.279,6.321,1.913,9.619
			C465.826,474.542,462.608,476.693,459.038,476.693z"/>
	</g>
	<path style="fill:#F5D96C;" d="M180.969,463.452c-3.57-0.001-6.788-2.152-8.154-5.45c-1.366-3.298-0.611-7.094,1.913-9.619
		l48.552-48.552c3.464-3.345,8.97-3.298,12.375,0.108c3.405,3.405,3.453,8.911,0.108,12.375l-48.552,48.552
		C185.555,462.521,183.31,463.452,180.969,463.452z"/>
</g>
<g>
</g>
<g>
</g>
<g>
</g>
<g>
</g>
<g>
</g>
<g>
</g>
<g>
</g>
<g>
</g>
<g>
</g>
<g>
</g>
<g>
</g>
<g>
</g>
<g>
</g>
<g>
</g>
<g>
</g>
</svg>
