<?xml version="1.0" encoding="iso-8859-1"?>
<!-- Generator: Adobe Illustrator 21.0.0, SVG Export Plug-In . SVG Version: 6.00 Build 0)  -->
<svg version="1.1" id="Capa_1" xmlns="http://www.w3.org/2000/svg" xmlns:xlink="http://www.w3.org/1999/xlink" x="0px" y="0px"
	 viewBox="0 0 512 512" style="enable-background:new 0 0 512 512;" xml:space="preserve">
<g>
	<path style="fill:#D1D4D1;" d="M512,52.966V476.69c0,19.501-15.809,35.31-35.31,35.31H35.31C15.809,512,0,496.191,0,476.69V52.966
		H512z"/>
	<path style="fill:#955BA5;" d="M512,35.31v35.31H0V35.31C0,15.809,15.809,0,35.31,0H476.69C496.191,0,512,15.809,512,35.31z"/>
	<path style="fill:#FF5364;" d="M52.966,26.483h-8.828c-4.875,0-8.828,3.952-8.828,8.828s3.952,8.828,8.828,8.828h8.828
		c4.875,0,8.828-3.952,8.828-8.828S57.841,26.483,52.966,26.483z"/>
	<path style="fill:#F0C419;" d="M91.63,27.189c-2.131-0.972-4.578-0.972-6.709,0c-1.069,0.448-2.055,1.075-2.913,1.854
		c-3.414,3.481-3.414,9.054,0,12.535c0.859,0.779,1.844,1.406,2.913,1.854c2.137,0.941,4.572,0.941,6.709,0
		c1.069-0.448,2.055-1.075,2.913-1.854c3.414-3.481,3.414-9.054,0-12.535C93.685,28.264,92.7,27.637,91.63,27.189z"/>
	<path style="fill:#65DDB9;" d="M117.319,29.043c-0.779,0.859-1.406,1.844-1.854,2.913c-0.942,2.137-0.942,4.572,0,6.709
		c0.448,1.069,1.075,2.055,1.854,2.913c3.481,3.414,9.054,3.414,12.535,0c0.779-0.859,1.406-1.844,1.854-2.913
		c0.495-1.047,0.737-2.196,0.706-3.354c0.021-3.586-2.13-6.829-5.442-8.204C123.659,25.731,119.844,26.496,117.319,29.043z"/>
	<path style="fill:#804169;" d="M467.862,26.483H167.724c-4.875,0-8.828,3.952-8.828,8.828s3.952,8.828,8.828,8.828h300.138
		c4.875,0,8.828-3.952,8.828-8.828S472.737,26.483,467.862,26.483z"/>
	<path style="fill:#F3D55B;" d="M374.175,441.441H137.949c-17.641-0.019-31.936-14.315-31.956-31.956V173.259
		c0.019-17.641,14.315-31.936,31.956-31.956h236.226c17.641,0.019,31.936,14.315,31.956,31.956v236.226
		C406.111,427.126,391.816,441.422,374.175,441.441z M137.949,158.958c-7.896,0.005-14.296,6.405-14.301,14.301v236.226
		c0.01,7.894,6.407,14.291,14.301,14.301h236.226c7.894-0.01,14.291-6.407,14.301-14.301V173.259
		c-0.01-7.894-6.407-14.291-14.301-14.301H137.949z"/>
	<path style="fill:#E6E7E8;" d="M256.062,147.306c-79.566,0-144.066,64.501-144.066,144.066s64.501,144.066,144.066,144.066
		s144.066-64.501,144.066-144.066C400.108,211.815,335.619,147.325,256.062,147.306z M256.062,344.338
		c-29.252,0-52.966-23.713-52.966-52.966s23.713-52.966,52.966-52.966s52.966,23.713,52.966,52.966S285.314,344.338,256.062,344.338
		z"/>
	<g>
		<path style="fill:#FF5364;" d="M315.083,143.157l-32.6,96.335c-16.599-8.444-36.234-8.444-52.833,0l-32.618-96.335
			c-1.587-4.533,0.777-9.498,5.297-11.123c34.848-11.653,72.54-11.653,107.388,0C314.267,133.626,316.669,138.604,315.083,143.157z"
			/>
		<path style="fill:#FF5364;" d="M197.12,439.172l32.609-96.335c16.594,8.463,36.239,8.463,52.833,0l32.583,96.335
			c1.587,4.533-0.777,9.498-5.297,11.123c-34.848,11.653-72.54,11.653-107.388,0C197.924,448.688,195.537,443.718,197.12,439.172z"
			/>
		<path style="fill:#FF5364;" d="M403.862,350.314l-96.335-32.618c8.462-16.591,8.462-36.233,0-52.824l96.335-32.618
			c4.546-1.583,9.516,0.804,11.123,5.341c11.653,34.848,11.653,72.54,0,107.388C413.37,349.512,408.405,351.892,403.862,350.314z"/>
	</g>
	<g>
		<path style="fill:#FFFFFF;" d="M190.385,210.423c-13.244,10.079-23.322,23.742-29.043,39.371l-16.772-5.65
			c6.907-19.359,19.451-36.208,36.017-48.375c4.033-2.384,9.226-1.203,11.831,2.692
			C195.021,202.356,194.129,207.607,190.385,210.423z"/>
		<path style="fill:#FFFFFF;" d="M190.385,371.006c-13.241-10.082-23.319-23.744-29.043-39.371l-16.772,5.65
			c6.907,19.359,19.451,36.208,36.017,48.375c4.033,2.384,9.226,1.203,11.831-2.692
			C195.021,379.073,194.129,373.822,190.385,371.006z"/>
	</g>
	<path style="fill:#FF5364;" d="M198.241,290.666c-0.031,9.142,2.117,18.16,6.268,26.306l-96.486,32.662
		c-4.557,1.568-9.526-0.837-11.123-5.385c-11.566-34.781-11.411-72.394,0.441-107.079c1.633-4.512,6.59-6.873,11.123-5.297
		l36.105,12.27l16.772,5.65l43.167,14.654C200.349,272.559,198.199,281.551,198.241,290.666z"/>
	<path style="fill:#FF7583;" d="M114.82,326.682c-3.801,0.001-7.176-2.432-8.377-6.038c-5.734-19.097-5.734-39.457,0-58.553
		c1.538-4.632,6.54-7.139,11.171-5.601c4.632,1.538,7.139,6.54,5.601,11.171c-4.493,15.479-4.493,31.916,0,47.395
		c1.543,4.624-0.955,9.624-5.579,11.167C116.73,326.532,115.778,326.688,114.82,326.682z"/>
	<path style="fill:#BDC3C7;" d="M256.062,353.165c-34.127,0-61.793-27.666-61.793-61.793s27.666-61.793,61.793-61.793
		s61.793,27.666,61.793,61.793C317.816,325.483,290.173,353.126,256.062,353.165z M256.062,247.234
		c-24.377,0-44.138,19.761-44.138,44.138s19.761,44.138,44.138,44.138s44.138-19.761,44.138-44.138
		C300.171,267.008,280.426,247.263,256.062,247.234z"/>
</g>
<g>
</g>
<g>
</g>
<g>
</g>
<g>
</g>
<g>
</g>
<g>
</g>
<g>
</g>
<g>
</g>
<g>
</g>
<g>
</g>
<g>
</g>
<g>
</g>
<g>
</g>
<g>
</g>
<g>
</g>
</svg>
