<?xml version="1.0" encoding="iso-8859-1"?>
<!-- Generator: Adobe Illustrator 21.0.0, SVG Export Plug-In . SVG Version: 6.00 Build 0)  -->
<svg version="1.1" id="Capa_1" xmlns="http://www.w3.org/2000/svg" xmlns:xlink="http://www.w3.org/1999/xlink" x="0px" y="0px"
	 viewBox="0 0 512 512" style="enable-background:new 0 0 512 512;" xml:space="preserve">
<g>
	<path style="fill:#D1D4D1;" d="M512,52.966V476.69c0,19.501-15.809,35.31-35.31,35.31H35.31C15.809,512,0,496.191,0,476.69V52.966
		H512z"/>
	<rect x="123.586" y="203.034" style="fill:#26B99A;" width="264.828" height="176.552"/>
	<path style="fill:#955BA5;" d="M512,35.31v35.31H0V35.31C0,15.809,15.809,0,35.31,0H476.69C496.191,0,512,15.809,512,35.31z"/>
	<path style="fill:#FF5364;" d="M52.966,26.483h-8.828c-4.875,0-8.828,3.952-8.828,8.828s3.952,8.828,8.828,8.828h8.828
		c4.875,0,8.828-3.952,8.828-8.828S57.841,26.483,52.966,26.483z"/>
	<path style="fill:#F0C419;" d="M91.63,27.189c-2.131-0.972-4.578-0.972-6.709,0c-1.069,0.448-2.055,1.075-2.913,1.854
		c-3.414,3.481-3.414,9.054,0,12.535c0.859,0.779,1.844,1.406,2.913,1.854c2.137,0.941,4.572,0.941,6.709,0
		c1.069-0.448,2.055-1.075,2.913-1.854c3.414-3.481,3.414-9.054,0-12.535C93.685,28.264,92.7,27.637,91.63,27.189z"/>
	<path style="fill:#65DDB9;" d="M117.319,29.043c-0.779,0.859-1.406,1.844-1.854,2.913c-0.942,2.137-0.942,4.572,0,6.709
		c0.448,1.069,1.075,2.055,1.854,2.913c3.481,3.414,9.054,3.414,12.535,0c0.779-0.859,1.406-1.844,1.854-2.913
		c0.495-1.047,0.737-2.196,0.706-3.354c0.021-3.586-2.13-6.829-5.442-8.204C123.659,25.731,119.844,26.496,117.319,29.043z"/>
	<path style="fill:#804169;" d="M467.862,26.483H167.724c-4.875,0-8.828,3.952-8.828,8.828s3.952,8.828,8.828,8.828h300.138
		c4.875,0,8.828-3.952,8.828-8.828S472.737,26.483,467.862,26.483z"/>
	<g>
		<path style="fill:#14A085;" d="M114.759,150.069h282.483c9.751,0,17.655,7.904,17.655,17.655v35.31
			c0,9.751-7.904,17.655-17.655,17.655H114.759c-9.751,0-17.655-7.904-17.655-17.655v-35.31
			C97.103,157.973,105.008,150.069,114.759,150.069z"/>
		<path style="fill:#14A085;" d="M114.759,256h282.483c9.751,0,17.655,7.904,17.655,17.655v35.31
			c0,9.751-7.904,17.655-17.655,17.655H114.759c-9.751,0-17.655-7.905-17.655-17.655v-35.31C97.103,263.904,105.008,256,114.759,256
			z"/>
		<path style="fill:#14A085;" d="M114.759,361.931h282.483c9.751,0,17.655,7.905,17.655,17.655v35.31
			c0,9.751-7.904,17.655-17.655,17.655H114.759c-9.751,0-17.655-7.905-17.655-17.655v-35.31
			C97.103,369.836,105.008,361.931,114.759,361.931z"/>
	</g>
	<path style="fill:#F0C419;" d="M132.414,194.207c-4.161-0.042-7.715-3.011-8.497-7.098c-0.781-4.087,1.427-8.158,5.279-9.731
		c3.852-1.573,8.279-0.213,10.583,3.253c2.303,3.465,1.844,8.074-1.098,11.017c-0.434,0.399-0.907,0.754-1.412,1.059
		c-0.451,0.348-0.959,0.617-1.501,0.794c-0.529,0.268-1.099,0.447-1.686,0.53C133.532,194.133,132.974,194.192,132.414,194.207z"/>
	<path style="fill:#9FC9D3;" d="M167.724,194.207c-4.161-0.042-7.715-3.011-8.497-7.098c-0.781-4.087,1.427-8.158,5.279-9.731
		c3.852-1.573,8.279-0.213,10.583,3.253s1.844,8.074-1.098,11.017c-0.434,0.399-0.907,0.754-1.412,1.059
		c-0.451,0.348-0.959,0.617-1.501,0.794c-0.529,0.268-1.099,0.447-1.686,0.53C168.842,194.133,168.284,194.192,167.724,194.207z"/>
	<path style="fill:#F0C419;" d="M132.414,300.138c-4.161-0.042-7.715-3.011-8.497-7.098c-0.781-4.087,1.427-8.158,5.279-9.731
		c3.852-1.573,8.279-0.213,10.583,3.253c2.303,3.465,1.844,8.074-1.098,11.017c-0.434,0.399-0.907,0.754-1.412,1.059
		c-0.451,0.348-0.959,0.617-1.501,0.794c-0.529,0.268-1.099,0.447-1.686,0.53C133.532,300.064,132.974,300.123,132.414,300.138z"/>
	<path style="fill:#9FC9D3;" d="M167.724,300.138c-4.161-0.042-7.715-3.011-8.497-7.098c-0.781-4.087,1.427-8.158,5.279-9.731
		s8.279-0.213,10.583,3.253c2.303,3.465,1.844,8.074-1.098,11.017c-0.434,0.399-0.907,0.754-1.412,1.059
		c-0.451,0.348-0.959,0.617-1.501,0.794c-0.529,0.268-1.099,0.447-1.686,0.53C168.842,300.064,168.284,300.123,167.724,300.138z"/>
	<path style="fill:#F0C419;" d="M132.414,406.069c-4.161-0.042-7.715-3.011-8.497-7.098c-0.781-4.087,1.427-8.158,5.279-9.731
		c3.852-1.573,8.279-0.213,10.583,3.253c2.303,3.465,1.844,8.074-1.098,11.017c-0.434,0.399-0.907,0.754-1.412,1.059
		c-0.451,0.348-0.959,0.617-1.501,0.794c-0.529,0.268-1.099,0.447-1.686,0.53C133.532,405.995,132.974,406.054,132.414,406.069z"/>
	<path style="fill:#9FC9D3;" d="M167.724,406.069c-4.161-0.042-7.715-3.011-8.497-7.098c-0.781-4.087,1.427-8.158,5.279-9.731
		c3.852-1.573,8.279-0.213,10.583,3.253c2.303,3.465,1.844,8.074-1.098,11.017c-0.434,0.399-0.907,0.754-1.412,1.059
		c-0.451,0.348-0.959,0.617-1.501,0.794c-0.529,0.268-1.099,0.447-1.686,0.53C168.842,405.995,168.284,406.054,167.724,406.069z"/>
	<g>
		<path style="fill:#26B99A;" d="M256,194.207h123.586c4.875,0,8.828-3.952,8.828-8.828c0-4.875-3.952-8.828-8.828-8.828H256
			c-4.875,0-8.828,3.952-8.828,8.828C247.172,190.255,251.125,194.207,256,194.207z"/>
		<path style="fill:#26B99A;" d="M379.586,282.483H256c-4.875,0-8.828,3.952-8.828,8.828s3.952,8.828,8.828,8.828h123.586
			c4.875,0,8.828-3.952,8.828-8.828S384.462,282.483,379.586,282.483z"/>
		<path style="fill:#26B99A;" d="M379.586,388.414H256c-4.875,0-8.828,3.952-8.828,8.828c0,4.875,3.952,8.828,8.828,8.828h123.586
			c4.875,0,8.828-3.952,8.828-8.828C388.414,392.366,384.462,388.414,379.586,388.414z"/>
	</g>
</g>
<g>
</g>
<g>
</g>
<g>
</g>
<g>
</g>
<g>
</g>
<g>
</g>
<g>
</g>
<g>
</g>
<g>
</g>
<g>
</g>
<g>
</g>
<g>
</g>
<g>
</g>
<g>
</g>
<g>
</g>
</svg>
