<?xml version="1.0" encoding="iso-8859-1"?>
<!-- Generator: Adobe Illustrator 21.0.0, SVG Export Plug-In . SVG Version: 6.00 Build 0)  -->
<svg version="1.1" id="Capa_1" xmlns="http://www.w3.org/2000/svg" xmlns:xlink="http://www.w3.org/1999/xlink" x="0px" y="0px"
	 viewBox="0 0 512 512" style="enable-background:new 0 0 512 512;" xml:space="preserve">
<g>
	<path style="fill:#D1D4D1;" d="M512,52.966V476.69c0,19.501-15.809,35.31-35.31,35.31H35.31C15.809,512,0,496.191,0,476.69V52.966
		H512z"/>
	<circle style="fill:#3B97D3;" cx="256" cy="291.31" r="167.724"/>
	<path style="fill:#955BA5;" d="M512,35.31v35.31H0V35.31C0,15.809,15.809,0,35.31,0H476.69C496.191,0,512,15.809,512,35.31z"/>
	<path style="fill:#FF5364;" d="M52.966,26.483h-8.828c-4.875,0-8.828,3.952-8.828,8.828s3.952,8.828,8.828,8.828h8.828
		c4.875,0,8.828-3.952,8.828-8.828S57.841,26.483,52.966,26.483z"/>
	<path style="fill:#F0C419;" d="M91.63,27.189c-2.131-0.972-4.578-0.972-6.709,0c-1.069,0.448-2.055,1.075-2.913,1.854
		c-3.414,3.481-3.414,9.054,0,12.535c0.859,0.779,1.844,1.406,2.913,1.854c2.137,0.941,4.572,0.941,6.709,0
		c1.069-0.448,2.055-1.075,2.913-1.854c3.414-3.481,3.414-9.054,0-12.535C93.685,28.264,92.7,27.637,91.63,27.189z"/>
	<path style="fill:#65DDB9;" d="M117.319,29.043c-0.779,0.859-1.406,1.844-1.854,2.913c-0.942,2.137-0.942,4.572,0,6.709
		c0.448,1.069,1.075,2.055,1.854,2.913c3.481,3.414,9.054,3.414,12.535,0c0.779-0.859,1.406-1.844,1.854-2.913
		c0.495-1.047,0.737-2.196,0.706-3.354c0.021-3.586-2.13-6.829-5.442-8.204C123.659,25.731,119.844,26.496,117.319,29.043z"/>
	<path style="fill:#804169;" d="M467.862,26.483H167.724c-4.875,0-8.828,3.952-8.828,8.828s3.952,8.828,8.828,8.828h300.138
		c4.875,0,8.828-3.952,8.828-8.828S472.737,26.483,467.862,26.483z"/>
	<path style="fill:#2980BA;" d="M386.092,410.253c61.947-67.197,61.947-170.689,0-237.886c-0.215-0.451-0.469-0.882-0.759-1.289
		c-0.403-0.375-0.844-0.706-1.315-0.989c-33.215-35.298-79.532-55.314-128-55.314s-94.785,20.015-128,55.314
		c-0.472,0.283-0.913,0.614-1.315,0.989c-0.29,0.407-0.544,0.838-0.759,1.289c-61.947,67.197-61.947,170.689,0,237.886
		c0.215,0.451,0.469,0.882,0.759,1.289c0.402,0.37,0.839,0.698,1.306,0.98c33.229,35.328,79.579,55.355,128.079,55.34
		c48.5-0.015,94.838-20.071,128.045-55.419c0.438-0.255,0.852-0.551,1.236-0.883C385.647,411.146,385.889,410.709,386.092,410.253z
		 M97.554,300.138h65.986c0.465,23.518,3.566,46.91,9.242,69.738c-13.726,6.191-26.616,14.09-38.365,23.508
		C112.332,367.128,99.393,334.398,97.554,300.138z M134.418,189.219c11.748,9.424,24.638,17.329,38.365,23.526
		c-5.677,22.828-8.777,46.22-9.242,69.738H97.554C99.389,248.217,112.329,215.48,134.418,189.219z M414.446,282.483H348.46
		c-0.465-23.518-3.565-46.91-9.242-69.738c13.726-6.191,26.616-14.09,38.365-23.508
		C399.668,215.493,412.607,248.223,414.446,282.483z M247.172,212.215c-18.003-0.798-35.797-4.187-52.833-10.063
		c12.058-36.829,31.197-62.844,52.833-68.511V212.215z M247.172,229.87v52.612h-65.986c0.503-21.295,3.282-42.475,8.289-63.179
		c18.623,6.284,38.056,9.846,57.697,10.575V229.87z M247.172,300.138v52.604c-19.642,0.735-39.075,4.303-57.697,10.593
		c-5.008-20.71-7.787-41.896-8.289-63.197H247.172z M247.172,370.406v78.566c-21.636-5.667-40.775-31.682-52.833-68.511
		C211.376,374.587,229.17,371.2,247.172,370.406z M264.828,370.406c18.003,0.798,35.797,4.187,52.833,10.063
		c-12.059,36.829-31.197,62.844-52.833,68.511V370.406z M264.828,352.75v-52.612h65.986c-0.503,21.295-3.282,42.475-8.289,63.179
		c-18.623-6.284-38.056-9.846-57.697-10.575V352.75z M264.828,282.483v-52.604c19.642-0.735,39.075-4.303,57.697-10.593
		c5.008,20.71,7.787,41.896,8.289,63.197H264.828z M264.828,212.215V133.65c21.636,5.667,40.775,31.682,52.833,68.511
		C300.624,208.034,282.83,211.421,264.828,212.215z M334.212,195.558c-6.275-20.33-16.489-39.226-30.058-55.614
		c22.912,7.355,43.854,19.819,61.246,36.449C355.764,183.942,345.301,190.371,334.212,195.558z M177.788,195.558
		c-11.089-5.195-21.553-11.633-31.188-19.191c17.392-16.631,38.334-29.094,61.246-36.449
		C194.273,156.313,184.06,175.219,177.788,195.558z M177.788,387.063c6.275,20.33,16.489,39.226,30.058,55.614
		c-22.912-7.355-43.854-19.819-61.246-36.449C156.236,398.679,166.699,392.25,177.788,387.063z M334.212,387.063
		c11.089,5.195,21.553,11.633,31.188,19.191c-17.392,16.631-38.334,29.094-61.246,36.449
		C317.727,426.308,327.94,407.402,334.212,387.063z M339.218,369.894c5.678-22.833,8.778-46.231,9.242-69.756h65.986
		c-1.835,34.266-14.775,67.003-36.864,93.263c-11.748-9.424-24.638-17.328-38.365-23.525V369.894z"/>
</g>
<g>
</g>
<g>
</g>
<g>
</g>
<g>
</g>
<g>
</g>
<g>
</g>
<g>
</g>
<g>
</g>
<g>
</g>
<g>
</g>
<g>
</g>
<g>
</g>
<g>
</g>
<g>
</g>
<g>
</g>
</svg>
