<?xml version="1.0" encoding="iso-8859-1"?>
<!-- Generator: Adobe Illustrator 21.0.0, SVG Export Plug-In . SVG Version: 6.00 Build 0)  -->
<svg version="1.1" id="Capa_1" xmlns="http://www.w3.org/2000/svg" xmlns:xlink="http://www.w3.org/1999/xlink" x="0px" y="0px"
	 viewBox="0 0 512 512" style="enable-background:new 0 0 512 512;" xml:space="preserve">
<g>
	<g>
		<path style="fill:#A5A5A4;" d="M476.69,220.69v-8.828H211.862v8.828c-19.501,0-35.31,15.809-35.31,35.31v35.31
			c0,19.501,15.809,35.31,35.31,35.31H476.69c19.501,0,35.31-15.809,35.31-35.31V256C512,236.499,496.191,220.69,476.69,220.69z"/>
		<path style="fill:#A5A5A4;" d="M476.69,8.828H211.862c-19.501,0-35.31,15.809-35.31,35.31v35.31
			c0,19.501,15.809,35.31,35.31,35.31v8.828h256v-8.828h8.828c19.501,0,35.31-15.809,35.31-35.31v-35.31
			C512,24.637,496.191,8.828,476.69,8.828z"/>
	</g>
	<path style="fill:#14A085;" d="M450.207,52.966h-17.655c-4.875,0-8.828,3.952-8.828,8.828s3.952,8.828,8.828,8.828h17.655
		c4.875,0,8.828-3.952,8.828-8.828S455.082,52.966,450.207,52.966z"/>
	<path style="fill:#CC4B4C;" d="M397.241,52.966h-17.655c-4.875,0-8.828,3.952-8.828,8.828s3.952,8.828,8.828,8.828h17.655
		c4.875,0,8.828-3.952,8.828-8.828S402.117,52.966,397.241,52.966z"/>
	<g>
		<circle style="fill:#237E99;" cx="247.172" cy="61.793" r="17.655"/>
		<circle style="fill:#237E99;" cx="247.172" cy="273.655" r="17.655"/>
	</g>
	<path style="fill:#D1D4D1;" d="M476.69,220.69H211.862c-19.501,0-35.31-15.809-35.31-35.31v-35.31
		c0-19.501,15.809-35.31,35.31-35.31H476.69c19.501,0,35.31,15.809,35.31,35.31v35.31C512,204.881,496.191,220.69,476.69,220.69z"/>
	<path style="fill:#14A085;" d="M450.207,158.897h-17.655c-4.875,0-8.828,3.952-8.828,8.828s3.952,8.828,8.828,8.828h17.655
		c4.875,0,8.828-3.952,8.828-8.828S455.082,158.897,450.207,158.897z"/>
	<path style="fill:#CC4B4C;" d="M397.241,158.897h-17.655c-4.875,0-8.828,3.952-8.828,8.828s3.952,8.828,8.828,8.828h17.655
		c4.875,0,8.828-3.952,8.828-8.828S402.117,158.897,397.241,158.897z"/>
	<path style="fill:#14A085;" d="M450.207,264.828h-17.655c-4.875,0-8.828,3.952-8.828,8.828s3.952,8.828,8.828,8.828h17.655
		c4.875,0,8.828-3.952,8.828-8.828S455.082,264.828,450.207,264.828z"/>
	<path style="fill:#CC4B4C;" d="M397.241,264.828h-17.655c-4.875,0-8.828,3.952-8.828,8.828s3.952,8.828,8.828,8.828h17.655
		c4.875,0,8.828-3.952,8.828-8.828S402.117,264.828,397.241,264.828z"/>
	<circle style="fill:#2FA8CC;" cx="247.172" cy="167.724" r="17.655"/>
	<path style="fill:#90BAE1;" d="M17.655,220.69h247.172c9.751,0,17.655,7.904,17.655,17.655v247.172
		c0,9.751-7.904,17.655-17.655,17.655H17.655C7.904,503.172,0,495.268,0,485.517V238.345C0,228.594,7.904,220.69,17.655,220.69z"/>
	<g>
		<path style="fill:#3F5C6C;" d="M150.069,220.69v26.483c0,4.875-3.952,8.828-8.828,8.828s-8.828-3.952-8.828-8.828V220.69H150.069z
			"/>
		<path style="fill:#3F5C6C;" d="M150.069,476.69v26.483h-17.655V476.69c0-4.875,3.952-8.828,8.828-8.828
			S150.069,471.814,150.069,476.69z"/>
		<path style="fill:#3F5C6C;" d="M35.31,361.931c0,4.875-3.952,8.828-8.828,8.828H0v-17.655h26.483
			C31.358,353.103,35.31,357.056,35.31,361.931z"/>
		<path style="fill:#3F5C6C;" d="M282.483,353.103v17.655H256c-4.875,0-8.828-3.952-8.828-8.828s3.952-8.828,8.828-8.828H282.483z"
			/>
		<path style="fill:#3F5C6C;" d="M194.207,370.759h-52.966c-4.875,0-8.828-3.952-8.828-8.828v-79.448
			c0-4.875,3.952-8.828,8.828-8.828s8.828,3.952,8.828,8.828v70.621h44.138c4.875,0,8.828,3.952,8.828,8.828
			S199.082,370.759,194.207,370.759z"/>
	</g>
	<g>
		<path style="fill:#B0D3F0;" d="M17.655,282.483c-4.875,0-8.828-3.952-8.828-8.828v-35.31c0-4.875,3.952-8.828,8.828-8.828h35.31
			c4.875,0,8.828,3.952,8.828,8.828c0,4.875-3.952,8.828-8.828,8.828H26.483v26.483C26.483,278.531,22.531,282.483,17.655,282.483z"
			/>
		<circle style="fill:#B0D3F0;" cx="17.655" cy="308.966" r="8.828"/>
		<path style="fill:#B0D3F0;" d="M17.655,414.897c-4.875,0-8.828,3.952-8.828,8.828v61.793c0,4.875,3.952,8.828,8.828,8.828h35.31
			c4.875,0,8.828-3.952,8.828-8.828s-3.952-8.828-8.828-8.828H26.483v-52.966C26.483,418.849,22.531,414.897,17.655,414.897z"/>
	</g>
</g>
<g>
</g>
<g>
</g>
<g>
</g>
<g>
</g>
<g>
</g>
<g>
</g>
<g>
</g>
<g>
</g>
<g>
</g>
<g>
</g>
<g>
</g>
<g>
</g>
<g>
</g>
<g>
</g>
<g>
</g>
</svg>
