<?xml version="1.0" encoding="iso-8859-1"?>
<!-- Generator: Adobe Illustrator 21.0.0, SVG Export Plug-In . SVG Version: 6.00 Build 0)  -->
<svg version="1.1" id="Capa_1" xmlns="http://www.w3.org/2000/svg" xmlns:xlink="http://www.w3.org/1999/xlink" x="0px" y="0px"
	 viewBox="0 0 512 512" style="enable-background:new 0 0 512 512;" xml:space="preserve">
<g>
	<path style="fill:#67B9CC;" d="M379.586,229.517h-8.828v203.034h-52.966V229.517h-8.828c-3.344,0-6.4-1.889-7.896-4.88
		c-1.495-2.991-1.173-6.569,0.834-9.244l35.31-47.078c1.667-2.223,4.284-3.531,7.062-3.531c2.779,0,5.395,1.308,7.062,3.531
		l35.31,47.078c2.006,2.675,2.329,6.254,0.834,9.244C385.987,227.628,382.93,229.517,379.586,229.517z"/>
	<path style="fill:#D1D4D1;" d="M441.379,512H70.621c-19.501,0-35.31-15.809-35.31-35.31v-52.966c0-19.501,15.809-35.31,35.31-35.31
		h370.759c19.501,0,35.31,15.809,35.31,35.31v52.966C476.69,496.191,460.881,512,441.379,512z"/>
	<path style="fill:#14A085;" d="M220.69,459.034h-17.655c-4.875,0-8.828-3.952-8.828-8.828c0-4.875,3.952-8.828,8.828-8.828h17.655
		c4.875,0,8.828,3.952,8.828,8.828C229.517,455.082,225.565,459.034,220.69,459.034z"/>
	<path style="fill:#CC4B4C;" d="M176.552,450.207c0,4.875-3.952,8.828-8.828,8.828h-17.655c-4.875,0-8.828-3.952-8.828-8.828
		c0-4.875,3.952-8.828,8.828-8.828h17.655C172.599,441.379,176.552,445.332,176.552,450.207z"/>
	<circle style="fill:#2FA8CC;" cx="97.103" cy="450.207" r="17.655"/>
	<g>
		<path style="fill:#A5A5A4;" d="M256,414.897c-4.875,0-8.828,3.952-8.828,8.828v52.966c0,4.875,3.952,8.828,8.828,8.828
			s8.828-3.952,8.828-8.828v-52.966C264.828,418.849,260.875,414.897,256,414.897z"/>
		<path style="fill:#A5A5A4;" d="M300.138,414.897c-4.875,0-8.828,3.952-8.828,8.828v52.966c0,4.875,3.952,8.828,8.828,8.828
			s8.828-3.952,8.828-8.828v-52.966C308.966,418.849,305.013,414.897,300.138,414.897z"/>
		<path style="fill:#A5A5A4;" d="M344.276,414.897c-4.875,0-8.828,3.952-8.828,8.828v52.966c0,4.875,3.952,8.828,8.828,8.828
			s8.828-3.952,8.828-8.828v-52.966C353.103,418.849,349.151,414.897,344.276,414.897z"/>
		<path style="fill:#A5A5A4;" d="M388.414,414.897c-4.875,0-8.828,3.952-8.828,8.828v52.966c0,4.875,3.952,8.828,8.828,8.828
			s8.828-3.952,8.828-8.828v-52.966C397.241,418.849,393.289,414.897,388.414,414.897z"/>
		<path style="fill:#A5A5A4;" d="M432.552,414.897c-4.875,0-8.828,3.952-8.828,8.828v52.966c0,4.875,3.952,8.828,8.828,8.828
			s8.828-3.952,8.828-8.828v-52.966C441.379,418.849,437.427,414.897,432.552,414.897z"/>
	</g>
	<path style="fill:#67B9CC;" d="M210.097,296.607l-35.31,47.078c-1.667,2.223-4.284,3.531-7.062,3.531s-5.395-1.308-7.062-3.531
		l-35.31-47.078c-2.006-2.675-2.329-6.254-0.834-9.244c1.495-2.991,4.552-4.88,7.896-4.88h8.828V88.276h52.966v194.207h8.828
		c3.344,0,6.4,1.889,7.896,4.88C212.425,290.353,212.103,293.932,210.097,296.607z"/>
	<path style="fill:#D1D4D1;" d="M441.379,123.586H70.621c-19.501,0-35.31-15.809-35.31-35.31V35.31C35.31,15.809,51.119,0,70.621,0
		h370.759c19.501,0,35.31,15.809,35.31,35.31v52.966C476.69,107.777,460.881,123.586,441.379,123.586z"/>
	<path style="fill:#14A085;" d="M220.69,70.621h-17.655c-4.875,0-8.828-3.952-8.828-8.828s3.952-8.828,8.828-8.828h17.655
		c4.875,0,8.828,3.952,8.828,8.828S225.565,70.621,220.69,70.621z"/>
	<path style="fill:#CC4B4C;" d="M176.552,61.793c0,4.875-3.952,8.828-8.828,8.828h-17.655c-4.875,0-8.828-3.952-8.828-8.828
		s3.952-8.828,8.828-8.828h17.655C172.599,52.966,176.552,56.918,176.552,61.793z"/>
	<circle style="fill:#2FA8CC;" cx="97.103" cy="61.793" r="17.655"/>
	<g>
		<path style="fill:#A5A5A4;" d="M256,26.483c-4.875,0-8.828,3.952-8.828,8.828v52.966c0,4.875,3.952,8.828,8.828,8.828
			s8.828-3.952,8.828-8.828V35.31C264.828,30.435,260.875,26.483,256,26.483z"/>
		<path style="fill:#A5A5A4;" d="M300.138,26.483c-4.875,0-8.828,3.952-8.828,8.828v52.966c0,4.875,3.952,8.828,8.828,8.828
			s8.828-3.952,8.828-8.828V35.31C308.966,30.435,305.013,26.483,300.138,26.483z"/>
		<path style="fill:#A5A5A4;" d="M344.276,26.483c-4.875,0-8.828,3.952-8.828,8.828v52.966c0,4.875,3.952,8.828,8.828,8.828
			s8.828-3.952,8.828-8.828V35.31C353.103,30.435,349.151,26.483,344.276,26.483z"/>
		<path style="fill:#A5A5A4;" d="M388.414,26.483c-4.875,0-8.828,3.952-8.828,8.828v52.966c0,4.875,3.952,8.828,8.828,8.828
			s8.828-3.952,8.828-8.828V35.31C397.241,30.435,393.289,26.483,388.414,26.483z"/>
		<path style="fill:#A5A5A4;" d="M432.552,26.483c-4.875,0-8.828,3.952-8.828,8.828v52.966c0,4.875,3.952,8.828,8.828,8.828
			s8.828-3.952,8.828-8.828V35.31C441.379,30.435,437.427,26.483,432.552,26.483z"/>
	</g>
</g>
<g>
</g>
<g>
</g>
<g>
</g>
<g>
</g>
<g>
</g>
<g>
</g>
<g>
</g>
<g>
</g>
<g>
</g>
<g>
</g>
<g>
</g>
<g>
</g>
<g>
</g>
<g>
</g>
<g>
</g>
</svg>
