<?xml version="1.0" encoding="iso-8859-1"?>
<!-- Generator: Adobe Illustrator 21.0.0, SVG Export Plug-In . SVG Version: 6.00 Build 0)  -->
<svg version="1.1" id="Capa_1" xmlns="http://www.w3.org/2000/svg" xmlns:xlink="http://www.w3.org/1999/xlink" x="0px" y="0px"
	 viewBox="0 0 512.008 512.008" style="enable-background:new 0 0 512.008 512.008;" xml:space="preserve">
<g>
	<path style="fill:#547580;" d="M368.817,112.814h121.492c9.585,0,17.356,7.771,17.356,17.356v251.661
		c0,9.585-7.771,17.356-17.356,17.356H21.699c-9.585,0-17.356-7.771-17.356-17.356V130.169c0-9.585,7.771-17.356,17.356-17.356
		H368.817z"/>
	<g>
		<path style="fill:#3F5C6C;" d="M39.055,338.441h8.678c4.793,0,8.678-3.885,8.678-8.678c0-4.793-3.885-8.678-8.678-8.678h-8.678
			c-4.793,0-8.678,3.885-8.678,8.678C30.377,334.555,34.262,338.441,39.055,338.441z"/>
		<path style="fill:#3F5C6C;" d="M82.445,338.441h26.034c4.793,0,8.678-3.885,8.678-8.678c0-4.793-3.885-8.678-8.678-8.678H82.445
			c-4.793,0-8.678,3.885-8.678,8.678C73.767,334.555,77.652,338.441,82.445,338.441z"/>
		<path style="fill:#3F5C6C;" d="M108.478,355.797H39.055c-4.793,0-8.678,3.885-8.678,8.678s3.885,8.678,8.678,8.678h69.424
			c4.793,0,8.678-3.885,8.678-8.678S113.271,355.797,108.478,355.797z"/>
	</g>
	<circle style="fill:#9FC9D3;" cx="73.767" cy="225.627" r="34.712"/>
	<g>
		<path style="fill:#3F5C6C;" d="M151.868,156.203c0,4.793-3.885,8.678-8.678,8.678H39.055c-4.793,0-8.678-3.885-8.678-8.678
			c0-4.793,3.885-8.678,8.678-8.678H143.19C147.983,147.525,151.868,151.411,151.868,156.203z"/>
		<path style="fill:#3F5C6C;" d="M4.343,286.373H143.19c4.793,0,8.678,3.885,8.678,8.678c0,4.793-3.885,8.678-8.678,8.678H4.343
			V286.373z"/>
		<path style="fill:#3F5C6C;" d="M472.953,338.441h-8.678c-4.793,0-8.678-3.885-8.678-8.678c0-4.793,3.885-8.678,8.678-8.678h8.678
			c4.793,0,8.678,3.885,8.678,8.678C481.631,334.555,477.746,338.441,472.953,338.441z"/>
		<path style="fill:#3F5C6C;" d="M429.563,338.441h-26.034c-4.793,0-8.678-3.885-8.678-8.678c0-4.793,3.885-8.678,8.678-8.678
			h26.034c4.793,0,8.678,3.885,8.678,8.678C438.241,334.555,434.356,338.441,429.563,338.441z"/>
		<path style="fill:#3F5C6C;" d="M403.529,355.797h69.424c4.793,0,8.678,3.885,8.678,8.678s-3.885,8.678-8.678,8.678h-69.424
			c-4.793,0-8.678-3.885-8.678-8.678S398.737,355.797,403.529,355.797z"/>
	</g>
	<circle style="fill:#9FC9D3;" cx="438.241" cy="225.627" r="34.712"/>
	<g>
		<path style="fill:#3F5C6C;" d="M481.631,156.203c0,4.793-3.885,8.678-8.678,8.678H368.817c-4.793,0-8.678-3.885-8.678-8.678
			c0-4.793,3.885-8.678,8.678-8.678h104.136C477.746,147.525,481.631,151.411,481.631,156.203z"/>
		<path style="fill:#3F5C6C;" d="M368.817,286.373h138.847v17.356H368.817c-4.793,0-8.678-3.885-8.678-8.678
			C360.139,290.258,364.025,286.373,368.817,286.373z"/>
	</g>
	<path style="fill:#F0C419;" d="M195.258,0H316.75c9.585,0,17.356,7.771,17.356,17.356v347.119H177.902V17.356
		C177.902,7.771,185.673,0,195.258,0z"/>
	<g>
		<path style="fill:#F29C1F;" d="M221.292,234.305h8.678c4.793,0,8.678-3.885,8.678-8.678s-3.885-8.678-8.678-8.678h-8.678
			c-4.793,0-8.678,3.885-8.678,8.678S216.499,234.305,221.292,234.305z"/>
		<path style="fill:#F29C1F;" d="M264.682,234.305h26.034c4.793,0,8.678-3.885,8.678-8.678s-3.885-8.678-8.678-8.678h-26.034
			c-4.793,0-8.678,3.885-8.678,8.678S259.889,234.305,264.682,234.305z"/>
		<path style="fill:#F29C1F;" d="M290.716,251.661h-69.424c-4.793,0-8.678,3.885-8.678,8.678c0,4.793,3.885,8.678,8.678,8.678
			h69.424c4.793,0,8.678-3.885,8.678-8.678C299.394,255.546,295.508,251.661,290.716,251.661z"/>
	</g>
	<circle style="fill:#F9EAB0;" cx="256.004" cy="112.814" r="34.712"/>
	<g>
		<path style="fill:#F5EFCA;" d="M212.614,52.068h86.78c4.793,0,8.678-3.885,8.678-8.678s-3.885-8.678-8.678-8.678h-86.78
			c-4.793,0-8.678,3.885-8.678,8.678S207.821,52.068,212.614,52.068z"/>
		<path style="fill:#F5EFCA;" d="M299.394,173.559h-86.78c-4.793,0-8.678,3.885-8.678,8.678s3.885,8.678,8.678,8.678h86.78
			c4.793,0,8.678-3.885,8.678-8.678S304.186,173.559,299.394,173.559z"/>
	</g>
	<circle style="fill:#3B97D3;" cx="256.004" cy="399.186" r="104.136"/>
	<path style="fill:#2980BA;" d="M339.156,475.153c39.549-42.924,39.549-109.01,0-151.934c-0.139-0.278-0.296-0.548-0.469-0.807
		c-0.256-0.225-0.529-0.431-0.816-0.616c-21.228-22.602-50.856-35.421-81.864-35.421s-60.635,12.82-81.864,35.421
		c-0.288,0.191-0.563,0.399-0.824,0.625c-0.173,0.259-0.329,0.529-0.469,0.807c-39.549,42.924-39.549,109.01,0,151.934
		c0.139,0.278,0.296,0.548,0.469,0.807c0.26,0.227,0.535,0.436,0.824,0.625c21.238,22.608,50.88,35.425,81.898,35.414
		c31.019-0.011,60.651-12.851,81.872-35.475c0.243-0.217,0.555-0.312,0.772-0.564C338.861,475.707,339.017,475.435,339.156,475.153z
		 M160.989,407.864h34.495c0.461,12.891,2.185,25.706,5.146,38.261c-6.923,3.31-13.493,7.311-19.612,11.941
		C169.618,443.627,162.66,426.186,160.989,407.864z M181.018,340.306c6.119,4.63,12.69,8.631,19.612,11.941
		c-2.961,12.555-4.685,25.37-5.146,38.261h-34.495C162.66,372.187,169.618,354.746,181.018,340.306z M351.019,390.508h-34.495
		c-0.461-12.891-2.185-25.706-5.146-38.261c6.923-3.31,13.493-7.311,19.612-11.941C342.39,354.746,349.348,372.187,351.019,390.508z
		 M247.326,346.745c-8.654-0.67-17.203-2.33-25.479-4.946c6.569-18.224,15.881-30.868,25.479-35.753V346.745z M247.326,364.101
		v26.407h-34.495c0.427-10.759,1.818-21.459,4.157-31.97c9.856,3.053,20.04,4.923,30.338,5.571V364.101z M247.326,407.864v26.398
		c-10.309,0.643-20.505,2.51-30.373,5.563c-2.328-10.509-3.707-21.205-4.122-31.961H247.326z M247.326,451.627v40.7
		c-9.598-4.886-18.909-17.538-25.479-35.753C230.123,453.957,238.672,452.297,247.326,451.627z M264.682,451.627
		c8.654,0.67,17.203,2.33,25.479,4.946c-6.569,18.224-15.881,30.868-25.479,35.753V451.627z M264.682,434.271v-26.407h34.495
		c-0.426,10.757-1.818,21.453-4.157,31.961c-9.857-3.05-20.041-4.917-30.338-5.563V434.271z M264.682,390.508V364.11
		c10.309-0.645,20.505-2.516,30.373-5.571c2.327,10.512,3.706,21.211,4.122,31.97H264.682z M264.682,346.745v-40.7
		c9.598,4.886,18.909,17.538,25.479,35.753C281.884,344.416,273.336,346.076,264.682,346.745z M306.336,335.221
		c-2.884-8.079-6.668-15.808-11.281-23.04c8.704,3.929,16.768,9.142,23.925,15.464C314.961,330.483,310.734,333.016,306.336,335.221
		z M205.672,335.221c-4.407-2.204-8.642-4.737-12.67-7.576c7.165-6.325,15.238-11.537,23.951-15.464
		C212.34,319.413,208.556,327.142,205.672,335.221z M205.672,463.152c2.884,8.079,6.668,15.808,11.281,23.04
		c-8.704-3.929-16.768-9.142-23.925-15.464C197.047,467.89,201.274,465.357,205.672,463.152z M306.336,463.152
		c4.407,2.204,8.642,4.737,12.67,7.576c-7.165,6.325-15.238,11.537-23.951,15.464C299.668,478.959,303.452,471.231,306.336,463.152z
		 M311.395,446.126c2.955-12.556,4.673-25.37,5.129-38.261h34.495c-1.671,18.321-8.629,35.762-20.029,50.202
		c-6.119-4.63-12.69-8.631-19.612-11.941H311.395z"/>
</g>
<g>
</g>
<g>
</g>
<g>
</g>
<g>
</g>
<g>
</g>
<g>
</g>
<g>
</g>
<g>
</g>
<g>
</g>
<g>
</g>
<g>
</g>
<g>
</g>
<g>
</g>
<g>
</g>
<g>
</g>
</svg>
