<?xml version="1.0" encoding="iso-8859-1"?>
<!-- Generator: Adobe Illustrator 21.0.0, SVG Export Plug-In . SVG Version: 6.00 Build 0)  -->
<svg version="1.1" id="Capa_1" xmlns="http://www.w3.org/2000/svg" xmlns:xlink="http://www.w3.org/1999/xlink" x="0px" y="0px"
	 viewBox="0 0 512 512" style="enable-background:new 0 0 512 512;" xml:space="preserve">
<g>
	<path style="fill:#547580;" d="M397.241,207.448v70.621c0,29.219-63.206,52.966-141.241,52.966s-141.241-23.746-141.241-52.966
		v-70.621C114.759,221.043,397.241,221.043,397.241,207.448z"/>
	<path style="fill:#3F5C6C;" d="M397.241,136.828v70.621c0,13.594-13.595,26.041-36.017,35.31
		c-33.647,12.472-69.35,18.462-105.225,17.655c-35.875,0.807-71.578-5.183-105.225-17.655c-22.422-9.269-36.017-21.716-36.017-35.31
		v-70.621H397.241z"/>
	<path style="fill:#547580;" d="M397.241,66.207v70.621c0,13.594-13.595,26.041-36.017,35.31
		C327.578,184.61,291.875,190.6,256,189.793c-35.875,0.807-71.578-5.183-105.225-17.655c-22.422-9.269-36.017-21.716-36.017-35.31
		V66.207H397.241z"/>
	<path style="fill:#CB8252;" d="M158.897,406.775v83.156c0,4.875-3.952,8.828-8.828,8.828H83.597c-4.875,0-8.828-3.952-8.828-8.828
		v-45.727l-58.615-64.088C5.747,368.737-0.017,353.87,0,338.45V207.978c0.028-4.855,1.999-9.497,5.473-12.888
		c3.563-3.412,8.309-5.31,13.241-5.297c4.893-0.071,9.614,1.806,13.124,5.216s5.521,8.076,5.59,12.969v118.113l9.269,9.092
		l10.946-14.124l4.237-5.473c3.279-4.259,8.22-6.917,13.581-7.304c5.361-0.388,10.633,1.531,14.491,5.274l50.229,48.905
		C152.188,374.072,158.946,390.073,158.897,406.775z"/>
	<path style="fill:#805333;" d="M109.462,385.766c-1.654,1.654-3.903,2.576-6.242,2.56c-2.339-0.017-4.574-0.97-6.205-2.648
		l-50.317-50.494l10.946-14.124l51.906,52.171C112.969,376.724,112.929,382.321,109.462,385.766z"/>
	<path style="fill:#CB8252;" d="M353.103,406.775v83.156c0,4.875,3.952,8.828,8.828,8.828h66.472c4.875,0,8.828-3.952,8.828-8.828
		v-45.727l58.615-64.088c10.408-11.379,16.172-26.246,16.155-41.666V207.978c-0.028-4.855-1.999-9.497-5.473-12.888
		c-3.563-3.412-8.309-5.31-13.241-5.297c-4.893-0.071-9.614,1.806-13.124,5.216c-3.51,3.41-5.521,8.076-5.591,12.969v118.113
		l-9.269,9.092l-10.946-14.124l-4.237-5.473c-3.279-4.259-8.22-6.917-13.581-7.304c-5.361-0.388-10.633,1.531-14.491,5.274
		l-50.229,48.905C359.812,374.072,353.054,390.073,353.103,406.775z"/>
	<path style="fill:#805333;" d="M402.538,385.766c1.654,1.654,3.903,2.576,6.242,2.56c2.339-0.017,4.574-0.97,6.205-2.648
		l50.317-50.494l-10.946-14.124L402.45,373.23C399.031,376.724,399.071,382.321,402.538,385.766z"/>
	<ellipse style="fill:#3F5C6C;" cx="256" cy="66.207" rx="141.241" ry="52.966"/>
	<path style="fill:#84B5CB;" d="M150.069,145.655c-2.337-0.034-4.575-0.948-6.268-2.56l-1.059-1.324
		c-0.334-0.492-0.602-1.026-0.794-1.589c-0.255-0.5-0.434-1.036-0.53-1.589c-0.102-0.583-0.161-1.173-0.177-1.766
		c0.014-1.154,0.254-2.293,0.706-3.354c0.448-1.069,1.075-2.055,1.854-2.913c2.538-2.505,6.335-3.236,9.622-1.854
		c1.08,0.427,2.069,1.056,2.913,1.854c0.779,0.859,1.406,1.844,1.854,2.913c0.452,1.061,0.692,2.201,0.706,3.354
		c-0.015,0.592-0.074,1.182-0.177,1.766c-0.096,0.553-0.275,1.089-0.53,1.589c-0.193,0.563-0.46,1.097-0.794,1.589l-1.059,1.324
		c-0.859,0.779-1.844,1.406-2.913,1.854C152.362,145.401,151.223,145.641,150.069,145.655z"/>
	<path style="fill:#547580;" d="M150.069,216.276c-2.337-0.034-4.575-0.948-6.268-2.56l-1.059-1.324
		c-0.334-0.492-0.602-1.026-0.794-1.589c-0.255-0.5-0.434-1.036-0.53-1.589c-0.102-0.583-0.161-1.173-0.177-1.766
		c0.014-1.154,0.254-2.293,0.706-3.354c0.448-1.069,1.075-2.055,1.854-2.913c2.538-2.505,6.335-3.236,9.622-1.854
		c1.08,0.427,2.069,1.056,2.913,1.854c0.779,0.859,1.406,1.844,1.854,2.913c0.452,1.061,0.692,2.201,0.706,3.354
		c-0.015,0.592-0.074,1.182-0.177,1.766c-0.096,0.553-0.275,1.089-0.53,1.589c-0.193,0.563-0.46,1.097-0.794,1.589l-1.059,1.324
		c-0.859,0.779-1.844,1.406-2.913,1.854C152.362,216.022,151.223,216.262,150.069,216.276z"/>
	<path style="fill:#84B5CB;" d="M150.069,286.897c-2.337-0.034-4.575-0.948-6.268-2.56l-1.059-1.324
		c-0.334-0.492-0.602-1.026-0.794-1.589c-0.255-0.5-0.434-1.036-0.53-1.589c-0.102-0.583-0.161-1.173-0.177-1.766
		c0.014-1.154,0.254-2.293,0.706-3.354c0.448-1.069,1.075-2.055,1.854-2.913c2.538-2.505,6.335-3.236,9.622-1.854
		c1.08,0.427,2.069,1.056,2.913,1.854c0.779,0.859,1.406,1.844,1.854,2.913c0.452,1.061,0.692,2.201,0.706,3.354
		c-0.015,0.592-0.074,1.182-0.177,1.766c-0.096,0.553-0.275,1.089-0.53,1.589c-0.193,0.563-0.46,1.097-0.794,1.589l-1.059,1.324
		c-0.859,0.779-1.844,1.406-2.913,1.854C152.362,286.643,151.223,286.883,150.069,286.897z"/>
	<g>
		<path style="fill:#547580;" d="M220.063,45.268c-0.87-2.174-2.567-3.913-4.72-4.835c-2.152-0.922-4.583-0.951-6.756-0.082
			l-44.138,17.655c-3.935,1.567-6.202,5.709-5.402,9.868c0.8,4.159,4.441,7.164,8.677,7.16c1.124-0.001,2.238-0.214,3.284-0.627
			l44.138-17.655c2.176-0.87,3.917-2.569,4.839-4.723C220.908,49.875,220.936,47.443,220.063,45.268z"/>
		<path style="fill:#547580;" d="M299.511,45.268c-0.87-2.174-2.567-3.913-4.72-4.835c-2.152-0.922-4.583-0.951-6.756-0.082
			l-88.276,35.31c-3.935,1.567-6.202,5.709-5.402,9.868c0.8,4.159,4.441,7.164,8.677,7.16c1.124-0.001,2.238-0.214,3.284-0.627
			l88.276-35.31c2.176-0.87,3.917-2.569,4.839-4.723C300.356,49.875,300.384,47.443,299.511,45.268z"/>
	</g>
</g>
<g>
</g>
<g>
</g>
<g>
</g>
<g>
</g>
<g>
</g>
<g>
</g>
<g>
</g>
<g>
</g>
<g>
</g>
<g>
</g>
<g>
</g>
<g>
</g>
<g>
</g>
<g>
</g>
<g>
</g>
</svg>
