<?xml version="1.0" encoding="iso-8859-1"?>
<!-- Generator: Adobe Illustrator 21.0.0, SVG Export Plug-In . SVG Version: 6.00 Build 0)  -->
<svg version="1.1" id="Capa_1" xmlns="http://www.w3.org/2000/svg" xmlns:xlink="http://www.w3.org/1999/xlink" x="0px" y="0px"
	 viewBox="0 0 512 512" style="enable-background:new 0 0 512 512;" xml:space="preserve">
<g>
	<path style="fill:#14A085;" d="M507.586,79.448h-26.483v335.448C481.103,468.525,437.629,512,384,512s-97.103-43.475-97.103-97.103
		v-17.655H39.724c-19.501,0-35.31-15.809-35.31-35.31v-35.31c0-19.501,15.809-35.31,35.31-35.31v-8.828h264.828v8.828
		c19.501,0,35.31,15.809,35.31,35.31v88.276c0,14.626,11.857,26.483,26.483,26.483s26.483-11.857,26.483-26.483V79.448h-26.483
		L436.966,0L507.586,79.448z"/>
	<g>
		<path style="fill:#65DDB9;" d="M481.103,105.931h-35.31c-4.875,0-8.828,3.952-8.828,8.828s3.952,8.828,8.828,8.828h35.31V105.931z
			"/>
		<path style="fill:#65DDB9;" d="M481.103,158.897h-35.31c-4.875,0-8.828,3.952-8.828,8.828s3.952,8.828,8.828,8.828h35.31V158.897z
			"/>
		<path style="fill:#65DDB9;" d="M481.103,211.862h-35.31c-4.875,0-8.828,3.952-8.828,8.828s3.952,8.828,8.828,8.828h35.31V211.862z
			"/>
		<path style="fill:#65DDB9;" d="M481.103,264.828h-35.31c-4.875,0-8.828,3.952-8.828,8.828s3.952,8.828,8.828,8.828h35.31V264.828z
			"/>
		<path style="fill:#65DDB9;" d="M481.103,317.793h-35.31c-4.875,0-8.828,3.952-8.828,8.828s3.952,8.828,8.828,8.828h35.31V317.793z
			"/>
		<path style="fill:#65DDB9;" d="M481.103,370.759h-35.31c-4.875,0-8.828,3.952-8.828,8.828s3.952,8.828,8.828,8.828h35.31V370.759z
			"/>
		<path style="fill:#65DDB9;" d="M419.31,114.759c0,4.875-3.952,8.828-8.828,8.828h-17.655v-17.655h17.655
			C415.358,105.931,419.31,109.883,419.31,114.759z"/>
		<path style="fill:#65DDB9;" d="M419.31,167.724c0,4.875-3.952,8.828-8.828,8.828h-17.655v-17.655h17.655
			C415.358,158.897,419.31,162.849,419.31,167.724z"/>
		<path style="fill:#65DDB9;" d="M419.31,220.69c0,4.875-3.952,8.828-8.828,8.828h-17.655v-17.655h17.655
			C415.358,211.862,419.31,215.814,419.31,220.69z"/>
		<path style="fill:#65DDB9;" d="M419.31,273.655c0,4.875-3.952,8.828-8.828,8.828h-17.655v-17.655h17.655
			C415.358,264.828,419.31,268.78,419.31,273.655z"/>
		<path style="fill:#65DDB9;" d="M419.31,326.621c0,4.875-3.952,8.828-8.828,8.828h-17.655v-17.655h17.655
			C415.358,317.793,419.31,321.745,419.31,326.621z"/>
		<path style="fill:#65DDB9;" d="M419.31,379.586c0,4.875-3.952,8.828-8.828,8.828h-17.655v-17.655h17.655
			C415.358,370.759,419.31,374.711,419.31,379.586z"/>
	</g>
	<g>
		<path style="fill:#A5A5A4;" d="M304.552,291.31v-8.828H39.724v8.828c-19.501,0-35.31,15.809-35.31,35.31v35.31
			c0,19.501,15.809,35.31,35.31,35.31h264.828c19.501,0,35.31-15.809,35.31-35.31v-35.31
			C339.862,307.119,324.053,291.31,304.552,291.31z"/>
		<path style="fill:#A5A5A4;" d="M304.552,79.448H39.724c-19.501,0-35.31,15.809-35.31,35.31v35.31
			c0,19.501,15.809,35.31,35.31,35.31v8.828h256v-8.828h8.828c19.501,0,35.31-15.809,35.31-35.31v-35.31
			C339.862,95.257,324.053,79.448,304.552,79.448z"/>
	</g>
	<path style="fill:#14A085;" d="M278.069,123.586h-17.655c-4.875,0-8.828,3.952-8.828,8.828s3.952,8.828,8.828,8.828h17.655
		c4.875,0,8.828-3.952,8.828-8.828S282.944,123.586,278.069,123.586z"/>
	<path style="fill:#CC4B4C;" d="M225.103,123.586h-17.655c-4.875,0-8.828,3.952-8.828,8.828s3.952,8.828,8.828,8.828h17.655
		c4.875,0,8.828-3.952,8.828-8.828S229.979,123.586,225.103,123.586z"/>
	<g>
		<circle style="fill:#237E99;" cx="75.034" cy="132.414" r="17.655"/>
		<circle style="fill:#237E99;" cx="75.034" cy="344.276" r="17.655"/>
	</g>
	<path style="fill:#D1D4D1;" d="M304.552,291.31H39.724c-19.501,0-35.31-15.809-35.31-35.31v-35.31
		c0-19.501,15.809-35.31,35.31-35.31h264.828c19.501,0,35.31,15.809,35.31,35.31V256C339.862,275.501,324.053,291.31,304.552,291.31
		z"/>
	<path style="fill:#14A085;" d="M278.069,229.517h-17.655c-4.875,0-8.828,3.952-8.828,8.828c0,4.875,3.952,8.828,8.828,8.828h17.655
		c4.875,0,8.828-3.952,8.828-8.828C286.897,233.469,282.944,229.517,278.069,229.517z"/>
	<path style="fill:#CC4B4C;" d="M225.103,229.517h-17.655c-4.875,0-8.828,3.952-8.828,8.828c0,4.875,3.952,8.828,8.828,8.828h17.655
		c4.875,0,8.828-3.952,8.828-8.828C233.931,233.469,229.979,229.517,225.103,229.517z"/>
	<path style="fill:#14A085;" d="M278.069,335.448h-17.655c-4.875,0-8.828,3.952-8.828,8.828s3.952,8.828,8.828,8.828h17.655
		c4.875,0,8.828-3.952,8.828-8.828S282.944,335.448,278.069,335.448z"/>
	<path style="fill:#CC4B4C;" d="M225.103,335.448h-17.655c-4.875,0-8.828,3.952-8.828,8.828s3.952,8.828,8.828,8.828h17.655
		c4.875,0,8.828-3.952,8.828-8.828S229.979,335.448,225.103,335.448z"/>
	<circle style="fill:#2FA8CC;" cx="75.034" cy="238.345" r="17.655"/>
</g>
<g>
</g>
<g>
</g>
<g>
</g>
<g>
</g>
<g>
</g>
<g>
</g>
<g>
</g>
<g>
</g>
<g>
</g>
<g>
</g>
<g>
</g>
<g>
</g>
<g>
</g>
<g>
</g>
<g>
</g>
</svg>
