<?xml version="1.0" encoding="iso-8859-1"?>
<!-- Generator: Adobe Illustrator 21.0.0, SVG Export Plug-In . SVG Version: 6.00 Build 0)  -->
<svg version="1.1" id="Capa_1" xmlns="http://www.w3.org/2000/svg" xmlns:xlink="http://www.w3.org/1999/xlink" x="0px" y="0px"
	 viewBox="0 0 512.001 512.001" style="enable-background:new 0 0 512.001 512.001;" xml:space="preserve">
<g>
	<g>
		<path style="fill:#A5A5A4;" d="M370.759,211.864v-8.828H35.31v8.828c-19.501,0-35.31,15.809-35.31,35.31v35.31
			c0,19.501,15.809,35.31,35.31,35.31h335.448c19.501,0,35.31-15.809,35.31-35.31v-35.31
			C406.069,227.673,390.26,211.864,370.759,211.864z"/>
		<path style="fill:#A5A5A4;" d="M370.759,0.002H35.31C15.809,0.002,0,15.811,0,35.312v35.31c0,19.501,15.809,35.31,35.31,35.31
			v8.828h326.621v-8.828h8.828c19.501,0,35.31-15.809,35.31-35.31v-35.31C406.069,15.811,390.26,0.002,370.759,0.002z"/>
	</g>
	<path style="fill:#14A085;" d="M361.931,44.14h-17.655c-4.875,0-8.828,3.952-8.828,8.828s3.952,8.828,8.828,8.828h17.655
		c4.875,0,8.828-3.952,8.828-8.828S366.806,44.14,361.931,44.14z"/>
	<path style="fill:#CC4B4C;" d="M308.966,44.14H291.31c-4.875,0-8.828,3.952-8.828,8.828s3.952,8.828,8.828,8.828h17.655
		c4.875,0,8.828-3.952,8.828-8.828S313.841,44.14,308.966,44.14z"/>
	<g>
		<circle style="fill:#237E99;" cx="70.621" cy="52.968" r="17.655"/>
		<circle style="fill:#237E99;" cx="70.621" cy="264.83" r="17.655"/>
	</g>
	<path style="fill:#D1D4D1;" d="M370.759,211.864H35.31c-19.501,0-35.31-15.809-35.31-35.31v-35.31
		c0-19.501,15.809-35.31,35.31-35.31h335.448c19.501,0,35.31,15.809,35.31,35.31v35.31
		C406.069,196.055,390.26,211.864,370.759,211.864z"/>
	<path style="fill:#14A085;" d="M361.931,150.071h-17.655c-4.875,0-8.828,3.952-8.828,8.828s3.952,8.828,8.828,8.828h17.655
		c4.875,0,8.828-3.952,8.828-8.828S366.806,150.071,361.931,150.071z"/>
	<path style="fill:#CC4B4C;" d="M308.966,150.071H291.31c-4.875,0-8.828,3.952-8.828,8.828s3.952,8.828,8.828,8.828h17.655
		c4.875,0,8.828-3.952,8.828-8.828S313.841,150.071,308.966,150.071z"/>
	<path style="fill:#14A085;" d="M361.931,256.002h-17.655c-4.875,0-8.828,3.952-8.828,8.828s3.952,8.828,8.828,8.828h17.655
		c4.875,0,8.828-3.952,8.828-8.828S366.806,256.002,361.931,256.002z"/>
	<path style="fill:#CC4B4C;" d="M308.966,256.002H291.31c-4.875,0-8.828,3.952-8.828,8.828s3.952,8.828,8.828,8.828h17.655
		c4.875,0,8.828-3.952,8.828-8.828S313.841,256.002,308.966,256.002z"/>
	<circle style="fill:#2FA8CC;" cx="70.621" cy="158.899" r="17.655"/>
	<path style="fill:#41767F;" d="M281.423,319.208L256,293.784c-26.504,11.206-57.155,5.234-77.512-15.104
		c-20.357-20.338-26.359-50.983-15.178-77.497l35.046,34.957c6.602,7.085,16.545,10.002,25.928,7.605
		c9.383-2.396,16.71-9.723,19.106-19.106c2.396-9.383-0.52-19.326-7.605-25.928l-34.957-35.046
		c26.517-11.22,57.189-5.233,77.539,15.136c20.35,20.369,26.308,51.047,15.063,77.553l44.138,44.138l24.982,24.982l141.683,141.683
		c5.139,5.132,7.945,12.149,7.761,19.409c-0.184,7.26-3.341,14.126-8.732,18.991c-11.092,9.3-27.494,8.412-37.517-2.03
		L343.835,381.619L281.423,319.208z"/>
	<polygon style="fill:#D1D4D1;" points="443.321,244.703 487.018,213.453 512,176.024 487.018,151.042 449.589,176.024 
		418.339,219.721 296.96,341.1 321.942,366.082 	"/>
	<path style="fill:#F0C419;" d="M268.562,339.387v12.482c0,9.751-7.904,17.655-17.655,17.655h-12.482
		c-4.685-0.001-9.179,1.86-12.491,5.173l-69.738,69.738c-6.868,6.904-6.868,18.06,0,24.964l37.455,37.455
		c6.908,6.858,18.056,6.858,24.964,0l69.738-69.738c3.311-3.31,5.172-7.8,5.173-12.482v-12.482c0-9.751,7.905-17.655,17.655-17.655
		h12.482c4.689-0.006,9.183-1.876,12.491-5.199l7.309-7.309c6.869-6.907,6.869-18.066,0-24.973l-37.455-37.455
		c-6.908-6.858-18.056-6.858-24.964,0l-7.309,7.318C270.417,330.195,268.556,334.696,268.562,339.387z"/>
	<g>
		<path style="fill:#679199;" d="M228.07,288.435c-16.905,0-33.907-8.969-49.337-26.624c-3.21-3.671-2.837-9.25,0.834-12.46
			c3.671-3.21,9.25-2.837,12.46,0.834c19.703,22.546,39.433,26.598,58.65,12.076c2.486-2.184,5.984-2.794,9.062-1.581
			c3.078,1.213,5.22,4.045,5.548,7.338c0.328,3.292-1.212,6.492-3.991,8.288C251.866,283.909,240.181,288.175,228.07,288.435z"/>
		<path style="fill:#679199;" d="M459.034,476.692c-2.341,0-4.586-0.931-6.241-2.586l-79.448-79.448
			c-3.345-3.464-3.298-8.97,0.108-12.375c3.405-3.405,8.911-3.453,12.375-0.108l79.448,79.448c2.524,2.525,3.279,6.321,1.913,9.619
			C465.822,474.54,462.604,476.691,459.034,476.692z"/>
	</g>
	<path style="fill:#F5D96C;" d="M180.966,463.45c-3.57-0.001-6.788-2.152-8.154-5.45c-1.366-3.298-0.611-7.094,1.913-9.619
		l48.552-48.552c3.464-3.345,8.97-3.298,12.375,0.108c3.405,3.405,3.453,8.911,0.108,12.375l-48.552,48.552
		C185.551,462.519,183.307,463.45,180.966,463.45z"/>
</g>
<g>
</g>
<g>
</g>
<g>
</g>
<g>
</g>
<g>
</g>
<g>
</g>
<g>
</g>
<g>
</g>
<g>
</g>
<g>
</g>
<g>
</g>
<g>
</g>
<g>
</g>
<g>
</g>
<g>
</g>
</svg>
