<?xml version="1.0" encoding="iso-8859-1"?>
<!-- Generator: Adobe Illustrator 21.0.0, SVG Export Plug-In . SVG Version: 6.00 Build 0)  -->
<svg version="1.1" id="Capa_1" xmlns="http://www.w3.org/2000/svg" xmlns:xlink="http://www.w3.org/1999/xlink" x="0px" y="0px"
	 viewBox="0 0 512 512" style="enable-background:new 0 0 512 512;" xml:space="preserve">
<g>
	<g>
		<path style="fill:#A5A5A4;" d="M384,307.2v-8.533H128v8.533c-18.851,0-34.133,15.282-34.133,34.133v34.133
			c0,18.851,15.282,34.133,34.133,34.133h256c18.851,0,34.133-15.282,34.133-34.133v-34.133
			C418.133,322.482,402.851,307.2,384,307.2z"/>
		<path style="fill:#A5A5A4;" d="M384,102.4H128c-18.851,0-34.133,15.282-34.133,34.133v34.133
			c0,18.851,15.282,34.133,34.133,34.133v8.533h247.467V204.8H384c18.851,0,34.133-15.282,34.133-34.133v-34.133
			C418.133,117.682,402.851,102.4,384,102.4z"/>
	</g>
	<path style="fill:#14A085;" d="M358.4,145.067h-17.067c-4.713,0-8.533,3.821-8.533,8.533c0,4.713,3.82,8.533,8.533,8.533H358.4
		c4.713,0,8.533-3.821,8.533-8.533C366.933,148.887,363.113,145.067,358.4,145.067z"/>
	<path style="fill:#CC4B4C;" d="M307.2,145.067h-17.067c-4.713,0-8.533,3.821-8.533,8.533c0,4.713,3.82,8.533,8.533,8.533H307.2
		c4.713,0,8.533-3.821,8.533-8.533C315.733,148.887,311.913,145.067,307.2,145.067z"/>
	<g>
		<circle style="fill:#237E99;" cx="162.133" cy="153.6" r="17.067"/>
		<circle style="fill:#237E99;" cx="162.133" cy="358.4" r="17.067"/>
	</g>
	<path style="fill:#D1D4D1;" d="M384,307.2H128c-18.851,0-34.133-15.282-34.133-34.133v-34.133
		c0-18.851,15.282-34.133,34.133-34.133h256c18.851,0,34.133,15.282,34.133,34.133v34.133C418.133,291.918,402.851,307.2,384,307.2z
		"/>
	<path style="fill:#14A085;" d="M358.4,247.467h-17.067c-4.713,0-8.533,3.82-8.533,8.533s3.82,8.533,8.533,8.533H358.4
		c4.713,0,8.533-3.82,8.533-8.533S363.113,247.467,358.4,247.467z"/>
	<path style="fill:#CC4B4C;" d="M307.2,247.467h-17.067c-4.713,0-8.533,3.82-8.533,8.533s3.82,8.533,8.533,8.533H307.2
		c4.713,0,8.533-3.82,8.533-8.533S311.913,247.467,307.2,247.467z"/>
	<path style="fill:#14A085;" d="M358.4,349.867h-17.067c-4.713,0-8.533,3.821-8.533,8.533c0,4.713,3.82,8.533,8.533,8.533H358.4
		c4.713,0,8.533-3.821,8.533-8.533C366.933,353.687,363.113,349.867,358.4,349.867z"/>
	<path style="fill:#CC4B4C;" d="M307.2,349.867h-17.067c-4.713,0-8.533,3.821-8.533,8.533c0,4.713,3.82,8.533,8.533,8.533H307.2
		c4.713,0,8.533-3.821,8.533-8.533C315.733,353.687,311.913,349.867,307.2,349.867z"/>
	<circle style="fill:#2FA8CC;" cx="162.133" cy="256" r="17.067"/>
	<g>
		<path style="fill:#3B97D3;" d="M512,256c-0.035-0.875-0.208-1.739-0.512-2.56c0.286-0.824,0.442-1.688,0.461-2.56
			c-0.175-8.821-0.796-17.627-1.86-26.385c-0.63-4.625-4.859-7.886-9.492-7.319c-4.633,0.567-7.951,4.752-7.446,9.393
			c0.987,8.18,1.557,16.406,1.707,24.644c0.059,0.812,0.234,1.611,0.521,2.372c-0.267,0.779-0.416,1.592-0.444,2.415
			c-0.08,88.981-49.561,170.558-128.435,211.746l8.354-20.83c1.758-4.374-0.363-9.344-4.736-11.102
			c-4.374-1.758-9.344,0.363-11.102,4.736l-15.061,37.547c-27.985,11.137-57.833,16.851-87.953,16.836
			c-8.242-0.003-16.479-0.421-24.678-1.254c-4.598-0.318-8.618,3.073-9.079,7.659c-0.461,4.586,2.803,8.71,7.373,9.314
			c8.766,0.897,17.573,1.347,26.385,1.348c31.602,0.012,62.931-5.862,92.382-17.323l42.445,8.619
			c0.561,0.115,1.133,0.173,1.707,0.171c4.384,0.004,8.058-3.314,8.499-7.676c0.441-4.362-2.496-8.348-6.792-9.22l-19.388-3.934
			C459.108,438.422,511.918,351.153,512,256z"/>
		<path style="fill:#3B97D3;" d="M256,17.067c8.242,0.003,16.479,0.422,24.678,1.254c0.283,0.033,0.568,0.05,0.853,0.051
			c4.561,0.039,8.347-3.517,8.593-8.072s-3.133-8.498-7.672-8.952C273.664,0.449,264.835-0.001,256,0
			c-31.602-0.012-62.931,5.862-92.382,17.323l-42.445-8.619c-4.619-0.943-9.127,2.037-10.069,6.656s2.037,9.127,6.656,10.069
			l19.388,3.934C52.892,73.578,0.082,160.848,0,256c0.035,0.875,0.208,1.739,0.512,2.56c-0.286,0.824-0.442,1.688-0.461,2.56
			c0.175,8.821,0.796,17.627,1.86,26.385c0.521,4.276,4.148,7.494,8.457,7.501c0.351-0.001,0.701-0.024,1.05-0.068
			c4.677-0.573,8.005-4.829,7.433-9.506c-0.987-8.18-1.557-16.406-1.707-24.644c-0.058-0.817-0.233-1.622-0.521-2.389
			c0.268-0.772,0.417-1.581,0.444-2.398c0.08-88.981,49.561-170.558,128.435-211.746l-8.354,20.83
			c-1.758,4.374,0.362,9.344,4.736,11.102c4.373,1.758,9.344-0.363,11.102-4.736l15.061-37.547
			C196.032,22.765,225.88,17.052,256,17.067z"/>
		<path style="fill:#3B97D3;" d="M366.933,44.305c7.291,3.84,14.383,8.046,21.248,12.604c2.544,1.683,5.793,1.881,8.522,0.519
			c2.729-1.362,4.525-4.076,4.71-7.121c0.185-3.045-1.268-5.957-3.812-7.64c-7.351-4.89-14.95-9.396-22.767-13.5
			c-2.704-1.412-5.956-1.273-8.53,0.363c-2.574,1.636-4.081,4.521-3.951,7.569C362.483,40.147,364.229,42.894,366.933,44.305z"/>
		<path style="fill:#3B97D3;" d="M465.485,140.988c2.314,4.039,7.439,5.478,11.518,3.234c4.079-2.244,5.606-7.343,3.433-11.46
			c-4.259-7.732-8.913-15.24-13.943-22.494c-1.717-2.557-4.678-3.991-7.749-3.752c-3.071,0.24-5.774,2.115-7.073,4.908
			c-1.299,2.793-0.993,6.069,0.802,8.572C457.163,126.767,461.507,133.774,465.485,140.988z"/>
		<path style="fill:#3B97D3;" d="M479.309,170.82c2.934,7.694,5.466,15.535,7.586,23.492c1.211,4.555,5.886,7.266,10.441,6.054
			c4.555-1.211,7.266-5.886,6.054-10.441c-2.275-8.532-4.992-16.94-8.141-25.19c-1.754-4.29-6.612-6.396-10.942-4.743
			C479.977,161.646,477.758,166.453,479.309,170.82z"/>
		<path style="fill:#3B97D3;" d="M313.105,23.893c8.001,1.962,15.893,4.34,23.646,7.125c2.883,1.09,6.13,0.54,8.494-1.438
			s3.477-5.078,2.912-8.108c-0.565-3.03-2.72-5.52-5.638-6.514c-8.31-2.984-16.769-5.534-25.344-7.637
			c-2.981-0.785-6.153,0.099-8.299,2.312c-2.146,2.213-2.931,5.411-2.055,8.366S310.1,23.208,313.105,23.893z"/>
		<path style="fill:#3B97D3;" d="M431.898,94.285c1.994,2.476,5.2,3.637,8.317,3.014c3.117-0.623,5.63-2.927,6.52-5.979
			c0.89-3.052,0.009-6.346-2.285-8.547c-5.976-6.492-12.279-12.676-18.884-18.526c-3.535-3.125-8.933-2.792-12.058,0.742
			s-2.792,8.933,0.742,12.058C420.421,82.49,426.311,88.244,431.898,94.285z"/>
		<path style="fill:#3B97D3;" d="M198.895,488.107c-8.001-1.962-15.893-4.34-23.646-7.125c-4.409-1.502-9.208,0.81-10.782,5.193
			c-1.575,4.383,0.657,9.22,5.014,10.867c8.31,2.984,16.769,5.533,25.344,7.637c0.667,0.166,1.352,0.249,2.039,0.247
			c4.314-0.005,7.945-3.228,8.463-7.51C205.844,493.133,203.084,489.138,198.895,488.107z"/>
		<path style="fill:#3B97D3;" d="M145.067,467.695c-7.291-3.84-14.383-8.046-21.248-12.604c-2.544-1.683-5.793-1.881-8.522-0.519
			c-2.729,1.362-4.525,4.076-4.71,7.121c-0.185,3.045,1.268,5.957,3.812,7.64c7.351,4.89,14.95,9.396,22.767,13.5
			c2.704,1.411,5.956,1.273,8.53-0.363s4.081-4.521,3.951-7.569C149.517,471.853,147.771,469.107,145.067,467.695z"/>
		<path style="fill:#3B97D3;" d="M46.515,371.012c-2.314-4.039-7.439-5.478-11.518-3.234c-4.079,2.244-5.606,7.343-3.433,11.46
			c4.259,7.732,8.913,15.24,13.943,22.494c1.717,2.557,4.678,3.991,7.749,3.752c3.071-0.24,5.774-2.115,7.073-4.908
			c1.299-2.793,0.993-6.069-0.802-8.572C54.837,385.233,50.493,378.226,46.515,371.012z"/>
		<path style="fill:#3B97D3;" d="M32.691,341.18c-2.934-7.694-5.466-15.535-7.586-23.492c-1.211-4.555-5.886-7.266-10.441-6.054
			c-4.555,1.211-7.266,5.886-6.054,10.441c2.274,8.547,4.991,16.969,8.141,25.233c1.26,3.307,4.431,5.494,7.97,5.495
			c2.808,0,5.436-1.382,7.028-3.695c1.592-2.313,1.944-5.261,0.942-7.884V341.18z"/>
		<path style="fill:#3B97D3;" d="M80.102,417.715c-2.04-2.338-5.188-3.385-8.222-2.733c-3.034,0.651-5.475,2.898-6.375,5.868
			c-0.9,2.97-0.117,6.194,2.044,8.42c5.976,6.492,12.279,12.676,18.884,18.526c3.535,3.125,8.933,2.792,12.058-0.742
			c3.125-3.535,2.792-8.933-0.742-12.058C91.578,429.538,85.688,423.771,80.102,417.715z"/>
	</g>
</g>
<g>
</g>
<g>
</g>
<g>
</g>
<g>
</g>
<g>
</g>
<g>
</g>
<g>
</g>
<g>
</g>
<g>
</g>
<g>
</g>
<g>
</g>
<g>
</g>
<g>
</g>
<g>
</g>
<g>
</g>
</svg>
