<?xml version="1.0" encoding="iso-8859-1"?>
<!-- Generator: Adobe Illustrator 21.0.0, SVG Export Plug-In . SVG Version: 6.00 Build 0)  -->
<svg version="1.1" id="Capa_1" xmlns="http://www.w3.org/2000/svg" xmlns:xlink="http://www.w3.org/1999/xlink" x="0px" y="0px"
	 viewBox="0 0 512 512" style="enable-background:new 0 0 512 512;" xml:space="preserve">
<g>
	<rect x="185.379" y="423.724" style="fill:#3D324C;" width="141.241" height="70.621"/>
	<path style="fill:#7D6599;" d="M512,344.276v61.793c0,19.501-15.809,35.31-35.31,35.31H35.31C15.809,441.379,0,425.57,0,406.069
		v-61.793H512z"/>
	<path style="fill:#2FA8CC;" d="M512,370.759v-256c0-19.501-15.809-35.31-35.31-35.31H35.31C15.809,79.448,0,95.257,0,114.759v256
		H512z"/>
	<path style="fill:#547580;" d="M335.448,44.138h123.586c9.751,0,17.655,7.904,17.655,17.655v256
		c0,9.751-7.905,17.655-17.655,17.655H52.966c-9.751,0-17.655-7.905-17.655-17.655v-256c0-9.751,7.904-17.655,17.655-17.655H335.448
		z"/>
	<path style="fill:#7D6599;" d="M132.414,476.69h247.172c9.751,0,17.655,7.904,17.655,17.655v13.241
		c0,2.438-1.976,4.414-4.414,4.414H119.172c-2.438,0-4.414-1.976-4.414-4.414v-13.241
		C114.759,484.594,122.663,476.69,132.414,476.69z"/>
	<g>
		<path style="fill:#3F5C6C;" d="M70.621,273.655h8.828c4.875,0,8.828-3.952,8.828-8.828S84.324,256,79.448,256h-8.828
			c-4.875,0-8.828,3.952-8.828,8.828S65.745,273.655,70.621,273.655z"/>
		<path style="fill:#3F5C6C;" d="M114.759,273.655h26.483c4.875,0,8.828-3.952,8.828-8.828S146.117,256,141.241,256h-26.483
			c-4.875,0-8.828,3.952-8.828,8.828S109.883,273.655,114.759,273.655z"/>
		<path style="fill:#3F5C6C;" d="M141.241,291.31H70.621c-4.875,0-8.828,3.952-8.828,8.828s3.952,8.828,8.828,8.828h70.621
			c4.875,0,8.828-3.952,8.828-8.828S146.117,291.31,141.241,291.31z"/>
	</g>
	<path style="fill:#F0C419;" d="M194.207,0h123.586c9.751,0,17.655,7.904,17.655,17.655v317.793H176.552V17.655
		C176.552,7.904,184.456,0,194.207,0z"/>
	<path style="fill:#3F5C6C;" d="M176.552,97.103H70.621c-4.875,0-8.828-3.952-8.828-8.828c0-4.875,3.952-8.828,8.828-8.828h105.931
		V97.103z"/>
	<circle style="fill:#9FC9D3;" cx="105.931" cy="158.897" r="35.31"/>
	<g>
		<rect x="35.31" y="220.69" style="fill:#3F5C6C;" width="141.241" height="17.655"/>
		<path style="fill:#3F5C6C;" d="M370.759,273.655h8.828c4.875,0,8.828-3.952,8.828-8.828S384.462,256,379.586,256h-8.828
			c-4.875,0-8.828,3.952-8.828,8.828S365.883,273.655,370.759,273.655z"/>
		<path style="fill:#3F5C6C;" d="M414.897,273.655h26.483c4.875,0,8.828-3.952,8.828-8.828S446.255,256,441.379,256h-26.483
			c-4.875,0-8.828,3.952-8.828,8.828S410.021,273.655,414.897,273.655z"/>
		<path style="fill:#3F5C6C;" d="M441.379,291.31h-70.621c-4.875,0-8.828,3.952-8.828,8.828s3.952,8.828,8.828,8.828h70.621
			c4.875,0,8.828-3.952,8.828-8.828S446.255,291.31,441.379,291.31z"/>
		<path style="fill:#3F5C6C;" d="M335.448,97.103h105.931c4.875,0,8.828-3.952,8.828-8.828c0-4.875-3.952-8.828-8.828-8.828H335.448
			V97.103z"/>
	</g>
	<circle style="fill:#9FC9D3;" cx="406.069" cy="158.897" r="35.31"/>
	<rect x="335.448" y="220.69" style="fill:#3F5C6C;" width="141.241" height="17.655"/>
	<g>
		<path style="fill:#F29C1F;" d="M220.69,247.172h8.828c4.875,0,8.828-3.952,8.828-8.828c0-4.875-3.952-8.828-8.828-8.828h-8.828
			c-4.875,0-8.828,3.952-8.828,8.828C211.862,243.22,215.814,247.172,220.69,247.172z"/>
		<path style="fill:#F29C1F;" d="M264.828,247.172h26.483c4.875,0,8.828-3.952,8.828-8.828c0-4.875-3.952-8.828-8.828-8.828h-26.483
			c-4.875,0-8.828,3.952-8.828,8.828C256,243.22,259.952,247.172,264.828,247.172z"/>
		<path style="fill:#F29C1F;" d="M291.31,264.828H220.69c-4.875,0-8.828,3.952-8.828,8.828s3.952,8.828,8.828,8.828h70.621
			c4.875,0,8.828-3.952,8.828-8.828S296.186,264.828,291.31,264.828z"/>
	</g>
	<circle style="fill:#F9EAB0;" cx="256" cy="114.759" r="35.31"/>
	<g>
		<path style="fill:#F5EFCA;" d="M211.862,52.966h88.276c4.875,0,8.828-3.952,8.828-8.828s-3.952-8.828-8.828-8.828h-88.276
			c-4.875,0-8.828,3.952-8.828,8.828S206.987,52.966,211.862,52.966z"/>
		<path style="fill:#F5EFCA;" d="M300.138,176.552h-88.276c-4.875,0-8.828,3.952-8.828,8.828c0,4.875,3.952,8.828,8.828,8.828
			h88.276c4.875,0,8.828-3.952,8.828-8.828C308.966,180.504,305.013,176.552,300.138,176.552z"/>
	</g>
</g>
<g>
</g>
<g>
</g>
<g>
</g>
<g>
</g>
<g>
</g>
<g>
</g>
<g>
</g>
<g>
</g>
<g>
</g>
<g>
</g>
<g>
</g>
<g>
</g>
<g>
</g>
<g>
</g>
<g>
</g>
</svg>
