<?xml version="1.0" encoding="iso-8859-1"?>
<!-- Generator: Adobe Illustrator 21.0.0, SVG Export Plug-In . SVG Version: 6.00 Build 0)  -->
<svg version="1.1" id="Capa_1" xmlns="http://www.w3.org/2000/svg" xmlns:xlink="http://www.w3.org/1999/xlink" x="0px" y="0px"
	 viewBox="0 0 512 512" style="enable-background:new 0 0 512 512;" xml:space="preserve">
<g transform="translate(0 -1)">
	<path style="fill:#D1D4D1;" d="M85.333,323.741C45.35,316.8,14.542,284.64,9.323,244.395s16.369-79.199,53.26-96.108
		c14.75-8.403,31.749-12.009,48.64-10.317c3.897-65.626,54.009-119.157,119.236-127.37s127.045,31.223,147.09,93.834
		c2.21-0.307,4.412-0.538,6.639-0.708c57.6-4.995,109.183,35.59,117.879,92.749c8.829,54.123-23.215,106.576-75.401,123.426
		l-25.6,5.376L85.333,323.741z"/>
	<g>
		<path style="fill:#3F5C6C;" d="M503.467,487.411h-25.6c-4.713,0-8.533-3.82-8.533-8.533s3.821-8.533,8.533-8.533h25.6
			c4.713,0,8.533,3.82,8.533,8.533S508.18,487.411,503.467,487.411z"/>
		<path style="fill:#3F5C6C;" d="M443.733,470.344h-76.8v-76.8c0-4.713-3.82-8.533-8.533-8.533s-8.533,3.82-8.533,8.533v76.8
			H162.133v-76.8c0-4.713-3.821-8.533-8.533-8.533s-8.533,3.82-8.533,8.533v76.8H8.533c-4.713,0-8.533,3.82-8.533,8.533
			s3.821,8.533,8.533,8.533h435.2c4.713,0,8.533-3.82,8.533-8.533S448.446,470.344,443.733,470.344z"/>
	</g>
	<g>
		<circle style="fill:#955BA5;" cx="153.6" cy="478.877" r="25.6"/>
		<circle style="fill:#955BA5;" cx="358.4" cy="478.877" r="25.6"/>
		<path style="fill:#955BA5;" d="M110.933,188.744h85.333c14.138,0,25.6,11.462,25.6,25.6v170.667c0,14.138-11.462,25.6-25.6,25.6
			h-85.333c-14.138,0-25.6-11.462-25.6-25.6V214.344C85.333,200.206,96.795,188.744,110.933,188.744z"/>
	</g>
	<g>
		<path style="fill:#CC66A1;" d="M119.467,231.411h68.267c4.713,0,8.533-3.821,8.533-8.533s-3.821-8.533-8.533-8.533h-68.267
			c-4.713,0-8.533,3.821-8.533,8.533S114.754,231.411,119.467,231.411z"/>
		<path style="fill:#CC66A1;" d="M187.733,248.477h-68.267c-4.713,0-8.533,3.82-8.533,8.533c0,4.713,3.821,8.533,8.533,8.533h68.267
			c4.713,0,8.533-3.821,8.533-8.533C196.267,252.298,192.446,248.477,187.733,248.477z"/>
		<path style="fill:#CC66A1;" d="M187.733,282.611h-68.267c-4.713,0-8.533,3.821-8.533,8.533s3.821,8.533,8.533,8.533h68.267
			c4.713,0,8.533-3.82,8.533-8.533S192.446,282.611,187.733,282.611z"/>
	</g>
	<circle style="fill:#B49ACA;" cx="153.6" cy="350.877" r="25.6"/>
	<path style="fill:#955BA5;" d="M315.733,188.744h85.333c14.138,0,25.6,11.462,25.6,25.6v170.667c0,14.138-11.462,25.6-25.6,25.6
		h-85.333c-14.138,0-25.6-11.462-25.6-25.6V214.344C290.133,200.206,301.595,188.744,315.733,188.744z"/>
	<g>
		<path style="fill:#CC66A1;" d="M324.267,231.411h68.267c4.713,0,8.533-3.821,8.533-8.533s-3.82-8.533-8.533-8.533h-68.267
			c-4.713,0-8.533,3.821-8.533,8.533S319.554,231.411,324.267,231.411z"/>
		<path style="fill:#CC66A1;" d="M392.533,248.477h-68.267c-4.713,0-8.533,3.82-8.533,8.533c0,4.713,3.821,8.533,8.533,8.533h68.267
			c4.713,0,8.533-3.821,8.533-8.533C401.067,252.298,397.246,248.477,392.533,248.477z"/>
		<path style="fill:#CC66A1;" d="M392.533,282.611h-68.267c-4.713,0-8.533,3.821-8.533,8.533s3.821,8.533,8.533,8.533h68.267
			c4.713,0,8.533-3.82,8.533-8.533S397.246,282.611,392.533,282.611z"/>
	</g>
	<circle style="fill:#B49ACA;" cx="358.4" cy="350.877" r="25.6"/>
	<path style="fill:#E6E7E8;" d="M145.067,146.077c-4.713,0-8.533-3.821-8.533-8.533c0-1.109,1.263-110.933,110.933-110.933
		c4.713,0,8.533,3.821,8.533,8.533s-3.82,8.533-8.533,8.533c-92.8,0-93.867,90.035-93.867,93.867
		C153.6,142.257,149.779,146.077,145.067,146.077z"/>
</g>
<g>
</g>
<g>
</g>
<g>
</g>
<g>
</g>
<g>
</g>
<g>
</g>
<g>
</g>
<g>
</g>
<g>
</g>
<g>
</g>
<g>
</g>
<g>
</g>
<g>
</g>
<g>
</g>
<g>
</g>
</svg>
