<?xml version="1.0" encoding="iso-8859-1"?>
<!-- Generator: Adobe Illustrator 21.0.0, SVG Export Plug-In . SVG Version: 6.00 Build 0)  -->
<svg version="1.1" id="Capa_1" xmlns="http://www.w3.org/2000/svg" xmlns:xlink="http://www.w3.org/1999/xlink" x="0px" y="0px"
	 viewBox="0 0 512 512" style="enable-background:new 0 0 512 512;" xml:space="preserve">
<g>
	<g>
		<path style="fill:#A5A5A4;" d="M418.133,243.2v-8.533H93.867v8.533c-18.851,0-34.133,15.282-34.133,34.133v34.133
			c0,18.851,15.282,34.133,34.133,34.133h324.267c18.851,0,34.133-15.282,34.133-34.133v-34.133
			C452.267,258.482,436.985,243.2,418.133,243.2z"/>
		<path style="fill:#A5A5A4;" d="M418.133,38.4H93.867c-18.851,0-34.133,15.282-34.133,34.133v34.133
			c0,18.851,15.282,34.133,34.133,34.133v8.533H409.6V140.8h8.533c18.851,0,34.133-15.282,34.133-34.133V72.533
			C452.267,53.682,436.985,38.4,418.133,38.4z"/>
	</g>
	<path style="fill:#14A085;" d="M409.6,81.067h-17.067c-4.713,0-8.533,3.821-8.533,8.533s3.82,8.533,8.533,8.533H409.6
		c4.713,0,8.533-3.821,8.533-8.533S414.313,81.067,409.6,81.067z"/>
	<path style="fill:#CC4B4C;" d="M358.4,81.067h-17.067c-4.713,0-8.533,3.821-8.533,8.533s3.82,8.533,8.533,8.533H358.4
		c4.713,0,8.533-3.821,8.533-8.533S363.113,81.067,358.4,81.067z"/>
	<g>
		<circle style="fill:#237E99;" cx="128" cy="89.6" r="17.067"/>
		<circle style="fill:#237E99;" cx="128" cy="294.4" r="17.067"/>
	</g>
	<path style="fill:#D1D4D1;" d="M418.133,243.2H93.867c-18.851,0-34.133-15.282-34.133-34.133v-34.133
		c0-18.851,15.282-34.133,34.133-34.133h324.267c18.851,0,34.133,15.282,34.133,34.133v34.133
		C452.267,227.918,436.985,243.2,418.133,243.2z"/>
	<path style="fill:#14A085;" d="M409.6,183.467h-17.067c-4.713,0-8.533,3.821-8.533,8.533c0,4.713,3.82,8.533,8.533,8.533H409.6
		c4.713,0,8.533-3.821,8.533-8.533C418.133,187.287,414.313,183.467,409.6,183.467z"/>
	<path style="fill:#CC4B4C;" d="M358.4,183.467h-17.067c-4.713,0-8.533,3.821-8.533,8.533c0,4.713,3.82,8.533,8.533,8.533H358.4
		c4.713,0,8.533-3.821,8.533-8.533C366.933,187.287,363.113,183.467,358.4,183.467z"/>
	<circle style="fill:#2FA8CC;" cx="128" cy="192" r="17.067"/>
	<g>
		<path style="fill:#3F5C6C;" d="M443.733,448H8.533C3.821,448,0,451.821,0,456.533s3.821,8.533,8.533,8.533h435.2
			c4.713,0,8.533-3.82,8.533-8.533S448.446,448,443.733,448z"/>
		<path style="fill:#3F5C6C;" d="M503.467,448h-25.6c-4.713,0-8.533,3.82-8.533,8.533s3.821,8.533,8.533,8.533h25.6
			c4.713,0,8.533-3.82,8.533-8.533S508.18,448,503.467,448z"/>
	</g>
	<path style="fill:#BDC3C7;" d="M247.467,379.733h17.067c4.713,0,8.533,3.82,8.533,8.533V448h-34.133v-59.733
		C238.933,383.554,242.754,379.733,247.467,379.733z"/>
	<path style="fill:#95A5A5;" d="M196.267,439.467h119.467c4.713,0,8.533,3.821,8.533,8.533v17.067c0,4.713-3.821,8.533-8.533,8.533
		H196.267c-4.713,0-8.533-3.821-8.533-8.533V448C187.733,443.287,191.554,439.467,196.267,439.467z"/>
	<path style="fill:#D25627;" d="M422.4,140.8h-8.533c-30.618,0.038-55.429,24.849-55.467,55.467v55.467
		c0,4.713,3.82,8.533,8.533,8.533s8.533-3.821,8.533-8.533v-55.467c0.024-21.198,17.202-38.376,38.4-38.4h8.533
		c21.198,0.024,38.376,17.202,38.4,38.4v55.467c0,4.713,3.821,8.533,8.533,8.533c4.713,0,8.533-3.821,8.533-8.533v-55.467
		C477.829,165.649,453.018,140.838,422.4,140.8z"/>
	<path style="fill:#F29C1F;" d="M486.4,260.267v93.867c0,14.138-11.462,25.6-25.6,25.6h-85.333c-14.138,0-25.6-11.462-25.6-25.6
		v-93.867c0.028-9.414,7.653-17.039,17.067-17.067h102.4C478.747,243.228,486.372,250.853,486.4,260.267z"/>
	<g>
		<circle style="fill:#E57E25;" cx="418.133" cy="294.4" r="17.067"/>
		<path style="fill:#E57E25;" d="M418.133,345.6c-4.713,0-8.533-3.82-8.533-8.533v-25.6c0-4.713,3.82-8.533,8.533-8.533
			s8.533,3.82,8.533,8.533v25.6C426.667,341.78,422.846,345.6,418.133,345.6z"/>
		<path style="fill:#E57E25;" d="M375.467,277.333c0,4.713-3.82,8.533-8.533,8.533h-17.067V268.8h17.067
			C371.646,268.8,375.467,272.621,375.467,277.333z"/>
		<path style="fill:#E57E25;" d="M375.467,311.467c0,4.713-3.82,8.533-8.533,8.533h-17.067v-17.067h17.067
			C371.646,302.933,375.467,306.754,375.467,311.467z"/>
		<path style="fill:#E57E25;" d="M375.467,345.6c0,4.713-3.82,8.533-8.533,8.533h-17.067v-17.067h17.067
			C371.646,337.067,375.467,340.887,375.467,345.6z"/>
		<path style="fill:#E57E25;" d="M486.4,268.8v17.067h-17.067c-4.713,0-8.533-3.82-8.533-8.533s3.821-8.533,8.533-8.533H486.4z"/>
		<path style="fill:#E57E25;" d="M486.4,302.933V320h-17.067c-4.713,0-8.533-3.821-8.533-8.533s3.821-8.533,8.533-8.533H486.4z"/>
		<path style="fill:#E57E25;" d="M486.4,337.067v17.067h-17.067c-4.713,0-8.533-3.821-8.533-8.533c0-4.713,3.821-8.533,8.533-8.533
			H486.4z"/>
	</g>
</g>
<g>
</g>
<g>
</g>
<g>
</g>
<g>
</g>
<g>
</g>
<g>
</g>
<g>
</g>
<g>
</g>
<g>
</g>
<g>
</g>
<g>
</g>
<g>
</g>
<g>
</g>
<g>
</g>
<g>
</g>
</svg>
