<?xml version="1.0" encoding="iso-8859-1"?>
<!-- Generator: Adobe Illustrator 21.0.0, SVG Export Plug-In . SVG Version: 6.00 Build 0)  -->
<svg version="1.1" id="Capa_1" xmlns="http://www.w3.org/2000/svg" xmlns:xlink="http://www.w3.org/1999/xlink" x="0px" y="0px"
	 viewBox="0 0 512 512" style="enable-background:new 0 0 512 512;" xml:space="preserve">
<g>
	<circle style="fill:#3B97D3;" cx="199.593" cy="199.593" r="190.915"/>
	<path style="fill:#2980BA;" d="M399.186,199.593c0.03-50.315-19.02-98.77-53.309-135.593c-0.196-0.323-0.417-0.63-0.66-0.92
		c-0.156-0.148-0.364-0.2-0.529-0.33C307.054,22.709,254.545,0,199.593,0S92.132,22.709,54.498,62.751
		c-0.183,0.098-0.36,0.209-0.529,0.33c-0.243,0.289-0.463,0.597-0.66,0.92c-71.165,76.614-71.066,195.186,0.226,271.681
		c0.13,0.139,0.278,0.252,0.408,0.399c34.601,37.028,82.054,59.42,132.634,62.585h10.414c0.835,0.31,1.714,0.486,2.603,0.521
		c0.89-0.04,1.769-0.218,2.603-0.529h10.952c50.353-3.271,97.565-25.616,132.018-62.481c0.13-0.147,0.278-0.26,0.408-0.399
		C380.093,298.839,399.261,250.15,399.186,199.593z M338.84,316.911c-11.486-11.135-24.271-20.846-38.079-28.924
		c7.003-26.013,10.812-52.782,11.342-79.716h69.32C379.583,248.187,364.614,286.377,338.84,316.911z M17.764,208.271h69.32
		c0.53,26.934,4.338,53.703,11.342,79.716c-13.808,8.078-26.593,17.789-38.079,28.924C34.573,286.377,19.603,248.187,17.764,208.271
		z M60.347,82.276c11.399,11.051,24.078,20.699,37.767,28.741c-6.959,26.08-10.724,52.91-11.212,79.898H17.798
		C19.62,151.003,34.578,112.81,60.347,82.276z M381.388,190.915h-69.103c-0.488-26.988-4.252-53.818-11.212-79.898
		c13.689-8.042,26.367-17.691,37.767-28.741C364.609,112.81,379.567,151.003,381.388,190.915z M190.915,121.266
		c-24.874-1.217-49.237-7.504-71.593-18.475c15.638-46.384,41.854-79.169,71.593-84.567V121.266z M190.915,138.622v52.293H104.37
		c0.556-24.078,3.89-48.011,9.936-71.324C138.325,130.959,164.369,137.428,190.915,138.622z M190.915,208.271v52.293
		c-26.592,1.201-52.677,7.691-76.731,19.092c-5.959-23.346-9.232-47.296-9.754-71.385H190.915z M190.915,277.921v102.261h-3.801
		c-27.77-7.116-52.866-38.096-68.105-83.638C141.452,285.484,165.925,279.145,190.915,277.921z M208.271,277.921
		c24.993,1.225,49.468,7.564,71.914,18.623c-15.247,45.542-40.344,76.522-68.113,83.638h-3.801V277.921z M208.271,260.565v-52.293
		h86.485c-0.527,24.088-3.799,48.038-9.754,71.385C260.948,268.256,234.863,261.765,208.271,260.565z M208.271,190.915v-52.293
		c26.547-1.194,52.59-7.663,76.609-19.031c6.046,23.313,9.38,47.246,9.936,71.324H208.271z M208.271,121.266V18.224
		c29.739,5.398,55.956,38.183,71.593,84.567C257.508,113.762,233.145,120.049,208.271,121.266z M295.797,93.965
		c-7.97-25.029-21.326-48.009-39.129-67.324c26.417,8.746,50.482,23.422,70.352,42.904
		C317.534,78.799,307.064,86.988,295.797,93.965z M103.389,93.965C92.116,86.989,81.641,78.8,72.149,69.545
		c19.875-19.484,43.946-34.16,70.37-42.904C124.716,45.956,111.36,68.936,103.389,93.965z M103.563,305.117
		c8.125,25.166,21.665,48.247,39.667,67.619c-26.715-8.648-51.047-23.403-71.064-43.095C81.7,320.34,92.229,312.116,103.563,305.117
		z M295.624,305.117c11.333,6.998,21.862,15.222,31.397,24.524c-20.046,19.719-44.409,34.498-71.159,43.164
		C273.911,353.426,287.485,330.319,295.624,305.117z"/>
	<g>
		<path style="fill:#A5A5A4;" d="M477.288,407.865v-8.678H216.949v8.678c-19.171,0-34.712,15.541-34.712,34.712v34.712
			c0,19.171,15.541,34.712,34.712,34.712h260.339C496.459,512,512,496.459,512,477.288v-34.712
			C512,423.406,496.459,407.865,477.288,407.865z"/>
		<path style="fill:#A5A5A4;" d="M477.288,199.593H216.949c-19.171,0-34.712,15.541-34.712,34.712v34.712
			c0,19.171,15.541,34.712,34.712,34.712v8.678H468.61v-8.678h8.678c19.171,0,34.712-15.541,34.712-34.712v-34.712
			C512,215.134,496.459,199.593,477.288,199.593z"/>
	</g>
	<path style="fill:#14A085;" d="M451.254,242.983h-17.356c-4.793,0-8.678,3.885-8.678,8.678c0,4.793,3.885,8.678,8.678,8.678h17.356
		c4.793,0,8.678-3.885,8.678-8.678C459.932,246.869,456.047,242.983,451.254,242.983z"/>
	<path style="fill:#CC4B4C;" d="M399.186,242.983H381.83c-4.793,0-8.678,3.885-8.678,8.678c0,4.793,3.885,8.678,8.678,8.678h17.356
		c4.793,0,8.678-3.885,8.678-8.678C407.864,246.869,403.979,242.983,399.186,242.983z"/>
	<g>
		<circle style="fill:#237E99;" cx="251.661" cy="251.661" r="17.356"/>
		<circle style="fill:#237E99;" cx="251.661" cy="459.932" r="17.356"/>
	</g>
	<path style="fill:#D1D4D1;" d="M477.288,407.865H216.949c-19.171,0-34.712-15.541-34.712-34.712v-34.712
		c0-19.171,15.541-34.712,34.712-34.712h260.339c19.171,0,34.712,15.541,34.712,34.712v34.712
		C512,392.324,496.459,407.865,477.288,407.865z"/>
	<path style="fill:#14A085;" d="M451.254,347.119h-17.356c-4.793,0-8.678,3.885-8.678,8.678c0,4.793,3.885,8.678,8.678,8.678h17.356
		c4.793,0,8.678-3.885,8.678-8.678C459.932,351.004,456.047,347.119,451.254,347.119z"/>
	<path style="fill:#CC4B4C;" d="M399.186,347.119H381.83c-4.793,0-8.678,3.885-8.678,8.678c0,4.793,3.885,8.678,8.678,8.678h17.356
		c4.793,0,8.678-3.885,8.678-8.678C407.864,351.004,403.979,347.119,399.186,347.119z"/>
	<path style="fill:#14A085;" d="M451.254,451.254h-17.356c-4.793,0-8.678,3.885-8.678,8.678s3.885,8.678,8.678,8.678h17.356
		c4.793,0,8.678-3.885,8.678-8.678S456.047,451.254,451.254,451.254z"/>
	<path style="fill:#CC4B4C;" d="M399.186,451.254H381.83c-4.793,0-8.678,3.885-8.678,8.678s3.885,8.678,8.678,8.678h17.356
		c4.793,0,8.678-3.885,8.678-8.678S403.979,451.254,399.186,451.254z"/>
	<circle style="fill:#2FA8CC;" cx="251.661" cy="355.797" r="17.356"/>
</g>
<g>
</g>
<g>
</g>
<g>
</g>
<g>
</g>
<g>
</g>
<g>
</g>
<g>
</g>
<g>
</g>
<g>
</g>
<g>
</g>
<g>
</g>
<g>
</g>
<g>
</g>
<g>
</g>
<g>
</g>
</svg>
