<?xml version="1.0" encoding="iso-8859-1"?>
<!-- Generator: Adobe Illustrator 21.0.0, SVG Export Plug-In . SVG Version: 6.00 Build 0)  -->
<svg version="1.1" id="Capa_1" xmlns="http://www.w3.org/2000/svg" xmlns:xlink="http://www.w3.org/1999/xlink" x="0px" y="0px"
	 viewBox="0 0 512.004 512.004" style="enable-background:new 0 0 512.004 512.004;" xml:space="preserve">
<g>
	<path style="fill:#3F5C6C;" d="M317.795,376.665H264.83v-26.483c0-4.875-3.952-8.828-8.828-8.828s-8.828,3.952-8.828,8.828v26.483
		h-52.966c-4.875,0-8.828,3.952-8.828,8.828s3.952,8.828,8.828,8.828h123.586c4.875,0,8.828-3.952,8.828-8.828
		S322.671,376.665,317.795,376.665z"/>
	<g>
		<path style="fill:#F0C419;" d="M118.486,389.121c2.443,7.949,2.853,16.384,1.192,24.532c-54.855,35.222-71.936-47.36-71.936-47.36
			s37.182-7.742,58.483,6.762L118.486,389.121z"/>
		<path style="fill:#F0C419;" d="M141.817,396.695c-64.856-6.691-26.695-81.823-26.695-81.823S190.254,353.034,141.817,396.695z"/>
		<path style="fill:#F0C419;" d="M81.896,141.737c-7.219,4.123-15.355,6.372-23.667,6.541C11.822,102.489,88.649,67.7,88.649,67.7
			s15.713,34.586,6.232,58.545L81.896,141.737z"/>
		<path style="fill:#F0C419;" d="M79.627,166.154c-7.698-64.75,73.975-43.988,73.975-43.988S132.84,203.839,79.627,166.154z"/>
		<path style="fill:#F0C419;" d="M52.597,247.783v-0.088C42.092,224.213,6.605,211.06,6.605,211.06s-29.396,79.007,35.84,78.301
			c4.272-4.691,7.733-10.061,10.24-15.89v-0.088L52.597,247.783z"/>
		<path style="fill:#F0C419;" d="M70.19,297.217c-51.412-40.104,20.815-83.518,20.815-83.518S134.411,285.927,70.19,297.217z"/>
		<path style="fill:#F0C419;" d="M134.111,72.944c68.855,53.063,100.917-54.625,100.917-54.625S127.34-13.735,134.111,72.944z"/>
		<path style="fill:#F0C419;" d="M405.78,373.055c21.301-14.504,58.483-6.762,58.483-6.762s-17.081,82.582-71.936,47.36
			c-1.661-8.148-1.252-16.583,1.192-24.532L405.78,373.055z"/>
		<path style="fill:#F0C419;" d="M370.187,396.695c64.856-6.691,26.695-81.823,26.695-81.823S321.75,353.034,370.187,396.695z"/>
		<path style="fill:#F0C419;" d="M417.123,126.245c-9.481-23.958,6.232-58.545,6.232-58.545s76.8,34.79,30.42,80.578
			c-8.312-0.169-16.448-2.418-23.667-6.541L417.123,126.245z"/>
		<path style="fill:#F0C419;" d="M432.377,166.154c7.698-64.75-73.975-43.988-73.975-43.988S379.165,203.839,432.377,166.154z"/>
		<path style="fill:#F0C419;" d="M459.319,273.383v0.088c2.507,5.829,5.968,11.199,10.24,15.89
			c65.236,0.706,35.84-78.301,35.84-78.301s-35.487,13.153-45.992,36.634v0.088L459.319,273.383z"/>
		<path style="fill:#F0C419;" d="M441.814,297.217c51.412-40.104-20.815-83.518-20.815-83.518S377.593,285.927,441.814,297.217z"/>
		<path style="fill:#F0C419;" d="M377.893,72.944c-68.855,53.063-100.917-54.625-100.917-54.625S384.664-13.735,377.893,72.944z"/>
	</g>
	<path style="fill:#955BA5;" d="M211.864,120.665h88.276c14.626,0,26.483,11.857,26.483,26.483V323.7
		c0,14.626-11.857,26.483-26.483,26.483h-88.276c-14.626,0-26.483-11.857-26.483-26.483V147.148
		C185.381,132.522,197.238,120.665,211.864,120.665z"/>
	<g>
		<path style="fill:#CC66A1;" d="M220.692,164.803h70.621c4.875,0,8.828-3.952,8.828-8.828s-3.952-8.828-8.828-8.828h-70.621
			c-4.875,0-8.828,3.952-8.828,8.828S215.816,164.803,220.692,164.803z"/>
		<path style="fill:#CC66A1;" d="M291.312,182.459h-70.621c-4.875,0-8.828,3.952-8.828,8.828s3.952,8.828,8.828,8.828h70.621
			c4.875,0,8.828-3.952,8.828-8.828S296.188,182.459,291.312,182.459z"/>
		<path style="fill:#CC66A1;" d="M291.312,217.769h-70.621c-4.875,0-8.828,3.952-8.828,8.828s3.952,8.828,8.828,8.828h70.621
			c4.875,0,8.828-3.952,8.828-8.828S296.188,217.769,291.312,217.769z"/>
	</g>
	<circle style="fill:#B49ACA;" cx="256.002" cy="288.39" r="26.483"/>
	<g>
		<path style="fill:#F29C1F;" d="M317.795,447.286c-4.875,0-8.828,3.952-8.828,8.828c0.213,8.58-2.769,16.933-8.369,23.437
			c-3.787,2.661-8.664,3.226-12.959,1.501c-13.7-3.966-23.046-16.618-22.81-30.879v-2.887h26.483c4.875,0,8.828-3.952,8.828-8.828
			s-3.952-8.828-8.828-8.828H264.83c0-4.875-3.952-8.828-8.828-8.828s-8.828,3.952-8.828,8.828h-26.483
			c-4.875,0-8.828,3.952-8.828,8.828s3.952,8.828,8.828,8.828h26.483v2.887c0.244,14.268-9.104,26.929-22.81,30.897
			c-4.287,1.727-9.156,1.169-12.941-1.483c-5.579-6.531-8.563-14.885-8.386-23.473c0-4.875-3.952-8.828-8.828-8.828
			s-8.828,3.952-8.828,8.828c0,2.648,0.424,25.865,15.166,37.358c5.193,4.002,11.594,6.119,18.15,6.003
			c3.36-0.022,6.705-0.461,9.958-1.306c11.204-2.879,20.95-9.795,27.366-19.421c6.416,9.626,16.161,16.542,27.366,19.421
			c3.252,0.845,6.597,1.284,9.958,1.306c6.556,0.116,12.956-2,18.15-6.003c14.707-11.493,15.13-34.71,15.13-37.358
			C326.623,451.238,322.671,447.286,317.795,447.286z"/>
		<path style="fill:#F29C1F;" d="M174.32,50.928c1.266,4.168-0.699,8.637-4.626,10.522
			C101.749,95.144,59.633,165.309,61.851,241.118s48.363,143.392,118.163,173.056c3.907,1.616,6.119,5.776,5.275,9.919
			c-0.844,4.143-4.508,7.106-8.736,7.065c-1.19,0-2.368-0.244-3.46-0.715C96.924,398.046,46.597,324.256,44.24,241.516
			S87.928,82.241,162.13,45.56c2.312-1.106,4.993-1.144,7.336-0.105c2.343,1.039,4.114,3.052,4.846,5.508L174.32,50.928z"/>
		<path style="fill:#F29C1F;" d="M340.491,51.069c0.991-2.17,2.817-3.846,5.064-4.648c2.247-0.802,4.722-0.66,6.862,0.393
			c73.259,37.435,118.222,113.895,115.328,196.113c-2.895,82.218-53.124,155.327-128.834,187.517
			c-2.154,0.918-4.584,0.942-6.756,0.068s-3.908-2.575-4.826-4.729c-0.918-2.154-0.942-4.584-0.068-6.756
			c0.874-2.172,2.575-3.908,4.729-4.826c69.371-29.484,115.416-96.446,118.117-171.774c2.701-75.329-38.43-145.416-105.512-179.793
			c-4.25-2.114-6.068-7.211-4.114-11.538L340.491,51.069z"/>
	</g>
</g>
<g>
</g>
<g>
</g>
<g>
</g>
<g>
</g>
<g>
</g>
<g>
</g>
<g>
</g>
<g>
</g>
<g>
</g>
<g>
</g>
<g>
</g>
<g>
</g>
<g>
</g>
<g>
</g>
<g>
</g>
</svg>
