<?xml version="1.0" encoding="iso-8859-1"?>
<!-- Generator: Adobe Illustrator 21.0.0, SVG Export Plug-In . SVG Version: 6.00 Build 0)  -->
<svg version="1.1" id="Capa_1" xmlns="http://www.w3.org/2000/svg" xmlns:xlink="http://www.w3.org/1999/xlink" x="0px" y="0px"
	 viewBox="0 0 503.669 503.669" style="enable-background:new 0 0 503.669 503.669;" xml:space="preserve">
<g>
	<path style="fill:#F3D55B;" d="M367.946,312.754H135.723c-17.342-0.019-31.395-14.073-31.414-31.414V49.117
		c0.019-17.342,14.073-31.395,31.414-31.414h232.222c17.342,0.019,31.395,14.073,31.414,31.414V281.34
		C399.341,298.681,385.288,312.735,367.946,312.754z M135.723,35.059c-7.76,0.01-14.049,6.298-14.058,14.058V281.34
		c0.01,7.76,6.298,14.049,14.058,14.058h232.222c7.76-0.01,14.049-6.298,14.058-14.058V49.117
		c-0.01-7.76-6.298-14.049-14.058-14.058H135.723z"/>
	<path style="fill:#D1D4D1;" d="M251.835,23.604c-78.217,0-141.624,63.407-141.624,141.624s63.407,141.624,141.624,141.624
		s141.624-63.407,141.624-141.624C393.44,87.02,330.044,23.623,251.835,23.604z M251.835,217.296
		c-28.756,0-52.068-23.312-52.068-52.068s23.312-52.068,52.068-52.068s52.068,23.312,52.068,52.068
		c0,13.809-5.486,27.053-15.25,36.818C278.888,211.811,265.644,217.296,251.835,217.296z"/>
	<path style="fill:#CB8252;" d="M156.377,413.245v81.746c0,4.793-3.885,8.678-8.678,8.678H82.354c-4.793,0-8.678-3.885-8.678-8.678
		v-44.952l-57.622-63.002c-10.231-11.186-15.898-25.801-15.881-40.96v-128.26c0.028-4.773,1.965-9.336,5.38-12.67
		c3.502-3.354,8.168-5.22,13.017-5.207c4.81-0.07,9.451,1.775,12.902,5.128c3.45,3.353,5.427,7.939,5.496,12.749v116.111
		l9.112,8.938l10.761-13.885l4.165-5.38c3.223-4.187,8.08-6.799,13.351-7.181c5.27-0.381,10.453,1.505,14.245,5.185l49.378,48.076
		C149.782,381.096,156.425,396.826,156.377,413.245z"/>
	<g>
		<path style="fill:#FF5364;" d="M309.864,19.534l-32.065,94.694c-16.313-8.308-35.616-8.308-51.929,0l-32.065-94.694
			c-1.561-4.458,0.763-9.342,5.207-10.943c34.26-11.455,71.316-11.455,105.576,0C309.06,10.164,311.418,15.056,309.864,19.534z"/>
		<path style="fill:#FF5364;" d="M193.892,310.524l32.056-94.703c16.313,8.319,35.624,8.319,51.938,0l32.091,94.703
			c1.566,4.459-0.759,9.345-5.207,10.943c-34.259,11.442-71.308,11.442-105.567,0c-2.156-0.747-3.926-2.319-4.922-4.371
			C193.285,315.043,193.145,312.679,193.892,310.524z"/>
		<path style="fill:#FF5364;" d="M397.13,223.171l-94.703-32.056c8.319-16.313,8.319-35.624,0-51.938l94.703-32.091
			c4.459-1.566,9.345,0.759,10.943,5.207c11.442,34.259,11.442,71.309,0,105.567c-0.747,2.156-2.319,3.926-4.371,4.922
			C401.649,223.779,399.285,223.919,397.13,223.171z"/>
	</g>
	<path style="fill:#805333;" d="M107.78,392.591c-1.626,1.626-3.836,2.533-6.136,2.516c-2.3-0.016-4.497-0.954-6.1-2.603
		L46.08,342.867l10.761-13.885l51.026,51.287C111.228,383.703,111.189,389.205,107.78,392.591z"/>
	<path style="fill:#CB8252;" d="M347.292,413.245v81.746c0,4.793,3.885,8.678,8.678,8.678h65.345c4.793,0,8.678-3.885,8.678-8.678
		v-44.952l57.622-63.002c10.231-11.186,15.898-25.801,15.881-40.96v-128.26c-0.027-4.773-1.965-9.336-5.38-12.67
		c-3.502-3.354-8.168-5.22-13.017-5.207c-4.81-0.07-9.451,1.775-12.902,5.128c-3.45,3.353-5.427,7.939-5.496,12.749v116.111
		l-9.112,8.938l-10.761-13.885l-4.165-5.38c-3.223-4.187-8.08-6.799-13.351-7.181s-10.453,1.505-14.245,5.185l-49.378,48.076
		C353.887,381.096,347.244,396.826,347.292,413.245z"/>
	<path style="fill:#805333;" d="M395.889,392.591c1.626,1.626,3.836,2.533,6.136,2.516c2.3-0.016,4.497-0.954,6.1-2.603
		l49.464-49.638l-10.761-13.885l-51.026,51.287C392.442,383.703,392.481,389.205,395.889,392.591z"/>
	<g>
		<path style="fill:#E6E7E8;" d="M187.271,85.652c-13.019,9.908-22.927,23.34-28.551,38.704l-16.488-5.554
			c6.79-19.031,19.121-35.594,35.406-47.555c3.965-2.344,9.07-1.182,11.63,2.647S190.951,82.883,187.271,85.652z"/>
		<path style="fill:#E6E7E8;" d="M187.271,243.513c-13.019-9.908-22.927-23.34-28.551-38.704l-16.488,5.554
			c6.79,19.031,19.121,35.594,35.406,47.555c3.965,2.344,9.07,1.182,11.63-2.646C191.828,251.443,190.951,246.281,187.271,243.513z"
			/>
	</g>
	<path style="fill:#FF5364;" d="M194.994,164.534c-0.031,8.987,2.081,17.852,6.161,25.86l-94.85,32.108
		c-4.48,1.542-9.365-0.823-10.934-5.294c-11.37-34.191-11.218-71.167,0.434-105.264c1.605-4.436,6.479-6.757,10.934-5.207
		l35.493,12.062l16.488,5.554l42.435,14.405C197.066,146.734,194.953,155.574,194.994,164.534z"/>
	<path style="fill:#FF7583;" d="M112.987,199.94c-3.737,0.001-7.055-2.39-8.235-5.936c-5.637-18.77-5.637-38.782,0-57.552
		c1.51-4.553,6.425-7.02,10.978-5.511c4.553,1.51,7.02,6.425,5.511,10.978c-4.419,15.219-4.419,31.381,0,46.601
		c0.882,2.649,0.436,5.562-1.2,7.825C118.405,198.609,115.78,199.947,112.987,199.94z"/>
	<path style="fill:#BDC3C7;" d="M251.835,225.974c-33.549,0-60.746-27.197-60.746-60.746s27.197-60.746,60.746-60.746
		s60.746,27.197,60.746,60.746C312.542,198.762,285.368,225.936,251.835,225.974z M251.835,121.839
		c-23.964,0-43.39,19.426-43.39,43.39s19.426,43.39,43.39,43.39s43.39-19.426,43.39-43.39
		C295.196,141.277,275.786,121.867,251.835,121.839z"/>
</g>
<g>
</g>
<g>
</g>
<g>
</g>
<g>
</g>
<g>
</g>
<g>
</g>
<g>
</g>
<g>
</g>
<g>
</g>
<g>
</g>
<g>
</g>
<g>
</g>
<g>
</g>
<g>
</g>
<g>
</g>
</svg>
