<?xml version="1.0" encoding="iso-8859-1"?>
<!-- Generator: Adobe Illustrator 21.0.0, SVG Export Plug-In . SVG Version: 6.00 Build 0)  -->
<svg version="1.1" id="Capa_1" xmlns="http://www.w3.org/2000/svg" xmlns:xlink="http://www.w3.org/1999/xlink" x="0px" y="0px"
	 viewBox="0 0 512 512" style="enable-background:new 0 0 512 512;" xml:space="preserve">
<g>
	<rect x="172.138" y="388.414" style="fill:#BDC3C7;" width="35.31" height="105.931"/>
	<path style="fill:#3F5C6C;" d="M375.172,503.172H22.069c-4.875,0-8.828-3.952-8.828-8.828s3.952-8.828,8.828-8.828h353.103
		c4.875,0,8.828,3.952,8.828,8.828S380.048,503.172,375.172,503.172z"/>
	<path style="fill:#95A5A5;" d="M110.345,476.69h158.897c4.875,0,8.828,3.952,8.828,8.828v17.655c0,4.875-3.952,8.828-8.828,8.828
		H110.345c-4.875,0-8.828-3.952-8.828-8.828v-17.655C101.517,480.642,105.469,476.69,110.345,476.69z"/>
	<g>
		<path style="fill:#A5A5A4;" d="M322.207,300.138v-8.828H57.379v8.828c-19.501,0-35.31,15.809-35.31,35.31v35.31
			c0,19.501,15.809,35.31,35.31,35.31h264.828c19.501,0,35.31-15.809,35.31-35.31v-35.31
			C357.517,315.947,341.708,300.138,322.207,300.138z"/>
		<path style="fill:#A5A5A4;" d="M322.207,88.276H57.379c-19.501,0-35.31,15.809-35.31,35.31v35.31
			c0,19.501,15.809,35.31,35.31,35.31v8.828h256v-8.828h8.828c19.501,0,35.31-15.809,35.31-35.31v-35.31
			C357.517,104.085,341.708,88.276,322.207,88.276z"/>
	</g>
	<path style="fill:#14A085;" d="M295.724,132.414h-17.655c-4.875,0-8.828,3.952-8.828,8.828s3.952,8.828,8.828,8.828h17.655
		c4.875,0,8.828-3.952,8.828-8.828S300.599,132.414,295.724,132.414z"/>
	<path style="fill:#CC4B4C;" d="M242.759,132.414h-17.655c-4.875,0-8.828,3.952-8.828,8.828s3.952,8.828,8.828,8.828h17.655
		c4.875,0,8.828-3.952,8.828-8.828S247.634,132.414,242.759,132.414z"/>
	<g>
		<circle style="fill:#237E99;" cx="92.69" cy="141.241" r="17.655"/>
		<circle style="fill:#237E99;" cx="92.69" cy="353.103" r="17.655"/>
	</g>
	<path style="fill:#D1D4D1;" d="M322.207,300.138H57.379c-19.501,0-35.31-15.809-35.31-35.31v-35.31
		c0-19.501,15.809-35.31,35.31-35.31h264.828c19.501,0,35.31,15.809,35.31,35.31v35.31
		C357.517,284.329,341.708,300.138,322.207,300.138z"/>
	<path style="fill:#14A085;" d="M295.724,238.345h-17.655c-4.875,0-8.828,3.952-8.828,8.828s3.952,8.828,8.828,8.828h17.655
		c4.875,0,8.828-3.952,8.828-8.828S300.599,238.345,295.724,238.345z"/>
	<path style="fill:#CC4B4C;" d="M242.759,238.345h-17.655c-4.875,0-8.828,3.952-8.828,8.828s3.952,8.828,8.828,8.828h17.655
		c4.875,0,8.828-3.952,8.828-8.828S247.634,238.345,242.759,238.345z"/>
	<path style="fill:#14A085;" d="M295.724,344.276h-17.655c-4.875,0-8.828,3.952-8.828,8.828s3.952,8.828,8.828,8.828h17.655
		c4.875,0,8.828-3.952,8.828-8.828S300.599,344.276,295.724,344.276z"/>
	<path style="fill:#CC4B4C;" d="M242.759,344.276h-17.655c-4.875,0-8.828,3.952-8.828,8.828s3.952,8.828,8.828,8.828h17.655
		c4.875,0,8.828-3.952,8.828-8.828S247.634,344.276,242.759,344.276z"/>
	<circle style="fill:#2FA8CC;" cx="92.69" cy="247.172" r="17.655"/>
	<polygon style="fill:#D1D4D1;" points="489.931,61.793 472.276,123.586 472.276,273.655 436.966,273.655 436.966,123.586 
		419.31,61.793 428.138,0 481.103,0 	"/>
	<path style="fill:#A5A5A4;" d="M472.276,247.172h-35.31c-4.875,0-8.828,3.952-8.828,8.828v44.138h52.966V256
		C481.103,251.125,477.151,247.172,472.276,247.172z"/>
	<path style="fill:#F0C419;" d="M428.138,282.483h52.966c9.751,0,17.655,7.905,17.655,17.655v194.207
		c0,9.751-7.904,17.655-17.655,17.655h-52.966c-9.751,0-17.655-7.905-17.655-17.655V300.138
		C410.483,290.387,418.387,282.483,428.138,282.483z"/>
	<path style="fill:#5E5F62;" d="M463.448,361.931V512h-17.655V361.931c0-4.875,3.952-8.828,8.828-8.828
		S463.448,357.056,463.448,361.931z"/>
</g>
<g>
</g>
<g>
</g>
<g>
</g>
<g>
</g>
<g>
</g>
<g>
</g>
<g>
</g>
<g>
</g>
<g>
</g>
<g>
</g>
<g>
</g>
<g>
</g>
<g>
</g>
<g>
</g>
<g>
</g>
</svg>
