<?xml version="1.0" encoding="iso-8859-1"?>
<!-- Generator: Adobe Illustrator 21.0.0, SVG Export Plug-In . SVG Version: 6.00 Build 0)  -->
<svg version="1.1" id="Capa_1" xmlns="http://www.w3.org/2000/svg" xmlns:xlink="http://www.w3.org/1999/xlink" x="0px" y="0px"
	 viewBox="0 0 512 512" style="enable-background:new 0 0 512 512;" xml:space="preserve">
<g>
	<circle style="fill:#3B97D3;" cx="229.517" cy="229.517" r="229.517"/>
	<g>
		<path style="fill:#71C285;" d="M326.444,437.583c-85.033,39.605-185.612,23.454-253.97-40.783
			c11.769-4.066,22.435-10.804,31.161-19.686c9.975-8.386,21.716-16.684,34.781-15.89c10.946,0.618,20.48,7.503,30.808,11.211
			c21.55,7.266,45.355,0.818,60.292-16.331C229.517,356.105,316.557,257.412,326.444,437.583z"/>
		<path style="fill:#71C285;" d="M131.178,166.312c-4.148,14.014-4.514,28.877-1.059,43.079c2.737,14.301,7.062,28.248,8.651,42.637
			c0.875,5.626,0.544,11.373-0.971,16.861c-1.602,5.555-5.823,9.974-11.299,11.829c-7.041,1.069-14.161-1.37-19.068-6.532
			c-4.823-5.091-10.048-9.785-15.625-14.036c-15.36-9.534-35.31-2.472-53.407-3.443c-14.366-0.905-27.915-6.99-38.135-17.126v-0.088
			C0.088,236.138,0,232.872,0,229.517c-0.021-89.14,51.572-170.23,132.326-207.978c10.063,23.128,39.371,36.281,43.343,61.44
			c2.472,15.978-6.621,31.338-16.772,43.873S136.651,151.128,131.178,166.312z"/>
		<path style="fill:#71C285;" d="M458.946,225.898C320,205.771,348.778,132.414,348.778,132.414
			c0.528-7.89-1.965-15.685-6.974-21.804c-4.855-6.886-11.123-12.623-15.713-19.774c-12.757-21.043-8.958-48.157,9.092-64.883
			l0.088-0.088C410.2,64.666,457.722,141.528,458.946,225.898z"/>
	</g>
	<path style="fill:#2980BA;" d="M512,220.69v273.655c-0.029,9.739-7.917,17.626-17.655,17.655H247.172
		c-9.739-0.029-17.626-7.917-17.655-17.655V220.69H512z"/>
	<path style="fill:#D1D4D1;" d="M512,150.069v88.276H229.517v-88.276c0.029-9.739,7.917-17.626,17.655-17.655h247.172
		C504.083,132.443,511.971,140.33,512,150.069z"/>
	<circle style="fill:#FF5364;" cx="388.414" cy="185.379" r="17.655"/>
	<circle style="fill:#14A085;" cx="459.034" cy="185.379" r="17.655"/>
	<path style="fill:#B0D3F0;" d="M282.483,273.655h61.793c4.875,0,8.828,3.952,8.828,8.828v52.966c0,4.875-3.952,8.828-8.828,8.828
		h-61.793c-4.875,0-8.828-3.952-8.828-8.828v-52.966C273.655,277.607,277.607,273.655,282.483,273.655z"/>
	<path style="fill:#FF5364;" d="M397.241,273.655h61.793c4.875,0,8.828,3.952,8.828,8.828v52.966c0,4.875-3.952,8.828-8.828,8.828
		h-61.793c-4.875,0-8.828-3.952-8.828-8.828v-52.966C388.414,277.607,392.366,273.655,397.241,273.655z"/>
	<path style="fill:#F0C419;" d="M282.483,406.069h61.793c4.875,0,8.828,3.952,8.828,8.828v52.966c0,4.875-3.952,8.828-8.828,8.828
		h-61.793c-4.875,0-8.828-3.952-8.828-8.828v-52.966C273.655,410.021,277.607,406.069,282.483,406.069z"/>
	<path style="fill:#65DDB9;" d="M397.241,406.069h61.793c4.875,0,8.828,3.952,8.828,8.828v52.966c0,4.875-3.952,8.828-8.828,8.828
		h-61.793c-4.875,0-8.828-3.952-8.828-8.828v-52.966C388.414,410.021,392.366,406.069,397.241,406.069z"/>
</g>
<g>
</g>
<g>
</g>
<g>
</g>
<g>
</g>
<g>
</g>
<g>
</g>
<g>
</g>
<g>
</g>
<g>
</g>
<g>
</g>
<g>
</g>
<g>
</g>
<g>
</g>
<g>
</g>
<g>
</g>
</svg>
