<?xml version="1.0" encoding="iso-8859-1"?>
<!-- Generator: Adobe Illustrator 21.0.0, SVG Export Plug-In . SVG Version: 6.00 Build 0)  -->
<svg version="1.1" id="Capa_1" xmlns="http://www.w3.org/2000/svg" xmlns:xlink="http://www.w3.org/1999/xlink" x="0px" y="0px"
	 viewBox="0 0 512 512" style="enable-background:new 0 0 512 512;" xml:space="preserve">
<g>
	<g>
		<path style="fill:#A5A5A4;" d="M418.133,243.2v-8.533H93.867v8.533c-18.851,0-34.133,15.282-34.133,34.133v34.133
			c0,18.851,15.282,34.133,34.133,34.133h324.267c18.851,0,34.133-15.282,34.133-34.133v-34.133
			C452.267,258.482,436.985,243.2,418.133,243.2z"/>
		<path style="fill:#A5A5A4;" d="M418.133,38.4H93.867c-18.851,0-34.133,15.282-34.133,34.133v34.133
			c0,18.851,15.282,34.133,34.133,34.133v8.533H409.6V140.8h8.533c18.851,0,34.133-15.282,34.133-34.133V72.533
			C452.267,53.682,436.985,38.4,418.133,38.4z"/>
	</g>
	<path style="fill:#14A085;" d="M409.6,81.067h-17.067c-4.713,0-8.533,3.821-8.533,8.533s3.82,8.533,8.533,8.533H409.6
		c4.713,0,8.533-3.821,8.533-8.533S414.313,81.067,409.6,81.067z"/>
	<path style="fill:#CC4B4C;" d="M358.4,81.067h-17.067c-4.713,0-8.533,3.821-8.533,8.533s3.82,8.533,8.533,8.533H358.4
		c4.713,0,8.533-3.821,8.533-8.533S363.113,81.067,358.4,81.067z"/>
	<g>
		<circle style="fill:#237E99;" cx="128" cy="89.6" r="17.067"/>
		<circle style="fill:#237E99;" cx="128" cy="294.4" r="17.067"/>
	</g>
	<path style="fill:#D1D4D1;" d="M418.133,243.2H93.867c-18.851,0-34.133-15.282-34.133-34.133v-34.133
		c0-18.851,15.282-34.133,34.133-34.133h324.267c18.851,0,34.133,15.282,34.133,34.133v34.133
		C452.267,227.918,436.985,243.2,418.133,243.2z"/>
	<path style="fill:#14A085;" d="M409.6,183.467h-17.067c-4.713,0-8.533,3.821-8.533,8.533c0,4.713,3.82,8.533,8.533,8.533H409.6
		c4.713,0,8.533-3.821,8.533-8.533C418.133,187.287,414.313,183.467,409.6,183.467z"/>
	<path style="fill:#CC4B4C;" d="M358.4,183.467h-17.067c-4.713,0-8.533,3.821-8.533,8.533c0,4.713,3.82,8.533,8.533,8.533H358.4
		c4.713,0,8.533-3.821,8.533-8.533C366.933,187.287,363.113,183.467,358.4,183.467z"/>
	<circle style="fill:#2FA8CC;" cx="128" cy="192" r="17.067"/>
	<path style="fill:#3F5C6C;" d="M461.141,322.389l37.291,37.376c4.674,4.221,6.644,10.672,5.125,16.784
		c-1.519,6.112-6.281,10.89-12.387,12.431c-6.106,1.541-12.565-0.406-16.802-5.066l-39.339-39.339L461.141,322.389z"/>
	<circle style="fill:#90BAE1;" cx="396.8" cy="273.067" r="81.067"/>
	<g>
		<path style="fill:#B0D3F0;" d="M443.733,264.533c-4.713,0-8.533,3.82-8.533,8.533c0.009,5.128-1.019,10.204-3.021,14.925
			c-1.838,4.341,0.191,9.349,4.531,11.187s9.349-0.191,11.187-4.531c2.896-6.826,4.383-14.166,4.369-21.581
			C452.267,268.354,448.446,264.533,443.733,264.533z"/>
		<path style="fill:#B0D3F0;" d="M436.002,233.865c-10.382-10.423-24.491-16.276-39.202-16.265c-4.713,0-8.533,3.821-8.533,8.533
			s3.82,8.533,8.533,8.533c10.184-0.006,19.95,4.048,27.136,11.264c3.348,3.234,8.671,3.188,11.962-0.104
			C439.19,242.535,439.236,237.213,436.002,233.865z"/>
	</g>
	<g>
		<path style="fill:#3F5C6C;" d="M187.733,448H8.533C3.821,448,0,451.821,0,456.533s3.821,8.533,8.533,8.533h179.2
			c4.713,0,8.533-3.82,8.533-8.533S192.446,448,187.733,448z"/>
		<path style="fill:#3F5C6C;" d="M443.733,448H324.267c-4.713,0-8.533,3.82-8.533,8.533s3.821,8.533,8.533,8.533h119.467
			c4.713,0,8.533-3.82,8.533-8.533S448.446,448,443.733,448z"/>
		<path style="fill:#3F5C6C;" d="M503.467,448h-25.6c-4.713,0-8.533,3.82-8.533,8.533s3.821,8.533,8.533,8.533h25.6
			c4.713,0,8.533-3.82,8.533-8.533S508.18,448,503.467,448z"/>
	</g>
	<path style="fill:#BDC3C7;" d="M247.467,379.733h17.067c4.713,0,8.533,3.82,8.533,8.533v51.2h-34.133v-51.2
		C238.933,383.554,242.754,379.733,247.467,379.733z"/>
	<path style="fill:#95A5A5;" d="M196.267,439.467h119.467c4.713,0,8.533,3.821,8.533,8.533v17.067c0,4.713-3.821,8.533-8.533,8.533
		H196.267c-4.713,0-8.533-3.821-8.533-8.533V448C187.733,443.287,191.554,439.467,196.267,439.467z"/>
</g>
<g>
</g>
<g>
</g>
<g>
</g>
<g>
</g>
<g>
</g>
<g>
</g>
<g>
</g>
<g>
</g>
<g>
</g>
<g>
</g>
<g>
</g>
<g>
</g>
<g>
</g>
<g>
</g>
<g>
</g>
</svg>
