<?xml version="1.0" encoding="iso-8859-1"?>
<!-- Generator: Adobe Illustrator 21.0.0, SVG Export Plug-In . SVG Version: 6.00 Build 0)  -->
<svg version="1.1" id="Capa_1" xmlns="http://www.w3.org/2000/svg" xmlns:xlink="http://www.w3.org/1999/xlink" x="0px" y="0px"
	 viewBox="0 0 512 512" style="enable-background:new 0 0 512 512;" xml:space="preserve">
<g>
	<g>
		<path style="fill:#A5A5A4;" d="M418.133,243.2v-8.533H93.867v8.533c-18.851,0-34.133,15.282-34.133,34.133v34.133
			c0,18.851,15.282,34.133,34.133,34.133h324.267c18.851,0,34.133-15.282,34.133-34.133v-34.133
			C452.267,258.482,436.985,243.2,418.133,243.2z"/>
		<path style="fill:#A5A5A4;" d="M418.133,38.4H93.867c-18.851,0-34.133,15.282-34.133,34.133v34.133
			c0,18.851,15.282,34.133,34.133,34.133v8.533H409.6V140.8h8.533c18.851,0,34.133-15.282,34.133-34.133V72.533
			C452.267,53.682,436.985,38.4,418.133,38.4z"/>
	</g>
	<path style="fill:#14A085;" d="M409.6,81.067h-17.067c-4.713,0-8.533,3.821-8.533,8.533s3.82,8.533,8.533,8.533H409.6
		c4.713,0,8.533-3.821,8.533-8.533S414.313,81.067,409.6,81.067z"/>
	<path style="fill:#CC4B4C;" d="M358.4,81.067h-17.067c-4.713,0-8.533,3.821-8.533,8.533s3.82,8.533,8.533,8.533H358.4
		c4.713,0,8.533-3.821,8.533-8.533S363.113,81.067,358.4,81.067z"/>
	<g>
		<circle style="fill:#237E99;" cx="128" cy="89.6" r="17.067"/>
		<circle style="fill:#237E99;" cx="128" cy="294.4" r="17.067"/>
	</g>
	<path style="fill:#D1D4D1;" d="M418.133,243.2H93.867c-18.851,0-34.133-15.282-34.133-34.133v-34.133
		c0-18.851,15.282-34.133,34.133-34.133h324.267c18.851,0,34.133,15.282,34.133,34.133v34.133
		C452.267,227.918,436.985,243.2,418.133,243.2z"/>
	<path style="fill:#14A085;" d="M409.6,183.467h-17.067c-4.713,0-8.533,3.821-8.533,8.533c0,4.713,3.82,8.533,8.533,8.533H409.6
		c4.713,0,8.533-3.821,8.533-8.533C418.133,187.287,414.313,183.467,409.6,183.467z"/>
	<path style="fill:#CC4B4C;" d="M358.4,183.467h-17.067c-4.713,0-8.533,3.821-8.533,8.533c0,4.713,3.82,8.533,8.533,8.533H358.4
		c4.713,0,8.533-3.821,8.533-8.533C366.933,187.287,363.113,183.467,358.4,183.467z"/>
	<circle style="fill:#2FA8CC;" cx="128" cy="192" r="17.067"/>
	<g>
		<path style="fill:#3F5C6C;" d="M187.733,448H8.533C3.821,448,0,451.821,0,456.533s3.821,8.533,8.533,8.533h179.2
			c4.713,0,8.533-3.82,8.533-8.533S192.446,448,187.733,448z"/>
		<path style="fill:#3F5C6C;" d="M443.733,448H324.267c-4.713,0-8.533,3.82-8.533,8.533s3.821,8.533,8.533,8.533h119.467
			c4.713,0,8.533-3.82,8.533-8.533S448.446,448,443.733,448z"/>
		<path style="fill:#3F5C6C;" d="M503.467,448h-25.6c-4.713,0-8.533,3.82-8.533,8.533s3.821,8.533,8.533,8.533h25.6
			c4.713,0,8.533-3.82,8.533-8.533S508.18,448,503.467,448z"/>
	</g>
	<path style="fill:#2980BA;" d="M495.957,242.645c4.283,0.518,7.506,4.151,7.509,8.465v43.29c0,58.129-55.68,97.698-72.218,108.169
		c-2.796,1.78-6.369,1.78-9.165,0c-16.538-10.47-72.218-50.039-72.218-108.169v-43.29c0.003-4.314,3.226-7.947,7.509-8.465
		c24.195-2.479,46.54-14.073,62.498-32.427c1.645-2.073,4.146-3.282,6.793-3.282s5.148,1.209,6.793,3.282
		C449.418,228.573,471.762,240.166,495.957,242.645z"/>
	<g>
		<path style="fill:#3B97D3;" d="M466.833,279.834c-3.332-3.331-8.734-3.331-12.066,0l-51.2,51.2
			c-2.218,2.143-3.108,5.315-2.327,8.299s3.111,5.314,6.094,6.094c2.984,0.781,6.156-0.109,8.299-2.327l51.2-51.2
			C470.164,288.567,470.164,283.166,466.833,279.834z"/>
		<path style="fill:#3B97D3;" d="M407.1,300.433l34.133-34.133c3.234-3.348,3.188-8.671-0.104-11.962
			c-3.292-3.292-8.614-3.338-11.962-0.104l-34.133,34.133c-2.218,2.143-3.108,5.315-2.327,8.299
			c0.781,2.984,3.111,5.313,6.094,6.094S404.957,302.651,407.1,300.433z"/>
	</g>
	<path style="fill:#BDC3C7;" d="M247.467,379.733h17.067c4.713,0,8.533,3.82,8.533,8.533v51.2h-34.133v-51.2
		C238.933,383.554,242.754,379.733,247.467,379.733z"/>
	<path style="fill:#95A5A5;" d="M196.267,439.467h119.467c4.713,0,8.533,3.821,8.533,8.533v17.067c0,4.713-3.821,8.533-8.533,8.533
		H196.267c-4.713,0-8.533-3.821-8.533-8.533V448C187.733,443.287,191.554,439.467,196.267,439.467z"/>
</g>
<g>
</g>
<g>
</g>
<g>
</g>
<g>
</g>
<g>
</g>
<g>
</g>
<g>
</g>
<g>
</g>
<g>
</g>
<g>
</g>
<g>
</g>
<g>
</g>
<g>
</g>
<g>
</g>
<g>
</g>
</svg>
