<svg enable-background="new 0 0 110 110" height="512" viewBox="0 0 110 110" width="512" xmlns="http://www.w3.org/2000/svg"><path d="m55.1822052 72.2949524v-27.6709023h-2v27.6709023h-23.4765625v2h24.4765625 1 24.4238281v-2z" fill="#3a556a"/><path d="m67.7610931 29.3780079c0-.7995586-.6481934-1.4477501-1.44767-1.4477501h-14.419239c-.4750175 0-.9198418-.2329922-1.1902657-.6236153l-1.7197227-2.4838829c-.2704277-.3905411-.7152481-.6236153-1.1902657-.6236153h-10.7271881c-.7994804 0-1.44767.6481934-1.44767 1.447752v23.6557922 1.2513008c0 1.2784805 1.0364532 2.3150177 2.3150177 2.3150177 1.2785606 0 2.3150177-1.0365372 2.3150177-2.3150177v-1.2513008h27.5119858z" fill="#f7be56"/><path d="m64.6062164 30.130003h-25.6789474c-.684803 0-1.2399597.5551586-1.2399597 1.2399616v18.6392288c0 .6847992.5551567 1.2398758 1.2399597 1.2398758h25.6789474c.6847992 0 1.2399597-.5550766 1.2399597-1.2398758v-18.6392288c0-.684803-.5551605-1.2399616-1.2399597-1.2399616z" fill="#ebf0f3"/><path d="m68.9922943 33.7556839h-27.3142357c-.7947578 0-1.438961.6442032-1.438961 1.438961v15.3676453c0 1.2734337-1.0333633 2.3067169-2.3133087 2.3067169h30.3865738c1.1745529 0 2.1267014-.9522285 2.1267014-2.1267052v-15.5398445c-.0000001-.7989883-.6477814-1.4467735-1.4467698-1.4467735z" fill="#fcd462"/><path d="m93.5598297 66.9458466c0-.6417618-.5202713-1.1620331-1.161972-1.1620331h-11.5735779c-.3812714 0-.7383041-.1870117-.9553604-.5005417l-1.3803329-1.9936867c-.2170563-.3134689-.5740967-.5005417-.955368-.5005417h-8.6101608c-.6416931 0-1.1619644.5202675-1.1619644 1.1620331v18.987278 1.0043564c0 1.0261688.8319092 1.8581467 1.8581467 1.8581467 1.0262299 0 1.858139-.8319778 1.858139-1.8581467v-1.0043564h22.0824509v-15.9925079z" fill="#f7be56"/><path d="m91.0275726 67.5494385h-20.6111602c-.5496597 0-.9952545.4455948-.9952545.9952469v14.9607468c0 .5496521.4455948.9951859.9952545.9951859h20.6111603c.5496521 0 .9952469-.4455338.9952469-.9951859v-14.9607468c-.0000001-.5496521-.4455949-.9952469-.995247-.9952469z" fill="#ebf0f3"/><path d="m94.5480499 70.4595795h-21.9237213c-.6379089 0-1.1549835.5170746-1.1549835 1.1549835v12.3348083c0 1.0221176-.829422 1.8514862-1.8567734 1.8514862h24.3897324c.9427567 0 1.7069931-.7643051 1.7069931-1.7070007v-12.4730224c0-.6413117-.5199433-1.1612549-1.1612473-1.1612549z" fill="#fcd462"/><path d="m40.0894394 66.9458466c0-.6417618-.5202713-1.1620331-1.161972-1.1620331h-11.573576c-.3812695 0-.738306-.1870117-.9553642-.5005417l-1.380331-1.9936867c-.2170582-.3134689-.5740948-.5005417-.9553642-.5005417h-8.61016c-.6416998 0-1.1619701.5202675-1.1619701 1.1620331v18.987278 1.0043564c0 1.0261688.8319101 1.8581467 1.8581457 1.8581467s1.8581448-.8319778 1.8581448-1.8581467v-1.0043564h22.0824471v-15.9925079z" fill="#f7be56"/><path d="m37.5571823 67.5494385h-20.6111603c-.5496559 0-.9952536.4455948-.9952536.9952469v14.9607468c0 .5496521.4455976.9951859.9952536.9951859h20.6111603c.5496521 0 .9952507-.4455338.9952507-.9951859v-14.9607468c0-.5496521-.4455986-.9952469-.9952507-.9952469z" fill="#ebf0f3"/><path d="m41.0776558 70.4595795h-21.9237175c-.6379108 0-1.1549797.5170746-1.1549797 1.1549835v12.3348083c0 1.0221176-.8294277 1.8514862-1.8567734 1.8514862h24.3897285c.9427567 0 1.7069931-.7643051 1.7069931-1.7070007v-12.4730224c.0000001-.6413117-.5199432-1.1612549-1.161251-1.1612549z" fill="#fcd462"/></svg>