<svg enable-background="new 0 0 110 110" height="512" viewBox="0 0 110 110" width="512" xmlns="http://www.w3.org/2000/svg"><path d="m85.4660797 28.6237869h-60.9321632c-1.6156178 0-2.9252777 1.3095913-2.9252777 2.9252796v41.6214828c0 1.6155472 1.30966 2.9252777 2.9252777 2.9252777h60.9321632c1.6156235 0 2.9252777-1.3097305 2.9252777-2.9252777v-41.6214828c0-1.6156883-1.3096542-2.9252796-2.9252777-2.9252796z" fill="#2f4859"/><path d="m26.249596 33.716724h57.500809v37.286171h-57.500809z" fill="#27a2db"/><path d="m17.095583 75.8958282c0 3.0267029 2.4536114 5.4803848 5.4803848 5.4803848h64.8481369c3.0267029 0 5.4803162-2.4536819 5.4803162-5.4803848z" fill="#243944"/><path d="m54.9742508 40.2283173c-.3002281.165802-3.2660103 1.7509689-7.2979813 1.9695969.0150223 1.7349701-1.3488197 3.171608-3.0804443 3.2803307l.0004997 4.0075912c.0004044 3.2593918.9138374 6.4791336 2.7656364 9.1613846 1.5403442 2.2311211 3.9268761 4.4663506 7.6163254 5.8474159.0139084.0052109.0300179.0052185.0439262.0000076 3.6031303-1.3487511 5.9636116-3.5121269 7.5068169-5.690773 1.9183884-2.7083168 2.875145-5.9814682 2.875145-9.300415l-.0005035-4.0259972c-1.7312965-.1087112-3.0950928-1.5448494-3.0804138-3.2794914-4.032402-.2184525-6.9985886-1.8038368-7.2988396-1.9696503-.017498-.0096627-.0326691-.0096627-.0501671 0z" fill="#d15241"/><path d="m63.3700104 46.9783249v2.3599854c0 .8299561-.0700073 1.6500244-.2000122 2.4500732-.3399658 2.1499023-1.1399536 4.1398926-2.3599854 5.8598633-1.460022 2.0700684-3.4099731 3.6501465-5.8099976 4.710083-2.4000244-1.0599365-4.3499756-2.6400146-5.8099976-4.710083-1.2200317-1.7199707-2.0200195-3.7099609-2.3599854-5.8598633-.1300049-.8000488-.2000122-1.6201172-.2000122-2.4500732v-2.3599854c1.2199707-.6400146 2.1900024-1.6799316 2.75-2.9399414 2.4299927-.3701172 4.4099731-1.0800781 5.6199951-1.6101074 1.210022.5300293 3.1900024 1.2399902 5.6199951 1.6101074.5599977 1.2600097 1.5300295 2.2999267 2.7500002 2.9399414z" fill="#ebf0f3"/><g fill="#fcd462"><path d="m54.9993286 51.7895622v10.5709915c.0003662.0001221.0006714.0003052.0010376.0004883 2.4014664-1.0663567 4.3542747-2.6470871 5.8146248-4.7080956 1.2188148-1.7212181 2.0133781-3.7170944 2.3580666-5.8633842z"/><path d="m54.9993286 42.4302902c-1.2109261.5252037-3.1856499 1.2405739-5.6162148 1.60392-.5599899 1.2673569-1.535862 2.3084526-2.7552834 2.9444466l.0002441 2.3558731c0 .8360176.0709152 1.6551132.1993561 2.4550323h8.1718979v-9.359272z"/></g></svg>