<svg enable-background="new 0 0 110 110" height="512" viewBox="0 0 110 110" width="512" xmlns="http://www.w3.org/2000/svg"><path d="m66.279266 37.007938h31.087528v2.813957h-31.087528z" fill="#3a556a"/><path d="m36.910099 65.535919h4.091952v20.173847h-4.091952z" fill="#64798a"/><path d="m60.5326462 53.2692947c.0620613-1.5168915.1237907-3.0247879.2388649-4.5385857.0328102-.431324.2180023-.7587738.4759903-.9909821-.1343384-2.1361771-.4981155-4.3562508-.7424164-5.4691048-.5860481-2.6694908-2.0217094-5.2006149-3.5679474-7.4364395-1.9269829-2.7863007-6.6548882-4.7749195-7.5988541-8.1355038-.1786346-.0914001-.3517799-.191803-.5330849-.2787037-2.9796944-1.4283047-6.3203087-2.2270145-9.8529625-2.2270145-12.6099186 0-22.8314877 10.2216167-22.8314877 22.8391743 0 12.6098747 10.2215691 22.8314896 22.8314877 22.8314896 10.0295792 0 18.5386086-6.4508018 21.6104546-15.4359169.0492172-.1429634.08395-.2921104.1303558-.4362907-.110855-.2000541-.1718826-.4411659-.1604003-.7221222z" fill="#ebf0f3"/><path d="m53.9821815 53.6714973c-.0525894-.0877457-.1215858-.1266479-.2108803-.1659279-.1003532-.0441551-.2217522-.0841827-.3273087-.1131516-.0951996-.0261536-.143055-.0424652-.2329597.0209045-.0706367.0498734-.1326485.1263695-.2180977.154213-.0684319.0222168-.1406174.0060921-.1987381-.0345917-.0987625-.0692787-.0655746-.1169968-.1077156-.1952744-.0562935-.1045265-.1932068-.1499901-.2886429-.211956-.0640717-.0374985-.1235085-.0813713-.1783943-.1314316-.0845146-.0264359-.1708527-.0320625-.2589722-.0168724-.1448364.003746-.2898598.0019684-.4347458.0019684-.1601639 0-.3203735.0000916-.4805374 0-.1434288-.0000954-.2991409.0385284-.4400864-.0017815-.1567917-.0449982-.2621613-.1954613-.3806992-.2982979-.0519829-.0449982-.1081352-.0837173-.1679916-.1175575-.0872803-.0491219-.1943817-.0823097-.2663803-.1546783-.0891495-.0896225-.0823059-.2135544-.0739174-.3306427.0126572-.1756783.0089531-.3626976-.0410614-.532753-.0303726-.1033096-.0780869-.2726135-.1924095-.291172-.092762-.0150948-.2093811.0051537-.3027992.0051537-.0812302-.0000916-.1624603-.0002823-.2436905 0-.0809479.0002823-.178257.0207176-.2558327-.0075912-.2089577-.0763092-.2993736-.363266-.3967743-.5385666-.0490761-.0884018-.1050415-.2601433-.1944275-.3079567-.0525475-.0282173-.1404305-.0069351-.1994934-.0067482-.2107391.0005608-.4209633-.010498-.6292648.0179977-.1122589.0151901-.2272835.0246582-.3154526-.0641212-.0488396-.0491219-.0719948-.0929947-.128479-.1419296-.060463-.0525894-.1205559-.1008682-.1557579-.1756783-.0244675-.0519371-.0310745-.1129646-.0562439-.1648979-.0335159-.0690918-.097683-.1375237-.1453552-.1941452-.0929489-.110527-.1815376-.217865-.3266525-.2581749-.2625351-.0727463-.5357094.0239983-.7989922.0215607-.1463852-.0014076-.4312286.0455589-.557785-.0209045-.1099167-.0577469-.1147461-.22752-.2403641-.2542381-.1656952-.0351562-.3200951.0664635-.466053.1214943-.1746025.0659027-.3492508-.0118141-.5243645-.0132179-.1603546-.0011253-.3000793-.0183754-.4462776-.0973091-.121727-.0656204-.2101288-.1597404-.3546371-.1701469-.2033806-.0145302-.4140739.0030937-.6185799.0030937-.0711975 0-.1423988-.0001869-.2135963 0-.1286201.0001869-.2825012-.0310287-.4045143.0204353-.0600891.0253105-.1138039.0851212-.1765671.1083717-.0315475.0116234-.0605583-.0012207-.0942154.0155602-.0701675.034874-.0959473.1219635-.1733818.1481171-.093277.031498-.1830368.045372-.2679253.108181-.1326942.0984344-.1616135.2426147-.3365898.2812386-.0640755.0142479-.1234627.0109673-.1842117.0369339-.0629501.0268135-.1006813.0697479-.1732864.0809021-.081089.0124702-.1945229.0004692-.274395-.0038414-.070118-.0038452-.1598358-.0060005-.224987-.0271873-.1683655-.0549355-.2983932-.2225533-.459446-.3030777-.1216812-.0608406-.2281761-.1381798-.3470001-.2089577-.106163-.0630913-.2095184-.1651802-.3283424-.1894608-.055542-.0113449-.1173668-.0021553-.1737556-.0107803-.099556-.0149994-.1720695-.0663719-.2527847-.119339-.1468506-.0964622-.2844238-.2023964-.4449158-.275425-.1343842-.0611191-.2665176-.1127739-.3189659-.2628593-.0422821-.1209335-.0684814-.2488937-.1086998-.370575-.0288277-.0871849-.0918236-.1689301-.0985718-.261364-.0059547-.0818405-.0079689-.1826134.0077324-.2641754.0351067-.1828957.4486656-.424572.0699348-.4857864-.1094933-.0176239-.2239113-.0019684-.3345795-.003376-.1099625-.0014992-.2173004-.0082474-.3208885.0374069-.1508369.0664635-.2805328.188427-.4373703.2423286-.1245384.0427513-.2615929.0161247-.3900719.0181885-.0867615.0013123-.1645699.003376-.2458496-.0353432-.1708946-.0813713-.2118149-.1903954-.2279396-.3656044-.0203896-.2217102-.0067024-.364109.1239777-.5485039.0994186-.1402435.2116318-.1966782.3417473-.3060799.1341057-.1127777.2592545-.235302.3955116-.3460159.0961838-.0780869.1591339-.1098671.1610107-.2328606.0022469-.1466179.0155602-.256115-.095295-.3756371-.1070557-.1154022-.2436447-.0762177-.3902626-.0750923-.194519.0016899-.4696159-.0526848-.6310921.0761223-.0769653.0613098-.0818863.1050873-.1022758.1880531-.0224991.0912132-.0673561.1592712-.1155891.2401733-.0724182.121685-.0878372.2534904-.1741791.3692665-.1129608.1513977-.1523361.22686-.3411369.2462654-.1343842.0138779-.2702675.0063782-.4051208.0063782-.1444168 0-.3200951.0355263-.4595413-.0108757-.1375694-.0456543-.3433876-.1833649-.4419136-.2814255-.1145096-.1138039-.2508163-.2829208-.256115-.448288-.0081558-.2550812.0013618-.5119438.0013618-.7673988 0-.2234917-.0202484-.4565392.0073586-.6784363.0104065-.083622.0262947-.1678963.0270462-.2526436.0006561-.0749969-.012188-.1360245.0202484-.205864.0745277-.1604919.2631912-.262207.4086838-.3475151.1066322-.0624352.2101746-.1098709.3349991-.1189613.113102-.0082512.2250328.0040283.3382301-.0069389.1901169-.0184669.3387032-.1013374.5117569-.1734276.0418587-.017437.0821228-.0129356.1230888-.0253105.0546532-.0165939.0931358-.0588722.1436653-.080246.1196175-.0506248.3140907-.0131264.4357262-.0131264.2370834 0 .4893532-.2677345.6763725-.4151039.1147919-.0904655.2187538-.205864.3518257-.2716751.142025-.0701218.3015327-.0851212.4214821-.1977997.1089783-.1022797.1622238-.1505585.3139496-.1436195.1002159.0045013.1395874.0408745.1808853.1333046.0360451.0807152.0227776.1878662.0632744.26474.0341263.0648689.0921516.0796814.14048.1267433.1450233.1412735.0774803.4110718.1752548.5796242.0435944.0751839.1147919.1263695.1697731.1930237.0413895.0501518.0717163.1016197.1287117.1306801.081749.0418129.2116318.0316849.3022385.0309372.1126785-.00103.2254105-.0003738.3381386-.0003738.096508 0 .2178154.0189362.3127785-.0005646.1813507-.0374985.2065697-.2600479.2934723-.3950424.0809937-.1259003.1018066-.1942406.1060715-.3506088.0035172-.1297417-.0022011-.2602348-.000843-.3901672.0016403-.1544914-.0079231-.1972389-.1050415-.3101082-.0755119-.0879326-.213131-.2628632-.2302399-.3746071-.0159836-.1044312.1033554-.3149834.2196465-.3318596.1022758-.014904.1421165-.007122.2328644-.0841827.0774803-.0659027.1215858-.1503677.1688805-.2394257.0804329-.1513062.1885681-.285923.2819405-.4294472.0674477-.1036835.1271667-.2503929.2558784-.2914543.1976624-.0631828.3533249.026062.4857407-.1742706.0906525-.1371498.1910515-.2956734.2340355-.4558868.0426064-.158989-.0254059-.3209839.0523109-.4746323.0281219-.0555916.04673-.0249367.0631371-.1057434.0109673-.0540924-.0112495-.1253395-.008297-.1789589.005764-.1057472.0923386-.2514267.1895065-.304203.2320175-.1259956.5068817.0440598.722496-.1249657.0356216-.027935.0704956-.0517464.1067734-.0749931.0653877-.0419998.076683-.0494995.1043396-.121685.0337029-.0883064.0090446-.1930199.0075455-.2854538-.001358-.0835266-.0009842-.1670532-.0009384-.2505798.0001411-.1111832.0041733-.2233009.0014534-.3342972-.0028572-.1157761-.0852127-.2461739.0551224-.2952957.1227608-.0429382.2909851-.012001.4190903-.0118141.0967903.0000954.1737099-.0047798.2677345.0221252.167057.047718.2890663.0798721.4593086.07687.1474113-.0026245.3681831.0513725.5008316-.0162163.0488434-.0248413.152195-.1361198.1811638-.1652756.0510445-.0513687.0658112-.0718994.0815582-.1489601.0211411-.1035881.0513725-.2026749-.0052032-.2991409-.0994148-.1696777-.3152161-.3491058-.5177536-.3691673-.1857567-.0185623-.3780746.0200615-.565052.0033722-.1615677-.0144348-.2913589-.0572777-.4185715-.1631165-.2201157-.182991-.2011795-.4570999-.2216606-.7213707-.0097961-.1265564-.0227356-.2171135.090229-.3073883.1735229-.1386528.4254646-.1319008.6324043-.1297455.1211205.0013123.2956734-.0380592.4099045.0110626.051651.0222168.0852585.0791206.1300697.1083679.0320129.020813.0594368.0196877.0947304.0324364.1421165.0515594.1658363.1529922.1615715.289299-.0058136.1859894-.032814.4092903-.002861.593502.0403595.2479553.3785896.4572906.6130028.5128784.1051331.0248451.2613144.0255013.3630257-.0128403.1287613-.0484657.2788925-.2108345.3692627-.3178902.0809975-.0959969.0602341-.1319962.093605-.2370834.0363731-.1145554.0727463-.2095222.057045-.3362656-.0157013-.126461-.1540222-.2358627-.2548447-.3102036-.0433121-.0319672-.114933-.0738716-.1699638-.0895271-.1123047-.0317764-.2050667.0072212-.3128738-.0559654-.115448-.0676842-.171833-.1918945-.2924385-.2565804-.0830574-.044529-.198082-.0577469-.2005692-.1852417-.0025291-.1273041.158947-.3262329.2204437-.401886.0576057-.0709648.1233215-.1202736.1273079-.2205811.0030937-.0777168-.0564346-.2115822-.1121674-.2504883-.0927162-.064682-.1972885-.0653419-.3035011-.0860596-.1011505-.0198708-.1965828-.0437775-.300312-.0479012-.1538849-.0060959-.3112373.0019684-.4653511.0023422-.073967.0001869-.2219925.0266228-.2849426-.0200615-.0746651-.0554962-.0368881-.1732407-.0385742-.2596741-.0012207-.0633736-.0098915-.1241188-.0174828-.1866455-.0058594-.0482788.0016403-.1230888-.0219383-.167057-.0351524-.0654335-.1394463-.129837-.1954575-.1767082-.1916618-.1608658-.4275246-.2865791-.5983315-.4715385-.1152573-.1246815-.1895065-.247488-.3720741-.2454262-.129509.0013123-.2659073.0622463-.3396378.1738033-.0747643.1131496-.0689507.2807674-.2199287.2987652-.1145554.0136871-.2733154.0070343-.3899345.0004692-.2071304-.0118103-.162178-.2088623-.165226-.3614807-.0032806-.165741.0367966-.2740173.1512604-.3950424.04673-.0494041.0950089-.1033077.155571-.1360245.0979614-.0529671.1812553-.0383415.2883606-.0381546.169445.0002804.1352272-.1156826.1339607-.2493629-.0011711-.1213055.0021553-.2427063.0030479-.3638248.0013123-.1774597-.1067314-.3303585-.2472534-.440134-.1582909-.123745-.400528-.0749969-.5883484-.0727482-.0822144.0009384-.2045517.019125-.2812347-.0101242-.0974464-.0373096-.1800385-.1295547-.2624397-.1907711-.1087456-.0807152-.2075043-.1617107-.2675972-.2858295-.0535278-.1104317-.0914459-.2247086-.1533203-.3312969-.0233879-.0403099-.1016197-.129837-.1207886-.1889896-.0269051-.0832462-.0063286-.1339626-.0551224-.2228336-.1046677-.1907711-.3429222-.12393-.5244141-.1268368-.0266685-.2139263.272049-.2180519.399498-.2780476.1014328-.0478115.1822853-.1167145.2957649-.1355572.1160583-.0193119.2408791-.0176239.3582954-.0202484.2246132-.005249.4379768.0020618.6567802.0577469.1153984.0294361.1843948.1086502.2620163.1965847.1090736.1234627.1797104.3648567.3506546.4061985.0633736.0152798.1252937.0077801.1894608.0338421.0734482.02981.1250572.0698395.1802254.1269302.1723022.1783981.3446541.3819199.5383797.5385666.1521492.1230888.3191071-.0044994.469429.1290874.0750427.0666542.145401.1667728.2006149.2505817.0603714.0916824.0878868.2054901.1507416.2929535.0440636.0613098.0508118.0629044.1304016.0962772.1795235.0753708.3800888.1636791.5177536.3089848.0510445.0538101.1107597.1417427.145916.2068024.0432625.0800591.0241852.1209316.0531082.1909599.0642624.1556168.303875.2835789.4668045.307766.082119.0120926.1418839.0015926.2161751.0398407.0736847.0379677.1004944.100214.2011299.060091.0772934-.0307484.158432-.1117439.1828995-.1923656.0031395-.0346851.006279-.0693722.0094185-.1040573.0045013-.0599976.0219841-.1153069.0524063-.1659298.0302315-.0292473.0330429-.0596218.0084839-.0912132-.0092354-.0404053-.0327187-.0711536-.0704041-.0921516-.0678253-.0637474-.1302567-.1368694-.2214737-.1662102-.0664635-.0212803-.1444588-.0160313-.2055359-.0567169-.0749016-.0498714-.133213-.1651783-.1858978-.2362385.1348076-.1678028.3365479-.1711788.5140076-.2673607.1054611-.0570908.1711311-.1854286.1986923-.3005486.041153-.1721153.0083427-.4054489.0070763-.5858135-.0012169-.170805.0126572-.3379517.0264854-.5083809.0121384-.1496181.0540428-.2684879-.0543747-.3866062-.1338654-.1456795-.3874016-.3242645-.5809364-.3862305-.0533905.0005627-.0962791-.0183754-.1286201-.0571842-.0399361-.0351562-.0796356-.0706844-.1190109-.1064949-.1054153-.059248-.2277069-.0162182-.3381386-.050436-.0962296-.02981-.1601181-.0573711-.2626266-.0521221-.2543793.0131245-.468586-.153368-.6591225-.3061714-.2417259-.1938667-.4237785-.1891785-.7122803-.1893654-.2481422-.0000954-.4963341-.0001888-.7444763 0-.2278481.0001869-.4642296-.0172501-.6913261-.005064-.211441.0112495-.408493.1031208-.6175461.1094952-.1980858.0061874-.3978577-.0155621-.5962677-.0097485-.1976624.0058117-.3310165.0843697-.4981613.1739902-.1197128.0641212-.2153816.067215-.347702.0639343-.0704994-.0018749-.1402893-.0065613-.2102737-.0013123-.263752.0202484-.4410248.205677-.6427155.3507957-.0659523.0450916-.1319008.0902767-.1978493.1354618-.1309166.0599957-.2625351.118494-.3948097.1754913-.0560112.0374031-.1120262.0749016-.1679916.1124001-.0978699.1254311-.1750679.2626743-.2315979.4117298-.0851212.1640549-.1948509.3453579-.1765709.5377235.0061874.0464973.0149078.0925255.0262032.1380863-.0343094.0316868-.068573.0634651-.1028366.0951519-.0838089.064497-.4422455.1621799-.565567.1020889-.1461945-.0711536-.0894814-.4939442-.061451-.6218128.2211914-.0667477.4162292.0442467.5574112-.2009907.0459824-.0798702.0837135-.1562729.0383873-.2443943-.0571823-.1112747-.2318306-.2035217-.3351402-.2593937-.1376648-.0744324-.2900925-.0899944-.432354-.1526165-.0747604-.032999-.1266022-.0845585-.193676-.1145573-.1045265-.0466843-.3503723-.0059986-.4674606.0309353-.1126823.0354366-.2709732.1751175-.3412819.270174-.068058.092247-.1602097.1975231-.2068939.2987671-.0327644.0709648-.0224991.2050209-.0685272.265955-.0684357.0523109-.1456833.0755596-.2317848.0699348-.1341057.0084362-.2644119.0369358-.3909683.085495-.0503845.0196877-.1007729.0393734-.1511154.0591545-.0563431-.0013123-.0973549-.0252171-.1231804-.0717163-.0344048-.0504341-.0813713-.0864334-.1408997-.1079941-.0852165-.0046864-.1703835-.0093746-.2555504-.014061-.1752586.0073109-.3505592.0110607-.5259132.0110607-.1310539.0162182-.2566719-.0054359-.3768997-.0650597-.1431503-.0984325-.2465992-.258173-.3616238-.3843555-.1100578-.1205559-.2300987-.2600498-.3105316-.4021664-.0921993-.1631184-.07481-.3474216-.0742474-.5320053.0001888-.0561543-.0059052-.1135254-.0051079-.1690235.0013123-.0946827.0385284-.1267433.109354-.1914272.2165985-.1981773.470789-.182991.7432575-.1822414.2851753.0009384.5709114.0051556.8559914-.0009365.1311951-.0028133.2527351-.0020638.3792.040123.1528969.0508099.291172.0907459.4520874.0986195.1490059.0071239.2996559-.0074997.4491806-.0026245.1257591.0039368.2168312-.0380611.3382301-.0779018.2240982-.0734024.4577599-.0518417.6871567-.1053696.2196922-.0512791.3962593-.2080212.6125298-.2562065.1074333-.0240002.2057724-.0560608.3114243-.0926208.2585945-.0896206.5146141-.0686207.7891006-.0667458.0937424.0007496.187912.0191231.2765007-.0187492.0607452-.0258751.1670074-.0854969.2141609-.1198082.0581207-.0421848.0748558-.1008682.121212-.1480236.0815582-.0829639.2857819-.0448093.3971062-.0439663.0579338.0003757.1215897.0118122.1787262.0062809.1387901-.0134048.2112083-.1693974.3034058-.2583618.129509-.1249619.1040115-.2811413.1036835-.4503517-.0002365-.1629295.0345917-.4441662-.1228523-.5505676-.0246086-.0164986-.0563431-.0142479-.0828743-.0224991-.0527763-.0162163-.0915871-.0363731-.1369133-.0666523-.1044807-.0698395-.1839294-.0492153-.3137207-.0481853-.278656.0022507-.5578308.0030937-.836441-.00103-.3337784-.0048752-.659687.1149311-.9782791.2021141-.4161835.1139011-.8845329.0634651-1.3135605.0634651-.3560905 0-.7123222.0034695-1.068367-.0006561-.176384-.0020618-.3237038.0099373-.493618.0466862-.2275658.0493088-.425087.1565533-.6325912.2613621-.1822433.0919628-.3445168.203146-.5413322.2680168-.0860138.0284042-.1632595.0098438-.2497387.0285931-.108511.0234356-.1763344.115118-.2829704.1400547-.1052761.0244675-.1720695.0076866-.2765026.0726528-.1211643.0754662-.2282696.1864605-.3433418.2717686-.0623875.0462151-.1204166.0821209-.1700535.1416492-.0521698.0625267-.0749493.1391182-.1233692.2045517-.0666523.0899963-.1508827.1742725-.2325363.2509556-.1096344.1029339-.2724228.1837406-.410181.2486134-.0881691.0416222-.183836.0692768-.2730331.1094952-.1331196.0601845-.2518482.1608658-.3941536.19977-.0510445.0139694-.1095886.0045013-.1615696.0115318-.0726051.0099373-.1358376.0344982-.2053967.0599022-.130352.0475292-.2614555.0165939-.3921356.0449047-.0741539.0161247-.1312447.0651531-.2053967.0814648-.0494976.0109673-.0801525.008812-.1298847.0094681-.1297894.0014992-.2990475.0076866-.4203529.0496845-.1623669.0562477-.2972202.1783047-.4439793.2628632-.1036816.0598087-.2125206.10462-.3083744.1769905-.1456337.1096821-.2688618.2435513-.4186192.3478889-.1108551.0771523-.254097.1518669-.3323269.2625809-.0265312.0374985-.0414829.0719967-.0741997.1049938-.044014.0444355-.1022778.059248-.1431026.107996-.0804329.0958061-.0741062.2244263-.073122.3457317.0007496.0967464-.0214672.1998653.0742931.2331448.0421867.014719.1450253-.004406.1885223-.0047798.0853081-.0007515.1706161.0013123.2558784-.0000954.0796833-.0014057.1775055-.0229664.2523155.0137806.1958332.0962772.0614967.2803001-.0695133.3429203-.1541176.0735912-.3040161.1485863-.4575233.2242393-.1750221.0860577-.3697796.1244946-.5380516.2239571-.0826359.0488415-.1232758.0808086-.2155209.0967464-.0944481.0163116-.1650391.0295296-.2161293.1127758-.1872559.3052349.1707573.5472851.4364777.5791588.1858978.0222168.3689823.0322475.5572224.0316849.4078865-.0009365.6860294-.2978287.9910755-.523098.1357899-.100214.2916431-.1100578.4535866-.1091194.1421661.000843.3703423-.0516548.4628677.0828705.0943089.1370544.0734024.4427586-.0038433.5814075-.0513248.0920582-.135603.1503677-.193161.2366142-.0539036.0806198-.0533886.1361179-.052639.2279892.0012665.1451168-.0534344.2579861-.1480236.3699169-.0813236.0961838-.2119122.1805534-.2506752.3031731-.036232.1146507-.004406.3054237-.0029068.4291649.001688.1394958.0772934.2581749.0967922.3953247.0162659.1144638.0043602.2329597.0044537.348732.0000935.1324654.0103588.2695198-.0003757.4014206-.0114365.1403351-.093277.2625809-.102417.4000092-.0076866.1166191.0037041.2259254-.0439186.3372955-.0516071.1206512-.1190109.2322083-.1781158.3489227-.0792618.1563644-.1161976.318264-.2163181.4667549-.0798244.1184006-.1793823.2241478-.2856884.3180809-.0998859.0884933-.2218952.1323662-.3190155.2202988-.1352272.1223373-.2533932.2842369-.3752632.4199791-.1606331.1788673-.0996037.4467926-.1011982.6730003-.000843.1240234-.0071239.2388611.0306091.3589516.0144367.0459328.0302792.0843697.0530128.1265526.0601845.1116524.0617313.1548691.0818386.3039246.030468.2257385.0113907.4990044.1084633.7128372.055872.1229973.15979.2330513.2487545.3337364.1520538.1722107.3265152.3191071.3085155.5680008-.0105934.1463394-.0569973.2637062-.1095886.3973885-.0229683.0583076-.040451.0786514-.083292.1171799-.1149788.1034966-.1124954.1361198-.1100578.3003616.0029068.1993027-.0037022.3986053-.0018272.597908.0010777.116993.0115299.2084885.0654812.3117943.0292015.0558739.0449028.0803413.0588703.1446495.0259686.1196213.0951519.1213074.1772728.2044601.0588722.0596199.0939808.1243057.1391659.1940536.0661831.1022758.1942406.1794281.2416744.2909851.0375462.0883064.0050621.1563683.0527802.2377357.0563869.0961838.1323204.189743.211441.2674561.0641232.0629997.1310101.1062164.1781178.1810226.0036545.0176239.0073109.0353432.0110149.0529671.0588722.0956192.1390228.1693993.2403622.2214279.1141815.0533409.1747875.0336533.2882195.0304642.0704498-.0019684.1134319-.0219345.1553364.0446243.0210934.0333748.0524979.1299324.0636063.1713676.016077.0599022.000843.1119308.0417175.167614.0450439.0410614.0949173.0749969.1497116.1016197.0361843.0370293.0627613.0796852.0798225.1278687.0653419.0901833.0464993.0889664.1753044.0853081.1064014-.0030937.2976418-.0174332.3912926.0506248.1063538.0772438.0475292.2169266.0705433.3247337.0325298.1523361.003891.2677345-.0089512.4206352-.0146713.1738052-.0010319.3582954.0276546.5257225.0183735.107151-.0042191.2149582.0129356.3222046.0136414.085495.0382481.1708031.0672626.2527351.0415287.1173706.1618519.2062416.2382545.3043938.0907917.1167107.1277752.086525.2516117.1349907.0814171.0319672.1154938.0983391.1839752.1414642.0819798.0515594.1628819.0446205.2459888.1052742.1057911.0771523.1899738.1834602.2962818.2625809.0921974.0686226.2096615.1719284.3177967.2189903.067543.0293427.1407585.0423737.2079735.0753708.1052284.0514641.2232075.0695572.3222504.1357422.0753231.0502472.1279621.1192436.1940517.1816788.1030731.0972137.2162704.1625557.3338757.2394257.067215.0438728.1463814.0875587.2081146.1405258.0566673.0659027.118679.1262741.1860847.1810226.0793533.0303726.1601639.0563393.2424698.077713.0832939.0272789.1736641.0709648.2642212.0785599.0764961.006279.15979-.0051575.2369423-.0049706.1439476.0004692.2978287.0141563.440979-.0072174.1774597-.0264359.3113289-.0209045.4848022.0307465.0738258.0220337.1896935.0413437.2361908.110714.0487976.0727463.0431252.2097092.0721855.2900505.0678253.1876755.2646446.3152657.3789177.4751015.0654335.0914955.0807152.1295547.1981773.1306801.0457954.0004692.092247-.0034676.1381798-.0036583.150322-.0006561.3305016.03722.4631042-.0387154.0527306-.0300903.0851212-.0926208.1490555-.1022758.133213-.0202484.1619911.1184006.2425194.1834602.0800095.0645905.1270256.0663719.2339401.0576515.1116982-.0090904.1760521.028595.2597198.1059341.0839958.0775261.0942612.1193352.1261826.2277069.0345459.1172752.084465.1419296.1937714.162178.1987419.0367508.4902878-.1014328.5278816.1854286.0251236.1918983.1453972.3787308.3541679.4123878.0694656.0111542.1478386-.0011253.2178192-.0032806.1147423-.0035629.1980362.0456505.3048134.0834312.0961342.0339355.2071304.0511856.2939377.1065903.0963707.0614014.1658363.1419296.2694702.1973343.114418.0611191.2097092.105835.3420753.1164284.1745071.0140648.358532-.0058098.534256-.0056229.0771523.0000916.1544456.0011253.2316437.0003738.1797562-.0016861.2330513.0014076.3964958.0989952-.2906075.7490273-.6493721 1.395401-1.0763817 2.0715866-.0457497-.0644989-.1073875-.0928078-.1849136-.0852165-.0476227.0344048-.0939789.0704041-.1391182.1079941-.0664635.0495911-.130867.1075287-.2031937.1489639-.1105728.0633698-.1771317.0772438-.2349701.1921768-.0533447.1059303-.0519829.2084885-.050251.3237038.0034714.2290192.0039864.4583206.0046883.6873398.0097961.1098671-.0042191.2161751-.0421371.3190155-.0403099.0599022-.0691376.1249619-.0864334.1949883-.0256882.0824966-.0667458.1405258-.120182.2078362-.1014786.1277733-.1858025.2061462-.1877251.377697-.0009384.0851212.0029526.1704292.0029068.2555504-.0001411.1588058-.0445747.383606.0404968.5255356.0785599.1310577.2248497.2378349.3327484.3453598.0694199.0691833.1505089.1200867.225647.1823349.0843697.0698395.1726799.1218681.2578926.1903954.1236954.099369.2185669.2208633.3359375.3244553.0928535.0818367.207737.1217728.2946892.2120514.0632782.0868073.1333961.1677094.2104568.2425194.0674019.0286827.1258049.069088.175209.1213036.0510445.0298119.0676384.0761223.049778.138649-.0173416.0680618.0007973.1270256.0544205.176712.1169014.1741791.2461739.3341064.3498116.5183182.0818863.1453972.1555214.2678299.2824059.3775101.1029816.0889664.191288.1949921.2831573.2949257.0857315.0931816.1899757.2436447.3137207.2878914.0352478-.0030937.0699806.0005608.1041031.0109673.0657616.0302811.1299324.0635605.1925545.0998383.1258507.0700302.2289734.1607742.3247795.2690506.0975876.1103363.1127777.1920853.1139488.3325157.0012665.1533661-.0022049.3070145-.0017815.4604759.0003281.1291809.0116692.2497368-.0231094.3741379-.0386696.1384621-.1212578.2764549-.1978951.3968239-.0485153.0834312-.0953865.1678047-.1406174.2531128-.0396538.0561523-.0853081.1064949-.1370087.1511154-.2030067.2236786-.3475151.4901009-.5276451.7327156.0000916.0866203.0106392.0455589.0036545.1315231-.0101242.1240273-.0732613.2350197-.1103859.3544502-.0382462.1229019-.1198044.2465515-.1286659.3769531-.0083885.1236496-.0008888.1813965-.0696526.2830162-.1199455.1771774-.0879784.4164162-.2000504.6028786-.0629501.1047134-.1223373.1908646-.1726799.3061676-.0986671.2262115-.2116776.466011-.2435036.713028-.0114861.0893402.0114822.1835556-.0023918.2707367-.0110626.0695572-.0660896.1165237-.0730743.1913376-.0049667.053154.0146255.1069641.0090942.1597366-.0113449.1074371-.1041985.1831818-.1468506.278801-.0312653.1064987-.0665627.211586-.1058388.315361-.04842.0886841-.0936546.178772-.1356964.2704544-.0063286.0314026-.0126572.0627136-.0190315.0940247-.0387154.1171799-.0916367.2274246-.1588974.3311081-.0817451.1968689-.0300484.4321671-.0340767.642067-.0016899.0863342-.0280304.1620789-.0360947.2456131-.0087624.0909271.0016899.1880493.0032349.2790756.0100327.0472488.0076408.0931854-.0071716.1375275-.0024834.0321503-.017765.057373-.0458412.0757446-.0488396.1260834-.0149498.2907944-.0146217.4230728.0004196.1478348-.0240479.32267.0037956.4694748.0209999.1110916.0664635.1629333.1659775.209053.1079941.0500565.2339401.130867.3485451.1492462.1121635.0181808.2937508-.0144424.4041824-.0418167.0734024-.0181808.1308212-.0504303.2075043-.0517426.0907936-.0014114.1686935.010498.2506752-.0356293.1163864-.0656204.2239113-.1353683.3281097-.2187958.1294594-.1036835.162178-.1888046.2221756-.3444214.0344963-.0896225.0816536-.1769943.1290398-.2600479.0511856-.0896225.1135712-.1571198.1261826-.2622986.0209503-.1751175.0515594-.2863922.1976624-.400856l-.66222.4304733c.004734-.108551.1940536-.1800842.2619247-.2510452.0713425-.0745316.1226654-.1639633.1908188-.2397995.0686226-.0762177.1693039-.0772476.2373657-.1441803.0616379-.0605621.0756035-.163681.0730743-.2443008-.0027657-.0878448-.0097961-.1239319.0373573-.1961212.041996-.0205307.070919-.052681.0868073-.0966492.0166855-.0494003.0355759-.0979614.0567169-.1457748.0364189-.129364.0584488-.1503677.2012215-.1745529.0701714-.0119019.1581039-.0145264.2000999-.0860596.0512314-.0873718-.0232964-.1411819.1174164-.146431.1031685-.003746.1685066.0331879.2592545-.0305557.1991615-.1398697.1045265-.4250412.3543091-.5172882.0963249-.0356216.2175369-.0117188.3183594-.0118103.0744324-.0001907.1922722.0247498.2630501 0 .0599976-.0234375.0977287-.0671234.1132927-.1312485.0300446-.0614929.0773849-.1050873.1420212-.1307755.2047424-.1495209.3250618-.3518219.4194183-.5800018.1935349.016037.2175827.2667999.4403687.2547989.1714592-.0091858.1916161-.1303024.2297211-.269516.0224533-.0818405.0315933-.3340149.0998383-.4065704.1593208-.1693039.4189034.2831116.5591927-.005722.0484657-.0997391.0069389-.2665176.0060005-.3763885-.0013123-.1537399-.0185165-.3012924.0486069-.4434128.0637474.0180969.055027-.0210953.093277-.0592499.1545868-.1541138.0961342-.1863632.3708572-.0564346.1036339.0698471.2073174.1396866.3109512.2094269.0693245.044342.1386948.0886841.2080688.1330261.1240234.0315933.1656456-.0563354.2180977-.1454926.0472488-.0803375.1040115-.1528931.154213-.2305145.0287781-.0444412.033371-.0971222.0584488-.1411819.0317307-.055687.068573-.055687.1185417-.0834351.11343-.062809.1418343-.1831779.1729584-.3018608.0329056-.1255226.0544662-.1738014.1416969-.263237.0900879-.0923386.1495247-.205864.2472076-.2939835.0988541-.0891533.255455-.0995598.3820572-.1378059.1671486-.0504341.1918983-.2277069.2208176-.3881989.0166855-.0923386.0117645-.1913338.0510902-.2783318.0248451-.0549355.0570908-.0971184.076683-.1546783.0469666-.1383705.1125412-.2138329.2672234-.2239571.1046677-.0068436.1787262-.0587807.263237-.1288071.0569954-.0471535.1039162-.0997467.146759-.1615219.0684814-.0986214.1013832-.2315521.1813965-.318737.0727921-.0792122.1807861-.1192436.2570038-.198925.0798683-.0834351.1708488-.1370583.2564392-.2130852.0778084-.069088.14151-.1534615.2170677-.2246132.1360245-.1280556.2832031-.1500854.4657745-.1435242.2400818.008625.3773232-.0884972.5740013-.2141151.1195717-.0764008.2196922-.1143684.3381844-.1771774.0913582-.0484657.1045761-.1040573.1537895-.1862717.0435944-.0728416.1111374-.147274.14254-.2261162.03825-.09618.0552177-.2220802.0760269-.3208885.0170174-.0804329.0017815-.143055.0057678-.2227402.0082016-.1638641.0891495-.2101746.1612892-.3530426.0425606-.0843735.0543251-.1258087.0488853-.2219887-.004406-.077343-.0247002-.1875839-.0064201-.2653008.0254517-.1083679.1409454-.2244263.208725-.3098297.0476685-.0600891.0798225-.1012421.1118851-.1706161.0362778-.0784645.0951042-.1252441.1397285-.1996765.0538559-.0898094.0606041-.1682739.0678215-.2668915.004734-.064312-.0073586-.1318092.0045471-.1949921.0185165-.0978699.0984344-.1681786.1665382-.2351112.0788422-.077343.1984596-.1588058.2678299-.2505836.0523567-.0692787.0297203-.1105232.0274696-.1874886-.0055313-.1892738.0009384-.2794571.1257591-.4414482.068573-.0890579.1338196-.1390228.2240982-.2088661.1004486-.0778084.1603966-.1530838.2377396-.250206.0977745-.1227112.2075043-.2301445.301857-.3562317.0203896-.0272789.0713425-.0756531.0907478-.1096802.0544662-.0953407.0460281-.2202072.0478096-.3254852.0041237-.2440186-.0017357-.4886932-.0011711-.7328072.0002779-.1323701.0286859-.2768289-.0426108-.395981z" fill="#27a2db"/><path d="m48.805191 26.4200115c.0230598.1305866.0460739.2610798.061451.3533249.0460739.2303333.0537605.4223232.0460739.6603432-.0076866.3379517-.1305389.9292965.1151657 1.2057514.3148918.3532333.8601151.0461235 1.1443024.4070435.1228561.1535549.2150078.5452213.314846.7448997.1305389.2687683.2611275.4147301.4684448.60672.1689758.1535549.1843033.2304249.3148918.4453831.1766129.2841434.2841415.2303333.5682831.3379517.4377441.1612434.6450615.3532333.6911354.8139915.0384369.4070415.2227402.967638.6834984 1.0367298.4070435.0614967.8524284-.0767784 1.2594681.0076866.1382294.0307503.314846.0845604.4069977.1919899.1535988.1919899.0153732.2765503.0307465.4991951.0153732.238018.230381.3686066.3225327.5682831.1228981.2841415.0614471.5605965.1843033.8524284.2073631.4531631.4838181.8985481.8601112 1.2134399.3839836.3301697.7372627.7295265.9830132 1.1825943.2073669.3916702.0383911.9907036-.0383873 1.3900566-.0384369.1689301-.0691376.3455467-.145916.5068817-.1305847.2610817-.60672.4990997-.60672.7986183 0 .2687645.3609695.7296181.4838219.8754845.2765007.3224869.7295723.5144768.8678017.9445801.0614471.2073631.0230598.399353.0537605.60672.0767784.4838181.4915085.8063965.837101 1.1135063.1459122.1305885.3762932.2611732.4761314.4377899.145916.2533951.0614014.60672.0537643.8830833 0 .3225746-.0921516.7679596-.0307503 1.0752563.0921516.4300117.5298958.4300117.6758118.8753967.084465.2765465.0153732.8448296 0 1.1673164-.0307045.7064629-.1151657 1.3823662-.1151657 2.0888329 0 .7372131-.076828 1.5282364.0767746 2.2501678.1228561.5836601.2764549 1.3131866.6451111 1.7816315.0230141.0307465.0460739.0614967.069088.0845566.7986641-2.3192596 1.2287216-4.8074455 1.2287216-7.3955688-.0000001-9.0926398-5.3065949-16.9335002-12.9862138-20.6120662z" fill="#27a2db"/><path d="m79.8262024 45.264801v36.4945069h-68.7687988v4.0477295h72.5543823v-1.0585938-2.9891357-36.4945069z" fill="#3a556a"/><path d="m97.6714783 38.7661133h-31.6969605c-.7019653 0-1.2710571.5690918-1.2710571 1.2709961v8.9780273c0 .7019043.5690918 1.2709961 1.2710571 1.2709961h31.6969604c.7020264 0 1.2711182-.5690918 1.2711182-1.2709961v-8.9780273c0-.7019043-.5690918-1.2709961-1.2711181-1.2709961z" fill="#64798a"/><g fill="#ebf0f3"><path d="m68.302666 43.064694h17.185074v2.922854h-17.185074z"/><circle cx="89.115" cy="44.526" r="1.461"/><circle cx="93.196" cy="44.526" r="1.461"/></g><path d="m97.6714783 26.4200115h-31.6969605c-.7019653 0-1.2710571.5690918-1.2710571 1.2709961v8.9780254c0 .7019043.5690918 1.2709961 1.2710571 1.2709961h31.6969604c.7020264 0 1.2711182-.5690918 1.2711182-1.2709961v-8.9780254c0-.7019043-.5690918-1.2709961-1.2711181-1.2709961z" fill="#64798a"/><g fill="#ebf0f3"><path d="m68.302666 30.718594h17.185074v2.922854h-17.185074z"/><circle cx="89.115" cy="32.18" r="1.461"/><circle cx="93.196" cy="32.18" r="1.461"/></g></svg>