<svg enable-background="new 0 0 110 110" height="512" viewBox="0 0 110 110" width="512" xmlns="http://www.w3.org/2000/svg"><path d="m57.0879517 84.9681396v-16.7213974l-4.1759034.1335373v16.5878601h-25.7198085v4.1759568h55.6155223v-4.1759568z" fill="#ebf0f3"/><path d="m78.7764893 25.7766533h-23.0513306c-1.3069496 0-2.5327988-.6336536-3.2886772-1.69977l-1.0784187-1.5212059c-.7558784-1.0661182-1.9817276-1.69977-3.2886772-1.69977h-16.8458749c-2.2264042 0-4.031271 1.8047562-4.031271 4.0312157v.8895302 1.3039837 31.4306965c0 2.2263527 1.8048668 4.0312157 4.031271 4.0312157h47.5529785c2.2264023 0 4.0312729-1.804863 4.0312729-4.0312157v-28.7034664c0-2.2264576-1.8048706-4.0312138-4.0312728-4.0312138z" fill="#f7be56"/><path d="m77.6245499 30.8759613h-45.2490998c-1.0517311 0-1.9043064.8526306-1.9043064 1.9043617v34.4033775c0 1.0518417.8525753 1.9043579 1.9043064 1.9043579h45.2490997c1.0517273 0 1.9043045-.8525162 1.9043045-1.9043579v-34.4033775c.0000001-1.0517311-.8525771-1.9043617-1.9043044-1.9043617z" fill="#ebf0f3"/><path d="m78.552681 36.9333267h-47.1053601c-2.3500061 0-4.2550812 1.9051323-4.2550812 4.2550278v27.7954865c0 2.6561813 2.1532097 4.8093872 4.8093357 4.8093872h45.9967995c2.6561737 0 4.8093872-2.1533203 4.8093872-4.8093872v-27.7954865c0-2.3498955-1.905075-4.2550278-4.2550811-4.2550278z" fill="#fcd462"/></svg>