<svg enable-background="new 0 0 110 110" height="512" viewBox="0 0 110 110" width="512" xmlns="http://www.w3.org/2000/svg"><path d="m21.1660461 32.6975708v40.8053589c0 3.9121704 3.1714478 7.0836792 7.0836182 7.0836792h53.5006714c3.9122314 0 7.0836182-3.1715088 7.0836182-7.0836792v-40.8053589z" fill="#ebf0f3"/><path d="m88.8339539 33.4393921v-6.4688721c0-3.9121704-3.1713867-7.0836182-7.0836182-7.0836182h-53.5006714c-3.9121704 0-7.0836182 3.1714478-7.0836182 7.0836182v6.4688721z" fill="#64798a"/><g fill="#ebf0f3"><path d="m80.6153717 24.5795727c-1.1506882 0-2.0835037.9328175-2.0835037 2.0835743 0 1.1506882.9328156 2.0835724 2.0835037 2.0835724 1.1508255 0 2.0836411-.9328842 2.0836411-2.0835724 0-1.1507569-.9328156-2.0835743-2.0836411-2.0835743z"/><path d="m72.7713547 24.5795727c-1.1506882 0-2.0835037.9328175-2.0835037 2.0835743 0 1.1506882.9328156 2.0835724 2.0835037 2.0835724 1.1508255 0 2.0836411-.9328842 2.0836411-2.0835724-.0000001-1.1507569-.9328156-2.0835743-2.0836411-2.0835743z"/><path d="m64.9273376 24.5795727c-1.1506882 0-2.0835037.9328175-2.0835037 2.0835743 0 1.1506882.9328156 2.0835724 2.0835037 2.0835724 1.1508255 0 2.0836411-.9328842 2.0836411-2.0835724 0-1.1507569-.9328156-2.0835743-2.0836411-2.0835743z"/></g><path d="m30.810532 41.956326h46.450085v4.721601h-46.450085z" fill="#d5d6db"/><path d="m30.810532 41.956326h9.406415v4.721601h-9.406415z" fill="#44c4a1"/><g fill="#d5d6db"><path d="m37.3325157 61.6416512-6.5219841 6.5095253v-13.0315857z"/><path d="m37.7930336 62.1021652 6.5219841 6.5219879h-13.0315094z"/><path d="m37.7930336 61.181057-6.5095253-6.5219841h13.0315094z"/><path d="m44.7756882 55.1195908v13.0315857l-6.5096779-6.5095253z"/><path d="m54.2106056 61.6416512-6.5219841 6.5095253v-13.0315857z"/><path d="m54.6711235 62.1021652 6.5219841 6.5219879h-13.0315094z"/><path d="m54.6711235 61.181057-6.5095253-6.5219841h13.0315094z"/><path d="m61.6537743 55.1195908v13.0315857l-6.5096779-6.5095253z"/><path d="m71.0886993 61.6416512-6.5219879 6.5095253v-13.0315857z"/><path d="m71.5492096 62.1021652 6.5219879 6.5219879h-13.0315094z"/><path d="m71.5492096 61.181057-6.5095215-6.5219841h13.0315094z"/><path d="m78.531868 55.1195908v13.0315857l-6.5096817-6.5095253z"/></g><path d="m64.9727325 74.4448395v-5.8009338c0-2.5298615 2.058136-4.5879974 4.5880051-4.5879974 2.5298615 0 4.5879974 2.058136 4.5879974 4.5879974v5.8009338h2.683609v-5.8009338c0-4.0096893-3.2619171-7.2716103-7.2716064-7.2716103-4.009697 0-7.2716141 3.2619209-7.2716141 7.2716103v5.8009338z" fill="#3a556a"/><path d="m77.6161575 73.0942917h-16.2876014c-.9575195 0-1.7337646.7761841-1.7337646 1.7337646v5.0692139c0 5.2610474 3.9702148 9.8547363 9.2203407 10.194519 5.7529297.3723145 10.53479-4.1834717 10.53479-9.8562622v-5.4074707c0-.9575805-.7762451-1.7337646-1.7337647-1.7337646z" fill="#fcd462"/><path d="m71.1969681 79.2305832c0-.9524536-.7720947-1.7246094-1.7246094-1.7246094s-1.7246094.7721558-1.7246094 1.7246094c0 .6951904.4134521 1.2905273 1.0059814 1.5634766v2.447998h1.4372559v-2.447998c.5925293-.2729493 1.0059815-.8682862 1.0059815-1.5634766z" fill="#3a556a"/></svg>