<svg enable-background="new 0 0 110 110" height="512" viewBox="0 0 110 110" width="512" xmlns="http://www.w3.org/2000/svg"><path d="m44.2207489 21.3968544h-25.9152241c-1.2017422 0-2.1758938.9741497-2.1758938 2.1758423v50.4107246c0 1.2016907.9741516 2.1758347 2.1758938 2.1758347h25.9152241c1.2017441 0 2.1758919-.974144 2.1758919-2.1758347v-50.4107246c0-1.2016926-.9741478-2.1758423-2.1758919-2.1758423z" fill="#3a556a"/><g fill="#2f4859"><path d="m19.206341 26.00008h24.113592v8.208882h-24.113592z"/><path d="m19.206341 35.919148h24.113592v8.208882h-24.113592z"/><path d="m19.2063389 46.4603462v26.698658h1.4181175v-25.2805405h21.2773609v25.2805405h1.4181175v-26.698658z"/><path d="m22.217259 50.0364h18.091755v4.994078h-18.091755z"/><path d="m22.217259 56.726582h18.091755v4.994078h-18.091755z"/><path d="m31.2631378 64.7009354c-.7820625 0-1.416069.6340027-1.416069 1.4160995 0 .7820282.6340065 1.4160385 1.416069 1.4160385.7820587 0 1.416069-.6340103 1.416069-1.4160385 0-.7820969-.6340103-1.4160995-1.416069-1.4160995z"/></g><path d="m77.3758163 46.4601288c.0305786-.267807.0500641-.5388985.0500641-.8148956 0-3.9305611-3.1863556-7.1169434-7.1169434-7.1169434-.466568 0-.9216003.0480156-1.3631058.1337471-1.0330734-4.3437767-4.9285202-7.5784225-9.5884018-7.5784225-2.9722061 0-5.6307907 1.3203583-7.4395561 3.3994751-.9022141-.4137764-1.9023476-.6506271-2.9598618-.6506271-3.9305916 0-7.1169739 3.1863823-7.1169739 7.1169434 0 .2281647.0131493.4532318.0341492.6759377-4.4028664.9689293-7.6996117 4.887764-7.6996117 9.5817299 0 5.4216423 4.3951111 9.8168488 9.8168488 9.8168488 1.9959526 0 3.8502235-.5993881 5.3998642-1.6226616 1.304512 1.4900894 3.2156639 2.4358177 5.351696 2.4358177 2.2525368 0 4.2570839-1.0493889 5.561161-2.6827774 1.2657051 1.1575165 2.9456253 1.8696213 4.7959518 1.8696213 2.1016006 0 3.9845276-.9163895 5.2873383-2.364975 1.2165375.9709167 2.7555771 1.5549164 4.4331055 1.5549164 3.9305878 0 7.1169434-3.1863823 7.1169434-7.1170044.0000001-3.0291254-1.8956756-5.6093638-4.5626678-6.6367304z" fill="#e1e6e9"/><path d="m70.7975311 59.2232666h-1.7019043v-29.9678478h-22.6990165v-1.7019062h24.4009208z" fill="#fcd462"/><path d="m65.972343 81.232101h12.955671v6.594888h-12.955671z" fill="#3a556a"/><path d="m59.815037 85.48687h25.270275v3.116276h-25.270275z" fill="#64798a"/><path d="m91.7717056 50.9641571h-38.6430626c-1.15905 0-2.0986595.9395599-2.0986595 2.0987129v26.3912926c0 1.15905.9396095 2.0986023 2.0986595 2.0986023h38.6430626c1.15905 0 2.0986633-.9395523 2.0986633-2.0986023v-26.3912926c.0000001-1.159153-.9396133-2.0987129-2.0986633-2.0987129z" fill="#64798a"/><path d="m60.559734 48.242291h23.780985v36.032551h-23.780985z" fill="#4fbae0" transform="matrix(0 1 -1 0 138.709 -6.192)"/></svg>