<svg enable-background="new 0 0 110 110" height="512" viewBox="0 0 110 110" width="512" xmlns="http://www.w3.org/2000/svg"><circle cx="32.734" cy="43.991" fill="#d5d6db" r="13.987"/><circle cx="37.708" cy="32.035" fill="#e6e9ef" r="11.956"/><circle cx="52.726" cy="44.711" fill="#d5d6db" r="13.987"/><circle cx="70.885" cy="45.295" fill="#d5d6db" r="12.871"/><circle cx="32.734" cy="39.964" fill="#e6e9ef" r="13.987"/><circle cx="50.163" cy="39.964" fill="#d5d6db" r="13.987"/><g fill="#e6e9ef"><circle cx="52.726" cy="35.529" r="13.987"/><circle cx="70.885" cy="38.848" r="12.871"/><circle cx="66.713" cy="30.004" r="13.987"/><circle cx="50.597" cy="23.556" r="11.973"/></g><path d="m85.9769592 36.8547401h-28.1638107c-2.9141579 0-5.276619 2.3623543-5.276619 5.2765121v51.0088844c0 2.9141541 2.3624611 5.276619 5.276619 5.276619h28.1638107c2.9141617 0 5.276619-2.3624649 5.276619-5.276619v-51.0088843c0-2.9141579-2.3624573-5.2765122-5.276619-5.2765122z" fill="#3a556a"/><path d="m52.53653 46.454708h38.717053v42.36208h-38.717053z" fill="#27a2db"/><g fill="#2f4859"><path d="m67.017082 40.778889h9.75594v1.916346h-9.75594z"/><path d="m72.5280838 91.0882874c-1.3512497 0-2.4466019 1.0952454-2.4466019 2.4464874 0 1.3510361 1.0953522 2.4463882 2.4466019 2.4463882 1.3510361 0 2.4463806-1.0953522 2.4463806-2.4463882 0-1.3512421-1.0953445-2.4464874-2.4463806-2.4464874z"/><path d="m42.6612015 73.0473404-2.1596909 2.5479202 2.0375557 1.7274246h-10.035263v-9.9957122l1.6931724 2.1333923 2.6164208-2.0764999-5.9889012-7.5466881-5.9367046 7.0034981 2.5479145 2.1596908 1.7274265-2.0369415v13.6999283h13.0107536l-2.1323699 1.6923599 2.0765037 2.6164246 7.5466843-5.9889069z"/></g></svg>