<svg enable-background="new 0 0 110 110" height="512" viewBox="0 0 110 110" width="512" xmlns="http://www.w3.org/2000/svg"><path d="m56.0423851 71.187851v-33.7420388h-1.8265953v33.7420388h-27.246397v1.8265991h27.246397.9132957 21.9771004v-1.8265991z" fill="#3a556a"/><path d="m77.106072 83.704681h10.039967v5.110693h-10.039967z" fill="#3a556a"/><path d="m97.0992279 60.2486115h-29.9463501c-.898201 0-1.6263504.7281113-1.6263504 1.6263924v21.8296776c0 .8982086.7281494 1.6263123 1.6263504 1.6263123h29.9463501c.898201 0 1.6263504-.7281036 1.6263504-1.6263123v-21.8296777c0-.8982811-.7281494-1.6263923-1.6263504-1.6263923z" fill="#64798a"/><path d="m72.911583 58.139309h18.429018v27.92334h-18.429018z" fill="#27a2db" transform="matrix(0 1 -1 0 154.227 -10.025)"/><path d="m72.334488 87.393936h19.583139v2.414951h-19.583139z" fill="#64798a"/><circle cx="82.126" cy="83.216" fill="#3a556a" r=".904"/><path d="m89.316849 82.760025h1.179629v1.179629h-1.179629z" fill="#fcd462"/><path d="m91.327812 82.760025h1.179629v1.179629h-1.179629z" fill="#44c4a1"/><path d="m93.338768 82.760025h1.179629v1.179629h-1.179629z" fill="#e56353"/><path d="m22.853962 83.704681h10.039967v5.110693h-10.039967z" fill="#3a556a"/><path d="m42.8471184 60.2486115h-29.9463463c-.8982029 0-1.6263523.7281113-1.6263523 1.6263924v21.8296776c0 .8982086.7281494 1.6263123 1.6263523 1.6263123h29.9463463c.8982048 0 1.6263542-.7281036 1.6263542-1.6263123v-21.8296777c0-.8982811-.7281494-1.6263923-1.6263542-1.6263923z" fill="#64798a"/><path d="m18.659477 58.139309h18.429018v27.92334h-18.429018z" fill="#27a2db" transform="matrix(0 1 -1 0 99.975 44.227)"/><path d="m18.082377 87.393936h19.583139v2.414951h-19.583139z" fill="#64798a"/><circle cx="27.874" cy="83.216" fill="#3a556a" r=".904"/><path d="m35.064743 82.760025h1.179629v1.179629h-1.179629z" fill="#fcd462"/><path d="m37.075703 82.760025h1.179629v1.179629h-1.179629z" fill="#44c4a1"/><path d="m39.086662 82.760025h1.179629v1.179629h-1.179629z" fill="#e56353"/><path d="m76.6467514 36.5028152c.1922302-.7791405.3055649-1.5894737.3055649-2.4280663 0-5.5868568-4.5289993-10.1157532-10.1157532-10.1157532-1.3195648 0-2.5764389.2601852-3.732338.7197895-1.7755241-2.7013149-4.8286858-4.4876747-8.3027573-4.4876747-4.2444038 0-7.8569298 2.6668797-9.2793922 6.4123821-.1259918-.0046577-.2495537-.0189381-.3767586-.0189381-5.4785919 0-9.9198799 4.4412899-9.9198799 9.919981 0 .2965469.018837.5883293.0442581.8781891-3.277998 1.5092621-5.5584984 4.8145065-5.5584984 8.6599693 0 5.2678299 4.2704315 9.5381622 9.5381584 9.5381622 2.577755 0 4.9123383-1.0270729 6.6290207-2.6886559 2.1118698 2.8787537 5.5091743 4.755558 9.3531227 4.755558 3.4923019 0 6.6165619-1.5499763 8.74403-3.9910049 1.6893349 1.1203499 3.7134972 1.7762337 5.8924141 1.7762337 5.897789 0 10.6790695-4.7811813 10.6790695-10.6791687.0000001-3.323879-1.5191878-6.2924688-3.9002608-8.2510031z" fill="#e6e9ef"/></svg>