<svg enable-background="new 0 0 110 110" height="512" viewBox="0 0 110 110" width="512" xmlns="http://www.w3.org/2000/svg"><path d="m83.6202469 41.6222954v-1.6947594h-23.6232185v15.7841187h-16.4180031v1.6947631h16.4180031v16.908722h23.6232185v-1.6947632h-21.9284592v-30.9980812z" fill="#2f4859"/><path d="m46.8699379 24.0958576h-30.7080536c-1.7558966 0-3.1792736 1.4234982-3.1792736 3.1792736v55.4498596c0 1.7557755 1.423377 3.1791534 3.1792736 3.1791534h30.7080536c1.7557793 0 3.1790352-1.423378 3.1790352-3.1791534v-55.4498596c0-1.7557754-1.4232559-3.1792736-3.1790352-3.1792736z" fill="#3a556a"/><g fill="#2f4859"><path d="m20.0375633 79.2566681v.4619141h-2.1572666v2.1572647h-.4619141v-2.6191788z"/><path d="m23.691227 79.2566681v.4619141h-2.1572686v2.1572647h-.461914v-2.6191788z"/><path d="m27.3448887 79.2566681v.4619141h-2.1572666v2.1572647h-.461916v-2.6191788z"/><path d="m30.9985504 79.2566681v.4619141h-2.1572666v2.1572647h-.4619141v-2.6191788z"/><path d="m34.6522141 79.2566681v.4619141h-2.1572686v2.1572647h-.461914v-2.6191788z"/><path d="m38.3058777 79.2566681v.4619141h-2.1572685v2.1572647h-.4619141v-2.6191788z"/><path d="m41.9595375 79.2566681v.4619141h-2.1572647v2.1572647h-.4619179v-2.6191788z"/><path d="m45.6132011 79.2566681v.4619141h-2.1572685v2.1572647h-.461914v-2.6191788z"/><path d="m20.0375633 75.3952179v.4619141h-2.1572666v2.1572647h-.4619141v-2.6191788z"/><path d="m23.691227 75.3952179v.4619141h-2.1572686v2.1572647h-.461914v-2.6191788z"/><path d="m27.3448887 75.3952179v.4619141h-2.1572666v2.1572647h-.461916v-2.6191788z"/><path d="m30.9985504 75.3952179v.4619141h-2.1572666v2.1572647h-.4619141v-2.6191788z"/><path d="m34.6522141 75.3952179v.4619141h-2.1572686v2.1572647h-.461914v-2.6191788z"/><path d="m38.3058777 75.3952179v.4619141h-2.1572685v2.1572647h-.4619141v-2.6191788z"/><path d="m41.9595375 75.3952179v.4619141h-2.1572647v2.1572647h-.4619179v-2.6191788z"/><path d="m45.6132011 75.3952179v.4619141h-2.1572685v2.1572647h-.461914v-2.6191788z"/><path d="m20.0375633 71.5337677v.4619141h-2.1572666v2.1572647h-.4619141v-2.6191788z"/><path d="m23.691227 71.5337677v.4619141h-2.1572686v2.1572647h-.461914v-2.6191788z"/><path d="m27.3448887 71.5337677v.4619141h-2.1572666v2.1572647h-.461916v-2.6191788z"/><path d="m30.9985504 71.5337677v.4619141h-2.1572666v2.1572647h-.4619141v-2.6191788z"/><path d="m34.6522141 71.5337677v.4619141h-2.1572686v2.1572647h-.461914v-2.6191788z"/><path d="m38.3058777 71.5337677v.4619141h-2.1572685v2.1572647h-.4619141v-2.6191788z"/><path d="m41.9595375 71.5337677v.4619141h-2.1572647v2.1572647h-.4619179v-2.6191788z"/><path d="m45.6132011 71.5337677v.4619141h-2.1572685v2.1572647h-.461914v-2.6191788z"/><path d="m20.0375633 67.6723175v.4619141h-2.1572666v2.1572647h-.4619141v-2.6191788z"/><path d="m23.691227 67.6723175v.4619141h-2.1572686v2.1572647h-.461914v-2.6191788z"/><path d="m27.3448887 67.6723175v.4619141h-2.1572666v2.1572647h-.461916v-2.6191788z"/><path d="m30.9985504 67.6723175v.4619141h-2.1572666v2.1572647h-.4619141v-2.6191788z"/><path d="m34.6522141 67.6723175v.4619141h-2.1572686v2.1572647h-.461914v-2.6191788z"/><path d="m38.3058777 67.6723175v.4619141h-2.1572685v2.1572647h-.4619141v-2.6191788z"/><path d="m41.9595375 67.6723175v.4619141h-2.1572647v2.1572647h-.4619179v-2.6191788z"/><path d="m45.6132011 67.6723175v.4619141h-2.1572685v2.1572647h-.461914v-2.6191788z"/><path d="m20.0375633 63.8108635v.4619102h-2.1572666v2.1572724h-.4619141v-2.6191826z"/><path d="m23.691227 63.8108635v.4619102h-2.1572686v2.1572724h-.461914v-2.6191826z"/><path d="m27.3448887 63.8108635v.4619102h-2.1572666v2.1572724h-.461916v-2.6191826z"/><path d="m30.9985504 63.8108635v.4619102h-2.1572666v2.1572724h-.4619141v-2.6191826z"/><path d="m34.6522141 63.8108635v.4619102h-2.1572686v2.1572724h-.461914v-2.6191826z"/><path d="m38.3058777 63.8108635v.4619102h-2.1572685v2.1572724h-.4619141v-2.6191826z"/><path d="m41.9595375 63.8108635v.4619102h-2.1572647v2.1572724h-.4619179v-2.6191826z"/><path d="m45.6132011 63.8108635v.4619102h-2.1572685v2.1572724h-.461914v-2.6191826z"/><path d="m17.418383 28.068861h28.194819v7.837465h-28.194819z"/><path d="m17.418383 37.6157h28.194819v7.837465h-28.194819z"/><path d="m17.418383 47.162537h28.194819v7.837465h-28.194819z"/></g><circle cx="31.516" cy="59.184" fill="#fcd462" r="2.068"/><path d="m70.2215576 32.124279v18.9907074c0 1.1903877.9649887 2.1554832 2.1553802 2.1554832h22.4849702c1.1903839 0 2.1554794-.9650955 2.1554794-2.1554832v-18.9907074z" fill="#ebf0f3"/><path d="m97.0172882 30.2240314v3.2792568h-17.9136429l-.355835-1.2286606h-4.4063416l-.356041 1.2286606h-3.7623215v-3.2792568c0-1.1863537.9660263-2.15238 2.1523819-2.15238h22.4895172c1.1862566.0000001 2.1522829.9660264 2.1522829 2.15238z" fill="#3a556a"/><circle cx="92.655" cy="30.787" fill="#ebf0f3" r=".892"/><circle cx="89.341" cy="30.787" fill="#ebf0f3" r=".892"/><circle cx="86.026" cy="30.787" fill="#ebf0f3" r=".892"/><path d="m70.221489 63.598175v19.6891632c0 1.1903076.9650879 2.1553955 2.1555176 2.1553955h22.4848633c1.1904297 0 2.1555176-.9650879 2.1555176-2.1553955v-19.6891632z" fill="#ebf0f3"/><path d="m97.0172882 62.396328v3.2792549h-17.9136429l-.355835-1.2286606h-4.4063416l-.356041 1.2286606h-3.7623215v-3.2792549c0-1.1863556.9660263-2.1523819 2.1523819-2.1523819h22.4895172c1.1862566 0 2.1522829.9660263 2.1522829 2.1523819z" fill="#3a556a"/><circle cx="92.655" cy="62.96" fill="#ebf0f3" r=".892"/><circle cx="89.341" cy="62.96" fill="#ebf0f3" r=".892"/><circle cx="86.026" cy="62.96" fill="#ebf0f3" r=".892"/><g fill="#d5d6db"><path d="m75.244484 38.670033h2.779465v.917183h-2.779465z"/><path d="m84.77404 38.670033h7.220422v.917183h-7.220422z"/><path d="m78.74482 38.670033h5.308343v.917183h-5.308343z"/><path d="m89.214996 40.212029h2.779465v.917183h-2.779465z" transform="matrix(-1 0 0 -1 181.209 81.341)"/><path d="m75.244484 40.212029h7.220422v.917183h-7.220422z" transform="matrix(-1 0 0 -1 157.709 81.341)"/><path d="m83.185783 40.212029h5.308343v.917183h-5.308343z" transform="matrix(-1 0 0 -1 171.68 81.341)"/><path d="m75.244484 41.686691h2.779465v.917183h-2.779465z"/><path d="m84.77404 41.686691h7.220422v.917183h-7.220422z"/><path d="m78.74482 41.686691h5.308343v.917183h-5.308343z"/><path d="m89.214996 43.228691h2.779465v.917183h-2.779465z" transform="matrix(-1 0 0 -1 181.209 87.375)"/><path d="m75.244484 43.228691h7.220422v.917183h-7.220422z" transform="matrix(-1 0 0 -1 157.709 87.375)"/><path d="m83.185783 43.228691h5.308343v.917183h-5.308343z" transform="matrix(-1 0 0 -1 171.68 87.375)"/><path d="m75.244484 44.703354h2.779465v.917183h-2.779465z"/><path d="m84.77404 44.703354h7.220422v.917183h-7.220422z"/><path d="m78.74482 44.703354h5.308343v.917183h-5.308343z"/><path d="m89.214996 46.245354h2.779465v.917183h-2.779465z" transform="matrix(-1 0 0 -1 181.209 93.408)"/><path d="m75.244484 46.245354h7.220422v.917183h-7.220422z" transform="matrix(-1 0 0 -1 157.709 93.408)"/><path d="m83.185783 46.245354h5.308343v.917183h-5.308343z" transform="matrix(-1 0 0 -1 171.68 93.408)"/><path d="m75.244484 71.148964h2.779465v.917183h-2.779465z"/><path d="m84.77404 71.148964h7.220422v.917183h-7.220422z"/><path d="m78.74482 71.148964h5.308343v.917183h-5.308343z"/><path d="m89.214996 72.690964h2.779465v.917183h-2.779465z" transform="matrix(-1 0 0 -1 181.209 146.299)"/><path d="m75.244484 72.690964h7.220422v.917183h-7.220422z" transform="matrix(-1 0 0 -1 157.709 146.299)"/><path d="m83.185783 72.690964h5.308343v.917183h-5.308343z" transform="matrix(-1 0 0 -1 171.68 146.299)"/><path d="m75.244484 74.165627h2.779465v.917183h-2.779465z"/><path d="m84.77404 74.165627h7.220422v.917183h-7.220422z"/><path d="m78.74482 74.165627h5.308343v.917183h-5.308343z"/><path d="m89.214996 75.707626h2.779465v.917183h-2.779465z" transform="matrix(-1 0 0 -1 181.209 152.332)"/><path d="m75.244484 75.707626h7.220422v.917183h-7.220422z" transform="matrix(-1 0 0 -1 157.709 152.332)"/><path d="m83.185783 75.707626h5.308343v.917183h-5.308343z" transform="matrix(-1 0 0 -1 171.68 152.332)"/><path d="m75.244484 77.182289h2.779465v.917183h-2.779465z"/><path d="m84.77404 77.182289h7.220422v.917183h-7.220422z"/><path d="m78.74482 77.182289h5.308343v.917183h-5.308343z"/><path d="m89.214996 78.724289h2.779465v.917183h-2.779465z" transform="matrix(-1 0 0 -1 181.209 158.366)"/><path d="m75.244484 78.724289h7.220422v.917183h-7.220422z" transform="matrix(-1 0 0 -1 157.709 158.366)"/><path d="m83.185783 78.724289h5.308343v.917183h-5.308343z" transform="matrix(-1 0 0 -1 171.68 158.366)"/></g></svg>