<svg enable-background="new 0 0 110 110" height="512" viewBox="0 0 110 110" width="512" xmlns="http://www.w3.org/2000/svg"><path d="m24.012693 27.344358h61.974613v20.596151h-61.974613z" fill="#64798a"/><path d="m30.193323 33.539066h3.852767v8.206737h-3.852767z" fill="#e56353"/><path d="m30.193323 37.893036h3.852767v3.852767h-3.852767z" fill="#d15241"/><path d="m37.8522 33.539066h3.852767v8.206737h-3.852767z" fill="#27a2db"/><path d="m37.8522 37.893036h3.852767v3.852767h-3.852767z" fill="#2d93ba"/><path d="m45.511074 33.539066h3.852767v8.206737h-3.852767z" fill="#fcd462"/><path d="m45.511074 37.893036h3.852767v3.852767h-3.852767z" fill="#f7be56"/><path d="m55 35.546619h26.365553v4.191631h-26.365553z" fill="#3a556a"/><path d="m24.012693 62.05949h61.974613v20.596151h-61.974613z" fill="#64798a"/><path d="m30.193323 68.254196h3.852767v8.206737h-3.852767z" fill="#e56353"/><path d="m30.193323 72.60817h3.852767v3.852767h-3.852767z" fill="#d15241"/><path d="m37.8522 68.254196h3.852767v8.206737h-3.852767z" fill="#27a2db"/><path d="m37.8522 72.60817h3.852767v3.852767h-3.852767z" fill="#2d93ba"/><path d="m45.511074 68.254196h3.852767v8.206737h-3.852767z" fill="#fcd462"/><path d="m45.511074 72.60817h3.852767v3.852767h-3.852767z" fill="#f7be56"/><path d="m55 70.261749h26.365553v4.191631h-26.365553z" fill="#3a556a"/><path d="m63.5675316 54.2589493v-9.9088135h-4.5609741v9.9088135h-2.8848877l5.1653442 5.1652832 5.1654015-5.1652832z" fill="#ebf0f3"/><path d="m46.4324684 54.8771553v9.9088097h4.5609741v-9.9088097h2.8848877l-5.1653442-5.1652832-5.1654053 5.1652832z" fill="#44c4a1"/></svg>