<svg enable-background="new 0 0 110 110" height="512" viewBox="0 0 110 110" width="512" xmlns="http://www.w3.org/2000/svg"><path d="m61.1187706 18.0582085h-33.7146015c-1.6304321 0-2.9520874 1.3216553-2.9520874 2.9520264v67.7092896c0 1.6303711 1.3216553 2.9521484 2.9520874 2.9521484h33.7145996c1.6303711 0 2.9520836-1.3217773 2.9520836-2.9521484v-67.7092897c.0000019-1.6303711-1.3217106-2.9520263-2.9520817-2.9520263z" fill="#3a556a"/><g fill="#2f4859"><path d="m30.406618 58.496376h3.07885v3.07885h-3.07885z"/><path d="m33.485466 61.575226h3.07885v3.07885h-3.07885z"/><path d="m36.564316 58.496376h3.07885v3.07885h-3.07885z"/><path d="m39.643166 61.575226h3.07885v3.07885h-3.07885z"/><path d="m42.722015 58.496376h3.07885v3.07885h-3.07885z"/><path d="m45.800865 61.575226h3.07885v3.07885h-3.07885z"/><path d="m48.879715 58.496376h3.07885v3.07885h-3.07885z"/><path d="m51.958565 61.575226h3.07885v3.07885h-3.07885z"/><path d="m55.037415 58.496376h3.07885v3.07885h-3.07885z"/><path d="m30.406618 64.654076h3.07885v3.07885h-3.07885z"/><path d="m33.485466 67.732925h3.07885v3.07885h-3.07885z"/><path d="m36.564316 64.654076h3.07885v3.07885h-3.07885z"/><path d="m39.643166 67.732925h3.07885v3.07885h-3.07885z"/><path d="m42.722015 64.654076h3.07885v3.07885h-3.07885z"/><path d="m45.800865 67.732925h3.07885v3.07885h-3.07885z"/><path d="m48.879715 64.654076h3.07885v3.07885h-3.07885z"/><path d="m51.958565 67.732925h3.07885v3.07885h-3.07885z"/><path d="m55.037415 64.654076h3.07885v3.07885h-3.07885z"/><path d="m30.406618 70.811775h3.07885v3.07885h-3.07885z"/><path d="m33.485466 73.890625h3.07885v3.07885h-3.07885z"/><path d="m36.564316 70.811775h3.07885v3.07885h-3.07885z"/><path d="m39.643166 73.890625h3.07885v3.07885h-3.07885z"/><path d="m42.722015 70.811775h3.07885v3.07885h-3.07885z"/><path d="m45.800865 73.890625h3.07885v3.07885h-3.07885z"/><path d="m48.879715 70.811775h3.07885v3.07885h-3.07885z"/><path d="m51.958565 73.890625h3.07885v3.07885h-3.07885z"/><path d="m55.037415 70.811775h3.07885v3.07885h-3.07885z"/><path d="m30.406618 76.969475h3.07885v3.07885h-3.07885z"/><path d="m33.485466 80.048325h3.07885v3.07885h-3.07885z"/><path d="m36.564316 76.969475h3.07885v3.07885h-3.07885z"/><path d="m39.643166 80.048325h3.07885v3.07885h-3.07885z"/><path d="m42.722015 76.969475h3.07885v3.07885h-3.07885z"/><path d="m45.800865 80.048325h3.07885v3.07885h-3.07885z"/><path d="m48.879715 76.969475h3.07885v3.07885h-3.07885z"/><path d="m51.958565 80.048325h3.07885v3.07885h-3.07885z"/><path d="m55.037415 76.969475h3.07885v3.07885h-3.07885z"/><path d="m30.406618 83.127174h3.07885v3.07885h-3.07885z"/><path d="m36.564316 83.127174h3.07885v3.07885h-3.07885z"/><path d="m42.722015 83.127174h3.07885v3.07885h-3.07885z"/><path d="m48.879715 83.127174h3.07885v3.07885h-3.07885z"/><path d="m55.037415 83.127174h3.07885v3.07885h-3.07885z"/><path d="m30.406618 25.819733h27.709648v8.080608h-27.709648z"/><path d="m30.406618 35.714356h27.709648v8.080608h-27.709648z"/><path d="m30.406618 45.608978h27.709648v8.080608h-27.709648z"/></g><path d="m84.1538467 61.3884659c-7.3658371 1.5361595-12.2855301-1.1262207-13.9783249-2.2695312-.3960114-.2675018-.9091492-.2675018-1.3051376 0-1.6928177 1.1433105-6.6125107 3.8056908-13.978344 2.2695312-.7192154-.1500092-1.3940506.4034729-1.3940506 1.138134v6.5219231s.6844864 19.4364853 15.7618752 22.8639603c.171875.0390778.3542786.0390778.5261841 0 15.0773849-3.427475 15.7618713-22.8639603 15.7618713-22.8639603v-6.5219231c0-.7346611-.6748581-1.2881432-1.3940735-1.138134z" fill="#ebf0f3"/><path d="m83.2773361 63.8566284v5.1398926c-.0200195.3200684-.1799927 3.0900879-1.1300049 6.5200195-.2700195.9799805-.5999756 2.0100098-1.0200195 3.0500488-2.4099731 6.0700684-6.3099976 9.7900391-11.5999756 11.0800781-5.2999878-1.2900391-9.2000122-5.0100098-11.6099854-11.0800781-.4100342-1.0400391-.75-2.0700684-1.0200195-3.0500488-.9500122-3.4199219-1.1099854-6.1899414-1.1300049-6.5200195v-5.1398926c1.1900024.1799316 2.3599854.2700195 3.5100098.2700195 4.8800049 0 8.3900146-1.6201172 10.25-2.7399902 1.8499756 1.119873 5.3599854 2.7399902 10.2399902 2.7399902 1.1500245 0 2.3300171-.0900878 3.5100098-.2700195z" fill="#fcd462"/><g fill="#27a2db"><path d="m82.1492615 75.516449c.950737-3.4272919 1.1126862-6.1983032 1.1285019-6.5176239v-5.1468544c-1.1845474.1806755-2.3585739.2719383-3.5122757.2719383-4.8751221 0-8.3914185-1.6149025-10.2425308-2.7333183v14.1258583z"/><path d="m56.8967209 75.516449c.2713356.9781952.6065712 2.009552 1.0214272 3.053009 2.4110413 6.0639038 6.3140373 9.7867889 11.6048088 11.0729446v-14.1259536z"/></g></svg>