<svg enable-background="new 0 0 110 110" height="512" viewBox="0 0 110 110" width="512" xmlns="http://www.w3.org/2000/svg"><path d="m41.517944 70.829964h26.964111v11.375897h-26.964111z" fill="#2f4859"/><path d="m88.2383347 25.0361767h-66.4767247c-1.4074173 0-2.5483723 1.1410103-2.5483723 2.548481v43.6191177c0 1.4074707 1.140955 2.5484772 2.5483723 2.5484772h66.4767227c1.4074707 0 2.5484314-1.1410065 2.5484314-2.5484772v-43.6191177c.000002-1.4074707-1.1409587-2.548481-2.5484294-2.548481z" fill="#3a556a"/><path d="m38.106525 16.872454h33.786926v61.030426h-33.786926z" fill="#ebf0f3" transform="matrix(0 1 -1 0 102.388 -7.612)"/><path d="m40.047146 37.176422h1.361499v20.422487h-1.361499z" fill="#3a556a"/><path d="m42.5471802 42.2005844h-3.6385689c-.2366676 0-.4285851.1919174-.4285851.42873v3.6385002c0 .2366676.1919174.4285851.4285851.4285851h3.6385689c.2366714 0 .4285851-.1919174.4285851-.4285851v-3.6385002c-.0000001-.2368126-.1919137-.42873-.4285851-.42873z" fill="#fcd462"/><g fill="#f7be56"><path d="m39.234806 43.299988h3.093929v.421899h-3.093929z"/><path d="m39.234806 44.237541h3.093929v.421899h-3.093929z"/><path d="m39.234806 45.175095h3.093929v.421899h-3.093929z"/></g><path d="m49.543919 37.176422h1.361499v20.422487h-1.361499z" fill="#3a556a"/><path d="m52.0978241 47.8662872h-3.6385689c-.2366676 0-.4285851.1919136-.4285851.42873v3.6384964c0 .2366714.1919174.4285851.4285851.4285851h3.6385689c.2366714 0 .4285851-.1919136.4285851-.4285851v-3.6384964c-.0000001-.2368164-.1919137-.42873-.4285851-.42873z" fill="#44c4a1"/><path d="m48.731575 48.965691h3.093929v.421899h-3.093929z" fill="#3ea69b"/><path d="m48.731575 49.903244h3.093929v.421899h-3.093929z" fill="#3ea69b"/><path d="m48.731575 50.840797h3.093929v.421899h-3.093929z" fill="#3ea69b"/><path d="m59.040688 37.176422h1.361499v20.422487h-1.361499z" fill="#3a556a"/><path d="m61.5945969 42.2005844h-3.6385689c-.2366714 0-.4285851.1919174-.4285851.42873v3.6385002c0 .2366676.1919136.4285851.4285851.4285851h3.6385689c.2366676 0 .4285851-.1919174.4285851-.4285851v-3.6385002c-.0000001-.2368126-.1919175-.42873-.4285851-.42873z" fill="#e56353"/><path d="m58.228348 43.299988h3.093929v.421899h-3.093929z" fill="#d15241"/><path d="m58.228348 44.237541h3.093929v.421899h-3.093929z" fill="#d15241"/><path d="m58.228348 45.175095h3.093929v.421899h-3.093929z" fill="#d15241"/><path d="m68.53746 37.176422h1.361499v20.422487h-1.361499z" fill="#3a556a"/><path d="m71.0913696 41.0520821h-3.6385727c-.2366714 0-.4285812.1919136-.4285812.42873v3.6384964c0 .2366676.1919098.4285851.4285812.4285851h3.6385727c.2366638 0 .4285812-.1919174.4285812-.4285851v-3.6384964c.0000001-.2368164-.1919174-.42873-.4285812-.42873z" fill="#27a2db"/><path d="m67.725121 42.151485h3.093929v.421899h-3.093929z" fill="#2d93ba"/><path d="m67.725121 43.089039h3.093929v.421899h-3.093929z" fill="#2d93ba"/><path d="m67.725121 44.026592h3.093929v.421899h-3.093929z" fill="#2d93ba"/><g fill="#64798a"><path d="m75.6925125 80.6059647h-41.385025c-1.3224983 0-2.3945999 1.0721054-2.3945999 2.3945999v1.9632568h46.1742249v-1.9632568c-.0000001-1.3224945-1.0721055-2.3945999-2.3946-2.3945999z"/><circle cx="70.404" cy="68.964" r="1.866"/><circle cx="75.551" cy="68.964" r="1.078"/><circle cx="79.165" cy="68.964" r="1.078"/><circle cx="82.779" cy="68.964" r="1.078"/><path d="m77.4813232 47.0676155-5.1633453-1.3354301 1.3354187 5.1633529 1.2183609-1.2183571 2.5220108 2.5220108 1.3912125-1.3912086-2.5220185-2.5220146z"/></g></svg>