<svg enable-background="new 0 0 110 110" height="512" viewBox="0 0 110 110" width="512" xmlns="http://www.w3.org/2000/svg"><path d="m76.0468826 35.7620201h-36.1829261v2.4273148h13.9689025v34.5520744h2.4273148v-34.5520744h19.7867088z" fill="#3a556a"/><path d="m37.9018517 18.6525097h-17.7058774v32.246397h24.6444493v-25.3078232z" fill="#d5d6db"/><path d="m37.9018517 25.5910835h6.9385719l-6.9385719-6.9385738z" fill="#ebf0f3"/><g fill="#b0b1b7"><path d="m29.018389 27.710083h12.280808v.727089h-12.280808z"/><path d="m29.018389 30.55617h12.280808v.727089h-12.280808z"/><path d="m29.018389 33.402256h12.280808v.727089h-12.280808z"/><path d="m29.018389 36.248344h12.280808v.727089h-12.280808z"/><path d="m29.018389 39.094433h12.280808v.727089h-12.280808z"/><path d="m29.018389 41.940517h12.280808v.727089h-12.280808z"/><path d="m29.018389 44.786606h12.280808v.727089h-12.280808z"/><path d="m23.737204 27.710083h3.477402v.727089h-3.477402z"/><path d="m23.737204 30.55617h3.477402v.727089h-3.477402z"/><path d="m23.737204 33.402256h3.477402v.727089h-3.477402z"/><path d="m23.737204 36.248344h3.477402v.727089h-3.477402z"/><path d="m23.737204 39.094433h3.477402v.727089h-3.477402z"/><path d="m23.737204 41.940517h3.477402v.727089h-3.477402z"/><path d="m23.737204 44.786606h3.477402v.727089h-3.477402z"/></g><path d="m82.865448 18.6525097h-17.7058716v32.246397h24.6444473v-25.3078232z" fill="#d5d6db"/><path d="m82.865448 25.5910835h6.9385757l-6.9385757-6.9385738z" fill="#ebf0f3"/><g fill="#b0b1b7"><path d="m73.981987 27.710083h12.280808v.727089h-12.280808z"/><path d="m73.981987 30.55617h12.280808v.727089h-12.280808z"/><path d="m73.981987 33.402256h12.280808v.727089h-12.280808z"/><path d="m73.981987 36.248344h12.280808v.727089h-12.280808z"/><path d="m73.981987 39.094433h12.280808v.727089h-12.280808z"/><path d="m73.981987 41.940517h12.280808v.727089h-12.280808z"/><path d="m73.981987 44.786606h12.280808v.727089h-12.280808z"/><path d="m68.700806 27.710083h3.477402v.727089h-3.477402z"/><path d="m68.700806 30.55617h3.477402v.727089h-3.477402z"/><path d="m68.700806 33.402256h3.477402v.727089h-3.477402z"/><path d="m68.700806 36.248344h3.477402v.727089h-3.477402z"/><path d="m68.700806 39.094433h3.477402v.727089h-3.477402z"/><path d="m68.700806 41.940517h3.477402v.727089h-3.477402z"/><path d="m68.700806 44.786606h3.477402v.727089h-3.477402z"/></g><path d="m61.8651009 59.1010933h-17.7058793v32.2463951h24.6444512v-25.3078232z" fill="#d5d6db"/><path d="m61.8651009 66.0396652h6.9385719l-6.9385719-6.9385719z" fill="#ebf0f3"/><path d="m52.981636 68.158669h12.280808v.727089h-12.280808z" fill="#b0b1b7"/><path d="m52.981636 71.004753h12.280808v.727089h-12.280808z" fill="#b0b1b7"/><path d="m52.981636 73.850838h12.280808v.727089h-12.280808z" fill="#b0b1b7"/><path d="m52.981636 76.69693h12.280808v.727089h-12.280808z" fill="#b0b1b7"/><path d="m52.981636 79.543015h12.280808v.727089h-12.280808z" fill="#b0b1b7"/><path d="m52.981636 82.389099h12.280808v.727089h-12.280808z" fill="#b0b1b7"/><path d="m52.981636 85.235191h12.280808v.727089h-12.280808z" fill="#b0b1b7"/><path d="m47.700451 68.158669h3.477402v.727089h-3.477402z" fill="#b0b1b7"/><path d="m47.700451 71.004753h3.477402v.727089h-3.477402z" fill="#b0b1b7"/><path d="m47.700451 73.850838h3.477402v.727089h-3.477402z" fill="#b0b1b7"/><path d="m47.700451 76.69693h3.477402v.727089h-3.477402z" fill="#b0b1b7"/><path d="m47.700451 79.543015h3.477402v.727089h-3.477402z" fill="#b0b1b7"/><path d="m47.700451 82.389099h3.477402v.727089h-3.477402z" fill="#b0b1b7"/><path d="m47.700451 85.235191h3.477402v.727089h-3.477402z" fill="#b0b1b7"/></svg>