<svg enable-background="new 0 0 110 110" height="512" viewBox="0 0 110 110" width="512" xmlns="http://www.w3.org/2000/svg"><path d="m76.8984146 63.4859848h-1.1204681-19.4430542v-19.968502h-2.259224v19.968502h-19.8536148v-.01791h-2.2408809v11.1586189h2.2408809v-8.6691437h19.8536148 21.7022782v8.6871644h2.2408828v-11.1587296z" fill="#3a556a"/><path d="m69.4767609 27.3946228-5.9593201-6.4351349c-.3800125-.4102936-.9139366-.6435871-1.4732361-.6435871h-1.4944267c.1292839.6118126-.3304062 1.281311-1.0223999 1.6972542-1.8362427 1.103569-3.7133217.9749794-5.7853622.8905315-2.820816-.1149406-5.6351814-.3841686-8.4584503-.426712-1.2772598-.0193005-2.1959572-1.211153-1.9456558-2.1610737h-1.2732964c-1.1089516 0-2.0079613.8990612-2.0079613 2.0078526v28.5489311c0 1.1088982.8989563 2.0079613 2.0079079 2.0079613h1.5913239c.0191917-.8123779.5480499-1.5859413 1.594841-1.5371056 6.3479691.2967377 13.2446289.078476 19.55336-.66502 1.3735428-.1619644 1.9146194 1.1736221 1.5072021 2.2021255h1.6922379c1.1089554 0 2.0079575-.8990631 2.0079575-2.0079613v-22.1137962c-.0000002-.5058288-.1909639-.9931049-.5347215-1.3642654z" fill="#3a556a"/><path d="m43.21656 20.315926h17.423868v11.473283h-17.423868z" fill="#ebf0f3"/><path d="m43.21656 39.620781h23.498734v13.259864h-23.498734z" fill="#ebf0f3"/><path d="m45.395077 42.02079h19.141695v1.496676h-19.141695z" fill="#44c4a1"/><path d="m45.395077 45.502384h19.141695v1.496676h-19.141695z" fill="#44c4a1"/><path d="m45.395077 48.983982h19.141695v1.496676h-19.141695z" fill="#44c4a1"/><path d="m56.001976 22.944132h2.44642v5.932567h-2.44642z" fill="#e56353"/><path d="m63.711075 79.187424h25.964115v3.439227h-25.964115z" fill="#3a556a"/><path d="m89.9657516 72.1299744h-26.5452346c-.4875412 0-.8827477.395256-.8827477.8827515v6.4427032c0 .4874878.3952065.882637.8827477.882637h26.5452347c.4875412 0 .8827438-.3951492.8827438-.882637v-6.4427032c0-.4874955-.3952027-.8827515-.8827439-.8827515z" fill="#64798a"/><g fill="#3a556a"><path d="m63.65292 73.280617h12.07578v.295089h-12.07578z"/><path d="m63.65292 74.082291h12.07578v.295089h-12.07578z"/><path d="m63.65292 74.883965h12.07578v.295089h-12.07578z"/><path d="m63.65292 75.685638h12.07578v.295089h-12.07578z"/><path d="m63.65292 76.487312h12.07578v.295089h-12.07578z"/><path d="m63.65292 77.288986h12.07578v.295089h-12.07578z"/><path d="m63.65292 78.09066h12.07578v.295089h-12.07578z"/><path d="m63.65292 78.892334h12.07578v.295089h-12.07578z"/><path d="m81.282753 74.6267014c-.79702 0-1.4431686.6461487-1.4431686 1.4431686s.6461487 1.4430618 1.4431686 1.4430618 1.4431152-.6460419 1.4431152-1.4430618-.6460953-1.4431686-1.4431152-1.4431686z"/><path d="m86.2557678 74.6267014c-.79702 0-1.4431686.6461487-1.4431686 1.4431686s.6461487 1.4430618 1.4431686 1.4430618c.7970276 0 1.4431152-.6460419 1.4431152-1.4430618s-.6460876-1.4431686-1.4431152-1.4431686z"/></g><path d="m89.9657516 81.4760056h-26.5452346c-.4875412 0-.8827477.395256-.8827477.8827515v6.4427032c0 .4874878.3952065.882637.8827477.882637h26.5452347c.4875412 0 .8827438-.3951492.8827438-.882637v-6.4427033c0-.4874954-.3952027-.8827514-.8827439-.8827514z" fill="#64798a"/><g fill="#3a556a"><path d="m63.65292 82.626648h12.07578v.295089h-12.07578z"/><path d="m63.65292 83.428322h12.07578v.295089h-12.07578z"/><path d="m63.65292 84.229996h12.07578v.295089h-12.07578z"/><path d="m63.65292 85.03167h12.07578v.295089h-12.07578z"/><path d="m63.65292 85.833344h12.07578v.295089h-12.07578z"/><path d="m63.65292 86.635017h12.07578v.295089h-12.07578z"/><path d="m63.65292 87.436691h12.07578v.295089h-12.07578z"/><path d="m63.65292 88.238365h12.07578v.295089h-12.07578z"/><path d="m81.282753 83.9727325c-.79702 0-1.4431686.6461487-1.4431686 1.4431686 0 .7970276.6461487 1.4430618 1.4431686 1.4430618s1.4431152-.6460342 1.4431152-1.4430618c0-.7970199-.6460953-1.4431686-1.4431152-1.4431686z"/><path d="m86.2557678 83.9727325c-.79702 0-1.4431686.6461487-1.4431686 1.4431686 0 .7970276.6461487 1.4430618 1.4431686 1.4430618.7970276 0 1.4431152-.6460342 1.4431152-1.4430618.0000001-.7970199-.6460876-1.4431686-1.4431152-1.4431686z"/><path d="m20.324808 79.187424h25.964115v3.439227h-25.964115z"/></g><path d="m46.579483 72.1299744h-26.5452346c-.4875412 0-.8827477.395256-.8827477.8827515v6.4427032c0 .4874878.3952065.882637.8827477.882637h26.5452346c.4875412 0 .8827477-.3951492.8827477-.882637v-6.4427032c0-.4874955-.3952065-.8827515-.8827477-.8827515z" fill="#64798a"/><path d="m20.266651 73.280617h12.07578v.295089h-12.07578z" fill="#3a556a"/><path d="m20.266651 74.082291h12.07578v.295089h-12.07578z" fill="#3a556a"/><path d="m20.266651 74.883965h12.07578v.295089h-12.07578z" fill="#3a556a"/><path d="m20.266651 75.685638h12.07578v.295089h-12.07578z" fill="#3a556a"/><path d="m20.266651 76.487312h12.07578v.295089h-12.07578z" fill="#3a556a"/><path d="m20.266651 77.288986h12.07578v.295089h-12.07578z" fill="#3a556a"/><path d="m20.266651 78.09066h12.07578v.295089h-12.07578z" fill="#3a556a"/><path d="m20.266651 78.892334h12.07578v.295089h-12.07578z" fill="#3a556a"/><path d="m37.8964844 74.6267014c-.7970238 0-1.4431686.6461487-1.4431686 1.4431686s.6461449 1.4430618 1.4431686 1.4430618c.79702 0 1.4431114-.6460419 1.4431114-1.4430618s-.6460915-1.4431686-1.4431114-1.4431686z" fill="#3a556a"/><path d="m42.869503 74.6267014c-.7970238 0-1.4431686.6461487-1.4431686 1.4431686s.6461449 1.4430618 1.4431686 1.4430618c.79702 0 1.4431152-.6460419 1.4431152-1.4430618s-.6460952-1.4431686-1.4431152-1.4431686z" fill="#3a556a"/><path d="m46.579483 81.4760056h-26.5452346c-.4875412 0-.8827477.395256-.8827477.8827515v6.4427032c0 .4874878.3952065.882637.8827477.882637h26.5452346c.4875412 0 .8827477-.3951492.8827477-.882637v-6.4427033c0-.4874954-.3952065-.8827514-.8827477-.8827514z" fill="#64798a"/><path d="m20.266651 82.626648h12.07578v.295089h-12.07578z" fill="#3a556a"/><path d="m20.266651 83.428322h12.07578v.295089h-12.07578z" fill="#3a556a"/><path d="m20.266651 84.229996h12.07578v.295089h-12.07578z" fill="#3a556a"/><path d="m20.266651 85.03167h12.07578v.295089h-12.07578z" fill="#3a556a"/><path d="m20.266651 85.833344h12.07578v.295089h-12.07578z" fill="#3a556a"/><path d="m20.266651 86.635017h12.07578v.295089h-12.07578z" fill="#3a556a"/><path d="m20.266651 87.436691h12.07578v.295089h-12.07578z" fill="#3a556a"/><path d="m20.266651 88.238365h12.07578v.295089h-12.07578z" fill="#3a556a"/><path d="m37.8964844 83.9727325c-.7970238 0-1.4431686.6461487-1.4431686 1.4431686 0 .7970276.6461449 1.4430618 1.4431686 1.4430618.79702 0 1.4431114-.6460342 1.4431114-1.4430618 0-.7970199-.6460915-1.4431686-1.4431114-1.4431686z" fill="#3a556a"/><path d="m42.869503 83.9727325c-.7970238 0-1.4431686.6461487-1.4431686 1.4431686 0 .7970276.6461449 1.4430618 1.4431686 1.4430618.79702 0 1.4431152-.6460342 1.4431152-1.4430618.0000001-.7970199-.6460952-1.4431686-1.4431152-1.4431686z" fill="#3a556a"/></svg>