<svg enable-background="new 0 0 110 110" height="512" viewBox="0 0 110 110" width="512" xmlns="http://www.w3.org/2000/svg"><path d="m56.2033043 55.2636032v-12.0350685h-1.555439v12.0350685h-18.3206787v10.8940353h1.555439v-9.3385963h35.0859184v9.3385963h1.5554428v-10.8940353z" fill="#474c5b"/><path d="m80.4442291 34.6677856c-.1400146-.25-.3100586-.4899902-.4800415-.7200317.4100342-.7199707.7000122-1.5299683.8200073-2.3899517v-.0100098c.0499878-.3200073.0700073-.6500244.0599976-.9800415-.0200195-1.5599976-.5899658-2.9899902-1.5100098-4.1099854-.039978-.0499878-.0799561-.0999756-.1300049-.1400146-.0999756-.1199951-.2099609-.2399902-.3299561-.3599854-.0100098-.0100098-.0300293-.0299683-.0500488-.0499878-.1299438-.1300049-.2699585-.25-.4199829-.3699951-.1599731-.1300049-.3300171-.2600098-.5-.3699951-.3599854-.2399902-.75-.4500122-1.1599731-.6199951-.1600342-.0700073-.3300171-.1300049-.5100098-.1799927-.1699829-.0599976-.3400269-.1100464-.5200195-.1400146-.0800171-.0200195-.1699829-.039978-.25-.0499878-.1599731-.0400391-.3200073-.0599976-.4799805-.0800171-.0599976-.0100098-.1300049-.0100098-.1900024-.0200195-.1799927-.0100098-.3599854-.0199585-.539978-.0199585h-.1200562c-.0799561 0-.1599731 0-.2399902.0099487-.0899658 0-.1699829.0100098-.25.0100098-.3599854.0300293-.6999512.1000366-1.039978.1799927-.3400269-1.0699463-.9000244-2.0499878-1.6300049-2.8599854l-.1099854-.1099854c-.0599976-.0599976-.1199951-.1300049-.1900024-.1900024-.0800171-.0900269-.1699829-.1900024-.2700195-.2700195-.0499878-.039978-.1099854-.0799561-.1699829-.1199951-.0200195-.0199585-.039978-.0299683-.0599976-.0499878-.1099854-.1099854-.2299805-.2000122-.3599854-.2999878-.1199951-.0900269-.25-.1799927-.3699951-.2700195-.0900269-.0499878-.1700439-.1099854-.2600098-.1699829-.3600464-.2200317-.7399902-.4100342-1.1300049-.5700073-.1700439-.0800171-.3500366-.1400146-.5400391-.1900024-.1199951-.0499878-.2399902-.0800171-.3599854-.1099854-.1400146-.0400391-.289978-.0800171-.4400024-.1099854-.039978-.0100098-.0800171-.0200195-.1300049-.0200195-.2099609-.039978-.4199829-.0700073-.6300049-.0900269-.3099976-.039978-.6199951-.0499878-.9400024-.0499878-1.0999756.0200195-2.1399536.2600098-3.0799561.6799927-1.8000488-2.2999878-4.6000366-3.7600098-7.7399902-3.7199707-4.2000122.0599976-7.7200317 2.8099976-9 6.5700073-.5200195-.0800171-1.0600586-.1300049-1.6100464-.1199951-5.3299561.0799561-9.5899658 4.4599609-9.5199585 9.789978 0 .2399883.0199585.4799786.039978.7199688l.0100098.0100098c.039978.4899902.1300049.9800415.2399902 1.4500122-.0900269.0200195-.1699829.039978-.25.0599976-.0100098 0-.0100098.0100098-.0100098.0100098-.1699829.0499878-.3399658.0999756-.5100098.1599731-.1300049.0400391-.25.0900269-.3800049.1400146-.3599854.1500244-.7099609.3300171-1.039978.5599976 0 0-.0100098-.0100098-.0100098 0-.330019.210022-.6400166.460022-.9199848.7399902-.1000366.0900269-.1900024.1799927-.2800293.2800293-.0199585.0100098-.0299683.0200195-.0299683.0299683-.1099854.1199951-.2200317.25-.3200073.3800049-.1099854.1400146-.210022.2800293-.3099976.4299927-.0999756.1500244-.1900024.3000488-.2700195.4500122-.0899658.1600342-.1699829.3200073-.2399902.4800415-.2199707.4799805-.3800049.9799805-.4699707 1.5099487-.0700073.3699951-.1000366.75-.1000366 1.1400146v.0900269c0 .1699829.0100098.3399658.0300293.5100098.0100098.0999756.0199585.1899414.039978.289978v.0100098.0199585c.4500122 3.2000122 3.2200336 5.6500244 6.5399799 5.6000366 1.6400146-.0200195 7.7200317.5199585 9.9000244.4899902 1.8200073-.0200195 5.6099854-.0800171 8.9199829-.1300049.5400391-.0100098 1.0599976-.0100098 1.5599976-.0200195 1.3900146-.0199585 2.6100464-.039978 3.4200439-.0499878 2.9299927-.039978 10.9699707-.1599731 13.8999634-.2000122 4.210022-.0599976 7.6199951-3.25 8.0599976-7.3299561.0400391-.3300171.0599976-.6700439.0499878-1.0200195-.0199583-1.5100098-.4499509-2.9199829-1.1899412-4.1199952zm-14.0500488-.0499877c-.0499878-.0800171-.0999756-.1600342-.1599731-.2399902.1199951-.0200195.2299805-.0400391.3399658-.0600586-.0599976.1000365-.1199951.2000121-.1799927.3000488z" fill="#d5d6db"/><path d="m81.5841827 39.8078003c-.1499634-1.5300293-.7399902-2.9299927-1.6199951-4.1000366.1900024-.3299561.3500366-.6799927.4800415-1.039978.2699585-.7299805.4099731-1.5200195.3999634-2.3400269 0-.2600098-.0200195-.5199566-.0599976-.7699566v-.0100098c-.4299927-3.2800293-3.2600098-5.7900391-6.6500244-5.7399902-.5299683.0099487-1.039978.0899658-1.5299683.2099609-1.0100098-3.2199707-4.039978-5.5299683-7.5900269-5.4799805-1.0999756.0200195-2.1399536.2600098-3.0799561.6799927-1.8000488-2.2999878-4.6000366-3.7600098-7.7399902-3.7199707-4.2000122.0599976-7.7200317 2.7999878-9 6.5699463-.5200195-.0799561-1.0600586-.1299438-1.6100464-.1199951-4.9599609.0800171-8.9899902 3.8699951-9.4699707 8.6800518v.0199585c0 .0200195-.0100098.0400391-.0100098.0499878l-.0300293.4200439c-.0099487.1999512-.0099487.4099731-.0099487.6199951 0 .1599731.0099487.3299561.0299683.4899902.0300293.5800171.1300049 1.1400146.2600098 1.6900024-2.6599751.5700073-4.7100239 2.7700195-5.0700092 5.5v.0100098.0199585c-.0200195.1500244-.039978.3000488-.0499878.460022-.0200195.1500244-.0200195.3099976-.0200195.4700317.0100098.4499512.0599976.8799438.1500244 1.2999878.039978.2099609.0999756.4199829.1699829.6199951.039978.1300049.0800171.25.1400146.3699951.1799927.5.4400024.9699707.75 1.3900146.1199951.1799927.25.3399658.3900146.5.1399536.1599731.289978.3099976.4400024.4599609 1.1900043 1.1300049 2.7999897 1.8099976 4.5699482 1.7900391 1.6400146-.0200195 7.7200317.5199585 9.9000244.4899902 1.8200073-.0200195 5.6099854-.0800171 8.9199829-.1300049.5400391-.0100098 1.0599976-.0100098 1.5599976-.0200195 1.3900146-.0199585 2.6100464-.039978 3.4200439-.0499878 2.9299927-.039978 10.9699707-.1599731 13.8999634-.2000122 4.5499878-.0599976 8.1799927-3.7999878 8.1099854-8.3499756.0000001-.2499998-.0199584-.48999-.0499877-.73999zm-15.0100097-3.7300415c-.0599976.1000366-.1199951.2000122-.1799927.2900391-.0499878-.0700073-.0999756-.1600342-.1599731-.2300415.1199951-.0199585.2299804-.0399781.3399658-.0599976z" fill="#ebf0f3"/><path d="m33.555107 74.617203h6.662292v9.438247h-6.662292z" fill="#f7be56"/><path d="m49.9718018 94.2630081c.0062675-2.2228699.0023689-4.6229172-.0318069-6.0766907-.077095-3.2813644-2.9556007-4.8225784-2.9556007-4.8225784l-5.9531059-2.389595-3.6557999 1.5975113-.4892426 1.0215836-.4911003-1.0215836-3.6539421-1.5975113-5.953104 2.389595s-2.8784695 1.541214-2.9556007 4.8225784c-.0341759 1.4537735-.0380745 3.8538208-.0318089 6.0766907z" fill="#44c4a1"/><path d="m33.5551071 80.098671 2.8400231 2.4729843-1.8269616 2.6189575-1.8269615-4.2164612z" fill="#ebf0f3"/><path d="m40.2155266 80.098671-2.8400269 2.4729843 1.8269615 2.6189575 1.8269654-4.2164612z" fill="#ebf0f3"/><path d="m42.8891525 70.8084183c-.370182-.0348969-.7288971.5588303-.8012238 1.3261337-.0723267.7672729.1691284 1.417572.5393105 1.4524612.370182.0348969.7288971-.5588303.8012199-1.3261032.0723267-.7673034-.1691245-1.4176025-.5393066-1.4524917z" fill="#f7be56"/><path d="m30.6467152 70.8084183c.370182-.0348969.728899.5588303.8012257 1.3261337.0723228.7672729-.1691303 1.417572-.5393124 1.4524612-.370182.0348969-.7288971-.5588303-.8012218-1.3261032-.0723267-.7673034.1691264-1.4176025.5393085-1.4524917z" fill="#f7be56"/><ellipse cx="36.869" cy="71.833" fill="#fcd462" rx="5.814" ry="7.503"/><path d="m42.132988 74.0515366h.2446442s.7067528-4.4307861.5980186-6.8772354c-.1087303-2.4464493-1.5222321-3.4250259-3.4250221-3.6153069 0 0-.5980225-1.6853294-2.147438-1.7396927-1.5494156-.0543671-5.1647186 1.2775879-6.1161156 3.2619286-.9513969 1.9843369-.7339344 5.3821793-.3533764 6.8500519.380558 1.467865.4077415 2.1202545.4077415 2.1202545h.380558s-.5980206-2.8270111-.1359138-3.343483 6.7875767.6766129 7.8014469-3.3706589c0 0 3.2743225 1.0874329 2.7454567 6.7141419z" fill="#4d5c7d"/><path d="m69.7826 74.617203h6.662292v9.438247h-6.662292z" fill="#f7be56" transform="matrix(-1 0 0 -1 146.227 158.673)"/><path d="m60.0281982 94.2630081c-.0062675-2.2228699-.0023689-4.6229172.0318069-6.0766907.077095-3.2813644 2.9556007-4.8225784 2.9556007-4.8225784l5.9531059-2.389595 3.6557999 1.5975113.4892426 1.0215836.4910965-1.0215836 3.6539459-1.5975113 5.9531021 2.389595s2.8784714 1.541214 2.9556046 4.8225784c.0341721 1.4537735.0380707 3.8538208.0318069 6.0766907z" fill="#3a556a"/><path d="m76.4448929 80.098671-2.8400269 2.4729843 1.8269654 2.6189575 1.8269653-4.2164612z" fill="#ebf0f3"/><path d="m69.7844772 80.098671 2.8400269 2.4729843-1.8269653 2.6189575-1.8269654-4.2164612z" fill="#ebf0f3"/><path d="m67.1108475 70.8084183c.3701782-.0348969.7288971.5588303.8012238 1.3261337.0723267.7672729-.1691284 1.417572-.5393066 1.4524612-.3701859.0348969-.7289047-.5588303-.8012238-1.3261032-.0723267-.7673034.1691284-1.4176025.5393066-1.4524917z" fill="#f7be56"/><path d="m79.3532867 70.8084183c-.3701859-.0348969-.7288971.5588303-.8012238 1.3261337-.0723267.7672729.1691284 1.417572.5393066 1.4524612.3701859.0348969.7288971-.5588303.8012238-1.3261032.0723267-.7673034-.1691283-1.4176025-.5393066-1.4524917z" fill="#f7be56"/><ellipse cx="73.131" cy="71.833" fill="#fcd462" rx="5.814" ry="7.503"/><path d="m67.867012 74.0515366h-.2446442s-.706749-4.4307861-.5980225-6.8772354c.1087341-2.4464493 1.5222321-3.4250259 3.4250259-3.6153069 0 0 .5980225-1.6853294 2.147438-1.7396927 1.5494156-.0543671 5.1647186 1.2775879 6.1161194 3.2619286.9513931 1.9843369.7339325 5.3821793.3533707 6.8500519-.3805542 1.467865-.4077377 2.1202545-.4077377 2.1202545h-.3805618s.5980225-2.8270111.1359177-3.343483c-.4621124-.5164719-6.7875824.6766129-7.801445-3.3706589 0 0-3.2743225 1.0874329-2.7454605 6.7141419z" fill="#4d5c7d"/></svg>