<svg enable-background="new 0 0 110 110" height="512" viewBox="0 0 110 110" width="512" xmlns="http://www.w3.org/2000/svg"><g fill="#3a556a"><path d="m81.791496 28.958382h2.470441v31.809502h-2.470441z"/><path d="m38.591312 28.958382h2.470441v31.809502h-2.470441z"/><path d="m32.506516 73.501816h14.640036v7.218746h-14.640036z"/></g><path d="m62.0987511 38.3578796h-44.5444355c-1.1832275 0-2.1425772.9592896-2.1425772 2.1425781v32.2877808c0 1.1832886.9593496 2.1425781 2.1425772 2.1425781h44.5444336c1.1833496 0 2.1425743-.9592896 2.1425743-2.1425781v-32.2877807c.0000019-1.1832886-.9592228-2.1425782-2.1425724-2.1425782z" fill="#e1e6e9"/><path d="m64.2413254 69.2660217v-28.765564c0-1.1832886-.9592247-2.1425781-2.1425743-2.1425781h-44.5444355c-1.1832275 0-2.1425772.9592896-2.1425772 2.1425781v28.765564z" fill="#474c5b"/><path d="m18.21349 41.494061h43.22609v24.896038h-43.22609z" fill="#27a2db"/><circle cx="39.827" cy="71.921" fill="#d5d6db" r="1.197"/><path d="m28.244314 78.961235h23.164438v2.541246h-23.164438z" fill="#64798a"/><path d="m71.465179 71.156921h23.123085v1.199823h-23.123085z" fill="#3a556a"/><path d="m71.465179 72.305611h23.123085v7.20831h-23.123085z" fill="#d5d6db"/><path d="m71.465179 62.560223h23.123085v1.45442h-23.123085z" fill="#3a556a"/><path d="m71.465179 55.587002h23.123085v7.017176h-23.123085z" fill="#d5d6db"/><path d="m71.465179 63.954517h23.123085v7.24865h-23.123085z" fill="#d5d6db"/><path d="m16.666782 28.497519h77.921478v2.690359h-77.921478z" fill="#3a556a"/></svg>