<svg enable-background="new 0 0 110 110" height="512" viewBox="0 0 110 110" width="512" xmlns="http://www.w3.org/2000/svg"><path d="m71.2062607 46.9198875h-1.5778504v-14.1760444h6.9115906v1.5778541h-5.3337402z" fill="#474c5b"/><path d="m76.5400009 83.5291367h-6.9115906v-14.1764298h1.5778504v12.5985718h5.3337402z" fill="#474c5b"/><path d="m38.1148872 46.9198875h1.5778542v-14.1760444h-6.9115906v1.5778541h5.3337364z" fill="#474c5b"/><path d="m32.7811508 83.5291367h6.9115906v-14.1764298h-1.5778542v12.5985718h-5.3337364z" fill="#474c5b"/><path d="m35.271866 56.494076h38.777416v3.313507h-38.777416z" fill="#474c5b"/><path d="m75.9520874 44.2302055h-42.5831223c-.6776962 0-1.2271118.5494652-1.2271118 1.227211v10.9294701c0 .6777916.5494156 1.2272568 1.2271118 1.2272568h42.5831223c.6777954 0 1.227211-.5494652 1.227211-1.2272568v-10.9294701c0-.6777458-.5494156-1.227211-1.227211-1.227211z" fill="#64798a"/><g fill="#474c5b"><path d="m34.311798 47.170643h1.787446v1.787446h-1.787446z"/><path d="m37.510872 47.170643h1.787446v1.787446h-1.787446z"/><path d="m40.709942 47.170643h1.787446v1.787446h-1.787446z"/><path d="m43.909016 47.170643h1.787446v1.787446h-1.787446z"/><path d="m47.108086 47.170643h1.787446v1.787446h-1.787446z"/><path d="m50.307159 47.170643h1.787446v1.787446h-1.787446z"/><path d="m53.506229 47.170643h1.787446v1.787446h-1.787446z"/><path d="m34.311798 50.02845h1.787446v1.787446h-1.787446z"/><path d="m37.510872 50.02845h1.787446v1.787446h-1.787446z"/><path d="m40.709942 50.02845h1.787446v1.787446h-1.787446z"/><path d="m43.909016 50.02845h1.787446v1.787446h-1.787446z"/><path d="m47.108086 50.02845h1.787446v1.787446h-1.787446z"/><path d="m50.307159 50.02845h1.787446v1.787446h-1.787446z"/><path d="m53.506229 50.02845h1.787446v1.787446h-1.787446z"/><path d="m34.311798 52.886261h1.787446v1.787446h-1.787446z"/><path d="m37.510872 52.886261h1.787446v1.787446h-1.787446z"/><path d="m40.709942 52.886261h1.787446v1.787446h-1.787446z"/><path d="m43.909016 52.886261h1.787446v1.787446h-1.787446z"/><path d="m47.108086 52.886261h1.787446v1.787446h-1.787446z"/><path d="m50.307159 52.886261h1.787446v1.787446h-1.787446z"/><path d="m53.506229 52.886261h1.787446v1.787446h-1.787446z"/></g><path d="m61.7013931 48.2123947c-1.4965134 0-2.7097511 1.2131844-2.7097511 2.7097549 0 1.4966164 1.2132378 2.7098045 2.7097511 2.7098045 1.4966202 0 2.7098541-1.2131882 2.7098541-2.7098045.0000001-1.4965705-1.2132339-2.7097549-2.7098541-2.7097549z" fill="#ebf0f3"/><path d="m61.7014084 48.9654579c-1.0806274 0-1.9566994.8760338-1.9566994 1.9566994 0 1.0806999.8760719 1.9567337 1.9566994 1.9567337 1.0806999 0 1.9567719-.8760338 1.9567719-1.9567337-.0000001-1.0806656-.876072-1.9566994-1.9567719-1.9566994z" fill="#27a2db"/><path d="m69.4092712 48.2123947c-1.4965134 0-2.7097549 1.2131844-2.7097549 2.7097549 0 1.4966164 1.2132416 2.7098045 2.7097549 2.7098045 1.4966202 0 2.7098541-1.2131882 2.7098541-2.7098045.0000001-1.4965705-1.2132339-2.7097549-2.7098541-2.7097549z" fill="#ebf0f3"/><path d="m69.4092865 48.9654579c-1.0806274 0-1.9567032.8760338-1.9567032 1.9566994 0 1.0806999.8760757 1.9567337 1.9567032 1.9567337 1.0806961 0 1.9567719-.8760338 1.9567719-1.9567337-.0000001-1.0806656-.8760758-1.9566994-1.9567719-1.9566994z" fill="#d15241"/><path d="m75.9520874 58.6588326h-42.5831223c-.6776962 0-1.2271118.5494652-1.2271118 1.227211v10.9294701c0 .6777954.5494156 1.2272568 1.2271118 1.2272568h42.5831223c.6777954 0 1.227211-.5494614 1.227211-1.2272568v-10.9294702c0-.6777458-.5494156-1.2272109-1.227211-1.2272109z" fill="#64798a"/><g fill="#474c5b"><path d="m34.311798 61.59927h1.787446v1.787446h-1.787446z"/><path d="m37.510872 61.59927h1.787446v1.787446h-1.787446z"/><path d="m40.709942 61.59927h1.787446v1.787446h-1.787446z"/><path d="m43.909016 61.59927h1.787446v1.787446h-1.787446z"/><path d="m47.108086 61.59927h1.787446v1.787446h-1.787446z"/><path d="m50.307159 61.59927h1.787446v1.787446h-1.787446z"/><path d="m53.506229 61.59927h1.787446v1.787446h-1.787446z"/><path d="m34.311798 64.457077h1.787446v1.787446h-1.787446z"/><path d="m37.510872 64.457077h1.787446v1.787446h-1.787446z"/><path d="m40.709942 64.457077h1.787446v1.787446h-1.787446z"/><path d="m43.909016 64.457077h1.787446v1.787446h-1.787446z"/><path d="m47.108086 64.457077h1.787446v1.787446h-1.787446z"/><path d="m50.307159 64.457077h1.787446v1.787446h-1.787446z"/><path d="m53.506229 64.457077h1.787446v1.787446h-1.787446z"/><path d="m34.311798 67.314888h1.787446v1.787446h-1.787446z"/><path d="m37.510872 67.314888h1.787446v1.787446h-1.787446z"/><path d="m40.709942 67.314888h1.787446v1.787446h-1.787446z"/><path d="m43.909016 67.314888h1.787446v1.787446h-1.787446z"/><path d="m47.108086 67.314888h1.787446v1.787446h-1.787446z"/><path d="m50.307159 67.314888h1.787446v1.787446h-1.787446z"/><path d="m53.506229 67.314888h1.787446v1.787446h-1.787446z"/></g><path d="m61.7013931 62.6410255c-1.4965134 0-2.7097511 1.2131844-2.7097511 2.7097511 0 1.4966202 1.2132378 2.7098007 2.7097511 2.7098007 1.4966202 0 2.7098541-1.2131805 2.7098541-2.7098007.0000001-1.4965667-1.2132339-2.7097511-2.7098541-2.7097511z" fill="#ebf0f3"/><path d="m61.7014084 63.3940849c-1.0806274 0-1.9566994.8760338-1.9566994 1.9566994 0 1.0807037.8760719 1.9567337 1.9566994 1.9567337 1.0806999 0 1.9567719-.87603 1.9567719-1.9567337-.0000001-1.0806656-.876072-1.9566994-1.9567719-1.9566994z" fill="#27a2db"/><path d="m69.4092712 62.6410255c-1.4965134 0-2.7097549 1.2131844-2.7097549 2.7097511 0 1.4966202 1.2132416 2.7098007 2.7097549 2.7098007 1.4966202 0 2.7098541-1.2131805 2.7098541-2.7098007.0000001-1.4965667-1.2132339-2.7097511-2.7098541-2.7097511z" fill="#ebf0f3"/><path d="m69.4092865 63.3940849c-1.0806274 0-1.9567032.8760338-1.9567032 1.9566994 0 1.0807037.8760757 1.9567337 1.9567032 1.9567337 1.0806961 0 1.9567719-.87603 1.9567719-1.9567337-.0000001-1.0806656-.8760758-1.9566994-1.9567719-1.9566994z" fill="#d15241"/><path d="m87.1584015 23.6670074c-.039978-.0499878-.0900269-.0999756-.1500244-.1500244-.0899658-.1300049-.2199707-.25-.3499756-.3399658-.1199951-.1099854-.25-.210022-.3900146-.2999878-.1300049-.0900269-.2699585-.1700439-.4199829-.2400513-.1500244-.0799561-.2999878-.1399536-.4500122-.1900024-.1099854-.039978-.2199707-.0699463-.3300171-.0899658-.2799683-.0700073-.5699463-.1099854-.8699951-.1099854h-.0299683c-2.0900269 0-3.7900391 1.6999512-3.7900391 3.789978v4.5800171h7.6100464v-4.5800171c0-.9000244-.3099976-1.7199706-.8300171-2.3699951zm-.6199951 5.5h-4.7000122v-3.1300049c0-1.289978 1.039978-2.3300171 2.3300171-2.3300171h.0299683c1.2900391 0 2.3400269 1.0400391 2.3400269 2.3300171v3.1300049z" fill="#2f4859"/><path d="m88.5761795 28.4747105h-8.7829895c-.5434113 0-.9839325.4405346-.9839325.9839478v7.5181675c0 .5434227.4405212.9839478.9839325.9839478h8.7829895c.5434341 0 .9839554-.4405251.9839554-.9839478v-7.5181675c0-.5434132-.4405213-.9839478-.9839554-.9839478z" fill="#e56353"/><path d="m85.1860046 32.5482826c0-.5530109-.4482956-1.0013123-1.0013123-1.0013123-.553009 0-1.0013123.4483013-1.0013123 1.0013123 0 .414463.2518387.7700806.610817.9222641v1.5841408h.7809982v-1.5841408c.3589708-.1521835.6108094-.507801.6108094-.9222641z" fill="#3a556a"/><path d="m29.0683708 24.0769806c-.1900024-.3199463-.4299927-.6099854-.7099609-.8399658-.0800171-.0900269-.1799927-.1600342-.2700195-.2299805-.1300049-.0900269-.2600098-.1800537-.4000244-.2600098-.1199951-.0700073-.2599487-.1400146-.3899536-.2000122-.0100098-.0100098-.0200195-.0100098-.0300293-.0100098-.1300049-.0599976-.2699585-.1099854-.4099731-.1400146-.1099854-.039978-.2300415-.0700073-.3599854-.0799561-.0800171-.0300293-.1700439-.0400391-.25-.0400391-.1400146-.0199585-.2800293-.0299683-.4200439-.0299683h-.0299683c-2.0900269 0-3.7900391 1.6999512-3.7900391 3.789978v4.5800171h7.6100464v-4.5800171c-.0000001-.7199705-.2000123-1.3900145-.5500489-1.9600218zm-.8999634 5.0900268h-4.7000122v-3.1300049c0-1.289978 1.039978-2.3300171 2.3300171-2.3300171h.0299683c1.2900391 0 2.3400269 1.0400391 2.3400269 2.3300171v3.1300049z" fill="#2f4859"/><path d="m30.2067852 28.4747105h-8.7829838c-.5434132 0-.9839363.4405346-.9839363.9839478v7.5181675c0 .5434227.4405231.9839478.9839363.9839478h8.7829838c.5434361 0 .9839592-.4405251.9839592-.9839478v-7.5181675c0-.5434132-.4405231-.9839478-.9839592-.9839478z" fill="#27a2db"/><path d="m26.8166161 32.5482826c0-.5530109-.4483013-1.0013123-1.0013103-1.0013123-.5530109 0-1.0013123.4483013-1.0013123 1.0013123 0 .414463.2518368.7700806.6108112.9222641v1.5841408h.7810001v-1.5841408c.3589745-.1521835.6108113-.507801.6108113-.9222641z" fill="#3a556a"/><path d="m84.1983795 72.0470123h-.0299683c-2.0900269 0-3.7900391 1.7000122-3.7900391 3.789978v4.5700073h7.6100464v-4.5700073c.0000001-2.0899658-1.7000121-3.789978-3.790039-3.789978zm2.3400269 6.9099732h-4.7000122v-3.1199951c0-1.289978 1.039978-2.3399658 2.3300171-2.3399658h.0299683c1.2900391 0 2.3400269 1.0499878 2.3400269 2.3399658v3.1199951z" fill="#2f4859"/><path d="m88.5761795 78.2669144h-8.7829895c-.5434113 0-.9839325.4405365-.9839325.9839478v7.5181656c0 .5434265.4405212.9839478.9839325.9839478h8.7829895c.5434341 0 .9839554-.4405212.9839554-.9839478v-7.5181656c0-.5434113-.4405213-.9839478-.9839554-.9839478z" fill="#44c4a1"/><path d="m85.1860046 82.3404846c0-.553009-.4482956-1.0013123-1.0013123-1.0013123-.553009 0-1.0013123.4483032-1.0013123 1.0013123 0 .4144669.2518387.7700806.610817.9222641v1.5841446h.7809982v-1.5841446c.3589708-.1521835.6108094-.5077972.6108094-.9222641z" fill="#3a556a"/><path d="m28.9884148 73.7470245c-.1000366-.1500244-.210022-.2900391-.3300171-.4200439-.0800171-.0999756-.1799927-.1900024-.2700195-.2799683-.1199951-.1099854-.2399902-.2000122-.3599854-.289978-.0800171-.0600586-.1699829-.1200562-.2600098-.1700439-.1699829-.1099854-.3599854-.2000122-.5599976-.2699585-.1099854-.0500488-.2299805-.0900269-.3499756-.1200562-.0700073-.0299683-.1400146-.039978-.210022-.0499878-.2600098-.0700073-.539978-.0999756-.8200073-.0999756h-.0299683c-2.0900269 0-3.7900391 1.7000122-3.7900391 3.789978v4.5700073h7.6100464v-4.5700073c.0000001-.7699584-.2300414-1.4899902-.6300047-2.0899658zm-.8200074 5.209961h-4.7000122v-3.1199951c0-1.289978 1.039978-2.3399658 2.3300171-2.3399658h.0299683c1.2900391 0 2.3400269 1.0499878 2.3400269 2.3399658v3.1199951z" fill="#2f4859"/><path d="m30.2067852 78.2669144h-8.7829838c-.5434132 0-.9839363.4405365-.9839363.9839478v7.5181656c0 .5434265.4405231.9839478.9839363.9839478h8.7829838c.5434361 0 .9839592-.4405212.9839592-.9839478v-7.5181656c0-.5434113-.4405231-.9839478-.9839592-.9839478z" fill="#ebf0f3"/><path d="m26.8166161 82.3404846c0-.553009-.4483013-1.0013123-1.0013103-1.0013123-.5530109 0-1.0013123.4483032-1.0013123 1.0013123 0 .4144669.2518368.7700806.6108112.9222641v1.5841446h.7810001v-1.5841446c.3589745-.1521835.6108113-.5077972.6108113-.9222641z" fill="#3a556a"/></svg>