<svg enable-background="new 0 0 110 110" height="512" viewBox="0 0 110 110" width="512" xmlns="http://www.w3.org/2000/svg"><path d="m56.5463066 57.4076042v-13.8084984h-1.8226204v13.8084984h-23.338108v18.577755h1.8226203v-16.7551346h43.5836335v16.7551346h1.8226165v-18.577755z" fill="#2f4859"/><path d="m68.7976913 21.2647686h-10.6739234c-.801548 0-1.5368195-.445034-1.9085884-1.1551628l-.6888504-1.3158283c-.371769-.7101688-1.1070404-1.1551628-1.9085884-1.1551628h-11.1453362c-1.1898079 0-2.154335.964529-2.154335 2.1542969v21.651722c0 1.1898079.9645271 2.154335 2.154335 2.154335h26.3252869c1.1898041 0 2.154335-.9645271 2.154335-2.154335v-18.025568c0-1.189768-.964531-2.154297-2.1543351-2.154297z" fill="#f7be56"/><path d="m68.4606018 22.6452484h-25.6511116c-.5062065 0-.9165993.4103909-.9165993.9165993v12.7801399c0 .5062065.4103928.9165993.9165993.9165993h25.6511116c.5062103 0 .9166031-.4103928.9166031-.9165993v-12.7801399c0-.5062084-.4103928-.9165993-.9166031-.9165993z" fill="#ebf0f3"/><path d="m42.4724045 29.0319042h10.6739273c.8015442 0 1.5368156-.445034 1.9085846-1.1551647l.6888504-1.3158264c.371769-.7101688 1.1070404-1.1551647 1.9085884-1.1551647h11.1453362c1.1898041 0 2.154335.964529 2.154335 2.1542969v17.855093c0 1.1898079-.9645309 2.154335-2.154335 2.154335h-26.3252869c-1.1898079 0-2.154335-.9645271-2.154335-2.154335v-14.2289391c0-1.1897678.9645271-2.154295 2.154335-2.154295z" fill="#fcd462"/><path d="m92.6432495 65.5814819h-29.8798675c-.835556 0-1.5128632.6773682-1.5128632 1.5129166v20.9759521c0 .835556.6773071 1.5128632 1.5128632 1.5128632h29.8798676c.835495 0 1.5128632-.6773071 1.5128632-1.5128632v-20.9759521c-.0000001-.8355484-.6773683-1.5129166-1.5128633-1.5129166z" fill="#3a556a"/><path d="m63.429485 67.762642h28.547661v18.166693h-28.547661z" fill="#44c4a1"/><path d="m77.7033463 86.8268661c-.5105057 0-.9243317.413826-.9243317.9243317 0 .510437.413826.9242706.9243317.9242706.510498 0 .9242706-.4138336.9242706-.9242706 0-.5105057-.4137726-.9243317-.9242706-.9243317z" fill="#2f4859"/><path d="m95.1883469 89.3832169h-34.9700623c-.8223724 0-1.4891129.666687-1.4891129 1.4890594 0 .8224258.6667404 1.4891129 1.4891129 1.4891129h34.9700623c.8223724 0 1.4891129-.666687 1.4891129-1.4891129-.0000001-.8223724-.6667405-1.4890594-1.4891129-1.4890594z" fill="#2f4859"/><path d="m47.236618 65.5814819h-29.8798675c-.8355522 0-1.5128622.6773682-1.5128622 1.5129166v20.9759521c0 .835556.67731 1.5128632 1.5128622 1.5128632h29.8798675c.8354988 0 1.5128632-.6773071 1.5128632-1.5128632v-20.9759521c0-.8355484-.6773643-1.5129166-1.5128632-1.5129166z" fill="#3a556a"/><path d="m18.022856 67.762642h28.547661v18.166693h-28.547661z" fill="#27a2db"/><g fill="#2f4859"><path d="m32.296711 86.8268661c-.5104961 0-.924324.413826-.924324.9243317 0 .510437.4138279.9242706.924324.9242706.5105019 0 .9242744-.4138336.9242744-.9242706 0-.5105057-.4137726-.9243317-.9242744-.9243317z"/><path d="m49.7817154 89.3832169h-34.9700604c-.8223715 0-1.4891129.666687-1.4891129 1.4890594 0 .8224258.6667414 1.4891129 1.4891129 1.4891129h34.9700623c.8223724 0 1.4891129-.666687 1.4891129-1.4891129-.000002-.8223724-.6667424-1.4890594-1.4891148-1.4890594z"/></g></svg>