<svg enable-background="new 0 0 110 110" height="512" viewBox="0 0 110 110" width="512" xmlns="http://www.w3.org/2000/svg"><path d="m67.068352 74.062546h3.151931v9.711354h-3.151931z" fill="#3a556a"/><path d="m77.461205 74.062546h3.151931v9.711354h-3.151931z" fill="#3a556a"/><path d="m93.769165 45.7119865h-39.8568382c-1.058712 0-1.9171066-1.318821-1.9171066-.2600517v28.890007c0 1.0587616.8583946 1.917099 1.9171066 1.917099h39.8568382c1.0588226 0 1.9171066-.8583374 1.9171066-1.917099v-28.890007c.0000001-1.0587692-.8582839.2600517-1.9171066.2600517z" fill="#e1e6e9"/><path d="m95.6862717 71.1903763v-25.7384415c0-1.0587692-.858284-1.9171066-1.9171066-1.9171066h-39.8568383c-1.058712 0-1.9171066.8583374-1.9171066 1.9171066v25.7384415z" fill="#474c5b"/><path d="m54.502129 46.340973h38.677231v22.276127h-38.677231z" fill="#27a2db"/><circle cx="73.841" cy="73.566" fill="#d5d6db" r="1.071"/><path d="m85.5054245 82.1391525h-23.3293343c-.6279335 0-1.1369171.5089798-1.1369171 1.1369171 0 .6278763.5089836 1.1369095 1.1369171 1.1369095h23.3293343c.6279373 0 1.1369171-.5090332 1.1369171-1.1369095 0-.6279373-.5089798-1.1369171-1.1369171-1.1369171z" fill="#3a556a"/><path d="m40.7412453 26.7537136h-22.9442215c-1.9237814 0-3.4832954 1.5595131-3.4832954 3.4832478v50.6927719c0 1.9237366 1.559514 3.4832458 3.4832954 3.4832458h22.9442215c1.9237366 0 3.4832497-1.5595093 3.4832497-3.4832458v-50.6927719c-.0000001-1.9237347-1.5595132-3.4832478-3.4832497-3.4832478z" fill="#3a556a"/><g fill="#64798a"><path d="m17.802391 31.59639h22.933443v6.285462h-22.933443z"/><path d="m17.802391 39.240871h22.933443v6.285462h-22.933443z"/><path d="m20.045124 54.731514h18.447973v24.160343h-18.447973z"/></g><circle cx="29.179" cy="75.081" fill="#e56353" r="1.665"/><path d="m76.3506622 35.4212456-1.3435363 1.3435325v-11.177761h-23.7670289v2.333147h21.4338837v8.8448048l-1.3579635-1.3577729-1.6496048 1.6496048 4.1741409 4.1745263 4.1597137-4.1604729z" fill="#3a556a"/></svg>