<svg enable-background="new 0 0 110 110" height="512" viewBox="0 0 110 110" width="512" xmlns="http://www.w3.org/2000/svg"><path d="m57.2565918 90.6353455v-22.107483h-4.5131836v22.107483h-20.9360352v3.9381713h46.385254v-3.9381713z" fill="#ebf0f3"/><path d="m69.7705994 15.426486h-30.4543419c-1.4122314 0-2.5570068 1.1447763-2.5570068 2.5569468v59.2402916c0 1.4121704 1.1447754 2.5569458 2.5570068 2.5569458h30.4543419c1.4122314 0 2.5570068-1.1447754 2.5570068-2.5569458v-59.2402916c0-1.4121704-1.1447754-2.5569468-2.5570068-2.5569468z" fill="#3a556a"/><g fill="#2f4859"><path d="m40.374855 20.83598h28.337153v9.64669h-28.337153z"/><path d="m40.374855 32.492397h28.337153v9.64669h-28.337153z"/><path d="m40.3748512 44.8799171v31.3749962h1.6665039v-29.7084922h25.0041466v29.7084922h1.6665039v-31.3749962z"/></g><path d="m55.000061 58.842289c-1.4523087 0-2.6295128 1.1772041-2.6295128 2.629425 0 1.4521751 1.1772041 2.6294212 2.6295128 2.6294212 1.4521332 0 2.6293373-1.1772461 2.6293373-2.6294212 0-1.4522209-1.1772041-2.629425-2.6293373-2.629425z" fill="#e56353"/></svg>