<svg enable-background="new 0 0 110 110" height="512" viewBox="0 0 110 110" width="512" xmlns="http://www.w3.org/2000/svg"><path d="m72.9221268 64.6002579c0 .0100098.0100098 0 .0100098 0 .0199585-.210022.039978-.4199829.0599976-.6300011.0199585-.1500244.0299683-.3099976.039978-.4700317-.0100098.1600342-.0200195.3200073-.0499878.4700317-.0100098.2100182-.0300294.4199791-.0599976.6300011zm2.3399658-10.2399864c0-.7000122-.0100098-1.4000244-.0299683-2.0900269-.0100098-.5899658-.0300293-1.1699829-.0599976-1.7399902-.0300293-.7299805-.0700073-1.460022-.1199951-2.1699829-.0300293-.4400024-.0599976-.8800049-.1000366-1.3099976-.0199585-.3600464-.0499878-.7300415-.0899658-1.0900269-.0400391-.5299683-.1000366-1.0499878-.1600342-1.5700073-.0100098-.1900024-.0299683-.3800049-.0599976-.5700073-.0700073-.6799927-.1599731-1.3499756-.2600098-2.0099487.0100098-.0100098.0100098-.0100098 0-.0200195 0-.0300293 0-.0700073-.0100098-.1000366 0-.0299683 0-.0599976-.0099487-.0899658 0-.0300293-.0100098-.0599976-.0200195-.0900269-.0100098-.1300049-.0300293-.25-.0499878-.3699951-.0700073-.4699707-.1400146-.9400024-.210022-1.3999634-.0299683-.1900024-.0599976-.3699951-.0999756-.5500488-.0800171-.4799805-.1600342-.9599609-.25-1.4299927-.1400146-.7099609-.2800293-1.4199829-.4299927-2.0999756-.1100464-.5100098-.2200317-1.0100098-.3500366-1.5100098-.1099854-.4899902-.2399902-.9799805-.3699951-1.460022-.0200195-.1199951-.0499878-.2299805-.0899658-.3399658-.0900269-.3599854-.1800537-.7000122-.2900391-1.0499878-.0800171-.3099976-.1699829-.6100464-.2600098-.9100342-.1699829-.5599976-.3399658-1.1199951-.5299683-1.6599731-.0800171-.25-.1600342-.4899902-.25-.7300415-.0800171-.2399902-.1600342-.4699707-.25-.7099609-.1300049-.3599854-.2600098-.7200317-.4000244-1.0700073-.0499878-.1400146-.1099854-.289978-.1699829-.4299927-.2000122-.5100098-.4099731-1.0200195-.6300049-1.5100098-.210022-.4899902-.4299927-.9799805-.6599731-1.4500122-.4500122-.9400024-.9200439-1.8300171-1.4200439-2.6799927-.3699951-.6300049-.75-1.2399902-1.1399536-1.8099976-.1200562-.1799927-.2400513-.3499756-.3600464-.5200195-.1799927-.2599487-.3699951-.5099487-.539978-.75-.2399902-.2999878-.4799805-.5999756-.710022-.8800049-.2799683-.329957-.5700073-.6499643-.8499756-.9499521-.1099854-.1199951-.2299805-.2400513-.3499756-.3600464-.6100464-.6199951-1.25-1.1799927-1.8900146-1.6699829-.1500244-.1099854-.2900391-.210022-.4299927-.3099976-.1600342-.1099854-.3099976-.210022-.4700317-.3099976-.3099976-.2000122-.6300049-.3900146-.9400024-.5499878-.1599731-.0900269-.3200073-.1699829-.4799805-.2399902-.1600342-.0800171-.3200073-.1500244-.4899902-.2200317-.0400391-.0199585-.0800171-.039978-.1300049-.0499878-.4800415-.2000122-.960022-.3499756-1.4500122-.4699707-.2199707-.0600586-.4400024-.1100464-.6699829-.1400146-.0499878-.0200195-.1000366-.0200195-.1500244-.0300293-.1699829-.0299683-.3499756-.0499878-.5200195-.0700073-.0199585-.0099487-.0499878-.0099487-.0699463-.0099487-.3300171-.0300293-.6600342-.0500488-.9900513-.0500488-1.4899902 0-2.9499512.3400269-4.3399658.9800415-.2600098.1199951-.5200195.25-.7800293.3899536-.0199585.0100098-.039978.0200195-.0499878.0300293-.8300171.4500122-1.6300049 1.0100098-2.4099731 1.6900024-.2600098.2199707-.5100098.4500122-.7700195.7000122-.25.2399902-.5.5-.75.7600098-.5.5299683-.9899902 1.0999765-1.4500122 1.7199717-.2299805.3099976-.4699707.6199951-.7000122.9500122-.0599976.0700073-.1099854.1499634-.1599731.2299805-.1699829.25-.3400269.5200195-.5100098.7800293-.2199707.3499756-.4400024.7099609-.6599731 1.0700073-.0100098.0099487-.0100098.0099487-.0100098.0099487-.4299927.7300415-.8400269 1.5-1.2299805 2.3000488-.2000122.3899536-.3900146.789978-.5800171 1.1999512-.25.5400391-.5 1.1000366-.7300415 1.6799927-.1299438.3200073-.2599487.6400146-.3799438.9700317-.2300415.5800171-.4500122 1.1599731-.6600342 1.7700195-.8300171 2.3699951-1.539978 4.9400024-2.1400146 7.6699829-.3099976 1.4000244-.5799561 2.8499756-.8200073 4.3399658-.1199951.7600098-.2299805 1.5200195-.3299561 2.3000488-.0700073.5100098-.1400146 1.039978-.2000122 1.5599976-.0200195.1799927-.039978.3499756-.0499878.5299683-.0700073.5800171-.1300049 1.1700439-.1799927 1.7700195-.0300293.289978-.0500488.5899658-.0700073.8900146-.0300293.2199707-.0400391.4400024-.0499878.6699829-.0200195.1400146-.0300293.289978-.0400391.4400024-.0899658 1.3499756-.1599731 2.7199707-.1900024 4.1099854-.0199585.6900024-.0299683 1.3900146-.0299683 2.0900269-.0100098.2000122-.0100098.4099731-.0100098.6199951 0 .2000122 0 .4099731.0100098.6099854 0 1 .0199585 1.9799805.0599976 2.9500122.0299683 1.0999756.0899658 2.1900024.1599731 3.2600098.0100098.1499634.0200195.289978.0400391.4400024.0099487.2199707.0199585.4400024.0499878.6599731.0199585.2999878.039978.5900269.0700073.8900146.0499878.5999718.1099854 1.1899986.1799927 1.7799644.0100098.1799927.0299683.3600464.0499878.5300293.0599976.5200195.1300049 1.039978.2000122 1.5499878.0999756.7800293.2099609 1.5499878.3299561 2.3099976.2400513 1.4899902.5100098 2.9400024.8200073 4.3400269.6000366 2.75 1.3200073 5.3299561 2.1600342 7.7099609.2099609.6100464.4299927 1.2000122.6599731 1.7800293 2.7999878 7.2199707 6.6799927 12.3800049 11.1500244 14.4299927 1.3900146.6300049 2.8499756.9699707 4.3399658.9699707.3300171 0 .6600342-.0199585.9900513-.0499878.0199585 0 .0499878 0 .0699463-.0100098.1700439-.0199585.3500366-.039978.5200195-.0699463.0499878-.0100098.1000366-.0100098.1500244-.0300293.2299805-.0300293.4500122-.0800171.6699829-.1400146.4899902-.1199951.9699707-.2699585 1.4500122-.4699707.0499878-.0100098.0899658-.0300293.1300049-.0499878.1699829-.0700073.3299561-.1400146.4899902-.2200317.1599731-.0700073.3200073-.1500244.4799805-.2399902 1.3599854-.7200317 2.6699829-1.7399902 3.9100342-3.0200195.1499634-.1499634.2999878-.3099976.4400024-.4699707 1.3499756-1.4899902 2.6199951-3.2999878 3.7699585-5.3900146.3300171-.6099854.6600342-1.25.9800415-1.9099731.2299805-.4700317.4499512-.960022.6599731-1.4500122.2200317-.4899902.4299927-1 .6300049-1.5100098.0599976-.1199951.0999756-.25.1500244-.3699951.1599731-.4000244.3099976-.7999878.4499512-1.210022.0700073-.1900024.1400146-.3800049.2000122-.5700073.0800171-.2199707.1600342-.4400024.2299805-.6699829.1300049-.3599854.25-.7299805.3600464-1.0999756.0700073-.210022.1399536-.4299927.2000122-.6500244.0999756-.3099976.1899414-.6199951.2699585-.9400024.1099854-.3599854.210022-.7299805.3099976-1.0999756.0200195-.0599976.0400391-.1199951.0499878-.1799927.1500244-.5500488.2900391-1.1100464.4200439-1.6700439.0199585-.0700073.039978-.1399536.0499878-.2099609.0899658-.3900146.1799927-.7900391.2700195-1.1900024.289978-1.3200073.5499878-2.6900024.7799683-4.0900269.0800171-.4799805.1500244-.960022.210022-1.4500122.0299683-.1099854.039978-.2099609.0499878-.3200073.0100098-.0299683.0200195-.0599976.0200195-.0899658.0099487-.0300293.0099487-.0599976.0099487-.0900269.0100098-.0299683.0100098-.0700073.0100098-.0999756v-.0100098c.1000366-.6599731.1799927-1.3200073.2600098-2 .0200195-.1900024.0499878-.3800049.0599976-.5800171.0599976-.5199585.1199951-1.039978.1600342-1.5700073.039978-.3699913.0700073-.7299767.0899658-1.0999718.0400391-.4299927.0700073-.8599854.1000366-1.2999878.0499878-.7200317.0899658-1.4400024.1199951-2.1699829.0199585-.3000488.0299683-.5900269.0299683-.8900146.0400391-.9700317.0599976-1.9500122.0599976-2.9500122.0100098-.2000122.0100098-.4099731.0100098-.6099854-.0000002-.2100222-.0000002-.4199831-.01001-.6199953zm-1.9199829 4.1799926c-.0100098.4799805-.0300293.9599609-.0599976 1.4299927-.0200195.4199829-.039978.8300171-.0700073 1.2399902-.0200195.3200073-.039978.6400146-.0700073.960022-.0299683.4500122-.0700073.8900146-.1099854 1.3299561-.0100098.1600342-.0200195.3200073-.0499878.4700317-.0100098.2100182-.0300293.4199791-.0599976.6300011-.0200195.3099976-.0500488.6099854-.0900269.9199829-.0100098.1099854-.0200195.2200317-.039978.3300171-.0499878.4699707-.1099854.9299927-.1700439 1.3900146-.0599976.4400024-.1199951.8800049-.1899414 1.3099976-.0700073.5599976-.1600342 1.1199951-.2600098 1.6699829-.0400391.289978-.0900269.5800171-.1500244.8599854-.0899658.5100098-.1799927 1.0100098-.289978 1.5100098-.0100098.0900269-.0200195.1799927-.0499878.2600098-.0700073.3999634-.1600342.789978-.25 1.1699829-.0100098.0900269-.0300293.1900024-.0600586.2800293-.1499634.6900024-.3099976 1.3699951-.4799805 2.0299683-.1199951.4800415-.2399902.9400024-.3800049 1.4000244-.0299683.1400146-.0700073.2799683-.1099854.4199829-.0999756.3400269-.1900024.6600342-.2999878.9899902-.0900269.3099976-.1799927.6300049-.2900391.9299927-.1599731.5100098-.3199463 1.0200195-.5 1.5100098-.0999756.2999878-.2099609.6000366-.3299561.9000244-.1000366.289978-.210022.5800171-.3300171.8699951-.0999756.2600098-.2000122.5100098-.3099976.7600098 0 .0299683-.0100098.0499878-.0200195.0700073-.1900024.4599609-.3800049.9099731-.5899658 1.3499756-.3099976.6799927-.6300049 1.3400269-.960022 1.9699707-.0999756.210022-.210022.4200439-.3300171.6200562-.0999756.2099609-.2199707.4099731-.3399658.6099854-.5599976.9899902-1.1500244 1.9099731-1.7800293 2.75-.1199951.1699829-.2399902.3300171-.3699951.4899902-.2399902.3300171-.5.6300049-.7600098.9299927-.1199951.1500244-.25.289978-.3899536.4299927-.1300049.1400146-.2600098.2800293-.3900146.4100342-.4899902.5099487-.9899902.9599609-1.5100098 1.3599854-.1799927.1300049-.3599854.2600098-.539978.3999634-.1400146.1000366-.2700195.1900024-.4100342.2700195-.1400146.1000366-.289978.1900024-.4299927.2600098-.1400146.0800171-.2799683.1599731-.4299927.2399902-.2000122.1099854-.4099731.210022-.6099854.2999878-.2300415.1000366-.460022.2000122-.7000122.2700195-.5900269.210022-1.1900024.3599854-1.789978.4199829-.3300171.0500488-.6600342.0700073-.9900513.0700073-1.3199463 0-2.6199951-.3200073-3.8599854-.9400024-3.8399658-1.8900146-7.25-6.5599976-9.789978-13.039978-.2300415-.5800171-.4500122-1.1699829-.6600342-1.7700195-.789978-2.25-1.4899902-4.6799927-2.0599976-7.2799683-.5100098-2.2399902-.9299927-4.6000366-1.25-7.0500488-.0499878-.3799438-.0999756-.7599487-.1399536-1.1499634-.0599976-.4899902-.1200562-.9899902-.1600342-1.4899902-.039978-.2700195-.0599976-.5400391-.0800171-.8200035-.0599976-.5100098-.0999756-1.0300293-.1300049-1.5499878-.0699463-.7600098-.1099854-1.5300293-.1499634-2.3099976-.0300293-.460022-.0499878-.9200439-.0599976-1.3900146-.0400391-.9700317-.0599976-1.960022-.0599976-2.9500122-.0100098-.2000122-.0100098-.4099731-.0100098-.6099854 0-.210022 0-.4100342.0100098-.6199951 0-.7000122.0100098-1.4000244.0299683-2.0900269.0200195-.7600098.0500488-1.5100098.0900269-2.25.039978-.7799683.0800171-1.539978.1499634-2.2999878.0300293-.5300293.0800171-1.0499878.1300049-1.5599976.0200195-.2800293.0500488-.5499878.0800171-.8200073.039978-.5.1000366-.9899902.1600342-1.4799805.039978-.3900146.0899658-.7800293.1399536-1.1600342.3200073-2.4500122.7399902-4.7999878 1.25-7.039978.5700073-2.5800171 1.2600098-5 2.0500488-7.2399902.2099609-.6000366.4199829-1.1900024.6499634-1.7700195 2.539978-6.4899902 5.9500122-11.1699839 9.789978-13.0700083 1.25-.6199951 2.5500488-.9500122 3.8800049-.9500122.3300171 0 .6600342.0200195.9900513.0599976l.1799927.0300293c.0899658.0100098.1799927.0200195.2699585.039978.6000366.1100464 1.2000122.2800293 1.7800293.5200195.0899658.0300293.1799927.0700073.2700195.1099854.0499878.0300293.1099854.0499878.1699829.0800171.8699951.4099731 1.7199707.960022 2.539978 1.6300049.1300049.1099854.2700195.2299805.4100342.3499756.3999634.3600464.7999878.750001 1.1900024 1.1799936.1399536.1400146.2699585.2800293.3899536.4300537.1300049.1499634.2600098.289978.3800049.4499512.1300049.1600342.2700195.3300171.3900146.4899902.1300049.1500244.25.3100586.3599854.4800415.1300049.1599731.25.3399658.3699951.5100098.25.3499756.4900513.7099609.7200317 1.0799561.6900024 1.1000366 1.3499756 2.2900391 1.9599609 3.5800171.1100464.2200317.2200317.460022.3200073.6900024.2600098.5599976.5100098 1.1400146.7400513 1.7299805.0899658.1900024.1599731.3800049.2399902.5800171.0299683.0900269.0700073.1699829.0999756.2600098.0999756.25.1900024.5.2800293.7600098.0999756.25.1900024.5.2699585.75 0 0 .0100098 0 .0100098.0100098.1400146.3899536.2700195.7799683.3900146 1.1799927.0200195.0299683.0299683.0499878.0299683.0700073.1300049.4099731.2600098.8199463.3900146 1.25.0900269.2799683.1699829.5699463.25.8599854.0499878.1599731.1000366.3099976.1300049.4699707.1199951.4000244.2299805.8099976.3300171 1.2300415.1300049.4899902.2600098.9899902.3699951 1.4899902.0499878.2199707.1099854.4500122.1499634.6799927.0400391.1500244.0800171.3099976.1100464.4799805.2600098 1.1600342.4899902 2.3599854.6900024 3.5900269.1699829.9699707.3200073 1.9699707.4499512 2.9799805.0600586.460022.1200562.9199829.1700439 1.3900146.0199585.1099854.0299683.2199707.039978.3300171.0300293.3099976.0700073.6099854.0900269.9199829.0299683.2000122.0499878.4099731.0599976.6199951.0199585.1599731.039978.3200073.0499878.4899902.039978.4400024.0800171.8800049.1099854 1.3300171.0300293.3200073.0499878.6400146.0700073.9599609.0300293.4100342.0499878.8200073.0700073 1.2400513.039978.75.0700073 1.5099487.0899658 2.2799683.0200195.6900024.0300293 1.3900146.0300293 2.0900269.0100098.2000122.0100098.4099731.0100098.6199951 0 .2000122 0 .4099731-.0100098.6099854.0000005.9899896-.020019 1.9799798-.059997 2.9500115z" fill="#44c4a1"/><path d="m26.622726 52.266487h56.754536v6.269396h-56.754536z" fill="#64798a"/><path d="m83.3588715 35.6567268h-56.717701c-1.7438755 0-3.1576271 1.4136963-3.1576271 3.1576271v12.3896484c0 1.7438774 1.4137516 3.1576271 3.1576271 3.1576271h56.717701c1.7438812 0 3.1575699-1.4137497 3.1575699-3.1576271v-12.3896484c-.0000001-1.7439308-1.4136887-3.1576271-3.1575699-3.1576271z" fill="#d5d6db"/><g fill="#a5a7aa"><path d="m27.098787 39.99625h2.303804v2.303776h-2.303804z"/><path d="m31.025715 39.99625h2.303804v2.303776h-2.303804z"/><path d="m34.952644 39.99625h2.303804v2.303776h-2.303804z"/><path d="m38.87957 39.99625h2.303804v2.303776h-2.303804z"/><path d="m42.8065 39.99625h2.303804v2.303776h-2.303804z"/><path d="m46.733425 39.99625h2.303804v2.303776h-2.303804z"/><path d="m50.660355 39.99625h2.303804v2.303776h-2.303804z"/><path d="m54.587284 39.99625h2.303804v2.303776h-2.303804z"/><path d="m27.098787 43.857292h2.303804v2.303776h-2.303804z"/><path d="m31.025715 43.857292h2.303804v2.303776h-2.303804z"/><path d="m34.952644 43.857292h2.303804v2.303776h-2.303804z"/><path d="m38.87957 43.857292h2.303804v2.303776h-2.303804z"/><path d="m42.8065 43.857292h2.303804v2.303776h-2.303804z"/><path d="m46.733425 43.857292h2.303804v2.303776h-2.303804z"/><path d="m50.660355 43.857292h2.303804v2.303776h-2.303804z"/><path d="m54.587284 43.857292h2.303804v2.303776h-2.303804z"/><path d="m27.098787 47.718334h2.303804v2.303776h-2.303804z"/><path d="m31.025715 47.718334h2.303804v2.303776h-2.303804z"/><path d="m34.952644 47.718334h2.303804v2.303776h-2.303804z"/><path d="m38.87957 47.718334h2.303804v2.303776h-2.303804z"/><path d="m42.8065 47.718334h2.303804v2.303776h-2.303804z"/><path d="m46.733425 47.718334h2.303804v2.303776h-2.303804z"/><path d="m50.660355 47.718334h2.303804v2.303776h-2.303804z"/><path d="m54.587284 47.718334h2.303804v2.303776h-2.303804z"/></g><circle cx="65.236" cy="41.963" fill="#64798a" r="2.232"/><circle cx="72.163" cy="41.963" fill="#64798a" r="2.232"/><circle cx="79.091" cy="41.963" fill="#64798a" r="2.232"/><circle cx="65.236" cy="48.056" fill="#64798a" r="2.232"/><circle cx="72.163" cy="48.056" fill="#64798a" r="2.232"/><circle cx="79.091" cy="48.056" fill="#64798a" r="2.232"/><path d="m83.3588715 55.5921745h-56.717701c-1.7438755 0-3.1576271 1.4136963-3.1576271 3.1576271v12.3896484c0 1.7438736 1.4137516 3.1576309 3.1576271 3.1576309h56.717701c1.7438812 0 3.1575699-1.4137573 3.1575699-3.1576309v-12.3896484c-.0000001-1.7439308-1.4136887-3.1576271-3.1575699-3.1576271z" fill="#d5d6db"/><g fill="#a5a7aa"><path d="m27.098787 59.931698h2.303804v2.303776h-2.303804z"/><path d="m31.025715 59.931698h2.303804v2.303776h-2.303804z"/><path d="m34.952644 59.931698h2.303804v2.303776h-2.303804z"/><path d="m38.87957 59.931698h2.303804v2.303776h-2.303804z"/><path d="m42.8065 59.931698h2.303804v2.303776h-2.303804z"/><path d="m46.733425 59.931698h2.303804v2.303776h-2.303804z"/><path d="m50.660355 59.931698h2.303804v2.303776h-2.303804z"/><path d="m54.587284 59.931698h2.303804v2.303776h-2.303804z"/><path d="m27.098787 63.79274h2.303804v2.303776h-2.303804z"/><path d="m31.025715 63.79274h2.303804v2.303776h-2.303804z"/><path d="m34.952644 63.79274h2.303804v2.303776h-2.303804z"/><path d="m38.87957 63.79274h2.303804v2.303776h-2.303804z"/><path d="m42.8065 63.79274h2.303804v2.303776h-2.303804z"/><path d="m46.733425 63.79274h2.303804v2.303776h-2.303804z"/><path d="m50.660355 63.79274h2.303804v2.303776h-2.303804z"/><path d="m54.587284 63.79274h2.303804v2.303776h-2.303804z"/><path d="m27.098787 67.653778h2.303804v2.303776h-2.303804z"/><path d="m31.025715 67.653778h2.303804v2.303776h-2.303804z"/><path d="m34.952644 67.653778h2.303804v2.303776h-2.303804z"/><path d="m38.87957 67.653778h2.303804v2.303776h-2.303804z"/><path d="m42.8065 67.653778h2.303804v2.303776h-2.303804z"/><path d="m46.733425 67.653778h2.303804v2.303776h-2.303804z"/><path d="m50.660355 67.653778h2.303804v2.303776h-2.303804z"/><path d="m54.587284 67.653778h2.303804v2.303776h-2.303804z"/></g><circle cx="65.236" cy="61.898" fill="#64798a" r="2.232"/><circle cx="72.163" cy="61.898" fill="#64798a" r="2.232"/><circle cx="79.091" cy="61.898" fill="#64798a" r="2.232"/><circle cx="65.236" cy="67.991" fill="#64798a" r="2.232"/><circle cx="72.163" cy="67.991" fill="#64798a" r="2.232"/><circle cx="79.091" cy="67.991" fill="#64798a" r="2.232"/><path d="m71.2221146 65.970253c.2799683-.1400146.5999756-.210022.9400024-.210022.2199707 0 .4299927.0300293.6300049.0900269.0199585-.1099854.0299683-.2200317.039978-.3300171.039978-.3099976.0700073-.6099854.0900269-.9199829-.5599976.4699707-1.1199951.9199829-1.7000122 1.3699951zm20.6699829-35.3699913c-.5-.7600098-1.0999756-1.4299927-1.789978-2.039978h-.0100098c-.789978-.6900024-1.710022-1.2700195-2.75-1.7400513-.8200073-.3899536-1.7200317-.7099609-2.6900024-.9400024-.2399902-.0599976-.4799805-.1099854-.7299805-.1699829-.75-.1599731-1.5400391-.2799683-2.3699951-.3499756-.2700195-.0300293-.5500488-.0499878-.8300171-.0700073-.289978-.0100098-.5700073-.0300293-.8699951-.0400391-.9899902-.039978-2.0300293-.0099487-3.1099854.0700073-.3099976.0200195-.6300049.0400391-.9500122.0700073-.1900024.0100098-.3800049.0300293-.5700073.0599976-.2800293.0200195-.5599976.0599976-.8500366.0900269-.5.0700073-1.0099487.1499634-1.5299683.2299805-.7700195.1300049-1.539978.2700195-2.3300171.4500122h-.0100098c-.5999756.1199951-1.2099609.2700195-1.8299561.4299927h-.0100097c-4.3800049 1.0900269-9.0100098 2.8099976-13.6600342 5.0499878-.7099609.3400269-1.4199829.6900024-2.1300049 1.0599976-1.75.8900146-3.4899902 1.8600464-5.2299805 2.9000244-1.2799683.7600098-2.5499878 1.5599976-3.8200073 2.4000244-.9599609.6299438-1.8999634 1.2799683-2.8200073 1.9399414-.7199707.5100098-1.4299927 1.0300293-2.1199951 1.5500488-.5100098.3800049-1.0100098.7600098-1.5 1.1499634-.4899902.3800049-.9699707.7700195-1.4400024 1.1600342-.2199707.1699829-.4400024.3499756-.6499634.5299683-.1199951.1000366-.2300415.1900024-.3400269.2900391-.5499878.4599609-1.0899658.9199829-1.6199951 1.3999634-.0299683.0200195-.0599976.0499878-.0899658.0800171-.5900269.5100098-1.1600342 1.0299683-1.7200317 1.5599976-.1699829.1500244-.3300171.3099976-.5.4699707-.5499878.5300293-1.0999756 1.0599976-1.6199951 1.5900269l-.2399902.2399902c-.7299805.7399902-1.4400024 1.4899902-2.1099854 2.25-.1500244.1600342-.2900391.3200073-.4300537.4799805-.2299805.25-.4599609.5100098-.6699829.7700195-.1799927.2000122-.3499756.4000244-.5199585.6000366-.2400513.289978-.4700317.5699463-.6900024.8599854h-.0100098c-.0499878.0499878-.0900269.1099854-.1199951.1599731-.2900391.3599854-.5700073.710022-.8400269 1.0700073-.0200195.0100098-.0299683.0200195-.0299683.0300293-.2800293.3699951-.5599976.7399902-.8300171 1.1099854-.1000366.1300049-.2000122.2600098-.2800293.3900146-.2299805.3200073-.4499512.6399536-.6699829.9599609-.289978.4200439-.5599976.8300171-.8200073 1.2399902-.2000122.3099976-.3900146.6200562-.5700073.9200439-.3699951.6099854-.7099609 1.2099609-1.0299683 1.8099976-.960022 1.7899742-1.710022 3.5199547-2.2200317 5.1699791-.0899658.2700195-.1699829.539978-.2399902.8099976-.1599731.539978-.2799683 1.0700073-.3699951 1.5999756-.2799683 1.3800049-.3699951 2.7000122-.2700195 3.9400024.0100098.3000488.0400391.6100464.0900269.9000244v.0100098h.0100098c.2099609 1.5700073.7299805 2.9899902 1.5700073 4.25.6999512 1.0599976 1.5899658 1.9699707 2.6399536 2.710022 2.5700073 1.8199463 6.1199951 2.7099609 10.3500366 2.7099609 2.5700073 0 5.3999634-.3300171 8.4099731-.9799805.6099854-.1300049 1.2200317-.2700195 1.8400269-.4400024 1.9699707-.4899902 4-1.1199951 6.0800171-1.8699951 2.4599609-.8900146 5-1.960022 7.5699463-3.210022.710022-.3399658 1.4200439-.7000122 2.1400146-1.0700073 1.7299805-.8899536 3.460022-1.8599854 5.210022-2.8999634 1.2699585-.7600098 2.5499878-1.5700073 3.8200073-2.4100342 1.3800049-.9099731 2.7299805-1.8499756 4.039978-2.8200073.8200073-.5899658 1.6199951-1.1999512 2.4099731-1.8299561.3600464-.2800293.7200317-.5599976 1.0800171-.8600464.3400269-.2599487.6699829-.539978 1-.8099976.0100098-.0099487.0100098-.0099487.0100098-.0099487.9000244-.75 1.7700195-1.5100098 2.6199951-2.2900352 1.1199951-.9899902 2.2000122-2.0100098 3.2200317-3.0499878.5599976-.5599976 1.0999756-1.1199951 1.6199951-1.6799927.4199829-.4400024.8200073-.8900146 1.2099609-1.3300171.2300415-.2600098.460022-.5200195.6700439-.7799683.1799927-.2000122.3499756-.4000244.5199585-.6000366.2399902-.2799683.4700317-.5599976.6900024-.8499756 1.3500366-1.6500244 2.5499878-3.3099976 3.6000366-4.960022 3.3399658-5.25 4.9299927-10.0499878 4.7199707-14.039978-.0999755-2.0200197-.6699828-3.8300172-1.6900023-5.380005zm-4.6099854 18.4099731c-.25.3900146-.5.7800293-.7700195 1.1700439-.75 1.1099854-1.5799561 2.2299805-2.4599609 3.3399658-.2200317.2700195-.4400024.5499878-.6700439.8200073 0 0-.0100098.0100098-.0199585.0200195-.1600342.2000122-.3400269.4099731-.5100098.6199951-.1799927.2000122-.3500366.3999634-.5300293.6099854-.8599854.9899902-1.7699585 1.9700317-2.7399902 2.9500122-.4099731.4299927-.8399658.8599854-1.2799683 1.2799683-.0900269.1000366-.1900024.1900024-.2800293.2800293-.3200073.3099976-.6400146.6099854-.9699707.9099731-.6800537.6400146-1.3800049 1.2700195-2.1000366 1.8900146-.6599731.5800171-1.3300171 1.1500206-2.0199585 1.7000084 0 0-.0100098.0100098-.0100098 0-.5599976.4699707-1.1199951.9199829-1.7000122 1.3699951-.2600098.2000122-.5200195.4099731-.7800293.5999756l-.0099487.0100098c-1.0200195.7800293-2.0600586 1.5400391-3.1300049 2.2800293-.6500244.4599609-1.3099976.9099731-1.9800415 1.3599854-.0599976.0299683-.1099854.0700073-.1699829.1099854-2.1799927 1.4400024-4.3699951 2.7700195-6.5499878 3.9700317-1.210022.6699829-2.4100342 1.289978-3.6000366 1.8800049-.7199707.3599854-1.4299927.6999512-2.1399536 1.0199585-4.2300415 1.960022-8.3400269 3.4200439-12.1700439 4.3800049-.6199951.1600342-1.2399902.2999878-1.8399658.4299927-7.2200317 1.5300293-13.2600098 1.1400146-16.9100342-1.3999634-.9099731-.6199951-1.6799927-1.3900146-2.2699585-2.2900391-.7000122-1.0599976-1.1400146-2.2699585-1.3099976-3.6099854-.5100098-3.7199707.9699707-8.4699707 4.3499756-13.7700157.25-.3899536.5-.7799683.7700195-1.1699829.75-1.1099854 1.5799561-2.2299805 2.4699707-3.3399658.210022-.2700195.4299927-.5500488.6699829-.8200073 0-.0100098 0-.0100098.0100098-.0200195h.0100098c.1600342-.2000122.3300171-.4099731.5100098-.6099854.1699829-.210022.3400269-.4100342.5300293-.6199951.5999756-.7000122 1.2399902-1.4000244 1.8999634-2.0900269.710022-.7600098 1.460022-1.5100098 2.2299805-2.25.4900513-.4899902 1-.9699707 1.5200195-1.4400024.5599976-.5100098 1.1300049-1.0199585 1.710022-1.5299683.3499756-.3000488.6900024-.6000366 1.0499878-.8900146.3200073-.2800293.6500244-.5499878.9899902-.8200073.0499878-.0499878.1099854-.0999756.1699829-.1400146.5300293-.4400024 1.0700073-.8699951 1.6300049-1.2999878.0100098-.0100098.0300293-.0299683.0500488-.039978.6799927-.5300293 1.3699951-1.0499878 2.0699463-1.5599976.0599976-.0500488.1199951-.0900269.1800537-.1300049.5299683-.3900146 1.0699463-.7800293 1.6199951-1.1500244.4899902-.3499756.9899902-.6900024 1.4899902-1.0200195.1799927-.1299438.3699951-.2599487.5599976-.3799438 2.1699829-1.4300537 4.3599854-2.7600098 6.5599976-3.960022 1.2000122-.6699829 2.3900146-1.2999878 3.5899658-1.8800049.710022-.3599854 1.4200439-.7000122 2.1300049-1.0200195 4.1600342-1.9199829 8.2800293-3.3899536 12.1900024-4.3399658.6199951-.1700439 1.2300415-.2999878 1.8400269-.4200439.6699829-.1499634 1.3399658-.2699585 1.9899902-.3799438 2.1099854-.3500366 4.0800171-.5300293 5.8800049-.5300293 4.0899658 0 7.3399658.8900146 9.5299683 2.6300049.7000122.5499878 1.2900391 1.1799927 1.7700195 1.9099731.8900146 1.3600464 1.3599854 2.9700317 1.4000244 4.7900391.0899656 3.5199583-1.4200441 7.8299559-4.4500124 12.5899656z" fill="#44c4a1"/><path d="m88.8621292 59.9402275c-1.0500488-1.6499634-2.25-3.3099976-3.6000366-4.9599609-.2199707-.2900391-.4500122-.5700073-.6900024-.8599854-.1699829-.2000122-.3399658-.4000244-.5199585-.6000366-.210022-.2600098-.4400024-.5200195-.6700439-.7700195-.1399536-.1599731-.2799683-.3199463-.4299927-.4799805-.7600098-.8499756-1.5700073-1.7000122-2.3999634-2.5299683-1.0200195-1.0400391-2.1000366-2.0599976-3.2200317-3.0599976-.8499756-.7800293-1.7199707-1.5300293-2.6199951-2.2800293 0 0 0 0-.0100098-.0100098-.3300171-.2699585-.6599731-.5499878-1-.8099976-.3599854-.2999878-.7199707-.5899658-1.0800171-.8699951-.789978-.6199951-1.5899658-1.2299805-2.4099731-1.8300171-1.3099976-.9599609-2.6599731-1.8999634-4.039978-2.8199463-1.2600098-.8400269-2.5400391-1.6400146-3.8200073-2.4000244-1.7300415-1.039978-3.4800415-2.0100098-5.2200317-2.9000244-.7099609-.3699951-1.4199829-.7199707-2.1300049-1.0599976-4.6599731-2.2399902-9.2799683-3.9599609-13.6699829-5.0499878-.6199951-.1599731-1.2299805-.3099976-1.8399658-.4299927-.0100098-.0100098-.0100098 0-.0100098 0-.3699951-.0800171-.7300415-.1500244-1.1000366-.2299805-.4199829-.0800171-.8200073-.1500244-1.2299805-.2200317-2.2000122-.3599854-4.25-.539978-6.1500244-.539978-.3599854 0-.7099609.0100098-1.0499878.0199585-.0499878 0-.0899658 0-.1300049.0100098-.3399658.0100098-.6799927.0300293-1.0100098.0599976-.6799927.0500488-1.3299561.1300049-1.9599609.2400513-.2600098.0499878-.5200195.0899658-.7700195.1499634-.25.0499878-.4899902.1099854-.7299805.1699829s-.4700317.1199951-.7000122.1900024c-.0100098 0-.0200195 0-.0300293.0100098-.6899414.2000122-1.3499756.4500122-1.9599609.7399902-1.0400391.4700317-1.960022 1.0500488-2.75 1.7400513h-.0100098c-.6900024.6099854-1.289978 1.2799683-1.789978 2.039978-1.0300293 1.5499878-1.5900269 3.3699951-1.6900024 5.3800049-.0100098.0899658-.0100098.1799927 0 .2699585-.1300049 3.7000122 1.2699585 8.0800171 4.1499634 12.8500366.1799927.2999878.3699951.6099854.5700073.9199829.2600098.4100342.5300293.8200073.8200073 1.2399902.2200317.3200073.4400024.6400146.6699829.960022.0800171.1300049.1799927.2600098.2800293.3900146.2700195.3699951.5499878.7399902.8300171 1.1099854 0 .0100098.0099487.0200195.0299683.0299683.2399902.3300171.5.6500244.7600098.9800415.0599976.0899658.1300049.1699829.2000122.25h.0100098c.2199707.289978.4499512.5700073.6900024.8499756.1699829.2000122.3399658.4000244.5199585.6000366.210022.2599487.4400024.5199585.6699829.7799683.3900146.4400024.7900391.8900146 1.210022 1.3300171.4299927.4599609.8699951.9299927 1.3200073 1.3900146.0800171.0799561.1599731.1599731.25.25.4099731.4099731.8200073.8199463 1.25 1.2299805.1199951.1199951.25.2399902.3699951.3499756.1699829.1700439.3400269.3300171.5100098.4800415.5499878.5299683 1.1199951 1.039978 1.7000122 1.5499878.0299683.0299683.0599976.0599976.0999756.0899658.5300293.4700279 1.0700073.9399986 1.6199951 1.4000206.1099854.0999756.2200317.1900024.3400269.289978.2099609.1799927.4299927.3500366.6499634.5300293.4700317.3900146.9500122.7700195 1.4400024 1.1499634.4899902.3900146.9899902.7800293 1.5 1.1600342.6900024.5200195 1.4000244 1.039978 2.1199951 1.5499878.9200439.6500244 1.8600464 1.2999878 2.8200073 1.9299927 1.2800293.8400269 2.5499878 1.6500244 3.8300171 2.4100342 1.7399902 1.039978 3.4899902 2.0100098 5.210022 2.8999634.7199707.3699951 1.4299927.7300415 2.1399536 1.0700073 4.7400513 2.2900391 9.3500366 4 13.6400146 5.0800171h.0100098c.6199951.1599731 1.2299805.3099976 1.8300171.4400024h.0100098c3.0099487.6499634 5.8399658.9799805 8.4099731.9799805 3.9299927 0 7.2700195-.7700195 9.789978-2.3499756 1.3000488-.7999878 2.3800049-1.8200073 3.2000122-3.0700073.710022-1.0800171 1.2000122-2.2800293 1.4700317-3.5900269.8800047-4.3099975-.6500246-9.7699585-4.5000002-15.8200035zm1.4699707 18.3800011c-.7700195 1.1600342-1.8099976 2.1000366-3.0999756 2.8099976-3.7000122 2.0700073-9.3900146 2.3000488-16.0900269.8800049-.5999756-.1300049-1.2099609-.2699585-1.8300171-.4299927h-.0099487c-3.8300171-.9599609-7.9400024-2.4199829-12.1600342-4.3800049-.7099609-.3200073-1.4199829-.6599731-2.1400146-1.0199585-1.1900024-.5800171-2.3899536-1.210022-3.5999756-1.8800049-2.1799927-1.2000122-4.3699951-2.5300293-6.5499878-3.9700317-.1900024-.1199951-.3699951-.25-.5499878-.3699951-.5100098-.3399658-1.0100098-.6799927-1.5-1.0299683-.5500488-.3699951-1.0900269-.7600098-1.6199951-1.1500244-.0600586-.039978-.1200562-.0800171-.1800537-.1300049-.6999512-.5100098-1.3800049-1.0200195-2.0499878-1.5499878-.0299683-.0100098-.0499878-.0300293-.0700073-.0499878-.5599976-.4299927-1.0999756-.8600464-1.6300049-1.3000488-.0599976-.039978-.1199951-.0899658-.1699829-.1399536-.3399658-.2700195-.6699829-.5400391-.9899902-.8200035-.3599854-.2900391-.7000122-.5900269-1.0499878-.8900146-.5800171-.5100098-1.1500244-1.0200195-1.710022-1.5299683-.5200195-.4700317-1.0299683-.9500122-1.5200195-1.4400024-.4799805-.460022-.9499512-.9200439-1.3999634-1.3900146-.960022-.9799805-1.8699951-1.960022-2.7299805-2.9500122-.1800537-.210022-.3600464-.4099731-.5300293-.6099854-.1799927-.210022-.3499756-.4199829-.5100098-.6199951-.0200195-.0100098-.0200195-.0200195-.0200195-.0200195-.2299805-.2700195-.4499512-.5499878-.6699829-.8200073-.8900146-1.1099854-1.7099609-2.2299805-2.4699707-3.3399658-.2700195-.3900146-.5200195-.7800293-.7700195-1.1700439-3.0299683-4.7600098-4.539978-9.0700073-4.4400024-12.5899658.039978-1.8200073.5-3.4299927 1.4000244-4.7900391.4799805-.7199707 1.0700073-1.3599854 1.7699585-1.8999634 3.1500244-2.5100098 8.5-3.2600098 15.4100342-2.1099854.6499634.1099854 1.3099976.2299805 1.9799805.3699951.6099854.1199951 1.2299805.2599487 1.8500366.4299927 3.9099731.9500122 8.0299683 2.4199829 12.1899414 4.3399658.710022.3200073 1.4200439.6600342 2.1300049 1.0200195 1.2000122.5800171 2.3900146 1.210022 3.5900269 1.8800049 2.2000122 1.2000122 4.3900146 2.5299683 6.5599976 3.960022.0599976.039978.1099854.0799561.1699829.1099854.6700439.4500122 1.3300171.8999634 1.9800415 1.3599854 1.0699463.7399902 2.1099854 1.5 3.1300049 2.2800293l.0099487.0099487c.25.1900024.5100098.3800049.7600098.5900269.5800171.4400024 1.1600342.9000244 1.7200317 1.3800049 0-.0100098.0100098 0 .0100098 0 .6899414.5499878 1.3599854 1.1199951 2.0199585 1.7000122.710022.6199951 1.4100342 1.2399902 2.0900269 1.8800049.4299927.3999634.8599854.7999878 1.2799683 1.2199707.7200317.7000122 1.4200439 1.4100342 2.0900269 2.1199951.6699829.6900024 1.2999878 1.3900146 1.9099731 2.0900269.1799927.2099609.3600464.4099731.5300293.6199951.1799927.2000122.3499756.4099731.5100098.6099854h.0099487c0 .0100098.0100098.0100098.0100098.0200195.2300415.2699585.4500122.5499878.6700439.8200073.8899536 1.1099854 1.7099609 2.2299805 2.4599609 3.3399658.2700195.3900146.5200195.7800293.7700195 1.1699829 3.4199829 5.3600426 4.8900146 10.1500206 4.3399658 13.8900108-.1799928 1.2999875-.6099855 2.4700315-1.2899782 3.48999z" fill="#44c4a1"/><path d="m55.9961243 10.8148003v1.8775768c9.6886749 1.1947699 17.4115219 19.7023945 17.4115219 42.2843628s-7.722847 41.0900497-17.4115219 42.2848206v1.8775711c10.8883972-1.0970078 19.2782211-20.0977402 19.2782211-44.1623917 0-24.0641918-8.3898239-43.0649252-19.2782211-44.1619396z" fill="#44c4a1"/><ellipse cx="54.762" cy="11.705" fill="#e56353" rx="4.102" ry="4.102" transform="matrix(.707 -.707 .707 .707 7.763 42.151)"/><ellipse cx="90.619" cy="78.811" fill="#e56353" rx="4.102" ry="4.102" transform="matrix(.707 -.707 .707 .707 -29.186 87.16)"/><ellipse cx="18.259" cy="78.811" fill="#e56353" rx="4.102" ry="4.102" transform="matrix(.707 -.707 .707 .707 -50.38 35.994)"/><ellipse cx="18.259" cy="32.315" fill="#e56353" rx="4.102" ry="4.102" transform="matrix(.707 -.707 .707 .707 -17.503 22.376)"/><ellipse cx="54.762" cy="98.295" fill="#e56353" rx="4.102" ry="4.102" transform="matrix(.707 -.707 .707 .707 -53.466 67.513)"/><ellipse cx="91.741" cy="32.315" fill="#e56353" rx="4.102" ry="4.102" transform="matrix(.707 -.707 .707 .707 4.02 74.336)"/></svg>