<svg enable-background="new 0 0 110 110" height="512" viewBox="0 0 110 110" width="512" xmlns="http://www.w3.org/2000/svg"><g fill="#64798a"><path d="m74.1999054 33.9461441v-1.7302933h-17.4769554v18.8937989h-5.2660675v1.7302932h5.2660675v18.8942185h17.4769554v-1.7302857h-15.7466621v-36.0577316z"/><ellipse cx="30.744" cy="64.355" rx="15.906" ry="4.887"/><path d="m46.6504974 64.3547668h-31.8124876v-4.8868598l31.8124876.1484298z"/></g><ellipse cx="30.744" cy="59.468" fill="#2f4859" rx="15.906" ry="4.887"/><ellipse cx="30.744" cy="58.298" fill="#64798a" rx="15.906" ry="4.887"/><path d="m46.6504974 58.298336h-31.8124876v-4.8868637l31.8124876.1484337z" fill="#64798a"/><ellipse cx="30.744" cy="53.411" fill="#2f4859" rx="15.906" ry="4.887"/><ellipse cx="30.744" cy="52.242" fill="#64798a" rx="15.906" ry="4.887"/><path d="m46.6504974 52.2419052h-31.8124876v-4.8868637l31.8124876.1484299z" fill="#64798a"/><ellipse cx="30.744" cy="47.355" fill="#2f4859" rx="15.906" ry="4.887"/><ellipse cx="30.744" cy="46.185" fill="#64798a" rx="15.906" ry="4.887"/><path d="m46.6504974 46.1854706h-31.8124876v-4.8868599l31.8124876.1484299z" fill="#64798a"/><ellipse cx="30.744" cy="41.299" fill="#768b99" rx="15.906" ry="4.887"/><path d="m76.0872269 48.9885292h9.5049438c-.8565369-1.8626747-.5424042-3.7253113.9531479-5.587986-3.8037186-1.1843567-7.6074371-1.1843567-11.4112396 0 1.4954605 1.8626747 1.8095932 3.7253113.9531479 5.587986z" fill="#2f4859"/><path d="m94.3359604 23.5686512h-26.9925232c-.4562073 0-.8260345.378521-.8260345.8454456v19.3478661c0 .4669266.3698273.8454475.8260345.8454475h26.9925232c.4562225 0 .8260269-.378521.8260269-.8454475v-19.3478661c0-.4669246-.3698044-.8454456-.8260269-.8454456z" fill="#3a556a"/><path d="m73.044136 20.435734h15.591047v25.290218h-15.591047z" fill="#fcd462" transform="matrix(0 1 -1 0 113.921 -47.759)"/><path d="m72.419113 48.030365h16.841166v1.61989h-16.841166z" fill="#64798a"/><path d="m76.0872269 85.5214767h9.5049438c-.8565369-1.8626785-.5424042-3.7253113.9531479-5.5879898-3.8037186-1.1843567-7.6074371-1.1843567-11.4112396 0 1.4954605 1.8626786 1.8095932 3.7253113.9531479 5.5879898z" fill="#2f4859"/><path d="m94.3359604 60.3497429h-26.9925232c-.4562073 0-.8260345.3785248-.8260345.8454475v19.3478699c0 .4669189.3698273.8454437.8260345.8454437h26.9925232c.4562225 0 .8260269-.3785248.8260269-.8454437v-19.3478699c0-.4669227-.3698044-.8454475-.8260269-.8454475z" fill="#3a556a"/><path d="m73.044136 57.216827h15.591047v25.290218h-15.591047z" fill="#27a2db" transform="matrix(0 1 -1 0 150.702 -10.978)"/><path d="m72.419113 84.811462h16.841166v1.61989h-16.841166z" fill="#64798a"/></svg>