<svg enable-background="new 0 0 110 110" height="512" viewBox="0 0 110 110" width="512" xmlns="http://www.w3.org/2000/svg"><path d="m93.2258301 36.9978714v-2h-14.0463867v19.0019531h-48.3588868v-19.0019531h-14.0463867v2h12.0463867v17.0019531h-12.0463867v2h12.0463867v16.284668h-12.0463867v2h14.0463867v-18.284668h48.3588868v18.284668h14.0463867v-2h-12.0463867v-16.284668h10.8417968v-2h-10.8417968v-17.0019531z" fill="#3a556a"/><path d="m68.9627533 26.1390076h-29.1303101c-.852356 0-1.543335.690979-1.543335 1.543335v54.6353149c0 .852356.690979 1.543335 1.543335 1.543335h29.1303101c.852356 0 1.5432739-.690979 1.5432739-1.543335v-54.635315c0-.8523559-.6909179-1.5433349-1.5432739-1.5433349z" fill="#64798a"/><path d="m40.289352 28.138763h28.216797v53.722168h-28.216797z" fill="#3a556a"/><g fill="#64798a"><path d="m41.642799 29.489744h25.509905v7.606165h-25.509905z"/><path d="m41.642799 38.262436h25.509905v7.606165h-25.509905z"/><path d="m41.642799 47.035126h25.509905v7.606165h-25.509905z"/><path d="m54.3977203 64.5469666c-1.6864624 0-3.0536499 1.3671875-3.0536499 3.0537109s1.3671875 3.0537109 3.0536499 3.0537109c1.6865234 0 3.0537109-1.3671875 3.0537109-3.0537109s-1.3671874-3.0537109-3.0537109-3.0537109z"/></g><path d="m54.3977394 73.0572815c-.7464638 0-1.3516045.6051483-1.3516045 1.3516312 0 .7464905.6051407 1.3516312 1.3516045 1.3516312.7464867 0 1.3516312-.6051407 1.3516312-1.3516312 0-.7464829-.6051445-1.3516312-1.3516312-1.3516312z" fill="#e56353"/><ellipse cx="94.816" cy="36.015" fill="#fcd462" rx="4.943" ry="4.943" transform="matrix(.973 -.23 .23 .973 -5.738 22.748)"/><ellipse cx="94.816" cy="54.641" fill="#27a2db" rx="4.943" ry="4.943" transform="matrix(.973 -.23 .23 .973 -10.018 23.246)"/><ellipse cx="94.816" cy="73.267" fill="#44c4a1" rx="4.943" ry="4.943" transform="matrix(.973 -.23 .23 .973 -14.297 23.744)"/><ellipse cx="15.184" cy="36.015" fill="#fcd462" rx="4.943" ry="4.943" transform="matrix(.973 -.23 .23 .973 -7.868 4.452)"/><ellipse cx="15.184" cy="54.641" fill="#27a2db" rx="4.943" ry="4.943" transform="matrix(.973 -.23 .23 .973 -12.148 4.95)"/><ellipse cx="15.184" cy="73.267" fill="#44c4a1" rx="4.943" ry="4.943" transform="matrix(.973 -.23 .23 .973 -16.427 5.449)"/></svg>