<svg enable-background="new 0 0 110 110" height="512" viewBox="0 0 110 110" width="512" xmlns="http://www.w3.org/2000/svg"><path d="m81.4732971 58.0604248h-25.2353477v-15.6199417h-2.4762993v15.6199417h-25.2349453c-.6839638 0-1.2381496.5541878-1.2381496 1.2381516v16.3107605c0 .68396.5541859 1.2381516 1.2381496 1.2381516s1.2381496-.5541916 1.2381496-1.2381516v-15.0726128h23.9967957v18.9103889h2.4762993v-18.9103889h23.9971962v15.0726128c0 .68396.5541916 1.2381516 1.2381516 1.2381516.6839676 0 1.2381516-.5541916 1.2381516-1.2381516v-16.3107605c-.0000001-.6839638-.5541841-1.2381516-1.2381517-1.2381516z" fill="#3a556a"/><path d="m72.6759109 69.4308777h7.1339951c.5357208 0 1.0271454-.2974396 1.2756195-.7720566l.4603958-.8794479c.2484741-.4746475.7398987-.7720566 1.2756195-.7720566h7.4490662c.7952118 0 1.4398651.6446457 1.4398651 1.4398346v16.2269974c0 .7952194-.6446533 1.4398651-1.4398651 1.4398651h-17.594696c-.7952194 0-1.4398651-.6446457-1.4398651-1.4398651v-13.8034287c-.0000001-.7951889.6446456-1.4398422 1.439865-1.4398422z" fill="#f7be56"/><path d="m90.4078751 72.7799377h-17.8692093c-.7194366 0-1.3026047.5832138-1.3026047 1.3026047v10.7288895c0 .7193909.583168 1.3025513 1.3026047 1.3025513h17.8692093c.7194366 0 1.3026047-.5831604 1.3026047-1.3025513v-10.7288895c-.0000001-.7193908-.5831681-1.3026047-1.3026047-1.3026047z" fill="#fcd462"/><path d="m46.2026482 69.4308777h7.1339951c.5357208 0 1.0271454-.2974396 1.2756195-.7720566l.4603996-.8794479c.2484741-.4746475.7398987-.7720566 1.2756157-.7720566h7.44907c.7952118 0 1.4398651.6446457 1.4398651 1.4398346v16.2269974c0 .7952194-.6446533 1.4398651-1.4398651 1.4398651h-17.5946999c-.7952156 0-1.4398651-.6446457-1.4398651-1.4398651v-13.8034287c0-.7951889.6446495-1.4398422 1.4398651-1.4398422z" fill="#f7be56"/><path d="m63.9346123 72.7799377h-17.8692055c-.7194366 0-1.3026009.5832138-1.3026009 1.3026047v10.7288895c0 .7193909.5831642 1.3025513 1.3026009 1.3025513h17.8692055c.7194405 0 1.3026009-.5831604 1.3026009-1.3025513v-10.7288895c-.0000001-.7193908-.5831605-1.3026047-1.3026009-1.3026047z" fill="#fcd462"/><path d="m19.7293892 69.4308777h7.1339951c.5357208 0 1.0271454-.2974396 1.2756195-.7720566l.4603977-.8794479c.2484741-.4746475.7398987-.7720566 1.2756176-.7720566h7.4490662c.7952156 0 1.4398689.6446457 1.4398689 1.4398346v16.2269974c0 .7952194-.6446533 1.4398651-1.4398689 1.4398651h-17.594696c-.7952156 0-1.4398651-.6446457-1.4398651-1.4398651v-13.8034287c-.0000001-.7951889.6446494-1.4398422 1.439865-1.4398422z" fill="#f7be56"/><path d="m37.4613533 72.7799377h-17.8692055c-.7194366 0-1.3026028.5832138-1.3026028 1.3026047v10.7288895c0 .7193909.5831661 1.3025513 1.3026028 1.3025513h17.8692055c.7194366 0 1.3026047-.5831604 1.3026047-1.3025513v-10.7288895c0-.7193908-.5831681-1.3026047-1.3026047-1.3026047z" fill="#fcd462"/><ellipse cx="55" cy="46.599" fill="#d5d6db" rx="13.13" ry="4.034"/><path d="m68.1295319 46.5994034h-26.2590676v-4.0337753l26.2590676.1225166z" fill="#d5d6db"/><ellipse cx="55" cy="42.566" fill="#bfc0c4" rx="13.13" ry="4.034"/><ellipse cx="55" cy="41.793" fill="#d5d6db" rx="13.13" ry="4.034"/><path d="m68.1295319 41.7925987h-26.2590676v-4.0337753l26.2590676.1225204z" fill="#d5d6db"/><ellipse cx="55" cy="37.759" fill="#bfc0c4" rx="13.13" ry="4.034"/><ellipse cx="55" cy="36.926" fill="#d5d6db" rx="13.13" ry="4.034"/><path d="m68.1295319 36.9257431h-26.2590676v-4.0337753l26.2590676.1225204z" fill="#d5d6db"/><ellipse cx="55" cy="32.892" fill="#bfc0c4" rx="13.13" ry="4.034"/><ellipse cx="55" cy="31.954" fill="#d5d6db" rx="13.13" ry="4.034"/><path d="m68.1295319 31.953537h-26.2590676v-4.0337772l26.2590676.1225204z" fill="#d5d6db"/><ellipse cx="55" cy="27.92" fill="#e1e6e9" rx="13.13" ry="4.034"/></svg>