<svg enable-background="new 0 0 110 110" height="512" viewBox="0 0 110 110" width="512" xmlns="http://www.w3.org/2000/svg"><path d="m70.201683 75.2903595v-13.5168686h-30.5226707v13.5168686h-1.9137955v-15.4315033h16.2182312v-5.2941627h1.9146347v5.2941627h16.218235v15.4315033z" fill="#64798a"/><path d="m78.8959274 67.430687h-15.2897224c-.7377434 0-1.3358765.5980988-1.3358765 1.3358765v25.5813522c0 .7377701.5981331 1.3358688 1.3358765 1.3358688h15.2897224c.7378082 0 1.3358765-.5980988 1.3358765-1.3358688v-25.5813523c0-.7377777-.5980682-1.3358764-1.3358765-1.3358764z" fill="#3a556a"/><g fill="#2f4859"><path d="m64.931564 69.590302h12.481774v1.409233h-12.481774z"/><path d="m64.931564 72.49427h12.481774v1.409233h-12.481774z"/><path d="m64.931564 75.398247h12.481774v1.409233h-12.481774z"/><path d="m64.931564 78.302216h12.481774v1.409233h-12.481774z"/><path d="m64.931564 81.206184h12.481774v1.409233h-12.481774z"/><path d="m64.931564 84.110153h12.481774v1.409233h-12.481774z"/><path d="m64.931564 87.014122h12.481774v1.409233h-12.481774z"/></g><path d="m69.605644 69.590302h3.133608v1.409233h-3.133608z" fill="#ebf0f3"/><path d="m69.605644 72.49427h3.133608v1.409233h-3.133608z" fill="#ebf0f3"/><path d="m69.605644 75.398247h3.133608v1.409233h-3.133608z" fill="#ebf0f3"/><path d="m69.605644 78.302216h3.133608v1.409233h-3.133608z" fill="#ebf0f3"/><path d="m69.605644 81.206184h3.133608v1.409233h-3.133608z" fill="#ebf0f3"/><path d="m69.605644 84.110153h3.133608v1.409233h-3.133608z" fill="#ebf0f3"/><path d="m69.605644 87.014122h3.133608v1.409233h-3.133608z" fill="#ebf0f3"/><path d="m71.2511292 89.9229736c-.8379364 0-1.5172653.6792603-1.5172653 1.5171967 0 .837944.6793289 1.5172043 1.5172653 1.5172043.837944 0 1.5171356-.6792603 1.5171356-1.5172043 0-.8379364-.6791916-1.5171967-1.5171356-1.5171967z" fill="#e56353"/><path d="m46.393795 67.430687h-15.2897205c-.7377434 0-1.3358746.5980988-1.3358746 1.3358765v25.5813522c0 .7377701.5981312 1.3358688 1.3358746 1.3358688h15.2897205c.737812 0 1.3358765-.5980988 1.3358765-1.3358688v-25.5813523c0-.7377777-.5980644-1.3358764-1.3358765-1.3358764z" fill="#3a556a"/><g fill="#2f4859"><path d="m32.429432 69.590302h12.481774v1.409233h-12.481774z"/><path d="m32.429432 72.49427h12.481774v1.409233h-12.481774z"/><path d="m32.429432 75.398247h12.481774v1.409233h-12.481774z"/><path d="m32.429432 78.302216h12.481774v1.409233h-12.481774z"/><path d="m32.429432 81.206184h12.481774v1.409233h-12.481774z"/><path d="m32.429432 84.110153h12.481774v1.409233h-12.481774z"/><path d="m32.429432 87.014122h12.481774v1.409233h-12.481774z"/></g><path d="m37.103516 69.590302h3.133608v1.409233h-3.133608z" fill="#ebf0f3"/><path d="m37.103516 72.49427h3.133608v1.409233h-3.133608z" fill="#ebf0f3"/><path d="m37.103516 75.398247h3.133608v1.409233h-3.133608z" fill="#ebf0f3"/><path d="m37.103516 78.302216h3.133608v1.409233h-3.133608z" fill="#ebf0f3"/><path d="m37.103516 81.206184h3.133608v1.409233h-3.133608z" fill="#ebf0f3"/><path d="m37.103516 84.110153h3.133608v1.409233h-3.133608z" fill="#ebf0f3"/><path d="m37.103516 87.014122h3.133608v1.409233h-3.133608z" fill="#ebf0f3"/><path d="m38.7490005 89.9229736c-.8379364 0-1.5172691.6792603-1.5172691 1.5171967 0 .837944.6793327 1.5172043 1.5172691 1.5172043.8379402 0 1.5171356-.6792603 1.5171356-1.5172043.0000001-.8379364-.6791953-1.5171967-1.5171356-1.5171967z" fill="#e56353"/><circle cx="54.939" cy="35.126" fill="#ededed" r="20.809"/><path d="m70.8664322 47.9116936c2.2021484-2.4421272 3.3255692-6.878521 3.492569-10.1219482.1916733-3.7230186-.1717758-7.4590874-1.4837723-10.9598274-.2231827-.5956478.1313553-1.0223541.6029129-1.1626854-.5241241-1.0246449-1.1281967-2.0014687-1.80867-2.9184284-3.7934418-5.1174488-9.8780937-8.4307165-16.7310448-8.4307165-11.4901848 0-20.8058968 9.3156118-20.8058968 20.8058281 0 4.8636208 1.6669846 9.3362465 4.4588699 12.8758965 2.3049927 2.929184 5.3781891 5.2203217 8.9178047 6.5648613 2.3049622.8917732 4.8087273 1.3719864 7.4292221 1.3719864 3.3339005 0 6.4893684-.7820549 9.2813835-2.1814232.3498917-.1714897.6859589-.3567352 1.0220947-.5487938.8368835-.4733315 1.639473-1.0084038 2.3940811-1.5983353.7750778-.5899277 1.5023041-1.2416306 2.1745071-1.9413452.1989746-.1920586.3841858-.3910255.5625534-.5899315.085762-.0946083.1669998-.1934128.2510834-.2896042-.062187-.2853767-.0067137-.5993911.2423021-.8755332z" fill="#27a2db"/><path d="m75.7511292 35.1239243c0 5.3712578-2.0373459 10.2691841-5.3780823 13.9529076-.0205994 0-.0411987-.0068665-.0686646-.0068665-.1577606-.0068665-.3017883.1509361-.3635025.2675438-.0548477.1097374-.0754471.226387-.1303787.329258-.6722565.6997147-1.399437 1.3514061-2.1745148 1.9413414-.0549316-.0068665-.1166458-.0068665-.17836-.0137329-.2470322-.0205574-.288147.1234741-.3979263.3087006-.1302948.2057877-.3429947.4047508-.5762024.5007553-.26754.1097794-.5693359.1578026-.8506088.2126541-.1783676.0343323-.2538147.0480232-.3155289.2332497-.0411148.1097412-.0617142.240078-.0754471.3567276-.3361282.1920509-.6722488.3772812-1.02211.5487747.0137329-.493927.3361282-.8986359.3567276-1.3994293.0068665-.1097412-.0205994-.2332115.0068665-.3429909.0273819-.1303406.102829-.1577644.1508942-.2675018.0548477-.137207.1302948-.4253082.0137329-.5350876-.1577606-.1440277-.3704529-.1440277-.4185181-.404705-.0137329-.0754929 0-.137207.0068665-.2195206.0137329-.2401199.0205994-.5213547-.0685883-.7477379-.0754471-.1920547-.3018723-.2949677-.5007515-.2812347-.1920929.0068665-.3635902.1303368-.5487366.0617142-.0961304-.0342903-.1441116-.1440315-.2401581-.1783638-.0891838-.0274239-.150898-.0136909-.240078-.0136909-.240078.0068665-.4871063.0205574-.7271004.0068665-.1852264-.0068665-.3498573-.0823135-.5213509-.1440697-.2607613-.0823174-.3224754-.2057877-.4596405-.3978844-.1097794-.1577606-.2469444-.26754-.3498573-.4253044-.0342484-.0480232-.08918-.0960464-.1235123-.1440277-.0548477-.0891838-.0548477-.1852303-.0959663-.2675438-.0823975-.1509399-.2744904-.2057877-.329258-.377285-.0480652-.1440697-.0205994-.3429909 0-.4870605.013649-.1303406.1165657-.329258.0547676-.4459076-.0685005-.1303368-.2811928-.08918-.390976-.08918-.240078.0137329-.329258.075489-.4665031.2812767-.0959663.1440277-.1646309.2538109-.1714973.4253044-.0068665.1234741-.0273819.3018341.0068665.4184418.0411987.1714935.2401619.2126503.3224754.3635902.0960503.1783638.0411148.3978386.1235161.5762024.0753632.1578026.0753632.2538109.0890961.4253044.0480652.3429909.3704567.4116173.6585159.4047508.1167297-.0068665.4391251-.0617599.5282211.0548897.0892639.1166039.0205994.4458618.0205994.5762024 0 .1166039.0205994.2469406-.0068665.3567238-.0411148.1714935-.1783638.2812347-.2949257.3978806-.1989632.1989212-.329258.3086586-.5968857.4321327-.1851463.08918-.3772392.2195168-.5829849.2332497-.2126961.0068665-.3979225.0754509-.6106186.1097412-.2331276.0343323-.4870224.0343323-.7202301.08918-.150898.0411568-.2744102.1372032-.4321747.1509361-.0960464.0137329-.1852264.0068665-.2811928.0068665-.2058258-.0068665-.5282173.0411606-.7409134-.0068665-.1029129-.0274239-.2058296-.1234703-.3017921-.1646271-.1097794-.0480232-.2195625-.075489-.3361244-.0823135-.226429-.0068665-.4802399-.0205994-.6997185.0480232-.2264252.0685806-.569416.1851845-.7957611.0479813-.1097794-.0617142-.08918-.0754471-.1441154-.1783218-.0479813-.075489-.1165619-.1235123-.17836-.1920929-.0684967-.0617561-.2262611-.1920547-.2331276-.2881012-.0068665-.0617561.0616302-.1234741.0890961-.1646309.1097832-.164669.2332954-.3224335.3361244-.493927.1646309-.2606773.3361282-.4390411.3841934-.7545662.0343323-.2057877 0-.3704567-.0480652-.5625114-.0959663-.3635902-.061718-.7271385-.061718-1.0975952 0-.2126541-.0479813-.466465.0411186-.6585159.0549316-.1234741.1578445-.2057877.1852264-.3429947.0617981-.26754.0137329-.6105347.0137329-.8849411 0-.2194786.1029129-.6928101-.1508942-.7751236-.3841934-.1372032-.5899353.2194786-.5693359.5487785.013649.2606773-.1166496.4527283-.1303825.7065392-.0068665.1989632.0480652.418438-.0205994.6105347-.0753632.1920967-.2674599.2744102-.3635063.4390411-.0823135.1577606-.0274658.3910141-.0274658.5625076.0068665.2263451-.0205154.377285-.1097794.5830688-.0822334.1920967-.2194786.3567238-.2605934.5693779-.075531.3429909.0068665.6585159.0068665 1.0152435.013649.3224335-.0274658.6928482-.2401619.9466591-.1234283.1508942-.1783638.1852264.0068665.3087006.2744102.1646271.5488205.3155251.8506126.4321709.2058258.0754471.4321709.1440315.6242676.2538109.17836.1097374.3361244.08918.5418701.1372032.2470245.061718.493969.1440315.7340469.2194786.1029129.0343323.3979225.0205994.4321709.1166458-.1852264.2469444-.3429909.2949677-.631134.3155251-.2743263.0274696-.4870186.0754929-.7408295.1783638-.1920967.0823135-.3429909.1852303-.5076218.315567-.2263412.1920547-.404705.2812347-.7134476.2812347-.2950096 0-.5487366-.0205574-.8368797.075489-.3498573.1234741-.6585999.2743683-1.0427055.2949677-.5007553.0136909-1.0289764-.0960464-1.515995.0136909-.4459076.0960503-.8574791.0891838-1.3102493.0891838-.1165657 0-.226429.0068665-.3429947 0-.2949257 0-.6722488-.0823174-.9466591.0686226-.0411148.0205574-.0823135.0480232-.1166458.0754471-3.5396118-1.3445396-6.6128006-3.6357002-8.9177742-6.5648613.1372452-.0960464.2812767-.2057838.3635902-.3498573.0617981-.1097374.0549316-.17836.08918-.3018341.0548477-.2057838.1578484-.3223915.1509819-.5487747-.0068665-.1989212-.0824013-.3704185-.1166496-.5625114-.0274658-.1783638-.0411148-.5968018.1235161-.7202759.102829-.0823135.3429909-.0480232.4664192-.0754471.1302986-.0342903.2606773-.1097794.3773232-.17836.3086586-.1852303.2949257-.3704185.1783638-.6791191-.0617981-.1578026-.0686646-.315567-.1098633-.4733276-.0547676-.1989632-.1920128-.3429909-.3017921-.5076218-.1646309-.2469864-.1920967-.5007973-.2743263-.782032-.0274658-.1097794-.0617981-.2812729-.1509819-.3704567-.0411148-.0411568-.1097794-.0685806-.1577606-.1097374-.1646309-.1440735-.2126122-.3841476-.315609-.5762444-.1028328-.1989212-.2057457-.3909721-.3566399-.555645-.2126122-.2194786-.4115753-.4389954-.6105347-.6791153-.1234322-.150898-.2880592-.2606773-.4047928-.404705-.102829-.1303406-.1302948-.2881432-.2193947-.4116173-.1029968-.1371613-.1989594-.1989174-.2676239-.3772812-.1440315-.3772812-.4115753-.7888565-.4526901-1.2073364-.0411987-.3910141-.0068665-.8163223 0-1.2073364.0068665-.240078.0274658-.5007553.0822296-.7408295.0343361-.1578064.0961342-.3224335.1783638-.4596405.0205994-.0274239.1098633-.1577606.1167297-.2057838.0273819-.1577644-.0411987-.3292618.0067825-.5007553.0479851-.1303406.1441154-.1989212.240078-.2949677.150898-.1578064.3567238-.3292999.4870224-.5076218.1167297-.1578026.1372452-.3498573.2195587-.5213509.1097832-.1989632.2949257-.2812767.4870224-.3841515.1577644-.0960464.2676277-.1303368.4459915-.1166458.2674561.0205994.4389534-.1028709.644783-.2743683.1302948-.1097794.2332077-.2195206.3155251-.3498573.0480652-.0754471.0754471-.1852303.1371613-.2538109.1303825-.1577644.3429909-.3224335.555687-.3361244.1920967-.0068665.3773232.0068665.5694199-.0205994.1577606-.0205574.3086586-.0617161.4664192-.0823154.226429-.0274239.4595566 0 .692852-.0068665.2195587 0 .404705-.0274239.6173172.0411568.5419502.2058277.9742088.5693798 1.5434608.6997166.3018761.0685806.617485.0342903.9192772.08918.1371613.0205994.240078.0205994.3773232-.0137329.2057457-.0617142.4114876-.1577606.6173172-.0342903.0892639.0480232.1577644.1440735.2401619.1989212.0959625.0617561.1988754.08918.2880592.1509361.1440277.0960503.2744102.2469444.3841896.3910179.1577644.2195168.329258.4253044.4938889.6310921.0960464.1372032.1646271.329258.2811928.4527702.1235123.1303406.3429909.1440315.4871025.2606354.1646309.1372032.1920128.3773232.4253082.4321709.1508942.0411606.2811928.048027.4321709.1166496.1372452.0480232.315609.0617142.404705.1851845.1646309.226387.1714973.5213547.3910599.7271423.3017921.2744102.7270966.6380005.6241837 1.0975952-.0890999.377285-.4047089.6859856-.5076218 1.0564003-.0479813.1509361-.0617142.2812767-.0274658.4253044.0274658.0891838.0823975.1646309.1029968.2606773.0205154.1440735-.0137329.3018341.0273819.4459076.0411148.1303368.137249.2606735.2057457.3841476.1167297.2057838.2126961.418438.3224754.6242256.1235123.2332535.315609.404747.5830688.4664612.1920967.0411606.3086586-.1097374.5076218-.0411568.1235123.0411568.329258.1509399.3841896.2881432.0343323.1097412.0068665.4733315.0205994.5281792.0273819.1920967.0684967.4459038.1646271.6174011.1440315.2538109.4047089.3910141.6653862.5007553.1989594.0823135.4389534.1303368.6104507.2744064.1852264.1577644.2195587.3635521.315609.5693779.1235123.2538109.4115715.3086586.631134.4595985.1577606.1166039.2674599.2469444.4801521.2812347.2812767.0342903.6516533.0548897.9397926.0137329.1989632-.0274239.377243-.1577644.5762024-.1920967.2126961-.0479813.4596405-.1234703.5213547-.3635483.0343323-.1440697.0480652-.4595985-.0068665-.5968018-.0479813-.1509361-.2468605-.1783638-.3704567-.2538109-.1851463-.1097794-.3361244-.2057838-.5487366-.2538109-.0960464-.0205994-.1920128 0-.2881432-.0411568-.2194786-.0823135-.4526863-.3635902-.6310501-.5213509-.1783638-.1578064-.2606773-.2949677-.2675438-.5350876-.0137329-.1646309-.0411148-.4253082.0548477-.5693359.2950096 0 .5694199-.0068665.8506126.0685806.2812767.0685806.5488205.1166077.8300133.1234741.2538948.0068665.5694199-.0274277.7409134-.2538109.1783638-.2538109 0-.6654243.3017921-.8506126.2538948.3223915.4733734.6242256.6585999.9878159.1646309.3155251.2881432.6036682.6517334.7065392.1646309.0411606.9877777.1234741.9328461-.2469406-.0137329-.1303406-.2811928-.2469444-.3498611-.3361244-.2126083-.2469444-.3635902-.5625114-.4114876-.8780785-.0480652-.2743683-.1578445-.2743683-.3635902-.4321747-.150898-.1166039-.2195625-.2949677-.3704567-.418438-.1852303-.1440315-.3155251-.3018341-.4116592-.5144882-.0822296-.17836-.0273819-.5350456-.1646271-.6653824-.1028328-.0960464-.3567238-.0617561-.4870224-.0617561-.1646271-.0274239-.3017921.0205994-.4115715.1372032-.1441154.137207-.3018761.2469444-.4733734.329258-.1234283.137207-.0684967.3429909-.0684967.5076218.0068665.1852303.0411148.3567238-.0549316.5144882-.1440315.2263832-.6585159.4596367-.9124107.4116135-.2331276-.0342903-.2262611-.2332535-.3155251-.404747-.0822296-.1303406-.1714973-.2538109-.2674599-.377285-.1303787-.1920509-.3087425-.2949638-.5350876-.2949638-.1029129.0617561-.1303787.1508942-.075531.2538071 0 .0342903 0 .0548935-.0068665.0891838-.0411148.1234703-.4595566.3498573-.4801559.3567238-.1852264.0617142-.3841896.1371613-.4320869-.08918-.0068665-.0686264.0067825-.1578064.0067825-.226387.0068665-.2812347.0617142-.4801979.2881432-.6516914.240078-.1851883.3978386-.2812347.4253044-.6105347.0205154-.2812347.013649-.555645.1097832-.8368797.0274658-.0960464.0753632-.2057877.0959625-.3087006.0343323-.2538109.0480652-.5144882.0480652-.7751656 0-.17836.0685806-.5693359-.1234283-.6791153-.0617981-.0068665-.1167336-.0205574-.1783638-.0274239-.0892639 0-.1303787.0411568-.1235123.1166039-.0891838.1166077-.0548477.1989212-.2263451.2538109-.1303787.0480232-.5007553.1234741-.6242676.0205994-.0617142-.0480232-.0479813-.1440697-.0479813-.2126503v-.466507c0-.1371613.0616302-.3978386-.0137329-.5350456-.1852303-.2949677-.6448669 0-.8300972-.2263832-.1235123-.1440315-.0342484-.3910179-.1508942-.555645-.0960503-.137207-.2675438-.3978844-.466507-.3704147-.0617142 0-.1165619.0754471-.1646309.08918-.0959625.0342903-.2537231.0205574-.329258 0-.0617142-.0137329-.1234283-.0480232-.17836-.075489-.1234322-.0411606-.2332115-.0342941-.3635902-.0342941-.239994 0-.4870224-.0136909-.7339668 0-.2469444 0-.4665031.1097832-.7133636.1234741-.3841896.0068665-.3910561-.1920547-.555687-.4733315-.1371613-.2194748-.3567238-.3429909-.4870224-.555645-.1646271-.2743645-.329258-.5624657-.4733696-.8574772-.0960464-.2057858-.2469444-.4389973-.2812767-.6653824-.0617142-.315567.3979225-.1920948.5831528-.2744102.2057457-.0960045.3909721-.3361244.5898514-.4184399.1852264-.0617142.404789-.0685806.5968857-.0685806.1714935-.0068665.5007515-.0891819.6585159.0205574.0685806.0480232.0617981.1234722.0960464.1852283.0891838.1783619.2194786.3087006.2881432.4938889.0617142.1852283.1371651.3498573.1920967.5350857.0547638.1577625.1646271.2881012.329258.3635483.2126122.0891838.4526863-.0274239.6516495-.1303368.1234283-.0685825.3498573-.2057877.4321709-.3292599.0823174-.1234703.0479851-.2263851.061718-.3567238.0137329-.1508961.0617981-.1920528.1302948-.3086586.1029968-.1852283.2195625-.6174011.5213547-.5350857.1508942.0480232.315609.253809.4527702.3361244.1714973.1097794.2950096.2332516.4596405.3635902.1234283.0891819.2538109.2332115.3910561.2949677.150898.0685825.4458237.0480232.6035843.0274239.2470284-.0274239.452774-.164629.6653824-.0068665.1646309.1372051.2744942.2332535.4802399.2950096.1166458.0342903.2538109.0617161.3772392.075449.2058296.0274239.1852303.0205574.2744942-.1097813.1165619-.1783199.1714935-.2743683.3908882-.3223915.2058296-.0480232.3773232.0137329.5350876.1234722-.0890961.1852283-.1920967.3704147-.3086586.5419102-.0549316.1166458-.0480652.2126541.0343323.2949677.0685806.1852303.2194786.3567238.2811928.555687.0549316.1302948.0617981.2194786.0617981.3566818-.0068665.2195206.0479813.3018341.1920967.4390411.1577606.1577606.3017921.2880974.5007515.3772812.2332115.0960464.390976-.0137329.5830688-.1303406.2812767-.1851845.4047089-.5213509.7751656-.507618.2538109.0137329.6859818.1029129.8986778-.0685844.1714935-.1372032.1096954-.3841476.1371613-.5762405.0205994-.1783638.0411186-.3087006.0411186-.4801979.0068665-.3635483.3087387-.4664631.6105347-.5625114.4527702-.1440296.9809074-.3155251 1.0701714-.8437443-.3979225-.1234722-.960392-.0617161-1.3377151.1303387-.2744102.1440697-.5007553.4527302-.7339668.6516914-.1235123.1372051-.2744102.2332096-.4459038.2881012-.1235161.0480232-.240078.1029129-.3635902.1646271-.1782799.1234741-.3223953.3292999-.5624695.3498611-.1371651.0137329-.3086586.0068665-.4390411 0-.7751617-.0274277-.1714935-.7751656-.1372452-1.173048.0137329-.2469425-.0273819-.3704147-.253727-.404705-.1577644-.0205994-.5213547-.0891819-.5350876-.3224335-.0068665-.1851883.240078-.2812347.3567238-.3772831.2057457-.1920528.3635941-.4458637.5829849-.6173592.3704605-.3018341.9398766-.1852283 1.3925667-.1852283.2881432.0068665.555687-.061758.8368797-.061758.3635902.0068684.7271805-.0068245 1.0907707 0 .0754471-.0068245.150898 0 .226429.0137348.0890961.0617561.1920128.1097794.3017921.1440697.1508942.0480251.3086586.0274258.4664192.0274258.1920967 0 .3910599-.0068665.5762863.0342903.2058296.0480232.2058296.1714954.1783638.3635902-.0205994.1234722-.0480652.2538109-.0686646.3772831.0274658.1097393.0892639.1852283.1920929.2400761.1714973.1714954.2195625.3704586.3498611.5625114.0411987.0823154.1097794.1234722.1989594.1372051.1234283.0891819.2400742.1852283.3498611.2881012.1440277.1303387.2537231.2675438.459549.2881432.3429947.0274239.6928558-.0068665 1.0358429-.0068665.1302948 0 .3223953.0411568.4459076-.0068665.08918-.0274258.1509781-.0960484.1852264-.1852303.0960464-.08918.2057419-.164629.3155289-.2400761.2744064-.3087006-.013649-.8300552.3087387-1.1250229.2605972.1783638.0205994.5007553 0 .6997166-.0137329.1234722.0068665.2949677.0137329.4253063.0137329.1920528.1508942.329258.2674637.4664631.1097794.1372051.3635864.3841496.5694199.2675419.1577606-.0960464.1852264-.4253044.2469406-.5762424.0823135-.1851864.1714935-.329258.3018723-.4870205.2743301-.3292999.6104507-.6105347.8162842-.9946842.102829-.1989613.0685806-.4459057.1714935-.6379585.0548477-.1097813.1302948-.1578045.1646271-.2812767.0617142-.2332096 0-.5899353 0-.8368778-.0068665-.1234722.0068665-.2332535.0343323-.3498592.0616379-.2332516.1303024-.5144863.2399979-.734005.3018723.0617561.4802399.3361244.7683792.3910141.1920929.0342903.4184418-.0068665.6104507 0 .075531 0 .1989594.0274239.2676239-.0205994.1165695-.0891819.1783676-.391016.1920166-.5213127.0137329-.2126942-.0067825-.4390373-.0067825-.644825 0-.1852283-.0137329-.3704567-.0068665-.5488186.013649-.1714954.0616302-.3086586.1577606-.4458637.0890961-.1166477.2263412-.1714954.2674637-.3224335.0549316-.2126541.0274658-.555645.0137329-.7819901-.0137329-.1372032-.0479889-.2675419-.1715012-.3567238-.0823135-.0686226-.2263412-.0823135-.3017883-.164629-.1302948-.1303387-.0823975-.3429909-.075531-.5144863 0-.1783619-.0068665-.3429928-.0068665-.5282211 2.5656509 3.4573382 4.0816422 7.7447298 4.0816422 12.3751124z" fill="#ebf0f3"/><path d="m70.4437408 21.7411289c-.0957108-.0331631-.1803741-.106678-.2760849-.1287861-.0736084-.01474-.1545792.0073681-.2282791-.018425-.0957108-.0331631-.1250992-.0957146-.1803741-.1730042-.1066742-.1436176-.2871399-.2282772-.2871399-.4160213-.0035934-.0809746-.0220184-.1987076-.00737-.2760887.018425-.0883446.0993958-.1361561.1215057-.2208157-.0662384-.1288776-.4380417-.0589581-.5521774-.018425-.1177292.0405331-.2061691.0957146-.3386383.0699215-.1693192-.0367584-.3166199-.2134476-.4306717-.3349552-.0589523-.0699215-.1030807-.1914291-.1840591-.2393322-.1288757-.0736046-.2945099-.0809746-.4270706-.1545792-.1693192-.0920296-.3386459-.1987991-.4454117-.3607502-.0662384-.0920296-.1215057-.1914272-.1951141-.2834568-.1030807-.128788-.2539825-.1803761-.3828583-.2797737-.0736008-.0588665-.1324692-.1362476-.2024841-.1987991-.1508942-.1324711-.3165283-.125103-.4932175-.2061672-.1104507-.0478134-.1914291-.110363-.2871475-.1840591-.1141357-.0882549-.2245865-.139843-.3607483-.1914291-.2098465-.0808849-.3975906-.1656361-.5779648-.2981071-.0772934-.0552711-.1215134-.0920296-.1987991-.1178226-.1656342-.0478134-.2724075-.1619511-.4159317-.2466106-.1104546-.0663261-.2061691-.1215076-.3092537-.1987991-.0846596-.0699196-.1582642-.0920296-.2024803-.1914291-.0293884-.0625496-.0441284-.2024822-.1103668-.2318707-.0552711-.0257931-.1178207.00737-.1804619-.0221081-.117733-.0589561-.1802864-.1473026-.2539825-.2503853-.0662346-.0920296-.1214142-.1029949-.2171288-.1508961-.1030846-.0479031-.1951141-.1178226-.2908287-.1766891-.161953-.0920296-.1693192-.2355576-.2135391-.4086514-.01474-.0625515-.0294762-.125103-.0441246-.1876545-2.2823181-.8577442-4.7524681-1.3289461-7.3329811-1.3289461-1.1632195 0-2.3007393.0957136-3.4124603.2797728-.0035973.00737-.0109673.014739-.0183372.022109-.0736923.0699205-.1399307.1067686-.1583557.2134476-.0147362.0957146.01474.1987982.00737.2945127-.00737.0809746-.0404396.2209063-.1141357.2687187-.0551834.0331631-.1766891.0331631-.2429276.0589571-.0883446.0330725-.1619492.095624-.2318726.1545801-.0700073.0551825-.1583519.0809755-.2098503.1545811-.0515862.0736961-.0589561.1657257-.0699196.2539806-.018425.1104527-.047905.1766891-.1215096.2577553-.0993996.110363-.0736046.2429256-.025795.3828564.05159.1398411.1473045.2723141.2393341.3864517.0625496.0810661.0551796.0736961.0809746.1509876.0257912.0625496-.011055.0330715.0551796.0772896.1288795.0846596.2945137.011055.4197044.1141376.0551834.0441284.0920296.1029949.154583.139843.0551834.0331631.1067696.0404415.1619492.0736046.1178246.0662365.169323.2576656.2429276.3681183.0736961.1178226.0368462.2098522.0552711.3423252.0294762.2319622.2208176.2760887.4380379.2945118.0993996.011055.2319641-.0257931.3276749.00737.0404434.011055.121418.1030846.132473.1104546.047905.0404415.158268.0883446.1840591.1472111.01474.0257931 0 .0810642 0 .1030827-.00737.0847511.003685.2576656-.0736046.3239918-.025795.0221081-.1251907.0478115-.150898.0588665-.0883446.0405331-.2908249.0920296-.342411.1730042-.0662384.0920296.0073662.2061691.0552711.2871437.0736046.1288776.128788.2024822.2871399.2319622.0625534.0147381.143528.0257034.2060814-.003685.0626411-.0331631.0957146-.1030846.1620369-.1288776.0588684-.0257931.132473-.0293884.1951141-.0405331.0588684-.0109634.114048-.0183334.158268-.0625515.0367584-.0294781.0551796-.0883446.0920296-.1141376.0699196-.0551815.4601479-.0956249.493309-.01474.0404434.0847511.0035973.2946033-.0515862.3645248-.0699196.0846596-.132473.0920296-.1362457.2097626-.00737.2172222.0958023.3166199.1730919.504364-.2430153.1987991-.508049.1435261-.7915077.1508961-.0920296.003685-.2098503.02211-.2834587.0773811-.0846596.0625515-.0699196.1361561-.0293884.2171326.0588684.1251926.150898.2760887.2355576.3828564.0479012.0625515.1030846.1288776.1803741.1508961.139843.0405331.3350449.01474.4785728.011055.1877441-.003685.3681183-.0514965.5558624-.0330734.1288757.0146484.3312683.0920296.4380379-.0184231.0442162-.0442181.0551834-.1251926.1030846-.1656361.0514984-.0442181.1251907-.0405331.1877441-.0405331.125103.003685.1730042-.003685.2650337-.0883446.154583-.1325626.3681183-.0589561.5448074-.1288776.0626411-.0221081.1067696-.0588665.1730042-.0809746.0883446-.0293884.1766891-.0257931.2687187-.0257931.1399345 0 .2834587.0294781.4123383-.0367584.0478096-.0257931.0772896-.0588665.132473-.0700111.0626411-.0146484.1362457.0037746.2024803.0037746.0846596-.0037746.1546707-.0184231.2356453-.0368481.136158-.0368462.283371-.0442162.3975067-.1251926.1288795-.0920296.1030846-.2613487.0993996-.4085598-.003685-.0626411-.003685-.1141376-.0221062-.1730042-.0220184-.0699215-.0736084-.1215096-.0882568-.1877441.3386421-.0442181.6883354.0146484 1.0306587-.025795.2282791-.0294781.5484924-.2760887.4197083-.5263824-.04422-.0773811-.1104546-.1656361-.1914291-.2061691-.0957146-.0441265-.2282791-.0110531-.3313599-.0110531-.121418.003685-.2945137.0331631-.4048767-.0330734-.1509857-.0993996-.2172241-.2981968-.4197083-.3239918-.1324692-.0184231-.2687187-.0588665-.3902245-.1288776-.0699234-.0404415-.128788-.1030827-.1729164-.1693192-.0515862-.0772896-.0626411-.0993996-.0257912-.1766891.0514946-.1030846.2024803-.1619511.3018799-.2061691.0920296-.0404415.147213-.0441265.2466125-.0478115.0883446 0 .1840591.018425.2687187-.0184231.0699196-.0294781.0736046-.0551815.125103-.1067696.1251907-.125103.489624-.0699215.651577-.0625515.1473007.003685.3018799.0294781.4454079.01474.0515862-.00737.1141357-.0368481.1657257-.0331631.0920296.00737.1582642.0883446.2208176.1399307.0700073.0588665.1104507.0920296.2024803.0772915.0993996-.018425.1951141-.0625515.3018837-.0405331.1178207.0294781.1435242.1546707.1951141.2429256.0551796.0920296.125103.1473007.1987953.2172222.147213.1325626.2060814.2282772.2097626.4307594-.1877403.1029949-.5116425.1398411-.629467.3165321-.0625496.0920296-.0883446.2576637-.0736046.3644333.0331612.2834587.4122467.3092518.640522.3018818.1178246 0 .2760887-.0331631.3902283 0 .1067657.0330734.1398392.132473.2061653.2097626.0882568.1031742.173008.1436157.3017921.1509857-.1508942.3017921-.5595474.5669174-.9018707.5448074-.2024841-.0147381-.3939133.02211-.5853386-.0809746-.1029968-.0552711-.1914291-.1104527-.2613525-.2061672-.0404396-.0551815-.0514946-.0736065-.125103-.0809765-.0589561-.0073681-.2467003-.0184231-.3092499.00737-.0441284.018425-.0809746.0699215-.1178246.0957146-.0883446.0588665-.2135353.0699215-.2650337.1766891-.0514946.1030846-.0588646.2576656-.0625496.3718033-.00737.2466106.1398392.3239021.3533783.3533802.147213.0221081.2871437.0772896.4343529.0846596.0736961.00737.1509857-.003685.2245941-.003685.1766891 0 .3865395-.0293884.5595474 0 .0957146.0184231.1693192.0736065.2650337.1030846.117733.0404415.2281876.0368481.3570633.0404415.128788.0037746.2098541.0185146.3349533.0663261.0920296.0368481.161953.0478134.2613525.0478134.4527779-.0109653.9056473-.0035954 1.3584251-.0035954.1766891 0 .3570633.0109634.5337524 0 .0514984-.0037746.1508942-.0405331.1951141-.0037746.0441246.0442162.0662346.1804638.0957146.2356453.0367584.0736065.0588646.1104546.0551796.1914291-.003685.0699215-.011055.1361561.003685.2061672.01474.0920296.0662384.1766911.0699234.2723141.0073662.1583557-.0072823.1694107-.1140518.2908287-.0736923.0810642-.2024803.1030846-.2981949.1657257-.0920296.0588665-.147213.110363-.2613487.121418-.0883446.0073681-.1730957.0036831-.2613525 0-.1987953-.003685-.4049644.0257931-.6037636.0147381-.1067696-.003685-.2318726-.0331631-.3312683-.0699215-.1178246-.0405312-.2098541-.0514965-.3276787-.0552711-.1545792-.00737-.2724037-.0478115-.4048729-.114048-.1288795-.0626411-.2760887-.1288776-.4197083-.1399326-.0957146-.0036831-.1361542-.0294781-.2172203-.0846596-.0367584-.0257034-.0808868-.0514965-.117733-.0846596-.018425-.018425-.0699234-.0920296-.0993996-.1067696-.1288795-.0551815-.2392426.0589581-.3166199.1473026-.121418.1361561-.2355576.2724037-.3644371.4048748-.0588646.0589581-.102993.1104546-.1877403.1288776-.0772934.01474-.2097626.00737-.290741-.003685-.1104507-.0221081-.1914291-.1104527-.2871399-.1730042-.1141396-.0772896-.2024841-.1178226-.3387337-.1178226h-.629467c-.1067696 0-.2171326 0-.3238983-.003685-.03685 0-.1030846-.01474-.1362495 0-.0993996.0331631-.1730042.2282772-.1987991.3166218-.0846596.3018818.1288795.6036739.3387299.7987881.0367584.0331631.0772934.0809746.128788.1030827.0663261.0294781.1509857.02211.2135391.0588665.1472092.0883446.1362457.2871437.3203049.3203068.2355576.0441265.629467.0146484.7435188.2871437.0221062.0514965.0184212.117733.0405312.1730042.0294762.0846596.0772896.132473.132473.2024822.0773811.0993996.0663261.2134476.1436157.3202171.125103.1766891.3239021.3092518.4748878.4638329.1030846.1067677.2023926.1766891.3460083.2135372.2797737.0736046.6110458.0294781.8945007.0330734.1914291 0 .3681183-.0367584.5632324-.0367584h2.5069084c.1067657 0 .1803741.0184231.2613525-.0515862.0993958-.0883465.1619492-.2392426.1914291-.3644352.0147324-.0736046.0257874-.1582642.0184174-.2355556-.011055-.1067677-.0588608-.1730042-.1067657-.2650337-.0809784-.1619511-.033165-.3865433-.03685-.5669174 0-.1436157 0-.1803741.0773849-.3055668.0257034-.0330734.0367584-.0625515.0625458-.0957146.0809784-.0957146.2061691-.1178226.3055725-.1914272.1103592-.0809765.1029892-.1693211.0993958-.2945137-.0037766-.132473-.0037766-.2649441-.0037766-.4011917 0-.0663261-.0146484-.1472111-.0035934-.2135372.0257034-.1508961.1361618-.2135372.1103668-.3791714-.003685-.0404434-.0367584-.2355576-.0920334-.2871437-.0257034-.0257034-.1324692-.0404434-.1545792-.0514965-.1067657-.0479031-.2539825-.1656361-.2613525-.2908287-.00737-.114048.0957184-.2945118.1104584-.4159298.0072784-.0773811.003685-.1582661.003685-.2356472 0-.114048.0035934-.2355556 0-.3533783-.003685-.2687187-.2982025-.3018818-.4785767-.4454098-.0662308-.0514965-.1766891-.1546707-.1987991-.2429256-.0221024-.0993977.0957184-.2061672.1693268-.2651234.1067657-.0846596.1914291-.0809765.3166199-.0772915.0993958.003685.2318726-.0330715.3202133.018425.2613525.1473007.1582642.5632305.1582642.8024731 0 .0993977-.0330734.2687187.0037766.3645229.0330734.0808849.1472092.1545811.2060776.2171326.0809784.0846596.1362457.1288776.2613525.1436157.0920258.0146484.1987991.0183334.2945099.0109653.1251907-.00737.2172241-.0551834.2172241-.1876545-.003685-.1288776-.062645-.2614403-.1693192-.3313599-.1215134-.0846615-.1951141-.1582661-.2650375-.2908287-.0663223-.121418-.040535-.2539806-.040535-.3901367 0-.0663261-.0368423-.2356472.02948-.2834587.0514984-.0331631.2576675-.0037746.312851-.0037746.1104507.0037746.2687149.01474.3681183.0773811.0699158.0441265.0920258.1287861.1545792.1656342.1509857.0993996.3718948.0514965.541214.0442181.2171326-.00737.3423233.114048.4932175.2613487.0883484.0846615.1657257.1545811.2061691.2723141.0809784.2245922.2245941.3939114.3975983.5559521.1582642.1508961.2318726.3460102.3828583.5042763.1067657 0 .1398392.0368481.2466049.0331631.1840591-.003685.2135391.0221081.3018875.1803741.0404434.0772896.0957108.1472111.1582642.2060776.025795.0368481.0514984.0773811.0736084.1141376.1215057.0663261.2797699-.1435261.3313599-.2281857.0662308-.0993996.0772858-.1803741.0809708-.2981968 0-.0662365-.0405273-.2172222-.018425-.2687206.0809784-.1987972.4712067-.1803741.6331558-.1730042.0809784 0 .2502975.0441265.2908249-.0479031-.0552674-.0993081-.0809709-.1398412-.1877443-.1766893z" fill="#ebf0f3"/><path d="m34.2355881 33.0092697c.1288795.0736046.2172241.0478134.3018837-.0883446.0662346-.1104546.1141396-.2209053.1914291-.3239899.1693192-.2318726.3644333-.2613525.636837-.2613525.0588646 0 .1288757-.0147362.1877441.00737.0809746.025795.1141396.0957146.2061691.1104546.2429237.0478134.4821663.0478134.7214966.011055.2024841-.033165.3054771-.1987991.4232979-.3571548.1509857-.2060776.2650375-.4563732.3239937-.7067585.0367546-.1508961.0294762-.3055668.0257034-.4564629-.0035973-.1951122.0515862-.2797737.1104507-.4527779.033165-.1104527.0883446-.2281857.0957146-.3386402.00737-.1546707-.0367584-.3166218.040535-.4564629.0478096-.0846596.121418-.1472111.1619492-.2356453.0625496-.121418.1399307-.2576656.1877441-.3828583.01474-.0441265.01474-.0956249.0331612-.1398411.0367584-.0883446.0883484-.1508961.0993118-.2502956.0111427-.0846596-.0183334-.1766891-.0109634-.2614403.0109634-.106678.0772896-.2023926.0883446-.3091621.0110512-.0772896-.011055-.1582642-.003685-.2356453.0294762-.3239002.1803741-.6625404.2908249-.9607391.0551834-.1472111.114048-.2430153.2281876-.3533783.1030846-.0993996.2393303-.1987991.3092537-.3276749.0736046-.136158.0772896-.3091621.1361542-.4564629.0589561-.143528.158268-.2355576.2650375-.3460102.0993958-.1067696.1693192-.2172222.2356453-.3496952.0736046-.1472111.1803741-.2430153.2981949-.3607483.1029968-.0993996.2355576-.1987991.2908287-.3312702.0404434-.0884342.0404434-.1914291.0699234-.2834587.0293846-.0958042.0404396-.1804638.0551796-.2760887.02211-.1766891.0920296-.3129368.1730042-.4675179.0626411-.1178226.0515862-.2871418.1362495-.3828564.0993958-.1178226.2650337-.2209072.3865395-.3129368.139843-.1030846.2576675-.2282772.3827667-.3460102.0920296-.0883446.1767807-.1619492.2467041-.2687187.0846596-.1325626.1803741-.2392406.2724037-.3644333.0736046-.0920296.0920296-.2393303.1914253-.3092518.1030846-.0736065.3017921-.018425.3570671-.1398411.0110512-.025795 0-.0589581.00737-.0846615.0147362-.0479012.0514946-.0958042.0699196-.1473007.0736046-.2024822.0294762-.4232998.0920296-.629467.0257912-.0957146.0699196-.2098541.125103-.2908287.0626411-.0846596.1878319-.1508961.2245903-.2539806.01474-.0514965.003685-.1361561.011055-.1914272.011055-.0699215.0331612-.1215096.0515862-.1914291.0257034-.1104546.0367584-.1877441.106678-.2834587.047905-.0736065.0993996-.1435261.1473045-.2172222.0662346-.0993996.1324692-.1914291.1766891-.3017921.0514946-.1178226.1141357-.2577553.1141357-.3902264 0-.0699215-.0257912-.1472111.00737-.2135372.0478134-.1029949.1913414-.1508961.2687187-.2281876.0993996-.0957146.1802864-.1914291.287056-.2797737.1215057-.0993996.2135353-.2172222.2981949-.3424149-5.5548478 3.2799912-9.4532509 9.0704861-10.1343079 15.8107529z" fill="#ebf0f3"/><path d="m74.2518234 42.87994c-3.0675354 7.6501236-10.5594101 13.0541725-19.3098221 13.0541725-11.4939995 0-20.8098717-9.3157806-20.8098717-20.8097801 0-4.6654339 1.5300446-8.9691048 4.1227455-12.4361286-.979763 2.4118633-1.5149536 5.0422859-1.5149536 7.800827 0 11.4865017 9.3158722 20.809824 20.8023262 20.809824 6.8511544 0 12.9259682-3.308773 16.7095757-8.4189148z" fill="#344d5b" opacity=".15"/></svg>