<svg enable-background="new 0 0 110 110" height="512" viewBox="0 0 110 110" width="512" xmlns="http://www.w3.org/2000/svg"><path d="m89.5011597 49.4676018c.0100098-.0999756 0-.210022-.0100098-.3200073-.0100098-.289978-.0299683-.5899658-.0499878-.8800049-.0499878-.5999756-.1099854-1.2000122-.1799927-1.789978-.0499878-.3300171-.0900269-.6699829-.1500244-1-.0099487-.0599976-.0199585-.1199951-.0299683-.1799927-.0499878-.3300171-.1099854-.6600342-.1699829-.9800415-.0200195-.0799561-.0300293-.1599731-.0500488-.2399902-.0599976-.2999878-.1199951-.5999756-.1900024-.8999634-.1599731-.7000122-.3399658-1.3800049-.5499878-2.0599976-.0799561-.3099976-.1799927-.6199951-.2799683-.9200439 0-.0199585-.0100098-.039978-.0200195-.0599976-.1099854-.3399658-.2199707-.6699829-.3400269-1-.0099487-.0299683-.0299683-.0700073-.039978-.1099854-.3999634-1.0900269-.8499756-2.1500244-1.3499756-3.1900024-.1500244-.2999878-.2999878-.5999756-.4500122-.8900146-.0100098-.0199585-.0100098-.0299683-.0300293-.0499878-.7699585-1.4799805-1.6499634-2.8999653-2.6199951-4.2500019-.7199707-1.0100098-1.5-1.9699707-2.3299561-2.8900146-.2300415-.2699585-.4700317-.5299683-.7300415-.7799683.0100098-.0100098.0100098-.0100098 0-.0100098-.3899536-.4000244-.7799683-.789978-1.1799927-1.1799927-.0200195-.0300293-.0499878-.0499878-.0800171-.0700073-.2199707-.2000122-.4299927-.4000244-.6499634-.5999756-.2200317-.2000122-.4500122-.4000244-.6699829-.5900269-.2200317-.2000122-.4500122-.3900146-.6800537-.5700073-.4599609-.3699951-.9299927-.7399902-1.4099731-1.0899658-.9500122-.7000122-1.9500122-1.3600464-2.9799805-1.9500122-.5200195-.2999878-1.0400391-.5900269-1.5700073-.8699951-1.0599976-.5499878-2.1500244-1.0499878-3.2700195-1.4800415-.2799683-.1099854-.5599976-.2199707-.8399658-.3199463-1.7000122-.6200562-3.4600182-1.1100464-5.2800255-1.4500122-.2999878-.0599976-.6099854-.1100464-.9099731-.1600342-.3099976-.0499878-.6100464-.0999756-.9200439-.1399536-.6099854-.0900269-1.2299805-.1500244-1.8599854-.2000122-.2000122-.0200195-.3900146-.0300293-.5899658-.0400391-.1600342-.0199585-.3100586-.0299683-.460022-.0299683-.6000366-.0300293-1.1900024-.0499878-1.789978-.0499878-.3600464 0-.7200317.0099487-1.0800171.0199585-.3699951.0100098-.75.0300293-1.1300049.0500488-.3400269.0199585-.6699829.0499878-1.0100098.0799561-.710022.0599976-1.4099731.1500244-2.0999756.2600098-.3500366.0499878-.7000122.1099854-1.0400391.1799927-.4099731.0700073-.8099976.1500244-1.2099609.2399902-.2400513.0599976-.4800415.1100464-.7200317.1700439-1.0499878.2599487-2.0800171.5599976-3.0899658.9199829-.3200073.1099854-.6400146.2299805-.960022.3499756-.6599731.2399902-1.3099976.5200195-1.9500122.8099976-.289978.1300049-.5800171.2700195-.8699951.4100342-.3099976.1499634-.6099854.2999878-.9099731.4599609-.3000488.1600342-.6000366.3200073-.8900146.4900513-.5900269.3299561-1.1699829.6799927-1.7399902 1.039978-.2900391.1799927-.5700073.3699951-.8500366.5599976-.2999878.2000122-.5899658.4000244-.8800049.6199951-.25.1900024-.5099487.3800049-.7599487.5700073-.2600098.2000122-.5100098.4099731-.7700195.6199951-.5300293.4199829-1.0499878.8699951-1.5499878 1.3400269-.25.2299805-.4899902.4599609-.7200317.6900024-.2199707.2099609-.4400024.4299927-.6499634.6399536-.7300415.75-1.4300537 1.5300293-2.0800171 2.3400269-.210022.2600098-.4199829.5200195-.6300049.789978-.2000122.2700195-.4000244.5400391-.5999756.8099976-.9800415 1.3500366-1.8700562 2.790041-2.6400146 4.2800312-.0100098.0100098-.0100098.0100098-.0100098.0199585-.1599731.3000488-.3200073.6100464-.4700317.9200439-.4899902 1.0199585-.9399414 2.0700073-1.3299561 3.1400146-.0200195.0499878-.0300293.0999756-.0499878.1399536-.1200562.3200073-.2300415.6400146-.3300171.9700317-.0200195.039978-.0300293.0799561-.0400391.1300049-.1099854.2999878-.1999512.6099854-.289978.9199829-.1900024.6500244-.3699951 1.3099976-.5200195 1.9799805-.0699463.2900391-.1299438.5900269-.1900024.8900146-.0199585.0900269-.039978.1900024-.0599976.289978-.0599976.3099976-.1099854.6199951-.1599731.9300537-.0200195.0899658-.039978.1899414-.0499878.2799683-.0499878.3300171-.1000366.6699829-.1400146 1-.0700073.5599976-.1300049 1.1199951-.1799927 1.6799927-.0200195.2999878-.039978.6000366-.0499878.8900146-.0100098.1300049-.0100098.25-.0100098.3699951-.0200195.3400269-.0300293.6799927-.039978 1.0200195v.4400024c0 .8200073.0299683 1.6300049.0899658 2.4299927.0200195.3299561.039978.6599731.0800171.9899902.0100098.1199951.0199585.2399902.039978.3599854.1400146 1.3500366.3699951 2.6900024.6699829 3.9899902.75 3.2700195 1.960022 6.3699913 3.5599976 9.2100182 1.3900146 2.4799805 3.0800171 4.7700195 5.0300293 6.8200073.3900146.4199829.789978.8200073 1.210022 1.2199707.4099731.4000244.8299561.7800293 1.2599487 1.1700439.8600464.7599487 1.7700195 1.4699707 2.710022 2.1399536.0300293.0200195.0599976.0500488.1000366.0700073.75.5300293 1.5199585 1.0300293 2.3099976 1.5.039978.0200195.0799561.0499878.1199951.0700073.3899536.2200317.7699585.4400024 1.1599731.6500244.7999878.4400024 1.6199951.8399658 2.460022 1.2000122.0299683.0199585.0599976.0299683.0899658.039978.210022.0899658.4200439.1799927.6300049.2600098.2800293.1300049.5499878.2399902.8400269.3499756h.0100098c.8999634.3400269 1.8099976.6500244 2.75.9199829 1.5799561.460022 3.1999512.8099976 4.8699951 1.0300293h.039978c.2999878.0499878.6199951.0899658.9199829.1199951 1.25.1400146 2.5200195.210022 3.8000488.210022 1.2799683 0 2.5499878-.0700073 3.7999878-.210022.2099609-.0200195.4099731-.039978.6199951-.0700073h.0899658c1.75-.2299805 3.460022-.5899658 5.1199913-1.0800171.9400024-.2699585 1.8500366-.5799561 2.75-.9199829h.0100098c.2900391-.1099854.5599976-.2199707.8400269-.3499756.2099609-.0800171.4199829-.1700439.6300049-.2600098 9.9699707-4.3500366 17.5100098-13.2399902 20-24.0399742.3099976-1.3200073.539978-2.6700439.6799927-4.0400391.0200195-.0999756.0299683-.2000122.039978-.2999878.0300293-.3300171.0599976-.6699829.0800171-1 .0599976-.8200073.0900269-1.6500244.0900269-2.4799805v-.3900146c-.0100101-.359985-.0200199-.7100216-.0400394-1.0700069zm-2.1400147 1.4600219c0 .9099731-.039978 1.7999878-.1199951 2.6900024-.0199585.3299561-.0499878.6599731-.0899658.9899902 0 .0299683 0 .0700073-.0100098.0999756-.1600342 1.4299927-.4199829 2.8400269-.7800293 4.210022-2.3999634 9.510006-9 17.3699913-17.7099609 21.4799767-.0200195.0100098-.0300293.0200195-.0499878.0200195-.4300537.2099609-.8600464.3999634-1.2900391.5800171-.0100098.0099487-.0199585.0199585-.0299683.0199585-.5500488.2200317-1.1100464.4400024-1.6799927.6300049-.5.1799927-1.0100098.3500366-1.5200195.4899902-1.6500206.5-3.3500328.8699951-5.1000328 1.0900269-.0199585 0-.039978.0100098-.0699463.0100098-1.3500366.1699829-2.7200317.2600098-4.1199951.2600098-1.4000244 0-2.7700195-.0900269-4.1200562-.2600098-.0299683 0-.0499878-.0100098-.0699463-.0100098-1.75-.2200317-3.4500122-.5900269-5.1000366-1.0900269-.5100098-.1399536-1.0200195-.3099976-1.5200195-.4899902-.5699463-.1900024-1.1299438-.4099731-1.6799927-.6300049-.0099487 0-.0199585-.0100098-.0299683-.0199585-.4299927-.1800537-.8599854-.3700562-1.2900391-.5800171-.0199585 0-.0299683-.0100098-.0499878-.0200195-8.7099609-4.1099854-15.3200073-11.9799805-17.7199707-21.4999962-.3500366-1.3599854-.6099854-2.7600098-.7700195-4.1900024-.0100098-.039978-.0100098-.0800171-.0100098-.1199951-.039978-.3300171-.0799561-.6599731-.0999756-1-.0700073-.8800049-.1099854-1.7600098-.1099854-2.6599731v-.3500366c0-.0299683 0-.0499878.0099487-.0799561 0-.3500366.0100098-.6900024.0200195-1.0300293 0-.0499878.0100098-.0900269.0100098-.1300049.0100098-.2999878.0300293-.5999756.0599976-.8900146.0499878-.7299805.1300049-1.4400024.2299805-2.1499634.0500488-.3300171.1000366-.6600342.1600342-.9899902 0-.0200195 0-.0300293.0100098-.0500488.0499878-.3099976.1099854-.6300049.1699829-.9400024.0100098-.0299683.0200195-.0599976.0200195-.0899658.0699463-.2999878.1300049-.6099854.2099609-.9100342.1900024-.789978.4000244-1.5599976.6500244-2.3299561.0899658-.2900391.1900024-.5800171.2999878-.8699951 0-.0100098 0-.0200195.0100098-.0300293.1099854-.3200073.2199707-.6400146.3499756-.9500122 0-.0100098 0-.0100098 0-.0199585.4500122-1.1400146.960022-2.25 1.5300293-3.3200073.1400146-.2900391.2999878-.5700073.4599609-.8500366.0100098-.0199585.0200195-.039978.0300293-.0599976.8200073-1.4500122 1.75-2.8299561 2.7700195-4.1300068 5.9799805-7.5499878 15.2199707-12.3999634 25.5700073-12.3999634 10.3699913 0 19.6199913 4.8699951 25.589962 12.4400024 1.0200195 1.2899799 1.9400024 2.6599751 2.75 4.0999775.0100098.0100098.0200195.0300293.0300293.039978.1599731.2900391.3199463.5700073.4699707.8700562.5700073 1.0699463 1.0700073 2.1799927 1.5200195 3.3199463v.0100098c.1199951.3099976.2399902.6199951.3499756.9400024.0100098.0200195.0100098.0300293.0200195.0499878.0999756.2800293.1900024.5599976.2799683.8400269.2600098.7800293.4800415 1.5800171.6600342 2.3800049.0800171.2999878.1499634.5999756.2099609.9000244.0100098.0299683.0100098.0499878.0200195.0699463.0599976.3200073.1199951.6500244.1799927.9700317.0599976.3300171.1099854.6599731.1500244.9899902.1099854.7200317.1900024 1.460022.2399902 2.2000122.0300293.289978.0499878.5800171.0599976.8800049 0 .0299683.0100098.0700073.0100098.1099854.0100098.3499756.0200195.7000122.0299683 1.0599976v.4000242z" fill="#3a556a"/><ellipse cx="84.271" cy="54.71" fill="#d5d6db" rx="13.862" ry="4.259"/><path d="m98.1333542 54.7099228h-27.7247162v-4.2589188l27.7247162.1293564z" fill="#d5d6db"/><ellipse cx="84.271" cy="50.451" fill="#64798a" rx="13.862" ry="4.259"/><ellipse cx="84.271" cy="49.464" fill="#d5d6db" rx="13.862" ry="4.259"/><path d="m98.1333542 49.4636459h-27.7247162v-4.2589225l27.7247162.1293602z" fill="#d5d6db"/><ellipse cx="84.271" cy="45.205" fill="#64798a" rx="13.862" ry="4.259"/><ellipse cx="84.271" cy="44.319" fill="#d5d6db" rx="13.862" ry="4.259"/><path d="m98.1333542 44.3191299h-27.7247162v-4.2589187l27.7247162.1293564z" fill="#d5d6db"/><ellipse cx="84.271" cy="40.06" fill="#64798a" rx="13.862" ry="4.259"/><ellipse cx="84.271" cy="39.141" fill="#d5d6db" rx="13.862" ry="4.259"/><path d="m98.1333542 39.1405182h-27.7247162v-4.2589226l27.7247162.1293602z" fill="#d5d6db"/><ellipse cx="84.271" cy="34.882" fill="#e1e6e9" rx="13.862" ry="4.259"/><ellipse cx="25.729" cy="54.71" fill="#d5d6db" rx="13.862" ry="4.259"/><path d="m39.5913582 54.7099228h-27.7247152v-4.2589188l27.7247152.1293564z" fill="#d5d6db"/><ellipse cx="25.729" cy="50.451" fill="#64798a" rx="13.862" ry="4.259"/><ellipse cx="25.729" cy="49.464" fill="#d5d6db" rx="13.862" ry="4.259"/><path d="m39.5913582 49.4636459h-27.7247152v-4.2589225l27.7247152.1293602z" fill="#d5d6db"/><ellipse cx="25.729" cy="45.205" fill="#64798a" rx="13.862" ry="4.259"/><ellipse cx="25.729" cy="44.319" fill="#d5d6db" rx="13.862" ry="4.259"/><path d="m39.5913582 44.3191299h-27.7247152v-4.2589187l27.7247152.1293564z" fill="#d5d6db"/><ellipse cx="25.729" cy="40.06" fill="#64798a" rx="13.862" ry="4.259"/><ellipse cx="25.729" cy="39.141" fill="#d5d6db" rx="13.862" ry="4.259"/><path d="m39.5913582 39.1405182h-27.7247152v-4.2589226l27.7247152.1293602z" fill="#d5d6db"/><ellipse cx="25.729" cy="34.882" fill="#e1e6e9" rx="13.862" ry="4.259"/><ellipse cx="54.79" cy="89.563" fill="#d5d6db" rx="13.862" ry="4.259"/><path d="m68.6524277 89.5634537h-27.7247162v-4.2589188l27.7247162.1293564z" fill="#d5d6db"/><ellipse cx="54.79" cy="85.305" fill="#64798a" rx="13.862" ry="4.259"/><ellipse cx="54.79" cy="84.317" fill="#d5d6db" rx="13.862" ry="4.259"/><path d="m68.6524277 84.3171768h-27.7247162v-4.2589187l27.7247162.1293563z" fill="#d5d6db"/><ellipse cx="54.79" cy="80.058" fill="#64798a" rx="13.862" ry="4.259"/><ellipse cx="54.79" cy="79.173" fill="#d5d6db" rx="13.862" ry="4.259"/><path d="m68.6524277 79.1726685h-27.7247162v-4.2589264l27.7247162.129364z" fill="#d5d6db"/><ellipse cx="54.79" cy="74.914" fill="#64798a" rx="13.862" ry="4.259"/><ellipse cx="54.79" cy="73.994" fill="#d5d6db" rx="13.862" ry="4.259"/><path d="m68.6524277 73.9940491h-27.7247162v-4.2589188l27.7247162.1293564z" fill="#d5d6db"/><ellipse cx="54.79" cy="69.735" fill="#e1e6e9" rx="13.862" ry="4.259"/></svg>