<svg enable-background="new 0 0 110 110" height="512" viewBox="0 0 110 110" width="512" xmlns="http://www.w3.org/2000/svg"><circle cx="56.462" cy="55.284" fill="#ededed" r="25.86"/><path d="m76.2556839 71.1738052c2.7367477-3.0349884 4.1328964-8.5483856 4.3404388-12.5792007.238205-4.6268425-.2134781-9.2698936-1.8439789-13.620491-.2773666-.7402458.1632462-1.2705421.7492828-1.4449387-.6513672-1.2733955-1.402092-2.4873581-2.247757-3.6269226-4.7143555-6.3597832-12.2761459-10.477396-20.7927475-10.477396-14.2795982 0-25.8568306 11.5771122-25.8568306 25.8567486 0 6.0443344 2.0716667 11.6027565 5.5413246 16.0017052 2.864563 3.6402893 6.6838188 6.4876328 11.0827332 8.158577 2.864521 1.1082687 5.9761162 1.7050552 9.2327728 1.7050552 4.1432533 0 8.0647583-.9719086 11.5345764-2.7109909.4348297-.2131195.8524857-.4433365 1.2702255-.6820221 1.0400467-.5882416 2.0374756-1.2532043 2.9752731-1.986351.9632416-.7331467 1.867012-1.5430603 2.7024078-2.4126358.2472687-.2386856.4774475-.4859543.6991119-.7331467.1065826-.1175766.2075424-.2403717.3120422-.3599167-.0772854-.3546524-.0083462-.744896.3011249-1.0880738z" fill="#27a2db"/><g fill="#ebf0f3"><path d="m82.32621 55.2816162c0 6.6752052-2.5319443 12.7621765-6.6836853 17.3401794-.0255966 0-.0512009-.0085373-.0853348-.0085373-.1960602-.0085297-.3750534.1875839-.4517517.3324966-.0681686.1363754-.0937653.2813416-.1620331.4091873-.8354492.8695831-1.7391663 1.6794815-2.7024078 2.4126358-.0682678-.0085373-.1449661-.0085373-.2216644-.017067-.3069916-.0255508-.3580933.1534424-.4945221.3836441-.1619263.2557373-.4262543.503006-.7160873.6223145-.332489.1364365-.70755.1961136-1.057106.2642822-.2216644.0426636-.3154297.0596771-.392128.2898712-.0510941.1363831-.0766907.2983627-.0937576.4433289-.4177246.238678-.8354492.4688721-1.2702408.6819992.017067-.6138382.4177246-1.1167908.4433212-1.7391663.0085373-.1363754-.0255966-.2898254.0085373-.4262543.0340271-.1619797.1277924-.1960602.1875305-.3324432.068161-.1705093.1619263-.5285492.0170593-.6649857-.1960602-.1789932-.4603882-.1789932-.5201187-.5029526-.017067-.0938187 0-.170517.0085297-.2728119.017067-.2984085.0256042-.6479187-.085228-.9292679-.0937653-.2386703-.3751602-.3665695-.6223221-.3495026-.2387314.0085297-.4518585.1619797-.6819458.0766983-.1194687-.0426178-.1791-.1790009-.2984695-.2216644-.1108246-.0340805-.1875229-.0170135-.2983551-.0170135-.2983627.0085297-.6053543.0255432-.9036102.0085297-.2302017-.0085297-.4347916-.1022949-.6479263-.1790466-.3240585-.1022949-.4007568-.2557449-.5712204-.4944687-.1364288-.1960678-.3068924-.3324966-.4347878-.5285568-.0425644-.0596848-.1108322-.1193695-.1534996-.1789932-.0681648-.1108322-.0681648-.2302017-.1192627-.3324966-.1024017-.1875839-.3411293-.2557449-.4091873-.4688721-.0597343-.1790466-.0256004-.4262619 0-.6053085.0169601-.1619797.1448593-.4091873.068058-.5541534-.085125-.1619797-.3494568-.1108322-.4858894-.1108322-.2983589.017067-.4091873.0938187-.5797539.3495636-.1192627.1789932-.2045975.3154221-.213131.5285568-.0085335.1534424-.0340271.3751068.0085335.5200195.0512009.2131271.2984657.2642746.4007645.4518585.1193619.2216644.0510941.4944229.1534958.7160797.0936623.1961136.0936623.3154297.1107292.5285568.0597343.4262619.460392.5115433.8183784.503006.1450691-.0085297.5457268-.0767441.656456.0682144.1109352.1449127.0256004.5541077.0256004.7160873 0 .1449127.0256004.3068924-.0085335.4433212-.0510979.2131348-.2216644.3495102-.3665237.4944763-.2472649.2472076-.4091911.3835907-.741787.5370331-.2300949.1108322-.4688225.2728119-.724514.2898788-.2643318.0085373-.4945259.0937653-.7588539.1363831-.2897224.0426636-.6052551.0426636-.8950806.1108322-.1875267.0511475-.3410263.1705093-.5370865.1875763-.1193657.017067-.2301979.0085373-.3494568.0085373-.2557983-.0085373-.656456.0511475-.920784-.0085373-.1278992-.0340805-.2557945-.1534424-.3750572-.2045975-.1364326-.0596771-.2728615-.093811-.4177246-.1022949-.281395-.0085297-.5968208-.0255966-.8695793.0596848-.2813988.085228-.7076569.2301407-.9889488.0596313-.1364326-.0766983-.1108322-.0937653-.1791-.221611-.0596275-.0938187-.1448593-.1535034-.2216606-.2387314-.085125-.0767517-.281189-.238678-.2897224-.3580399-.0085335-.0767517.0765953-.15345.1107292-.2045975.1364288-.2046432.2899284-.4007111.4177208-.6138382.2045975-.3239594.4177246-.5456238.477459-.9377441.0426674-.2557449 0-.4603958-.0597343-.6990662-.1192589-.4518585-.0766945-.9036636-.0766945-1.3640594 0-.2642746-.0596313-.5797043.0510941-.8183823.0682678-.1534424.196167-.2557449.2301979-.4262543.0768013-.3324966.017067-.7587509.017067-1.0997772 0-.2727585.1278954-.8610001-.1875305-.963295-.477459-.170517-.7331505.2727585-.70755.6819992.016964.3239594-.1449623.5626373-.1620293.878067-.0085335.247261.0597343.5200195-.0256004.7587509-.0936623.2387238-.3323898.3410263-.4517555.5456238-.1022987.1960602-.0341339.485939-.0341339.6990662.0085335.2812881-.0254974.4688721-.1364326.724617-.1021919.2387314-.2727585.4433212-.3238525.7076035-.0938683.4262543.0085335.8183823.0085335 1.2617035.0169601.4007111-.0341339.8610458-.2984657 1.1764755-.1533928.1875305-.2216606.2301941.0085335.3836441.3410263.2045898.6820526.3921204 1.0571098.5370865.2557983.0937653.5370903.1789932.7758179.3154221.2216644.1363831.4177246.1108322.6734161.170517.3069992.0766983.6138916.1789932.9122505.2727585.1278992.0426712.4945259.0256042.5370865.1449661-.2301941.3068924-.4262543.3665771-.7843513.3921204-.3409195.0341339-.6052513.0938187-.9206772.2216644-.2387276.1022949-.4262581.2301941-.6308517.3921738-.281292.238678-.5029564.3495102-.8866501.3495102-.3666267 0-.6819496-.0255508-1.0400429.0938187-.4347916.1534424-.8184853.3409729-1.2958412.3665695-.6223183.0170212-1.2787704-.1193619-1.8840218.0170212-.5541573.1193619-1.0656471.1108322-1.628334.1108322-.1448631 0-.2813988.0085297-.4262581 0-.3665237 0-.8354492-.1023026-1.1764755.0852814-.0510979.0255432-.1022987.0596771-.1449661.0937653-4.3988991-1.6709518-8.2181511-4.5183258-11.082695-8.158577.1705666-.1193695.3495636-.2557449.4518585-.4347916.0768013-.1363831.0682678-.2216644.1108322-.3751068.0681648-.2557449.196167-.4006577.1876335-.6820068-.0085335-.2472076-.1024017-.4603348-.1449661-.6990662-.0341339-.2216644-.0510979-.741684.1534996-.895134.1277924-.1022949.4262543-.0596771.5796509-.0937576.1619263-.0426178.3239594-.1364365.4689255-.2216644.3835907-.2301941.3665237-.4603424.2216606-.8439789-.0768013-.1961136-.0853348-.3921814-.1365356-.5882416-.068058-.247261-.2386246-.4262543-.3750572-.6308517-.2045937-.3069458-.2387276-.6223755-.3409233-.9718781-.0341339-.1364365-.0768013-.3495636-.1876297-.4603958-.0510979-.0511475-.1364326-.085228-.196064-.1363754-.2045937-.1790466-.264225-.4774094-.3922272-.7161369-.1277924-.2472115-.2556915-.4858894-.4432182-.6905365-.264225-.2727585-.5114899-.5455704-.7587509-.8439789-.1533966-.1875305-.3579903-.3239632-.5030594-.5029564-.1277962-.1619797-.1619301-.3580933-.2726555-.5115395-.1280022-.1704636-.247261-.2472115-.3325958-.4688721-.178997-.4688759-.5114899-.9803619-.5625877-1.5004349-.0512009-.4859428-.0085335-1.0144958 0-1.5004349.0085335-.2983589.0341339-.6223221.1021957-.920681.0426674-.1961136.1194687-.4007072.2216606-.5712204.0256004-.0340843.1365356-.196064.1450691-.2557449.0340309-.196064-.0512009-.4091911.0084305-.6223183.0596313-.1619797.1791-.2472115.2983589-.3665771.1875267-.1961136.443325-.4092407.6052513-.6308517.1450691-.1961136.1705666-.4347916.2728653-.6479187.1364288-.2472649.3665237-.3495636.6052513-.4774094.1960602-.1193619.3325958-.1619797.5542603-.1449623.3323898.0256004.545517-.1278458.8013115-.3409767.1619301-.1364326.2898293-.2728119.3921242-.4347916.0597343-.0937614.0937653-.2301941.1704636-.3154259.1620293-.1960602.4262581-.4007072.6905861-.4177246.2387276-.0085335.4689255.0085335.707653-.0256004.196064-.025547.3835907-.0766945.5796547-.1022949.281395-.0340843.5711174 0 .8610458-.0085335.2728653 0 .5029564-.0340843.7671814.0511475.6735191.2557945 1.2107124.7076035 1.9181595.8695831.3751602.085228.7673874.042614 1.1424446.1108284.1704597.0256004.2983589.0256004.4689255-.017067.2556915-.0766945.5113831-.1960602.7671814-.042614.1109314.0596809.1960602.1790466.2984619.2472115.1192589.0767479.2471581.1108322.3579903.1875801.1789932.1193657.3410263.3068924.477459.485939.1960602.2728119.4091873.5285568.6137848.7842979.1193657.170517.2045937.4091911.3494568.5626907.1534958.1619797.4262581.1789932.6053543.3239059.2045975.170517.2386246.4689255.5285568.5370903.1875267.0511475.3494568.0596809.5370865.1449661.1705666.0596809.392231.0766945.5029564.2301445.2045937.2813416.2131271.6479187.4859924.9036636.3750572.3410263.9036102.7928848.7757149 1.3640556-.1107292.4688721-.5029564.8525124-.6308556 1.312851-.0596275.1875801-.0766945.3495636-.0341339.5285568.0341339.1108322.1024017.2045937.1280022.3239594.0254974.1790466-.017067.3751106.0340309.5541573.0510979.1619797.1705666.3239594.2556915.4774055.1450691.2557449.2643318.5200195.4007607.7757645.1534996.2898788.3922272.503006.724617.5797043.2387314.0511513.3835907-.1363792.6308556-.0511475.1534958.0511475.4091873.1875801.4774551.3580933.0426674.1363792.0085335.5882378.0256004.6564026.0340309.2387276.0851288.5541534.2045975.7672806.1789932.3154297.5029526.485939.8269157.6223221.247261.1022949.545517.1619797.7586441.3410263.2301979.1960602.2728653.4518051.3922272.7076035.1534996.3154221.5114899.3835907.7843513.571167.196064.1449127.3323898.3068924.5967216.3495102.3495598.0426178.809845.0682144 1.1679382.017067.2472649-.0340805.4688225-.1960602.7160835-.2387314.2643318-.0596313.5712242-.1534424.6479225-.4518051.0426674-.1790466.0597343-.571167-.0085335-.741684-.0596313-.1875763-.3067894-.2216644-.460392-.3154221-.2300911-.1364365-.4177246-.2557449-.6819496-.3154297-.1193657-.0255966-.2386246 0-.3580933-.0511475-.2727585-.1022949-.5625877-.4518585-.7842484-.6479187-.2216606-.1961174-.3239594-.3665771-.3324928-.6649895-.017067-.2045937-.0510979-.528553.0681648-.70755.3666267 0 .707653-.0085335 1.0571098.0852318.3495598.0852318.6820526.1449127 1.0315094.1534462.3155289.0085335.707653-.0340805.920784-.3154259.2216606-.3154259 0-.8269653.3750534-1.0571098.3155327.4006577.5882912.7757645.8184853 1.227623.2045975.3921242.3580971.7502174.8099518.8780632.2045975.0511475 1.2275734.1534462 1.1593056-.3068924-.017067-.1619797-.3494568-.3068924-.4347916-.4177246-.264225-.3068924-.4518585-.69907-.5113831-1.0912437-.0597343-.3409767-.196167-.3409767-.4518585-.5370903-.1875267-.1449127-.2728615-.3665733-.460392-.5200195-.2301941-.178997-.3921242-.3751106-.5115929-.639389-.1021919-.2216606-.0340271-.6649323-.2045937-.8269119-.1277962-.1193657-.443325-.0767517-.6052513-.0767517-.2045975-.0340805-.3750572.0256004-.5114899.1705132-.1791.170517-.3751602.3068962-.5882912.4091911-.1533928.1705132-.085125.4262581-.085125.6308556.0085335.2301941.0510979.4433212-.0682678.6393852-.1789932.2813454-.8183823.5712204-1.1339111.5115395-.2897224-.042614-.281189-.2898788-.3921242-.503006-.1021919-.1619797-.2131271-.3154259-.3323898-.4688721-.1620331-.238678-.3836937-.3665771-.6649857-.3665771-.1278992.0767517-.1620331.1875305-.0938683.3154259 0 .0426178 0 .0682182-.0085335.1108322-.0510979.1534462-.5711174.4347916-.5967178.443325-.2301979.0766983-.477459.1704597-.5369873-.1108322-.0085335-.0852814.0084305-.1961136.0084305-.2813454.0085335-.3495064.0766983-.5967712.3580933-.8098984.2983589-.2301445.4944229-.3495064.5285568-.7587509.0254936-.3495064.0169601-.6905365.1364288-1.0400429.0341339-.1193657.0936623-.2557449.1192627-.3836441.0426674-.3154259.0597343-.6393852.0597343-.9633446 0-.2216606.0852318-.70755-.1533966-.8439827-.0768013-.0085335-.1450691-.025547-.2216606-.0340805-.1109352 0-.1620331.0511475-.1534996.1449127-.1108284.1449127-.068161.2472115-.281292.3154259-.1620293.0596848-.6223183.1534462-.7758179.0256004-.0766945-.0596809-.0596275-.1790466-.0596275-.2642784v-.5797539c0-.1704636.0765915-.4944229-.017067-.6649361-.2301979-.3665733-.8014183 0-1.0316162-.2813454-.1534996-.1789932-.0425644-.485939-.1875267-.6905327-.1193657-.1705132-.3324928-.4944725-.5797577-.4603386-.0766983 0-.1448593.0937614-.2045937.1108284-.1192627.0426178-.3153229.0255508-.4091911 0-.0766983-.017067-.1533966-.0596809-.2216644-.0938148-.1533928-.0511475-.2898254-.042614-.4518547-.042614-.2982559 0-.6052551-.0170174-.9121475 0-.3068924 0-.5797539.1364288-.8865433.1534462-.477459.0085335-.4859924-.238678-.6905899-.5882378-.1704597-.2727585-.4433212-.4262581-.6052513-.6905365-.2045937-.3409729-.4091911-.6990166-.5882874-1.0656433-.1193657-.2557449-.3068962-.5455704-.3495636-.8269157-.0766945-.3921738.4945259-.2387276.7247238-.3410263.2556915-.1193123.4858856-.4177246.7330437-.5200195.2301979-.0766983.5030594-.0852318.7417908-.0852318.2131271-.0085335.6223183-.1108322.8183784.025547.0852318.0596848.0768013.1534462.1193657.2301979.1108322.2216606.2727585.3836403.3580933.6137848.0766983.2301941.1704636.4347916.2387314.6649857.068058.196064.2045937.3580437.4091911.4518051.264225.1108322.5625839-.0340805.809845-.1619797.1533966-.085228.4347916-.2557411.5370903-.4091911.1022987-.1534462.0596313-.2813416.0766983-.4433212.017067-.1875305.0768013-.238678.1619263-.3835907.1280022-.2301979.2728615-.7672844.6479187-.6649857.1875305.0596809.3922272.3154259.5626907.4177208.2131271.1364326.3666267.2898788.5712204.4518585.1533966.1108322.3154259.2898254.4859924.3665771.1875305.085228.5540504.0596809.7501144.0340805.3069954-.0340805.5626869-.2045937.8269157-.0085335.2045937.1705132.3411293.2898788.5968208.3666267.1449661.0426178.3154259.0766983.4688225.0937653.2557945.0340805.2301941.025547.3411293-.1364326.1448631-.221611.213131-.3409729.4857826-.4006577.2557983-.0596809.4689255.017067.6649895.1534462-.1107292.2301979-.2387314.4603424-.3835907.6734695-.0682678.1449661-.0597343.2642784.0426674.3665771.0852318.2301941.2727585.4433212.3494568.6905861.0682678.1619263.0768013.2727585.0768013.4432716-.0085335.2728119.0596275.3751106.2387276.5456238.196064.1960602.3750572.3580399.6223183.4688721.2898293.1193657.4858894-.017067.724617-.1619797.3495636-.2301445.5029564-.6479225.9633484-.6308556.3154259.017067.8525162.1278992 1.1168442-.085228.2131271-.1705132.1363258-.4774055.1704597-.7161369.0256004-.2216606.0510979-.3836403.0510979-.5967712.0085335-.4518051.3836937-.5797043.7587509-.6990662.5626907-.178997 1.2190399-.3921242 1.3299713-1.0485802-.4945221-.1534462-1.1935425-.0766945-1.6624641.1619797-.3410263.1790504-.6223183.5626373-.9121437.8099022-.1534996.1705132-.3410301.2898254-.5541573.3580399-.1534996.0596848-.2983589.1278992-.4518585.2045975-.2215576.1534462-.4006577.4092407-.6990166.4347916-.1704597.017067-.3835907.0085335-.54562 0-.9633484-.0340843-.213131-.9633484-.1705666-1.4578209.017067-.3068924-.0340309-.4603386-.3153229-.5029564-.1960602-.0256004-.6479187-.1108284-.6649857-.4007072-.0085335-.2301445.2983589-.3495102.443325-.4688721.2556915-.238678.4518547-.5541039.7245102-.7672348.460392-.3751068 1.168045-.2301941 1.7306328-.2301941.3580933.0085335.6905861-.0767479 1.0400429-.0767479.4518585.0085335.9037132-.0084839 1.3555717 0 .0937653-.0084839.1875305 0 .281395.017067.110733.0767479.2386246.1364288.375061.1790466.1875305.0596809.3835907.0340805.5796509.0340805.2387314 0 .4859924-.0085335.7161865.042614.2557983.0596848.2557983.213131.2216644.4518585-.0256042.1534462-.0597382.3154259-.0853348.4688721.0341339.1363831.1109314.2301979.2387314.2983627.2131271.2131271.2728577.4603882.4347839.6990662.0512009.1022987.1364365.1534462.2472687.1705132.153389.1108322.2983551.2301979.4347916.3580437.1789932.1619797.3153229.3324928.5711136.3580933.4262619.0340805.8610535-.0085335 1.2873077-.0085335.1619263 0 .4006577.0511475.5541534-.0085335.1108322-.0340805.1876373-.1193657.2301941-.2301979.1193695-.1108284.2556992-.2045937.392128-.2983589.3410263-.3836403-.0169601-1.031559.3836899-1.3981361.3238602.2216644.0256042.6223183 0 .8695831-.017067.1534462.0085373.3665733.017067.528553.017067.238678.1875305.4091911.3323898.5797043.1364365.1705132.4518585.4774055.7076569.3324928.1960602-.1193619.2301941-.528553.3068924-.7161331.1022949-.2301445.2131271-.4091911.3751602-.6052551.3409271-.4092407.7586517-.7587471 1.0144424-1.2361565.1277924-.247261.0852356-.5541534.2131271-.7928314.0681686-.1364326.1619339-.1961136.2045975-.3495598.0766983-.2898254 0-.7331505 0-1.0400429-.0085297-.1534462.0085373-.2898788.0426712-.4347916.0765915-.2898788.1619263-.6393852.2982559-.9121971.3751602.0767479.596817.4177246.9549103.485939.2387314.042614.5200272-.0085335.7586517 0 .0938644 0 .247261.0340805.3325958-.0256004.1448593-.1108322.2216644-.485939.2386246-.6478691.017067-.264328-.0084305-.54562-.0084305-.8013649 0-.2301941-.017067-.460392-.0085297-.6820526.0169601-.213131.0765915-.3835907.1960602-.5541039.1107254-.1449661.2812958-.213131.3323898-.4007111.0682678-.2642746.0341339-.6905327.017067-.9718246-.017067-.170517-.0596313-.3324966-.2131271-.443325-.1023026-.0852852-.2812958-.1022987-.375061-.2045975-.1619263-.1619797-.1024017-.4262581-.0938644-.6393852 0-.2216606-.0085373-.4262581-.0085373-.6564522 3.1885071 4.2966577 5.072525 9.6248743 5.072525 15.3793527z"/><path d="m75.7303772 38.6499519c-.1189499-.041214-.2241592-.1325798-.3431091-.1600533-.0914764-.0183182-.1921082.0091591-.2836914-.0228958-.1189575-.041214-.1554794-.1189537-.2241669-.2150078-.132576-.1784782-.3568497-.2836914-.3568497-.5170135-.0044708-.1006317-.0273666-.2469482-.0091629-.3431129.0228958-.1097908.1235352-.1692123.1510086-.2744255-.0823135-.1601639-.5443802-.0732689-.6862259-.0228958-.1463165.0503731-.256218.1189499-.4208527.086895-.2104263-.045681-.393486-.2652626-.5352173-.4162712-.0732727-.086895-.1281128-.2378998-.2287445-.2974319-.1601639-.0914726-.3660126-.1006317-.5307541-.1921043-.2104263-.1143723-.420845-.2470627-.5535355-.4483261-.0823135-.1143723-.1510086-.2379036-.242485-.352272-.1281052-.1600533-.3156357-.2241631-.4757996-.3476944-.0914764-.0731583-.1646271-.169323-.2516403-.2470589-.1875229-.1646309-.3933716-.1554718-.6129532-.256218-.1372681-.0594177-.2378998-.1371574-.3568497-.2287407-.1418533-.1096802-.2791138-.1737938-.4483261-.2379036-.2608032-.1005211-.4941177-.2058449-.7182846-.3704758-.0960541-.0686913-.1510086-.1143723-.2470627-.1464272-.2058411-.0594177-.3385315-.2012672-.5168991-.3064804-.1372681-.0824242-.256218-.1510048-.3843307-.2470589-.1052094-.086895-.1966858-.1143684-.2516327-.2378998-.0365295-.0777359-.0548401-.2516403-.1371613-.2881622-.0686874-.0320549-.1464233.0091591-.2242737-.0274734-.1463165-.0732689-.2240524-.1830635-.3156357-.3111725-.0823135-.1143684-.1508942-.1279945-.2698441-.1875267-.1281128-.0595322-.2424774-.1464272-.3614349-.2195835-.2012634-.1143723-.2104187-.2927418-.2653732-.5078564-.0183182-.0777378-.0366364-.1554737-.0548401-.2332115-2.83638-1.0659733-5.9061966-1.6515675-9.113163-1.6515675-1.4456139 0-2.8592796.1189518-4.2408905.3476925-.004467.0091591-.0136261.0183182-.0227852.0274773-.0915871.086895-.1739006.1326866-.1968002.2652645-.0183144.1189499.0183182.2470589.0091591.3660088-.0091591.1006336-.0502586.2745361-.1418457.3339558-.0685768.041214-.2195854.041214-.301899.0732689-.1097946.0411015-.2012672.1188393-.2881622.1921082-.0870056.0685768-.1968002.1006317-.2607994.1921062-.0641098.0915871-.0732689.2059574-.086895.3156376-.0228958.1372681-.0595284.2195835-.1510048.3203297-.1235275.1371555-.0914726.301897-.0320549.4758015.0641098.17379.1830597.3384209.2974319.4802704.0777359.1007423.0685768.0915833.1006317.1876373.0320587.0777359-.0137367.0411034.0685806.0960541.1601639.1052132.3660088.0137405.521595.1418495.0685768.0548401.1143684.1279945.1921082.17379.0685768.041214.1326866.0502586.2012634.0914726.1464272.0823174.2104263.3202171.301899.4574852.0915871.1464272.0457954.2607956.0686913.4254303.0366364.2882729.2744255.3431129.5443802.3660088.1235313.0137367.2882729-.0320549.4072227.0091591.0502625.0137367.1508942.128109.1646309.1372681.0595322.0502586.1966896.1097908.2287445.1829491.0183182.0320549 0 .1007423 0 .128109-.0091591.1053238.0045776.3202171-.0914764.4026451-.0320549.0274734-.1555824.0594177-.1875267.0731544-.1097908.0503731-.3614311.1143723-.4255409.215004-.0823174.1143723.0091591.256218.0686874.3568535.0914764.1601639.1600533.2516365.3568535.2882729.0777359.0183182.1783676.0319443.2561073-.0045815.0778465-.041214.1189499-.128109.2013779-.1601639.0731544-.0320549.1646309-.0365219.2424774-.0503693.0731583-.0136299.1417351-.0227852.1966896-.0777397.045681-.0366325.0685768-.1097908.1143684-.1418457.086895-.0685768.5718575-.1188393.6130714-.0183182.0502586.1053238.004467.3661232-.0641098.4530182-.086895.1052132-.1646347.1143723-.169323.260685-.0091591.2699547.1190605.393486.2151146.6268082-.3020096.2470589-.6313858.1783676-.9836578.1875267-.1143723.0045815-.2607994.0274773-.352272.0961647-.1052132.0777397-.086895.1692123-.0365219.2698479.0731544.1555824.1875267.3431129.2927399.4757996.0595322.0777359.128109.1601639.2241631.1875305.17379.0503693.4163818.0183144.5947533.0137367.2333183-.0045815.4574814-.0639992.6908035-.0411034.1601639.0182076.4116936.1143723.5443802-.0228958.0549507-.0549507.0685768-.1555862.128109-.2058449.0639992-.0549507.1555862-.0503731.2333221-.0503731.1554718.0045776.215004-.0045776.3293762-.1097908.1921082-.1647453.4574814-.0732689.6770668-.1601639.0778465-.0274773.1326866-.0731583.215004-.1006355.1097908-.0365219.2195854-.0320549.3339539-.0320549.1739044 0 .352272.0366364.5124359-.045681.0594215-.0320549.0960541-.0731583.1646347-.0870056.0778465-.0182076.169323.0046883.2516365.0046883.1052132-.0046883.1922188-.0228958.2928543-.0457916.1692085-.0457916.3521576-.0549507.4940071-.1555862.1601639-.1143684.128109-.3247948.1235275-.5077438-.0045776-.0778465-.0045776-.1418457-.0274734-.215004-.0273666-.086895-.0914764-.1510048-.1096802-.2333221.4208488-.0549507.8554382.0182076 1.2808647-.0320549.2836952-.0366325.6816483-.3431129.521595-.654171-.0549507-.0961647-.1372681-.2058449-.2378998-.256218-.1189499-.0548401-.2836952-.0137367-.4118042-.0137367-.1508942.0045776-.3660088.041214-.5031662-.0411034-.1876373-.1235313-.2699547-.3705902-.521595-.4026451-.1646309-.0228958-.3339539-.0731583-.4849586-.1601639-.086895-.0502586-.1600533-.128109-.2148933-.2104263-.0641098-.0960541-.0778465-.1235275-.0320549-.2195816.0639992-.128109.2516403-.2012672.3751678-.256218.1143723-.0502625.1829491-.0548401.3064804-.0594215.1097908 0 .2287407.0228996.3339539-.0228958.086895-.0366325.0914764-.0685768.1554718-.1326866.1555862-.1554756.60849-.086895.8097572-.0777359.1830597.0045776.3751678.0366325.5535393.0183144.0641098-.0091591.1418457-.0457916.2059555-.041214.1143723.0091591.1966896.1097946.2744255.1739044.0870056.0731583.1372681.1143723.2516365.0960541.1235313-.0228958.2424812-.0777359.3751717-.0503731.1464233.0366325.1783676.1922188.2424774.301899.0685806.1143723.1554756.1830597.2470627.2699547.1829491.1647453.2561035.2836952.260685.5353355-.2333221.1279945-.6358566.17379-.78228.3933716-.0777397.1143723-.1097946.3202171-.0914764.4529076.041214.352272.5123253.3843269.7960205.3751678.1464233 0 .3431129-.041214.4849586 0 .1326866.0410995.1737938.1646309.2562141.260685.1096802.1282196.2150116.1784821.375061.1876411-.1875305.3750572-.695385.7045441-1.1208153.6770668-.2516403-.0183182-.4895401.0274773-.7274399-.1006317-.1279984-.0686913-.2378998-.1372681-.3247948-.256218-.0502625-.0685806-.0639992-.0914764-.1554756-.1006355-.0732689-.0091591-.306591-.0228958-.3843269.0091591-.0548401.0228958-.1006317.086895-.1464272.1189499-.1097908.0731583-.2653732.086895-.3293724.2195854-.0639992.128109-.0731583.3202171-.0777397.4620628-.0091553.3064804.1737938.4025345.439167.439167.1829491.0274773.3568535.0960541.5398026.1052132.0915871.0091591.1876411-.0045815.2791138-.0045815.2195854 0 .480381-.0365219.695385 0 .1189499.0228996.2104263.0914764.3293762.128109.1463127.0502625.2835808.0457954.4437447.0502625.1600571.0046921.2607956.0230064.416275.082428.1143646.0457916.2012634.0594177.324791.0594177.5626984-.0136261 1.1255112-.004467 1.6882019-.004467.2195892 0 .4437485.0136261.6633301 0 .064003-.0046921.1875305-.0503731.242485-.0046921.0548401.0549545.0823135.2242775.1189499.2928543.0456772.0914726.0731583.1372681.068573.2378998-.0045776.086895-.0137329.1692123.0045853.256218.0183182.1143723.0823135.2195854.0868912.3384247.0091629.1967964-.0090485.210537-.1417313.3614273-.0915909.1007462-.2516403.128109-.3705902.2059593-.1143723.0731583-.1829529.1371574-.3247986.1508942-.1097946.0091591-.2151184.0045776-.3247986 0-.2470551-.0045815-.503273.0320549-.7503357.0183182-.1326828-.0045815-.2881622-.041214-.4116898-.086895-.1464233-.0503731-.2607956-.0639992-.4072266-.0686913-.1921005-.0091591-.3385315-.0594177-.5031586-.1417351-.1601715-.0778503-.3431168-.1601639-.5215988-.1739006-.1189499-.0045815-.1692123-.0366364-.2699547-.1052132-.045681-.0319443-.1005211-.0639992-.1463165-.1052132-.0228958-.0228958-.086895-.1143723-.1235275-.1326904-.1601639-.0685768-.2973213.0732689-.393486.1830635-.1508942.1692085-.2927399.3385315-.4529076.5031662-.0731544.0732689-.1279945.1372681-.2333183.1601639-.0960541.0183144-.2606888.0091591-.3613205-.0045815-.1372681-.0274734-.2378998-.1372681-.3568497-.215004-.1418495-.0960541-.2516403-.1464272-.4209633-.1464272h-.78228c-.1326904 0-.2698441 0-.4025345-.0045776-.0457916 0-.128109-.0183182-.169323 0-.1235275.041214-.215004.2836952-.2470589.393486-.1052132.3751678.1601639.7502251.4209633.9927063.045681.041214.0960541.1006317.1600533.128109.082428.0366325.1876373.0274734.265377.0731544.1829491.1097946.169323.3568535.3980637.3980675.2927399.0548401.78228.0182037.924015.3568497.0274773.0639992.0228958.1463165.0503731.215004.0366325.1052132.0960541.1646347.1646309.2516403.0961647.1235275.082428.2652626.1784821.397953.1554718.2195816.4025345.3843269.5901718.5764351.128109.1326866.2515297.2195816.4300079.265377.3476944.0914726.7593842.0366325 1.1116562.0410995.2378998 0 .457489-.045681.6999664-.045681h3.1154938c.1326904 0 .2241669.0228996.3247986-.0641098.1235275-.1097908.2012634-.2973213.2378998-.4529037.0183182-.0914764.0320511-.1966896.0228958-.2927399-.0137405-.1326904-.0731583-.2150078-.1326904-.3293762-.1006317-.2012672-.041214-.480381-.0457916-.7045441 0-.1784821 0-.2241631.0961685-.3797493.0319443-.0410995.0456772-.0777359.0777359-.1189499.1006317-.1189499.256218-.1464272.3797455-.2378998.1371536-.1006355.1279984-.2104263.1235275-.3660088-.0046844-.1646347-.0046844-.3292656-.0046844-.4985886 0-.082428-.0182114-.1829491-.0044708-.265377.0319443-.1875267.1692123-.265377.1371536-.4712219-.0045776-.0502586-.0456772-.2927399-.1143723-.3568497-.0319366-.0319443-.1646271-.0502625-.1921082-.0639992-.1326828-.0595322-.3156357-.2058449-.324791-.3614311-.0091629-.1417351.1189499-.3660088.1372681-.5169029.0090485-.0961647.0045776-.1966896.0045776-.2928543 0-.1417351.0044708-.2927399 0-.439167-.0045776-.3339539-.3705902-.3751678-.5947495-.5535393-.0823212-.0639954-.2195892-.1922188-.2470627-.301899-.0274734-.1235275.1189499-.256218.2104263-.3294868.1326904-.1052132.2378998-.1006317.393486-.0960541.1235275.0045815.2881622-.0410995.3979492.0228996.3247986.1830597.1966934.6999626.1966934.9972839 0 .1235275-.0411072.3339539.0046844.4530144.0411072.1005211.1829529.1921082.2561111.2698441.1006317.1052132.1693192.1601677.324791.1784821.1143723.0182076.2470627.0227852.3660126.0136261.1555862-.0091591.2699585-.0685768.2699585-.2332077-.0045776-.1601639-.0778503-.3249092-.2104263-.4118042-.1510086-.1052132-.2424774-.1966858-.3293762-.3614311-.082428-.1508942-.0503693-.3156357-.0503693-.484848 0-.082428-.0457993-.2928505.0366287-.352272.064003-.041214.3202209-.0046921.3887939-.0046921.1372681.0046921.3339615.0183182.457489.0961685.0868912.0548401.1143723.1600494.1921082.2058449.1876373.1235275.4621735.0639992.6725998.0549507.2698441-.0091591.4254303.1417351.6129532.3247948.1097946.1052132.2059631.1921082.256218.3384247.1006393.2791138.2791214.4895401.4941254.690918.1966858.1875267.2881622.4300079.4757996.6266937.1326904 0 .17379.0457954.3064804.041214.2287369-.0045776.2653732.0274773.3751678.2241631.0502625.0960541.1189499.1829491.1966858.2561073.0320511.0457916.0639954.0961647.0914764.1418457.151001.082428.3476868-.1783676.4118042-.2835808.0823135-.1235313.0960464-.2241631.1006317-.3705902 0-.0823174-.0503769-.2699547-.0228958-.3339539.1006317-.2470589.5855942-.2241631.7868576-.215004.1006317 0 .311058.0548401.3614273-.0595322-.068687-.1234172-.1006313-.1737902-.2333217-.2195819z"/><path d="m30.7321663 52.653595c.1601658.0914764.2699566.0594215.3751698-.1097908.0823154-.1372681.1418457-.2745361.2378998-.4026451.2104263-.2881622.4529057-.3247948.791441-.3247948.0731544 0 .1601639-.0183182.2333221.0091591.1006317.0320549.1418457.1189499.256218.1372681.301899.0594177.5992165.0594177.8966484.0137367.2516403-.041214.3796387-.2470589.526062-.4438591.1876411-.2561035.3293762-.5671616.4026451-.878334.045681-.1875267.0366364-.3797455.0319443-.567276-.004467-.2424812.0641098-.3476906.1372681-.5626945.041214-.1372681.1097908-.2835846.1189499-.4208527.0091591-.1922188-.045681-.393486.0503731-.567276.0594177-.1052132.1508942-.1829491.2012672-.2928505.0777359-.1508942.1739006-.3202171.2333183-.4758034.0183182-.0548401.0183182-.1188393.041214-.17379.0456848-.1097908.1097946-.1875267.1234207-.311058.0138474-.1052132-.0227852-.2195816-.0136261-.3249092.0136261-.132576.0960541-.2515259.1097908-.3842125.0137367-.0960541-.0137367-.1966896-.0045776-.2928543.0366325-.4025307.2241592-.8233833.3614273-1.1939697.0685806-.1829491.1417351-.3020134.2835846-.439167.128109-.1235313.2974319-.2470627.3843269-.4072266.0914726-.1692085.0960541-.3842125.1692085-.567276.0732689-.1783676.1966896-.2927399.3293762-.4300079.1235313-.1326866.2104263-.2699547.2928543-.4345856.0914726-.1829491.2241631-.3020134.3705864-.4483261.1279984-.1235313.2927437-.2470627.3614311-.4116936.0502625-.1099014.0502625-.2378998.086895-.352272.0365257-.1190605.0502625-.2242737.0685806-.3431129.0274734-.2195816.1143684-.3889046.215004-.5810127.0778465-.1464272.0641098-.3568535.169323-.4758034.1235275-.1464233.3293762-.2745323.480381-.3889046.17379-.128109.3202171-.2836952.4756889-.4300079.1143723-.1097946.219696-.2012672.306591-.3339577.1052132-.1647415.2241631-.2973175.3385353-.4529037.0914726-.1143723.1143684-.2974319.2378998-.3843269.128109-.0914726.3750572-.0228958.4437447-.17379.0137405-.0320549 0-.0732689.0091591-.1052132.0183182-.0595322.0639992-.1190605.086895-.1830597.0914764-.2516403.0366364-.526062.1143723-.78228.0320549-.1189499.086895-.2607994.1554718-.3614311.0778503-.1052132.2334328-.1875305.2791138-.3156395.0183182-.0639954.0045815-.1692085.0137405-.2378998.0137367-.086895.041214-.1510048.0641098-.2378998.0319443-.1372681.045681-.2333221.132576-.352272.0595322-.0914764.1235313-.1783714.1830597-.2699547.0823174-.1235313.1646347-.2379036.2195854-.3750572.0639992-.1464272.1418457-.3203278.1418457-.4849625 0-.086895-.0320549-.1829491.0091591-.265377.0594215-.1279945.2377892-.1875267.3339539-.2835808.1235313-.1189499.2240524-.2378998.356739-.3476944.1510086-.1235275.265377-.2699547.3705902-.4255409-6.9033662 4.0762594-11.7481671 11.2724798-12.5945588 19.6490439z"/></g><path d="m80.4629288 64.920517c-3.8122253 9.5073013-13.1228638 16.2232666-23.9975624 16.2232666-14.2843361 0-25.8617744-11.5773239-25.8617744-25.86166 0-5.7980385 1.9014854-11.1464882 5.1236-15.4551849-1.2176132 2.9973831-1.8827324 6.2663765-1.8827324 9.6945915 0 14.2750168 11.5774384 25.8617172 25.8523979 25.8617172 8.5143699 0 16.0639305-4.1120301 20.7660713-10.4627304z" fill="#344d5b" opacity=".15"/><path d="m54.52985 20.8756847h-29.63171c-.6204739 0-1.1234341.5029945-1.1234341 1.1234684v20.486496c0 .6204758.5029602 1.1234322 1.1234341 1.1234322h29.63171c.620472 0 1.1234665-.5029564 1.1234665-1.1234322v-20.486496c0-.6204738-.5029945-1.1234684-1.1234665-1.1234684z" fill="#4d5c7d"/><path d="m31.376686 17.832403h16.674789v27.319912h-16.674789z" fill="#fcd462" transform="matrix(0 1 -1 0 71.206 -8.222)"/><path d="m39.7140312 40.8234215c-.9068489 0-1.6419563.468399-1.6419563 1.0461884s.7351074 1.0461884 1.6419563 1.0461884c.9068108 0 1.6419182-.468399 1.6419182-1.0461884s-.7351074-1.0461884-1.6419182-1.0461884z" fill="#3a556a"/><path d="m58.0281067 43.3090553h-36.62817c-.1783009 0-.2962151.1851959-.2207813.3467407l1.1999874 2.5697098c.0400715.0857391.1261444.140564.2207794.140564h34.2281952c.0946388 0 .1807098-.0548248.2207832-.140564l1.1999855-2.5697098c.0754356-.1615447-.0424805-.3467407-.2207794-.3467407z" fill="#3a556a"/><path d="m37.358486 43.609081h5.04011v.413644h-5.04011z" fill="#4d5c7d"/><path d="m84.5931702 56.4524727h-18.4685898c-.5222855 0-.9456406.4233551-.9456406.9455872v29.5210991c0 .5222855.4233551.9456406.9456406.9456406h18.4685898c.5222321 0 .9456406-.4233551.9456406-.9456406v-29.5210992c-.0000001-.522232-.4234086-.9455871-.9456406-.9455871z" fill="#3a556a"/><g fill="#2f4859"><path d="m67.587158 77.997627h.54555v2.193427h-.54555z"/><path d="m69.294037 77.997627h.54555v2.193427h-.54555z"/><path d="m71.000916 77.997627h.54555v2.193427h-.54555z"/><path d="m72.707794 77.997627h.54555v2.193427h-.54555z"/><path d="m77.828438 77.997627h.54555v2.193427h-.54555z"/><path d="m79.535317 77.997627h.54555v2.193427h-.54555z"/><path d="m81.242195 77.997627h.54555v2.193427h-.54555z"/><path d="m82.949074 77.997627h.54555v2.193427h-.54555z"/><path d="m67.587158 80.769249h.54555v2.193427h-.54555z"/><path d="m69.294037 80.769249h.54555v2.193427h-.54555z"/><path d="m71.000916 80.769249h.54555v2.193427h-.54555z"/><path d="m72.707794 80.769249h.54555v2.193427h-.54555z"/><path d="m74.414681 80.769249h.54555v2.193427h-.54555z"/><path d="m76.121559 80.769249h.54555v2.193427h-.54555z"/><path d="m77.828438 80.769249h.54555v2.193427h-.54555z"/><path d="m79.535317 80.769249h.54555v2.193427h-.54555z"/><path d="m81.242195 80.769249h.54555v2.193427h-.54555z"/><path d="m82.949074 80.769249h.54555v2.193427h-.54555z"/><path d="m67.587158 83.540871h.54555v2.193427h-.54555z"/><path d="m69.294037 83.540871h.54555v2.193427h-.54555z"/><path d="m71.000916 83.540871h.54555v2.193427h-.54555z"/><path d="m72.707794 83.540871h.54555v2.193427h-.54555z"/><path d="m74.414681 83.540871h.54555v2.193427h-.54555z"/><path d="m76.121559 83.540871h.54555v2.193427h-.54555z"/><path d="m77.828438 83.540871h.54555v2.193427h-.54555z"/><path d="m79.535317 83.540871h.54555v2.193427h-.54555z"/><path d="m81.242195 83.540871h.54555v2.193427h-.54555z"/><path d="m82.949074 83.540871h.54555v2.193427h-.54555z"/><path d="m67.230087 58.628136h16.257519v4.957258h-16.257519z"/><path d="m67.230087 64.695229h16.257519v4.957258h-16.257519z"/><path d="m67.230087 70.871643h16.257519v4.957258h-16.257519z"/></g><circle cx="75.49" cy="78.917" fill="#e56353" r="1.024"/><path d="m86.4677124 39.1576691v-18.6502591h-22.7632256v2.157692h20.6055336v16.4925671h-2.3942108l3.4641037 4.6899223 3.4641037-4.6899223z" fill="#3a556a"/><path d="m27.8786144 70.8423309v18.650261h22.7632237v-2.157692h-20.6055336v-16.492569h2.3942184l-3.4641075-4.6899261-3.4641075 4.6899261z" fill="#3a556a"/></svg>