<svg enable-background="new 0 0 110 110" height="512" viewBox="0 0 110 110" width="512" xmlns="http://www.w3.org/2000/svg"><path d="m32.36116 37.153179h52.706039v21.365664h-52.706039z" fill="#2f4859"/><path d="m85.5599136 22.176609h-53.6914672c-1.0580444 0-1.9157715.8577271-1.9157715 1.9157715v12.2911911c0 1.0580444.8577271 1.9157104 1.9157715 1.9157104h53.6914673c1.0580444 0 1.9157715-.857666 1.9157715-1.9157104v-12.2911911c-.0000001-1.0580444-.8577271-1.9157715-1.9157716-1.9157715z" fill="#3a556a"/><g fill="#2f4859"><path d="m34.235867 25.029223h2.800884v1.0962h-2.800884z"/><path d="m37.753777 25.029223h2.800884v1.0962h-2.800884z"/><path d="m34.235867 26.893471h2.800884v1.0962h-2.800884z"/><path d="m37.753777 26.893471h2.800884v1.0962h-2.800884z"/><path d="m34.235867 28.757721h2.800884v1.0962h-2.800884z"/><path d="m37.753777 28.757721h2.800884v1.0962h-2.800884z"/><path d="m34.235867 30.621969h2.800884v1.0962h-2.800884z"/><path d="m37.753777 30.621969h2.800884v1.0962h-2.800884z"/><path d="m34.235867 32.486218h2.800884v1.0962h-2.800884z"/><path d="m37.753777 32.486218h2.800884v1.0962h-2.800884z"/><path d="m34.235867 34.350468h2.800884v1.0962h-2.800884z"/><path d="m37.753777 34.350468h2.800884v1.0962h-2.800884z"/><path d="m42.39983 25.029223h2.800884v1.0962h-2.800884z"/><path d="m45.917744 25.029223h2.800884v1.0962h-2.800884z"/><path d="m42.39983 26.893471h2.800884v1.0962h-2.800884z"/><path d="m45.917744 26.893471h2.800884v1.0962h-2.800884z"/><path d="m42.39983 28.757721h2.800884v1.0962h-2.800884z"/><path d="m45.917744 28.757721h2.800884v1.0962h-2.800884z"/><path d="m42.39983 30.621969h2.800884v1.0962h-2.800884z"/><path d="m45.917744 30.621969h2.800884v1.0962h-2.800884z"/><path d="m42.39983 32.486218h2.800884v1.0962h-2.800884z"/><path d="m45.917744 32.486218h2.800884v1.0962h-2.800884z"/><path d="m42.39983 34.350468h2.800884v1.0962h-2.800884z"/><path d="m45.917744 34.350468h2.800884v1.0962h-2.800884z"/><path d="m50.563797 25.029223h2.800884v1.0962h-2.800884z"/><path d="m54.081707 25.029223h2.800884v1.0962h-2.800884z"/><path d="m50.563797 26.893471h2.800884v1.0962h-2.800884z"/><path d="m54.081707 26.893471h2.800884v1.0962h-2.800884z"/><path d="m50.563797 28.757721h2.800884v1.0962h-2.800884z"/><path d="m54.081707 28.757721h2.800884v1.0962h-2.800884z"/><path d="m50.563797 30.621969h2.800884v1.0962h-2.800884z"/><path d="m54.081707 30.621969h2.800884v1.0962h-2.800884z"/><path d="m50.563797 32.486218h2.800884v1.0962h-2.800884z"/><path d="m54.081707 32.486218h2.800884v1.0962h-2.800884z"/><path d="m50.563797 34.350468h2.800884v1.0962h-2.800884z"/><path d="m54.081707 34.350468h2.800884v1.0962h-2.800884z"/><path d="m77.7535782 26.7835064c-1.9078369 0-3.4544678 1.5466309-3.4544678 3.4544678s1.5466309 3.4544086 3.4544678 3.4544086 3.4544678-1.5465698 3.4544678-3.4544086-1.5466309-3.4544678-3.4544678-3.4544678z"/></g><path d="m85.5599136 39.817276h-53.6914672c-1.0580444 0-1.9157715.8577271-1.9157715 1.9157715v12.2911911c0 1.0580444.8577271 1.9157104 1.9157715 1.9157104h53.6914673c1.0580444 0 1.9157715-.857666 1.9157715-1.9157104v-12.2911911c-.0000001-1.0580444-.8577271-1.9157715-1.9157716-1.9157715z" fill="#3a556a"/><g fill="#2f4859"><path d="m34.235867 42.669888h2.800884v1.0962h-2.800884z"/><path d="m37.753777 42.669888h2.800884v1.0962h-2.800884z"/><path d="m34.235867 44.534138h2.800884v1.0962h-2.800884z"/><path d="m37.753777 44.534138h2.800884v1.0962h-2.800884z"/><path d="m34.235867 46.398388h2.800884v1.0962h-2.800884z"/><path d="m37.753777 46.398388h2.800884v1.0962h-2.800884z"/><path d="m34.235867 48.262634h2.800884v1.0962h-2.800884z"/><path d="m37.753777 48.262634h2.800884v1.0962h-2.800884z"/><path d="m34.235867 50.126885h2.800884v1.0962h-2.800884z"/><path d="m37.753777 50.126885h2.800884v1.0962h-2.800884z"/><path d="m34.235867 51.991135h2.800884v1.0962h-2.800884z"/><path d="m37.753777 51.991135h2.800884v1.0962h-2.800884z"/><path d="m42.39983 42.669888h2.800884v1.0962h-2.800884z"/><path d="m45.917744 42.669888h2.800884v1.0962h-2.800884z"/><path d="m42.39983 44.534138h2.800884v1.0962h-2.800884z"/><path d="m45.917744 44.534138h2.800884v1.0962h-2.800884z"/><path d="m42.39983 46.398388h2.800884v1.0962h-2.800884z"/><path d="m45.917744 46.398388h2.800884v1.0962h-2.800884z"/><path d="m42.39983 48.262634h2.800884v1.0962h-2.800884z"/><path d="m45.917744 48.262634h2.800884v1.0962h-2.800884z"/><path d="m42.39983 50.126885h2.800884v1.0962h-2.800884z"/><path d="m45.917744 50.126885h2.800884v1.0962h-2.800884z"/><path d="m42.39983 51.991135h2.800884v1.0962h-2.800884z"/><path d="m45.917744 51.991135h2.800884v1.0962h-2.800884z"/><path d="m50.563797 42.669888h2.800884v1.0962h-2.800884z"/><path d="m54.081707 42.669888h2.800884v1.0962h-2.800884z"/><path d="m50.563797 44.534138h2.800884v1.0962h-2.800884z"/><path d="m54.081707 44.534138h2.800884v1.0962h-2.800884z"/><path d="m50.563797 46.398388h2.800884v1.0962h-2.800884z"/><path d="m54.081707 46.398388h2.800884v1.0962h-2.800884z"/><path d="m50.563797 48.262634h2.800884v1.0962h-2.800884z"/><path d="m54.081707 48.262634h2.800884v1.0962h-2.800884z"/><path d="m50.563797 50.126885h2.800884v1.0962h-2.800884z"/><path d="m54.081707 50.126885h2.800884v1.0962h-2.800884z"/><path d="m50.563797 51.991135h2.800884v1.0962h-2.800884z"/><path d="m54.081707 51.991135h2.800884v1.0962h-2.800884z"/><path d="m77.7535782 44.4241753c-1.9078369 0-3.4544678 1.5466309-3.4544678 3.4544678s1.5466309 3.4544067 3.4544678 3.4544067 3.4544678-1.5465698 3.4544678-3.4544067-1.5466309-3.4544678-3.4544678-3.4544678z"/></g><path d="m85.5599136 57.457943h-53.6914672c-1.0580444 0-1.9157715.8577271-1.9157715 1.9157715v12.2911873c0 1.0580444.8577271 1.9157104 1.9157715 1.9157104h53.6914673c1.0580444 0 1.9157715-.857666 1.9157715-1.9157104v-12.2911874c-.0000001-1.0580444-.8577271-1.9157714-1.9157716-1.9157714z" fill="#3a556a"/><path d="m34.235867 60.310555h2.800884v1.0962h-2.800884z" fill="#2f4859"/><path d="m37.753777 60.310555h2.800884v1.0962h-2.800884z" fill="#2f4859"/><path d="m34.235867 62.174805h2.800884v1.0962h-2.800884z" fill="#2f4859"/><path d="m37.753777 62.174805h2.800884v1.0962h-2.800884z" fill="#2f4859"/><path d="m34.235867 64.039055h2.800884v1.0962h-2.800884z" fill="#2f4859"/><path d="m37.753777 64.039055h2.800884v1.0962h-2.800884z" fill="#2f4859"/><path d="m34.235867 65.903305h2.800884v1.0962h-2.800884z" fill="#2f4859"/><path d="m37.753777 65.903305h2.800884v1.0962h-2.800884z" fill="#2f4859"/><path d="m34.235867 67.767548h2.800884v1.0962h-2.800884z" fill="#2f4859"/><path d="m37.753777 67.767548h2.800884v1.0962h-2.800884z" fill="#2f4859"/><path d="m34.235867 69.631798h2.800884v1.0962h-2.800884z" fill="#2f4859"/><path d="m37.753777 69.631798h2.800884v1.0962h-2.800884z" fill="#2f4859"/><path d="m42.39983 60.310555h2.800884v1.0962h-2.800884z" fill="#2f4859"/><path d="m45.917744 60.310555h2.800884v1.0962h-2.800884z" fill="#2f4859"/><path d="m42.39983 62.174805h2.800884v1.0962h-2.800884z" fill="#2f4859"/><path d="m45.917744 62.174805h2.800884v1.0962h-2.800884z" fill="#2f4859"/><path d="m42.39983 64.039055h2.800884v1.0962h-2.800884z" fill="#2f4859"/><path d="m45.917744 64.039055h2.800884v1.0962h-2.800884z" fill="#2f4859"/><path d="m42.39983 65.903305h2.800884v1.0962h-2.800884z" fill="#2f4859"/><path d="m45.917744 65.903305h2.800884v1.0962h-2.800884z" fill="#2f4859"/><path d="m42.39983 67.767548h2.800884v1.0962h-2.800884z" fill="#2f4859"/><path d="m45.917744 67.767548h2.800884v1.0962h-2.800884z" fill="#2f4859"/><path d="m42.39983 69.631798h2.800884v1.0962h-2.800884z" fill="#2f4859"/><path d="m45.917744 69.631798h2.800884v1.0962h-2.800884z" fill="#2f4859"/><path d="m50.563797 60.310555h2.800884v1.0962h-2.800884z" fill="#2f4859"/><path d="m54.081707 60.310555h2.800884v1.0962h-2.800884z" fill="#2f4859"/><path d="m50.563797 62.174805h2.800884v1.0962h-2.800884z" fill="#2f4859"/><path d="m54.081707 62.174805h2.800884v1.0962h-2.800884z" fill="#2f4859"/><path d="m50.563797 64.039055h2.800884v1.0962h-2.800884z" fill="#2f4859"/><path d="m54.081707 64.039055h2.800884v1.0962h-2.800884z" fill="#2f4859"/><path d="m50.563797 65.903305h2.800884v1.0962h-2.800884z" fill="#2f4859"/><path d="m54.081707 65.903305h2.800884v1.0962h-2.800884z" fill="#2f4859"/><path d="m50.563797 67.767548h2.800884v1.0962h-2.800884z" fill="#2f4859"/><path d="m54.081707 67.767548h2.800884v1.0962h-2.800884z" fill="#2f4859"/><path d="m50.563797 69.631798h2.800884v1.0962h-2.800884z" fill="#2f4859"/><path d="m54.081707 69.631798h2.800884v1.0962h-2.800884z" fill="#2f4859"/><path d="m77.7535782 62.0648422c-1.9078369 0-3.4544678 1.5466309-3.4544678 3.4544678s1.5466309 3.4544067 3.4544678 3.4544067 3.4544678-1.5465698 3.4544678-3.4544067-1.5466309-3.4544678-3.4544678-3.4544678z" fill="#2f4859"/><path d="m44.4076157 47.8403358h-21.8833008v39.8544274h30.4589233v-31.2788048z" fill="#d5d6db"/><path d="m44.4076157 56.4159584h8.5756225l-8.5756225-8.5756226z" fill="#ebf0f3"/><path d="m26.901043 59.034901h21.705469v.898634h-21.705469z" fill="#b0b1b7"/><path d="m26.901043 62.552479h21.705469v.898634h-21.705469z" fill="#b0b1b7"/><path d="m26.901043 66.070053h21.705469v.898634h-21.705469z" fill="#b0b1b7"/><path d="m26.901043 69.587631h21.705469v.898634h-21.705469z" fill="#b0b1b7"/><path d="m26.901043 73.105209h21.705469v.898634h-21.705469z" fill="#b0b1b7"/><path d="m26.901043 76.622788h21.705469v.898634h-21.705469z" fill="#b0b1b7"/><path d="m26.901043 80.140366h21.705469v.898634h-21.705469z" fill="#b0b1b7"/><path d="m74.2991104 76.8642426h-13.3129196v-2.6096344l-4.1035996 4.1035995 4.1035996 4.1035996v-2.6096421h13.3129196z" fill="#2d93ba"/><path d="m66.5095673 85.2759933h12.9954071v2.5474015l4.0057296-4.0057297-4.0057296-4.0057297v2.5474015h-12.9954071z" fill="#e56353"/></svg>