<svg enable-background="new 0 0 110 110" height="512" viewBox="0 0 110 110" width="512" xmlns="http://www.w3.org/2000/svg"><path d="m56.8191223 54.8253632v-19.0273438h-2v19.0273438h-24.821291v15.6947631h2v-13.6947631h46.6533223v10.8348617h2v-12.8348617z" fill="#2f4859"/><path d="m25.940231 83.047966h10.115461v5.350995h-10.115461z" fill="#2f4859"/><path d="m45.7832718 61.7205467h-29.5706787c-.6976938 0-1.2632456.5655518-1.2632456 1.2632446v19.717411c0 .6976929.5655518 1.2633057 1.2632456 1.2633057h29.5706787c.6976929 0 1.2633057-.5656128 1.2633057-1.2633057v-19.717411c0-.6976928-.5656128-1.2632446-1.2633057-1.2632446z" fill="#3a556a"/><path d="m21.876045 58.79385h18.244141v28.097656h-18.244141z" fill="#27a2db" transform="matrix(0 1 -1 0 103.841 41.845)"/><path d="m22.182226 87.294121h17.631472v2.055363h-17.631472z" fill="#3a556a"/><path d="m73.944305 83.047966h10.115461v5.350995h-10.115461z" fill="#2f4859"/><path d="m93.7873459 61.7205467h-29.5706787c-.6976929 0-1.2632446.5655518-1.2632446 1.2632446v19.717411c0 .6976929.5655518 1.2633057 1.2632446 1.2633057h29.5706787c.6976929 0 1.2633057-.5656128 1.2633057-1.2633057v-19.717411c0-.6976928-.5656128-1.2632446-1.2633057-1.2632446z" fill="#3a556a"/><path d="m69.880119 58.79385h18.244141v28.097656h-18.244141z" fill="#fcd462" transform="matrix(0 1 -1 0 151.845 -6.16)"/><path d="m70.186302 87.294121h17.631472v2.055363h-17.631472z" fill="#3a556a"/><path d="m40.0853233 25.9823608v18.687748c0 1.385788 1.1233826 2.5092163 2.5092163 2.5092163h25.4604378c1.385788 0 2.5092163-1.1234283 2.5092163-2.5092163v-18.687748z" fill="#ebf0f3"/><path d="m70.5641937 26.1320744v-2.9723415c0-1.385788-1.1234283-2.5092163-2.5092163-2.5092163h-25.4604378c-1.3858337 0-2.5092163 1.1234283-2.5092163 2.5092163v2.9723415z" fill="#3a556a"/><g fill="#ebf0f3"><path d="m66.4242172 22.5193539c-.4815292 0-.8719177.3903923-.8719177.8719654 0 .4815254.3903885.8719177.8719177.8719177.4815674 0 .8719635-.3903923.8719635-.8719177 0-.4815731-.3903961-.8719654-.8719635-.8719654z"/><path d="m62.6873779 22.5193539c-.4815254 0-.8719177.3903923-.8719177.8719654 0 .4815254.3903923.8719177.8719177.8719177.4815712 0 .8719635-.3903923.8719635-.8719177 0-.4815731-.3903923-.8719654-.8719635-.8719654z"/><path d="m58.9505386 22.5193539c-.4815254 0-.8719177.3903923-.8719177.8719654 0 .4815254.3903923.8719177.8719177.8719177.481575 0 .8719635-.3903923.8719635-.8719177 0-.4815731-.3903885-.8719654-.8719635-.8719654z"/></g><g fill="#d5d6db"><path d="m45.033215 29.875835h20.583088v1.163897h-20.583088z"/><path d="m45.033215 33.435993h20.583088v1.163897h-20.583088z"/><path d="m45.033215 36.996147h20.583088v1.163897h-20.583088z"/><path d="m45.033215 40.556305h20.583088v1.163897h-20.583088z"/></g></svg>