<svg enable-background="new 0 0 110 110" height="512" viewBox="0 0 110 110" width="512" xmlns="http://www.w3.org/2000/svg"><path d="m57.399292 88.7037964v-13.1655274h-4.798584v13.1655274h-19.9594726v4.0848999h44.7175292v-4.0848999z" fill="#ebf0f3"/><path d="m25.183781 54.033493h59.632439v3.067705h-59.632439z" fill="#2f4859"/><path d="m86.142395 33.1494484h-62.28479c-1.2696533 0-2.2990723 1.0292969-2.2990723 2.2990112v16.8082886c0 1.2697754 1.0294189 2.2990723 2.2990723 2.2990723h62.28479c1.2697754 0 2.2990723-1.0292969 2.2990723-2.2990723v-16.8082886c0-1.2697143-1.0292969-2.2990112-2.2990723-2.2990112z" fill="#3a556a"/><g fill="#2f4859"><path d="m25.9915333 37.7048035v12.232563h3.7943916v.783432h-4.5495357v-13.789978h4.5495357v.773983z"/><path d="m32.0802269 37.7048035v12.232563h3.7943878v.783432h-4.5495338v-13.789978h4.5495338v.773983z"/><path d="m38.1689186 37.7048035v12.232563h3.7943916v.783432h-4.5495376v-13.789978h4.5495376v.773983z"/><path d="m44.2576103 37.7048035v12.232563h3.7943917v.783432h-4.5495339v-13.789978h4.5495339v.773983z"/><path d="m50.3463058 37.7048035v12.232563h3.7943879v.783432h-4.5495339v-13.789978h4.5495339v.773983z"/><path d="m66.4990463 40.0517921c-1.8536377 0-3.3564415 1.5027466-3.3564415 3.3564453 0 1.8537598 1.5028038 3.3565063 3.3564415 3.3565063 1.8537598 0 3.3565674-1.5027466 3.3565674-3.3565063 0-1.8536987-1.5028076-3.3564453-3.3565674-3.3564453z"/><path d="m78.4984131 40.0517921c-1.8536377 0-3.3564453 1.5027466-3.3564453 3.3564453 0 1.8537598 1.5028076 3.3565063 3.3564453 3.3565063 1.8537598 0 3.3565674-1.5027466 3.3565674-3.3565063 0-1.8536987-1.5028076-3.3564453-3.3565674-3.3564453z"/></g><path d="m86.142395 56.3451271h-62.28479c-1.2696533 0-2.2990723 1.0292969-2.2990723 2.2990112v16.8082848c0 1.2697754 1.0294189 2.2990723 2.2990723 2.2990723h62.28479c1.2697754 0 2.2990723-1.0292969 2.2990723-2.2990723v-16.8082848c0-1.2697143-1.0292969-2.2990112-2.2990723-2.2990112z" fill="#3a556a"/><g fill="#2f4859"><path d="m25.9915333 60.9004822v12.2325668h3.7943916v.7834244h-4.5495357v-13.7899742h4.5495357v.773983z"/><path d="m32.0802269 60.9004822v12.2325668h3.7943878v.7834244h-4.5495338v-13.7899742h4.5495338v.773983z"/><path d="m38.1689186 60.9004822v12.2325668h3.7943916v.7834244h-4.5495376v-13.7899742h4.5495376v.773983z"/><path d="m44.2576103 60.9004822v12.2325668h3.7943917v.7834244h-4.5495339v-13.7899742h4.5495339v.773983z"/><path d="m50.3463058 60.9004822v12.2325668h3.7943879v.7834244h-4.5495339v-13.7899742h4.5495339v.773983z"/><path d="m66.4990463 63.2474709c-1.8536377 0-3.3564415 1.5027428-3.3564415 3.3564415 0 1.8537598 1.5028038 3.3565063 3.3564415 3.3565063 1.8537598 0 3.3565674-1.5027466 3.3565674-3.3565063 0-1.8536988-1.5028076-3.3564415-3.3565674-3.3564415z"/><path d="m78.4984131 63.2474709c-1.8536377 0-3.3564453 1.5027428-3.3564453 3.3564415 0 1.8537598 1.5028076 3.3565063 3.3564453 3.3565063 1.8537598 0 3.3565674-1.5027466 3.3565674-3.3565063 0-1.8536988-1.5028076-3.3564415-3.3565674-3.3564415z"/></g><path d="m72.7030029 27.1376343-8.8515625-9.9263306-8.8514404 9.9263306h5.15271v13.2871094h7.397705v-13.2871094z" fill="#e56353"/><path d="m39.2005005 30.4984131 8.8515625 9.9263306 8.8514404-9.9263306h-5.1527099v-13.2871094h-7.3977051v13.2871094z" fill="#44c4a1"/></svg>