<svg enable-background="new 0 0 110 110" height="512" viewBox="0 0 110 110" width="512" xmlns="http://www.w3.org/2000/svg"><path d="m51.4034996 36.2703171c-.5834541 0-1.141449.0917053-1.6835022.2257423-.1979027-3.7034988-3.2360725-6.6534843-6.9888382-6.6534843-1.2726936 0-2.450058.3645439-3.4796219.9562798-1.5438728-3.2463188-4.8438072-5.4958878-8.6777229-5.4958878-5.3099957 0-9.6146488 4.3045502-9.6146488 9.6146469 0 .4993057.0497856.9859848.1231709 1.464798-3.3485832.5360527-5.9142551 3.4148254-5.9142551 6.9144211 0 3.8806992 3.1458168 7.026516 7.026516 7.026516h9.5217018 9.551199 10.1360016c3.8805962 0 7.026413-3.1458168 7.026413-7.026516-.0000002-3.8805962-3.145817-7.026516-7.0264132-7.026516z" fill="#ebf0f3"/><path d="m94.8319016 65.9634705-32.3770524 2.8200683-35.9838047-2.8200683 4.4322434-4.8792839h59.4963703z" fill="#64798a"/><path d="m26.471043 65.963471h68.360878v18.733564h-68.360878z" fill="#2f4859"/><g fill="#263c49"><path d="m32.3270531 70.262207c-.8471375 0-1.5338879.6867447-1.5338879 1.5338135 0 .8471375.6867504 1.5338898 1.5338879 1.5338898.847065 0 1.5338135-.6867523 1.5338135-1.5338898-.0000001-.8470688-.6867486-1.5338135-1.5338135-1.5338135z"/><path d="m36.9331779 70.262207c-.8471375 0-1.5338898.6867447-1.5338898 1.5338135 0 .8471375.6867523 1.5338898 1.5338898 1.5338898.847065 0 1.5338135-.6867523 1.5338135-1.5338898 0-.8470688-.6867485-1.5338135-1.5338135-1.5338135z"/><path d="m41.5393028 70.262207c-.8471375 0-1.5338898.6867447-1.5338898 1.5338135 0 .8471375.6867523 1.5338898 1.5338898 1.5338898.8470612 0 1.5338135-.6867523 1.5338135-1.5338898 0-.8470688-.6867523-1.5338135-1.5338135-1.5338135z"/><path d="m46.1454277 70.262207c-.8471375 0-1.5338898.6867447-1.5338898 1.5338135 0 .8471375.6867523 1.5338898 1.5338898 1.5338898.8470612 0 1.5338135-.6867523 1.5338135-1.5338898 0-.8470688-.6867523-1.5338135-1.5338135-1.5338135z"/><path d="m50.7515526 70.262207c-.8471413 0-1.5338898.6867447-1.5338898 1.5338135 0 .8471375.6867485 1.5338898 1.5338898 1.5338898.8470612 0 1.5338135-.6867523 1.5338135-1.5338898 0-.8470688-.6867524-1.5338135-1.5338135-1.5338135z"/><path d="m55.3576775 70.262207c-.8471413 0-1.5338898.6867447-1.5338898 1.5338135 0 .8471375.6867485 1.5338898 1.5338898 1.5338898.8470612 0 1.5338135-.6867523 1.5338135-1.5338898-.0000001-.8470688-.6867524-1.5338135-1.5338135-1.5338135z"/><path d="m59.9638023 70.262207c-.8471413 0-1.5338898.6867447-1.5338898 1.5338135 0 .8471375.6867485 1.5338898 1.5338898 1.5338898.8470612 0 1.5338135-.6867523 1.5338135-1.5338898 0-.8470688-.6867523-1.5338135-1.5338135-1.5338135z"/><path d="m32.3270531 74.1929245c-.8471375 0-1.5338879.6867523-1.5338879 1.5338135 0 .8471375.6867504 1.5338898 1.5338879 1.5338898.847065 0 1.5338135-.6867523 1.5338135-1.5338898-.0000001-.8470612-.6867486-1.5338135-1.5338135-1.5338135z"/><path d="m36.9331779 74.1929245c-.8471375 0-1.5338898.6867523-1.5338898 1.5338135 0 .8471375.6867523 1.5338898 1.5338898 1.5338898.847065 0 1.5338135-.6867523 1.5338135-1.5338898 0-.8470612-.6867485-1.5338135-1.5338135-1.5338135z"/><path d="m41.5393028 74.1929245c-.8471375 0-1.5338898.6867523-1.5338898 1.5338135 0 .8471375.6867523 1.5338898 1.5338898 1.5338898.8470612 0 1.5338135-.6867523 1.5338135-1.5338898 0-.8470612-.6867523-1.5338135-1.5338135-1.5338135z"/><path d="m46.1454277 74.1929245c-.8471375 0-1.5338898.6867523-1.5338898 1.5338135 0 .8471375.6867523 1.5338898 1.5338898 1.5338898.8470612 0 1.5338135-.6867523 1.5338135-1.5338898 0-.8470612-.6867523-1.5338135-1.5338135-1.5338135z"/><path d="m50.7515526 74.1929245c-.8471413 0-1.5338898.6867523-1.5338898 1.5338135 0 .8471375.6867485 1.5338898 1.5338898 1.5338898.8470612 0 1.5338135-.6867523 1.5338135-1.5338898 0-.8470612-.6867524-1.5338135-1.5338135-1.5338135z"/><path d="m55.3576775 74.1929245c-.8471413 0-1.5338898.6867523-1.5338898 1.5338135 0 .8471375.6867485 1.5338898 1.5338898 1.5338898.8470612 0 1.5338135-.6867523 1.5338135-1.5338898-.0000001-.8470612-.6867524-1.5338135-1.5338135-1.5338135z"/><path d="m59.9638023 74.1929245c-.8471413 0-1.5338898.6867523-1.5338898 1.5338135 0 .8471375.6867485 1.5338898 1.5338898 1.5338898.8470612 0 1.5338135-.6867523 1.5338135-1.5338898 0-.8470612-.6867523-1.5338135-1.5338135-1.5338135z"/><path d="m32.3270531 78.123642c-.8471375 0-1.5338879.6867523-1.5338879 1.5338135 0 .8471375.6867504 1.5338898 1.5338879 1.5338898.847065 0 1.5338135-.6867523 1.5338135-1.5338898-.0000001-.8470612-.6867486-1.5338135-1.5338135-1.5338135z"/><path d="m36.9331779 78.123642c-.8471375 0-1.5338898.6867523-1.5338898 1.5338135 0 .8471375.6867523 1.5338898 1.5338898 1.5338898.847065 0 1.5338135-.6867523 1.5338135-1.5338898 0-.8470612-.6867485-1.5338135-1.5338135-1.5338135z"/><path d="m41.5393028 78.123642c-.8471375 0-1.5338898.6867523-1.5338898 1.5338135 0 .8471375.6867523 1.5338898 1.5338898 1.5338898.8470612 0 1.5338135-.6867523 1.5338135-1.5338898 0-.8470612-.6867523-1.5338135-1.5338135-1.5338135z"/><path d="m46.1454277 78.123642c-.8471375 0-1.5338898.6867523-1.5338898 1.5338135 0 .8471375.6867523 1.5338898 1.5338898 1.5338898.8470612 0 1.5338135-.6867523 1.5338135-1.5338898 0-.8470612-.6867523-1.5338135-1.5338135-1.5338135z"/><path d="m50.7515526 78.123642c-.8471413 0-1.5338898.6867523-1.5338898 1.5338135 0 .8471375.6867485 1.5338898 1.5338898 1.5338898.8470612 0 1.5338135-.6867523 1.5338135-1.5338898 0-.8470612-.6867524-1.5338135-1.5338135-1.5338135z"/><path d="m55.3576775 78.123642c-.8471413 0-1.5338898.6867523-1.5338898 1.5338135 0 .8471375.6867485 1.5338898 1.5338898 1.5338898.8470612 0 1.5338135-.6867523 1.5338135-1.5338898-.0000001-.8470612-.6867524-1.5338135-1.5338135-1.5338135z"/><path d="m59.9638023 78.123642c-.8471413 0-1.5338898.6867523-1.5338898 1.5338135 0 .8471375.6867485 1.5338898 1.5338898 1.5338898.8470612 0 1.5338135-.6867523 1.5338135-1.5338898 0-.8470612-.6867523-1.5338135-1.5338135-1.5338135z"/></g><circle cx="72.158" cy="75.58" fill="#e56353" r="3.783"/><circle cx="83.719" cy="75.58" fill="#2d93ba" r="3.783"/><path d="m94.8319016 44.4907761-33.501442 2.6793403-34.8594151-2.6793403 4.4322434-4.8792878h59.4963703z" fill="#64798a"/><path d="m26.471043 44.490776h68.360878v18.733564h-68.360878z" fill="#2f4859"/><g fill="#263c49"><path d="m32.3270531 48.7895088c-.8471375 0-1.5338879.6867523-1.5338879 1.5338135 0 .8471375.6867504 1.5338898 1.5338879 1.5338898.847065 0 1.5338135-.6867523 1.5338135-1.5338898-.0000001-.8470612-.6867486-1.5338135-1.5338135-1.5338135z"/><path d="m36.9331779 48.7895088c-.8471375 0-1.5338898.6867523-1.5338898 1.5338135 0 .8471375.6867523 1.5338898 1.5338898 1.5338898.847065 0 1.5338135-.6867523 1.5338135-1.5338898 0-.8470612-.6867485-1.5338135-1.5338135-1.5338135z"/><path d="m41.5393028 48.7895088c-.8471375 0-1.5338898.6867523-1.5338898 1.5338135 0 .8471375.6867523 1.5338898 1.5338898 1.5338898.8470612 0 1.5338135-.6867523 1.5338135-1.5338898 0-.8470612-.6867523-1.5338135-1.5338135-1.5338135z"/><path d="m46.1454277 48.7895088c-.8471375 0-1.5338898.6867523-1.5338898 1.5338135 0 .8471375.6867523 1.5338898 1.5338898 1.5338898.8470612 0 1.5338135-.6867523 1.5338135-1.5338898 0-.8470612-.6867523-1.5338135-1.5338135-1.5338135z"/><path d="m50.7515526 48.7895088c-.8471413 0-1.5338898.6867523-1.5338898 1.5338135 0 .8471375.6867485 1.5338898 1.5338898 1.5338898.8470612 0 1.5338135-.6867523 1.5338135-1.5338898 0-.8470612-.6867524-1.5338135-1.5338135-1.5338135z"/><path d="m55.3576775 48.7895088c-.8471413 0-1.5338898.6867523-1.5338898 1.5338135 0 .8471375.6867485 1.5338898 1.5338898 1.5338898.8470612 0 1.5338135-.6867523 1.5338135-1.5338898-.0000001-.8470612-.6867524-1.5338135-1.5338135-1.5338135z"/><path d="m59.9638023 48.7895088c-.8471413 0-1.5338898.6867523-1.5338898 1.5338135 0 .8471375.6867485 1.5338898 1.5338898 1.5338898.8470612 0 1.5338135-.6867523 1.5338135-1.5338898 0-.8470612-.6867523-1.5338135-1.5338135-1.5338135z"/><path d="m32.3270531 52.7202263c-.8471375 0-1.5338879.6867523-1.5338879 1.5338135 0 .8471413.6867504 1.5338898 1.5338879 1.5338898.847065 0 1.5338135-.6867485 1.5338135-1.5338898-.0000001-.8470612-.6867486-1.5338135-1.5338135-1.5338135z"/><path d="m36.9331779 52.7202263c-.8471375 0-1.5338898.6867523-1.5338898 1.5338135 0 .8471413.6867523 1.5338898 1.5338898 1.5338898.847065 0 1.5338135-.6867485 1.5338135-1.5338898 0-.8470612-.6867485-1.5338135-1.5338135-1.5338135z"/><path d="m41.5393028 52.7202263c-.8471375 0-1.5338898.6867523-1.5338898 1.5338135 0 .8471413.6867523 1.5338898 1.5338898 1.5338898.8470612 0 1.5338135-.6867485 1.5338135-1.5338898 0-.8470612-.6867523-1.5338135-1.5338135-1.5338135z"/><path d="m46.1454277 52.7202263c-.8471375 0-1.5338898.6867523-1.5338898 1.5338135 0 .8471413.6867523 1.5338898 1.5338898 1.5338898.8470612 0 1.5338135-.6867485 1.5338135-1.5338898 0-.8470612-.6867523-1.5338135-1.5338135-1.5338135z"/><path d="m50.7515526 52.7202263c-.8471413 0-1.5338898.6867523-1.5338898 1.5338135 0 .8471413.6867485 1.5338898 1.5338898 1.5338898.8470612 0 1.5338135-.6867485 1.5338135-1.5338898 0-.8470612-.6867524-1.5338135-1.5338135-1.5338135z"/><path d="m55.3576775 52.7202263c-.8471413 0-1.5338898.6867523-1.5338898 1.5338135 0 .8471413.6867485 1.5338898 1.5338898 1.5338898.8470612 0 1.5338135-.6867485 1.5338135-1.5338898-.0000001-.8470612-.6867524-1.5338135-1.5338135-1.5338135z"/><path d="m59.9638023 52.7202263c-.8471413 0-1.5338898.6867523-1.5338898 1.5338135 0 .8471413.6867485 1.5338898 1.5338898 1.5338898.8470612 0 1.5338135-.6867485 1.5338135-1.5338898 0-.8470612-.6867523-1.5338135-1.5338135-1.5338135z"/><path d="m32.3270531 56.6509476c-.8471375 0-1.5338879.6867485-1.5338879 1.5338097 0 .8471413.6867504 1.5338936 1.5338879 1.5338936.847065 0 1.5338135-.6867523 1.5338135-1.5338936-.0000001-.8470612-.6867486-1.5338097-1.5338135-1.5338097z"/><path d="m36.9331779 56.6509476c-.8471375 0-1.5338898.6867485-1.5338898 1.5338097 0 .8471413.6867523 1.5338936 1.5338898 1.5338936.847065 0 1.5338135-.6867523 1.5338135-1.5338936 0-.8470612-.6867485-1.5338097-1.5338135-1.5338097z"/><path d="m41.5393028 56.6509476c-.8471375 0-1.5338898.6867485-1.5338898 1.5338097 0 .8471413.6867523 1.5338936 1.5338898 1.5338936.8470612 0 1.5338135-.6867523 1.5338135-1.5338936 0-.8470612-.6867523-1.5338097-1.5338135-1.5338097z"/><path d="m46.1454277 56.6509476c-.8471375 0-1.5338898.6867485-1.5338898 1.5338097 0 .8471413.6867523 1.5338936 1.5338898 1.5338936.8470612 0 1.5338135-.6867523 1.5338135-1.5338936 0-.8470612-.6867523-1.5338097-1.5338135-1.5338097z"/><path d="m50.7515526 56.6509476c-.8471413 0-1.5338898.6867485-1.5338898 1.5338097 0 .8471413.6867485 1.5338936 1.5338898 1.5338936.8470612 0 1.5338135-.6867523 1.5338135-1.5338936 0-.8470612-.6867524-1.5338097-1.5338135-1.5338097z"/><path d="m55.3576775 56.6509476c-.8471413 0-1.5338898.6867485-1.5338898 1.5338097 0 .8471413.6867485 1.5338936 1.5338898 1.5338936.8470612 0 1.5338135-.6867523 1.5338135-1.5338936-.0000001-.8470612-.6867524-1.5338097-1.5338135-1.5338097z"/><path d="m59.9638023 56.6509476c-.8471413 0-1.5338898.6867485-1.5338898 1.5338097 0 .8471413.6867485 1.5338936 1.5338898 1.5338936.8470612 0 1.5338135-.6867523 1.5338135-1.5338936 0-.8470612-.6867523-1.5338097-1.5338135-1.5338097z"/></g><circle cx="72.158" cy="54.107" fill="#e56353" r="3.783"/><circle cx="83.719" cy="54.107" fill="#2d93ba" r="3.783"/></svg>