<svg enable-background="new 0 0 110 110" height="512" viewBox="0 0 110 110" width="512" xmlns="http://www.w3.org/2000/svg"><path d="m55.8380585 68.6496124v-10.7308082h-1.6763306v10.7308082h-24.6333904v9.2697525h1.6763305v-7.5934219h47.5904522v7.5934219h1.6763306v-9.2697525z" fill="#d5d6db"/><path d="m48.327877 54.552822h13.344245v7.406668h-13.344245z" fill="#2f4859"/><path d="m33.0953293 52.1470299v2.2999496c0 .9554672.7745247 1.7300453 1.7300453 1.7300453h40.349247c.9554749 0 1.7300491-.7745781 1.7300491-1.7300453v-2.2999496z" fill="#3a556a"/><path d="m76.9046707 52.3046532v-26.5976353c0-.9554691-.7745743-1.7300453-1.7300491-1.7300453h-40.349247c-.9555206 0-1.7300453.7745762-1.7300453 1.7300453v26.5976353z" fill="#ebf0f3"/><path d="m43.96867 19.063864h22.062637v38.001568h-22.062637z" fill="#27a2db" transform="matrix(0 1 -1 0 93.065 -16.935)"/><path d="m64.7808456 62.759491h-20.1763153c-.5070992 0-.9181824-.4110832-.9181824-.9181824s.4110832-.9181824.9181824-.9181824h20.1763153c.5070953 0 .9181824.4110832.9181824.9181824 0 .5070991-.411087.9181824-.9181824.9181824z" fill="#64798a"/><path d="m51.1465378 74.5708466h-35.9060612c-.5905628 0-1.0692959.4787292-1.0692959 1.0692444v9.3136902c0 .5905685.4787331 1.0692444 1.0692959 1.0692444h35.9060593c.5905609 0 1.069294-.4786758 1.069294-1.0692444v-9.3136902c.0000019-.5905152-.4787312-1.0692444-1.0692921-1.0692444z" fill="#3a556a"/><g fill="#2f4859"><path d="m15.825759 77.141197h1.557002v1.557002h-1.557002z"/><path d="m18.20071 77.141197h1.557002v1.557002h-1.557002z"/><path d="m20.575663 77.141197h1.557002v1.557002h-1.557002z"/><path d="m22.950613 77.141197h1.557002v1.557002h-1.557002z"/><path d="m25.325565 77.141197h1.557002v1.557002h-1.557002z"/><path d="m27.700518 77.141197h1.557002v1.557002h-1.557002z"/><path d="m30.07547 77.141197h1.557002v1.557002h-1.557002z"/><path d="m32.45042 77.141197h1.557002v1.557002h-1.557002z"/><path d="m15.825759 79.518433h1.557002v1.557002h-1.557002z"/><path d="m18.20071 79.518433h1.557002v1.557002h-1.557002z"/><path d="m20.575663 79.518433h1.557002v1.557002h-1.557002z"/><path d="m22.950613 79.518433h1.557002v1.557002h-1.557002z"/><path d="m25.325565 79.518433h1.557002v1.557002h-1.557002z"/><path d="m27.700518 79.518433h1.557002v1.557002h-1.557002z"/><path d="m30.07547 79.518433h1.557002v1.557002h-1.557002z"/><path d="m32.45042 79.518433h1.557002v1.557002h-1.557002z"/><path d="m15.825759 81.895676h1.557002v1.557002h-1.557002z"/><path d="m18.20071 81.895676h1.557002v1.557002h-1.557002z"/><path d="m20.575663 81.895676h1.557002v1.557002h-1.557002z"/><path d="m22.950613 81.895676h1.557002v1.557002h-1.557002z"/><path d="m25.325565 81.895676h1.557002v1.557002h-1.557002z"/><path d="m27.700518 81.895676h1.557002v1.557002h-1.557002z"/><path d="m30.07547 81.895676h1.557002v1.557002h-1.557002z"/><path d="m32.45042 81.895676h1.557002v1.557002h-1.557002z"/></g><circle cx="38.682" cy="80.297" fill="#ebf0f3" r="1.583"/><circle cx="43.54" cy="80.297" fill="#ebf0f3" r="1.583"/><circle cx="48.397" cy="80.297" fill="#ebf0f3" r="1.583"/><path d="m94.7595215 74.5708466h-35.9060593c-.5905609 0-1.069294.4787292-1.069294 1.0692444v9.3136902c0 .5905685.4787331 1.0692444 1.069294 1.0692444h35.9060593c.5905685 0 1.0692978-.4786758 1.0692978-1.0692444v-9.3136902c0-.5905152-.4787293-1.0692444-1.0692978-1.0692444z" fill="#3a556a"/><g fill="#2f4859"><path d="m59.438744 77.141197h1.557002v1.557002h-1.557002z"/><path d="m61.813698 77.141197h1.557002v1.557002h-1.557002z"/><path d="m64.188652 77.141197h1.557002v1.557002h-1.557002z"/><path d="m66.563599 77.141197h1.557002v1.557002h-1.557002z"/><path d="m68.938553 77.141197h1.557002v1.557002h-1.557002z"/><path d="m71.313507 77.141197h1.557002v1.557002h-1.557002z"/><path d="m73.688454 77.141197h1.557002v1.557002h-1.557002z"/><path d="m76.063408 77.141197h1.557002v1.557002h-1.557002z"/><path d="m59.438744 79.518433h1.557002v1.557002h-1.557002z"/><path d="m61.813698 79.518433h1.557002v1.557002h-1.557002z"/><path d="m64.188652 79.518433h1.557002v1.557002h-1.557002z"/><path d="m66.563599 79.518433h1.557002v1.557002h-1.557002z"/><path d="m68.938553 79.518433h1.557002v1.557002h-1.557002z"/><path d="m71.313507 79.518433h1.557002v1.557002h-1.557002z"/><path d="m73.688454 79.518433h1.557002v1.557002h-1.557002z"/><path d="m76.063408 79.518433h1.557002v1.557002h-1.557002z"/><path d="m59.438744 81.895676h1.557002v1.557002h-1.557002z"/><path d="m61.813698 81.895676h1.557002v1.557002h-1.557002z"/><path d="m64.188652 81.895676h1.557002v1.557002h-1.557002z"/><path d="m66.563599 81.895676h1.557002v1.557002h-1.557002z"/><path d="m68.938553 81.895676h1.557002v1.557002h-1.557002z"/><path d="m71.313507 81.895676h1.557002v1.557002h-1.557002z"/><path d="m73.688454 81.895676h1.557002v1.557002h-1.557002z"/><path d="m76.063408 81.895676h1.557002v1.557002h-1.557002z"/></g><circle cx="82.295" cy="80.297" fill="#ebf0f3" r="1.583"/><circle cx="87.153" cy="80.297" fill="#ebf0f3" r="1.583"/><circle cx="92.01" cy="80.297" fill="#ebf0f3" r="1.583"/></svg>