<svg enable-background="new 0 0 110 110" height="512" viewBox="0 0 110 110" width="512" xmlns="http://www.w3.org/2000/svg"><path d="m28.3743591 41.4762192v34.1774597c0 2.2202148 1.7998657 4.0200195 4.0201416 4.0200195h45.2108765c2.2202148 0 4.0202637-1.7998047 4.0202637-4.0200195v-34.1774597z" fill="#ebf0f3"/><path d="m81.6255951 41.7209549v-7.3745117c0-2.2203369-1.7999268-4.0201435-4.0202026-4.0201435h-45.2108803c-2.220274 0-4.0201397 1.7998066-4.0201397 4.0201435v7.3745117z" fill="#e56353"/><g fill="#ebf0f3"><path d="m74.4024734 34.3956375c-.9500122 0-1.7201538.7702637-1.7201538 1.7202148 0 .9500732.7701416 1.7202148 1.7201538 1.7202148.9500732 0 1.7202148-.7701416 1.7202148-1.7202148.0000001-.9499511-.7701415-1.7202148-1.7202148-1.7202148z"/><path d="m69.1999054 34.3956375c-.9500122 0-1.7201538.7702637-1.7201538 1.7202148 0 .9500732.7701416 1.7202148 1.7201538 1.7202148.9500732 0 1.7202148-.7701416 1.7202148-1.7202148 0-.9499511-.7701416-1.7202148-1.7202148-1.7202148z"/><path d="m63.9973412 34.3956375c-.9500122 0-1.7201538.7702637-1.7201538 1.7202148 0 .9500732.7701416 1.7202148 1.7201538 1.7202148.9500771 0 1.7202187-.7701416 1.7202187-1.7202148-.0000001-.9499511-.7701417-1.7202148-1.7202187-1.7202148z"/></g><path d="m66.179512 66.7513275-9.6034966-15.6206818c-.7222595-1.1748428-2.4297791-1.1748428-3.1520424 0l-9.6035194 15.6206818c-.7578125 1.2326202.1290512 2.8189774 1.576046 2.8189774h19.2069626c1.4469986 0 2.3338623-1.5863571 1.5760498-2.8189774z" fill="#f7be56"/><path d="m45.396431 68.0274582c-.1194191 0-.2094574-.052742-.267849-.1570892-.0583916-.1043549-.0561295-.2090759.0064049-.310791l9.6032829-15.6209679c.0742149-.1205521.1834602-.1457901.2618179-.1457901.07798 0 .1872292.025238.2614441.1457901l9.6036568 15.6205864c.0625381.1017151.0644226.2064438.0060272.3111725-.0583878.1043472-.1484222.1570892-.2678452.1570892z" fill="#fcd462"/><g fill="#3a556a"><path d="m54.30191 55.947643h1.396159v7.732573h-1.396159z"/><path d="m54.30191 64.819382h1.396159v1.396159h-1.396159z"/></g></svg>