<svg enable-background="new 0 0 110 110" height="512" viewBox="0 0 110 110" width="512" xmlns="http://www.w3.org/2000/svg"><path d="m65.3983917 27.1913376c-.539978-.6000366-1.1400146-1.1500244-1.7899818-1.6400146-.5499878-.4400024-1.1300049-.8200073-1.7399902-1.1599731-.2000122-.1100464-.4000244-.2200317-.6100464-.3300171-.2099609-.0999756-.4299927-.210022-.6399536-.2999878-.1500244-.0700073-.3099976-.1300049-.460022-.1900024-.5-.210022-1.0200195-.3800049-1.5499878-.5200195-.2300415-.0599976-.460022-.1199951-.7000122-.1599731-.4700317-.1100464-.9400024-.1799927-1.4299927-.2300415-.1799927-.0199585-.3699951-.039978-.5499878-.0499878-.3000488-.0200195-.6199951-.0299683-.9299927-.0299683-7.75 0-14.0600586 6.3099976-14.0600586 14.0599976v19.8599854h28.12006v-19.8599856c0-3.6300049-1.3900146-6.9500122-3.6600342-9.4500122zm-18.2700233 23.1199951v-13.6699829c0-4.3400269 3.5300293-7.8699951 7.8700562-7.8699951 4.3399658 0 7.8699951 3.5299683 7.8699951 7.8699951v13.6699829z" fill="#2f4859"/><path d="m94.0817795 54.1733322v-1.4492798h-10.1785813v13.7695847h-16.2322387v1.4492874h16.2322387v13.2498093h10.1785813v-1.4492798h-8.7293015v-11.8005295h7.8564072v-1.4492874h-7.8564072v-12.3203049z" fill="#3a556a"/><ellipse cx="95.234" cy="53.461" fill="#fcd462" rx="3.582" ry="3.582" transform="matrix(.973 -.23 .23 .973 -9.735 23.311)"/><ellipse cx="95.234" cy="66.958" fill="#ebf0f3" rx="3.582" ry="3.582" transform="matrix(.973 -.23 .23 .973 -12.836 23.672)"/><ellipse cx="95.234" cy="80.456" fill="#44c4a1" rx="3.582" ry="3.582" transform="matrix(.973 -.23 .23 .973 -15.937 24.033)"/><path d="m15.9182196 54.1733322v-1.4492798h10.1785841v13.7695847h16.232233v1.4492874h-16.232233v13.2498093h-10.1785841v-1.4492798h8.7293024v-11.8005295h-7.8564072v-1.4492874h7.8564072v-12.3203049z" fill="#3a556a"/><ellipse cx="14.766" cy="53.461" fill="#ebf0f3" rx="3.582" ry="3.582" transform="matrix(.23 -.973 .973 .23 -40.657 55.549)"/><ellipse cx="14.766" cy="66.958" fill="#27a2db" rx="3.582" ry="3.582" transform="matrix(.23 -.973 .973 .23 -53.794 65.946)"/><ellipse cx="14.766" cy="80.456" fill="#44c4a1" rx="3.582" ry="3.582" transform="matrix(.23 -.973 .973 .23 -66.93 76.342)"/><path d="m68.8776398 46.4981689h-27.7551689c-3.6355324 0-6.5826836 2.9471512-6.5826836 6.5826263v27.7552261c0 3.6354752 2.9471512 6.5826263 6.5826836 6.5826263h27.7551689c3.6355286 0 6.5825729-2.9471512 6.5825729-6.5826263v-27.755226c0-3.6354752-2.9470444-6.5826264-6.5825729-6.5826264z" fill="#ebf0f3"/><g fill="#64798a"><path d="m42.775696 55.510754h6.276703v6.276703h-6.276703z"/><path d="m51.861649 55.510754h6.276703v6.276703h-6.276703z"/><path d="m60.947601 55.510754h6.276703v6.276703h-6.276703z"/><path d="m42.775696 63.820057h6.276703v6.276703h-6.276703z"/><path d="m51.861649 63.820057h6.276703v6.276703h-6.276703z"/><path d="m60.947601 63.820057h6.276703v6.276703h-6.276703z"/><path d="m42.775696 72.129356h6.276703v6.276703h-6.276703z"/><path d="m51.861649 72.129356h6.276703v6.276703h-6.276703z"/><path d="m60.947601 72.129356h6.276703v6.276703h-6.276703z"/></g></svg>