<svg enable-background="new 0 0 110 110" height="512" viewBox="0 0 110 110" width="512" xmlns="http://www.w3.org/2000/svg"><path d="m89.906189 81.1661987h-3.1773072v-1.2709274h1.9063874v-1.9063873h1.2709198z" fill="#2f4859"/><path d="m76.9699707 79.8949661v1.2700195h4.8800049v-1.2700195zm-9.7699585 0v1.2700195h4.8800049v-1.2700195zm-9.7600098 0v1.2700195h4.8800049v-1.2700195zm-9.7600097 0v1.2700195h4.8800049v-1.2700195zm-9.7600098 0v1.2700195h4.8800049v-1.2700195zm-9.7699585 0v1.2700195h4.8800049v-1.2700195z" fill="#2f4859"/><path d="m23.2710896 81.1661987h-3.177311v-3.1773147h1.2709236v1.9063873h1.9063874z" fill="#2f4859"/><path d="m20.0900269 68.3249588v4.8300171h1.2699585v-4.8300171zm0-9.6699829v4.8300171h1.2699585v-4.8300171zm0-9.6699829v4.8300171h1.2699585v-4.8300171zm0-9.6699829v4.8299561h1.2699585v-4.8299561z" fill="#2f4859"/><path d="m21.3647022 34.4814453h-1.2709236v-3.1773128h3.177311v1.2709255h-1.9063874z" fill="#2f4859"/><path d="m76.9699707 31.3050003v1.2699585h4.8800049v-1.2699585zm-9.7699585 0v1.2699585h4.8800049v-1.2699585zm-9.7600098 0v1.2699585h4.8800049v-1.2699585zm-9.7600097 0v1.2699585h4.8800049v-1.2699585zm-9.7600098 0v1.2699585h4.8800049v-1.2699585zm-9.7699585 0v1.2699585h4.8800049v-1.2699585z" fill="#2f4859"/><path d="m89.906189 34.4814453h-1.2709198v-1.9063873h-1.9063874v-1.2709255h3.1773072z" fill="#2f4859"/><path d="m88.6400146 68.3249588v4.8300171h1.2699585v-4.8300171zm0-9.6699829v4.8300171h1.2699585v-4.8300171zm0-9.6699829v4.8300171h1.2699585v-4.8300171zm0-9.6699829v4.8299561h1.2699585v-4.8299561z" fill="#2f4859"/><path d="m59.5228615 61.0690842h-14.8746109v27.0900268h20.7036705v-21.260971z" fill="#d5d6db"/><path d="m59.5228615 66.89814h5.8290596l-5.8290596-5.8290558z" fill="#ebf0f3"/><path d="m47.623219 68.678307h14.753735v.610823h-14.753735z" fill="#b0b1b7"/><path d="m47.623219 71.069283h14.753735v.610823h-14.753735z" fill="#b0b1b7"/><path d="m47.623219 73.460266h14.753735v.610823h-14.753735z" fill="#b0b1b7"/><path d="m47.623219 75.85125h14.753735v.610823h-14.753735z" fill="#b0b1b7"/><path d="m47.623219 78.242233h14.753735v.610823h-14.753735z" fill="#b0b1b7"/><path d="m47.623219 80.633217h14.753735v.610823h-14.753735z" fill="#b0b1b7"/><path d="m47.623219 83.0242h14.753735v.610823h-14.753735z" fill="#b0b1b7"/><path d="m34.018539 38.125526h41.963089v1.55523h-41.963089z" fill="#474c5b"/><path d="m76.0727158 21.8408909h-42.1452599c-.7031822 0-1.2732124.5700302-1.2732124 1.2732124v14.3331165c0 .7031822.5700302 1.2732124 1.2732124 1.2732124h42.1452599c.7031784 0 1.2732086-.5700302 1.2732086-1.2732124v-14.3331165c0-.7031822-.5700302-1.2732124-1.2732086-1.2732124z" fill="#3a556a"/><g fill="#2f4859"><path d="m35.874073 24.732012h2.219467v2.219467h-2.219467z"/><path d="m38.09354 26.951477h2.219467v2.219467h-2.219467z"/><path d="m40.313007 24.732012h2.219467v2.219467h-2.219467z"/><path d="m42.532471 26.951477h2.219467v2.219467h-2.219467z"/><path d="m44.751938 24.732012h2.219467v2.219467h-2.219467z"/><path d="m46.971405 26.951477h2.219467v2.219467h-2.219467z"/><path d="m49.190872 24.732012h2.219467v2.219467h-2.219467z"/><path d="m51.410339 26.951477h2.219467v2.219467h-2.219467z"/><path d="m53.629807 24.732012h2.219467v2.219467h-2.219467z"/><path d="m35.874073 29.170944h2.219467v2.219467h-2.219467z"/><path d="m38.09354 31.390411h2.219467v2.219467h-2.219467z"/><path d="m40.313007 29.170944h2.219467v2.219467h-2.219467z"/><path d="m42.532471 31.390411h2.219467v2.219467h-2.219467z"/><path d="m44.751938 29.170944h2.219467v2.219467h-2.219467z"/><path d="m46.971405 31.390411h2.219467v2.219467h-2.219467z"/><path d="m49.190872 29.170944h2.219467v2.219467h-2.219467z"/><path d="m51.410339 31.390411h2.219467v2.219467h-2.219467z"/><path d="m53.629807 29.170944h2.219467v2.219467h-2.219467z"/><path d="m35.874073 33.609879h2.219467v2.219467h-2.219467z"/><path d="m40.313007 33.609879h2.219467v2.219467h-2.219467z"/><path d="m44.751938 33.609879h2.219467v2.219467h-2.219467z"/><path d="m49.190872 33.609879h2.219467v2.219467h-2.219467z"/><path d="m53.629807 33.609879h2.219467v2.219467h-2.219467z"/><circle cx="62.21" cy="29.982" r="3.03"/><circle cx="71.156" cy="29.982" r="3.03"/></g><path d="m76.0727158 39.3556213h-42.1452599c-.7031822 0-1.2732124.570034-1.2732124 1.2732124v14.3331184c0 .7031822.5700302 1.2732124 1.2732124 1.2732124h42.1452599c.7031784 0 1.2732086-.5700302 1.2732086-1.2732124v-14.3331183c0-.7031784-.5700302-1.2732125-1.2732086-1.2732125z" fill="#3a556a"/><g fill="#2f4859"><path d="m35.874073 42.246742h2.219467v2.219467h-2.219467z"/><path d="m38.09354 44.466209h2.219467v2.219467h-2.219467z"/><path d="m40.313007 42.246742h2.219467v2.219467h-2.219467z"/><path d="m42.532471 44.466209h2.219467v2.219467h-2.219467z"/><path d="m44.751938 42.246742h2.219467v2.219467h-2.219467z"/><path d="m46.971405 44.466209h2.219467v2.219467h-2.219467z"/><path d="m49.190872 42.246742h2.219467v2.219467h-2.219467z"/><path d="m51.410339 44.466209h2.219467v2.219467h-2.219467z"/><path d="m53.629807 42.246742h2.219467v2.219467h-2.219467z"/><path d="m35.874073 46.685677h2.219467v2.219467h-2.219467z"/><path d="m38.09354 48.905144h2.219467v2.219467h-2.219467z"/><path d="m40.313007 46.685677h2.219467v2.219467h-2.219467z"/><path d="m42.532471 48.905144h2.219467v2.219467h-2.219467z"/><path d="m44.751938 46.685677h2.219467v2.219467h-2.219467z"/><path d="m46.971405 48.905144h2.219467v2.219467h-2.219467z"/><path d="m49.190872 46.685677h2.219467v2.219467h-2.219467z"/><path d="m51.410339 48.905144h2.219467v2.219467h-2.219467z"/><path d="m53.629807 46.685677h2.219467v2.219467h-2.219467z"/><path d="m35.874073 51.124611h2.219467v2.219467h-2.219467z"/><path d="m40.313007 51.124611h2.219467v2.219467h-2.219467z"/><path d="m44.751938 51.124611h2.219467v2.219467h-2.219467z"/><path d="m49.190872 51.124611h2.219467v2.219467h-2.219467z"/><path d="m53.629807 51.124611h2.219467v2.219467h-2.219467z"/><circle cx="62.21" cy="47.497" r="3.03"/><circle cx="71.156" cy="47.497" r="3.03"/></g></svg>