<svg enable-background="new 0 0 110 110" height="512" viewBox="0 0 110 110" width="512" xmlns="http://www.w3.org/2000/svg"><g fill="#4d5c7d"><path d="m95.7250595 33.6522675c-.0372849-1.5870819-1.4294968-2.3325043-1.4294968-2.3325043l-2.8793182-1.155756-.0011215.0005016.000206-.0005016-.3927383-.4224682v-1.0349312c.5518875-.5031471.9558182-1.2555065 1.1154022-2.1309967.0162354.0071144.0326233.0138454.0501556.0154991.1790466.0168552.3525391-.2702904.3875198-.6413918.0349808-.3711319-.0818024-.6856441-.260849-.7025299-.0153732-.0014458-.0305481.002243-.0457535.0051365.0622559-.6042843.1096115-1.2673149.0875854-1.7628174-.0525742-1.1832695-.7362366-1.6565723-1.6565399-1.7485886 0 0-.2892456-.8151493-1.0386505-.841423-.7494049-.0263023-2.4979935.6179237-2.9581299 1.5776653-.3671799.7658215-.3724899 1.9600143-.2669296 2.7748394-.0142288-.0024509-.0284271-.0061703-.0428009-.0048122-.1790466.0168858-.2958298.331398-.2608414.7025299.0349808.3711014.2084732.658247.3875122.6413918.0508957-.0048122.0959396-.0357494.1347351-.0831299.1520309.9135704.5704193 1.6984024 1.1452713 2.2144508v1.0181332l-.3936539.4234428-2.8793106 1.155756s-1.392189.7454224-1.4295044 2.3325043c-.0165253.7031212-.0184174 1.8639565-.0153809 2.9390602h12.6580124c.0030443-1.0751037.0011522-2.235939-.0153807-2.9390601z"/><path d="m26.9021893 33.6522675c-.0372849-1.5870819-1.4295025-2.3325043-1.4295025-2.3325043l-2.8793125-1.155756-.0011215.0005016.0002079-.0005016-.3927422-.4224682v-1.0349312c.5518875-.5031471.9558163-1.2555065 1.1154041-2.1309967.0162354.0071144.0326195.0138454.0501556.0154991.1790409.0168552.3525333-.2702904.3875141-.6413918.0349827-.3711319-.0818005-.6856441-.2608433-.7025299-.015379-.0014458-.0305538.002243-.0457554.0051365.0622578-.6042843.1096096-1.2673149.0875874-1.7628174-.0525761-1.1832695-.7362423-1.6565723-1.6565437-1.7485886 0 0-.2892418-.8151493-1.0386505-.841423-.7494068-.0263023-2.4979954.6179237-2.9581318 1.5776653-.3671761.7658215-.3724899 1.9600143-.2669239 2.7748394-.0142288-.0024509-.028429-.0061703-.0428047-.0048122-.1790409.0168858-.2958241.331398-.2608433.7025299.0349827.3711014.2084732.658247.387516.6413918.0508938-.0048122.0959415-.0357494.1347313-.0831299.1520309.9135704.570425 1.6984024 1.145277 2.2144508v1.0181332l-.3936558.4234428-2.8793116 1.155756s-1.3921871.7454224-1.4295015 2.3325043c-.016531.7031212-.0184202 1.8639565-.0153799 2.9390602h12.6580095c.0030404-1.0751037.0011521-2.235939-.0153788-2.9390601z"/><path d="m95.7250595 86.1622162c-.0372849-1.5870819-1.4294968-2.3325043-1.4294968-2.3325043l-2.8793182-1.1557541-.0011215.0005035.000206-.0005035-.3927383-.4224701v-1.0349274c.5518875-.5031509.9558182-1.2555084 1.1154022-2.1309967.0162354.0071106.0326233.0138397.0501556.0154953.1790466.016861.3525391-.2702866.3875198-.6413879.0349808-.3711319-.0818024-.6856461-.260849-.7025299-.0153732-.0014496-.0305481.002243-.0457535.0051346.0622559-.6042862.1096115-1.2673187.0875854-1.7628174-.0525742-1.1832733-.7362366-1.6565704-1.6565399-1.7485886 0 0-.2892456-.8151474-1.0386505-.841423-.7494049-.0263062-2.4979935.6179199-2.9581299 1.5776672-.3671799.7658157-.3724899 1.9600143-.2669296 2.7748337-.0142288-.002449-.0284271-.0061646-.0428009-.0048065-.1790466.0168839-.2958298.331398-.2608414.7025299.0349808.3711014.2084732.6582489.3875122.6413879.0508957-.0048141.0959396-.0357513.1347351-.0831299.1520309.9135742.5704193 1.6984024 1.1452713 2.2144547v1.0181274l-.3936539.4234467-2.8793106 1.1557541s-1.392189.7454224-1.4295044 2.3325043c-.0165253.7031174-.0184174 1.8639526-.0153809 2.939064h12.6580124c.0030443-1.0751114.0011522-2.2359466-.0153807-2.939064z"/><path d="m26.9021893 86.1622162c-.0372849-1.5870819-1.4295025-2.3325043-1.4295025-2.3325043l-2.8793125-1.1557541-.0011215.0005035.0002079-.0005035-.3927422-.4224701v-1.0349274c.5518875-.5031509.9558163-1.2555084 1.1154041-2.1309967.0162354.0071106.0326195.0138397.0501556.0154953.1790409.016861.3525333-.2702866.3875141-.6413879.0349827-.3711319-.0818005-.6856461-.2608433-.7025299-.015379-.0014496-.0305538.002243-.0457554.0051346.0622578-.6042862.1096096-1.2673187.0875874-1.7628174-.0525761-1.1832733-.7362423-1.6565704-1.6565437-1.7485886 0 0-.2892418-.8151474-1.0386505-.841423-.7494068-.0263062-2.4979954.6179199-2.9581318 1.5776672-.3671761.7658157-.3724899 1.9600143-.2669239 2.7748337-.0142288-.002449-.028429-.0061646-.0428047-.0048065-.1790409.0168839-.2958241.331398-.2608433.7025299.0349827.3711014.2084732.6582489.387516.6413879.0508938-.0048141.0959415-.0357513.1347313-.0831299.1520309.9135742.570425 1.6984024 1.145277 2.2144547v1.0181274l-.3936558.4234467-2.8793116 1.1557541s-1.3921871.7454224-1.4295015 2.3325043c-.016531.7031174-.0184202 1.8639526-.0153799 2.939064h12.6580095c.0030404-1.0751114.0011521-2.2359466-.0153788-2.939064z"/></g><path d="m30.798876 37.53603h47.933399v35.235012h-47.933399z" fill="#ebf0f3"/><path d="m30.794809 27.836308h47.940002v10.309998h-47.940002z" fill="#3a556a"/><path d="m72.089829 31.905415h2.175442v2.175442h-2.175442z" fill="#ebf0f3"/><path d="m67.688355 31.905415h2.175442v2.175442h-2.175442z" fill="#ebf0f3"/><path d="m63.286877 31.905415h2.175442v2.175442h-2.175442z" fill="#ebf0f3"/><path d="m43.050243 43.674118h9.198058v9.198058h-9.198058z" fill="#fcd462"/><path d="m57.282852 43.674118h9.198058v9.198058h-9.198058z" fill="#44c4a1"/><path d="m43.050243 57.127827h9.198058v9.198058h-9.198058z" fill="#2d93ba"/><path d="m57.282852 57.127827h9.198058v9.198058h-9.198058z" fill="#d15241"/><g fill="#3a556a"><path d="m90.0716553 50.6592407h-19.6920395v-1.4353561h18.2534103v-11.329361h1.4386292z"/><path d="m90.0716553 72.1054764h-1.940918v-11.329361h-17.7511215v-1.4353561h19.6920395z"/><path d="m19.4594975 50.6592407h19.6920375v-1.4353561h-17.7511234v-11.329361h-1.9409141z"/><path d="m19.4594975 72.1054764h1.9409141v-11.329361h17.7511234v-1.4353561h-19.6920375z"/></g></svg>