<svg enable-background="new 0 0 110 110" height="512" viewBox="0 0 110 110" width="512" xmlns="http://www.w3.org/2000/svg"><ellipse cx="54.246" cy="91.3" fill="#d5d6db" rx="13.862" ry="5.554"/><path d="m68.1087494 91.2999039h-27.7247162v-5.5540161l27.7247162.1686935z" fill="#d5d6db"/><ellipse cx="54.246" cy="85.746" fill="#64798a" rx="13.862" ry="5.554"/><ellipse cx="54.246" cy="84.458" fill="#d5d6db" rx="13.862" ry="5.554"/><path d="m68.1087494 84.4582825h-27.7247162v-5.5540161l27.7247162.1687011z" fill="#d5d6db"/><ellipse cx="54.246" cy="78.904" fill="#64798a" rx="13.862" ry="5.554"/><ellipse cx="54.246" cy="77.749" fill="#d5d6db" rx="13.862" ry="5.554"/><path d="m68.1087494 77.7493744h-27.7247162v-5.5540161l27.7247162.1687011z" fill="#d5d6db"/><ellipse cx="54.246" cy="72.195" fill="#64798a" rx="13.862" ry="5.554"/><ellipse cx="54.246" cy="70.996" fill="#d5d6db" rx="13.862" ry="5.554"/><path d="m68.1087494 70.9959946h-27.7247162v-5.5540085l27.7247162.1686935z" fill="#d5d6db"/><ellipse cx="54.246" cy="65.442" fill="#e1e6e9" rx="13.862" ry="5.554"/><path d="m54.2463531 69.99617c-7.3613281 0-12.8623047-2.4042969-12.8623047-4.5537109 0-2.1503868 5.5009766-4.5546837 12.8623047-4.5546837s12.8623047 2.4042969 12.8623047 4.5546837c0 2.1494141-5.5009765 4.5537109-12.8623047 4.5537109z" fill="#d5d6db"/><g fill="#64798a"><path d="m66.331192 71.4844513c-.2906494-.1286621-.6605225.069458-.8260498.4428711-.1654053.3734131-.0637207.7805176.2269287.9094238.2908936.1287842.6605225-.069458.8260498-.4428711.1654053-.3735351.0639649-.7805176-.2269287-.9094238z"/><path d="m64.0891266 72.5733185c-.2906494-.1287842-.6606445.0693359-.8260498.4428711-.1654053.3734131-.0637207.7805176.2269287.9093018.2907715.1289062.6604004-.069458.8259277-.442749.1655274-.3735352.0639649-.7805177-.2268066-.9094239z"/><path d="m61.3005524 73.2886505c-.3181152-.1408691-.7104492.0473633-.8759766.4207764s-.0412598.7905273.2768555.9315186c.3183594.1411133.7104492-.0473633.8759766-.4206543.1655273-.3735352.0416259-.7905274-.2768555-.9316407z"/><path d="m66.331192 78.4779816c-.2906494-.1287842-.6605225.069458-.8260498.442749-.1654053.3735352-.0637207.7807617.2269287.9094238.2908936.1289062.6605225-.0693359.8260498-.4428711.1654053-.3734131.0639649-.7805176-.2269287-.9093017z"/><path d="m64.0891266 79.5667267c-.2906494-.1286621-.6606445.069458-.8260498.4428711-.1654053.3735352-.0637207.7806396.2269287.9094238.2907715.1289062.6604004-.069458.8259277-.4428711s.0639649-.7805176-.2268066-.9094238z"/><path d="m61.3005524 80.2821808c-.3181152-.1409912-.7104492.0472412-.8759766.4207764-.1655273.373291-.0412598.7905273.2768555.9313965.3183594.1411133.7104492-.0472412.8759766-.4206543s.0416259-.7904053-.2768555-.9315186z"/><path d="m66.331192 85.4715118c-.2906494-.1289062-.6605225.0693359-.8260498.4428711-.1654053.373291-.0637207.7805176.2269287.9093018.2908936.1287842.6605225-.069458.8260498-.4428711.1654053-.3734131.0639649-.7805176-.2269287-.9093018z"/><path d="m64.0891266 86.560257c-.2906494-.1287842-.6606445.069458-.8260498.4428711s-.0637207.7806396.2269287.9093018c.2907715.1289062.6604004-.0693359.8259277-.4428711.1655274-.3732911.0639649-.7803956-.2268066-.9093018z"/><path d="m61.3005524 87.2757111c-.3181152-.1409912-.7104492.0472412-.8759766.4206543-.1655273.3735352-.0412598.7905273.2768555.9315186.3183594.1411133.7104492-.0472412.8759766-.4207764.1655273-.3732911.0416259-.7902833-.2768555-.9313965z"/><path d="m66.331192 91.7420883c-.2906494-.1289062-.6605225.0693359-.8260498.4428711-.1654053.373291-.0637207.7805176.2269287.9093018.2908936.1287842.6605225-.069458.8260498-.4428711.1654053-.3734131.0639649-.7805176-.2269287-.9093018z"/><path d="m64.0891266 92.8308334c-.2906494-.1287842-.6606445.069458-.8260498.4428711s-.0637207.7806396.2269287.9093018c.2907715.1289062.6604004-.0693359.8259277-.4428711.1655274-.373291.0639649-.7803955-.2268066-.9093018z"/><path d="m61.3005524 93.5462875c-.3181152-.1409912-.7104492.0472412-.8759766.4206543-.1655273.3735352-.0412598.7905273.2768555.9315186.3183594.1411133.7104492-.0472412.8759766-.4207764.1655273-.373291.0416259-.7902832-.2768555-.9313965z"/></g><path d="m79.9639435 39.4790688h-1.7141953v13.4808845h-48.0067138v-13.4808845h-1.7141972v15.1950798h24.8600369v10.9280014h1.7141952v-10.9280014h24.8608742z" fill="#44c4a1"/><ellipse cx="79.964" cy="37.716" fill="#d5d6db" rx="13.862" ry="5.554"/><path d="m93.8263016 37.7164001h-27.7247162v-5.5540161l27.7247162.1686936z" fill="#d5d6db"/><ellipse cx="79.964" cy="32.162" fill="#64798a" rx="13.862" ry="5.554"/><ellipse cx="79.964" cy="31.007" fill="#d5d6db" rx="13.862" ry="5.554"/><path d="m93.8263016 31.0074902h-27.7247162v-5.5540162l27.7247162.1686955z" fill="#d5d6db"/><ellipse cx="79.964" cy="25.453" fill="#64798a" rx="13.862" ry="5.554"/><ellipse cx="79.964" cy="24.254" fill="#d5d6db" rx="13.862" ry="5.554"/><path d="m93.8263016 24.2541122h-27.7247162v-5.5540161l27.7247162.1686955z" fill="#d5d6db"/><ellipse cx="79.964" cy="18.7" fill="#e1e6e9" rx="13.862" ry="5.554"/><path d="m79.9639053 23.2542877c-7.3613281 0-12.8623047-2.4042969-12.8623047-4.5537109 0-2.1503906 5.5009766-4.5546875 12.8623047-4.5546875s12.8623047 2.4042969 12.8623047 4.5546875c0 2.149414-5.5009765 4.5537109-12.8623047 4.5537109z" fill="#d5d6db"/><g fill="#64798a"><path d="m92.0487442 24.742569c-.2906494-.1286621-.6605225.069458-.8260498.4428711-.1654053.3734131-.0637207.7805176.2269287.9094238.2908936.1287842.6605225-.069458.8260498-.4428711.1654053-.3735352.0639649-.7805176-.2269287-.9094238z"/><path d="m89.8066788 25.8314362c-.2906494-.1287842-.6606445.0693359-.8260498.4428711-.1654053.3734131-.0637207.7805176.2269287.9093018.2907715.1289062.6604004-.069458.8259277-.442749.1655274-.3735353.0639649-.7805177-.2268066-.9094239z"/><path d="m87.0181046 26.5467682c-.3181152-.1408691-.7104492.0473633-.8759766.4207764s-.0412598.7905273.2768555.9315186c.3183594.1411133.7104492-.0473633.8759766-.4206543.1655273-.3735352.0416259-.7905274-.2768555-.9316407z"/><path d="m92.0487442 31.7360992c-.2906494-.1287842-.6605225.069458-.8260498.442749-.1654053.3735352-.0637207.7807617.2269287.9094238.2908936.1289062.6605225-.0693359.8260498-.4428711.1654053-.373413.0639649-.7805175-.2269287-.9093017z"/><path d="m89.8066788 32.8248444c-.2906494-.1286621-.6606445.069458-.8260498.4428711-.1654053.3735352-.0637207.7806396.2269287.9094238.2907715.1289062.6604004-.069458.8259277-.4428711s.0639649-.7805176-.2268066-.9094238z"/><path d="m87.0181046 33.5402985c-.3181152-.1409912-.7104492.0472412-.8759766.4207764-.1655273.373291-.0412598.7905273.2768555.9313965.3183594.1411133.7104492-.0472412.8759766-.4206543s.0416259-.7904054-.2768555-.9315186z"/><path d="m92.0487442 38.7296295c-.2906494-.1289062-.6605225.0693359-.8260498.4428711-.1654053.373291-.0637207.7805176.2269287.9093018.2908936.1287842.6605225-.069458.8260498-.4428711.1654053-.3734131.0639649-.7805176-.2269287-.9093018z"/><path d="m89.8066788 39.8183746c-.2906494-.1287842-.6606445.069458-.8260498.4428711s-.0637207.7806396.2269287.9093018c.2907715.1289062.6604004-.0693359.8259277-.4428711.1655274-.373291.0639649-.7803955-.2268066-.9093018z"/><path d="m87.0181046 40.5338287c-.3181152-.1409912-.7104492.0472412-.8759766.4206543-.1655273.3735352-.0412598.7905273.2768555.9315186.3183594.1411133.7104492-.0472412.8759766-.4207764.1655273-.373291.0416259-.7902832-.2768555-.9313965z"/></g><ellipse cx="30.036" cy="37.716" fill="#d5d6db" rx="13.862" ry="5.554"/><path d="m43.8984184 37.7164001h-27.7247181v-5.5540161l27.7247181.1686936z" fill="#d5d6db"/><ellipse cx="30.036" cy="32.162" fill="#64798a" rx="13.862" ry="5.554"/><ellipse cx="30.036" cy="31.007" fill="#d5d6db" rx="13.862" ry="5.554"/><path d="m43.8984184 31.0074902h-27.7247181v-5.5540162l27.7247181.1686955z" fill="#d5d6db"/><ellipse cx="30.036" cy="25.453" fill="#64798a" rx="13.862" ry="5.554"/><ellipse cx="30.036" cy="24.254" fill="#d5d6db" rx="13.862" ry="5.554"/><path d="m43.8984184 24.2541122h-27.7247181v-5.5540161l27.7247181.1686955z" fill="#d5d6db"/><ellipse cx="30.036" cy="18.7" fill="#e1e6e9" rx="13.862" ry="5.554"/><path d="m30.0360222 23.2542877c-7.3613281 0-12.8623047-2.4042969-12.8623047-4.5537109 0-2.1503906 5.5009766-4.5546875 12.8623047-4.5546875s12.8623047 2.4042969 12.8623047 4.5546875c0 2.149414-5.5009766 4.5537109-12.8623047 4.5537109z" fill="#d5d6db"/><path d="m42.1208611 24.742569c-.2906494-.1286621-.6605225.069458-.8260498.4428711-.1654053.3734131-.0637207.7805176.2269287.9094238.2908936.1287842.6605225-.069458.8260498-.4428711.1654052-.3735352.0639648-.7805176-.2269287-.9094238z" fill="#64798a"/><path d="m39.8787956 25.8314362c-.2906494-.1287842-.6606445.0693359-.8260498.4428711-.1654053.3734131-.0637207.7805176.2269287.9093018.2907715.1289062.6604004-.069458.8259277-.442749.1655274-.3735353.0639649-.7805177-.2268066-.9094239z" fill="#64798a"/><path d="m37.0902214 26.5467682c-.3181152-.1408691-.7104492.0473633-.8759766.4207764s-.0412598.7905273.2768555.9315186c.3183594.1411133.7104492-.0473633.8759766-.4206543.1655273-.3735352.041626-.7905274-.2768555-.9316407z" fill="#64798a"/><path d="m42.1208611 31.7360992c-.2906494-.1287842-.6605225.069458-.8260498.442749-.1654053.3735352-.0637207.7807617.2269287.9094238.2908936.1289062.6605225-.0693359.8260498-.4428711.1654052-.373413.0639648-.7805175-.2269287-.9093017z" fill="#64798a"/><path d="m39.8787956 32.8248444c-.2906494-.1286621-.6606445.069458-.8260498.4428711-.1654053.3735352-.0637207.7806396.2269287.9094238.2907715.1289062.6604004-.069458.8259277-.4428711s.0639649-.7805176-.2268066-.9094238z" fill="#64798a"/><path d="m37.0902214 33.5402985c-.3181152-.1409912-.7104492.0472412-.8759766.4207764-.1655273.373291-.0412598.7905273.2768555.9313965.3183594.1411133.7104492-.0472412.8759766-.4206543s.041626-.7904054-.2768555-.9315186z" fill="#64798a"/><path d="m42.1208611 38.7296295c-.2906494-.1289062-.6605225.0693359-.8260498.4428711-.1654053.373291-.0637207.7805176.2269287.9093018.2908936.1287842.6605225-.069458.8260498-.4428711.1654052-.3734131.0639648-.7805176-.2269287-.9093018z" fill="#64798a"/><path d="m39.8787956 39.8183746c-.2906494-.1287842-.6606445.069458-.8260498.4428711s-.0637207.7806396.2269287.9093018c.2907715.1289062.6604004-.0693359.8259277-.4428711.1655274-.373291.0639649-.7803955-.2268066-.9093018z" fill="#64798a"/><path d="m37.0902214 40.5338287c-.3181152-.1409912-.7104492.0472412-.8759766.4206543-.1655273.3735352-.0412598.7905273.2768555.9315186.3183594.1411133.7104492-.0472412.8759766-.4207764.1655273-.373291.041626-.7902832-.2768555-.9313965z" fill="#64798a"/></svg>