<svg enable-background="new 0 0 110 110" height="512" viewBox="0 0 110 110" width="512" xmlns="http://www.w3.org/2000/svg"><g fill="#2f4859"><path d="m77.2325592 79.9492264h-3.0368881v-1.6564865h1.3804016v-1.3804016h1.6564865z"/><path d="m66.2083893 78.2949905v1.6500244h3.9899902v-1.6500244zm-8.0000038 0v1.6500244h4v-1.6500244zm-7.9899903 0v1.6500244h4v-1.6500244zm-7.9899902 0v1.6500244h4v-1.6500244z"/><path d="m38.2339821 79.9492264h-3.0368881v-3.0368881h1.6564865v1.3804016h1.3804016z"/><path d="m35.1983757 68.9249954v3.9899902h1.6600342v-3.9899902zm0-8v4h1.6600342v-4zm0-7.9899902v4h1.6600342v-4zm0-7.9899902v4h1.6600342v-4z"/><path d="m36.8535805 40.9506531h-1.6564865v-3.0368881h3.0368881v1.6564865h-1.3804016z"/><path d="m66.2083893 37.9149857v1.6599731h3.9899902v-1.6599731zm-8.0000038 0v1.6599731h4v-1.6599731zm-7.9899903 0v1.6599731h4v-1.6599731zm-7.9899902 0v1.6599731h4v-1.6599731z"/><path d="m77.2325592 40.9506531h-1.6564865v-1.3804016h-1.3804016v-1.6564865h3.0368881z"/><path d="m75.5783844 68.9249954v3.9899902h1.6500244v-3.9899902zm0-8v4h1.6500244v-4zm0-7.9899902v4h1.6500244v-4zm0-7.9899902v4h1.6500244v-4z"/></g><ellipse cx="75.213" cy="50.699" fill="#d5d6db" rx="15.546" ry="3.881"/><path d="m90.7595596 50.6992493h-31.0926361v-3.8808518l31.0926361.1178742z" fill="#d5d6db"/><ellipse cx="75.213" cy="46.818" fill="#e1e6e9" rx="15.546" ry="3.881"/><ellipse cx="75.213" cy="45.911" fill="#d5d6db" rx="15.546" ry="3.881"/><path d="m90.7595596 45.9107018h-31.0926361v-3.8808518l31.0926361.1178742z" fill="#d5d6db"/><ellipse cx="75.213" cy="42.03" fill="#e1e6e9" rx="15.546" ry="3.881"/><ellipse cx="75.213" cy="40.755" fill="#d5d6db" rx="15.546" ry="3.881"/><path d="m90.7595596 40.754631h-31.0926361v-3.8808517l31.0926361.1178741z" fill="#d5d6db"/><ellipse cx="75.213" cy="36.874" fill="#e1e6e9" rx="15.546" ry="3.881"/><ellipse cx="75.213" cy="35.813" fill="#d5d6db" rx="15.546" ry="3.881"/><path d="m90.7595596 35.8127975h-31.0926361v-3.8808517l31.0926361.1178741z" fill="#d5d6db"/><ellipse cx="75.213" cy="31.932" fill="#e1e6e9" rx="15.546" ry="3.881"/><ellipse cx="75.213" cy="30.777" fill="#d5d6db" rx="15.546" ry="3.881"/><path d="m90.7595596 30.776598h-31.0926361v-3.8808518l31.0926361.1178761z" fill="#d5d6db"/><ellipse cx="75.213" cy="26.896" fill="#e1e6e9" rx="15.546" ry="3.881"/><circle cx="37.237" cy="68.988" fill="#ebf0f3" r="17.997"/><circle cx="37.237" cy="68.988" fill="#2f4859" r="16.371"/><path d="m23.9882812 67.0527039c.2673836-2.0010376.9835892-3.9109154 2.0947914-5.5898705l2.1043396 2.1008644c-.627655 1.0747452-1.0591145 2.2580032-1.2718048 3.489006h-2.9273262z" fill="#fcd462"/><path d="m29.2604179 58.1005745c1.6694088-1.2448921 3.6044617-2.0782928 5.6593208-2.4368324v2.9533691c-1.2813568.2899551-2.4949989.8195114-3.576685 1.560894z" fill="#44c4a1"/><path d="m43.1339569 60.1736641c-1.086895-.7396431-2.305748-1.2683334-3.5888367-1.5574188v-2.9516335c2.0505142.3594055 3.985569 1.193676 5.6584511 2.4394379z" fill="#27a2db"/><path d="m47.5648766 67.0527039c-.2083511-1.2396851-.6354675-2.418602-1.2700691-3.5002899l2.0904503-2.0904503c1.1146736 1.6772232 1.8326149 3.5879707 2.1008644 5.5907402z" fill="#e56353"/><path d="m37.4002457 63.4480667c-.0267639-.1887245-.2993622-.1887245-.3261299 0l-1.5055504 10.5974655c-.0468063.3297806.2091179.6246338.542263.6246338h2.2527771c.3330727 0 .5890656-.2948532.5421906-.6246338z" fill="#ebf0f3"/><path d="m37.2371635 68.4851685c-1.2488708 0-2.261322 1.0124512-2.261322 2.261322 0 1.2489471 1.0124512 2.2613983 2.261322 2.2613983 1.248951 0 2.2613983-1.0124512 2.2613983-2.2613983.0000001-1.2488709-1.0124473-2.261322-2.2613983-2.261322z" fill="#d5d6db"/><path d="m37.2371635 68.4851685c-1.2488708 0-2.261322 1.0124512-2.261322 2.261322 0 1.2489471 1.0124512 2.2613983 2.261322 2.2613983 1.248951 0 2.2613983-1.0124512 2.2613983-2.2613983.0000001-1.2488709-1.0124473-2.261322-2.2613983-2.261322z" fill="#d5d6db"/><path d="m37.2371826 69.5346527c-.6692772 0-1.211853.5425797-1.211853 1.211853 0 .6693192.5425758 1.2118912 1.211853 1.2118912.6693192 0 1.2118912-.542572 1.2118912-1.2118912 0-.6692733-.542572-1.211853-1.2118912-1.211853z" fill="#e56353"/></svg>