<svg enable-background="new 0 0 110 110" height="512" viewBox="0 0 110 110" width="512" xmlns="http://www.w3.org/2000/svg"><g fill="#ebf0f3"><path d="m54.030045 69.994171h2.552297v19.540497h-2.552297z"/><path d="m34.497574 69.994171h2.552297v19.540497h-2.552297z"/><path d="m53.813038 54.251667h2.986308v17.862675h-2.986308z"/><path d="m53.813038 50.200771h2.986308v41.617241h-2.986308z" transform="matrix(0 1 -1 0 126.316 15.703)"/></g><path d="m72.7234726 52.7495613c-.3839798-.6968193-.3117294-1.5867844-.0985107-2.3024559.5557556-1.8656883 2.0343018-3.2863655 2.7081223-5.201725-.3916092-4.9938202-1.0698013-10.0579796-.4562225-15.0456066.0390091-.3173561.1620026-.5764275.3317413-.7843838-3.5785904-6.9271011-10.8017731-11.6657581-19.1362839-11.6657581-11.8914032 0-21.5312843 9.6399269-21.5312843 21.5313778s9.6398811 21.5313759 21.5312843 21.5313759c6.7469406 0 12.7665253-3.10532 16.7143707-7.9622688-.0207596-.0344964-.0431061-.0641518-.0632172-.1005555z" fill="#ededed"/><g fill="#27a2db"><path d="m77.6069412 39.2792816c0 5.557766-2.1080933 10.6257629-5.564827 14.4374008-.0213165 0-.0426331-.0071068-.0710526-.0071068-.1632385-.007103-.3122711.1561813-.3761292.2768326-.0567551.1135521-.0780716.2342491-.1349106.3406944-.6955872.7240105-1.4480209 1.3983307-2.2500153 2.0087509-.056839-.007103-.120697-.007103-.1845551-.0142097-.2556076-.0212708-.2981491.127758-.4117432.3194199-.134819.2129326-.3548965.4188042-.5962067.5181427-.2768326.1135902-.5891037.1632843-.8801498.2200356-.1845551.0355263-.262619.0496902-.3264771.2413521-.0425491.1135483-.063858.2484131-.0780716.3691101-.3477936.1987228-.6955948.3903847-1.0576019.5678329.0142136-.5110779.3478012-.9298363.3691177-1.4480209.007103-.1135521-.0213165-.2413101.007103-.3549042.0283356-.1348648.1063995-.1632385.1561356-.2767906.0567551-.1419678.134819-.4400711.0142059-.5536652-.1632385-.1490288-.383316-.1490288-.4330521-.4187584-.0142136-.0781136 0-.1419678.007103-.2271423.0142136-.248455.0213165-.5394554-.070961-.7737045-.0780716-.1987228-.312355-.3052101-.5181427-.2910004-.1987686.0071068-.3762131.1348648-.5677872.063858-.099472-.0354805-.1491165-.1490288-.2485046-.1845551-.0922775-.0283775-.1561356-.0141678-.2484131-.0141678-.2484131.0071068-.5040169.0212746-.7523422.0071068-.1916618-.0071068-.3620071-.0851746-.5394592-.1490746-.2698135-.0851707-.3336716-.2129326-.4755974-.4116974-.1135941-.1632385-.2555199-.2768326-.3620071-.4400749-.0354385-.0496902-.0922775-.0993805-.1278-.1490288-.0567551-.0922775-.0567551-.1916618-.0992966-.2768326-.0852623-.1561813-.2840271-.2129326-.3406944-.3903847-.0497322-.1490746-.0213127-.3549004 0-.5039749.0141258-.1348648.1206131-.3406906.0566673-.4613876-.0708771-.1348648-.2909546-.0922775-.4045486-.0922775-.2484131.0142097-.3406906.0781097-.4827042.2910423-.0992966.1490288-.1703453.2626228-.1774483.4400749-.0071068.127758-.0283356.3123131.007103.4329681.0426292.1774521.2485008.2200356.3336716.3762169.0993843.1845551.0425453.4116516.1278038.5962067.07798.1632843.07798.2626266.0921898.4400749.049736.3549004.3833237.4259071.681385.4188042.1207848-.0071068.4543686-.0639038.5465622.056797.0923615.1206512.0213127.4613457.0213127.5962067 0 .1206551.0213165.2555199-.007103.3691139-.0425453.1774483-.1845551.2910004-.3051682.4116974-.2058716.2058258-.3406906.3193741-.6176109.4471359-.1915741.0922775-.3903389.2271423-.6032295.2413521-.2200775.007103-.4117393.0780678-.6318207.1135483-.2412224.0355225-.5039291.0355225-.7452393.0922775-.1561356.0425873-.2839394.1419678-.4471779.1561775-.0993843.0142097-.1916618.0071068-.2909584.0071068-.2129745-.0071068-.5465622.0425873-.7666397-.0071068-.1064873-.0283737-.2129784-.127758-.3122711-.1703453-.1135941-.0496902-.2271881-.0781097-.3477974-.0851707-.2342911-.0071068-.4969139-.0213165-.7240143.0496902-.2342873.070961-.5891914.1916161-.8233948.0496483-.1135902-.063858-.0922775-.0780678-.1491165-.1845131-.0496483-.0781097-.1206093-.1278038-.1845551-.1987648-.0708771-.0639-.2341156-.1987228-.2412224-.2981033-.007103-.0639038.0637703-.1277618.0921898-.1703491.1135941-.1703873.2413979-.3336296.3477974-.5110779.1703453-.2697296.3477974-.4542847.3975296-.7807655.0355263-.2129326 0-.3833199-.0497322-.5820427-.0992966-.3762169-.063858-.752388-.063858-1.1357117 0-.2200356-.0496483-.4826584.0425415-.6813812.056839-.127758.1633301-.2129326.1916618-.3549004.0639458-.2768326.0142097-.6317368.0142097-.9156723 0-.2271004.1064873-.7168655-.1561356-.8020401-.3975296-.1419678-.6104202.2271004-.5891037.5678368.014122.2697258-.1207008.4684486-.1349106.7310715-.007103.2058716.049736.4329681-.0213127.6317368-.07798.1987648-.2767487.2839355-.3761292.4542809-.0851746.1632423-.0284195.4045944-.0284195.5820465.007103.2342033-.0212288.3903809-.1135941.6033134-.0850868.1987648-.2270966.3691101-.2696419.5891457-.0781555.3549042.0071068.681385.0071068 1.0504951.014122.3336296-.0284195.7169075-.2485008.9795303-.1277161.1561356-.1845551.1916618.007103.3194199.2839394.1703453.5678787.3264809.8801498.4471779.2129745.0780678.4471779.1490326.6459427.2626266.1845551.1135483.3477974.0922775.5606842.1419678.2556076.063858.5111237.1490288.7595406.2270966.1064873.0355263.4117393.0213165.4471779.1207008-.1916618.2555161-.3549004.3052101-.6530495.3264809-.2838516.0284195-.503933.0781097-.7665558.1845551-.1987648.0851707-.3549004.1916618-.5252457.3265228-.2342033.1987228-.4187584.2910004-.738224.2910004-.3052521 0-.567791-.0212708-.8659363.0781136-.3620071.127758-.681469.2838936-1.0789146.3052101-.5181427.014164-1.0647049-.0993843-1.568634.014164-.4613914.0993843-.8872528.0922775-1.3557472.0922775-.1206131 0-.2342911.0071068-.3549004 0-.3051682 0-.6955948-.0851707-.9795341.0710068-.0425415.0212708-.0851707.0496902-.120697.0780678-3.6625175-1.3912277-6.8424187-3.7619438-9.2274284-6.7928123.1420097-.0993843.2910423-.2129326.3762131-.3620071.0639458-.1135483.0568428-.1845551.0922813-.3123131.0567513-.2129326.1633263-.3335876.1562195-.5678329-.007103-.2058296-.0852585-.3832779-.120697-.5820465-.0284195-.1845551-.0425415-.6175232.1278038-.7452812.1063995-.0851746.3549004-.0496941.4826164-.0780678.134819-.0354843.2697296-.1135941.3904266-.1845551.3193741-.1916618.3051643-.3832779.1845551-.7026978-.0639458-.1632843-.0710487-.3265266-.113678-.4897652-.0566673-.2058716-.1986809-.3549042-.3122749-.5252495-.1703453-.2555618-.1987648-.5181847-.2838516-.809185-.0284195-.1135902-.063942-.2910423-.1562195-.3833199-.0425453-.0425873-.1135941-.070961-.1632423-.1135483-.1703453-.1490746-.2199936-.3974876-.3265686-.5962524-.1063995-.2058296-.2128868-.4045525-.3690224-.5749397-.2199936-.2271004-.4258652-.4542389-.6317368-.7026978-.1277161-.1561356-.2980614-.2697296-.4188461-.4187584-.1063995-.1348648-.134819-.2981491-.2270088-.4259071-.106575-.1419258-.2058716-.2058296-.2769203-.3903847-.1490326-.3903809-.4258652-.816246-.4684067-1.2492561-.0426331-.4045944-.0071068-.8446693 0-1.2492599.007103-.2484131.0284195-.5181427.085083-.7665558.0355263-.1632843.099472-.3336296.1845589-.4755974.0213127-.0283775.113678-.1632423.1207809-.2129326.0283356-.1632423-.0426292-.3406906.007019-.5181427.0496483-.1348648.1491165-.2058258.2484131-.3052101.1561356-.1632843.3691139-.3407364.503933-.5252457.1207848-.1632843.1420135-.3620071.2271843-.5394592.1135941-.2058678.3051682-.2910423.503933-.3974876.1632423-.0993805.2769203-.134861.4614754-.120697.2767487.0213165.4541969-.1064453.6671715-.2838936.1348228-.1135941.2413101-.2271423.3264847-.3620071.0497322-.0780678.0780678-.1916618.1419258-.2626228.1349068-.1632423.3549004-.3336296.5749779-.3477974.1987689-.0071033.3904269.0071065.5891917-.021313.1632423-.0212708.3193779-.063858.4826202-.0851746.2342873-.0283775.4755096 0 .7169075-.007103.2271843 0 .4187584-.0283775.638752.0425835.5607719.2129784 1.0080376.5891495 1.5970535.7240143.3123589.070961.6389275.0354805.9511986.0922775.1419258.0213165.2484131.0213165.3904266-.0142097.2128868-.063858.4257774-.1632423.638752-.0354805.0923653.0496902.1632423.1490746.2485008.2058258.0992966.0639.2057838.0922775.2980614.1561775.1490288.0993843.2839394.2555199.3975296.4045944.1632423.2271423.3406906.4400749.5110397.6530075.0993805.1419678.1703453.3406906.2909546.4684906.1278038.1348648.3549004.1490326.5040207.2696877.1703453.1419678.1986771.3904266.4400711.4471779.1561356.0425873.2909584.0496902.4471817.120697.1420097.0496902.3265648.063858.4187584.1916161.1703453.2342491.1774483.5394592.4046364.7523918.3122711.2839355.7523422.6601524.6458549 1.1357079-.0921898.3903847-.4187584.7098045-.5252457 1.0930786-.0496483.1561813-.063858.2910461-.0284195.4400749.0284195.0922775.0852585.1703453.106575.2697296.0212288.1490746-.0142097.3123131.0283318.4613876.0425453.1348648.1420135.2697296.2128906.3974876.1207848.2129326.2200775.4329681.3336716.6459007.1278038.2413521.3265686.4188042.6033134.4826622.1987686.0425873.3193779-.1135483.5252495-.0425873.1278.0425873.3406906.1561775.3975296.2981491.0355263.1135483.0071068.4897652.0213165.5465164.0283318.1987686.0708733.4613914.1703453.6388397.1490288.2626228.4187584.4045944.688488.5181427.2058678.0851746.4541969.1348648.6316452.2839394.1916618.1632385.2271843.3761711.3265686.5891457.1278038.2626266.4258652.3193779.6530495.4755554.1632423.1206551.2767448.2555199.4968262.2910004.2910423.0354843.6742783.056797.9724274.0142097.2058716-.0283737.3903389-.1632385.5962105-.1987648.2200775-.0496483.4755974-.127758.5394554-.3761711.0355263-.1490746.049736-.4755554-.0071068-.617527-.0496445-.1561775-.2554283-.1845551-.3833199-.2626228-.1915741-.1135902-.3477974-.2129326-.567791-.2626228-.0993805-.0213127-.1986771 0-.2981453-.0425873-.2271004-.0851707-.4684067-.3762131-.6529655-.5394554-.1845551-.1632843-.2697258-.3052101-.2768326-.5536652-.0142097-.1703491-.0425415-.4400749.0567551-.5891075.3052521 0 .5891914-.007103.880146.0709648.2910423.070961.5678787.1206551.8588333.127758.2627106.0071068.5891914-.0283775.7666435-.2626228.1845551-.2626228 0-.68853.3122711-.8801498.2627106.3335876.4898071.6459045.681469 1.0221176.1703453.3264809.2981491.62463.6743622.7310753.1703491.0425873 1.0220757.127758.9652367-.2555199-.0142097-.1348648-.2909584-.2555161-.3620071-.3477936-.2199936-.2555199-.3762169-.5820427-.4257774-.9085693-.049736-.2838936-.1633263-.2838936-.3762169-.4471779-.1561356-.1206551-.2271843-.3052101-.3833199-.4329681-.1916618-.1490326-.3264809-.3123169-.4259491-.5323524-.0850868-.1845551-.0283356-.5536232-.1703491-.688488-.1063995-.0993843-.3691101-.0639038-.5039291-.0639038-.1703453-.0283737-.3122711.0213165-.4258652.1419716-.1491165.1419678-.3123589.2555161-.4898071.3406906-.1277161.1419678-.0708771.3549004-.0708771.5252457.007103.1916618.0425415.3691139-.056839.5323524-.1490326.2342491-.681385.4756012-.9440956.4259071-.2412186-.0354805-.2341156-.2413521-.3264809-.4188004-.0850868-.1348648-.1774483-.2626228-.2767448-.3903847-.1349068-.1987228-.3194656-.3052101-.553669-.3052101-.1064873.0639038-.1349068.1561356-.0781517.2626228 0 .0354843 0 .056797-.0071068.0922775-.0425415.1277618-.4755096.3620071-.4968262.3691139-.1916618.063858-.3975296.1419258-.447094-.0922775-.007103-.0710068.007019-.1632843.007019-.2342491.0071068-.2910004.063858-.4968681.2981491-.6743202.2484131-.1916161.4116554-.2910004.4400749-.6317329.0212288-.2910004.014122-.5749397.1135902-.8659401.0284195-.0993805.0779839-.2129326.0992966-.3194199.0355263-.2626228.049736-.5323524.049736-.8020782 0-.1845551.070961-.5891075-.1277161-.7026978-.0639458-.0071068-.1207848-.0212708-.1845551-.0283775-.0923653 0-.1349068.0425873-.1278038.1206551-.0922775.1206551-.0567513.2058258-.2342033.2626228-.1349068.0496902-.5181427.127758-.6459427.0213165-.063858-.0496941-.0496483-.1490746-.0496483-.2200394v-.4827042c0-.1419258.0637703-.4116516-.0142097-.5536232-.1916618-.3052101-.6672592 0-.8589211-.2342453-.1278038-.1490326-.0354385-.4045944-.1561356-.5749397-.0993843-.1419678-.2768326-.4116974-.4827042-.3832779-.063858 0-.1206093.0780678-.1703453.0922775-.0992966.0354843-.2625389.0212746-.3406906 0-.063858-.0142097-.1277161-.0496902-.1845551-.0781097-.1277161-.0425873-.2413101-.0354805-.3762169-.0354805-.2483292 0-.503933-.0141678-.7594528 0-.2555161 0-.4827003.1135902-.7381325.127758-.3975334.0071068-.4046364-.1987228-.5749817-.4897652-.1419258-.2270966-.3691139-.3549004-.503933-.5749397-.1703453-.2838936-.3406906-.5819969-.4898071-.8872528-.0993843-.2129288-.2555199-.4542389-.2910461-.6884842-.063858-.3265266.4117432-.1987686.6034012-.2839394.2128906-.0993385.4045525-.3477974.6103325-.4329681.1916618-.063858.4188461-.0709648.6176147-.0709648.1774483-.007103.5181389-.0922775.6813812.0212708.070961.0496941.0639458.1277618.0993843.1916618.0922775.1845551.2270966.3194199.2981453.5110359.063858.1916618.1419258.3620071.1987648.553669.0566673.1632385.1703491.2981033.3406944.3761711.2199936.0922775.4684067-.0283775.6742744-.1348648.1277161-.070961.3620071-.2129326.4471817-.3406906.0851707-.127758.0496483-.2342453.063858-.3691101.0142097-.1561356.063942-.1987228.134819-.3193779.106575-.1916618.2271843-.6388397.5394592-.5536652.1561356.0496902.3265648.2626228.4684906.3477936.1774521.1135941.3052559.2413521.4756012.3762169.1277161.0922775.2626228.2413101.4046364.3052101.1561356.0709648.4612999.0496902.6245422.0283775.2556038-.0283775.4684944-.1703453.688488-.0071068.1703453.1419716.2840233.2413521.4969139.3052559.120697.0354805.2626228.063858.3903389.0780678.2129745.0283737.191658.0212708.2840233-.1135941.1206131-.1845131.1774521-.2838936.4044647-.3335876.2129745-.0496902.3904228.0142097.5536652.1277618-.0921898.191658-.1987648.3832779-.3193779.5607262-.056839.120697-.0497322.2200394.0355263.3052101.070961.1916618.2270966.3691101.2909546.5749817.0568428.1348228.0639458.2271004.0639458.3690681-.007103.2271423.0496483.3123131.1987648.4542847.1632423.1632385.3122711.2981033.5181427.3903809.2413101.0993843.4045486-.0142097.6033134-.1348648.2910461-.1916161.4187622-.5394554.8020821-.5252457.2626228.0142097.7098007.1064873.929882-.070961.1774521-.1419716.1135063-.3974876.1419258-.5962563.0213165-.1845551.0425415-.319416.0425415-.4968681.0071068-.3761711.3194656-.4826622.6317368-.5820427.4684944-.1490326 1.0149689-.3264809 1.1073341-.8730431-.4117432-.1277618-.9937401-.063858-1.3841667.1348648-.2839394.1490746-.5181427.4684486-.7594528.6743202-.1278.1419678-.2839355.2413063-.4613876.2981033-.1278038.0496941-.2484131.1064873-.3762169.1703453-.1844673.1277618-.3335838.3407364-.5820007.3620071-.1419258.0142097-.3193741.0071068-.4542809 0-.8020821-.0283775-.1774521-.8020782-.1420135-1.2137756.0142097-.2555199-.0283318-.3832779-.2625351-.4187622-.1632423-.0213127-.5394592-.0922775-.553669-.3336296-.007103-.1916161.2484131-.2910004.3691101-.3903809.2128906-.1987228.3762169-.4613457.6032295-.6387978.3833199-.3123131.9725113-.191658 1.440918-.191658.2981491.007103.5749817-.0639038.8659401-.0639038.3762169.0071068.75243-.007061 1.1286469 0 .0780678-.007061.1561356 0 .2342911.0142097.0921898.0639038.1986771.1135941.3122711.1490746.1561356.0496941.3193779.0283775.4826202.0283775.198761 0 .4046326-.0071068.5962906.0354805.2129822.0496902.2129822.1774521.1845551.3762169-.0213089.127758-.0497284.2626228-.0710449.3903809.0284195.1135521.0923615.1916618.198761.2484169.1774521.1774483.2271881.3833199.3620071.5820427.0426331.0851707.1135941.127758.2058716.1419678.1277161.0922775.2484131.1916618.3620071.2981033.1490326.1348648.2625351.2768364.4755096.2981491.3549042.0283775.7169113-.007103 1.0718079-.007103.1348267 0 .3335876.0425835.4613953-.0071068.0922775-.0283775.1562195-.0993805.191658-.1916618.0993805-.0922775.2128906-.1703453.3264771-.2484131.2839432-.3194199-.014122-.8588753.3194656-1.1640854.2696457.1845551.0213165.5181427 0 .7240143-.0142059.127758.007103.3052101.0142136.4400711.0142059.1987228.1561356.3406944.276741.4826622.1135941.1419678.3762207.3974876.5891953.2768326.1632385-.0993805.191658-.4400749.2555161-.5962524.0851746-.1916161.1774521-.3406906.3123627-.503933.2838516-.3407326.6316452-.6317329.8446198-1.0292206.1063995-.2058716.070961-.4613914.1774521-.6601105.0567551-.1135941.134819-.1632843.1703415-.2910461.063858-.2413063 0-.6104164 0-.8659363-.007103-.127758.0071106-.2413521.0355301-.3620071.0637665-.2413502.134819-.5323505.2483215-.7594929.3123627.0639019.4969177.3477955.7950668.4045925.198761.0354824.4329681-.0071049.6316452 0 .0781555 0 .2058716.0283756.2769241-.0213146.1206055-.0922775.1845551-.4045925.1986771-.5394135.0142059-.2200813-.007019-.4542847-.007019-.6672153 0-.1916618-.0142136-.3833218-.007103-.5678768.014122-.1774502.0637665-.319376.1632385-.4613457.0921936-.120697.2341995-.1774502.2767487-.3336296.056839-.2200375.0284195-.5749378.0142059-.8091431-.0142059-.1419678-.0496445-.2768326-.1774521-.3691101-.0851669-.0710068-.2341995-.0851727-.3122711-.1703453-.134819-.1348648-.0852585-.3549023-.0781555-.5323524 0-.1845551-.007103-.3549004-.007103-.5465622 2.6547398 3.5773891 4.2233814 8.013655 4.2233814 12.8048194z"/><path d="m72.1152573 25.4317913c-.0990372-.0343151-.1866379-.110384-.285675-.1332607-.0761566-.0152512-.1599503.0076256-.2361984-.0190639-.0990372-.0343132-.1294479-.0990372-.1866379-.1790123-.1103821-.1486015-.2971191-.2362022-.2971191-.4304657-.0037155-.083786-.0227814-.2056084-.0076218-.285675.0190659-.0914116.1028519-.1408844.1257248-.2284851-.0685349-.1333523-.4532471-.0610027-.5713501-.019062-.1218185.0419388-.2133255.0990372-.3503952.0723476-.1752014-.0380344-.3276215-.2208595-.4456253-.3465862-.0610046-.0723476-.1066666-.1980762-.1904526-.2476406-.1333542-.0761623-.3047409-.0837879-.4419022-.1599483-.1752014-.0952263-.3504028-.2057018-.4608765-.3732758-.0685349-.0952244-.1257248-.1980762-.201889-.2933006-.1066589-.1332588-.2627945-.1866379-.3961487-.2894878-.0761642-.0609112-.1370773-.1409779-.2095184-.2057018-.1561356-.1370716-.3275223-.129446-.5103455-.2133255-.1142883-.0494728-.1980743-.1141968-.2971115-.1904507-.118103-.09132-.2323914-.1446991-.3732758-.1980762-.2171402-.0836945-.4113998-.1713867-.5980377-.3084583-.0799789-.0571918-.1257324-.0952263-.2057037-.1219139-.1713867-.0494728-.2818604-.1675739-.4303741-.2551746-.1142883-.0686283-.2133255-.1257267-.3199921-.2057018-.0876007-.0723476-.1637573-.0952244-.2095108-.1980743-.0304108-.064724-.0456619-.2095146-.1141968-.2399235-.0571899-.0266895-.1219101.0076256-.1867294-.0228767-.1218185-.0610027-.1865463-.1524162-.2628021-.259079-.0685349-.0952244-.1256332-.1065712-.2246704-.1561356-.1066589-.0495663-.201889-.1219139-.3009262-.1828251-.167572-.0952244-.1751976-.2437363-.2209511-.4228401-.0152512-.064724-.0305023-.1294479-.0456581-.19417-2.3615685-.8875294-4.9174881-1.3750935-7.5876045-1.3750935-1.2036133 0-2.3806305.0990391-3.5309563.2894897-.0037193.0076256-.0113449.0152512-.0189705.0228748-.0762558.0723495-.1447906.1104774-.1638565.2208595-.0152473.0990391.0152512.2057018.0076256.304739-.0076256.0837879-.0418472.2285786-.1180992.2780514-.0570984.0343132-.182827.0343132-.2513618.0610027-.0914116.0342216-.167572.0989456-.2399216.1599483-.0724411.0570984-.1638565.0837879-.2171402.1599483-.0533791.0762539-.0610046.1714802-.0723495.2628002-.019062.1142883-.0495644.1828232-.1257248.2667046-.1028519.1141949-.0761642.2513599-.0266914.3961506.0533791.1446972.1524162.2817707.2476425.3998718.064724.0838795.0570984.0762539.083786.156229.0266876.0647221-.0114365.0342216.0570984.0799732.1333542.0876007.3047409.0114384.4342804.118103.0570946.0456581.0952225.1065693.1599464.1446972.0570984.0343132.1104774.0418472.1675758.0761604.1219139.0685368.1751976.266613.251358.3809013.0762558.1219139.0381279.2171383.0571938.3542118.0304985.240015.2284813.285675.4532471.304739.1028519.0114384.2400169-.0266895.3390541.0076256.0418472.0114384.1256332.1066628.1370735.1142883.0495644.0418472.1637611.0914116.1904488.1523228.0152512.0266895 0 .0838795 0 .1066628-.0076256.0876942.0038147.266613-.0761604.3352413-.0266914.0228767-.1295395.0494728-.1561356.0609112-.0914116.0419407-.3009262.0952244-.3543053.1790123-.0685349.0952244.0076256.2133255.0571899.2971134.0761642.1333523.1332588.2095146.2971153.240015.064724.0152512.14851.0265961.2132339-.0038128.0648155-.0343132.0990372-.1066628.1676674-.1333523.0609093-.0266876.1370697-.0304089.2018852-.0419388.0609131-.0113449.1180115-.0189705.1637611-.064724.0380363-.0305023.0570984-.0914116.0952263-.1181011.0723495-.0570984.4761276-.0989456.5104408-.0152512.0418472.0876923.0037193.3048325-.0533791.3771801-.0723495.0876007-.1370697.0952263-.140976.2170467-.0076256.2247658.0991287.3276157.1791039.5218792-.2514534.2056999-.525692.14851-.8189926.1561356-.0952225.0038128-.2171402.0228767-.2933006.0800667-.0876007.064724-.0723495.1408844-.030407.2246723.0609093.1295395.1561356.285675.2437325.3961506.0495682.064724.1066666.1333523.1866379.1561375.1446991.0419388.3466797.0152493.4951897.0114365.1942635-.0038128.3809013-.0532837.5751648-.0342216.1333542.0151596.3427734.0952263.4532509-.019062.0457497-.0457535.0570984-.1295395.1066628-.1713867.0532837-.0457535.1295395-.0419407.1942635-.0419407.1294441.0038128.1790123-.0038128.2742348-.0914116.1599503-.1371651.3809013-.0610046.5637283-.1333523.0648155-.0228767.1104736-.0609112.1790123-.0837879.0914116-.0304089.1828232-.0266895.2780495-.0266895.1447906 0 .2933006.0305023.426651-.0380344.0494728-.0266876.0799751-.0609093.1370735-.0724411.0648155-.0151577.140976.0039062.2095146.0039062.0875969-.0039062.1600418-.0190639.2438278-.0381279.1408844-.0381279.2932091-.0457535.4113083-.1295395.1333542-.0952244.1066628-.2704239.1028519-.4227486-.0038147-.0648155-.0038147-.1181011-.0228767-.1790104-.0227852-.0723495-.0761604-.1257286-.09132-.1942635.350399-.0457535.7122345.0151577 1.0664482-.0266895.2362022-.0305023.5675392-.285675.4342766-.5446625-.0457497-.0800667-.1142883-.1713867-.1980743-.2133255-.0990372-.04566-.2362022-.0114384-.342865-.0114384-.1256332.0038128-.3047409.0343151-.4189377-.0342216-.1562271-.10285-.224762-.3085518-.4342766-.3352413-.1370735-.0190639-.2780495-.0609112-.4037781-.1333523-.0723495-.0418472-.1332588-.1066628-.1789169-.1751995-.0533791-.0799732-.0648193-.10285-.0266914-.1828251.0532875-.1066628.2095146-.1675739.3123665-.2133255.0952225-.0418472.1523209-.04566.2551727-.0494728.0914116 0 .1904488.0190639.2780495-.0190639.0723495-.0305023.0761604-.0570984.1294479-.1104755.1295395-.1294479.5066261-.0723495.674202-.064724.1524162.0038128.3123627.0305023.4608727.0152512.0533791-.0076256.118103-.0381279.1714821-.0343151.0952225.0076256.1637611.0914135.2284813.1447906.0724449.0609112.1142921.0952263.2095146.0799751.1028519-.0190639.201889-.064724.3123665-.0419407.1219139.0305023.14851.1600418.201889.2513618.0570984.0952244.1294441.1524143.2056999.2247639.1523247.1371651.2132339.2362022.2170448.4457169-.1942596.1065712-.5294113.1446972-.6513252.3275223-.0647202.0952263-.0914116.266613-.0761604.3770885.0343132.2933006.4265594.3199902.6627655.3123646.1219139 0 .285675-.0343151.4037743 0 .1104774.0342216.1446991.1370716.2133293.2170467.0913162.1067562.1790123.1486034.3122711.156229-.1561356.3122711-.5789795.5866013-.9331894.5637245-.2095146-.0152512-.407589.0228767-.6056633-.083786-.1065712-.0571918-.1980782-.1142902-.2704277-.2133274-.0418472-.0570984-.0532837-.0761623-.1294441-.0837879-.0610046-.0076256-.2552681-.019062-.3199921.0076256-.0456581.0190639-.083786.0723495-.1219139.0990391-.0914116.0609093-.2209511.0723476-.2742386.1828251-.0532837.1066628-.0609093.2666111-.0647202.3847122-.0076256.2551746.1446953.3351479.3656464.3656502.1523247.0228767.2971153.0799732.44944.0875988.076252.0076256.1562271-.0038128.2323875-.0038128.182827 0 .3999672-.0304089.5789795 0 .0990372.0190639.1751976.0761623.2742348.1066647.1218224.0418472.2361107.038126.3694649.0418472.1332588.0039043.2171364.0191555.3465843.0686283.0952263.0381279.1675758.0494728.2704239.0494728.468502-.0113449.9370956-.0037193 1.4055939-.0037193.1828232 0 .3694611.0113449.5522842 0 .0532913-.0039062.1561432-.0419407.201889-.0039062.0456619.0457516.0685425.1867294.0990448.2438278.0380325.0761623.0609055.1142883.0570908.1980762-.0038071.0723495-.0114365.1408844.0038147.2133274.0152512.0952244.0685349.1828232.0723495.2817688.0076294.1638546-.0075302.175293-.1180115.3009262-.0762482.0838795-.2095108.1066628-.308548.1714802-.0952225.0609112-.1523209.1141949-.2704239.1256332-.0914154.0076256-.1791077.0038128-.2704239 0-.2057037-.0038128-.4190292.0266895-.6247292.0152512-.1104774-.0038128-.2399254-.0343151-.3427734-.0723476-.1219139-.0419407-.2171402-.0532856-.3390541-.0571918-.1599503-.0076256-.2818642-.0494728-.4189339-.1180077-.1333542-.0648174-.2856789-.1333523-.4342804-.1447906-.0990372-.0038128-.1408844-.0305023-.2247658-.0876007-.0380325-.0265961-.0836945-.0532856-.1218224-.0875988-.019062-.0190639-.0723457-.0952263-.1028481-.1104774-.1333542-.0570965-.2475471.0610046-.3276176.1524162-.1256332.1408863-.2437325.2818642-.3770866.4189358-.0609093.0610027-.1065712.1142883-.1942635.1333523-.0799751.0152512-.2170448.0076256-.3008308-.0038128-.1142921-.0228767-.1980782-.1142883-.2971153-.1790123-.118103-.0799751-.2095146-.1219139-.3504906-.1219139h-.6513252c-.1104774 0-.2246742 0-.3351479-.0038128-.0381279 0-.1066666-.0152512-.1409798 0-.1028519.0343151-.1790123.2362022-.2056999.3276157-.0876007.3123646.1333504.6246357.3504906.8265247.0380363.0343132.0799751.083786.1332588.1066628.0686302.0305023.1562309.0228767.2209549.0609112.1523209.0914116.140976.2971134.3314247.3314266.2437363.04566.6513252.0151596.7693367.2971153.0228767.0532837.019062.1218204.0419388.1790104.0305023.0876007.0799751.1370735.1370735.2095146.0800667.10285.0686264.2208595.1486015.3313351.1294479.1828251.3351479.3199902.4913788.4799385.1066628.1104755.2094193.1828251.3580208.220953.2894897.0761604.6322632.0305004.9255638.0342216.1980743 0 .3809013-.0380344.5827904-.0380344h2.5939522c.1104813 0 .1866379.0190639.2704239-.0533791.1028519-.0914116.1675797-.2475471.198082-.3770866.0152512-.0761623.0266876-.1637611.0190582-.2437363-.0114365-.1104755-.0609055-.1790123-.1104736-.2742367-.083786-.1675739-.034317-.3999653-.0381241-.5866032 0-.1486034 0-.186636.0800629-.3161774.0265961-.0342216.0380325-.0647221.0647278-.0990372.083786-.0990372.2133255-.1219139.3161774-.1980762.1141891-.083786.1065674-.1751995.1028442-.304739-.0039062-.1370716-.0039062-.2741432-.0039062-.4151211 0-.0686302-.015152-.1523228-.0037155-.220953.0265961-.1561356.1408844-.2209511.1141968-.3923378-.0038147-.0418472-.0380325-.2437363-.0952301-.2971134-.0265961-.0265961-.1370697-.0418472-.1599426-.0532856-.1104813-.0495663-.2628021-.1713867-.2704239-.3009262-.0076294-.1180096.0990372-.304739.1142883-.4303741.0075302-.0800667.0038071-.1637611.0038071-.2438278 0-.1180096.0037231-.2437363 0-.3656502-.0038071-.2780495-.308548-.3123646-.4951859-.4608746-.0685349-.0532856-.1828232-.1600418-.2057037-.2513618-.0228729-.10285.0990372-.2133255.1752014-.2743301.1104736-.0875988.1980743-.083786.3276138-.0799732.1028519.0038128.2399216-.0342216.331337.0190639.2704239.1524162.1637573.5827885.1637573.8303375 0 .10285-.0342178.2780495.0039062.3771801.0342255.0836945.1523285.1599483.2132339.2246723.083786.0875988.1409836.1333523.2704239.1486034.0952301.0151577.2057037.0189705.3047409.0113449.1295395-.0076256.2247696-.0570984.2247696-.19417-.0038147-.1333523-.0648193-.2705173-.1752014-.3428669-.1257248-.0875988-.201889-.1637611-.2742386-.3009262-.0686264-.1256332-.0419388-.2627983-.0419388-.4036846 0-.0686283-.0381317-.2438278.0305023-.2933006.0532837-.0343132.2666092-.0039062.3237076-.0039062.1142883.0039062.2780533.0152512.3808975.0800686.0723495.04566.0952301.1332588.1599503.1713867.1562271.10285.3848114.0532856.5600052.0457516.2246704-.0076256.3542175.1180096.5103531.2704258.0914078.0875988.1714783.1599483.2133255.2817688.083786.2323914.2323914.4075909.4113998.5752563.163765.1561356.2399216.3580246.3961487.5217857.1104813 0 .1446991.0381279.2551804.0343151.1904449-.0038128.2209473.0228767.3123627.1866379.0418472.0799732.0990372.1523228.1637573.2132339.0266876.038126.0532837.0800667.0761642.1181011.1257248.0686283.2894897-.14851.342865-.2361107.0685349-.10285.0799713-.1866379.083786-.3085518 0-.0685368-.0419388-.2247639-.0190582-.2780495.083786-.2057018.4875565-.1866379.6551361-.1790123.083786 0 .2589874.04566.3009262-.0495663-.0571901-.1027565-.0837862-.1446972-.1942674-.1828232z"/><path d="m34.6498337 37.091198c.1333542.0761642.2247658.0494728.3123665-.0914116.0685349-.1142883.1180992-.2285767.1980743-.3352394.1752014-.2399254.3770866-.2704277.6589508-.2704277.0609093 0 .1333542-.0152473.1942635.0076256.083786.0266914.118103.099041.2133255.1142921.2513618.049469.498909.049469.7465515.0114365.2095146-.0343132.3160858-.2056999.4379997-.3695564.1562271-.2132339.2742348-.4722176.3352394-.7312965.0380363-.1561394.0305023-.3161774.0265961-.4723167-.0037193-.2018852.0533791-.2894859.1142883-.4684982.034317-.1142883.0914116-.2361107.0990372-.350399.0076256-.1600418-.0380325-.3276138.0419426-.4723129.0494728-.0876007.1256332-.1523247.167572-.2438278.064724-.1256332.1447906-.266613.1942635-.3961525.0152512-.0456581.0152512-.0989456.0343132-.1446991.0380363-.0914116.0914154-.1561356.1027603-.2589836.0115318-.0876007-.0189705-.182827-.0113449-.2705193.0113449-.1103821.0799713-.2094193.0914116-.3198967.0114365-.0799732-.0114403-.1637611-.0038147-.2438278.0305023-.3351479.1866379-.6855469.3009262-.9940987.0570984-.1523228.1180115-.2514534.2361107-.3656502.1066628-.10285.2476425-.2056999.3199921-.3390541.0761604-.1408844.0799713-.3198967.1408844-.4723129.0610046-.14851.1637611-.2437344.2742348-.3580227.1028519-.1104774.1752014-.2247658.2438316-.3618374.0761604-.1523228.1866379-.2514534.3085518-.3732758.1065674-.10285.2437325-.2057018.3009262-.3427734.0418472-.0915051.0418472-.1980762.0723457-.2933006.0304108-.0991306.0418472-.1867313.0570984-.285675.0228767-.1828251.0952263-.3238029.1790123-.4837513.0648193-.1219139.0533791-.2971134.1409798-.3961525.1028481-.1219139.2742348-.2285767.3999634-.3238029.1446991-.1066628.266613-.2362022.3960571-.3580227.0952263-.0914135.1829185-.1675739.2552681-.2780514.0876007-.1371651.1866379-.2475471.2818642-.3770866.0761604-.0952263.0952225-.2476425.1980743-.3199902.1066628-.0761623.3122711-.0190639.3694611-.1446972.0114403-.0266895 0-.0610046.0076256-.0876007.0152512-.0495644.0532875-.0991306.0723495-.1524162.0761604-.2095127.0305023-.4379978.0952263-.6513252.0266876-.0990372.0723495-.2171383.1294479-.3009262.0648155-.0875988.194355-.1561356.2323875-.2627983.0152512-.0532856.0038147-.1408863.0114403-.1980762.0114365-.0723495.0343132-.1257267.0533752-.1980762.0265961-.1142883.0380363-.1942635.1103859-.2933006.0495644-.0761604.1028481-.14851.1524162-.2247639.0685349-.1028519.1370697-.1980762.1828232-.312273.0532837-.1219139.118103-.2667046.118103-.4037762 0-.0723495-.0266914-.1523228.0076256-.220953.0494728-.1065693.1979828-.1561356.2780495-.2361088.1028481-.0990391.1865425-.1980762.29702-.2894878.1257286-.1028519.2209511-.2247658.3085518-.3543053-5.7477303 3.3938843-9.7815018 9.3854423-10.4862061 16.3597542z"/></g><path d="m76.0555725 47.3046112c-3.174057 7.9157639-10.9260712 13.5074615-19.9803276 13.5074615-11.8931084 0-21.5324631-9.6392593-21.5324631-21.5323677 0-4.8274345 1.5831718-9.2805443 4.2658997-12.8679562-1.0137787 2.4956131-1.5675583 5.2173729-1.5675583 8.0716991 0 11.8853493 9.6393547 21.5324135 21.5246582 21.5324135 7.0890465.0000001 13.3747978-3.4236678 17.2897911-8.7112502z" fill="#344d5b" opacity=".15"/><circle cx="55.306" cy="70.68" fill="#fcd462" r="3.93"/><path d="m58.9052086 72.2366714c-.5948639 1.3958206-1.9830055 2.3720932-3.6000938 2.3720932-2.1661453 0-3.9280167-1.7619171-3.9280167-3.9280624 0-1.0449448.4119072-1.9907761 1.0753899-2.692482-.1983185.4652634-.3050194.9839172-.3050194 1.5254745 0 2.1737823 1.7542381 3.9357452 3.9280167 3.9357452 1.1135673.0000001 2.1204299-.4653014 2.8297233-1.2127685z" fill="#f7be56"/><path d="m73.562515 69.516235h2.552297v19.540497h-2.552297z" fill="#ebf0f3"/><circle cx="74.839" cy="70.68" fill="#e56353" r="3.93"/><path d="m78.4376755 72.2366714c-.5948563 1.3958206-1.9830017 2.3720932-3.60009 2.3720932-2.1661453 0-3.9280167-1.7619171-3.9280167-3.9280624 0-1.0449448.411911-1.9907761 1.0753937-2.692482-.1983185.4652634-.3050232.9839172-.3050232 1.5254745 0 2.1737823 1.7542419 3.9357452 3.9280167 3.9357452 1.1135635.0000001 2.1204299-.4653014 2.8297195-1.2127685z" fill="#ce412d"/><circle cx="35.774" cy="70.68" fill="#44c4a1" r="3.93"/><path d="m39.3727341 72.2366714c-.5948639 1.3958206-1.9830017 2.3720932-3.60009 2.3720932-2.1661453 0-3.9280186-1.7619171-3.9280186-3.9280624 0-1.0449448.4119091-1.9907761 1.0753918-2.692482-.1983185.4652634-.3050194.9839172-.3050194 1.5254745 0 2.1737823 1.7542381 3.9357452 3.9280167 3.9357452 1.1135635.0000001 2.1204299-.4653014 2.8297195-1.2127685z" fill="#31978c"/><path d="m74.4383087 82.2969284-.5918579-.6936417c-.1985779-.2327271-.489151-.3667679-.7950897-.3667679h-3.9225388c-.57724 0-1.0451889.4679489-1.0451889 1.0451965v8.9240417c0 .57724.4679489 1.0451889 1.0451889 1.0451889h10.5249939c.5772476 0 1.0451965-.4679489 1.0451965-1.0451889v-7.4968719c0-.57724-.4679489-1.0451889-1.0451965-1.0451889h-4.4204178c-.3059311.0000001-.5965042-.1340407-.7950897-.3667678z" fill="#f7be56"/><path d="m79.6492996 84.2047653h-10.5160064c-.5797272 0-1.0496674.4699631-1.0496674 1.0496902v5.9512863c0 .5772476.4679413 1.0451889 1.0451889 1.0451889h10.5250015c.5772476 0 1.0451889-.4679413 1.0451889-1.0451889v-5.9512863c0-.5797271-.4699859-1.0496902-1.0497055-1.0496902z" fill="#fcd462"/><path d="m55.3531876 82.2969284-.5918617-.6936417c-.1985779-.2327271-.4891548-.3667679-.7950897-.3667679h-3.9225349c-.5772438 0-1.0451927.4679489-1.0451927 1.0451965v8.9240417c0 .57724.4679489 1.0451889 1.0451927 1.0451889h10.5249939c.5772438 0 1.0451927-.4679489 1.0451927-1.0451889v-7.4968719c0-.57724-.4679489-1.0451889-1.0451927-1.0451889h-4.4204216c-.305935.0000001-.5965082-.1340407-.795086-.3667678z" fill="#f7be56"/><path d="m60.5641747 84.2047653h-10.5160065c-.5797234 0-1.0496674.4699631-1.0496674 1.0496902v5.9512863c0 .5772476.4679451 1.0451889 1.0451927 1.0451889h10.5249939c.5772476 0 1.0451927-.4679413 1.0451927-1.0451889v-5.9512863c.0000001-.5797271-.4699821-1.0496902-1.0497054-1.0496902z" fill="#fcd462"/><path d="m35.655674 82.2969284-.5918617-.6936417c-.1985779-.2327271-.4891548-.3667679-.7950897-.3667679h-3.9225349c-.5772438 0-1.0451927.4679489-1.0451927 1.0451965v8.9240417c0 .57724.4679489 1.0451889 1.0451927 1.0451889h10.5249939c.5772438 0 1.0451927-.4679489 1.0451927-1.0451889v-7.4968719c0-.57724-.4679489-1.0451889-1.0451927-1.0451889h-4.4204216c-.3059312.0000001-.5965081-.1340407-.795086-.3667678z" fill="#f7be56"/><path d="m40.8666611 84.2047653h-10.5160065c-.5797234 0-1.0496655.4699631-1.0496655 1.0496902v5.9512863c0 .5772476.4679432 1.0451889 1.0451889 1.0451889h10.5249958c.5772476 0 1.0451927-.4679413 1.0451927-1.0451889v-5.9512863c.0000001-.5797271-.4699821-1.0496902-1.0497054-1.0496902z" fill="#fcd462"/></svg>