<svg enable-background="new 0 0 110 110" height="512" viewBox="0 0 110 110" width="512" xmlns="http://www.w3.org/2000/svg"><path d="m29.451431 68.290215h19.415079v8.324457h-19.415079z" fill="#64798a"/><path d="m12.8914528 63.6772041v3.9051857c0 1.1999435.9727049 2.1726456 2.1725607 2.1726456h48.1899147c1.199852 0 2.1725616-.972702 2.1725616-2.1726456v-3.9051857z" fill="#ebf0f3"/><path d="m65.4264908 64.2263718v-31.2798615c0-1.1998577-.9727097-2.1725616-2.1725616-2.1725616h-48.1899157c-1.1998558 0-2.1725607.9727039-2.1725607 2.1725616v31.2798615z" fill="#3a556a"/><path d="m27.979012 26.922255h22.360361v44.606552h-22.360361z" fill="#ebf0f3" transform="matrix(0 1 -1 0 88.385 10.066)"/><path d="m37.108448 13.902412h4.101486v44.606552h-4.101486z" fill="#e56353" transform="matrix(0 1 -1 0 75.365 -2.954)"/><path d="m21.851711 75.169853h34.614517v4.056196h-34.614517z" fill="#3a556a"/><path d="m39.1590576 65.4642639c-.7367744 0-1.3339996.5972214-1.3339996 1.3339081 0 .7366943.5972252 1.3339157 1.3339996 1.3339157.7366028 0 1.3338242-.5972214 1.3338242-1.3339157 0-.7366867-.5972214-1.3339081-1.3338242-1.3339081z" fill="#d5d6db"/><g fill="#ebf0f3"><circle cx="57.977" cy="36.206" r=".846"/><circle cx="54.631" cy="36.206" r=".846"/><circle cx="51.284" cy="36.206" r=".846"/></g><path d="m25.066689 41.421475h28.718348v3.882386h-28.718348z" fill="#d5d6db"/><path d="m25.066689 41.421475h5.48995v3.882386h-5.48995z" fill="#44c4a1"/><path d="m28.4500275 43.7182884c-.0100098-.0199585-.0400391-.0199585-.0599976 0l-.1000366.1000366-.0999756-.1099854c.3599854-.4299927.3400269-1.0700073-.0599976-1.4800415-.4299927-.4199829-1.1199951-.4199829-1.5499878 0-.4299927.4299927-.4299927 1.1199951 0 1.5500488.4099731.3999634 1.0499878.4199829 1.4799805.0599976l.1099854.1099854-.0999756.0999756c-.0200195.0100098-.0200195.0400391 0 .0499878l.8599854.8699951c.0200195.0100098.039978.0100098.0599976 0l.0300293-.0299683.2999878-.2999878c.0100098-.0100098.0100098-.0400391 0-.0599976zm-.4700318-.0899658c-.3499756.3399658-.9099731.3399658-1.25 0-.3399658-.3400269-.3399658-.9000244 0-1.25.3400269-.3400269.9000244-.3400269 1.25 0 .3400269.3499756.3400269.9099731 0 1.25z" fill="#fff"/><path d="m25.066689 48.935356h28.718348v1.449576h-28.718348z" fill="#d5d6db"/><path d="m25.066689 52.550732h14.092503v1.449576h-14.092503z" fill="#d5d6db"/><path d="m67.278885 31.252377h29.82966v47.880596h-29.82966z" fill="#2f4859"/><path d="m71.344307 31.252377h21.698814v47.880596h-21.698814z" fill="#3a556a"/><g fill="#2f4859"><path d="m72.91198 37.259605h18.563475v1.343962h-18.563475z"/><path d="m72.91198 42.635456h18.563475v1.343962h-18.563475z"/><path d="m72.91198 48.011303h18.563475v1.343962h-18.563475z"/></g><path d="m72.91198 37.259605h2.473984v1.343962h-2.473984z" fill="#3ea69b"/><path d="m72.91198 42.635456h2.473984v1.343962h-2.473984z" fill="#3ea69b"/><path d="m72.91198 48.011303h2.473984v1.343962h-2.473984z" fill="#3ea69b"/><path d="m82.193718 59.6821671c-1.7276611 0-3.1280746 1.400528-3.1280746 3.128067 0 1.7276611 1.4004135 3.1281891 3.1280746 3.1281891 1.7275391 0 3.128067-1.400528 3.128067-3.1281891 0-1.7275391-1.400528-3.128067-3.128067-3.128067z" fill="#e56353"/><path d="m82.193718 67.3565598c-.6680374 0-1.2095337.5415421-1.2095337 1.2095337 0 .6680374.5414963 1.2095795 1.2095337 1.2095795.6679916 0 1.2095337-.5415421 1.2095337-1.2095795-.0000001-.6679917-.5415421-1.2095337-1.2095337-1.2095337z" fill="#ebf0f3"/><path d="m82.193718 71.1938095c-.6680374 0-1.2095337.5415421-1.2095337 1.2095337 0 .6680374.5414963 1.2095795 1.2095337 1.2095795.6679916 0 1.2095337-.5415421 1.2095337-1.2095795-.0000001-.6679916-.5415421-1.2095337-1.2095337-1.2095337z" fill="#ebf0f3"/></svg>