<svg enable-background="new 0 0 110 110" height="512" viewBox="0 0 110 110" width="512" xmlns="http://www.w3.org/2000/svg"><g fill="#2f4859"><path d="m77.3336563 66.2298203h-1.9438858v-1.2959214h.6479645v-.6479645h1.2959213z"/><path d="m37.5921173 64.9310532v1.2999878h2.7000122v-1.2999878zm5.4000244 0v1.2999878h2.6999512v-1.2999878zm5.3999634 0v1.2999878h2.7000122v-1.2999878zm5.4000244 0v1.2999878h2.7000122v-1.2999878zm5.3999634 0v1.2999878h2.7000122v-1.2999878zm5.4000244 0v1.2999878h2.7000122v-1.2999878zm5.4000244 0v1.2999878h2.6999512v-1.2999878z"/><path d="m34.8909607 66.2298203h-1.943882v-1.9438859h1.2959213v.6479645h.6479607z"/><path d="m32.9420929 40.3610458v2.3999634h1.3000488v-2.3999634zm0 4.7899781v2.3900146h1.3000488v-2.3900146zm0 4.7800293v2.3999634h1.3000488v-2.3999634zm0 4.789978v2.3900146h1.3000488v-2.3900146zm0 4.7800293v2.3899536h1.3000488v-2.3899536z"/><path d="m34.243 37.9739227h-1.2959213v-1.943882h1.943882v1.2959214h-.6479607z"/><path d="m37.5921173 36.0310287v1.289978h2.7000122v-1.289978zm5.4000244 0v1.289978h2.6999512v-1.289978zm5.3999634 0v1.289978h2.7000122v-1.289978zm5.4000244 0v1.289978h2.7000122v-1.289978zm5.3999634 0v1.289978h2.7000122v-1.289978zm5.4000244 0v1.289978h2.7000122v-1.289978zm5.4000244 0v1.289978h2.6999512v-1.289978z"/><path d="m77.3336563 37.9739227h-1.2959213v-.6479606h-.6479645v-1.2959214h1.9438858z"/><path d="m76.0421295 40.3610458v2.3999634h1.289978v-2.3999634zm0 4.7899781v2.3900146h1.289978v-2.3900146zm0 4.7800293v2.3999634h1.289978v-2.3999634zm0 4.789978v2.3900146h1.289978v-2.3900146zm0 4.7800293v2.3899536h1.289978v-2.3899536z"/></g><path d="m93.2190247 41.6281853h-33.066494v-1.4116669l3.119976-3.6679649-3.119976-3.3818131v-1.4219284h33.066494v1.3178635l-6.0136795 3.4338493 6.0136795 3.6939888z" fill="#64798a"/><g fill="#ebf0f3"><path d="m93.2189941 41.4968605h-33.0664634v7.3971062h33.0664634l.0000306-.0000382v-7.3970337z"/><path d="m93.2189941 24.4620399h-33.0664634v7.3970681l.0000343.0000343h33.0664291l.0000306-.0000343v-7.3970337z"/><path d="m93.2189941 32.9794502h-33.0664634v7.397068l.0000343.0000344h33.0664291l.0000306-.0000344v-7.3970336z"/></g><path d="m29.815275 78.646294h15.174448v6.022848h-15.174448z" fill="#2f4859"/><path d="m24.453157 83.242455h25.898684v2.295508h-25.898684z" fill="#3a556a"/><path d="m55.6508484 49.8507538h-37.3148842c-.8588047 0-1.5549908.6961861-1.5549908 1.5549889v27.0057793c0 .8588028.6961861 1.5549927 1.5549908 1.5549927h37.3148842c.8588028 0 1.5549889-.6961899 1.5549889-1.5549927v-27.0057794c-.0000001-.8588028-.6961861-1.5549888-1.5549889-1.5549888z" fill="#3a556a"/><path d="m25.877989 46.260071h22.230827v34.940941h-22.230827z" fill="#27a2db" transform="matrix(0 1 -1 0 100.724 26.737)"/><path d="m51.730309 77.337128h2.38057v.726275h-2.38057z" fill="#e56353"/><path d="m48.236054 77.337128h2.38057v.726275h-2.38057z" fill="#fcd462"/><path d="m36.9921417 56.9610214c-1.5700073 0-2.9000244 1.0800171-3.2900391 2.5400391-.0700073.2699585-.1099854.5599976-.1099854.8599854v4.5800171h6.7999878v-4.5800171c.0000001-1.8699952-1.5200194-3.4000245-3.3999633-3.4000245zm2.1699829 6.75h-4.3300171v-3.3499756c0-1.1900024.9700317-2.1699829 2.1600342-2.1699829 1.1999512 0 2.1699829.9799805 2.1699829 2.1699829z" fill="#3a556a"/><path d="m40.7367668 62.6585236h-7.4867248c-.5133133 0-.9294395.4161224-.9294395.9294395v6.7897453c0 .5133133.4161263.9294434.9294395.9294434h7.4867554c.5133018 0 .9294128-.4161148.9294128-.9294128v-6.7897758c0-.5133172-.4161263-.9294396-.9294434-.9294396z" fill="#fcd462"/><path d="m40.2961617 66.9828339c0-1.8066483-1.4512215-3.2723122-3.2512474-3.3001404-.0173149-.0002556-.0340958-.002594-.0514908-.002594-1.8240738 0-3.3027649 1.4786911-3.3027649 3.3027344 0 1.8240509 1.4786911 3.302742 3.3027649 3.302742.017395 0 .0341759-.0023346.0514908-.002594 1.8000259-.0278244 3.2512474-1.4934922 3.2512474-3.300148z" fill="#f7be56"/><path d="m37.8931427 66.4820786c0-.4969025-.4028397-.8997192-.8997459-.8997192-.4969025 0-.8997154.4028168-.8997154.8997192 0 .3768158.2320862.6985474.5607338.8325272v1.0687027h.67799v-1.0687332c.3286246-.1339952.5607375-.4557115.5607375-.8324967z" fill="#2f4859"/></svg>