<svg enable-background="new 0 0 110 110" height="512" viewBox="0 0 110 110" width="512" xmlns="http://www.w3.org/2000/svg"><path d="m56.9385986 81.7774658v-16.7910156h-3.8771972v16.7910156h-23.1174927v3.8772583h23.1174927 3.8771972 23.1174927v-3.8772583z" fill="#3a556a"/><path d="m22.8925171 65.6012573v4.9310303c0 1.223877.9921875 2.2160645 2.2160645 2.2160645h59.7828369c1.223877 0 2.2160645-.9921875 2.2160645-2.2160645v-4.9310303z" fill="#3a556a"/><path d="m87.1074829 66.5087891v-39.9473877c0-1.223938-.9921875-2.2161255-2.2160645-2.2161255h-59.7828369c-1.223877 0-2.2160645.9921875-2.2160645 2.2161255v39.9473877z" fill="#ebf0f3"/><path d="m37.860931 17.658407h34.278137v55.886482h-34.278137z" fill="#27a2db" transform="matrix(0 1 -1 0 100.602 -9.398)"/><path d="m70.1899948 41.2303963-6.6576385-5.098217v3.2360458h-11.6927109v3.724308h11.6927109v3.2360458z" fill="#fcd462"/><path d="m39.8100052 48.8423347 6.6576424 5.0982171v-3.2360421h11.6927108v-3.7243118h-11.6927108v-3.236042z" fill="#3a556a"/></svg>