<svg enable-background="new 0 0 110 110" height="512" viewBox="0 0 110 110" width="512" xmlns="http://www.w3.org/2000/svg"><path d="m56.7176666 73.611969v-37.7802773h9.4628907v-2h-11.4628907v18.5019532h-24.8105468v2h24.8105468v21.2783241h20.303711v-2z" fill="#ebf0f3"/><path d="m99.4884644 28.9018707h-36.7045289c-.6184082 0-1.1196899.5013428-1.1196899 1.119751v10.7323608c0 .6184082.5012817 1.119751 1.1196899 1.119751h36.7045288c.6184082 0 1.1196899-.5013428 1.1196899-1.119751v-10.7323608c.0000001-.6184082-.5012816-1.119751-1.1196898-1.119751z" fill="#3a556a"/><g fill="#2f4859"><path d="m63.878487 31.496883h1.111698v1.111698h-1.111698z"/><path d="m64.990181 32.608582h1.111698v1.111698h-1.111698z"/><path d="m66.101883 31.496883h1.111698v1.111698h-1.111698z"/><path d="m67.213577 32.608582h1.111698v1.111698h-1.111698z"/><path d="m68.325279 31.496883h1.111698v1.111698h-1.111698z"/><path d="m69.436974 32.608582h1.111698v1.111698h-1.111698z"/><path d="m70.548676 31.496883h1.111698v1.111698h-1.111698z"/><path d="m71.66037 32.608582h1.111698v1.111698h-1.111698z"/><path d="m72.772064 31.496883h1.111698v1.111698h-1.111698z"/><path d="m73.883766 32.608582h1.111698v1.111698h-1.111698z"/><path d="m74.995461 31.496883h1.111698v1.111698h-1.111698z"/><path d="m76.107163 32.608582h1.111698v1.111698h-1.111698z"/><path d="m77.218857 31.496883h1.111698v1.111698h-1.111698z"/><path d="m63.878487 33.72028h1.111698v1.111698h-1.111698z"/><path d="m64.990181 34.831978h1.111698v1.111698h-1.111698z"/><path d="m66.101883 33.72028h1.111698v1.111698h-1.111698z"/><path d="m67.213577 34.831978h1.111698v1.111698h-1.111698z"/><path d="m68.325279 33.72028h1.111698v1.111698h-1.111698z"/><path d="m69.436974 34.831978h1.111698v1.111698h-1.111698z"/><path d="m70.548676 33.72028h1.111698v1.111698h-1.111698z"/><path d="m71.66037 34.831978h1.111698v1.111698h-1.111698z"/><path d="m72.772064 33.72028h1.111698v1.111698h-1.111698z"/><path d="m73.883766 34.831978h1.111698v1.111698h-1.111698z"/><path d="m74.995461 33.72028h1.111698v1.111698h-1.111698z"/><path d="m76.107163 34.831978h1.111698v1.111698h-1.111698z"/><path d="m77.218857 33.72028h1.111698v1.111698h-1.111698z"/><path d="m63.878487 35.943672h1.111698v1.111698h-1.111698z"/><path d="m64.990181 37.05537h1.111698v1.111698h-1.111698z"/><path d="m66.101883 35.943672h1.111698v1.111698h-1.111698z"/><path d="m67.213577 37.05537h1.111698v1.111698h-1.111698z"/><path d="m68.325279 35.943672h1.111698v1.111698h-1.111698z"/><path d="m69.436974 37.05537h1.111698v1.111698h-1.111698z"/><path d="m70.548676 35.943672h1.111698v1.111698h-1.111698z"/><path d="m71.66037 37.05537h1.111698v1.111698h-1.111698z"/><path d="m72.772064 35.943672h1.111698v1.111698h-1.111698z"/><path d="m73.883766 37.05537h1.111698v1.111698h-1.111698z"/><path d="m74.995461 35.943672h1.111698v1.111698h-1.111698z"/><path d="m76.107163 37.05537h1.111698v1.111698h-1.111698z"/><path d="m77.218857 35.943672h1.111698v1.111698h-1.111698z"/><path d="m63.878487 38.167069h1.111698v1.111698h-1.111698z"/><path d="m66.101883 38.167069h1.111698v1.111698h-1.111698z"/><path d="m68.325279 38.167069h1.111698v1.111698h-1.111698z"/><path d="m70.548676 38.167069h1.111698v1.111698h-1.111698z"/><path d="m72.772064 38.167069h1.111698v1.111698h-1.111698z"/><path d="m74.995461 38.167069h1.111698v1.111698h-1.111698z"/><path d="m77.218857 38.167069h1.111698v1.111698h-1.111698z"/><path d="m86.7580185 32.9388504c-1.3525391 0-2.4490356 1.0964355-2.4490356 2.4489746s1.0964966 2.4489746 2.4490356 2.4489746 2.4489746-1.0964355 2.4489746-2.4489746-1.0964355-2.4489746-2.4489746-2.4489746z"/><path d="m94.327652 32.9388504c-1.3525391 0-2.4490356 1.0964355-2.4490356 2.4489746s1.0964966 2.4489746 2.4490356 2.4489746 2.4489746-1.0964355 2.4489746-2.4489746-1.0964356-2.4489746-2.4489746-2.4489746z"/></g><path d="m99.4884644 68.1262665h-36.7045289c-.6184082 0-1.1196899.5013428-1.1196899 1.119751v10.7323608c0 .6184082.5012817 1.119751 1.1196899 1.119751h36.7045288c.6184082 0 1.1196899-.5013428 1.1196899-1.119751v-10.7323608c.0000001-.6184082-.5012816-1.119751-1.1196898-1.119751z" fill="#3a556a"/><path d="m63.878487 70.721275h1.111698v1.111698h-1.111698z" fill="#2f4859"/><path d="m64.990181 71.832977h1.111698v1.111698h-1.111698z" fill="#2f4859"/><path d="m66.101883 70.721275h1.111698v1.111698h-1.111698z" fill="#2f4859"/><path d="m67.213577 71.832977h1.111698v1.111698h-1.111698z" fill="#2f4859"/><path d="m68.325279 70.721275h1.111698v1.111698h-1.111698z" fill="#2f4859"/><path d="m69.436974 71.832977h1.111698v1.111698h-1.111698z" fill="#2f4859"/><path d="m70.548676 70.721275h1.111698v1.111698h-1.111698z" fill="#2f4859"/><path d="m71.66037 71.832977h1.111698v1.111698h-1.111698z" fill="#2f4859"/><path d="m72.772064 70.721275h1.111698v1.111698h-1.111698z" fill="#2f4859"/><path d="m73.883766 71.832977h1.111698v1.111698h-1.111698z" fill="#2f4859"/><path d="m74.995461 70.721275h1.111698v1.111698h-1.111698z" fill="#2f4859"/><path d="m76.107163 71.832977h1.111698v1.111698h-1.111698z" fill="#2f4859"/><path d="m77.218857 70.721275h1.111698v1.111698h-1.111698z" fill="#2f4859"/><path d="m63.878487 72.944672h1.111698v1.111698h-1.111698z" fill="#2f4859"/><path d="m64.990181 74.056374h1.111698v1.111698h-1.111698z" fill="#2f4859"/><path d="m66.101883 72.944672h1.111698v1.111698h-1.111698z" fill="#2f4859"/><path d="m67.213577 74.056374h1.111698v1.111698h-1.111698z" fill="#2f4859"/><path d="m68.325279 72.944672h1.111698v1.111698h-1.111698z" fill="#2f4859"/><path d="m69.436974 74.056374h1.111698v1.111698h-1.111698z" fill="#2f4859"/><path d="m70.548676 72.944672h1.111698v1.111698h-1.111698z" fill="#2f4859"/><path d="m71.66037 74.056374h1.111698v1.111698h-1.111698z" fill="#2f4859"/><path d="m72.772064 72.944672h1.111698v1.111698h-1.111698z" fill="#2f4859"/><path d="m73.883766 74.056374h1.111698v1.111698h-1.111698z" fill="#2f4859"/><path d="m74.995461 72.944672h1.111698v1.111698h-1.111698z" fill="#2f4859"/><path d="m76.107163 74.056374h1.111698v1.111698h-1.111698z" fill="#2f4859"/><path d="m77.218857 72.944672h1.111698v1.111698h-1.111698z" fill="#2f4859"/><path d="m63.878487 75.168068h1.111698v1.111698h-1.111698z" fill="#2f4859"/><path d="m64.990181 76.27977h1.111698v1.111698h-1.111698z" fill="#2f4859"/><path d="m66.101883 75.168068h1.111698v1.111698h-1.111698z" fill="#2f4859"/><path d="m67.213577 76.27977h1.111698v1.111698h-1.111698z" fill="#2f4859"/><path d="m68.325279 75.168068h1.111698v1.111698h-1.111698z" fill="#2f4859"/><path d="m69.436974 76.27977h1.111698v1.111698h-1.111698z" fill="#2f4859"/><path d="m70.548676 75.168068h1.111698v1.111698h-1.111698z" fill="#2f4859"/><path d="m71.66037 76.27977h1.111698v1.111698h-1.111698z" fill="#2f4859"/><path d="m72.772064 75.168068h1.111698v1.111698h-1.111698z" fill="#2f4859"/><path d="m73.883766 76.27977h1.111698v1.111698h-1.111698z" fill="#2f4859"/><path d="m74.995461 75.168068h1.111698v1.111698h-1.111698z" fill="#2f4859"/><path d="m76.107163 76.27977h1.111698v1.111698h-1.111698z" fill="#2f4859"/><path d="m77.218857 75.168068h1.111698v1.111698h-1.111698z" fill="#2f4859"/><path d="m63.878487 77.391464h1.111698v1.111698h-1.111698z" fill="#2f4859"/><path d="m66.101883 77.391464h1.111698v1.111698h-1.111698z" fill="#2f4859"/><path d="m68.325279 77.391464h1.111698v1.111698h-1.111698z" fill="#2f4859"/><path d="m70.548676 77.391464h1.111698v1.111698h-1.111698z" fill="#2f4859"/><path d="m72.772064 77.391464h1.111698v1.111698h-1.111698z" fill="#2f4859"/><path d="m74.995461 77.391464h1.111698v1.111698h-1.111698z" fill="#2f4859"/><path d="m77.218857 77.391464h1.111698v1.111698h-1.111698z" fill="#2f4859"/><path d="m86.7580185 72.1632462c-1.3525391 0-2.4490356 1.0964355-2.4490356 2.4489746s1.0964966 2.4489746 2.4490356 2.4489746 2.4489746-1.0964355 2.4489746-2.4489746-1.0964355-2.4489746-2.4489746-2.4489746z" fill="#2f4859"/><path d="m94.327652 72.1632462c-1.3525391 0-2.4490356 1.0964355-2.4490356 2.4489746s1.0964966 2.4489746 2.4490356 2.4489746 2.4489746-1.0964355 2.4489746-2.4489746-1.0964356-2.4489746-2.4489746-2.4489746z" fill="#2f4859"/><path d="m44.5199852 30.0955181h-34.033844c-.6043606 0-1.0942945.4899349-1.0942945 1.0943336v47.6203003c0 .6043549.489934 1.0943298 1.0942945 1.0943298h34.033844c.6044006 0 1.0943336-.489975 1.0943336-1.0943298v-47.6203002c0-.6043988-.489933-1.0943337-1.0943336-1.0943337z" fill="#3a556a"/><g fill="#2f4859"><path d="m12.80329 34.751808h1.991463v1.991463h-1.991463z"/><path d="m14.727273 36.675793h1.991463v1.991463h-1.991463z"/><path d="m16.718735 34.751808h1.991463v1.991463h-1.991463z"/><path d="m18.642719 36.675793h1.991463v1.991463h-1.991463z"/><path d="m20.634182 34.751808h1.991463v1.991463h-1.991463z"/><path d="m22.558165 36.675793h1.991463v1.991463h-1.991463z"/><path d="m24.549627 34.751808h1.991463v1.991463h-1.991463z"/><path d="m26.47361 36.675793h1.991463v1.991463h-1.991463z"/><path d="m28.465073 34.751808h1.991463v1.991463h-1.991463z"/><path d="m30.389055 36.675793h1.991463v1.991463h-1.991463z"/><path d="m32.380516 34.751808h1.991463v1.991463h-1.991463z"/><path d="m34.304501 36.675793h1.991463v1.991463h-1.991463z"/><path d="m36.295963 34.751808h1.991463v1.991463h-1.991463z"/><path d="m38.219948 36.675793h1.991463v1.991463h-1.991463z"/><path d="m40.211411 34.751808h1.991463v1.991463h-1.991463z"/><path d="m12.80329 38.667255h1.991463v1.991463h-1.991463z"/><path d="m14.727273 40.59124h1.991463v1.991463h-1.991463z"/><path d="m16.718735 38.667255h1.991463v1.991463h-1.991463z"/><path d="m18.642719 40.59124h1.991463v1.991463h-1.991463z"/><path d="m20.634182 38.667255h1.991463v1.991463h-1.991463z"/><path d="m22.558165 40.59124h1.991463v1.991463h-1.991463z"/><path d="m24.549627 38.667255h1.991463v1.991463h-1.991463z"/><path d="m26.47361 40.59124h1.991463v1.991463h-1.991463z"/><path d="m28.465073 38.667255h1.991463v1.991463h-1.991463z"/><path d="m30.389055 40.59124h1.991463v1.991463h-1.991463z"/><path d="m32.380516 38.667255h1.991463v1.991463h-1.991463z"/><path d="m34.304501 40.59124h1.991463v1.991463h-1.991463z"/><path d="m36.295963 38.667255h1.991463v1.991463h-1.991463z"/><path d="m38.219948 40.59124h1.991463v1.991463h-1.991463z"/><path d="m40.211411 38.667255h1.991463v1.991463h-1.991463z"/><path d="m12.80329 42.582703h1.991463v1.991463h-1.991463z"/><path d="m14.727273 44.506683h1.991463v1.991463h-1.991463z"/><path d="m16.718735 42.582703h1.991463v1.991463h-1.991463z"/><path d="m18.642719 44.506683h1.991463v1.991463h-1.991463z"/><path d="m20.634182 42.582703h1.991463v1.991463h-1.991463z"/><path d="m22.558165 44.506683h1.991463v1.991463h-1.991463z"/><path d="m24.549627 42.582703h1.991463v1.991463h-1.991463z"/><path d="m26.47361 44.506683h1.991463v1.991463h-1.991463z"/><path d="m28.465073 42.582703h1.991463v1.991463h-1.991463z"/><path d="m30.389055 44.506683h1.991463v1.991463h-1.991463z"/><path d="m32.380516 42.582703h1.991463v1.991463h-1.991463z"/><path d="m34.304501 44.506683h1.991463v1.991463h-1.991463z"/><path d="m36.295963 42.582703h1.991463v1.991463h-1.991463z"/><path d="m38.219948 44.506683h1.991463v1.991463h-1.991463z"/><path d="m40.211411 42.582703h1.991463v1.991463h-1.991463z"/><path d="m12.80329 46.498146h1.991463v1.991463h-1.991463z"/><path d="m14.727273 48.422131h1.991463v1.991463h-1.991463z"/><path d="m16.718735 46.498146h1.991463v1.991463h-1.991463z"/><path d="m18.642719 48.422131h1.991463v1.991463h-1.991463z"/><path d="m20.634182 46.498146h1.991463v1.991463h-1.991463z"/><path d="m22.558165 48.422131h1.991463v1.991463h-1.991463z"/><path d="m24.549627 46.498146h1.991463v1.991463h-1.991463z"/><path d="m26.47361 48.422131h1.991463v1.991463h-1.991463z"/><path d="m28.465073 46.498146h1.991463v1.991463h-1.991463z"/><path d="m30.389055 48.422131h1.991463v1.991463h-1.991463z"/><path d="m32.380516 46.498146h1.991463v1.991463h-1.991463z"/><path d="m34.304501 48.422131h1.991463v1.991463h-1.991463z"/><path d="m36.295963 46.498146h1.991463v1.991463h-1.991463z"/><path d="m38.219948 48.422131h1.991463v1.991463h-1.991463z"/><path d="m40.211411 46.498146h1.991463v1.991463h-1.991463z"/><path d="m12.80329 50.413593h1.991463v1.991463h-1.991463z"/><path d="m14.727273 52.337574h1.991463v1.991463h-1.991463z"/><path d="m16.718735 50.413593h1.991463v1.991463h-1.991463z"/><path d="m18.642719 52.337574h1.991463v1.991463h-1.991463z"/><path d="m20.634182 50.413593h1.991463v1.991463h-1.991463z"/><path d="m22.558165 52.337574h1.991463v1.991463h-1.991463z"/><path d="m24.549627 50.413593h1.991463v1.991463h-1.991463z"/><path d="m26.47361 52.337574h1.991463v1.991463h-1.991463z"/><path d="m28.465073 50.413593h1.991463v1.991463h-1.991463z"/><path d="m30.389055 52.337574h1.991463v1.991463h-1.991463z"/><path d="m32.380516 50.413593h1.991463v1.991463h-1.991463z"/><path d="m34.304501 52.337574h1.991463v1.991463h-1.991463z"/><path d="m36.295963 50.413593h1.991463v1.991463h-1.991463z"/><path d="m38.219948 52.337574h1.991463v1.991463h-1.991463z"/><path d="m40.211411 50.413593h1.991463v1.991463h-1.991463z"/><path d="m12.80329 54.329037h1.991463v1.991463h-1.991463z"/><path d="m14.727273 56.253021h1.991463v1.991463h-1.991463z"/><path d="m16.718735 54.329037h1.991463v1.991463h-1.991463z"/><path d="m18.642719 56.253021h1.991463v1.991463h-1.991463z"/><path d="m20.634182 54.329037h1.991463v1.991463h-1.991463z"/><path d="m22.558165 56.253021h1.991463v1.991463h-1.991463z"/><path d="m24.549627 54.329037h1.991463v1.991463h-1.991463z"/><path d="m26.47361 56.253021h1.991463v1.991463h-1.991463z"/><path d="m28.465073 54.329037h1.991463v1.991463h-1.991463z"/><path d="m30.389055 56.253021h1.991463v1.991463h-1.991463z"/><path d="m32.380516 54.329037h1.991463v1.991463h-1.991463z"/><path d="m34.304501 56.253021h1.991463v1.991463h-1.991463z"/><path d="m36.295963 54.329037h1.991463v1.991463h-1.991463z"/><path d="m38.219948 56.253021h1.991463v1.991463h-1.991463z"/><path d="m40.211411 54.329037h1.991463v1.991463h-1.991463z"/><path d="m12.80329 58.244484h1.991463v1.991463h-1.991463z"/><path d="m16.718735 58.244484h1.991463v1.991463h-1.991463z"/><path d="m20.634182 58.244484h1.991463v1.991463h-1.991463z"/><path d="m24.549627 58.244484h1.991463v1.991463h-1.991463z"/><path d="m28.465073 58.244484h1.991463v1.991463h-1.991463z"/><path d="m32.380516 58.244484h1.991463v1.991463h-1.991463z"/><path d="m36.295963 58.244484h1.991463v1.991463h-1.991463z"/><path d="m40.211411 58.244484h1.991463v1.991463h-1.991463z"/></g><ellipse cx="27.503" cy="66.4" fill="#d5d6db" rx="2.92" ry="2.92" transform="matrix(.383 -.924 .924 .383 -44.368 66.4)"/><circle cx="27.503" cy="72.5" fill="#d5d6db" r="1.284"/></svg>