<svg enable-background="new 0 0 110 110" height="512" viewBox="0 0 110 110" width="512" xmlns="http://www.w3.org/2000/svg"><path d="m56.6320229 80.5659256v-15.8205414h-3.264v15.8205414h-22.5855694v3.3152237h48.4350758v-3.3152237z" fill="#2f4859"/><path d="m34.466568 58.6695442v8.6926689c0 1.3154602 9.1931381 2.3818665 20.5334091 2.3818665 11.3403168 0 20.5334549-1.0664062 20.5334549-2.3818665v-8.6926689z" fill="#d5d6db"/><path d="m54.9999771 56.2876358c-11.340271 0-20.5334091 1.0664024-20.5334091 2.3819084 0 1.3154602 9.1931381 2.3818665 20.5334091 2.3818665 11.3403168 0 20.5334549-1.0664062 20.5334549-2.3818665 0-1.315506-9.1931381-2.3819084-20.5334549-2.3819084z" fill="#ebf0f3"/><path d="m54.9999809 49.007473c-9.0142288 0-16.3217278.8476715-16.3217278 1.8933487 0 1.045639 7.3074989 1.8933105 16.3217278 1.8933105 9.0142632 0 16.3217659-.8476715 16.3217659-1.8933105 0-1.0456772-7.3075027-1.8933487-16.3217659-1.8933487z" fill="#3ea69b"/><path d="m34.466568 48.6132812v8.6926727c0 1.3154602 9.1931381 2.3818665 20.5334091 2.3818665 11.3403168 0 20.5334549-1.0664062 20.5334549-2.3818665v-8.6926727z" fill="#d5d6db"/><path d="m54.9999771 46.2313728c-11.340271 0-20.5334091 1.0664062-20.5334091 2.3819084 0 1.3154602 9.1931381 2.3818665 20.5334091 2.3818665 11.3403168 0 20.5334549-1.0664062 20.5334549-2.3818665 0-1.3155021-9.1931381-2.3819084-20.5334549-2.3819084z" fill="#ebf0f3"/><path d="m34.466568 38.5570221v8.6926727c0 1.3154602 9.1931381 2.3818665 20.5334091 2.3818665 11.3403168 0 20.5334549-1.0664062 20.5334549-2.3818665v-8.6926727z" fill="#d5d6db"/><path d="m54.9999771 36.1751137c-11.340271 0-20.5334091 1.0664062-20.5334091 2.3819084 0 1.3154602 9.1931381 2.3818665 20.5334091 2.3818665 11.3403168 0 20.5334549-1.0664062 20.5334549-2.3818665 0-1.3155022-9.1931381-2.3819084-20.5334549-2.3819084z" fill="#ebf0f3"/><path d="m34.466568 28.500761v8.6926708c0 1.3154602 9.1931381 2.3818665 20.5334091 2.3818665 11.3403168 0 20.5334549-1.0664062 20.5334549-2.3818665v-8.6926708z" fill="#d5d6db"/><path d="m54.9999771 26.1188507c-11.340271 0-20.5334091 1.0664062-20.5334091 2.3819103 0 1.3154602 9.1931381 2.3818645 20.5334091 2.3818645 11.3403168 0 20.5334549-1.0664043 20.5334549-2.3818645 0-1.315504-9.1931381-2.3819103-20.5334549-2.3819103z" fill="#ebf0f3"/><path d="m92.0161362 42.305088h-12.3020325v-2.1438522h10.1581802v-7.8143883h2.1438523z" fill="#3a556a"/><path d="m92.0161362 55.1464806h-12.3020325v2.1438522h10.1581802v7.8143883h2.1438523z" fill="#3a556a"/><path d="m90.9842834 27.1920853c-2.4316101 0-4.4027557 1.9712219-4.4027557 4.4028301s1.9711456 4.4027615 4.4027557 4.4027615 4.402832-1.9711533 4.402832-4.4027615-1.9712218-4.4028301-4.402832-4.4028301z" fill="#fcd462"/><path d="m90.9842834 61.0514107c-2.4316101 0-4.4027557 1.9712219-4.4027557 4.4028282 0 2.4316101 1.9711456 4.4027634 4.4027557 4.4027634s4.402832-1.9711533 4.402832-4.4027634c.0000001-2.4316063-1.9712218-4.4028282-4.402832-4.4028282z" fill="#fcd462"/><path d="m17.9838619 42.305088h12.3020344v-2.1438522h-10.1581802v-7.8143883h-2.1438542z" fill="#3a556a"/><path d="m17.9838619 55.1464806h12.3020344v2.1438522h-10.1581802v7.8143883h-2.1438542z" fill="#3a556a"/><g fill="#fcd462"><path d="m19.0157146 27.1920853c2.4316101 0 4.4027615 1.9712219 4.4027615 4.4028301s-1.9711514 4.4027615-4.4027615 4.4027615-4.4028292-1.9711533-4.4028292-4.4027615 1.971221-4.4028301 4.4028292-4.4028301z"/><path d="m19.0157146 61.0514107c2.4316101 0 4.4027615 1.9712219 4.4027615 4.4028282 0 2.4316101-1.9711514 4.4027634-4.4027615 4.4027634s-4.4028292-1.9711533-4.4028292-4.4027634c.0000001-2.4316063 1.971221-4.4028282 4.4028292-4.4028282z"/></g></svg>