<svg enable-background="new 0 0 110 110" height="512" viewBox="0 0 110 110" width="512" xmlns="http://www.w3.org/2000/svg"><g fill="#d5d6db"><path d="m60.5269814 63.4467621h-1v-31.1357422h15.5302696v1h-14.5302696z"/><path d="m50.4732704 63.4467621h-1v-30.1357422h-14.5302734v-1h15.5302734z"/><path d="m64.2468567 86.9811554h-18.4937134l1.7159844-7.4734802h15.0617408z"/></g><path d="m76.5003586 80.8906174h-43.0007172c-.4968147 0-.899559-.4027481-.899559-.899559v-30.5590745c0-.4968147.4027443-.8995628.899559-.8995628h43.0007172c.4968109 0 .899559.4027481.899559.8995628v30.5590744c0 .496811-.4027481.8995591-.899559.8995591z" fill="#ebf0f3"/><path d="m43.106903 44.760048h23.786346v37.886631h-23.786346z" fill="#2d93ba" transform="matrix(0 1 -1 0 118.703 8.703)"/><path d="m41.701099 85.916794h26.597799v2.571611h-26.597799z" fill="#ebf0f3"/><path d="m54.9999619 76.8650513c-.6875763 0-1.2450562.5574417-1.2450562 1.2450943s.5574799 1.2450943 1.2450562 1.2450943c.6877327 0 1.2451324-.5574417 1.2451324-1.2450943s-.5573998-1.2450943-1.2451324-1.2450943z" fill="#d5d6db"/><path d="m17.5949078 24.9600811v14.0261822c0 .9251709.7501221 1.6751709 1.675293 1.6751709h18.0624981c.9251709 0 1.6751709-.75 1.6751709-1.6751709v-14.0261822z" fill="#ebf0f3"/><path d="m39.0078697 26.0928936v-2.9061279c0-.9251709-.75-1.6751709-1.6751709-1.6751709h-18.0624981c-.9251709 0-1.675293.75-1.675293 1.6751709v2.9061279z" fill="#44c4a1"/><path d="m36.0734215 23.1069317c-.4406738 0-.7978516.3571777-.7978516.7978516s.3571777.7979126.7978516.7979126.7978516-.3572388.7978516-.7979126-.3571778-.7978516-.7978516-.7978516z" fill="#ebf0f3"/><path d="m33.1210365 23.1069317c-.4406738 0-.7978516.3571777-.7978516.7978516s.3571777.7979126.7978516.7979126.7978516-.3572388.7978516-.7979126-.3571777-.7978516-.7978516-.7978516z" fill="#ebf0f3"/><path d="m30.1686478 23.1069317c-.4406738 0-.7978516.3571777-.7978516.7978516s.3571777.7979126.7978516.7979126.7978516-.3572388.7978516-.7979126-.3571778-.7978516-.7978516-.7978516z" fill="#ebf0f3"/><path d="m30.9072018 32.01157-3.3618641-2.3536949c-.5517921-.3864422-1.3102493.0083885-1.3102493.6820946v4.7074738c0 .6737061.7584572 1.068615 1.3102493.6821709l3.3618641-2.3536949c.4735469-.3315622.4735469-1.0328638 0-1.3643495z" fill="#e56353"/><path d="m70.9921265 24.9600811v14.0261822c0 .9251709.7501221 1.6751709 1.675293 1.6751709h18.0625c.9251709 0 1.6751709-.75 1.6751709-1.6751709v-14.0261822z" fill="#ebf0f3"/><path d="m92.4050903 26.0928936v-2.9061279c0-.9251709-.75-1.6751709-1.6751709-1.6751709h-18.0625c-.9251709 0-1.675293.75-1.675293 1.6751709v2.9061279z" fill="#e56353"/><path d="m89.4706421 23.1069317c-.4406738 0-.7978516.3571777-.7978516.7978516s.3571777.7979126.7978516.7979126.7978516-.3572388.7978516-.7979126-.3571778-.7978516-.7978516-.7978516z" fill="#ebf0f3"/><path d="m86.5182571 23.1069317c-.4406738 0-.7978516.3571777-.7978516.7978516s.3571777.7979126.7978516.7979126.7978516-.3572388.7978516-.7979126-.3571777-.7978516-.7978516-.7978516z" fill="#ebf0f3"/><path d="m83.5658722 23.1069317c-.4406738 0-.7978516.3571777-.7978516.7978516s.3571777.7979126.7978516.7979126.7978516-.3572388.7978516-.7979126-.3571778-.7978516-.7978516-.7978516z" fill="#ebf0f3"/><g fill="#d5d6db"><path d="m74.400833 28.640299h14.595553v.621827h-14.595553z"/><path d="m74.400833 30.844959h14.595553v.621827h-14.595553z"/><path d="m74.400833 33.049618h14.595553v.621827h-14.595553z"/><path d="m74.400833 35.25428h14.595553v.621827h-14.595553z"/></g></svg>