<svg enable-background="new 0 0 110 110" height="512" viewBox="0 0 110 110" width="512" xmlns="http://www.w3.org/2000/svg"><path d="m22.203642 35.385941h48.514488v22.578632h-48.514488z" fill="#4d5c7d"/><path d="m72.1629105 17.6212616h-51.404049c-1.0911655 0-1.9757614.8846455-1.9757614 1.9758625v14.4735394c0 1.091217.8845959 1.9758644 1.9757614 1.9758644h51.4040489c1.0911636 0 1.9757614-.8846474 1.9757614-1.9758644v-14.4735394c.0000001-1.091217-.8845977-1.9758625-1.9757613-1.9758625z" fill="#64798a"/><g fill="#4d5c7d"><path d="m22.211578 21.664446h16.09655v10.63121h-16.09655z"/><circle cx="43.983" cy="26.98" r="3.057"/><circle cx="52.68" cy="26.98" r="3.057"/><path d="m58.443588 23.922571h1.909877v6.114959h-1.909877z"/><path d="m63.053635 23.922571h1.909877v6.114959h-1.909877z"/><path d="m67.663681 23.922571h1.909877v6.114959h-1.909877z"/></g><path d="m72.1629105 37.4990273h-51.404049c-1.0911655 0-1.9757614.8846474-1.9757614 1.9758644v14.4735374c0 1.091217.8845959 1.9758644 1.9757614 1.9758644h51.4040489c1.0911636 0 1.9757614-.8846474 1.9757614-1.9758644v-14.4735374c.0000001-1.0912171-.8845977-1.9758644-1.9757613-1.9758644z" fill="#64798a"/><g fill="#4d5c7d"><path d="m22.211578 41.396057h16.09655v10.63121h-16.09655z"/><circle cx="43.983" cy="46.712" r="3.057"/><circle cx="52.68" cy="46.712" r="3.057"/><path d="m58.443588 43.654182h1.909877v6.114959h-1.909877z"/><path d="m63.053635 43.654182h1.909877v6.114959h-1.909877z"/><path d="m67.663681 43.654182h1.909877v6.114959h-1.909877z"/></g><path d="m72.1629105 57.2306366h-51.404049c-1.0911655 0-1.9757614.8846474-1.9757614 1.9758644v14.4735374c0 1.091217.8845959 1.9758682 1.9757614 1.9758682h51.4040489c1.0911636 0 1.9757614-.8846512 1.9757614-1.9758682v-14.4735374c.0000001-1.091217-.8845977-1.9758644-1.9757613-1.9758644z" fill="#64798a"/><path d="m22.211578 61.127667h16.09655v10.63121h-16.09655z" fill="#4d5c7d"/><circle cx="43.983" cy="66.443" fill="#4d5c7d" r="3.057"/><circle cx="52.68" cy="66.443" fill="#4d5c7d" r="3.057"/><path d="m58.443588 63.385792h1.909877v6.114959h-1.909877z" fill="#4d5c7d"/><path d="m63.053635 63.385792h1.909877v6.114959h-1.909877z" fill="#4d5c7d"/><path d="m67.663681 63.385792h1.909877v6.114959h-1.909877z" fill="#4d5c7d"/><path d="m89.2881165 58.4706955h-17.939354c-.4765854 0-.9361725-.1774406-1.2891922-.4976997l-2.1332245-1.9354515c-.3530197-.3202591-.8125305-.4976578-1.2891922-.4976578h-10.2657737c-1.0595894 0-1.9186058.8589783-1.9186058 1.918644v28.4997597c0 1.0596313.8590164 1.9186478 1.9186058 1.9186478h32.9167366c1.0596619 0 1.9186859-.8590164 1.9186859-1.9186478v-25.5689469c0-1.0596657-.8590241-1.9186478-1.9186859-1.9186478z" fill="#f7be56"/><path d="m86.885376 79.7265091h-28.1111832c-.7121696 0-1.2894974-.5773315-1.2894974-1.2894974v-14.4823265c0-.7121658.5773277-1.2894936 1.2894974-1.2894936h28.1111832c.7121735 0 1.2894974.5773277 1.2894974 1.2894936v14.4823265c0 .7121659-.577324 1.2894974-1.2894974 1.2894974z" fill="#ebf0f3"/><path d="m88.9917603 68.1743546h-32.324028c-1.2232895 0-2.2149582.9916763-2.2149582 2.215004v15.6698608c0 1.0596313.8590164 1.9186478 1.9186058 1.9186478h32.9167366c1.0596619 0 1.9186859-.8590164 1.9186859-1.9186859v-15.6698228c0-1.2233276-.9916764-2.2150039-2.2150421-2.2150039z" fill="#fcd462"/><path d="m82.8787994 39.2654533 1.6869889-1.6869888-1.9123917-1.9123917-4.8399658 4.8399697 4.7756958 4.7748184 1.9123916-1.9123917-1.3986358-1.3981971h5.4091949v9.6720199h2.7048188v-12.3768387z" fill="#ebf0f3"/><path d="m37.2458191 84.0406418-1.6869888 1.6869888-1.9123917-1.9123916 4.8399696-4.8399735 4.7748146 4.7756958-1.9123916 1.9123917-1.3981934-1.3986283v5.409195h9.6720162v2.7048187h-12.3768349z" fill="#ebf0f3"/></svg>