<svg enable-background="new 0 0 110 110" height="512" viewBox="0 0 110 110" width="512" xmlns="http://www.w3.org/2000/svg"><path d="m71.8978195 41.3307495c-.0136032-.0007133-.0268097.0006218-.040329.000042-.1712036-4.2511253-3.3836365-7.7807236-7.6046982-8.348671-.8248444-3.7027626-3.9895477-6.5618591-7.9351578-6.8505611-1.8312874-4.5710106-6.1810875-7.9042873-11.4213486-8.1639938-6.1169434-.3031998-11.4422722 3.6774254-13.1021309 9.3026981-.8342552-.3569069-1.7403297-.582756-2.6997108-.6303082-4.3379803-.2150097-8.0289669 3.127367-8.2439785 7.4653912-.0967083 1.9514618.5308781 3.7682953 1.6407223 5.2003403-2.3484249 1.476162-3.966486 4.0318794-4.1142273 7.012619-.2405243 4.8526688 3.4983273 8.9814796 8.3509922 9.2220078 1.2079353.0598602 42.9603958-.6396332 44.4935226-.5636673 3.7682037.1867752 6.97435-2.7165718 7.1611252-6.4847755.1867658-3.7682039-2.7165774-6.9743959-6.4847812-7.1611215z" fill="#d5d6db"/><path d="m84.0068893 44.7238083h-53.2827243c-1.6459465 0-2.9802513 1.3342514-2.9802513 2.9801483v35.4876099c0 1.6459961 1.3343048 2.9803543 2.9802513 2.9803543h53.2827225c1.6459427 0 2.9802475-1.3343582 2.9802475-2.9803543v-35.4876099c.0000018-1.6458969-1.334303-2.9801483-2.9802457-2.9801483z" fill="#ebf0f3"/><path d="m40.969372 40.643581h32.792667v49.60836h-32.792667z" fill="#27a2db" transform="matrix(0 1 -1 0 122.813 8.082)"/><path d="m23.0970306 86.1719208v2.3706589c0 1.9363327 1.5696831 3.506073 3.5060177 3.506073h61.5249577c1.9363327 0 3.5060196-1.5697403 3.5060196-3.506073v-2.3706589z" fill="#d5d6db"/><path d="m52.255615 86.171921h10.219824v1.882997h-10.219824z" fill="#e6e9ef"/><path d="m52.9807281 38.1105728h5.910225l-8.4359322-10.6607036-8.4359322 10.6607036h5.9101754v15.910698h-5.9101754l8.4359322 10.6607055 8.4359322-10.6607055h-5.910225z" fill="#e56353"/></svg>