<svg enable-background="new 0 0 110 110" height="512" viewBox="0 0 110 110" width="512" xmlns="http://www.w3.org/2000/svg"><path d="m20.1995182 71.7718735v2.54702c0 1.1953125.9690552 2.1643066 2.1644287 2.1643066h65.2720947c1.1953735 0 2.1644897-.9689941 2.1644897-2.1643066v-2.54702z" fill="#d5d6db"/><path d="m89.8005219 71.8718033v-42.9025879c0-1.1953125-.9691162-2.1645508-2.1644897-2.1645508h-65.2720986c-1.1953735 0-2.1644287.9692383-2.1644287 2.1645508v42.9025879z" fill="#3a556a"/><path d="m37.889484 19.273781h34.221771v59.53125h-34.221771z" fill="#27a2db" transform="matrix(0 1 -1 0 104.04 -5.961)"/><g fill="#ebf0f3"><path d="m15.4547148 76.3832855v2.9867859c0 2.1126099 1.2511587 3.825264 2.7945852 3.825264h73.5014038c1.5434265 0 2.7945862-1.7126541 2.7945862-3.825264v-2.9867859z"/><path d="m66.765274 41.2318573-2.5500488 2.5499878-2.7199745-.7299805-.7299805-2.7200317 2.5499878-2.5499878c-1.6000366-.4099731-3.3599854.0100098-4.6099854 1.2600098-1.4200439 1.4199829-1.7600098 3.5-1.0400391 5.25l-2.4899902 2.5-2.1300049 2.1300659-3.5700073 3.5599365c-1.6799927-.6700439-3.6699829-.3299561-5.0299683 1.0299072-1.8200073 1.8200684-1.8200073 4.7700195 0 6.5900879s4.7699585 1.8200684 6.5899658 0c1.3600464-1.3599854 1.710022-3.3499756 1.0300293-5.0300293l2.5599976-2.5500488 1.0100098-1.0100098.7099609-.7199707.7000122-.6999512.7200317-.7099609 1.0099487-1.0200195 1.4900513-1.4800415c1.7399902.7200317 3.8199501.3800049 5.239994-1.039978 1.2500002-1.25 1.6699831-3.0100098 1.2600099-4.6099854zm-17.1800575 17.4100342-2.5199585.6799316-1.8400269-1.8399658.6799927-2.5200195 2.5100098-.6700439 1.8400269 1.8400879z"/><path d="m47.659832 39.3509712-2.2926674-1.2656364-1.0270309 1.0270309 1.2656364 2.2926674 2.0598221 1.1370964 7.7914543 7.7914543 1.1320839-1.1320839-7.7940407-7.7940406z"/></g><path d="m52.814419 47.497227h3.013034v1.136344h-3.013034z" fill="#d15241" transform="matrix(.707 -.707 .707 .707 -18.077 52.489)"/><path d="m56.0848618 46.8449936-2.9843063 2.9843063c-.324501.324501-.3244743.8505554-.0000267 1.1749992l8.2460251 8.2460289c.549633.549633 1.4407349.549633 1.9903679 0l2.1689682-2.1689644c.5495987-.5496063.5496292-1.4407387 0-1.9903717l-8.2460289-8.2460251c-.3244439-.3244437-.850525-.3244437-1.1749993.0000268z" fill="#e56353"/><path d="m55.4536781 50.6147346c-.1969566.1969528-.19701.5161781-.0000877.7131042l5.9770699 5.977066c.1969223.1969261.5162048.1969261.7131577-.0000305.1969261-.1969261.1969261-.5162048 0-.713131l-5.977066-5.977066c-.1969263-.196926-.5161478-.1968688-.7130739.0000573z" fill="#d15241"/><path d="m56.8703232 49.1980896c-.1969528.1969528-.19701.5161781-.0000839.7131042l5.977066 5.977066c.1969261.1969261.5162048.1969261.7131577-.0000305.1969261-.1969261.1969261-.5162048 0-.713131l-5.977066-5.977066c-.1969262-.196926-.5161477-.1968688-.7130738.0000573z" fill="#d15241"/><path d="m49.750244 76.383286h10.499514v1.357875h-10.499514z" fill="#d5d6db"/></svg>