<svg enable-background="new 0 0 110 110" height="512" viewBox="0 0 110 110" width="512" xmlns="http://www.w3.org/2000/svg"><path d="m74.9245377 21.0894184h-36.9303589v67.2585201h51.4026184v-52.7862587z" fill="#e1e6e9"/><path d="m74.9245377 35.5616798h14.4722595l-14.4722595-14.4722614z" fill="#ebf0f3"/><g fill="#d5d6db"><path d="m45.725815 37.378342h9.476831v3.025045h-9.476831z"/><path d="m64.499275 37.378342h17.165892v3.025045h-17.165892z"/><path d="m56.740856 37.378342h6.342415v3.025045h-6.342415z"/><path d="m72.188339 44.121979h9.476831v3.025045h-9.476831z" transform="matrix(-1 0 0 -1 153.854 91.269)"/><path d="m45.725815 44.121979h17.165892v3.025045h-17.165892z" transform="matrix(-1 0 0 -1 108.618 91.269)"/><path d="m64.307709 44.121979h6.342415v3.025045h-6.342415z" transform="matrix(-1 0 0 -1 134.958 91.269)"/><path d="m45.725815 50.86562h5.872735v3.025045h-5.872735z"/><path d="m68.000542 50.86562h13.664626v3.025045h-13.664626z"/><path d="m52.866711 50.86562h13.949017v3.025045h-13.949017z"/><path d="m45.725815 57.609261h9.476831v3.025045h-9.476831z"/><path d="m64.499275 57.609261h17.165892v3.025045h-17.165892z"/><path d="m56.740856 57.609261h6.342415v3.025045h-6.342415z"/><path d="m72.188339 63.784172h9.476831v3.025045h-9.476831z" transform="matrix(-1 0 0 -1 153.854 130.593)"/><path d="m45.725815 63.784172h17.165892v3.025045h-17.165892z" transform="matrix(-1 0 0 -1 108.618 130.593)"/><path d="m64.307709 63.784172h6.342415v3.025045h-6.342415z" transform="matrix(-1 0 0 -1 134.958 130.593)"/><path d="m45.725815 70.527817h5.872735v3.025045h-5.872735z"/><path d="m68.000542 70.527817h13.664626v3.025045h-13.664626z"/><path d="m52.866711 70.527817h13.949017v3.025045h-13.949017z"/><path d="m45.725815 77.271454h9.476831v3.025045h-9.476831z"/><path d="m64.499275 77.271454h17.165892v3.025045h-17.165892z"/><path d="m56.740856 77.271454h6.342415v3.025045h-6.342415z"/></g><path d="m42.7302132 74.1866531v-15.8473053h-14.8060761v15.8473053h-7.3209381l14.7239761 14.7239304 14.7239228-14.7239304z" fill="#d15241"/></svg>