<svg enable-background="new 0 0 110 110" height="512" viewBox="0 0 110 110" width="512" xmlns="http://www.w3.org/2000/svg"><path d="m34.96685 41.315834h52.040398v24.267567h-52.040398z" fill="#2f4859"/><path d="m89.1037369 22.9185543h-56.2333832c-.9790859 0-1.7727737.7937908-1.7727737 1.7728786v15.6424065c0 .9790878.7936878 1.7728119 1.7727737 1.7728119h56.2333832c.9790878 0 1.7727814-.7937241 1.7727814-1.7728119v-15.6424064c-.0000001-.9790879-.7936936-1.7728787-1.7727814-1.7728787z" fill="#3a556a"/><g fill="#2f4859"><path d="m35.071613 25.941578h7.047775v1.060185h-7.047775z"/><path d="m35.071613 28.357958h7.047775v1.060185h-7.047775z"/><path d="m35.071613 30.774338h7.047775v1.060185h-7.047775z"/><path d="m35.071613 33.190716h7.047775v1.060185h-7.047775z"/><path d="m35.071613 35.607098h7.047775v1.060185h-7.047775z"/><path d="m35.071613 38.02348h7.047775v1.060185h-7.047775z"/><path d="m43.931671 25.941578h7.047775v1.060185h-7.047775z"/><path d="m43.931671 28.357958h7.047775v1.060185h-7.047775z"/><path d="m43.931671 30.774338h7.047775v1.060185h-7.047775z"/><path d="m43.931671 33.190716h7.047775v1.060185h-7.047775z"/><path d="m43.931671 35.607098h7.047775v1.060185h-7.047775z"/><path d="m43.931671 38.02348h7.047775v1.060185h-7.047775z"/><path d="m52.791733 25.941578h7.047775v1.060185h-7.047775z"/><path d="m52.791733 28.357958h7.047775v1.060185h-7.047775z"/><path d="m52.791733 30.774338h7.047775v1.060185h-7.047775z"/><path d="m52.791733 33.190716h7.047775v1.060185h-7.047775z"/><path d="m52.791733 35.607098h7.047775v1.060185h-7.047775z"/><path d="m52.791733 38.02348h7.047775v1.060185h-7.047775z"/><path d="m68.6423187 30.0828514c-1.3419113 0-2.4297333 1.0878906-2.4297333 2.4297676 0 1.3418808 1.087822 2.4297714 2.4297333 2.4297714s2.4297714-1.0878906 2.4297714-2.4297714c0-1.341877-1.0878601-2.4297676-2.4297714-2.4297676z"/><path d="m76.1276398 30.0828514c-1.3419113 0-2.4297333 1.0878906-2.4297333 2.4297676 0 1.3418808 1.087822 2.4297714 2.4297333 2.4297714s2.4297714-1.0878906 2.4297714-2.4297714c0-1.341877-1.0878601-2.4297676-2.4297714-2.4297676z"/><path d="m83.6129608 30.0828514c-1.3419113 0-2.4297333 1.0878906-2.4297333 2.4297676 0 1.3418808 1.087822 2.4297714 2.4297333 2.4297714 1.3419189 0 2.4297714-1.0878906 2.4297714-2.4297714 0-1.341877-1.0878524-2.4297676-2.4297714-2.4297676z"/></g><path d="m89.1037369 43.8833008h-56.2333832c-.9790859 0-1.7727737.7937927-1.7727737 1.7728767v15.6424103c0 .9790878.7936878 1.7728081 1.7727737 1.7728081h56.2333832c.9790878 0 1.7727814-.7937202 1.7727814-1.7728081v-15.6424103c-.0000001-.979084-.7936936-1.7728767-1.7727814-1.7728767z" fill="#3a556a"/><g fill="#2f4859"><path d="m35.071613 46.906323h7.047775v1.060185h-7.047775z"/><path d="m35.071613 49.322704h7.047775v1.060185h-7.047775z"/><path d="m35.071613 51.739082h7.047775v1.060185h-7.047775z"/><path d="m35.071613 54.155464h7.047775v1.060185h-7.047775z"/><path d="m35.071613 56.571842h7.047775v1.060185h-7.047775z"/><path d="m35.071613 58.988224h7.047775v1.060185h-7.047775z"/><path d="m43.931671 46.906323h7.047775v1.060185h-7.047775z"/><path d="m43.931671 49.322704h7.047775v1.060185h-7.047775z"/><path d="m43.931671 51.739082h7.047775v1.060185h-7.047775z"/><path d="m43.931671 54.155464h7.047775v1.060185h-7.047775z"/><path d="m43.931671 56.571842h7.047775v1.060185h-7.047775z"/><path d="m43.931671 58.988224h7.047775v1.060185h-7.047775z"/><path d="m52.791733 46.906323h7.047775v1.060185h-7.047775z"/><path d="m52.791733 49.322704h7.047775v1.060185h-7.047775z"/><path d="m52.791733 51.739082h7.047775v1.060185h-7.047775z"/><path d="m52.791733 54.155464h7.047775v1.060185h-7.047775z"/><path d="m52.791733 56.571842h7.047775v1.060185h-7.047775z"/><path d="m52.791733 58.988224h7.047775v1.060185h-7.047775z"/><path d="m68.6423187 51.047596c-1.3419113 0-2.4297333 1.0878906-2.4297333 2.4297714 0 1.341877 1.087822 2.4297676 2.4297333 2.4297676s2.4297714-1.0878906 2.4297714-2.4297676c0-1.3418808-1.0878601-2.4297714-2.4297714-2.4297714z"/><path d="m76.1276398 51.047596c-1.3419113 0-2.4297333 1.0878906-2.4297333 2.4297714 0 1.341877 1.087822 2.4297676 2.4297333 2.4297676s2.4297714-1.0878906 2.4297714-2.4297676c0-1.3418808-1.0878601-2.4297714-2.4297714-2.4297714z"/><path d="m83.6129608 51.047596c-1.3419113 0-2.4297333 1.0878906-2.4297333 2.4297714 0 1.341877 1.087822 2.4297676 2.4297333 2.4297676 1.3419189 0 2.4297714-1.0878906 2.4297714-2.4297676 0-1.3418808-1.0878524-2.4297714-2.4297714-2.4297714z"/></g><path d="m89.1037369 64.8480453h-56.2333832c-.9790859 0-1.7727737.7937927-1.7727737 1.7728806v15.6424103c0 .9790802.7936878 1.7728043 1.7727737 1.7728043h56.2333832c.9790878 0 1.7727814-.7937241 1.7727814-1.7728043v-15.6424103c-.0000001-.9790878-.7936936-1.7728806-1.7727814-1.7728806z" fill="#3a556a"/><path d="m35.071613 67.871071h7.047775v1.060185h-7.047775z" fill="#2f4859"/><path d="m35.071613 70.287445h7.047775v1.060185h-7.047775z" fill="#2f4859"/><path d="m35.071613 72.703827h7.047775v1.060185h-7.047775z" fill="#2f4859"/><path d="m35.071613 75.120209h7.047775v1.060185h-7.047775z" fill="#2f4859"/><path d="m35.071613 77.536591h7.047775v1.060185h-7.047775z" fill="#2f4859"/><path d="m35.071613 79.952972h7.047775v1.060185h-7.047775z" fill="#2f4859"/><path d="m43.931671 67.871071h7.047775v1.060185h-7.047775z" fill="#2f4859"/><path d="m43.931671 70.287445h7.047775v1.060185h-7.047775z" fill="#2f4859"/><path d="m43.931671 72.703827h7.047775v1.060185h-7.047775z" fill="#2f4859"/><path d="m43.931671 75.120209h7.047775v1.060185h-7.047775z" fill="#2f4859"/><path d="m43.931671 77.536591h7.047775v1.060185h-7.047775z" fill="#2f4859"/><path d="m43.931671 79.952972h7.047775v1.060185h-7.047775z" fill="#2f4859"/><path d="m52.791733 67.871071h7.047775v1.060185h-7.047775z" fill="#2f4859"/><path d="m52.791733 70.287445h7.047775v1.060185h-7.047775z" fill="#2f4859"/><path d="m52.791733 72.703827h7.047775v1.060185h-7.047775z" fill="#2f4859"/><path d="m52.791733 75.120209h7.047775v1.060185h-7.047775z" fill="#2f4859"/><path d="m52.791733 77.536591h7.047775v1.060185h-7.047775z" fill="#2f4859"/><path d="m52.791733 79.952972h7.047775v1.060185h-7.047775z" fill="#2f4859"/><path d="m68.6423187 72.0123444c-1.3419113 0-2.4297333 1.0878906-2.4297333 2.4297638 0 1.3418808 1.087822 2.4297714 2.4297333 2.4297714s2.4297714-1.0878906 2.4297714-2.4297714c0-1.3418732-1.0878601-2.4297638-2.4297714-2.4297638z" fill="#2f4859"/><path d="m76.1276398 72.0123444c-1.3419113 0-2.4297333 1.0878906-2.4297333 2.4297638 0 1.3418808 1.087822 2.4297714 2.4297333 2.4297714s2.4297714-1.0878906 2.4297714-2.4297714c0-1.3418732-1.0878601-2.4297638-2.4297714-2.4297638z" fill="#2f4859"/><path d="m83.6129608 72.0123444c-1.3419113 0-2.4297333 1.0878906-2.4297333 2.4297638 0 1.3418808 1.087822 2.4297714 2.4297333 2.4297714 1.3419189 0 2.4297714-1.0878906 2.4297714-2.4297714 0-1.3418732-1.0878524-2.4297638-2.4297714-2.4297638z" fill="#2f4859"/><path d="m61.6525421 81.78508-18.0432815-29.348526c-1.3570023-2.2073212-4.5651321-2.2073212-5.9221344 0l-18.0433274 29.348526c-1.4238014 2.3158798.2424603 5.2963638 2.9611111 5.2963638h36.0865173c2.7186528 0 4.3849163-2.980484 2.9611149-5.2963638z" fill="#ebf0f3"/><path d="m22.6047764 84.1827087c-.2243671 0-.393528-.0990906-.5032349-.2951508-.1097069-.1960526-.1054611-.3928223.0120316-.5839233l18.0428829-29.3490562c.1394348-.2264938.3446922-.2739143.4919128-.2739143.1465111 0 .3517685.0474205.4912033.2739143l18.0435944 29.3483467c.1174889.1911087.1210289.3878708.011322.5846329-.1097069.1960602-.2788658.2951508-.5032349.2951508h-36.0864772z" fill="#fcd462"/><path d="m39.336613 61.486847h2.623138v14.528149h-2.623138z" fill="#3a556a"/><path d="m39.336613 78.155289h2.623138v2.623138h-2.623138z" fill="#3a556a"/></svg>