<svg enable-background="new 0 0 110 110" height="512" viewBox="0 0 110 110" width="512" xmlns="http://www.w3.org/2000/svg"><path d="m80.1305466 22.4681664h-50.2610951c-4.0875835 0-7.4013309 3.3136559-7.4013309 7.4012394v50.2611847c0 4.0877686 3.3137474 7.4012451 7.4013309 7.4012451h50.2610931c4.087677 0 7.4013367-3.3134766 7.4013367-7.4012451v-50.2611848c.0000019-4.0875835-3.3136577-7.4012393-7.4013347-7.4012393z" fill="#ebf0f3"/><path d="m33.450562 33.450562h43.098877v43.098877h-43.098877z" fill="#e1e6e9"/><path d="m80.6292496 26.6593342c-1.5588989 0-2.8226471 1.2636757-2.8226471 2.8225727 0 1.5588951 1.2637482 2.8227119 2.8226471 2.8227119 1.5588913 0 2.8226013-1.2638168 2.8226013-2.8227119 0-1.558897-1.26371-2.8225727-2.8226013-2.8225727z" fill="#d5d6db"/><path d="m82.206398 29.1075974h-1.2028122v-1.2028485h-.7487182v1.2028485h-1.2028046v.7487564h1.2028046v1.2028484h.7487182v-1.2028484h1.2028122z" fill="#bebebf"/><path d="m29.1470299 26.6593342c-1.5588951 0-2.8226414 1.2636757-2.8226414 2.8225727 0 1.5588951 1.2637463 2.8227119 2.8226414 2.8227119s2.822607-1.2638168 2.822607-2.8227119c0-1.558897-1.2637119-2.8225727-2.822607-2.8225727z" fill="#d5d6db"/><path d="m30.7241802 29.1075974h-1.2028084v-1.2028485h-.7487182v1.2028485h-1.2028084v.7487564h1.2028084v1.2028484h.7487182v-1.2028484h1.2028084z" fill="#bebebf"/><path d="m80.6292496 77.6953812c-1.5588989 0-2.8226471 1.2636795-2.8226471 2.8225708 0 1.5588989 1.2637482 2.8227158 2.8226471 2.8227158 1.5588913 0 2.8226013-1.2638168 2.8226013-2.8227158 0-1.5588913-1.26371-2.8225708-2.8226013-2.8225708z" fill="#d5d6db"/><path d="m82.206398 80.1436462h-1.2028122v-1.2028503h-.7487182v1.2028503h-1.2028046v.7487564h1.2028046v1.2028504h.7487182v-1.2028504h1.2028122z" fill="#bebebf"/><path d="m29.1470299 77.6953812c-1.5588951 0-2.8226414 1.2636795-2.8226414 2.8225708 0 1.5588989 1.2637463 2.8227158 2.8226414 2.8227158s2.822607-1.2638168 2.822607-2.8227158c0-1.5588913-1.2637119-2.8225708-2.822607-2.8225708z" fill="#d5d6db"/><path d="m30.7241802 80.1436462h-1.2028084v-1.2028503h-.7487182v1.2028503h-1.2028084v.7487564h1.2028084v1.2028504h.7487182v-1.2028504h1.2028084z" fill="#bebebf"/><path d="m71.9893112 38.5327606h-33.9786262v23.9562226h4.8401374v4.6643371h3.165741v4.3139191h17.9669457v-4.3139191h3.1656685v-4.6643371h4.8401336z" fill="#3a556a"/><path d="m49.6528816 67.8307724v-4.3139191h-3.1655922v-4.6643371h-4.8395462v-16.6826973h26.705101v16.6826973h-4.8407249v4.6643371h-3.1655922v4.3139191z" fill="#474c5b"/><g fill="#fcd462"><path d="m43.498074 42.989636h3.394011v3.931781h-3.394011z"/><path d="m48.400536 42.989636h3.394011v3.931781h-3.394011z"/><path d="m53.302994 42.989636h3.394011v3.931781h-3.394011z"/><path d="m58.205456 42.989636h3.394011v3.931781h-3.394011z"/><path d="m63.107914 42.989636h3.394011v3.931781h-3.394011z"/></g></svg>