<svg enable-background="new 0 0 110 110" height="512" viewBox="0 0 110 110" width="512" xmlns="http://www.w3.org/2000/svg"><path d="m83.8289261 76.8908539c-.6648636-1.2065506-.5397568-2.7475433-.1705704-3.9867477.9623032-3.2304764 3.522438-5.6904068 4.6891708-9.0068932-.6780853-8.6469002-1.8523865-17.4155998-.7899704-26.0517769.0675507-.549511.2805252-.9980965.5744247-1.3581772-6.1963958-11.9944172-18.7034835-20.1994991-33.1348685-20.1994991-20.59021 0-37.2818604 16.6917324-37.2818604 37.2820206s16.6916504 37.2820244 37.2818604 37.2820244c11.6824608 0 22.1054955-5.3769302 28.9412804-13.7868347-.0359574-.0597287-.0746461-.1110822-.1094666-.1741162z" fill="#ebf0f3"/><path d="m92.2847443 53.5667915c0 9.6233864-3.6501999 18.3987312-9.6356049 24.9986534-.036911 0-.0738144-.0122986-.123024-.0122986-.2826538-.0123062-.5407104.2704239-.6512756.4793396-.0982742.1966171-.1351776.4056015-.2335968.5899124-1.2044373 1.2536469-2.5072861 2.4212418-3.8959503 3.4782028-.0984192-.0123062-.208992-.0123062-.3195648-.0246048-.4425888-.0368347-.5162506.2212143-.7129364.5530777-.2334442.3686981-.6145172.7251663-1.0323486.897171-.4793472.1966934-1.02005.2827301-1.5239944.3810043-.3195648.0615082-.4547424.0860367-.5653152.4179001-.0736618.1966171-.1105652.4301376-.13517.6391296-.6022186.3440857-1.2044373.6759491-1.8312531.9832077.0246048-.8849411.602211-1.6100311.639122-2.5072784.0122986-.1966171-.036911-.4178314.0122986-.6145172.0490646-.2335205.1842346-.2826614.2703552-.4792709.0982666-.2458191.2334442-.762001.0246048-.9586868-.2826538-.258049-.6637268-.258049-.7498474-.72509-.0246048-.1352463 0-.2458191.0123062-.3933029.0246048-.4302063.0369034-.9340744-.122879-1.3396835-.13517-.3440857-.5408554-.5284729-.897171-.5038681-.3441696.0122986-.6514282.2335205-.983139.1105728-.1722336-.0614395-.2582016-.258049-.4302826-.3195648-.1597824-.0491333-.2703552-.0245285-.4301376-.0245285-.43013.0122986-.8727112.0368347-1.3026962.0122986-.3318634-.0122986-.6268234-.1474762-.934082-.2581253-.4671936-.1474762-.5777588-.3686905-.8235092-.7128601-.1966858-.2826538-.4424362-.4793396-.6268234-.7619934-.0613632-.0860443-.1597748-.1720886-.2212906-.258049-.0982666-.1597824-.0982666-.331871-.171936-.4793472-.1476288-.2704239-.4917908-.3686981-.5899124-.6759567-.086113-.2581253-.0369034-.6145172 0-.8726425.0244598-.2335205.2088394-.5899124.0981216-.7989044-.1227264-.2335205-.5037994-.1597824-.7004852-.1597824-.4301338.0246048-.5899162.1352539-.8358116.503952-.171936.258049-.29496.4547348-.3072624.7619934-.0123024.2212219-.049057.5407791.0123024.7496948.0738144.3072586.4302864.3809967.5777626.6514282.1720848.3195648.0736656.7127838.2212944 1.0323486.135025.2827301.135025.4547348.1596298.762001.0861168.6145172.6637306.7374649 1.1798286.7251587.209137-.0122986.7867508-.1106415.9463806.0983429.159935.2089157.036911.7988358.036911 1.0323563 0 .2089157.0369034.4424286-.0123062.639122-.0736618.3072586-.3195572.5038681-.5284042.7128601-.3564682.3563919-.5899124.553009-1.0694046.7742233-.3317108.1597824-.6758804.3933029-1.0444984.4179077-.3810768.0123062-.7129402.1351776-1.0940132.1966095-.4176788.0615158-.87257.0615158-1.2903976.1597824-.2703552.0737381-.4916458.2458267-.7742996.2704315-.1720848.0246048-.3318672.0122986-.5037994.0122986-.3687706-.0122986-.9463806.0737381-1.3274574-.0122986-.1843834-.0491333-.3687706-.2212219-.5407028-.29496-.1966896-.0860443-.3933754-.1352539-.6022148-.1474762-.4056778-.0123062-.8604164-.036911-1.253643.0860367-.4056778.122879-1.0201988.3317947-1.425724.085968-.1966896-.1105728-.1597824-.1351776-.2582016-.3194809-.085968-.1352539-.2088394-.2212982-.319561-.3441696-.1227226-.1106491-.4053802-.3440933-.4176826-.5161743-.0123024-.1106491.110424-.2212219.1596336-.29496.1966858-.2950287.4179802-.5776825.6022148-.8849411.2949562-.467041.6022148-.7866058.6883316-1.3519135.061512-.3686981 0-.6637268-.0861168-1.0078201-.1719322-.6514282-.110569-1.3027802-.110569-1.966507 0-.3809967-.085968-.8357315.0736618-1.1798248.0984192-.2212219.2828064-.3686981.3318672-.6145172.1107216-.4793472.0246048-1.0938644.0246048-1.5855103 0-.3932266.1843834-1.2412643-.2703552-1.3887405-.6883316-.2458267-1.0569534.3932266-1.0200462.9832153.024456.467041-.2089882.8111267-.233593 1.2658691-.0123024.3564682.0861168.7496948-.0369072 1.0938568-.1350288.3441696-.4791946.4916458-.6512756.7866058-.14748.2826538-.0492096.7005615-.0492096 1.0078201.0123024.4055252-.0367584.6759567-.1966896 1.0446472-.1473274.3441696-.3932266.6391296-.4668884 1.0201263-.1353264.6145172.0123024 1.1798248.0123024 1.8189468.0244522.5776901-.0492096 1.2413406-.4302864 1.6960831-.2211418.2703476-.319561.3318634.0123024.5530777.4916458.29496.9832916.5653152 1.5239944.7742996.3687744.1351776.7742996.258049 1.1184692.4547424.319561.1966095.6022148.1597824.9708366.2458191.442585.1105728.8850212.258049 1.315155.3932266.1843834.0615158.7129364.036911.7742996.208992-.3318672.4424362-.614521.5284729-1.1307716.5653076-.4914932.0492096-.8725662.1352539-1.3273048.3195648-.3441658.1474762-.6145172.3318634-.9094772.5653839-.4055252.3440857-.72509.5038681-1.278244.5038681-.528553 0-.9831429-.0368271-1.4993896.1352539-.6268234.2212143-1.1799812.4915695-1.8681641.5284729-.897171.0245361-1.8435555-.172081-2.7161217.0245361-.7989044.172081-1.5362968.1597748-2.3475037.1597748-.2088432 0-.4056778.0123062-.614521 0-.5284004 0-1.2044334-.1474762-1.6960754.1229553-.0736656.0368271-.14748.0860367-.208992.13517-6.3417244-2.4089355-11.8477879-6.5138779-15.9774857-11.7618942.2458973-.172081.5039463-.3686981.6514263-.6268234.1107197-.1966095.0984173-.3195572.1597805-.5407791.0982685-.3686981.2828045-.5776062.2705021-.9832153-.0123024-.3563919-.1476288-.6636505-.2089901-1.0078201-.0492096-.3195572-.0736656-1.069252.2212925-1.2904739.1842346-.1474762.6145191-.0860367.8356609-.1351776.2334461-.0614319.467041-.1966858.6760311-.3195572.5530071-.3318634.5284023-.6636505.319561-1.2167358-.1107216-.2827301-.123024-.5653839-.1968384-.8480377-.0981178-.3564682-.3440151-.6145172-.5407028-.9094772-.2949581-.4425125-.3441677-.8972473-.4914951-1.401123-.0492096-.1966858-.1107216-.5039444-.2705021-.6637268-.0736656-.0737381-.1966896-.1228714-.2826557-.1966095-.2949562-.2581253-.3809242-.6882629-.5654583-1.0324249-.1842365-.3563919-.3686218-.7004852-.6389732-.9955215-.3809242-.3932266-.7373924-.7865257-1.0938625-1.216732-.2211418-.2703514-.5160999-.467041-.7252388-.72509-.1842365-.2335205-.2334461-.5162506-.3930759-.7374687-.184536-.2457466-.3564701-.3563919-.4794941-.6759529-.258049-.6759567-.7373924-1.4133492-.8110561-2.1631203-.0738144-.7005615-.0123024-1.4625587 0-2.1631165.0123024-.4301338.0492096-.8971748.1473293-1.3273087.0615101-.2827263.1722317-.5776863.319561-.8235092.0369072-.0491333.1968384-.2826538.2091408-.3686943.0490589-.2826538-.0738144-.5899124.0121517-.8971748.0859661-.2335205.2581997-.3563919.4301338-.5284767.2703514-.2827301.639122-.5899887.8725681-.9094734.2091408-.2827301.2458973-.6268234.3933754-.934082.1966877-.3564682.5284023-.5039482.8725681-.6882591.2826557-.172081.4794941-.2335205.7990551-.2089882.4791927.0369072.7864513-.1843109 1.1552238-.4915695.2334442-.1966896.4178295-.3933029.5653095-.6268234.0861149-.1351738.1351757-.3318634.2457466-.4547386.2335949-.2826538.6145191-.5776863.9955921-.6022148.3441658-.0123024.6760311.0123024 1.0201969-.0369072.2826557-.0368309.5530071-.1105728.8356609-.14748.4056797-.0491333.8233604 0 1.2413406-.0123024.3933754 0 .72509-.0491333 1.1060143.0737419.9709854.3687706 1.7454376 1.0201225 2.7653351 1.253643.5408516.1228714 1.1063118.0614357 1.6470184.1597786.2457466.0369072.43013.0369072.6760292-.0246048.3686218-.110569.7372437-.2826538 1.1060143-.0614357.1599312.0860405.2826538.2581253.4302826.3563919.1719322.1106491.3563194.1597824.516098.2704277.2580528.1720848.4916458.4424362.6883354.7005615.2826538.3932991.5899124.7619972.8848686 1.1306915.1720848.2458229.2949562.5899162.5037994.8112068.2212906.2335205.6145172.2580528.8727188.4669685.2949562.2458191.344017.6760292.7619972.7742996.2703514.0737381.5037956.0860405.7742996.2089882.2458954.0860405.5654564.1105728.72509.3317909.2949562.4056015.3072586.9340782.700634 1.3027763.5407028.491642 1.3027 1.1430702 1.1183167 1.9665031-.1596298.6759567-.72509 1.2290382-.9094772 1.8926926-.0859642.2704277-.110569.5039444-.0492096.7619972.0492096.1597786.1476288.2949562.184536.4670372.0367584.2581253-.0246048.5407829.0490608.7989044.0736618.2335205.2458954.467041.3686218.6882591.2091408.3686981.381073.7496948.5777588 1.1183929.2212944.4179039.5654602.7251625 1.0446548.8357353.3441658.0737381.5530052-.1966133.9094734-.0737381.2212944.0737381.5899162.2704239.6883354.5162506.061512.1966095.0123024.8480377.0369072.9463043.049057.3441696.1227226.7989044.2949562 1.106163.258049.4547424.72509.7005615 1.192131.8971786.3564682.1474762.7864494.2335129 1.093708.4916382.3318672.2826614.3933792.6513519.5654602 1.0201263.2212944.4547348.7373924.553009 1.1307678.8234329.2826576.2089157.4791946.4424362.8602676.5038757.5039482.0614319 1.1675262.0983429 1.6837769.0246048.3564682-.0491409.6758804-.2826614 1.0323486-.3441696.381073-.085968.8235092-.2212143.9340782-.6513519.061512-.2581253.0861168-.8234329-.0123024-1.069252-.0859642-.2704315-.4422836-.3195648-.6637268-.4547424-.3317146-.1966858-.6022148-.3686981-.983139-.4547348-.1720848-.036911-.344017 0-.5162506-.0737381-.3932266-.1474838-.811058-.6514282-1.130619-.934082-.319561-.2827301-.467041-.5284805-.4793434-.9586868-.0246048-.29496-.0736618-.762001.0982704-1.02005.528553 0 1.020195-.0122986 1.5239944.122879.5039482.1228714.9832878.2089157 1.4870872.2212143.4548874.0123062 1.020195-.0491333 1.3274574-.4547348.319561-.4547386 0-1.1922073.5407028-1.5239983.4548874.5776138.848114 1.1183929 1.1799774 1.7698174.2949562.5653076.5162506 1.0815582 1.167675 1.2658691.29496.0737381 1.7697411.2212219 1.6713219-.4424362-.0246048-.2335205-.5037956-.4424362-.6268196-.602211-.3809242-.4424362-.6514244-1.0078239-.7372398-1.5732079-.0861168-.4915695-.2828064-.4915695-.6514282-.7742996-.2703514-.2089157-.3933754-.5284767-.6637268-.7496948-.3318634-.258049-.5653114-.5407791-.7375412-.9217758-.1473312-.319561-.0490608-.9586105-.29496-1.192131-.1842346-.1720848-.639122-.1106453-.8725662-.1106453-.29496-.0491371-.5407066.0369072-.7373924.2458229-.2582016.2458191-.5408554.4424324-.848114.5899124-.2211456.2458229-.1227264.6145172-.1227264.9094772.0123024.3318634.0736656.639122-.0984192.9217758-.258049.4056053-1.1798248.8235092-1.6347122.7374687-.4176826-.0614395-.4053802-.4179077-.5653114-.7251663-.1473274-.2335205-.3072586-.4547386-.4791908-.6759567-.2335968-.3440895-.5531578-.5284767-.9586868-.5284767-.1843834.1106491-.233593.2703552-.1353264.4547386 0 .0614357 0 .0983429-.0123024.1597824-.0736618.2212181-.8233566.6268196-.8602638.639122-.3318672.1105728-.6883354.2457466-.7741508-.1597824-.0123024-.1229477.0121536-.2827263.0121536-.4056015.0123024-.5038719.110569-.8603401.5162468-1.1675987.4301338-.3317909.7127876-.5038757.7619972-1.0938644.0367584-.5038719.024456-.9955177.1966896-1.4993896.0492096-.172081.135025-.3686943.1719322-.5530815.061512-.4547386.0861168-.9217758.0861168-1.3888168 0-.319561.1228752-1.0200462-.2211418-1.2167358-.1107216-.0123024-.2091408-.0368309-.319561-.0491333-.1599312 0-.2335968.0737381-.2212944.2089157-.1597786.2089157-.0982666.3563919-.405529.4547348-.233593.0860443-.897171.2212181-1.1184654.0369072-.110569-.0860405-.0859642-.2581215-.0859642-.3809967v-.8358116c0-.2457466.1104202-.7127876-.0246048-.9586105-.3318672-.5284767-1.1553764 0-1.4872398-.4056015-.2212906-.2580528-.0613594-.7005615-.2703514-.9955177-.1720848-.2458229-.4793434-.7128639-.8358116-.6636543-.1105728 0-.2088394.1351776-.2949562.1597824-.1719322.0614357-.4545898.0368309-.5899162 0-.110569-.0246048-.2211418-.0860443-.319561-.1352539-.2211418-.0737381-.4178314-.0614357-.6514244-.0614357-.429985 0-.87257-.0245285-1.3150063 0-.4424324 0-.8358116.1966896-1.2780952.2212181-.6883316.0123024-.700634-.3440933-.995594-.8480377-.2457466-.3932266-.639122-.614521-.8725662-.9955177-.2949562-.4915695-.5899162-1.0077438-.848114-1.5362968-.1720848-.3686981-.4424362-.7865295-.5039482-1.192131-.1105728-.5653839.7129364-.3441658 1.0448036-.4916458.368618-.1720085.7004852-.6022148 1.0568047-.7496948.3318634-.110569.7252388-.1228714 1.0694046-.1228714.3072586-.0123024.8971748-.1597824 1.1798286.0368309.1228714.0860405.1107216.2212181.172081.3318634.1597824.319561.3932266.5530815.5162506.8848724.1105728.3318634.2457466.6268196.3441658.958683.0981216.2826538.29496.5161743.5899162.6513519.3809242.1597824.8110542-.0491333 1.1675262-.2335205.2211418-.1228752.6268196-.3686943.7742996-.5899124.1474762-.2212181.0859642-.4056053.110569-.6391258.0246048-.2703514.1107216-.3440895.2334442-.5530052.184536-.3318634.3933792-1.106163.934082-.9586868.2703514.0860443.5654602.4547386.8112068.6022186.3072586.1966858.528553.4179039.8235092.6514244.2211418.1597824.4547386.4178314.700634.5284767.2703552.1228752.7987556.0860405 1.0814095.0491333.442585-.0491333.8112068-.2949562 1.192131-.0122986.2949562.2458191.4917946.4179039.8604164.5285492.2089882.0614395.4547386.1105728.6758804.1351776.3687706.0491333.3318634.0368309.4917946-.1966896.2088394-.3194847.3072586-.4915695.7003365-.57761.3687706-.0860405.6760292.0246048.958683.2212181-.1596298.3318634-.3441658.6636505-.5530052.9709129-.0984192.2089882-.0861168.3809967.061512.5284767.1228714.3318634.3932266.639122.5037956.9955902.0984192.233448.1107216.3932266.1107216.6390495-.0123024.3933029.085968.5407791.3441658.786602.2826576.2826538.5407066.5161743.8971748.6759567.4178314.172081.7004852-.0246048 1.044651-.2335205.5039482-.3317909.72509-.934082 1.3888206-.9094772.4547348.0246048 1.2290344.1843872 1.6101074-.1228714.3072586-.2458229.1965408-.6882591.2457504-1.0324249.0369034-.319561.0736618-.5530815.0736618-.8603439.0123062-.6513481.5531616-.8357353 1.0938644-1.0078163.811203-.2580528 1.7574387-.5653114 1.917366-1.511692-.7129364-.2212181-1.7206802-.1105728-2.3967133.2335167-.4916382.2581253-.897171.8111343-1.3150024 1.1676025-.2212906.2458229-.491642.4178314-.7989044.5161743-.2212906.0860405-.43013.1843872-.6514244.2949562-.3194122.2212181-.57761.5899887-1.0077438.6268234-.2457466.0246048-.553009.0123024-.786602 0-1.3888206-.0491371-.3072586-1.3888206-.2458992-2.1016808.0246048-.4424362-.049057-.6636543-.454586-.72509-.2826538-.0369072-.934082-.1597824-.9586868-.5776863-.0123024-.3317909.4301338-.5038757.6391258-.6759567.368618-.3440933.6514244-.7988281 1.0445023-1.1060905.6637268-.5407791 1.6839218-.3318634 2.4949799-.3318634.5162468.0123024.995594-.1106453 1.4993935-.1106453.6514206.0123024 1.3028488-.0122261 1.954277 0 .13517-.0122261.2703476 0 .4056778.0246048.1596298.1106453.344017.1966858.5407028.2581253.2703476.0860405.553009.0491333.8356628.0491333.344162 0 .7006302-.0123024 1.0324936.0614357.3687744.0860443.3687744.3072624.3195648.6514282-.0369034.2212181-.086113.4547386-.123024.6759529.0492096.1966133.159935.3318672.3441696.4301338.3072586.3072586.3933716.6637306.6268158 1.0078201.0738144.14748.1966934.2212181.3564682.2458229.2211456.1597824.4301376.3318634.6268234.5161743.258049.2335205.4545898.4793434.8233566.5162506.6145248.0491333 1.2413406-.0123024 1.8558655-.0123024.2334442 0 .5776062.0737381.7989044-.0123024.1597748-.0491333.2705002-.1720848.3318634-.3318634.172081-.1597824.3686218-.29496.5653076-.4301338.4916458-.5530815-.0244522-1.4871635.553154-2.0156403.4668884.319561.036911.8971748 0 1.253643-.0246048.2212181.0123062.5284767.0246048.7619972.0246048.3440895.2703552.5899124.4791946.8357353.1966858.2458229.6514282.6882591 1.020195.4793434.2826538-.1720848.3318634-.7619972.4424362-1.0324249.1474762-.3317871.3072586-.5899124.5408554-.87257.4914932-.5899887 1.0937119-1.0938606 1.4624863-1.7821159.1842346-.356472.1228714-.7989044.3072586-1.1429977.0982666-.1966858.2334442-.2827301.2949524-.5039482.1105728-.4178276 0-1.0569534 0-1.4993896-.0122986-.2212181.0123062-.4179039.0615158-.6268196.1104202-.4179077.2334442-.9217796.4299774-1.3150787.5408554.1106453.8604202.6022148 1.3766708.7005615.344162.0614357.7496948-.0123024 1.0937119 0 .1353226 0 .3564682.0491333.4794922-.0369072.2088394-.1597824.3195572-.7005615.344017-.9340057.0246048-.381073-.0121536-.786602-.0121536-1.1553001 0-.3318634-.0246048-.6637268-.0123062-.9832878.0244598-.3072624.1104279-.553009.2826538-.7988319.1596375-.2089882.4055328-.3072586.4791946-.5776863.0984192-.3809967.0492096-.9955177.0246048-1.4010429-.0246048-.2458229-.085968-.4793434-.3072586-.6391258-.1474762-.1229477-.4055252-.1474762-.5407028-.2949562-.2334442-.2335205-.1476288-.6145172-.1353302-.9217796 0-.319561-.0122986-.6145172-.0122986-.9463806 4.5967405 6.1943202 7.3128584 13.8758044 7.3128584 22.1718058z" fill="#2d93ba"/><path d="m82.775795 29.5895748c-.1714859-.0594158-.3231659-.1911316-.4946518-.2307415-.1318741-.0264072-.2769547.0132027-.408989-.0330086-.1714935-.0594177-.224144-.1714859-.3231735-.3099632-.191124-.2573109-.5144577-.4089909-.5144577-.7453613-.0064392-.1450787-.039444-.3560143-.0131989-.4946537.0330048-.1582813.1780853-.2439442.2176971-.3956242-.1186752-.2309036-.7848129-.105629-.9893036-.0330105-.2109375.0726204-.3693848.1714859-.6067276.1252747-.30336-.0658569-.5672684-.3824234-.7716064-.6001225-.105629-.1252728-.1846848-.3429718-.3297653-.4287949-.2309036-.131876-.5276642-.1450787-.7651672-.2769547-.30336-.1648846-.6067276-.3561764-.7980118-.6463337-.1186752-.1648846-.2177048-.3429718-.3495789-.5078564-.1846924-.2307415-.45504-.3231659-.6859436-.501255-.1318741-.1054668-.2373428-.2441063-.3627777-.3561745-.2703552-.2373447-.5671082-.2241402-.8836746-.369381-.1978989-.0856628-.3429718-.197731-.5144577-.3297672-.2044983-.158123-.4023895-.2505474-.6463394-.3429737-.3759766-.1449165-.7123489-.2967587-1.0355148-.5341015-.1384811-.0990276-.2176971-.1648846-.3561783-.2110977-.2967606-.0856628-.4880524-.2901573-.7452011-.4418392-.1978912-.1188316-.3693771-.2176971-.5540695-.3561745-.15168-.1252747-.2835541-.1648846-.3627777-.3429737-.0526505-.1120682-.0790558-.3627777-.197731-.4154301-.0990219-.0462132-.2110977.0132027-.3233261-.0396118-.2109375-.105629-.3230057-.2639103-.45504-.4486008-.1186752-.1648846-.2175369-.1845284-.3890228-.2703514-.1846924-.085825-.3495789-.2110977-.5210648-.3165665-.2901535-.1648827-.30336-.4220314-.3825836-.7321568-.0264053-.1120701-.0528107-.2241402-.0790558-.3362083-4.0891037-1.5367737-8.5147324-2.3810005-13.1380959-2.3810005-2.0840797 0-4.1221046.1714859-6.1139221.501255-.0064392.0132027-.0196457.0264072-.0328484.0396099-.1320343.1252728-.2507057.1912918-.2837181.3824215-.0264053.1714878.0264091.3561764.0132065.5276623-.0132065.1450787-.0724602.3957882-.2044945.4814491-.0988693.0594177-.3165665.0594177-.4352379.105629-.1582832.0592556-.2901573.1713257-.415432.2769547-.1254349.0988655-.2837181.1450787-.3759804.2769547-.0924263.1320362-.105629.2969208-.1252747.4550419-.0330086.1978931-.0858231.3165646-.2176971.4618053-.1780891.197731-.1318779.435236-.0462151.6859436.0924263.2505474.2639122.4878902.4287987.6923847.1120682.1452408.0988655.1320362.1450768.2705135.0462151.1120701-.0198059.0592556.0988655.1384773.2309036.1516819.5276642.0198059.7519646.2044964.0988655.0790596.1648827.1845284.2769547.2505455.0988655.0594177.1912918.0724602.2901573.131876.2110977.1186714.30336.4616432.4352341.6595364.1320381.2110977.066021.3759823.0990295.6133251.0528145.4155922.3956261.4946537.7848091.5276623.1780891.0198059.4155922-.0462132.5870781.0132027.0724602.0198059.2175407.1846905.2373428.1978951.0858269.0724583.2835579.1582813.3297691.2637501.0264091.0462132 0 .1452389 0 .1846886-.0132027.1518421.0066032.4616451-.1318741.5804768-.0462112.0396118-.2243004.0856628-.2703514.1054688-.1582832.0726204-.5210609.1648846-.6134872.3099632-.1186714.1648846.0132027.369379.0990295.5144577.1318741.2309036.2307396.3627777.5144577.4155922.1120682.0264072.2571487.0460529.3692169-.0066013.1122322-.0594158.1714859-.1846905.2903175-.2309017.1054688-.0462132.2373466-.0526543.349575-.0726204.1054688-.0196457.2043343-.0328484.2835579-.1120701.0658569-.0528145.0988655-.1582832.1648827-.2044945.1252747-.0988674.8244209-.1713257.8838387-.0264072.0724602.1518402.0064392.5278225-.0924263.6530952-.1252708.1516819-.2373428.1648846-.2441063.3758202-.0132027.389185.1716499.5672741.3101234.9036446-.4353943.3561745-.910244.2571487-1.4180984.2703514-.1648865.0066013-.3759842.0396118-.5078583.1386375-.15168.1120701-.1252747.2439461-.0526543.3890247.1054688.2243004.2703514.4946537.4220352.6859436.0858231.1120701.1846886.2309036.3231659.2703533.2505455.0726204.6002808.0264072.8574295.0198059.3363724-.0066032.6595383-.0922642.9959068-.0592556.2309036.0262451.5935211.1648846.7848129-.0330086.0792198-.0792217.0988655-.2243023.1846886-.2967606.0922661-.0792217.2243004-.0726204.3363724-.0726204.2241364.0066032.3099632-.0066013.4748459-.1582813.2769547-.237505.6595383-.105629.9761009-.2309036.1122322-.0396099.1912918-.1054668.3099632-.1450787.1582832-.0526524.3165665-.0462132.4814491-.0462132.2507095 0 .5078583.0528145.7387619-.0658569.0856628-.0462112.1384773-.1054668.2373428-.125433.1122284-.026247.2441063.0067616.3627777.0067616.15168-.0067616.2771149-.0330086.4221916-.0660172.2439461-.0660191.5076981-.0792217.7121925-.2243004.2309036-.1648846.1846886-.4682465.1780891-.7319965-.0066032-.1122303-.0066032-.2044964-.0396118-.3099632-.0394516-.1252747-.1318741-.2176991-.158123-.3363705.6067238-.0792217 1.2332535.0262451 1.8465767-.0462132.408989-.0528145.9827042-.4946537.7519608-.9430923-.0792198-.1386395-.1978912-.2967606-.3429718-.369381-.1714859-.0790596-.408989-.019804-.5936775-.019804-.2175407.0066013-.5276642.0594158-.7253952-.0592556-.2705154-.1780891-.3891869-.5342636-.7519646-.5804768-.2373428-.0330086-.4814491-.1054688-.6991463-.2309017-.1252747-.0724602-.2307434-.1846905-.309803-.3033619-.0924263-.1384773-.1122322-.1780891-.0462112-.3165646.0922623-.1846905.3627777-.2901592.540863-.369381.1648865-.0724583.263752-.0790596.4418411-.0856628.1582832 0 .3297691.0330105.4814491-.0330086.1252708-.0528145.1318741-.0988655.2241402-.1912918.2243004-.2241383.8772354-.1252728 1.1673927-.1120682.2639122.0066013.5408669.0528145.7980156.0264072.0924225-.0132046.2044945-.0660191.2969208-.0594177.1648827.0132046.2835541.1582832.3956223.2507076.1254349.1054688.1978951.1648846.3627777.1384773.1780891-.0330086.349575-.1120701.5408707-.0726204.2110901.0528145.2571487.2771168.3495712.4352379.0988693.1648846.2241364.2639103.3561783.389185.2637482.2375031.3692169.4089909.3758163.7717686-.3363724.1845284-.916687.2505455-1.1277847.567112-.1120682.1648827-.1582794.4616432-.1318741.652935.0594177.5078564.7386017.5540695 1.1475906.5408649.2110977 0 .4946518-.0594158.6991501 0 .1912918.0592556.2505417.2373428.3693771.3758202.1581192.1848507.3099594.2573109.5407028.2705135-.2703476.5407047-1.0025101 1.0157127-1.6158295.9761028-.3627777-.0264072-.7057495.0396099-1.0487289-.1450787-.1845245-.0990276-.342968-.1978931-.4682426-.369381-.0724602-.0988655-.0922623-.1318741-.2241402-.1450787-.105629-.0132027-.4419975-.0330086-.5540695.0132046-.0790596.0330086-.1450768.1252728-.2110939.1714859-.1582832.1054688-.3825836.1252728-.4748497.3165646-.0922623.1846905-.1054688.4616432-.1120682.6661396-.0132065.4418373.2505455.5803146.6331291.6331291.263752.0396118.5144577.1384773.7782097.1516819.1320343.0132027.2705116-.0066032.4023857-.0066032.3165703 0 .6925468-.0526524 1.0025139 0 .1714859.0330105.30336.131876.4748459.1846905.2109375.0724583.4088287.0660191.6397324.0724583.2307434.0067635.3759766.0331707.6001205.1188335.1648865.0660172.2901535.0856628.4682465.0856628.8112183-.0196457 1.6225967-.0064411 2.433815-.0064411.3165665 0 .6397324.0196438.9562912 0 .0922699-.0067635.2703552-.0726204.3495789-.0067635.0790558.0792217.1186676.323328.1714859.4221954.0658569.1318741.1054688.1978931.0988617.3429718-.0065994.1252728-.0197983.2439442.0066071.369379.0264053.1648846.1186676.3165646.1252747.4878902.0131989.2837162-.0130463.3035221-.2043381.521059-.1320343.1452408-.3627777.1846924-.5342636.2969208-.1648865.1054688-.2637482.1977348-.4682465.2175369-.1582794.0132065-.3101196.0066032-.4682465 0-.3561707-.0065994-.7255554.0462151-1.0817261.0264091-.1912918-.0066032-.4154358-.0594177-.5935211-.1252747-.2110977-.0726204-.3759842-.0922623-.5870819-.0990257-.2769547-.0132027-.4880447-.0856628-.7253952-.2043343-.230896-.1122322-.4946518-.2309036-.7519608-.2507095-.1714859-.0065994-.2439423-.0528145-.389183-.15168-.0658569-.046051-.1449203-.0922642-.2109375-.15168-.0330048-.0330086-.1252747-.1648846-.1780853-.1912918-.2309036-.0988655-.4286346.105629-.567276.2639122-.2175369.2439461-.4220314.4880524-.652935.7253952-.1054649.105629-.1845284.1978912-.3363686.2308998-.1384773.0264091-.3758202.0132065-.5209007-.0065994-.1978912-.0396118-.3429718-.1978951-.5144577-.3099632-.2044945-.1384773-.3627777-.2110977-.606884-.2110977h-1.1277809c-.1912918 0-.3890266 0-.5803185-.0066032-.0660172 0-.1846886-.0264053-.2441063 0-.1780853.0594177-.3099632.4089928-.3561745.5672722-.15168.5408669.2309036 1.0815735.606884 1.4311447.0658569.0594177.1384773.1450806.2307434.1846924.1188316.0528145.2705116.039608.3825798.1054649.263752.1582832.2441063.5144615.5738754.5738754.4220352.0790634 1.1277847.0262489 1.332119.5144577.039608.0922661.0330086.2109375.0726204.3099632.0528145.1516838.1384773.2373466.2373428.3627777.1386375.1780891.1188316.3824234.257309.5737152.2241402.3165665.5803146.5540695.8508301.8310242.1846848.1912918.3626175.3165627.6199265.3825836.5012512.1318741 1.0947723.0528145 1.6026306.0592537.3429718 0 .6595383-.0658569 1.0091095-.0658569h4.4914856c.1912918 0 .3231659.0330086.4682465-.0924263.1780853-.1582794.2901611-.4286346.3429718-.652935.0264053-.1318741.0462112-.2835541.0330124-.4220314-.0198059-.1912918-.1054688-.3099632-.1912918-.4748497-.1450806-.2901573-.0594177-.692543-.0660172-1.0157127 0-.257309 0-.3231659.1386337-.5474663.046051-.0592537.0658569-.1120682.1120682-.1714859.1450806-.1714859.3693848-.2110977.5474701-.3429718.197731-.1450806.1845322-.3033638.1780853-.5276642-.0067596-.2373428-.0067596-.4746857-.0067596-.718792 0-.1188316-.0262451-.2637482-.0064392-.3825836.046051-.2703514.2439423-.3825836.197731-.6793404-.0065994-.0724602-.0658569-.4220333-.1648865-.5144596-.046051-.046051-.2373428-.0724583-.2769547-.0922642-.1912918-.0858231-.45504-.2967606-.4682465-.5210609-.0131989-.2043343.1714859-.5276604.1978989-.7451992.0130386-.1386375.0065994-.283556.0065994-.4221935 0-.2043343.0064392-.4220333 0-.633131-.0065994-.4814491-.5342636-.5408649-.8574295-.7980137-.1186752-.0922642-.3165665-.2771149-.3561783-.435236-.0396118-.1780891.1714859-.369381.30336-.4750099.1912918-.15168.3429718-.1450787.567276-.1384754.1780853.0066013.4154282-.0592556.5737152.0330086.4682465.2639103.2835541 1.0091114.2835541 1.437746 0 .1780872-.0592575.4814491.0067596.6530952.0592575.1449184.2637558.2769547.3692245.3890247.1450729.15168.2441025.2309017.4682465.257309.1648788.026247.3561707.0328484.5276566.0196457.2243042-.0132046.389183-.0988674.389183-.3362103-.0065994-.2309017-.1122284-.4684067-.30336-.5936794-.2176971-.1516819-.3495712-.283556-.4748459-.5210609-.1188354-.2175369-.0726166-.4550419-.0726166-.6989861 0-.1188335-.0660172-.4221954.0528107-.5078564.0922623-.0594177.461647-.0067635.5605087-.0067635.1978989.0067635.4814529.0264072.6595383.1386375.1252747.0790615.1648865.2307415.2769547.2967606.2705154.1780872.6662979.0922642.9696655.0792217.3890228-.0132046.6133194.2043343.8836746.4682446.1582794.1516819.2969208.2769547.3693771.4878902.1450806.4023895.4023895.7057495.7123566.996069.2835541.2703533.4154282.6199265.6859436.9034824.1912918 0 .2505417.0660191.4418335.0594158.3297729-.0066013.3825836.0396118.5408707.3231678.0724564.1384773.1714859.2637501.2835541.3692188.0462112.0660172.0922623.1386375.1318741.2044945.2176971.1188316.5012589-.2571487.5936813-.4088287.1186676-.1780891.1384735-.3231678.1450806-.5342636 0-.1186733-.0726242-.389185-.0330124-.481451.1450806-.3561745.8442307-.3231659 1.1343842-.3099632.1450806 0 .4484406.0790615.5210648-.0858231-.0990293-.1779263-.1450803-.2505467-.3363721-.3165639z" fill="#2d93ba"/><path d="m17.9036388 49.77808c.2309017.1318779.389185.0856628.5408649-.1582832.1186714-.1978912.2044964-.3957863.3429737-.5804749.30336-.415432.652935-.4682465 1.1409855-.4682465.1054688 0 .2309036-.0264053.3363705.0132027.1450787.0462151.2044945.1714859.369379.1978951.4352379.0856628.8638725.0856628 1.2926674.0198059.3627777-.0594177.5473061-.3561745.7584038-.6398926.2705135-.3692207.4748478-.8176613.5804768-1.2662621.0658569-.2703514.0528145-.5474663.046051-.8178177-.0064411-.349575.0924263-.501255.1978931-.8112183.0594177-.1978951.1582832-.4088287.1714878-.6067238.0132027-.2771149-.0658588-.5672722.0726185-.8178177.0856628-.1516838.2175388-.263752.2901592-.4221954.1120682-.2175369.2507076-.4616432.3363705-.6859436.0264072-.0790634.0264072-.1713257.0594158-.2505493.0658569-.1582794.1582813-.2703514.177927-.4484406.0199661-.15168-.0328484-.3165627-.0196457-.4684067.0196457-.1911278.1384773-.3626137.1582832-.5539055.0198059-.1384773-.0198059-.2835579-.0066013-.4221954.0528145-.5803146.3231659-1.1870384.521059-1.721302.0988674-.2637482.2043343-.4353981.4088306-.6331291.1846886-.1780891.4287949-.3561745.5540695-.5870781.1318741-.2439461.1384754-.5539093.2439442-.8178215.105629-.2571487.283556-.4220314.4748478-.6199265.1780872-.1912918.3033619-.389183.4221935-.6265259.131876-.263752.3231678-.4353981.5342636-.6463356.1845284-.1780853.4220333-.3561745.5210609-.5935173.0724583-.1584435.0724583-.3429718.1252728-.5078583.0526543-.1716461.0724602-.3233261.0988674-.4946518.0396099-.3165665.1648827-.5606728.3099632-.8376274.1122303-.2110939.0924244-.5144558.2441044-.6859436.1780891-.2110958.4748478-.3957863.6925468-.5606709.2505474-.1846886.4616432-.408989.6857834-.6199265.1648846-.1582813.3167267-.2901573.4419994-.4814491.1516819-.2375031.3231678-.4286346.4880524-.652935.1318741-.1648846.1648827-.4287949.3429718-.5540695.1846886-.1318741.5407028-.0330086.6397324-.2505474.0198059-.0462112 0-.105629.0132027-.15168.0264091-.0858231.0922661-.1716461.1252747-.2639122.1318741-.3627758.0528145-.7584019.1648827-1.1277828.0462151-.1714859.1252747-.3759804.2241402-.521059.1122322-.1516819.3365326-.2703533.4023895-.4550419.0264053-.0922642.0065994-.2439461.0198059-.3429737.0198021-.1252728.0594139-.2176971.0924225-.3429718.0460548-.1978931.0658569-.3363705.1911316-.5078564.0858231-.1318741.1780891-.2571487.2639122-.389185.1186714-.1780872.2373428-.3429718.3165665-.5407047.0922623-.2110958.2044945-.4618053.2044945-.6991482 0-.1252728-.0462151-.2637501.0132027-.3825836.0856628-.1845284.3428116-.2703514.4814491-.4088287.1780891-.1714859.3230057-.3429718.5142975-.501255.2176971-.1780872.3825836-.389185.5342636-.6134853-9.9523143 5.8765812-16.9368705 16.2510891-18.1570797 28.3272534z" fill="#2d93ba"/><g fill="#344d5b"><path d="m57.9755707 22.7575951c-.5157585 0-.967308-.375946-1.0470543-.9010258-.0890656-.5789375.3096619-1.1195526.8885994-1.2075844 1.3660393-.208168 2.1686783-.2558079 2.2018204-.2568436.5810051-.0248566 1.0843391.413229 1.118515.9973431.0331421.5851498-.4132309 1.0864105-.997345 1.1195526-.0082817.0010357-.7477455.0455685-2.0040054.2361298-.0538559.0082855-.1077118.0124283-.1605301.0124283z"/><path d="m54.8360634 22.2951279c-.1499634-.5699463-.7199707-.9200439-1.289978-.7700195-1.4000244.3599854-2.7999878.7800293-4.1699829 1.2600098-.0600586.0200195-.1100464.0499268-.1700439.0799561-.4400024.25-.6499634.7800293-.4799805 1.2800293.1599731.4299316.5599976.6999512 1 .6999512.1199951 0 .2399902-.0200195.3499756-.0599365.3699951-.1300049.75-.2600098 1.1300049-.3699951.9500122-.3100586 1.9100342-.5900879 2.8599854-.8400879.5700072-.1398928.910034-.7199709.7700194-1.2799074zm-8.0899658 2.6400146c-.25-.5300293-.8800049-.7700195-1.4100342-.5200195-1.3300171.5999756-2.6300049 1.2700195-3.8800049 1.9799805-.5100098.3000488-.6799927.9399414-.3900146 1.4499512.1900024.3400879.5500488.5400391.9200439.5400391.1799927 0 .3599854-.0500488.5199585-.1400146 1.1900024-.6899414 2.4400024-1.3199463 3.710022-1.9000244.5300293-.2399904.7700195-.8698732.5300293-1.4099123zm-7.4900513 4.0599365c-.3299561-.4799805-1-.5899658-1.4799805-.25-1.1799927.8399658-2.3399658 1.7401123-3.4299927 2.6900635-.4400024.3798828-.4899902 1.0500488-.1099854 1.4899902.2099609.25.5100098.3699951.7999878.3699951.25 0 .5-.0899658.7000122-.2600098 1.039978-.9000244 2.1400146-1.7600098 3.2699585-2.5599365.4800416-.3400878.590027-.9999999.2500001-1.4801025zm-6.5699463 5.4100342c-.4200439-.4000244-1.0900269-.3800049-1.4900513.0500488-.9899902 1.0499268-1.9499512 2.1599121-2.8399658 3.3199463-.3599854.460083-.2700195 1.1199951.1900024 1.4799805.2000122.1500244.4199829.2200928.6499634.2200928.3200073 0 .6300049-.1401367.8400269-.4101562.8499756-1.0998535 1.75-2.1599121 2.7000122-3.1599121.3999634-.419922.3800049-1.090088-.0499878-1.5000001z"/><path d="m25.6742706 44.8110085c-.2817001 0-.5592594-.1118507-.7643204-.3251991-.3251972-.3376236-.3904457-.8471718-.1605282-1.2552223.3604107-.6400414.7301426-1.2624741 1.10816-1.8673019.3127708-.4960823.96731-.6452179 1.4623566-.3355522.3003426.188488.473299.5022964.4950466.8316345.3428059.067318.6441841.3013802.7829628.6493607.2154179.5447617-.0497131 1.1609802-.594471 1.3774338-1.192049.4732971-1.8372669.8036766-1.8445168.8067818-.1532782.079746-.3200205.1180647-.4846896.1180647z"/><path d="m52.6960487 38.1551132c-1.2299805-.0700684-2.4699707-.0999756-3.6999512-.0999756h-.6199951c-.5800171.0098877-1.0500488.4799805-1.0500488 1.0699463.0100098.5800781.4800415 1.0500488 1.0599976 1.0500488h.0100098.6000366c1.1900024 0 2.3899536.0300293 3.5799561.0899658.0200195.0100098.0400391.0100098.0599976.0100098.5599976 0 1.0300293-.4400635 1.0599976-1.0100098.0300291-.579956-.4199831-1.079956-1.0000002-1.1099853zm-8.6300048.0800781c-1.4299927.0998535-2.8799438.2598877-4.289978.4599609-.5800171.0799561-.9799805.619873-.8999634 1.1999512.0699463.5300293.5299683.9100342 1.0499878.9100342.0499878 0 .0999756 0 .1499634-.0100098 1.3600464-.1900635 2.7600098-.3499756 4.1500244-.4500732.5800171-.039917 1.0200195-.5499268.9799805-1.1298828-.0499879-.5900879-.5499879-1.0300293-1.1400147-.9799805zm17.1900024.9099122c-1.4299927-.25-2.8599854-.4599609-4.2699585-.6300049-.5800171-.0599365-1.1099854.3499756-1.1700439.9300537-.0699463.5899658.3500366 1.1099854.9300537 1.1799316 1.3599854.1600342 2.75.3601074 4.1300049.6101074.0699463.0098877.1299438.0098877.1899414.0098877.5100098 0 .9500122-.3599854 1.0400391-.8699951.1099853-.579956-.2800294-1.1300049-.8500367-1.2299804zm-24.4799805 1.1199951c-.1199951-.5699463-.6799927-.9500732-1.25-.8199463-1.4299927.3099365-2.8399658.6599121-4.2000122 1.0599365-.5599976.1700439-.8800049.7600098-.7199707 1.3199463.1400146.460083.5599976.7600098 1.0200195.7600098.0999756 0 .1999512-.0100098.2999878-.039917 1.3099976-.3900146 2.6599731-.7301025 4.039978-1.0200195.5700074-.1300049.9400025-.6900635.8099976-1.2600098zm32.8500405.8699951c-1.3800049-.4099121-2.7800293-.7800293-4.1600342-1.1099854-.5599976-.1400146-1.1400146.210083-1.2700195.7800293-.1399536.5699463.210022 1.1400146.7800293 1.2799072 1.3399658.3200684 2.7000122.6800537 4.039978 1.0900879.1100464.0300293.210022.0400391.3099976.0400391.4500122 0 .8800049-.3000488 1.0100098-.7600098.1699828-.5600585-.1499635-1.1500244-.709961-1.3200683zm8.0999755 2.9000244c-1.3400269-.5599365-2.6900024-1.0799561-4.0100098-1.5499268-.5499878-.2000732-1.1599731.079834-1.3599854.6398926-.1900024.5500488.0899658 1.1500244.6400146 1.3500977 1.1699829.4199219 2.3499756.869873 3.539978 1.369873.1099854.0400391.2299805.0900879.3400269.1401367.0099487 0 .0199585.0098877.0299683.0098877.1400146.0500488.2700195.0799561.4099731.0799561.4200439 0 .8100586-.25.9800415-.6499023.2199709-.5400391-.0300291-1.1600342-.5700072-1.3900147z"/><path d="m81.0522232 49.2446823c-.4712296 0-.9010315-.315876-1.0253067-.7933159-.1046066-.4008026.0352097-.8088531.3272705-1.0646629-.2237091-.3055191-.2765274-.7197876-.1025314-1.0853767.2506256-.5292206.8844528-.7539597 1.413681-.5002251.6389999.3044853 1.2800751.6213989 1.9263306.9476318.4028702.2050629.6327896.6421127.5706482 1.0905533-.0611038.4474068-.399765.8078194-.8430252.8958511-.016571.0031052-.7622528.1532784-1.9988327.4753685-.0890656.0227852-.1791687.0341759-.2682343.0341759z"/><path d="m77.8761063 49.0950546c-.1800537-.5599365-.7800293-.8598633-1.3400269-.6699219-1.4199829.4699707-2.8200073.9899902-4.1599731 1.5400391-.5400391.2299805-.8000488.8498535-.5800171 1.3898926.1699829.4100342.5700073.6600342.9899902.6600342.1300049 0 .2700195-.0299072.4000244-.0799561 1.289978-.5400391 2.6499634-1.0400391 4.0199585-1.5.5599976-.1900635.8599854-.790039.670044-1.3400879zm-8.1200562 3.2000733c-.2599487-.5200195-.9099731-.7301025-1.4199829-.460083-1.3800049.7000732-2.6900024 1.4500732-3.8800049 2.2299805-.489994.3200684-.6300087.9700928-.3099976 1.460083.2000122.3199463.5400391.4899902.8900146.4899902.1900024 0 .3900146-.0599365.5700073-.1700439 1.1400146-.7399902 2.3800049-1.4499512 3.6900024-2.1298828.5199587-.2600099.7299806-.9001466.4599611-1.420044zm-7.4199867 4.5699463c-.3900146-.4499512-1.0499878-.5-1.5-.1099854-1.2000122 1.0300293-2.2700195 2.1300049-3.1699829 3.2600098-.3699951.4500732-.2999878 1.1199951.1599731 1.4899902.1000366.0799561.210022.1400146.3300171.1700439.1099854.0400391.2200317.0600586.3300171.0600586.3099976 0 .6199951-.1401367.8299561-.4001465.460022-.5699463.9700317-1.1298828 1.5200195-1.6799316.4400024-.4499512.9000244-.8800049 1.3900146-1.3000488.4400025-.3798828.4899903-1.0499268.1099854-1.4899902zm-5.7199707 6.5300293c-.5300293-.25-1.1600342-.0100098-1.4000244.5200195-.6699829 1.4199219-1.1199951 2.9199219-1.3599854 4.4399414-.0900269.5800781.3099976 1.1201172.8900146 1.2099609.0599976 0 .1099854.0100098.1599731.0100098.5200195 0 .9700317-.3798828 1.0499878-.8999023.1000366-.6500244.25-1.3000488.4400024-1.9300537.2000122-.6600342.4500122-1.3099365.7399902-1.9399414.0500488-.1099854.0800171-.2200928.0900269-.3299561.0599977-.4400635-.1799925-.880127-.6099852-1.0800781zm-17.0400391 4.4499511c-1.1699829-.8099365-2.2199707-1.7199707-3.1199951-2.6999512-.3900146-.4299316-1.0599976-.4499512-1.4899902-.0600586-.4299927.4001465-.460022 1.0700684-.0700073 1.5 1.0100098 1.0900879 2.1699829 2.1000977 3.4700317 3 .1799927.130127.3899536.1900635.5999756.1900635.3400269 0 .6699829-.1500244.8699951-.4500732.3400268-.4799805.2200317-1.1398926-.2600098-1.4799805zm7.5700073 3.5200196c-1.3800049-.3999023-2.7000122-.8898926-3.9400024-1.4599609-.539978-.2399902-1.1699829-.0100098-1.4099731.5200195-.2399902.5400391-.0100098 1.1699219.5199585 1.4099121 1.3400269.6101074 2.7600098 1.1401367 4.2400513 1.5600586.0999756.0300293.1999512.0400391.2999878.0400391.4599609 0 .8800049-.3000488 1.0200195-.7600098.1599731-.5600586-.170044-1.1500245-.7300416-1.3100586zm8.8099976 1.8601074c-.0199585-.1601562-.039978-.3300781-.0599976-.4899902-.0700073-.5800781-.5800171-1.0200195-1.1699829-.9300537-.1500244.0098877-.289978.0599365-.4199829.1300049 0 .0100098-.0100098.0100098-.0100098.0100098-.2000122.119873-.3500366.3099365-.4400024.5300293h-.1699829c-.4700317-.0100098-1.2800293-.0600586-2.4200439-.2200928-.5799561-.0799561-1.1099854.3199463-1.2000122.9000244-.0799561.5800781.3200073 1.1099854.9000244 1.1999512.8699951.1201172 1.7200317.2000732 2.4299927.2199707.1799927.0200195.3500366.0200195.5100098.0200195.2600098 0 .6599731 0 1.0300293-.0899658.5299683-.1199951 1.0299683-.4100342 1.0299683-1.1300049-.0000001-.0500489-.0000001-.0999757-.0100099-.1499024z"/><path d="m33.1382942 63.3680229c-.3780174 0-.742569-.2019539-.934166-.5571861-.3510914-.6503983-.668005-1.3370399-.9445267-2.0423279-.2133465-.5457954.0559254-1.1609802.6017208-1.3743248.5457935-.2143822 1.1609783.0569611 1.3743267.6017189.2444153.6255417.5250778 1.2334747.8347435 1.8082695.2785912.5157585.0859604 1.158905-.4298019 1.4364662-.1605262.0869942-.332447.1273842-.5022964.1273842z"/></g><g fill="#fcd462"><circle cx="83.648" cy="47.285" r="3.656"/><circle cx="59.028" cy="21.451" r="3.656"/><circle cx="26.643" cy="43.629" r="3.656"/><circle cx="53.696" cy="73.193" r="3.656"/></g><path d="m77.9361038 56.0150986c-4.9300537 0-8.9300537 4.0100098-8.9300537 8.9300537v12.0400391h17.8600464v-12.0400391c0-4.920044-4.0100098-8.9300537-8.9299927-8.9300537zm-5.6900024 8.9300537c0-3.130127 2.5499878-5.6900635 5.6900024-5.6900635 3.1399536 0 5.6900024 2.5599365 5.6900024 5.6900635v8.7999268h-11.3800048z" fill="#ebf0f3"/><path d="m87.7717514 70.9862137h-19.6737595c-1.3488998 0-2.4423981 1.0935059-2.4423981 2.4424057v17.8422165c0 1.3488998 1.0934982 2.4424057 2.4423981 2.4424057h19.6738358c1.3488617 0 2.4423294-1.0934677 2.4423294-2.4423294v-17.8422928c0-1.3488999-1.0934982-2.4424057-2.4424057-2.4424057z" fill="#e56353"/><path d="m77.9348755 74.2292404c-4.4848099 0-8.1204147 3.6355972-8.1204147 8.1204071 0 4.4849625 3.6356049 8.1205673 8.1204147 8.1205673s8.1204071-3.6356049 8.1204071-8.1205673c0-4.4848099-3.6355972-8.1204071-8.1204071-8.1204071z" fill="#d15241"/><path d="m80.5961838 80.8685532c0-1.46978-1.1915512-2.6612473-2.6613312-2.6612473-1.4697876 0-2.6612549 1.1914673-2.6612549 2.6612473 0 1.1145706.6864853 2.0662231 1.6585846 2.4624939v3.1611099h2.0054092v-3.1611862c.9720307-.3963547 1.6585923-1.3479233 1.6585923-2.4624176z" fill="#2f4859"/></svg>