<svg enable-background="new 0 0 110 110" height="512" viewBox="0 0 110 110" width="512" xmlns="http://www.w3.org/2000/svg"><path d="m56.0550194 63.1863976v-15.9563561h-2.3753586v15.9563561h-26.2882443v16.6174659h2.3753605v-14.2421036h50.2003556v14.2421036h2.3753585v-16.6174659z" fill="#d5d6db"/><path d="m69.3670959 19.9053345h-29.1018676c-1.7506981 0-3.1699295 1.4192333-3.1699295 3.1699276v25.7889729c0 1.7507477 1.4192314 3.1699295 3.1699295 3.1699295h29.1018677c1.7507477 0 3.1699753-1.4191818 3.1699753-3.1699295v-25.7889729c-.0000001-1.7506943-1.4192277-3.1699276-3.1699754-3.1699276z" fill="#ebf0f3"/><path d="m72.5370712 26.0704041v-2.995142c0-1.7506943-1.4192276-3.1699276-3.1699753-3.1699276h-29.1018676c-1.7506981 0-3.1699295 1.4192333-3.1699295 3.1699276v2.995142z" fill="#64798a"/><path d="m41.285851 29.205322h27.060671v6.120866h-27.060671z" fill="#e56353"/><path d="m41.285873 36.936943h7.516853v7.516853h-7.516853z" fill="#44c4a1"/><path d="m51.057762 36.936943h7.516853v7.516853h-7.516853z" fill="#27a2db"/><path d="m60.829647 36.936943h7.516853v7.516853h-7.516853z" fill="#64798a"/><g fill="#ebf0f3"><path d="m67.5891342 22.1595592c-.4566727 0-.8268967.370182-.8268967.8268547 0 .4567089.370224.8268929.8268967.8268929.456665 0 .826889-.3701839.826889-.8268929.0000001-.4566726-.3702239-.8268547-.826889-.8268547z"/><path d="m64.4949646 22.1595592c-.4566727 0-.8268967.370182-.8268967.8268547 0 .4567089.370224.8268929.8268967.8268929s.826889-.3701839.826889-.8268929c0-.4566726-.3702163-.8268547-.826889-.8268547z"/><path d="m61.400795 22.1595592c-.4566727 0-.8268929.370182-.8268929.8268547 0 .4567089.3702202.8268929.8268929.8268929s.8268929-.3701839.8268929-.8268929c-.0000001-.4566726-.3702202-.8268547-.8268929-.8268547z"/></g><g fill="#fcd462"><path d="m91.1655579 72.1331787h-11.1886826c-.6469727 0-1.2334747-.3804169-1.4972687-.9711914h-.0000458c-.2637939-.5907288-.850296-.9711456-1.4972687-.9711456h-5.7206573c-.9055862 0-1.6397552.7341156-1.6397552 1.6397552v.3025818 1.7404861 14.581192c0 .9056396.734169 1.6398087 1.6397552 1.6398087h19.903923c.9055862 0 1.6397552-.734169 1.6397552-1.6398087v-14.6819228c.0000001-.9056321-.7341689-1.6397553-1.6397551-1.6397553z"/><path d="m38.7383614 72.1331787h-11.1886826c-.6469765 0-1.2334766-.3804169-1.4972687-.9711914h-.0000496c-.263792-.5907288-.8502922-.9711456-1.4972687-.9711456h-5.7206535c-.9055862 0-1.6397552.7341156-1.6397552 1.6397552v.3025818 1.7404861 14.581192c0 .9056396.734169 1.6398087 1.6397552 1.6398087h19.903923c.9055862 0 1.6397552-.734169 1.6397552-1.6398087v-14.6819228c.0000001-.9056321-.7341689-1.6397553-1.6397551-1.6397553z"/></g></svg>