<svg enable-background="new 0 0 110 110" height="512" viewBox="0 0 110 110" width="512" xmlns="http://www.w3.org/2000/svg"><path d="m77.0106583 21.9100723h-51.5554619c-2.3184776 0-4.1980228 1.8795452-4.1980228 4.1980801v45.3977756c0 2.3185349 1.8795452 4.198082 4.1980228 4.198082h51.5554619c2.3184738 0 4.1980209-1.8795471 4.1980209-4.198082v-45.3977756c0-2.3185349-1.8795471-4.1980801-4.1980209-4.1980801z" fill="#44c4a1"/><path d="m25.4552193 74.0497589c-1.4028225 0-2.5439796-1.1411591-2.5439796-2.5439835v-45.3974971c0-1.4028225 1.1411572-2.5439777 2.5439796-2.5439777h51.5555458c1.4028168 0 2.5439758 1.1411552 2.5439758 2.5439777v45.3974991c0 1.4028244-1.1411591 2.5439835-2.5439758 2.5439835h-51.5555458z" fill="#ebf0f3"/><path d="m77.0106583 21.9100723h-51.5554619c-2.3184776 0-4.1980228 1.8795452-4.1980228 4.1980801v6.8254185h59.9515076v-6.8254185c-.000002-2.3185349-1.8795491-4.1980801-4.1980229-4.1980801z" fill="#44c4a1"/><g fill="#ebf0f3"><circle cx="73.461" cy="27.627" r="1.821"/><circle cx="66.668" cy="27.627" r="1.821"/><circle cx="59.876" cy="27.627" r="1.821"/><path d="m46.6890564 33.4510765h-15.795887l1.4061279-3.2459106h12.9836312z"/></g><g fill="#4d5c7d"><path d="m44.2121124 47.2885704-1.3599854 5.5800781c-.1799927.7099609-.3200073 1.3399658-.4299927 1.8898926-.1400146-.9599609-.3699951-1.9899902-.6799927-3.0799561l-1.2400513-4.3900146h-1.3899536l-1.6500244 5.8601074c-.039978.1398926-.1699829.6799316-.3900146 1.6098633-.0999756-.5898438-.2199707-1.1799316-.3699951-1.7799072l-.4899902-2.1199951s0-.0100098 0-.0200195l-.8300171-3.5500488h-1.1699829l2.2999878 8.6800537h1.1700439l1.8399658-6.6099854c.0800171-.2800293.1699829-.6199951.2600098-1.0200195.0200195.1199951.1199951.4599609.2700195 1.0200195l1.8299561 6.6099854h1.1100464l2.3799438-8.6800537h-1.1599731z"/><path d="m55.6621246 47.2885704-1.3699951 5.5800781c-.1700439.7099609-.3200073 1.3399658-.4299927 1.8898926-.1400146-.9599609-.3600464-1.9899902-.6700439-3.0799561l-1.25-4.3900146h-1.3800049l-1.6499634 5.8601074c-.0400391.1398926-.1699829.6799316-.3900146 1.6098633-.1099854-.5898438-.2299805-1.1799316-.3699951-1.7799072l-1.3200073-5.6900635h-1.1799927l2.2999878 8.6800537h1.1799927l1.8400269-6.6099854c.0800171-.2800293.1599731-.6199951.25-1.0200195.0299683.1199951.1199951.4599609.2700195 1.0200195l1.8299561 6.6099854h1.1100464l2.3799438-8.6800537z"/><path d="m67.1021271 47.2885704-1.3599854 5.5800781c-.1800537.7099609-.3200073 1.3399658-.4300537 1.8898926-.1399536-.9599609-.3699951-1.9899902-.6799927-3.0799561l-1.2399902-4.3900146h-1.3900146l-1.6499634 5.8601074c-.0400391.1398926-.1699829.6799316-.3900146 1.6098633-.0999756-.5898438-.2199707-1.1799316-.3699951-1.7799072l-1.3200074-5.6900635h-1.1699829l2.2999878 8.6800537h1.1699829l1.8400269-6.6099854c.0800171-.2800293.1699829-.6199951.2600098-1.0200195.0199585.1199951.1199951.4599609.2699585 1.0200195l1.8300171 6.6099854h1.1099854l2.2399902-8.1800537.0100098-.0200195.1300049-.4799805z"/></g><path d="m66.899147 63.490852h3.290292v8.801086h-3.290292z" fill="#2f4859" transform="matrix(.707 -.707 .707 .707 -27.93 68.353)"/><path d="m66.6220856 37.5285606c-2.0899658-2.0899658-4.5299683-3.6298828-7.1299438-4.5999756-4.2300415-1.5899677-8.8900146-1.7099628-13.1800537-.3499756-.3399658.0999756-.6699829.2199707-1 .3499756-.4299927.1500244-.8499756.3299561-1.2599487.5200195-2.1300049.9700928-4.1199951 2.3299561-5.8699951 4.0799561-7.8600483 7.8601074-7.8600483 20.5900879 0 28.4400597 7.4599609 7.4599609 19.3299561 7.8299561 27.2299805 1.1099854.4199829-.3499756.8200073-.7199707 1.2099609-1.1099854.3900146-.3900146.7600098-.7900391 1.1100464-1.210083 6.7199706-7.8898888 6.3499754-19.7698937-1.1100465-27.2299767zm1.9500122 15.3901368c-.0100098.1999512-.0199585.3898926-.0499878.579834-.0200195.2000732-.039978.3901367-.0700073.5800781-.039978.3000488-.0899658.6099854-.1599731.9100342-.0100098.0699463-.0300293.1400146-.0499878.2099609-.0400391.2299805-.1000366.460083-.1600342.6900635-.0200195.0699463-.0299683.1298828-.0499878.1899414-.0700073.25-.1400146.5-.2299805.75-.5200195 1.5900879-1.3000488 3.1199951-2.3200073 4.5200195-.3200073.4299316-.6600342.8599854-1.0400391 1.2700195-.1799927.1999512-.3699951.3999023-.5700073.5999756h-.0099487c-6.3300171 6.3299522-16.5900269 6.3299522-22.9200439 0-.3399658-.3399658-.6699829-.7000732-.9799805-1.0699463-.1500244-.1800537-.2999878-.3701172-.4500122-.5600586-.7199707-.9499512-1.3299561-1.9599609-1.8200073-3-.0099487 0-.0099487 0-.0099487-.0100098-.1400146-.3000488-.2700195-.6099854-.3900146-.9199219 0-.0100098-.0100098-.0200195-.0100098-.0300293-.1199951-.3200684-.2299805-.630127-.3300171-.9500732-.0800171-.2299805-.1499634-.4699707-.2099609-.7099609-.0500488-.1800537-.1000366-.3699951-.1400146-.5599365-.0800171-.3300781-.1400146-.6601562-.2000122-1v-.0500488c-.0599976-.3400879-.1099854-.6800537-.1400146-1.0200195-.0100098-.0600586-.0100098-.1199951-.0199585-.1799316-.0100098-.1201172-.0200195-.25-.0200195-.3901367-.0100098-.1398926-.0200195-.2799072-.0200195-.4199219-.0100098-.1999512-.0199585-.4000244-.0199585-.6000977 0-.2999268.0099487-.5898438.0299683-.8898926 0 0 0-.0100098 0-.0200195.0200195-.3599854.0499878-.7199707.0999756-1.0800781.0100098-.1298828.0300293-.2600098.0500488-.3999023.0299683-.2299805.0799561-.4699707.1199951-.7099609.0999756-.5100098.2199707-1.0100098.3699951-1.5100098.1499634-.5.3200073-1 .5199585-1.4899902.7900391-1.9500732 1.9900513-3.7700195 3.5700073-5.3601074.2000122-.1999512.4000244-.3898926.6000366-.5799561.4099731-.3800049.8399658-.7299805 1.2799683-1.039917.4299927-.3200684.8800049-.6101074 1.3400269-.8901367.4599609-.2800293.9299927-.5300293 1.4199829-.7399902.9500122-.4399414 1.9400024-.7900391 2.9500122-1.0400391.1799927-.0499268.3599854-.0898438.539978-.119873.1400146-.0300293.2900391-.0600586.4299927-.0800781.3200073-.0599365.6400146-.1099854.960022-.1499023.1400146-.0200195.289978-.0400391.4400024-.0500488.5-.0400391 1-.0700684 1.5-.0700684.3099976 0 .6199951.0100098.9299927.0300293.1500244.0100098.3099976.0200195.460022.0300293.1499634.0100098.3099976.0300293.4599609.0500488.4500122.0499268.9000244.119873 1.3400269.2099609.1799927.0400391.3499756.0799561.5299683.1199951.1100464.0200195.2300415.0499268.3500366.0899658.2199707.0600586.4400024.1199951.6499634.1800537.9100342.2698975 1.8100586.6300049 2.6700439 1.0799561.1900024.0900879.3699951.1899414.5599976.3000488.1099854.0599365.2099609.1199951.3099976.1799316.0999756.0500488.2099609.1201172.3200073.1900635.2000122.1199951.3899536.25.5899658.3900146.1900024.1298828.3800049.2600098.5700073.4199219.1600342.1101074.3300171.2399902.4899902.3701172.2000122.1599121.4000244.329834.5900269.5098877.210022.1900635.4299927.3900146.6400146.5999756.6199951.6201172 1.1900024 1.2900391 1.6900024 1.9799805.1199951.1700439.2399902.3400879.3499756.5200195.75 1.1201172 1.3400269 2.3100586 1.7800293 3.5400391.0599976.1600342.1099854.3200684.1599731.4799805.0599976.1600342.0999756.3200684.1500244.4899902.0199585.0700684.039978.130127.0499878.1900635.039978.0999756.0599976.1900635.0899658.289917.0599976.2399902.1199951.4899902.1600342.7299805.0499878.2800293.0999756.5600586.1400146.8300781.039978.1999512.0699463.4000244.0799561.5999756.0499878.4000244.0800171.8100586.0900269 1.2200928.0199585.3999023.0199585.7999268 0 1.1899414-.0000003.1899411-.0100101.3900144-.0300296.5800779z" fill="#4d5c7d"/><ellipse cx="52.4" cy="51.75" fill="#27a2db" opacity=".25" rx="16.217" ry="16.217" transform="matrix(.585 -.811 .811 .585 -20.221 64.001)"/><path d="m71.5509644 64.8847885-6.0132828 6.0132828c-.2923203.2923203-.2923508.7662735-.0000305 1.0585938l15.9139481 15.9139481c.2923889.2923889.7664108.2924194 1.0587311.0000992l6.0132828-6.0132828c.2923203-.2923203.2922821-.7663422-.0001068-1.0587311l-15.9139406-15.9139481c-.2923202-.2923203-.7662735-.2922821-1.0586013.0000381z" fill="#474c5b"/><path d="m72.618439 69.76648h1.252874v13.778918h-1.252874z" fill="#fff" opacity=".5" transform="matrix(.707 -.707 .707 .707 -32.751 74.244)"/><path d="m81.257729 83.031311h1.252874v4.527821h-1.252874z" fill="#fff" opacity=".5" transform="matrix(.707 -.707 .707 .707 -36.33 82.883)"/></svg>