<svg enable-background="new 0 0 110 110" height="512" viewBox="0 0 110 110" width="512" xmlns="http://www.w3.org/2000/svg"><path d="m16.2971306 33.6705017v43.4309616c0 2.9960938 2.428894 5.4250488 5.4251099 5.4250488h58.1133461c2.9962158 0 5.4251099-2.4289551 5.4251099-5.4250488v-43.4309616z" fill="#ebf0f3"/><path d="m85.2606964 34.1432152v-8.1381855c0-2.9960938-2.428894-5.4250488-5.4251099-5.4250488h-58.1133461c-2.9962158 0-5.4251099 2.4289551-5.4251099 5.4250488v8.1381855z" fill="#e56353"/><g fill="#ebf0f3"><path d="m64.1814346 25.4088383c-1.1791992 0-2.1350708.9560547-2.1350708 2.1351318s.9558716 2.1351318 2.1350708 2.1351318c1.1791382 0 2.1350098-.9560547 2.1350098-2.1351318s-.9558716-2.1351318-2.1350098-2.1351318z"/><path d="m70.7121964 25.4088383c-1.1791992 0-2.1350708.9560547-2.1350708 2.1351318s.9558716 2.1351318 2.1350708 2.1351318c1.1791382 0 2.1350098-.9560547 2.1350098-2.1351318s-.9558717-2.1351318-2.1350098-2.1351318z"/><path d="m77.2429581 25.4088383c-1.1791992 0-2.1350708.9560547-2.1350708 2.1351318s.9558716 2.1351318 2.1350708 2.1351318c1.1791382 0 2.1350098-.9560547 2.1350098-2.1351318s-.9558716-2.1351318-2.1350098-2.1351318z"/></g><path d="m63.5892639 67.2710114c-.2954369-.5361404-.2398453-1.2208939-.0757942-1.7715378.4276085-1.4354858 1.5652199-2.5285797 2.0836678-4.002285-.3013077-3.8423157-.8231201-7.7387543-.3510284-11.5763054.0300217-.2441788.124649-.443512.255249-.6035156-2.7534142-5.3298111-8.3110352-8.9757996-14.7237282-8.9757996-9.1494179 0-16.5664787 7.4170952-16.5664787 16.5665474s7.4170609 16.5665474 16.5664787 16.5665474c5.1911888 0 9.8227425-2.3892746 12.8602753-6.1262817-.015976-.0265427-.0331689-.0493546-.0486413-.0773697z" fill="#ededed"/><g fill="#27a2db"><path d="m67.3466721 56.9067879c0 4.2762222-1.621994 8.1756172-4.2816582 11.1083412-.0163994 0-.0327988-.0054626-.0546646-.0054626-.1255989-.0054703-.2402649.120163-.2893982.2129974-.0436668.0873642-.0600662.1802292-.1038017.2621307-.5351982.5570679-1.1141319 1.0758972-1.7311974 1.5455627-.0437317-.0054626-.092865-.0054626-.1419983-.0109329-.1966667-.0163651-.2294006.0982971-.3167992.2457657-.1037331.1638336-.2730675.3222351-.4587326.3986664-.2129974.0874023-.4532661.1256332-.6771965.1693039-.1420021.0273285-.2020683.0382309-.2512016.1856995-.0327339.0873642-.0491333.1911316-.0600662.2839966-.2675972.1529007-.5351982.3003616-.8137321.4368973.0109329-.3932343.267601-.7154312.2840004-1.1141281.0054665-.0873718-.0163994-.1856689.0054665-.2730713.021801-.1037598.0818672-.1255951.1201324-.2129593.0436668-.1092377.1037331-.3386002.0109329-.4260025-.1255989-.1146698-.2949295-.1146698-.3331985-.322197-.0109329-.0601044 0-.1092377.0054665-.1747665.0109329-.1911697.0163994-.4150696-.0545998-.5952988-.0600662-.1529007-.2403336-.2348328-.3986664-.2238998-.1529312.0054626-.289463.1037674-.4368629.0491333-.0765343-.027298-.1147346-.1146698-.1912003-.1419983-.0709991-.0218353-.1201324-.0109024-.1911354-.0109024-.1911316.0054626-.3877983.0163651-.5788651.0054626-.1474648-.0054626-.2785301-.0655289-.4150658-.1146927-.2075996-.0655365-.2567329-.1638336-.3659325-.3167725-.0873985-.1255951-.1965981-.2129974-.2785301-.3385925-.0272675-.0382385-.071003-.0764694-.0983353-.1146698-.0436668-.0709991-.0436668-.1474686-.0764008-.2129974-.0655975-.1201706-.2185326-.1638336-.2621307-.3003693-.0382652-.1147003-.0163994-.2730637 0-.387764.0108681-.1037674.0928001-.2621307.0435982-.3550034-.0545311-.1037598-.2238655-.0709991-.311264-.0709991-.1911316.0109329-.2621346.0601044-.3713989.223938-.0764008.1146622-.1310654.2020645-.1365318.3386002-.0054703.0982971-.021801.2402954.0054665.3331299.0327988.1365356.1911964.1692963.2567329.2894669.0764656.1419983.0327301.3167343.0983315.4587326.0600014.1256332.0600014.2020645.0709343.3386002.0382652.2730637.2949333.3276978.5242653.3222275.0929337-.0054626.3495979-.0491638.4205322.0437012.071064.0928345.0163994.3549652.0163994.4587326 0 .0928345.0163994.1966019-.0054665.2839966-.0327339.1365356-.1419983.2238998-.2347984.3167725-.1584015.1583633-.2621346.2457275-.4752007.3440323-.1473999.0709991-.3003311.1747665-.4641304.1856995-.1693344.0054626-.3167992.0600662-.4861336.0873642-.1856003.0273361-.3877335.0273361-.5733986.0709991-.1201324.0327682-.2184677.10923-.3440666.120163-.0764656.0109406-.1474648.0054703-.2238655.0054703-.163868-.0054703-.4205322.0327682-.5898666-.0054703-.0819321-.0218277-.1638641-.0982971-.2402649-.1310654-.0873985-.0382309-.1748009-.0600967-.267601-.0655289-.1802635-.0054703-.3823318-.0164032-.5570641.0382309-.1802673.0546036-.453331.1474304-.6335335.0382004-.0873985-.0491333-.0709991-.0600662-.1147308-.1419678-.0382004-.0600967-.0928001-.0983276-.1420021-.1529312-.0545311-.0491638-.18013-.1529007-.1855965-.2293625-.0054665-.0491714.0490646-.0983047.0709305-.131073.0874023-.1310959.1857338-.2566986.267601-.3932266.1310654-.2075348.2675972-.3495331.3058662-.6007385.0273323-.163826 0-.2949295-.038269-.4478302-.0763969-.2894669-.0491333-.5788956-.0491333-.8738327 0-.1692963-.0381966-.3713608.0327339-.5242615.0437355-.0983047.1256676-.1638336.1474686-.2730637.0491982-.2130051.0109329-.4860687.0109329-.7045364 0-.1747284.0819321-.5515671-.1201324-.6170959-.3058662-.1092377-.4696655.1747284-.4532661.4368973.0108643.2075348-.0928688.3604355-.1038017.5625-.0054665.1584015.038269.3331299-.0163994.4860611-.0599976.1529388-.2129326.2184677-.2893982.3495331-.0655327.1256027-.0218658.3113022-.0218658.4478378.0054665.1801987-.0163345.3003616-.0874023.4641953-.065464.1529312-.1747322.2839966-.2074661.4533005-.0601311.2730637.0054665.5242615.0054665.8082657.0108681.2566986-.0218658.5515976-.1911964.7536621-.0982666.1201324-.1420021.1474686.0054665.2457657.2184639.1310654.4369316.2511978.6771965.3440704.163868.0600662.3440666.1146622.4969978.2020645.1420021.0873642.267601.0709991.4314003.10923.1966667.0491333.3932648.1146698.5844002.174736.0819321.0273361.3167992.0163956.3440628.092865-.1474648.1966019-.2730637.2348328-.5024643.2511978-.218399.0218658-.3877335.0601044-.589798.1419983-.152935.0655365-.2730675.1474686-.4041328.251236-.1801987.1529007-.3222008.2238998-.567997.2238998-.2348671 0-.4368668-.0163651-.6662674.0600967-.2785301.0983047-.5243301.2184372-.8301315.2348328-.3986664.0109024-.8191986-.0764618-1.2069283.0109024-.3549995.0764694-.6826668.0709991-1.0431328.0709991-.0928001 0-.1802673.0054703-.2730675 0-.2347984 0-.5351982-.0655289-.7536621.0546341-.0327339.0163651-.0655327.0382309-.0928688.0600662-2.8179932-1.0704269-5.2646523-2.8944931-7.0997162-5.2264862.1092644-.0764694.2239342-.1638336.2894669-.2785339.0491982-.0873642.0437317-.1419983.0709991-.240303.0436668-.163826.1256676-.2566605.1202011-.4368973-.0054703-.1583633-.0656013-.294899-.0928688-.4478302-.0218658-.1419983-.0327339-.4751358.0983353-.5734329.0818634-.0655289.2730637-.0382309.3713303-.0600662.1037331-.027298.2075348-.0874023.3003998-.1419983.2457314-.1474686.2347984-.294899.1419983-.5406647-.0491982-.1256332-.0546646-.251236-.0874634-.3768311-.043602-.1584015-.1528664-.2730675-.2402687-.4041367-.1310654-.1966324-.1529312-.3986969-.218399-.6225967-.0218658-.0874023-.0491982-.2239342-.1201973-.2949333-.0327339-.0327682-.0874023-.0545998-.1256027-.087368-.1310654-.1147003-.1692657-.3058319-.2512665-.4587631-.0818634-.1583672-.1637993-.3112679-.2839317-.4423676-.1692657-.1747322-.3276634-.3494987-.4860649-.5406647-.0982666-.1201324-.229332-.2075348-.3222656-.3222008-.0818672-.1037636-.1037331-.2293968-.1746674-.3276978-.0820007-.1091995-.1583977-.1583672-.2130661-.3003654-.114666-.3003654-.3276634-.6280327-.3603973-.9611969-.0328026-.3113022-.0054665-.6498985 0-.9612007.0054665-.1911316.0218658-.3986664.065464-.589798.0273361-.1256332.0765343-.2566986.1420021-.3659325.0163994-.0218315.0874672-.1255989.0929337-.1638336.0217972-.1255989-.0328026-.2621307.0053978-.3986664.0382004-.1037636.1147346-.1583633.1911316-.2348328.1201363-.1256332.2840004-.2621651.3877335-.404129.0929337-.1256332.1092682-.2785339.1748009-.4150658.0873985-.1584015.2347984-.2239342.3877335-.3058357.1255989-.0764656.2130661-.1037636.3550644-.092865.2129326.0163994.3494644-.0819016.5133324-.2184334.1037331-.0873985.1856651-.1747665.2511978-.2785339.038269-.0600662.0600662-.1474648.1091995-.2020645.1038017-.1255989.2730675-.2566986.4424019-.267601.1529312-.0054665.3003998.0054665.453331-.0163994.1255989-.0163651.2457314-.0491333.3713341-.0655327.1802635-.0218315.3658638 0 .5515976-.0054665.1748009 0 .3222008-.0218315.4914665.0327682.4314651.1638641.7755966.4532967 1.2287979.5570641.2403297.0545998.4915962.0273018.7318649.0709991.1091995.0163994.1911316.0163994.300396-.0109329.1638031-.0491333.3276024-.1255989.4914665-.027298.0710678.0382309.1255989.1146965.1912003.1583633.0764008.0491676.1583328.071003.229332.1201668.114666.0764656.2184677.1966019.3058662.3112984.1255989.1747665.2621346.3386002.3931999.5024338.0764656.1092339.1310654.2621346.2238655.360466.0983353.1037674.2730675.114666.3877983.2075005.1310692.1092339.1528664.3003998.3386002.3440666.1201324.0327644.2238655.0382309.3440666.092865.1092644.0382347.2512665.0491333.3222008.1474342.1310654.180233.1365318.4150658.3113289.5788956.2402687.2184677.5788689.5079346.496933.8738327-.0709305.3003654-.322197.5461311-.4041328.8410301-.0381966.1201668-.0491333.2239342-.0218658.3386002.0218658.0709991.0656013.1310692.0820007.2075348.0163345.1147003-.0109329.2402992.021801.3549995.0327339.1037636.1092644.207531.1637993.3058319.0929337.1638336.1693306.3331337.2567329.4969635.0983315.1856995.2512665.3222351.4641991.3713684.1529312.0327644.2457314-.087368.4041328-.0327682.0983315.0327682.2621307.1201668.3058662.2294006.0273323.0873642.0054665.3768311.0163994.4204979.0217972.152935.0545311.3549995.1310654.4915314.114666.2020683.3222008.3113022.5297318.3986664.1584015.0655327.3494644.1037674.4860001.2184677.1474648.1255989.1747971.2894325.2512665.4532967.0983315.2020683.3276634.2457352.5024643.3658981.1255989.0928345.2129326.1966019.382267.2238998.2239304.0273056.5187988.0437012.7481956.0109329.1584015-.0218277.3003349-.1255951.4587326-.1529312.1693344-.0382004.3659325-.0982971.4150658-.2894325.0273361-.1147003.038269-.3658981-.0054665-.475132-.0382004-.1201668-.1965332-.1419983-.2949333-.2020645-.1473999-.0874023-.2675972-.1638336-.4368629-.2020683-.0764694-.0163994-.1528664 0-.2294006-.0327644-.1747322-.0655327-.3604012-.2894669-.5023994-.4150658-.1419983-.1256332-.207531-.2348328-.2129974-.4259987-.0109367-.1310692-.0327339-.3386002.0436668-.4532661.2348633 0 .453331-.0054665.6771965.0545998.2239342.0545998.4369316.0928307.6607971.0982971.2021332.0054665.4533348-.0218315.5898666-.2020645.1419983-.2020645 0-.5297661.2402649-.6772003.2021332.2566681.3768654.4969673.524334.7864342.1310654.2511978.2294006.4805984.5188637.5624962.1310692.0327682.7863998.0983009.7426682-.1965981-.0109367-.1037674-.2238693-.1965981-.2785339-.267601-.1692657-.1965981-.2894669-.4478302-.3275986-.6990623-.038269-.2184334-.1256676-.2184334-.2894669-.3440666-.1201324-.0928345-.1748009-.2348328-.2949333-.3331337-.1474648-.114666-.2511978-.2402992-.3277321-.4095993-.0654678-.1419983-.021801-.4259644-.1310654-.5297318-.0818672-.0764656-.2840004-.0491676-.3877335-.0491676-.1310654-.0218315-.2402649.0164032-.3276672.1092339-.1147308.1092339-.2403336.1966019-.3768654.2621346-.0982666.1092339-.0545311.2730637-.0545311.4041328.0054665.1474648.0327301.2839966-.0437355.4095993-.114666.180233-.5242653.3659325-.7263985.3276978-.1856003-.027298-.1801338-.1856995-.2511978-.3222313-.0654678-.1037674-.1365318-.2020683-.2129326-.3003654-.1038017-.1529007-.2458-.2348328-.4259987-.2348328-.0819359.0491638-.1038017.1201324-.0601349.2020645 0 .0273018 0 .0437012-.0054665.0709991-.0327339.0983009-.3658638.2785339-.382267.2840004-.1474648.0491333-.3058662.1091995-.343998-.0709991-.0054665-.0546341.0054016-.1256332.0054016-.180233.0054665-.2238998.0491333-.3823013.2293968-.5188332.1911354-.1474342.3167343-.2238998.3386002-.4860649.0163345-.2238998.0108681-.4423676.0873985-.6662674.0218697-.0764656.0600014-.1638298.0764008-.2457657.0273323-.2020645.038269-.4095993.038269-.6171303 0-.1420021.0545998-.4532661-.0982666-.5406647-.049202-.0054665-.0929337-.0163689-.1420021-.0218353-.071064 0-.1037979.0327682-.0983315.0928345-.0709991.0928307-.0436668.1583672-.1801987.2020645-.1038017.0382347-.3986664.0983009-.4970016.0163994-.0491333-.0382309-.0382004-.1146965-.0382004-.1692963v-.3714027c0-.1091995.0490685-.3167305-.0109329-.4259644-.1474648-.2348328-.5133972 0-.6608658-.180233-.0983315-.114666-.0272636-.3112984-.1201324-.4423637-.0764656-.1092339-.2129974-.3167686-.3713989-.294899-.0491333 0-.0928001.0600662-.1310654.0709991-.0764008.027298-.2019997.0163651-.2621346 0-.0491333-.0109329-.0982666-.0382347-.1419983-.0601006-.0982666-.0327682-.1856651-.0273018-.2894669-.0273018-.1910667 0-.3877296-.0108986-.5843315 0-.1965981 0-.3713989.0874023-.5679321.0983009-.3058662.0054665-.3113327-.1529007-.4423981-.3768311-.1091995-.1747322-.2840004-.2730675-.3877335-.4423676-.1310654-.2184334-.2621307-.4477997-.3768654-.682663-.0764656-.1638336-.1965981-.3494987-.2239342-.5297318-.0491333-.251236.3167992-.152935.4642677-.2184677.1637993-.0764351.311264-.267601.4695969-.3331337.1474686-.0491333.3222656-.0545998.4752007-.0545998.1365318-.0054665.3986664-.0709991.5242653.0163689.0545998.0382309.0491982.0982971.0764656.1474648.0709991.1419983.1747322.2457657.2294006.3931999.0491333.1474648.1091995.2785301.1529312.4259987.043602.1255989.1310692.2293663.2621346.2894325.1692657.0709991.3603973-.0218353.5187988-.1037674.0982666-.0545998.2785339-.1638336.3440666-.2621307.0655327-.0983009.0382004-.180233.0491333-.2840004.0109329-.1201324.0491982-.1529007.1037331-.2457314.0819969-.1474686.1747971-.4915352.4150658-.4260025.1201324.0382347.2512665.2020683.360466.267601.1365318.0873985.2348633.1856995.3659325.2894669.0982666.0709991.2020645.1856651.3113327.2348328.1201324.0545998.3549309.0382309.4805298.0218315.1966667-.0218315.360466-.1310654.5297318-.0054665.1310692.1092339.2185326.1856995.3823357.2348671.092865.0273018.2020645.0491333.3003311.0600662.163868.0218353.1474648.0163651.2185326-.0873985.0928001-.1419678.1365318-.2184334.3111992-.2566681.163868-.0382309.3003998.0109329.4259987.0983009-.0709343.1474648-.1529312.294899-.2457314.4314308-.0437355.0928688-.038269.1693001.0273323.2348328.0545998.1474686.1747322.2840004.2238655.4424019.0437355.1037331.049202.1747322.049202.2839661-.0054665.1747665.0382004.2402992.1529312.3495293.1255989.1256027.2402649.2293663.3986664.3003693.1856651.0764656.311264-.0109329.4641991-.1037674.2239342-.1474342.3222008-.4150658.6171303-.4041328.2020683.0109329.5461349.0819321.7154655-.0545998.1365356-.1092339.0873337-.3058319.1091995-.4587669.0163994-.1419983.0327339-.2457657.0327339-.3822975.0054665-.2894325.2458-.3713646.4860649-.447834.360466-.114666.7809334-.2511978.8520012-.67173-.316803-.0983009-.7645988-.0491333-1.0649986.1037674-.2184677.1146965-.3986664.3604317-.5843315.5188293-.0983353.1092339-.2184677.1856689-.3549995.2293663-.0983353.0382347-.1911354.0819359-.2894669.1310692-.1419334.0982971-.2566681.2621651-.4477997.2785301-.1091995.0109329-.2457314.0054665-.3495331 0-.6171303-.0218315-.1365318-.6171303-.1092644-.9338951.0109329-.1966019-.021801-.2949028-.2019997-.3222008-.1255989-.0163994-.4150658-.0709991-.4259987-.2566986-.0054665-.1474342.1911316-.2238998.2839966-.3003654.1638031-.1529007.2894669-.354969.4641342-.4915009.2949333-.2402992.7482643-.1474648 1.1086655-.1474648.2293968.0054665.4423981-.0491676.6662636-.0491676.2894669.0054665.5789337-.0054321.8683968 0 .0600662-.0054321.1201324 0 .1802673.0109329.0709343.0491676.1528664.0873985.2402649.1147003.1201363.0382309.2457352.0218315.3713341.0218315.1529312 0 .3113327-.0054665.4587975.0273018.163868.0382309.163868.1365318.1420021.2894669-.0163994.0982971-.038269.2020645-.0546684.3003654.0218658.0873642.0710678.1474648.152935.1911316.1365318.1365318.1747971.2949333.2785301.447834.0328026.0655327.0874023.0982971.1584015.10923.0982666.071003.1911316.1474686.2785339.2293663.114666.1037674.2019997.2130013.3658638.2294006.2730675.0218353.5515976-.0054665.8246651-.0054665.1037331 0 .2566681.0327682.3549995-.0054665.0709991-.0218315.1202011-.0764656.1474648-.1474648.0764694-.071003.1637993-.1310692.2512016-.1911354.2184639-.2457657-.0108681-.6608315.2458-.8956642.2074661.1420021.0163994.3986664 0 .5570679-.0109329.0982971.0054665.2348328.0109329.3385963.0109329.1529007.1201324.2621346.2129326.3713684.0873985.10923.2894669.3058319.453331.2129974.1255989-.0764656.1474686-.3386002.1966019-.4587669.0655327-.1474304.1365318-.2621307.2403297-.3877296.218399-.2621689.4860001-.4860649.649868-.7919006.0818634-.1583977.0545998-.3549995.1365318-.5078964.0436668-.0874023.1037331-.1256332.1310654-.2239342.0491333-.1856651 0-.4696655 0-.6662636-.0054665-.0983009.0054665-.1856995.0273323-.2785339.0490685-.1856995.1037331-.4095993.1910667-.5843658.2403336.0491676.3823318.267601.6117325.3112984.152935.0273018.3331337-.0054665.4860001 0 .0601311 0 .1583977.0218353.2130661-.0163994.0927963-.0709991.1419983-.3112984.1528625-.4150314.0109329-.1693344-.005394-.3495331-.005394-.5133667 0-.1474648-.0109329-.2949333-.0054703-.4369316.0108643-.1365318.0490646-.2457314.1256027-.3549652.0709305-.092865.1801987-.1365318.2129288-.2566986.0437317-.1693001.0218658-.4423676.0109329-.6225662-.0109329-.1092339-.0382004-.2130013-.136528-.2840004-.0655365-.0546341-.1801987-.0655327-.2402649-.1310654-.1037369-.1037674-.0656052-.2730675-.0601349-.4095993 0-.1419983-.0054703-.2730675-.0054703-.4205322 2.0425943 2.7524947 3.2495264 6.1658209 3.2495264 9.8522109z"/><path d="m63.1212959 46.2523308c-.0761986-.0264053-.1436005-.0849304-.2198029-.1025314-.0585976-.0117378-.1230659.005867-.181736-.0146713-.0762024-.0264015-.0995979-.0761986-.1436043-.1377335-.0849304-.1143379-.2286034-.181736-.2286034-.3312073-.002861-.0644646-.0175285-.1581955-.005867-.2198029.0146675-.0703316.0791359-.1083984.0967369-.1757965-.0527306-.1026039-.3487358-.0469398-.4396057-.0146713-.0937309.0322723-.164135.0762024-.2695999.0556679-.1348038-.0292625-.2520714-.1699333-.3428688-.2666664-.0469398-.0556679-.0820694-.1524048-.1465378-.1905403-.1026039-.0586014-.2344704-.0644684-.3400078-.1230659-.1348-.0732689-.2695999-.1582718-.3546028-.2872047-.0527344-.0732651-.0967369-.152401-.1553345-.2256699-.0820694-.1025314-.2022018-.1436005-.3048058-.2227364-.0586014-.0468636-.1054649-.1084709-.1612015-.158268-.1201363-.1054649-.2520027-.0995979-.3926697-.1641388-.0879364-.038063-.152401-.0878639-.2286034-.146534-.0908699-.0702629-.1788063-.1113319-.2872047-.152401-.1670685-.0643959-.3165398-.1318703-.4601402-.2373352-.0615311-.0440025-.0967369-.0732651-.158268-.0937996-.1318665-.0380669-.2168694-.1289368-.3311348-.1963348-.0879364-.0528069-.1641388-.0967369-.2462044-.1582718-.0674019-.0556641-.1260033-.0732651-.1612053-.152401-.0233955-.0498009-.0351295-.1612015-.0878639-.1846008-.0440025-.0205345-.0938034.005867-.1436729-.017601-.0937309-.046936-.143528-.1172714-.2022018-.1993408-.0527306-.0732651-.0966644-.0819931-.1728668-.1201324-.0820656-.0381355-.1553345-.0937996-.2315369-.140667-.128933-.0732689-.1348-.1875343-.170002-.3253403-.011734-.0497971-.023468-.0995979-.0351295-.149395-1.8170242-.6828766-3.7835846-1.0580177-5.8380127-1.0580177-.926075 0-1.8316917.0762024-2.7167664.2227364-.0028648.005867-.0087318.011734-.0145988.017601-.05867.0556679-.1114044.0850029-.1260719.1699333-.011734.0762024.011734.158268.005867.2344704-.005867.0644684-.032196.1758728-.0908699.2139359-.0439301.0264015-.140667.0264015-.1933975.046936-.0703354.0263329-.1289368.0761299-.1846008.1230659-.0557365.0439339-.1260719.0644684-.1670723.1230698-.041069.05867-.046936.1319389-.0556641.2022018-.0146675.0879326-.0381355.140667-.0967369.205204-.0791359.0878639-.0585976.1934013-.0205345.3048058.041069.1113319.1172714.2167969.1905403.3076668.0497971.064537.0439301.05867.0644646.1202049.0205345.0497971-.0088005.026329.0439339.0615311.1026001.0674019.2344704.0088005.3341408.0908699.0439301.0351334.0732651.0819969.1230659.1113319.0439301.0264015.0849991.0321999.128933.0586014.0938034.0527306.1348.2051353.1934013.2930679.05867.0938034.029335.1670723.0440025.2725372.023468.1846733.1758003.2198029.3487358.2344704.0791359.0088005.1846733-.0205345.2608719.005867.0321999.0088005.0966644.0820694.1054688.0879364.0381355.032196.1259995.0703354.146534.1171989.011734.0205345 0 .064537 0 .0820694-.005867.0674706.0029335.2051353-.0586014.2579384-.0205345.017601-.0996704.038063-.1201324.0468636-.0703354.0322723-.2315369.0732689-.2726059.1377373-.0527344.0732651.005867.164135.0440025.2286034.0586014.1026039.1025314.1612015.2286034.1846695.0498009.011734.1142654.0204659.1640663-.0029335.0498695-.0264015.0761986-.0820656.1290054-.1026039.0468636-.0205345.1054649-.0233955.1553345-.0322685.0468674-.008728.0907974-.014595.1259995-.0497971.0292664-.023468.0439339-.0703354.0732689-.0908699.0556679-.0439339.3663368-.0761299.3927383-.011734.0321999.0674706.0028648.2345428-.041069.2902069-.0556641.0674019-.1054649.0732689-.1084709.1669998-.005867.1729355.0762749.2520714.1378059.4015388-.19347.1582718-.4044724.1142693-.6301422.1201363-.0732689.0029335-.1670723.017601-.2256699.0616035-.0674019.0498009-.0556679.1083984-.0233994.1728668.0468674.0996704.1201363.2198029.1875343.3048019.0381355.0498009.0820694.1026039.1436043.1201363.1113319.0322685.2667389.011734.3810043.0088005.1494675-.0029335.2930717-.0410004.4425392-.0263329.1026039.0116653.2637329.0732689.3487358-.0146675.035202-.035202.0439339-.0996704.0820694-.1318665.0409966-.035202.0996704-.0322685.1494675-.0322685.0995979.0029335.1377335-.0029335.2110023-.0703354.1230659-.1055374.2930717-.046936.4337387-.1026039.0498695-.017601.0850029-.0468636.1377335-.0644646.0703354-.0233994.1406708-.0205345.2139359-.0205345.1114044 0 .2256699.023468.3282738-.0292664.0380669-.0205345.0615349-.0468636.1054649-.0557365.0498695-.0116653.1084709.003006.1612053.003006.0673981-.003006.1231384-.0146713.187603-.0293388.1083984-.029335.2255974-.035202.3164673-.0996666.1026039-.0732689.0820694-.2080688.0791359-.3252678-.0029335-.0498734-.0029335-.0908699-.017601-.1377373-.0175323-.0556641-.0586014-.0967369-.0702629-.1494675.2695999-.035202.5480042.0116615.8205376-.0205345.1817398-.023468.4366722-.2198029.3341408-.4190712-.035202-.0616035-.0879326-.1318665-.152401-.164135-.0762024-.0351334-.1817398-.0088043-.2638054-.0088043-.0966644.0029373-.2344704.0264053-.3223343-.026329-.1202049-.0791359-.1729393-.2374039-.3341408-.2579384-.1054649-.0146675-.2139359-.0468674-.3106728-.1026039-.0556641-.032196-.1025314-.0820694-.137661-.1348-.0410728-.0615349-.0498734-.0791359-.0205383-.140667.0410004-.0820694.1612053-.1289368.2403412-.1641388.0732651-.032196.1171989-.0351295.196331-.038063.0703354 0 .1465378.0146675.2139359-.0146675.0556679-.0234718.0586014-.0439339.0995979-.0850029.0996704-.0995979.3898087-.0556679.5187416-.0498009.1172714.0029335.2403374.023468.3546028.011734.0410728-.005867.0908699-.029335.1319389-.0264015.0732689.005867.1260033.0703354.1758003.1114044.0557365.0468674.0879364.0732689.1612015.0615349.0791359-.0146675.1553383-.0498009.2403412-.0322685.0937996.023468.1142654.1231346.1553345.1933975.0439301.0732689.0995979.1172714.158268.1729393.1171989.1055374.1640663.181736.1669998.3429413-.1494675.0819969-.4073372.1113319-.5011406.2519989-.0497971.0732689-.0703316.2051353-.0585976.2901382.0264015.2256699.3282013.2462044.5099373.2403374.0938034 0 .2198029-.0264015.3106728 0 .0850029.026329.1113319.1054649.1641388.1669998.0702629.0821381.1377335.1143341.2402649.1202011-.1201324.2402687-.4454727.4513435-.7180099.4337387-.1612015-.011734-.3136024.0176048-.4660072-.0644646-.0819969-.0440025-.152401-.0879364-.2080688-.1641388-.032196-.0439301-.0409966-.0585976-.0995979-.0644646-.046936-.005867-.1964035-.0146675-.2462044.005867-.0351295.0146675-.0644646.0556641-.0938034.0761986-.0703316.0468674-.170002.0556679-.2109985.1406708-.0410004.0820656-.0468674.2051353-.0498009.2960014-.005867.1963348.1113319.2578697.2813377.2813377.1171989.017601.2286034.0615349.3458023.0674019.05867.005867.1202049-.0029335.1788025-.0029335.1406708 0 .3077393-.0233994.4454727 0 .0762024.0146675.1348038.0585976.2110023.0820656.0937309.0321999.1816673.029335.2842712.0321999.1025314.003006.1670685.01474.2666664.052803.0732689.029335.128933.0380669.2080688.0380669.3604698-.0087318.7210121-.0028648 1.0814857-.0028648.140667 0 .2842674.0087318.4249382 0 .0409966-.003006.1201324-.0322685.1553345-.003006.0351295.0352058.0527344.1436768.0762024.1876068.0292625.0586014.0468636.0879364.0439301.152401-.0029335.0556679-.0088005.1084023.0029335.1641388.011734.0732651.0527344.140667.0556679.2167969.005867.1260719-.0057983.1348724-.0907974.2315369-.0586739.064537-.1612053.0820694-.2374039.1319389-.0732689.0468674-.1171989.0878639-.2080688.0966644-.0703354.005867-.1378059.0029335-.2080688 0-.1582718-.0029335-.3224068.0205345-.4806747.011734-.0850029-.0029335-.1846008-.0264015-.2637367-.0556641-.0938034-.0322723-.1670685-.0410004-.2608719-.0440063-.1230659-.005867-.2168694-.038063-.3223343-.0907974-.1026039-.0498695-.2198029-.1026001-.3341408-.1114044-.0762024-.0029335-.1083984-.023468-.1729355-.0673981-.0292664-.0204659-.0643959-.0410004-.0937309-.0674019-.0146713-.0146675-.0556679-.0732651-.0791359-.0849991-.1026039-.0439339-.1904678.046936-.2520714.1172676-.0966644.1084023-.1875343.2168694-.2901382.3223343-.0468636.0469398-.0819969.0879364-.1494675.1026039-.0615349.011734-.1669998.005867-.2314682-.0029335-.0879326-.017601-.152401-.0879326-.2286034-.1377335-.0908661-.0615349-.1612015-.0938034-.2696724-.0938034h-.5011368c-.0850029 0-.1728668 0-.2578697-.0029335-.029335 0-.0820694-.011734-.1084709 0-.0791321.0264015-.1377335.1817398-.158268.2520714-.0674019.2403374.1026039.4806061.2696724.6359406.0292664.0264015.0615349.0644684.1025314.0820694.052803.023468.1202049.017601.1700058.0468636.1171989.0703354.1084709.2286034.2550049.2550087.1875343.0351295.5011368.0116615.5919342.2286034.017601.0409966.0146675.0937309.0322723.1377335.023468.0674019.0615311.1054649.1054649.1612015.0616035.0791359.052803.1699333.1143379.2549362.0995979.140667.2578659.2462044.3780708.3692703.0820694.0850029.1611328.140667.2754669.1700058.2227364.0585976.4864731.023468.7121429.026329.152401 0 .2930717-.0292664.4484062-.0292664h1.9958267c.0850029 0 .1436005.0146713.2080688-.041069.0791359-.0703316.128933-.1904678.152401-.2901344.011734-.0586014.0205345-.1260033.0146675-.1875343-.0088005-.0850029-.0468636-.1377335-.0849991-.2110023-.0644684-.128933-.0264053-.3077393-.0293388-.4513397 0-.1143379 0-.1436005.0616074-.2432709.020462-.0263329.0292625-.0498009.0497971-.0762024.0644684-.0762024.1641388-.0938034.2432709-.152401.0878639-.0644684.0819969-.1348038.0791359-.2344704-.003006-.1054649-.003006-.2109337-.003006-.3194008 0-.0528069-.0116615-.1172028-.002861-.1700058.020462-.1201324.1083984-.170002.0878639-.3018723-.0029335-.032196-.0292625-.1875305-.0732689-.2286034-.020462-.020462-.1054649-.032196-.1230659-.0409966-.0850029-.0381355-.2022018-.1318665-.2080688-.2315369-.005867-.0907974.0762024-.2344704.0879364-.3311348.0057945-.0616074.0029335-.1259995.0029335-.1876068 0-.0907974.002861-.1875343 0-.2813339-.0029335-.2139359-.2374039-.2403374-.3810043-.3546066-.0527344-.0409966-.1406708-.1231384-.1582718-.1933975-.017601-.0791359.0762024-.1641388.1348038-.2110748.0849991-.0674019.152401-.0644684.2520714-.0615349.0791321.0029335.184597-.026329.2549324.0146675.2080688.1172714.1259995.4484062.1259995.6388741 0 .0791359-.026329.2139359.003006.2902107.026329.0643921.1171989.1230659.1640663.172863.0644646.0674019.1084709.1026039.2080688.1143379.0732651.0116653.158268.0145988.2344704.0087318.0996704-.0058708.1729355-.0439339.1729355-.1493988-.0029335-.1026039-.0498695-.2081413-.1348-.2638054-.0967369-.0674019-.1553345-.1260033-.2110023-.2315369-.052803-.0966644-.0322685-.2022018-.0322685-.3106003 0-.0528069-.029335-.1876068.023468-.2256699.0409966-.0264053.2051353-.003006.2490654-.003006.0879364.003006.2139359.011734.2930717.0616035.0556679.0351334.0732689.1025314.1230659.1318665.1202049.0791359.2960777.0410004.4308777.0352058.1728668-.005867.2725334.0907974.3926697.2080688.0703316.0673981.1319389.1230659.164135.2167969.0644684.1788025.1788025.3136063.3165398.4426117.1259995.1201324.1846008.2754669.3048019.4014664.0850029 0 .1113358.029335.1963348.0264015.1465378-.0029335.1700058.0176048.2403374.1436043.0321999.0615311.0762024.1171989.1260033.1640625.0205345.0293388.0409966.0616074.0585976.0908699.0967369.052803.2227364-.1142654.2638054-.1816673.0527344-.0791321.0615349-.1436005.0644684-.2374039 0-.0527306-.0322685-.1729355-.0146675-.2139359.0644684-.158268.3751373-.1436005.5040741-.1377335.0644646 0 .1992645.0351334.2315369-.0381355-.0440065-.0790631-.0644686-.1113316-.1494715-.1406666z"/><path d="m34.2948608 55.2232437c.1026039.0586014.1729393.0380669.2403374-.0703316.0527344-.0879364.0908699-.1758728.1524048-.2579384.1348-.1846008.2901344-.2080688.5070038-.2080688.0468674 0 .1026039-.011734.1494713.005867.0644646.0205345.0908661.0761986.164135.0879326.1934013.0380669.3838692.0380669.5744057.0088005.1612053-.0264015.2432022-.158268.3370018-.2843399.1202049-.1640663.2110023-.3633308.2579422-.5626717.0292625-.1201324.023468-.2432709.020462-.3634033-.002861-.1553383.041069-.2227364.0879364-.3604736.0264015-.0879326.0703316-.1816635.0761986-.2695999.005867-.1231384-.0292625-.2520714.0322723-.3634033.038063-.0674019.0966644-.1172028.128933-.1876068.0497971-.0966644.1114044-.2051353.1494675-.3048058.011734-.0351295.011734-.0761299.0264015-.1113319.0292664-.0703316.0703354-.1201324.0790634-.1992683.008873-.0673981-.014595-.140667-.008728-.2081375.008728-.0849304.0615349-.1611328.0703354-.2461357.0088005-.0615311-.0088005-.1259995-.0029335-.187603.023468-.2578697.1436005-.5274696.2315369-.7648735.0439301-.1171989.0907974-.1934738.1816635-.2813377.0820694-.0791359.1905403-.158268.2462082-.2608719.0585976-.1083984.0615311-.2461319.1083984-.3634033.046936-.1142693.1259995-.1875343.2110023-.2754707.0791321-.0850029.1348-.1729355.187603-.2784004.0586014-.1172028.1436005-.1934738.2374039-.2872047.0819969-.0791359.1875343-.158268.2315369-.2637367.0321999-.0704041.0321999-.152401.0556679-.2256699.0233955-.0762711.032196-.1436729.0439301-.2198029.017601-.140667.0732689-.2491379.1377373-.3722038.0498695-.0938034.041069-.2286034.1084671-.3048058.0791359-.0937996.2110023-.175869.3077393-.2491379.1113319-.0820656.2051353-.181736.3047333-.2754669.0732689-.0703354.1407394-.1289368.1964073-.2139359.0673981-.1055374.1436005-.1904678.2168694-.2901382.0585976-.0732689.0732651-.1905365.152401-.2462044.0820694-.0586014.2402649-.0146675.2842712-.1113319.0088005-.0205345 0-.046936.005867-.0674019.011734-.0381355.0409966-.0762711.0556641-.1172714.0586014-.1612015.023468-.3370018.0732689-.5011368.0205345-.0762024.0556679-.1670723.0995979-.2315369.0498695-.0674019.1495399-.1201324.1788063-.2022018.011734-.0410004.0029335-.1083984.0088005-.1524048.0088005-.0556641.0264015-.0967331.041069-.152401.020462-.0879364.0292625-.1494675.0849304-.2256699.0381355-.0585976.0791321-.1142654.1172714-.1729355.0527306-.0791359.1054649-.1524048.140667-.2402687.0409966-.0937996.0908699-.205204.0908699-.3106689 0-.0556679-.0205345-.1172028.005867-.1700058.038063-.0819969.1523285-.1201324.2139359-.1816673.0791321-.0761986.143528-.152401.2285309-.2227364.0967369-.0791321.170002-.1729355.2374039-.2726059-4.4223865 2.6113013-7.526028 7.2212943-8.0682377 12.5874289z"/></g><path d="m66.1530304 63.0815926c-2.4421654 6.0904961-8.4066772 10.3928337-15.3731499 10.3928337-9.1507301 0-16.5673866-7.4165878-16.5673866-16.5673141 0-3.7142982 1.2181168-7.140583 3.2822456-9.9007874-.7800179 1.9201584-1.2061005 4.0143204-1.2061005 6.2104797 0 9.1447601 7.4166527 16.5673447 16.5613785 16.5673447 5.4544106 0 10.2907601-2.6342163 13.3030129-6.7025566z" fill="#344d5b" opacity=".15"/><ellipse cx="80.01" cy="75.727" fill="#44c4a1" rx="13.693" ry="13.693" transform="matrix(.987 -.16 .16 .987 -11.097 13.794)"/><ellipse cx="80.01" cy="75.727" fill="#ebf0f3" rx="10.608" ry="10.608" transform="matrix(.987 -.16 .16 .987 -11.097 13.794)"/><path d="m78.7015457 80.3684006-4.6439209-4.6442566 1.9081574-1.9074936 2.7357635 2.7367554 5.4679184-5.4682465 1.9075012 1.9075012z" fill="#3a556a"/></svg>