<svg enable-background="new 0 0 110 110" height="512" viewBox="0 0 110 110" width="512" xmlns="http://www.w3.org/2000/svg"><path d="m81.9229126 45.828331c-1.7548828 0-3.4056396.4382935-4.8564453 1.2043457-.4105225-.663208-.87854-1.2871704-1.3984375-1.8637085h-54.9050293c-2.0614014 2.2830811-3.3251953 5.3001709-3.3251953 8.6187134 0 7.1151733 5.7680664 12.8831787 12.8833008 12.8831787 2.9587402 0 5.682373-.9997559 7.8574219-2.6765747 2.1749268 1.6768188 4.8986816 2.6765747 7.8572998 2.6765747 4.0557861 0 7.671875-1.8759155 10.0334473-4.805481 2.3614502 2.9295654 5.9775391 4.805481 10.0333252 4.805481 3.2077637 0 6.1352539-1.1797485 8.3902588-3.1193848 1.8907471 1.923645 4.5196533 3.1193848 7.4300537 3.1193848 5.7553711 0 10.4211426-4.6657715 10.4211426-10.4212646s-4.6657716-10.4212647-10.4211427-10.4212647z" fill="#d5d6db"/><path d="m85.6348267 43.0553207c.0100098-.1841431.027832-.366272.027832-.5529785 0-5.5041504-4.4619141-9.9661255-9.9660645-9.9661255-1.2424316 0-2.4266357.2376709-3.5234375.6529541-1.0567627-6.0516357-6.3237304-10.6560058-12.6778564-10.6560058-2.4890137 0-4.8117676.7077637-6.7817383 1.9301147-3.1295166-3.7321167-7.8248291-6.1067505-13.076416-6.1067505-9.421875 0-17.0599365 7.6379395-17.0599365 17.0598755 0 1.697876.2515869 3.3364258.7133789 4.8842163-3.5227051 2.2991943-5.8527832 6.2731323-5.8527832 10.7935791 0 7.1152344 5.7680664 12.8831787 12.8833008 12.8831787 2.9587402 0 5.682373-.9996948 7.8574219-2.6765747 2.1749268 1.6768799 4.8986816 2.6765747 7.8572998 2.6765747 4.0557861 0 7.6719971-1.8758545 10.0334473-4.8054199 2.3614502 2.9295654 5.9775391 4.8054199 10.0333252 4.8054199 2.6501465 0 5.1120605-.802063 7.1599121-2.1739502 2.0499268 1.9590454 4.8217773 3.1691284 7.8812256 3.1691284 6.3062744 0 11.418457-5.1122437 11.418457-11.418457-.0000001-4.7113647-2.8546143-8.7541504-6.9273682-10.4987793z" fill="#ebf0f3"/><path d="m76.0927887 82.0707932h-1.6725845v-10.0420304h-43.7289009v10.0420304h-1.6725827v-11.7146149h47.0740681z" fill="#2f4859"/><path d="m51.719463 57.414486h1.672583v24.656311h-1.672583z" fill="#2f4859"/><path d="m58.3245049 48.2192764h-11.5371895c-1.1454086 0-2.0739861.9284782-2.0739861 2.0738869v11.5372391c0 1.1454124.9285774 2.0738869 2.0739861 2.0738869h11.5371895c1.1454086 0 2.0739861-.9284744 2.0739861-2.0738869v-11.5372391c-.0000001-1.1454086-.9285775-2.0738869-2.0739861-2.0738869z" fill="#e56353"/><path d="m80.4856644 77.4256592h-10.4579773c-1.038269 0-1.879982.841629-1.879982 1.8798904v10.4580307c0 1.0382614.841713 1.8798904 1.879982 1.8798904h10.4579773c1.038269 0 1.879982-.841629 1.879982-1.8798904v-10.4580307c0-1.0382614-.841713-1.8798904-1.879982-1.8798904z" fill="#27a2db"/><path d="m57.7849007 77.4256592h-10.4579811c-1.0382652 0-1.879982.841629-1.879982 1.8798904v10.4580307c0 1.0382614.8417168 1.8798904 1.879982 1.8798904h10.4579811c1.0382652 0 1.879982-.841629 1.879982-1.8798904v-10.4580307c0-1.0382614-.8417168-1.8798904-1.879982-1.8798904z" fill="#fcd462"/><path d="m35.084137 77.4256592h-10.457983c-1.0382652 0-1.879982.841629-1.879982 1.8798904v10.4580307c0 1.0382614.8417168 1.8798904 1.879982 1.8798904h10.457983c1.0382652 0 1.879982-.841629 1.879982-1.8798904v-10.4580307c0-1.0382614-.8417168-1.8798904-1.879982-1.8798904z" fill="#44c4a1"/></svg>