<svg enable-background="new 0 0 110 110" height="512" viewBox="0 0 110 110" width="512" xmlns="http://www.w3.org/2000/svg"><path d="m54.7177658 56.5712166v-12.7021485h-1.6366692v12.7021485h-24.2934722v14.0179558h1.6366672v-12.3812867h22.656805 1.6366692 22.6560059v12.3812867h1.6366653v-14.0179558z" fill="#fcd462"/><path d="m69.4750977 31.2693024c-.820076-4.4400749-4.7092667-7.8042374-9.3867378-7.8042374-.8795967 0-1.7304001.1213589-2.5392265.3440342-1.2836189-2.5755615-3.9361267-4.3491478-7.0093422-4.3491478-3.426487 0-6.3316422 2.2031307-7.3958206 5.2672997-.7303505-.3882828-1.5627365-.6100559-2.4475632-.6100559-2.8849983 0-5.2237473 2.3387451-5.2237473 5.2237453 0 1.0011845.286644 1.9332218.7750397 2.7279072-3.2002907 1.6248512-5.3946972 4.9450874-5.3946972 8.7799454 0 5.4363747 4.4070263 9.8434258 9.8433819 9.8434258h14.224144 12.2937202c5.4363785 0 9.8434296-4.4070511 9.8434296-9.8434258-.0000001-4.6579858-3.2364655-8.557499-7.5825806-9.5794907z" fill="#e1e6e9"/><path d="m18.1155701 83.5898209v4.8887863c0 .7398148 5.1702423 1.3395615 11.5480385 1.3395615 6.3778191 0 11.5480614-.5997467 11.5480614-1.3395615v-4.8887863z" fill="#d5d6db"/><path d="m29.6636086 82.2502289c-6.3777962 0-11.5480385.5997543-11.5480385 1.339592 0 .7398224 5.1702423 1.3395691 11.5480385 1.3395691 6.3778191 0 11.5480614-.5997467 11.5480614-1.3395691-.0000001-.7398377-5.1702424-1.339592-11.5480614-1.339592z" fill="#64798a"/><path d="m18.1155701 78.146904v4.8887787c0 .7398148 5.1702423 1.3395691 11.5480385 1.3395691 6.3778191 0 11.5480614-.5997543 11.5480614-1.3395691v-4.8887787z" fill="#d5d6db"/><path d="m29.6636086 76.807312c-6.3777962 0-11.5480385.5997467-11.5480385 1.339592 0 .7398148 5.1702423 1.3395615 11.5480385 1.3395615 6.3778191 0 11.5480614-.5997467 11.5480614-1.3395615-.0000001-.7398453-5.1702424-1.339592-11.5480614-1.339592z" fill="#64798a"/><path d="m18.1155701 72.516861v4.8887863c0 .7398148 5.1702423 1.3395615 11.5480385 1.3395615 6.3778191 0 11.5480614-.5997467 11.5480614-1.3395615v-4.8887863z" fill="#d5d6db"/><path d="m29.6636086 71.177269c-6.3777962 0-11.5480385.5997543-11.5480385 1.339592 0 .7398224 5.1702423 1.3395691 11.5480385 1.3395691 6.3778191 0 11.5480614-.5997467 11.5480614-1.3395691-.0000001-.7398377-5.1702424-1.339592-11.5480614-1.339592z" fill="#64798a"/><path d="m18.1155701 66.9953842v4.8887863c0 .7398148 5.1702423 1.3395615 11.5480385 1.3395615 6.3778191 0 11.5480614-.5997467 11.5480614-1.3395615v-4.8887863z" fill="#d5d6db"/><path d="m29.6636086 65.6557922c-6.3777962 0-11.5480385.5997543-11.5480385 1.339592 0 .7398224 5.1702423 1.3395691 11.5480385 1.3395691 6.3778191 0 11.5480614-.5997467 11.5480614-1.3395691-.0000001-.7398376-5.1702424-1.339592-11.5480614-1.339592z" fill="#ebf0f3"/><path d="m89.690239 64.9339142h-24.1377564c-1.2118378 0-2.1942291.9823914-2.1942291 2.1942291v21.2176819c0 1.2118301.9823914 2.1942215 2.1942291 2.1942215h24.1377564c1.2117996 0 2.194191-.9823914 2.194191-2.1942215v-21.2176819c-.0000001-1.2118378-.9823914-2.1942291-2.194191-2.1942291z" fill="#ebf0f3"/><path d="m91.8844299 70.3254395v-3.1972961c0-1.2118378-.9823914-2.1942291-2.194191-2.1942291h-24.1377563c-1.2118378 0-2.1942291.9823914-2.1942291 2.1942291v3.1972961z" fill="#27a2db"/><g fill="#ebf0f3"><circle cx="88.315" cy="67.678" r=".795"/><circle cx="85.005" cy="67.678" r=".795"/><circle cx="81.695" cy="67.678" r=".795"/></g><g fill="#d5d6db"><path d="m67.516991 73.662727h20.208696v2.504414h-20.208696z"/><path d="m67.516991 77.663368h4.000728v7.845626h-4.000728z"/><path d="m72.850998 77.663368h4.000728v7.845626h-4.000728z"/><path d="m78.185005 77.663368h4.000728v7.845626h-4.000728z"/><path d="m83.519013 77.663368h4.000728v7.845626h-4.000728z"/></g><path d="m74.094101 70.7486572h-5.7574158l.4792862-2.1070251h4.7988434z" fill="#ebf0f3"/></svg>