<svg enable-background="new 0 0 110 110" height="512" viewBox="0 0 110 110" width="512" xmlns="http://www.w3.org/2000/svg"><path d="m83.3635483 24.9110527h-56.7270184c-2.8479748 0-5.1567268 2.3087521-5.1567268 5.1567268v49.8644409c0 2.8479767 2.3087521 5.1567307 5.1567268 5.1567307h56.7270203c2.8479004 0 5.1566467-2.308754 5.1566467-5.1567307v-49.8644409c-.0000019-2.8479747-2.3087482-5.1567268-5.1566486-5.1567268z" fill="#ebf0f3"/><path d="m88.520195 37.581871v-7.5140915c0-2.8479748-2.3087463-5.1567268-5.1566467-5.1567268h-56.7270184c-2.8479748 0-5.1567268 2.3087521-5.1567268 5.1567268v7.5140915z" fill="#27a2db"/><g fill="#3a556a"><path d="m31.5241833 46.4616585c-.1099854.2199707-.2999878.4500122-.5599976.6799927-.2699585.2399902-.5700073.4400024-.9299927.6099854v.6000366c.2000122-.0700073.4199829-.1799927.6699829-.3200073.2400513-.1500244.4400024-.2900391.5900269-.4299927v4h.6300049v-5.1400146h-.4000244z"/><path d="m38.4442291 47.8716316c-.0700073-.2999878-.1800537-.5599976-.3200073-.7699585-.1300049-.2000122-.3000488-.3600464-.5100098-.4700317-.210022-.1099854-.4500122-.1699829-.7200317-.1699829-.3699951 0-.6799927.0999756-.9299927.2999878s-.4299927.4899902-.5599976.8500366c-.1199951.3699951-.1799927.8599854-.1799927 1.4699707 0 .960022.1699829 1.6500244.5 2.0800171.289978.3499756.6699829.5299683 1.1699829.5299683.3699951 0 .6799927-.0999756.9299927-.2999878.2400513-.2000122.4300537-.4899902.5500488-.8599854.1300049-.3699951.1900024-.8500366.1900024-1.4500122.0000001-.5100098-.0400389-.9099731-.119995-1.210022zm-.8200073 2.8800049c-.2000122.2800293-.4400024.4200439-.7300415.4200439-.289978 0-.5299683-.1400146-.7299805-.4100342-.2000122-.2799683-.2999878-.8399658-.2999878-1.6799927s.1099854-1.4199829.3300171-1.7299805c.1699829-.25.3999634-.3699951.6899414-.3699951.2900391 0 .5400391.1399536.7400513.4199829.1900024.2700195.289978.8300171.289978 1.6799927 0 .840027-.0999756 1.4000245-.289978 1.669983z"/><path d="m44.3542023 47.8716316c-.0700073-.2999878-.1799927-.5599976-.3200073-.7699585-.1300049-.2000122-.2999878-.3600464-.5100098-.4700317-.2099609-.1099854-.4500122-.1699829-.7199707-.1699829-.3699951 0-.6799927.0999756-.9299927.2999878s-.4299927.4899902-.5599976.8500366c-.1199951.3699951-.1800537.8599854-.1800537 1.4699707 0 .960022.1700439 1.6500244.5 2.0800171.2900391.3499756.6700439.5299683 1.1700439.5299683.3699951 0 .6799927-.0999756.9299927-.2999878.2399902-.2000122.4299927-.4899902.5499878-.8599854.1300049-.3699951.1900024-.8500366.1900024-1.4500122.0000001-.5100098-.0399779-.9099731-.119995-1.210022zm-.8200074 2.8800049c-.2000122.2800293-.4400024.4200439-.7299805.4200439-.2900391 0-.5300293-.1400146-.7300415-.4100342-.1999512-.2799683-.2999878-.8399658-.2999878-1.6799927s.1099854-1.4199829.3300171-1.7299805c.1699829-.25.4000244-.3699951.6900024-.3699951s.539978.1399536.7399902.4199829c.1900024.2700195.289978.8300171.289978 1.6799927.0000002.840027-.0999754 1.4000245-.2899779 1.669983z"/><path d="m49.2542267 46.4616585c-.1100464.2199707-.3000488.4500122-.5599976.6799927-.2700195.2399902-.5700073.4400024-.9300537.6099854v.6000366c.2000122-.0700073.4200439-.1799927.6700439-.3200073.2399902-.1500244.4400024-.2900391.5899658-.4299927v4h.6300049v-5.1400146h-.3999633z"/><path d="m56.1742096 47.8716316c-.0700073-.2999878-.1799927-.5599976-.3099976-.7699585-.1400146-.2000122-.3099976-.3600464-.5200195-.4700317s-.4500122-.1699829-.7199707-.1699829c-.3699951 0-.6799927.0999756-.9299927.2999878s-.4300537.4899902-.5600586.8500366c-.1199951.3699951-.1799927.8599854-.1799927 1.4699707 0 .960022.1700439 1.6500244.5 2.0800171.2900391.3499756.6700439.5299683 1.1700439.5299683.3699951 0 .6799927-.0999756.9299927-.2999878s.4299927-.4899902.5499878-.8599854c.1300049-.3699951.1900024-.8500366.1900024-1.4500122.0000001-.5100098-.0399779-.9099731-.119995-1.210022zm-.8200073 2.8800049c-.2000122.2800293-.4400024.4200439-.7299805.4200439-.2900391 0-.5300293-.1400146-.7300415-.4100342-.1999512-.2799683-.2999878-.8399658-.2999878-1.6799927s.1099854-1.4199829.3300171-1.7299805c.1699829-.25.3999634-.3699951.6900024-.3699951.289978 0 .539978.1399536.7399902.4199829.1900024.2700195.289978.8300171.289978 1.6799927.0000001.840027-.0999755 1.4000245-.2899779 1.669983z"/><path d="m62.0841827 47.8716316c-.0700073-.2999878-.1799927-.5599976-.3099976-.7699585-.1400146-.2000122-.3099976-.3600464-.5199585-.4700317-.210022-.1099854-.4500122-.1699829-.7200317-.1699829-.3699951 0-.6799927.0999756-.9299927.2999878s-.4299927.4899902-.5599976.8500366c-.1199951.3699951-.1799927.8599854-.1799927 1.4699707 0 .960022.1699829 1.6500244.5 2.0800171.289978.3499756.6699829.5299683 1.1699829.5299683.3699951 0 .6799927-.0999756.9299927-.2999878s.4299927-.4899902.5499878-.8599854c.1300049-.3699951.1900024-.8500366.1900024-1.4500122.0000002-.5100098-.0399779-.9099731-.119995-1.210022zm-.8200073 2.8800049c-.1999512.2800293-.4400024.4200439-.7299805.4200439s-.5299683-.1400146-.7299805-.4100342c-.2000122-.2799683-.2999878-.8399658-.2999878-1.6799927s.1099854-1.4199829.3299561-1.7299805c.1700439-.25.4000244-.3699951.6900024-.3699951.2900391 0 .5400391.1399536.7399902.4199829.1900024.2700195.2900391.8300171.2900391 1.6799927.0000001.840027-.1000365 1.4000245-.290039 1.669983z"/><path d="m66.9842072 46.4616585c-.1099854.2199707-.2999878.4500122-.5599976.6799927-.2700195.2399902-.5700073.4400024-.9299927.6099854v.6000366c.2000122-.0700073.4199829-.1799927.6699829-.3200073.2399902-.1500244.4400024-.2900391.5900269-.4299927v4h.6299438v-5.1400146h-.3999633z"/><path d="m73.9041901 47.8716316c-.0700073-.2999878-.1799927-.5599976-.3099976-.7699585-.1400146-.2000122-.3099976-.3600464-.5200195-.4700317-.2099609-.1099854-.4499512-.1699829-.7199707-.1699829-.3699951 0-.6799927.0999756-.9299927.2999878s-.4299927.4899902-.5599976.8500366c-.1199951.3699951-.1799927.8599854-.1799927 1.4699707 0 .960022.1699829 1.6500244.5 2.0800171.289978.3499756.6699829.5299683 1.1699829.5299683.3699951 0 .6799927-.0999756.9299927-.2999878s.4299927-.4899902.5499878-.8599854c.1300049-.3699951.1900024-.8500366.1900024-1.4500122.0000001-.5100098-.0399779-.9099731-.119995-1.210022zm-.8200074 2.8800049c-.2000122.2800293-.4400024.4200439-.7299805.4200439s-.5300293-.1400146-.7299805-.4100342c-.2000122-.2799683-.3000488-.8399658-.3000488-1.6799927s.1100464-1.4199829.3300171-1.7299805c.1699829-.25.4000244-.3699951.6900024-.3699951s.539978.1399536.7399902.4199829c.1900024.2700195.2900391.8300171.2900391 1.6799927.0000001.840027-.1000365 1.4000245-.290039 1.669983z"/><path d="m78.8042145 46.4616585c-.1099854.2199707-.2999878.4500122-.5599976.6799927-.2700195.2399902-.5700073.4400024-.9299927.6099854v.6000366c.1999512-.0700073.4199829-.1799927.6699829-.3200073.2399902-.1500244.4400024-.2900391.5899658-.4299927v4h.6300049v-5.1400146h-.3999633z"/><path d="m31.5241833 55.0516243c-.1099854.2200317-.2999878.4500122-.5599976.6800537-.2699585.2399902-.5700073.4400024-.9299927.5999756v.6099854c.2000122-.0700073.4199829-.1799927.6699829-.3200073.2400513-.1499634.4400024-.289978.5900269-.4400024v4.0100098h.6300049v-5.1400146h-.4000244z"/><path d="m38.4442291 56.4516487c-.0700073-.289978-.1800537-.5499878-.3200073-.7600098-.1300049-.2099609-.3000488-.3699951-.5100098-.4799805-.210022-.1099854-.4500122-.1600342-.7200317-.1600342-.3699951 0-.6799927.1000366-.9299927.3000488-.25.1999512-.4299927.4799805-.5599976.8499756-.1199951.3699951-.1799927.8599854-.1799927 1.4700317 0 .9599609.1699829 1.6499634.5 2.0799561.289978.3500366.6699829.5300293 1.1699829.5300293.3699951 0 .6799927-.1000366.9299927-.2999878.2400513-.2000122.4300537-.4900513.5500488-.8600464.1300049-.3699951.1900024-.8499756.1900024-1.4499512.0000001-.5100096-.0400389-.9200438-.119995-1.2200316zm-.8200073 2.8900147c-.2000122.2799683-.4400024.4199829-.7300415.4199829-.289978 0-.5299683-.1400146-.7299805-.4199829-.2000122-.2700195-.2999878-.8300171-.2999878-1.6699829 0-.8500366.1099854-1.4200439.3300171-1.7300415.1699829-.25.3999634-.3699951.6899414-.3699951.2900391 0 .5400391.1400146.7400513.4100342.1900024.2799683.289978.8399658.289978 1.6900024 0 .829956-.0999756 1.3899536-.289978 1.6699829z"/><path d="m43.3441925 55.0516243c-.1099854.2200317-.2999878.4500122-.5599976.6800537-.2700195.2399902-.5700073.4400024-.9299927.5999756v.6099854c.2000122-.0700073.4199829-.1799927.6699829-.3200073.2399902-.1499634.4400024-.289978.5900269-.4400024v4.0100098h.6300049v-5.1400146h-.4000244z"/><path d="m50.2641754 56.4516487c-.0699463-.289978-.1799927-.5499878-.3099976-.7600098-.1399536-.2099609-.3099976-.3699951-.5199585-.4799805-.210022-.1099854-.4500122-.1600342-.7200317-.1600342-.3699951 0-.6799927.1000366-.9299927.3000488-.25.1999512-.4299927.4799805-.5599976.8499756-.1199951.3699951-.1799927.8599854-.1799927 1.4700317 0 .9599609.1699829 1.6499634.5 2.0799561.289978.3500366.6699829.5300293 1.1699829.5300293.3699951 0 .6799927-.1000366.9299927-.2999878.25-.2000122.4299927-.4900513.5500488-.8600464.1299438-.3699951.1899414-.8499756.1899414-1.4499512.0000001-.5100096-.0399779-.9200438-.119995-1.2200316zm-.8199463 2.8900147c-.2000122.2799683-.4400024.4199829-.7300415.4199829-.289978 0-.5299683-.1400146-.7299805-.4199829-.2000122-.2700195-.2999878-.8300171-.2999878-1.6699829 0-.8500366.1099854-1.4200439.3299561-1.7300415.1700439-.25.4000244-.3699951.6900024-.3699951.2900391 0 .5400391.1400146.7400513.4100342.1899414.2799683.289978.8399658.289978 1.6900024.0000001.829956-.1000366 1.3899536-.289978 1.6699829z"/><path d="m55.1641998 55.0516243c-.1099854.2200317-.2999878.4500122-.5599976.6800537-.2700195.2399902-.5700073.4400024-.9299927.5999756v.6099854c.2000122-.0700073.4199829-.1799927.6699829-.3200073.2399902-.1499634.4400024-.289978.5900269-.4400024v4.0100098h.6300049v-5.1400146h-.4000244z"/><path d="m62.0841827 56.4516487c-.0700073-.289978-.1799927-.5499878-.3099976-.7600098-.1400146-.2099609-.3099976-.3699951-.5199585-.4799805-.210022-.1099854-.4500122-.1600342-.7200317-.1600342-.3699951 0-.6799927.1000366-.9299927.3000488-.25.1999512-.4299927.4799805-.5599976.8499756-.1199951.3699951-.1799927.8599854-.1799927 1.4700317 0 .9599609.1699829 1.6499634.5 2.0799561.289978.3500366.6699829.5300293 1.1699829.5300293.3699951 0 .6799927-.1000366.9299927-.2999878.25-.2000122.4299927-.4900513.5499878-.8600464.1300049-.3699951.1900024-.8499756.1900024-1.4499512.0000002-.5100096-.0399779-.9200438-.119995-1.2200316zm-.8200073 2.8900147c-.1999512.2799683-.4400024.4199829-.7299805.4199829s-.5299683-.1400146-.7299805-.4199829c-.2000122-.2700195-.2999878-.8300171-.2999878-1.6699829 0-.8500366.1099854-1.4200439.3299561-1.7300415.1700439-.25.4000244-.3699951.6900024-.3699951.2900391 0 .5400391.1400146.7399902.4100342.1900024.2799683.2900391.8399658.2900391 1.6900024.0000001.829956-.1000365 1.3899536-.290039 1.6699829z"/><path d="m66.9842072 55.0516243c-.1099854.2200317-.2999878.4500122-.5599976.6800537-.2700195.2399902-.5700073.4400024-.9299927.5999756v.6099854c.2000122-.0700073.4199829-.1799927.6699829-.3200073.2399902-.1499634.4400024-.289978.5900269-.4400024v4.0100098h.6299438v-5.1400146h-.3999633z"/><path d="m73.9041901 56.4516487c-.0700073-.289978-.1799927-.5499878-.3099976-.7600098-.1400146-.2099609-.3099976-.3699951-.5200195-.4799805-.2099609-.1099854-.4499512-.1600342-.7199707-.1600342-.3699951 0-.6799927.1000366-.9299927.3000488-.25.1999512-.4299927.4799805-.5599976.8499756-.1199951.3699951-.1799927.8599854-.1799927 1.4700317 0 .9599609.1699829 1.6499634.5 2.0799561.289978.3500366.6699829.5300293 1.1699829.5300293.3699951 0 .6799927-.1000366.9299927-.2999878.25-.2000122.4299927-.4900513.5499878-.8600464.1300049-.3699951.1900024-.8499756.1900024-1.4499512.0000001-.5100096-.0399779-.9200438-.119995-1.2200316zm-.8200074 2.8900147c-.2000122.2799683-.4400024.4199829-.7299805.4199829s-.5300293-.1400146-.7299805-.4199829c-.2000122-.2700195-.3000488-.8300171-.3000488-1.6699829 0-.8500366.1100464-1.4200439.3300171-1.7300415.1699829-.25.4000244-.3699951.6900024-.3699951s.539978.1400146.7399902.4100342c.1900024.2799683.2900391.8399658.2900391 1.6900024.0000001.829956-.1000365 1.3899536-.290039 1.6699829z"/><path d="m78.8042145 55.0516243c-.1099854.2200317-.2999878.4500122-.5599976.6800537-.2700195.2399902-.5700073.4400024-.9299927.5999756v.6099854c.1999512-.0700073.4199829-.1799927.6699829-.3200073.2399902-.1499634.4400024-.289978.5899658-.4400024v4.0100098h.6300049v-5.1400146h-.3999633z"/><path d="m31.5241833 63.6416512c-.1099854.2200317-.2999878.4500084-.5599976.6799889-.2699585.2399902-.5700073.4400024-.9299927.6000366v.6099854c.2000122-.0700073.4199829-.1799927.6699829-.3200073.2400513-.1500244.4400024-.289978.5900269-.4400024v4.0100098h.6300049v-5.1400108h-.4000244z"/><path d="m38.4442291 65.0416718c-.0700073-.3000488-.1800537-.5500488-.3200073-.7600098-.1300049-.210022-.3000488-.3699913-.5100098-.4800377-.210022-.1099854-.4500122-.1599731-.7200317-.1599731-.3699951 0-.6799927.0999756-.9299927.2999878-.25.2000084-.4299927.4800377-.5599976.8500328-.1199951.3699951-.1799927.8599854-.1799927 1.4599609 0 .9700317.1699829 1.6600342.5 2.0900269.289978.3499756.6699829.5299683 1.1699829.5299683.3699951 0 .6799927-.0999756.9299927-.2999878.2400513-.2099609.4300537-.4899902.5500488-.8599854.1300049-.3699951.1900024-.8599854.1900024-1.460022.0000001-.5-.0400389-.9099732-.119995-1.2099609zm-.8200073 2.8899536c-.2000122.2800293-.4400024.4200439-.7300415.4200439-.289978 0-.5299683-.1400146-.7299805-.4200439-.2000122-.2799683-.2999878-.8399658-.2999878-1.6799927 0-.8399658.1099854-1.4099731.3300171-1.7299805.1699829-.2399902.3999634-.3599854.6899414-.3599854.2900391 0 .5400391.1399536.7400513.4099731.1900024.2800293.289978.8400269.289978 1.6799927 0 .8400269-.0999756 1.4000245-.289978 1.6799928z"/><path d="m44.3542023 65.0416718c-.0700073-.3000488-.1799927-.5500488-.3200073-.7600098-.1300049-.210022-.2999878-.3699913-.5100098-.4800377-.2099609-.1099854-.4500122-.1599731-.7199707-.1599731-.3699951 0-.6799927.0999756-.9299927.2999878-.25.2000084-.4299927.4800377-.5599976.8500328-.1199951.3699951-.1800537.8599854-.1800537 1.4599609 0 .9700317.1700439 1.6600342.5 2.0900269.2900391.3499756.6700439.5299683 1.1700439.5299683.3699951 0 .6799927-.0999756.9299927-.2999878.2399902-.2099609.4299927-.4899902.5499878-.8599854.1300049-.3699951.1900024-.8599854.1900024-1.460022.0000001-.5-.0399779-.9099732-.119995-1.2099609zm-.8200074 2.8899536c-.2000122.2800293-.4400024.4200439-.7299805.4200439-.2900391 0-.5300293-.1400146-.7300415-.4200439-.1999512-.2799683-.2999878-.8399658-.2999878-1.6799927 0-.8399658.1099854-1.4099731.3300171-1.7299805.1699829-.2399902.4000244-.3599854.6900024-.3599854s.539978.1399536.7399902.4099731c.1900024.2800293.289978.8400269.289978 1.6799927.0000002.8400269-.0999754 1.4000245-.2899779 1.6799928z"/><path d="m50.2641754 65.0416718c-.0699463-.3000488-.1799927-.5500488-.3099976-.7600098-.1399536-.210022-.3099976-.3699913-.5199585-.4800377-.210022-.1099854-.4500122-.1599731-.7200317-.1599731-.3699951 0-.6799927.0999756-.9299927.2999878-.25.2000084-.4299927.4800377-.5599976.8500328-.1199951.3699951-.1799927.8599854-.1799927 1.4599609 0 .9700317.1699829 1.6600342.5 2.0900269.289978.3499756.6699829.5299683 1.1699829.5299683.3699951 0 .6799927-.0999756.9299927-.2999878.25-.2099609.4299927-.4899902.5500488-.8599854.1299438-.3699951.1899414-.8599854.1899414-1.460022.0000001-.5-.0399779-.9099732-.119995-1.2099609zm-.8199463 2.8899536c-.2000122.2800293-.4400024.4200439-.7300415.4200439-.289978 0-.5299683-.1400146-.7299805-.4200439-.2000122-.2799683-.2999878-.8399658-.2999878-1.6799927 0-.8399658.1099854-1.4099731.3299561-1.7299805.1700439-.2399902.4000244-.3599854.6900024-.3599854.2900391 0 .5400391.1399536.7400513.4099731.1899414.2800293.289978.8400269.289978 1.6799927.0000001.8400269-.1000366 1.4000245-.289978 1.6799928z"/><path d="m55.1641998 63.6416512c-.1099854.2200317-.2999878.4500084-.5599976.6799889-.2700195.2399902-.5700073.4400024-.9299927.6000366v.6099854c.2000122-.0700073.4199829-.1799927.6699829-.3200073.2399902-.1500244.4400024-.289978.5900269-.4400024v4.0100098h.6300049v-5.1400108h-.4000244z"/><path d="m62.0841827 65.0416718c-.0700073-.3000488-.1799927-.5500488-.3099976-.7600098-.1400146-.210022-.3099976-.3699913-.5199585-.4800377-.210022-.1099854-.4500122-.1599731-.7200317-.1599731-.3699951 0-.6799927.0999756-.9299927.2999878-.25.2000084-.4299927.4800377-.5599976.8500328-.1199951.3699951-.1799927.8599854-.1799927 1.4599609 0 .9700317.1699829 1.6600342.5 2.0900269.289978.3499756.6699829.5299683 1.1699829.5299683.3699951 0 .6799927-.0999756.9299927-.2999878.25-.2099609.4299927-.4899902.5499878-.8599854.1300049-.3699951.1900024-.8599854.1900024-1.460022.0000002-.5-.0399779-.9099732-.119995-1.2099609zm-.8200073 2.8899536c-.1999512.2800293-.4400024.4200439-.7299805.4200439s-.5299683-.1400146-.7299805-.4200439c-.2000122-.2799683-.2999878-.8399658-.2999878-1.6799927 0-.8399658.1099854-1.4099731.3299561-1.7299805.1700439-.2399902.4000244-.3599854.6900024-.3599854.2900391 0 .5400391.1399536.7399902.4099731.1900024.2800293.2900391.8400269.2900391 1.6799927.0000001.8400269-.1000365 1.4000245-.290039 1.6799928z"/><path d="m67.9942169 65.0416718c-.0700073-.3000488-.1799927-.5500488-.3099976-.7600098-.1400146-.210022-.3099976-.3699913-.5200195-.4800377-.210022-.1099854-.4500122-.1599731-.7199707-.1599731-.3700562 0-.6800537.0999756-.9300537.2999878-.25.2000084-.4299927.4800377-.5599976.8500328-.1199951.3699951-.1799927.8599854-.1799927 1.4599609 0 .9700317.1700439 1.6600342.5 2.0900269.2900391.3499756.6700439.5299683 1.1700439.5299683.3699951 0 .6799927-.0999756.9299927-.2999878.25-.2099609.4299927-.4899902.5499878-.8599854.1300049-.3699951.1900024-.8599854.1900024-1.460022.0000001-.5-.0400389-.9099732-.119995-1.2099609zm-.8200073 2.8899536c-.2000122.2800293-.4400024.4200439-.7299805.4200439-.2900391 0-.5300293-.1400146-.7300415-.4200439-.2000122-.2799683-.2999878-.8399658-.2999878-1.6799927 0-.8399658.1099854-1.4099731.3300171-1.7299805.1699829-.2399902.3999634-.3599854.6900024-.3599854.289978 0 .539978.1399536.7399902.4099731.1900024.2800293.289978.8400269.289978 1.6799927.0000001.8400269-.0999755 1.4000245-.2899779 1.6799928z"/><path d="m73.9041901 65.0416718c-.0700073-.3000488-.1799927-.5500488-.3099976-.7600098-.1400146-.210022-.3099976-.3699913-.5200195-.4800377-.2099609-.1099854-.4499512-.1599731-.7199707-.1599731-.3699951 0-.6799927.0999756-.9299927.2999878-.25.2000084-.4299927.4800377-.5599976.8500328-.1199951.3699951-.1799927.8599854-.1799927 1.4599609 0 .9700317.1699829 1.6600342.5 2.0900269.289978.3499756.6699829.5299683 1.1699829.5299683.3699951 0 .6799927-.0999756.9299927-.2999878.25-.2099609.4299927-.4899902.5499878-.8599854.1300049-.3699951.1900024-.8599854.1900024-1.460022.0000001-.5-.0399779-.9099732-.119995-1.2099609zm-.8200074 2.8899536c-.2000122.2800293-.4400024.4200439-.7299805.4200439s-.5300293-.1400146-.7299805-.4200439c-.2000122-.2799683-.3000488-.8399658-.3000488-1.6799927 0-.8399658.1100464-1.4099731.3300171-1.7299805.1699829-.2399902.4000244-.3599854.6900024-.3599854s.539978.1399536.7399902.4099731c.1900024.2800293.2900391.8400269.2900391 1.6799927.0000001.8400269-.1000365 1.4000245-.290039 1.6799928z"/><path d="m78.8042145 63.6416512c-.1099854.2200317-.2999878.4500084-.5599976.6799889-.2700195.2399902-.5700073.4400024-.9299927.6000366v.6099854c.1999512-.0700073.4199829-.1799927.6699829-.3200073.2399902-.1500244.4400024-.289978.5899658-.4400024v4.0100098h.6300049v-5.1400108h-.3999633z"/><path d="m31.5241833 72.2216644c-.1099854.2299805-.2999878.4500122-.5599976.6900024-.2699585.2299805-.5700073.4400024-.9299927.5999756v.6099854c.2000122-.0700073.4199829-.1799927.6699829-.3299561.2400513-.1400146.4400024-.2900391.5900269-.4299927v4.0099487h.6300049v-5.1499634h-.4000244z"/><path d="m38.4442291 73.6316376c-.0700073-.2999878-.1800537-.5499878-.3200073-.7600098-.1300049-.2099609-.3000488-.3699951-.5100098-.4799805-.210022-.1099854-.4500122-.1699829-.7200317-.1699829-.3699951 0-.6799927.0999756-.9299927.3099976-.25.2000122-.4299927.4799805-.5599976.8499756-.1199951.3699951-.1799927.8599854-.1799927 1.460022 0 .9599609.1699829 1.6599731.5 2.0800171.289978.3599854.6699829.539978 1.1699829.539978.3699951 0 .6799927-.0999756.9299927-.3099976.2400513-.2000122.4300537-.4799805.5500488-.8500366.1300049-.3699951.1900024-.8599854.1900024-1.4599609.0000001-.5100098-.0400389-.9100342-.119995-1.210022zm-.8200073 2.8900146c-.2000122.2799683-.4400024.4199829-.7300415.4199829-.289978 0-.5299683-.1400146-.7299805-.4199829-.2000122-.2800293-.2999878-.8400269-.2999878-1.6799927 0-.8400269.1099854-1.4199829.3300171-1.7299805.1699829-.2400513.3999634-.3600464.6899414-.3600464.2900391 0 .5400391.1300049.7400513.4100342.1900024.2799683.289978.8399658.289978 1.6799927 0 .8399659-.0999756 1.3999634-.289978 1.6799927z"/><path d="m43.3441925 72.2216644c-.1099854.2299805-.2999878.4500122-.5599976.6900024-.2700195.2299805-.5700073.4400024-.9299927.5999756v.6099854c.2000122-.0700073.4199829-.1799927.6699829-.3299561.2399902-.1400146.4400024-.2900391.5900269-.4299927v4.0099487h.6300049v-5.1499634h-.4000244z"/><path d="m50.2641754 73.6316376c-.0699463-.2999878-.1799927-.5499878-.3099976-.7600098-.1399536-.2099609-.3099976-.3699951-.5199585-.4799805-.210022-.1099854-.4500122-.1699829-.7200317-.1699829-.3699951 0-.6799927.0999756-.9299927.3099976-.25.2000122-.4299927.4799805-.5599976.8499756-.1199951.3699951-.1799927.8599854-.1799927 1.460022 0 .9599609.1699829 1.6599731.5 2.0800171.289978.3599854.6699829.539978 1.1699829.539978.3699951 0 .6799927-.0999756.9299927-.3099976.25-.2000122.4299927-.4799805.5500488-.8500366.1299438-.3699951.1899414-.8599854.1899414-1.4599609.0000001-.5100098-.0399779-.9100342-.119995-1.210022zm-.8199463 2.8900146c-.2000122.2799683-.4400024.4199829-.7300415.4199829-.289978 0-.5299683-.1400146-.7299805-.4199829-.2000122-.2800293-.2999878-.8400269-.2999878-1.6799927 0-.8400269.1099854-1.4199829.3299561-1.7299805.1700439-.2400513.4000244-.3600464.6900024-.3600464.2900391 0 .5400391.1300049.7400513.4100342.1899414.2799683.289978.8399658.289978 1.6799927.0000001.8399659-.1000366 1.3999634-.289978 1.6799927z"/><path d="m55.1641998 72.2216644c-.1099854.2299805-.2999878.4500122-.5599976.6900024-.2700195.2299805-.5700073.4400024-.9299927.5999756v.6099854c.2000122-.0700073.4199829-.1799927.6699829-.3299561.2399902-.1400146.4400024-.2900391.5900269-.4299927v4.0099487h.6300049v-5.1499634h-.4000244z"/><path d="m61.074173 72.2216644c-.1099854.2299805-.2999878.4500122-.5599976.6900024-.2699585.2299805-.5699463.4400024-.9299927.5999756v.6099854c.2000122-.0700073.4200439-.1799927.6700439-.3299561.2399902-.1400146.4400024-.2900391.5899658-.4299927v4.0099487h.6300049v-5.1499634h-.4000243z"/><path d="m67.9942169 73.6316376c-.0700073-.2999878-.1799927-.5499878-.3099976-.7600098-.1400146-.2099609-.3099976-.3699951-.5200195-.4799805s-.4500122-.1699829-.7199707-.1699829c-.3700562 0-.6800537.0999756-.9300537.3099976-.25.2000122-.4299927.4799805-.5599976.8499756-.1199951.3699951-.1799927.8599854-.1799927 1.460022 0 .9599609.1700439 1.6599731.5 2.0800171.2900391.3599854.6700439.539978 1.1700439.539978.3699951 0 .6799927-.0999756.9299927-.3099976.25-.2000122.4299927-.4799805.5499878-.8500366.1300049-.3699951.1900024-.8599854.1900024-1.4599609.0000001-.5100098-.0400389-.9100342-.119995-1.210022zm-.8200073 2.8900146c-.2000122.2799683-.4400024.4199829-.7299805.4199829-.2900391 0-.5300293-.1400146-.7300415-.4199829-.2000122-.2800293-.2999878-.8400269-.2999878-1.6799927 0-.8400269.1099854-1.4199829.3300171-1.7299805.1699829-.2400513.3999634-.3600464.6900024-.3600464.289978 0 .539978.1300049.7399902.4100342.1900024.2799683.289978.8399658.289978 1.6799927.0000001.8399659-.0999755 1.3999634-.2899779 1.6799927z"/><path d="m72.8941803 72.2216644c-.1099854.2299805-.2999878.4500122-.5599976.6900024-.2699585.2299805-.5700073.4400024-.9299927.5999756v.6099854c.2000122-.0700073.4199829-.1799927.6699829-.3299561.2400513-.1400146.4400024-.2900391.5900269-.4299927v4.0099487h.6300049v-5.1499634h-.4000244z"/><path d="m78.8042145 72.2216644c-.1099854.2299805-.2999878.4500122-.5599976.6900024-.2700195.2299805-.5700073.4400024-.9299927.5999756v.6099854c.1999512-.0700073.4199829-.1799927.6699829-.3299561.2399902-.1400146.4400024-.2900391.5899658-.4299927v4.0099487h.6300049v-5.1499634h-.3999633z"/></g><g fill="#ebf0f3"><circle cx="80.13" cy="31.359" r="1.868"/><circle cx="72.353" cy="31.359" r="1.868"/><circle cx="64.575" cy="31.359" r="1.868"/></g></svg>