<svg enable-background="new 0 0 110 110" height="512" viewBox="0 0 110 110" width="512" xmlns="http://www.w3.org/2000/svg"><path d="m22.9339962 27.7132111v40.2420654c0 3.0541306 2.4758377 5.5299683 5.5299702 5.5299683h53.0720444c3.0541306 0 5.5299683-2.4758377 5.5299683-5.5299683v-40.2420654z" fill="#ebf0f3"/><g fill="#64798a"><path d="m87.0660019 28.047348v-6.8605824c0-3.054121-2.4758453-5.5299702-5.5299683-5.5299702h-53.0720672c-3.054121 0-5.5299702 2.4758492-5.5299702 5.5299702v6.8605824z"/><path d="m39.866299 35.169354h1.343097v30.741993h-1.343097z"/><path d="m49.41721 35.169354h1.343097v30.741993h-1.343097z"/><path d="m58.968121 35.169354h1.343097v30.741993h-1.343097z"/><path d="m68.519028 35.169354h1.343097v30.741993h-1.343097z"/></g><path d="m40.5378036 44.0855865c-1.6190529 0-2.931591 1.3126297-2.931591 2.9316826 0 1.6191444 1.3125381 2.9316826 2.931591 2.9316826 1.6191444 0 2.9316788-1.3125381 2.9316788-2.9316826 0-1.6190529-1.3125343-2.9316826-2.9316788-2.9316826z" fill="#e56353"/><path d="m40.5378227 45.4411507c-.8704262 0-1.5760651.7056885-1.5760651 1.5761185 0 .8704758.7056389 1.5761147 1.5760651 1.5761147.8704758 0 1.5761185-.7056389 1.5761185-1.5761147 0-.8704301-.7056427-1.5761185-1.5761185-1.5761185z" fill="#fff"/><path d="m50.0887108 50.5403519c-1.6190491 0-2.9315872 1.3126297-2.9315872 2.9316826 0 1.6191444 1.3125381 2.9316826 2.9315872 2.9316826 1.6191483 0 2.9316826-1.3125381 2.9316826-2.9316826 0-1.6190529-1.3125344-2.9316826-2.9316826-2.9316826z" fill="#27a2db"/><path d="m50.0887337 51.895916c-.8704262 0-1.5760651.7056923-1.5760651 1.5761185 0 .8704758.7056389 1.5761147 1.5760651 1.5761147.8704758 0 1.5761185-.7056389 1.5761185-1.5761147-.0000001-.8704262-.7056428-1.5761185-1.5761185-1.5761185z" fill="#fff"/><path d="m59.6396217 38.7076683c-1.6190529 0-2.9315872 1.3126297-2.9315872 2.9316826 0 1.6191444 1.3125343 2.9316826 2.9315872 2.9316826 1.6191444 0 2.9316826-1.3125381 2.9316826-2.9316826 0-1.6190529-1.3125381-2.9316826-2.9316826-2.9316826z" fill="#44c4a1"/><path d="m59.6396446 40.0632324c-.8704262 0-1.5760689.7056923-1.5760689 1.5761185 0 .8704758.7056427 1.5761147 1.5760689 1.5761147.8704758 0 1.5761147-.7056389 1.5761147-1.5761147 0-.8704262-.7056389-1.5761185-1.5761147-1.5761185z" fill="#fff"/><path d="m69.1905365 56.0956841c-1.6190567 0-2.9315948 1.3126297-2.9315948 2.9316826 0 1.6191444 1.3125381 2.9316826 2.9315948 2.9316826 1.6191406 0 2.9316788-1.3125381 2.9316788-2.9316826 0-1.6190529-1.3125382-2.9316826-2.9316788-2.9316826z" fill="#fcd462"/><g fill="#fff"><path d="m69.1905518 57.451252c-.8704224 0-1.5760651.7056885-1.5760651 1.5761147 0 .8704796.7056427 1.5761185 1.5760651 1.5761185.8704834 0 1.5761185-.7056389 1.5761185-1.5761185-.0000001-.8704262-.7056351-1.5761147-1.5761185-1.5761147z"/><path d="m78.839035 19.8659801c-1.0628433 0-1.9245453.8616161-1.9245453 1.9245472 0 1.0628395.861702 1.9244556 1.9245453 1.9244556 1.0628357 0 1.9244537-.8616161 1.9244537-1.9244556.0000001-1.062931-.861618-1.9245472-1.9244537-1.9245472z"/><path d="m71.2751999 19.8659801c-1.0628357 0-1.9245453.8616161-1.9245453 1.9245472 0 1.0628395.8617096 1.9244556 1.9245453 1.9244556 1.0628433 0 1.9244614-.8616161 1.9244614-1.9244556 0-1.062931-.8616181-1.9245472-1.9244614-1.9245472z"/><path d="m63.7113724 19.8659801c-1.0628395 0-1.9245491.8616161-1.9245491 1.9245472 0 1.0628395.8617096 1.9244556 1.9245491 1.9244556 1.0628357 0 1.9244537-.8616161 1.9244537-1.9244556 0-1.062931-.861618-1.9245472-1.9244537-1.9245472z"/></g><path d="m63.1531448 63.0478935c-1.0588341.0554428-1.8527794 1.0058403-1.8527794 2.0661201l.0000038 7.5136185h-.4196052l.0000038-9.1201324c0-1.0602875-.7939453-2.0106812-1.8527832-2.0661201-1.1292152-.0591278-2.0633659.8390121-2.0633659 1.9553185v9.2309341h-.4195747l.0000038-9.1201477c0-1.0602989-.7939758-2.010685-1.852829-2.0661049-1.1292229-.0591049-2.0633202.8390388-2.0633202 1.9553185v9.2309341h-.4196053v-17.9314614c0-1.0602875-.7939453-2.0106812-1.8527794-2.0661201-1.1292152-.0591278-2.0633698.8390121-2.0633698 1.9553185v18.042263 6.3716507l-2.2777596-1.5678864.0547485-.1983109c.8568077-3.1035843-1.0714722-6.4025192-4.2480621-6.927536-.1384125-.0228729-.2786179-.0406952-.4204865-.0532761l-.5773125 7.8896866 8.8518257 10.7761383 13.6728821.4489212 1.8675346-3.0328445v-7.2728577-6.4336853-7.6244125c.0000003-1.1163101-.9341504-2.0144501-2.0633695-1.9553261z" fill="#fcd462"/><path d="m47.990562 88.751717h17.22595v5.591484h-17.22595z" fill="#3a556a"/></svg>