<svg enable-background="new 0 0 110 110" height="512" viewBox="0 0 110 110" width="512" xmlns="http://www.w3.org/2000/svg"><path d="m32.6842194 34.734993v42.039978h45.2999878v-42.039978zm43.2999878 40.039978h-41.2999878v-38.039978h41.2999878z" fill="#ebf0f3"/><path d="m15.271726 37.754932h39.631977v3.28989h-39.631977z" fill="#2f4859"/><path d="m56.2822037 22.2886086h-42.3889761c-.6132812 0-1.1104126.4971924-1.1104126 1.1104126v14.0998535c0 .6132812.4971313 1.1104126 1.1104126 1.1104126h42.3889771c.6132812 0 1.1104126-.4971313 1.1104126-1.1104126v-14.0998536c-.000001-.6132202-.4971324-1.1104125-1.1104136-1.1104125z" fill="#3a556a"/><path d="m56.2822037 40.3780251h-42.3889761c-.6132812 0-1.1104126.4971924-1.1104126 1.1104126v14.0998535c0 .6132812.4971313 1.1104126 1.1104126 1.1104126h42.3889771c.6132812 0 1.1104126-.4971313 1.1104126-1.1104126v-14.0998535c-.000001-.6132203-.4971324-1.1104126-1.1104136-1.1104126z" fill="#3a556a"/><g fill="#2f4859"><path d="m16.983263 25.1607819v.2478084h-1.4629736v1.4629746h-.2525501v-1.710783z"/><path d="m19.368597 25.1607819v.2478084h-1.4629726v1.4629746h-.2525501v-1.710783z"/><path d="m21.753933 25.1607819v.2478084h-1.4629746v1.4629746h-.2525501v-1.710783z"/><path d="m24.139267 25.1607819v.2478084h-1.4629746v1.4629746h-.2525482v-1.710783z"/><path d="m26.524601 25.1607819v.2478084h-1.4629727v1.4629746h-.2525501v-1.710783z"/><path d="m28.9099369 25.1607819v.2478084h-1.4629745v1.4629746h-.2525502v-1.710783z"/><path d="m31.2952709 25.1607819v.2478084h-1.4629726v1.4629746h-.2525501v-1.710783z"/><path d="m33.6806068 25.1607819v.2478084h-1.4629745v1.4629746h-.2525501v-1.710783z"/><path d="m16.983263 28.1159801v.2478085h-1.4629736v1.4629746h-.2525501v-1.7107831z"/><path d="m19.368597 28.1159801v.2478085h-1.4629726v1.4629746h-.2525501v-1.7107831z"/><path d="m21.753933 28.1159801v.2478085h-1.4629746v1.4629746h-.2525501v-1.7107831z"/><path d="m24.139267 28.1159801v.2478085h-1.4629746v1.4629746h-.2525482v-1.7107831z"/><path d="m26.524601 28.1159801v.2478085h-1.4629727v1.4629746h-.2525501v-1.7107831z"/><path d="m28.9099369 28.1159801v.2478085h-1.4629745v1.4629746h-.2525502v-1.7107831z"/><path d="m31.2952709 28.1159801v.2478085h-1.4629726v1.4629746h-.2525501v-1.7107831z"/><path d="m33.6806068 28.1159801v.2478085h-1.4629745v1.4629746h-.2525501v-1.7107831z"/><path d="m16.983263 31.0711803v.2478085h-1.4629736v1.4629745h-.2525501v-1.710783z"/><path d="m19.368597 31.0711803v.2478085h-1.4629726v1.4629745h-.2525501v-1.710783z"/><path d="m21.753933 31.0711803v.2478085h-1.4629746v1.4629745h-.2525501v-1.710783z"/><path d="m24.139267 31.0711803v.2478085h-1.4629746v1.4629745h-.2525482v-1.710783z"/><path d="m26.524601 31.0711803v.2478085h-1.4629727v1.4629745h-.2525501v-1.710783z"/><path d="m28.9099369 31.0711803v.2478085h-1.4629745v1.4629745h-.2525502v-1.710783z"/><path d="m31.2952709 31.0711803v.2478085h-1.4629726v1.4629745h-.2525501v-1.710783z"/><path d="m33.6806068 31.0711803v.2478085h-1.4629745v1.4629745h-.2525501v-1.710783z"/><path d="m16.983263 34.0263786v.2478104h-1.4629736v1.4629745h-.2525501v-1.7107849z"/><path d="m19.368597 34.0263786v.2478104h-1.4629726v1.4629745h-.2525501v-1.7107849z"/><path d="m21.753933 34.0263786v.2478104h-1.4629746v1.4629745h-.2525501v-1.7107849z"/><path d="m24.139267 34.0263786v.2478104h-1.4629746v1.4629745h-.2525482v-1.7107849z"/><path d="m26.524601 34.0263786v.2478104h-1.4629727v1.4629745h-.2525501v-1.7107849z"/><path d="m28.9099369 34.0263786v.2478104h-1.4629745v1.4629745h-.2525502v-1.7107849z"/><path d="m31.2952709 34.0263786v.2478104h-1.4629726v1.4629745h-.2525501v-1.7107849z"/><path d="m33.6806068 34.0263786v.2478104h-1.4629745v1.4629745h-.2525501v-1.7107849z"/><path d="m16.983263 43.2502098v.2478066h-1.4629736v1.4629745h-.2525501v-1.7107811z"/><path d="m19.368597 43.2502098v.2478066h-1.4629726v1.4629745h-.2525501v-1.7107811z"/><path d="m21.753933 43.2502098v.2478066h-1.4629746v1.4629745h-.2525501v-1.7107811z"/><path d="m24.139267 43.2502098v.2478066h-1.4629746v1.4629745h-.2525482v-1.7107811z"/><path d="m26.524601 43.2502098v.2478066h-1.4629727v1.4629745h-.2525501v-1.7107811z"/><path d="m28.9099369 43.2502098v.2478066h-1.4629745v1.4629745h-.2525502v-1.7107811z"/><path d="m31.2952709 43.2502098v.2478066h-1.4629726v1.4629745h-.2525501v-1.7107811z"/><path d="m33.6806068 43.2502098v.2478066h-1.4629745v1.4629745h-.2525501v-1.7107811z"/><path d="m16.983263 46.20541v.2478066h-1.4629736v1.4629745h-.2525501v-1.7107811z"/><path d="m19.368597 46.20541v.2478066h-1.4629726v1.4629745h-.2525501v-1.7107811z"/><path d="m21.753933 46.20541v.2478066h-1.4629746v1.4629745h-.2525501v-1.7107811z"/><path d="m24.139267 46.20541v.2478066h-1.4629746v1.4629745h-.2525482v-1.7107811z"/><path d="m26.524601 46.20541v.2478066h-1.4629727v1.4629745h-.2525501v-1.7107811z"/><path d="m28.9099369 46.20541v.2478066h-1.4629745v1.4629745h-.2525502v-1.7107811z"/><path d="m31.2952709 46.20541v.2478066h-1.4629726v1.4629745h-.2525501v-1.7107811z"/><path d="m33.6806068 46.20541v.2478066h-1.4629745v1.4629745h-.2525501v-1.7107811z"/><path d="m16.983263 49.1606064v.2478103h-1.4629736v1.4629746h-.2525501v-1.7107849z"/><path d="m19.368597 49.1606064v.2478103h-1.4629726v1.4629746h-.2525501v-1.7107849z"/><path d="m21.753933 49.1606064v.2478103h-1.4629746v1.4629746h-.2525501v-1.7107849z"/><path d="m24.139267 49.1606064v.2478103h-1.4629746v1.4629746h-.2525482v-1.7107849z"/><path d="m26.524601 49.1606064v.2478103h-1.4629727v1.4629746h-.2525501v-1.7107849z"/><path d="m28.9099369 49.1606064v.2478103h-1.4629745v1.4629746h-.2525502v-1.7107849z"/><path d="m31.2952709 49.1606064v.2478103h-1.4629726v1.4629746h-.2525501v-1.7107849z"/><path d="m33.6806068 49.1606064v.2478103h-1.4629745v1.4629746h-.2525501v-1.7107849z"/><path d="m16.983263 52.1158066v.2478103h-1.4629736v1.4629708h-.2525501v-1.7107811z"/><path d="m19.368597 52.1158066v.2478103h-1.4629726v1.4629708h-.2525501v-1.7107811z"/><path d="m21.753933 52.1158066v.2478103h-1.4629746v1.4629708h-.2525501v-1.7107811z"/><path d="m24.139267 52.1158066v.2478103h-1.4629746v1.4629708h-.2525482v-1.7107811z"/><path d="m26.524601 52.1158066v.2478103h-1.4629727v1.4629708h-.2525501v-1.7107811z"/><path d="m28.9099369 52.1158066v.2478103h-1.4629745v1.4629708h-.2525502v-1.7107811z"/><path d="m31.2952709 52.1158066v.2478103h-1.4629726v1.4629708h-.2525501v-1.7107811z"/><path d="m33.6806068 52.1158066v.2478103h-1.4629745v1.4629708h-.2525501v-1.7107811z"/><path d="m41.4776382 28.1159401c-1.2885132 0-2.3330078 1.0445557-2.3330078 2.3330078 0 1.2885132 1.0444946 2.3330078 2.3330078 2.3330078 1.2884521 0 2.3329468-1.0444946 2.3329468-2.3330078 0-1.2884521-1.0444946-2.3330078-2.3329468-2.3330078z"/><path d="m49.9831467 28.1159401c-1.2885132 0-2.3330078 1.0445557-2.3330078 2.3330078 0 1.2885132 1.0444946 2.3330078 2.3330078 2.3330078 1.2884521 0 2.3329468-1.0444946 2.3329468-2.3330078-.0000001-1.2884521-1.0444947-2.3330078-2.3329468-2.3330078z"/><path d="m41.4776382 45.5831833c-1.2885132 0-2.3330078 1.0445557-2.3330078 2.3330078 0 1.2885132 1.0444946 2.3330078 2.3330078 2.3330078 1.2884521 0 2.3329468-1.0444946 2.3329468-2.3330078 0-1.2884521-1.0444946-2.3330078-2.3329468-2.3330078z"/><path d="m49.9831467 45.5831833c-1.2885132 0-2.3330078 1.0445557-2.3330078 2.3330078 0 1.2885132 1.0444946 2.3330078 2.3330078 2.3330078 1.2884521 0 2.3329468-1.0444946 2.3329468-2.3330078-.0000001-1.2884521-1.0444947-2.3330078-2.3329468-2.3330078z"/></g><path d="m93.5219116 60.0847015h-34.909359c-.6393127 0-1.1575928.5182838-1.1575928 1.1576309v22.649765c0 .6393127.51828 1.1575928 1.1575928 1.1575928h34.909359c.6393127 0 1.1576309-.51828 1.1576309-1.1575928v-22.649765c0-.639347-.5183181-1.1576309-1.1576309-1.1576309z" fill="#3a556a"/><path d="m60.148342 62.824425h31.838305v18.301806h-31.838305z" fill="#2d93ba"/><path d="m54.9173164 85.0496902v1.1670456c0 .8254623.6691551 1.4946518 1.4946251 1.4946518h39.3106232c.8254623 0 1.4946213-.6691895 1.4946213-1.4946518v-1.1670456z" fill="#2f4859"/><path d="m76.0672684 82.0254135c-.5092697 0-.9220963.4128647-.9220963.9220963 0 .5092773.4128265.9220963.9220963.9220963.5092392 0 .9220581-.4128189.9220581-.9220963 0-.5092316-.4128189-.9220963-.9220581-.9220963z" fill="#2f4859"/><path d="m80.9103394 62.8244247c-1.3370667 2.9629364-3.4816971 6.0649338-6.3163147 8.8941956-4.6904221 4.6904526-10.1189423 7.5089722-14.4456825 7.8887177v-16.7829133z" fill="#27a2db"/></svg>