<svg enable-background="new 0 0 110 110" height="512" viewBox="0 0 110 110" width="512" xmlns="http://www.w3.org/2000/svg"><path d="m51.0443764 18.9369354.1400146 1.9400024c1.539978-.1100464 3.1300049-.1100464 4.6699829-.0100098l.1300049-1.9400024c-1.6199951-.1000366-3.2999878-.1000366-4.9400024.0100098zm14.4000282 1.8999634c-1.4900551-.5299683-3.0300331-.9400024-4.5700111-1.2600098l-.3900146 1.9100342c1.5200195.3099976 3.039978.7199707 4.5100136 1.2399902l.6400146-1.8300171c-.0599976-.0199584-.1300049-.039978-.1900025-.0599975zm-19.2900429-1.2199707c-1.6099854.3399658-3.2000122.789978-4.75 1.3499756l.6600342 1.8300171c1.4599609-.5300293 2.9699707-.960022 4.4899902-1.2800293zm24.0200234 3.2299805-.8800049 1.710022-.0100098.0199585c1.3699951.710022 2.7200317 1.5200195 4 2.4200439l1.1099854-1.5900269c-1.3499756-.9500122-2.7699585-1.8099975-4.2199707-2.5599975zm-33.2899819.0999756c-.5800171.3000488-1.1500244.6200562-1.710022.960022-.25.1500244-.5.3099976-.7600098.4700317-.2799683.1599731-.5499878.3399658-.8200073.5199585-.3099976.2000122-.6199951.4100342-.9199829.6300049l.7600098 1.0599976.3699951.5200195c.25-.1799927.5-.3500366.7600098-.5200195.8999634-.6099854 1.8399658-1.1799927 2.7999878-1.6900024.1400146-.0799561.2799683-.1599731.4199829-.2299805zm43.2799721 7.5c-.0200195-.0199585-.039978-.039978-.0700073-.0699463-.2999878-.3200073-.5999756-.6400146-.9199829-.9500122-.2999878-.3099976-.6199951-.6199951-.9400024-.9100342l-.3499756.3800049-.9700317 1.0400391c1.1400146 1.0599976 2.210022 2.1999512 3.2000122 3.3999634l1.5-1.2299805c-.4600221-.5700074-.9500123-1.1199952-1.4500123-1.6600342zm-50.7399921-1.1900025-.5700073-.6099854c-.9299927.8800049-1.8200073 1.8099976-2.6599731 2.7900391-.2400513.2699585-.4700317.5499878-.7000122.8299561l.5299683.4299927.6300049.5100098.3500366.2800293c.0799561-.0900269.1499634-.1900024.2299805-.2800293.6900024-.8399658 1.4299927-1.6399536 2.1900024-2.4099731.25-.25.5-.4899902.7600098-.7299805zm55.0499897 6.8700562-1.6499634 1.0199585c.8099976 1.3200073 1.539978 2.710022 2.1599731 4.1300049l1.7800293-.7799683c-.6600342-1.5-1.4300537-2.9700318-2.290039-4.3699951zm-60.3999653 1.0299682-1.1600342-.7000122-.2600098-.1599731c-.0299683.0499878-.0599976.1099854-.0899658.1599731-.2399902.3900146-.460022.7800293-.6799927 1.1799927-.1100464.2000122-.2200317.4000244-.3200073.6000366-.1100464.2099609-.2300415.4299927-.3300171.6499634-.210022.4100342-.4099731.8300171-.5999756 1.2600098-.0900269.1700439-.1600342.3400269-.2400513.5200195 0 .0100098-.0099487.0100098-.0099487.0200195h.0099487l1.1700439.5099487.2799683.1200562.3300171.1399536c.0200195-.0499878.039978-.0899658.0599976-.1399536.1799927-.4200439.3800049-.8400269.5800171-1.25h.0100098v-.0100098c.1799927-.3900146.3799438-.7900391.5999756-1.1700439.1699829-.3499756.3699951-.6900024.5700073-1.0299683.0200195-.0499878.0499878-.1000366.0800171-.1400146.0099487-.0299683.0299683-.0599976.0499878-.0800171.0599976-.1099854.1199951-.2199707.1900024-.3299561zm64.3599872 7.9899903-1.8699951.5300293c.3499756 1.2099609.6300049 2.4599609.8299561 3.7099609.0500488.2700195.0900269.5500488.1200562.8300171.0099487.0100098.0099487.0200195.0099487.0300293h.0300293l.3099976-.0500488 1.5899658-.2199707c-.2299805-1.6300049-.5699464-3.25-1.0199586-4.8300171zm-69.6900043.2000122c-.2399902.8599854-.4500122 1.7399902-.6199951 2.6300049-.1500244.7299805-.2700195 1.4699707-.3699951 2.210022l1.9199829.25c.210022-1.5400391.5299683-3.0800171.9400024-4.5700073zm69.119997 9.5499878v.1400146c0 .6699829-.0200195 1.3400269-.0599976 2.0100098-.039978.6400146-.0900269 1.2700195-.1699829 1.8999634-.0200195.25-.0599976.5-.0900269.75l1.9299927.2700195c.0499878-.3399658.0900269-.6799927.1199951-1.0200195.0700073-.6299438.1199951-1.2699585.1500244-1.8999634.039978-.6699829.0599976-1.3400269.0599976-2.0100098v-.1400146zm-68.4899921.2100219h-1.9400024c0 1.6499634.1199951 3.3099976.3399658 4.9199829l1.9200439-.2600098c-.210022-1.5299682-.3200073-3.0999755-.3200073-4.6599731zm67.2299823 9.1599732c-.4199829 1.5-.9500122 2.9899902-1.5700073 4.4100342l1.7800293.7699585c.6599731-1.5 1.2199707-3.0699463 1.6599731-4.6499634zm-65.9500141.0700073-1.8699951.5300293c.4400024 1.5799561 1 3.1399536 1.6600342 4.6499634l1.7799683-.7799683c-.6199952-1.4299927-1.1499634-2.9100342-1.5700074-4.4000244zm62.2300434 8.4899902c-.3600464.6000366-.7400513 1.1799927-1.1400146 1.75-.4899902.710022-1.0100098 1.4000244-1.5499878 2.0599976l.8499756.7000122.6500244.5300293c.1399536-.1700439.2799683-.3500366.4199829-.5300293.7000122-.8800049 1.3599854-1.8099976 1.960022-2.7600098.1599731-.2399902.3199463-.4899902.4699707-.7399902zm-58.5000019.0500489-.3600464.2199707-1.2999878.789978c.8500366 1.4000244 1.8099976 2.75 2.8500366 4.0300293l1.5099487-1.2299805c-.9899901-1.2100219-1.8999633-2.4900512-2.6999511-3.8099975zm52.6199971 7.1799926c-1.1199951 1.039978-2.3099976 2.0100098-3.5400391 2.8899536-.0299683.0200195-.0499878.0400391-.0799561.0599976l.6499634.9100342.4700317.6699829c.3099976-.2199707.6199951-.4400024.9199829-.6699829.4199829-.3099976.8200073-.6400146 1.2199707-.9700317.5800171-.4699707 1.1400146-.9599609 1.6800537-1.4699707zm-46.7300435.0399781-1.2099609 1.3099976-.1100464.1099854c1.2000122 1.1199951 2.4900513 2.1600342 3.8300152 3.1100464l1.1199951-1.5900269c-1.2699585-.8900147-2.4899883-1.880005-3.630003-2.9400025zm39.1199971 5.3400268c-1.3799438.7199707-2.8199463 1.3499756-4.2799683 1.8699951l.1599731.4400024.4900513 1.3899536c1.1199951-.3999634 2.2399902-.8699951 3.3299561-1.3899536.4000244-.1900024.7999878-.3800049 1.2000122-.5900269zm-31.5000038.0299683-.8899536 1.7200317c1.4599609.7599487 2.9899902 1.4199829 4.5299683 1.9699707l.6500244-1.8300171c-1.4600221-.5199585-2.9100343-1.1399536-4.2900391-1.8599853zm22.7200317 3.1000366c-1.5200195.3099976-3.0700073.5299683-4.6199951.6299438v.0500488l.1300049 1.8899536c1.6400146-.1099854 3.2799683-.3399658 4.8900146-.6699829zm-13.9299927.0099487-.0599976.3000488-.2399902 1.1900024-.0900269.4199829c1.6099854.3300171 3.25.5499878 4.8900146.6599731l.1300049-1.9400024c-1.5499877-.0999755-3.1100463-.3099974-4.6300048-.6300048z" fill="#d5d6db"/><path d="m71.0585556 69.1432953c-.4022141-.7299194-.3265305-1.6621628-.1031876-2.4118347.5821609-1.9543152 2.1309433-3.4424858 2.8367767-5.4488373-.4102173-5.2310524-1.1206284-10.5357857-.4779053-15.7603531.0408707-.3324318.1697083-.6038132.3475037-.8216476-3.7485886-7.256176-11.3149109-12.219944-20.0453568-12.219944-12.4563141 0-22.5541401 10.0978737-22.5541401 22.5542336s10.097826 22.5542374 22.5541401 22.5542374c7.0674515 0 13.3730011-3.2528381 17.5083923-8.3405228-.0217513-.0361329-.0451582-.0671998-.066223-.1053315z" fill="#27a2db"/><path d="m76.1740112 55.0331039c0 5.8217888-2.2082367 11.1305466-5.8291855 15.1232529-.0223236 0-.0446548-.0074387-.0744247-.0074387-.17099-.0074463-.3271027.1635971-.3939972.2899857-.0594482.1189423-.0817719.245369-.1413116.3568726-.7286377.7584076-1.5168152 1.4647598-2.3569107 2.1041794-.0595398-.0074387-.1264267-.0074387-.1933212-.0148849-.267746-.0222778-.3123093.1338272-.4312973.3345947-.1412277.2230453-.3717651.4386978-.6245346.5427551-.2899857.118988-.6170883.1710434-.9219589.2304916-.1933212.0372162-.2751007.0520554-.3419952.2528152-.0445633.1189423-.0668869.2602158-.0817719.3866501-.3643188.2081604-.7286377.4089279-1.1078415.5948029.0148849-.5353546.3643188-.9740067.3866425-1.5168076.0074463-.1189423-.0223236-.2527771.0074463-.3717651.0296783-.1412659.1114502-.17099.1635513-.2899399.0594482-.1487122.1412277-.4609756.0148849-.5799637-.1709976-.1561127-.4015312-.1561127-.4536285-.438652-.0148849-.0818253 0-.1487198.0074425-.2379379.0148849-.2602539.0223274-.5650787-.0743332-.8104553-.0817757-.2081604-.327198-.3197098-.5427551-.3048248-.20821.0074387-.3940887.1412735-.5947647.0668945-.1041946-.0371704-.1562004-.1561127-.2603035-.1933289-.0966644-.0297241-.1635551-.0148392-.2602158-.0148392-.2602158.0074463-.5279617.0222855-.7880859.0074463-.2007675-.0074463-.3792038-.0892181-.5650864-.1561584-.2826309-.0892181-.3495216-.2230453-.4981918-.4312515-.118988-.1709976-.2676544-.2899857-.3792038-.4609833-.0371208-.0520477-.0966606-.1041031-.133873-.1561127-.0594482-.0966568-.0594482-.2007599-.1040115-.289978-.0893097-.1636047-.2975197-.223053-.3568764-.4089279-.0520973-.1561584-.0223274-.3717651 0-.5279236.0147934-.1412659.126339-.3568726.0593567-.4833069-.0742416-.1412659-.3047791-.0966568-.4237671-.0966568-.2602119.0148849-.3568764.0818176-.5056343.3048706-.1040115.156105-.1784363.2750931-.1858788.4609756-.0074425.1338272-.0296822.3271561.0074425.453537.0446548.1858826.2603035.2304916.3495216.3940887.1041069.1933212.0445671.4312134.1338768.6245346.0816841.1710434.0816841.2751007.0965691.4609756.0520973.3717651.4015312.4461441.7137527.4386978.1265221-.0074387.475956-.0669327.572525.0595016.0967522.1263809.0223274.4832611.0223274.624527 0 .1263885.0223274.267662-.0074425.3866501-.0445633.1858749-.1933212.3048248-.319664.4312515-.2156487.2156067-.3568764.334549-.6469498.4683762-.200676.0966644-.4088821.2379379-.6318855.2528229-.2305336.0074387-.4313011.0817719-.6618347.1189423-.2526817.0372086-.527874.0372086-.7806435.0966568-.1635551.0446167-.2974281.1487198-.4684219.1636047-.1041069.0148849-.2007675.0074387-.3047791.0074387-.2230949-.0074387-.5725288.0446091-.8030624-.0074387-.1115456-.0297241-.2230949-.1338348-.3271065-.1784439-.118988-.0520477-.2379761-.0818176-.3643188-.0892181-.2454185-.0074387-.5205193-.0223236-.7584076.0520554-.2454185.0743332-.6171799.2007217-.8625107.052002-.118988-.0668869-.0966606-.0817719-.1562004-.1932755-.0520058-.0818176-.126339-.133873-.1933212-.2082062-.0742455-.0669403-.2452393-.2081604-.2526817-.3122635-.0074425-.0669403.0667992-.1338348.0965691-.1784439.118988-.1784821.2528648-.3494797.3643188-.5353546.1784363-.282547.3643188-.4758682.4164162-.8178558.0372124-.223053 0-.401535-.0520973-.6096954-.1040154-.3940887-.0668907-.7881317-.0668907-1.1896591 0-.2304916-.0520096-.5055923.0445633-.7137527.0595398-.1338272.1710854-.223053.2007637-.3717651.0669823-.2899857.0148849-.6617432.0148849-.9591675 0-.2378922.1115494-.7509232-.1635513-.8401413-.4164162-.1487122-.6394196.2378845-.6170921.5948105.0147972.2825394-.1264305.4906998-.1413155.7658005-.0074425.2156525.0520973.453537-.0223274.6617508-.0816841.2082062-.2898941.2974243-.3939972.4758606-.0892181.1709976-.0297699.4238129-.0297699.6096954.0074425.2453308-.0222359.4089279-.118988.6319733-.0891304.2082062-.2378883.3866501-.2824516.6171341-.0818672.3717651.0074425.7137527.0074425 1.1004028.0147934.3494797-.0297699.7509613-.2603073 1.026062-.1337814.1635513-.1933212.2007675.0074425.3345947.2974281.1784363.5948563.3419876.9219627.4684219.2230911.0817719.4684219.1561127.6766281.2751007.193325.1189423.3643188.0966568.5873222.1487122.267746.0668869.5354042.1561127.79562.2378845.1115456.0372162.4313011.0223312.4684219.1264343-.2007675.2676544-.3717613.3197098-.6840744.3419876-.2973366.0297699-.5278702.0818253-.8029709.1933212-.2082062.0892258-.3717613.2007675-.5501976.342041-.2453308.2081604-.438652.3048248-.7732925.3048248-.3197556 0-.5947647-.0222855-.907074.0818176-.3792038.1338272-.7138443.2973862-1.1301689.3197098-.5427551.0148392-1.115284-.1041031-1.6431541.0148392-.4833069.1041031-.9294014.0966644-1.4201508.0966644-.1263428 0-.2454224.0074387-.3717613 0-.319664 0-.7286377-.0892181-1.0260658.074379-.0445633.0222778-.0892181.0520477-.1264305.0817795-3.8365059-1.4573212-7.167469-3.9406586-9.6657829-7.1155167.1487579-.1041031.3048668-.2230453.3940887-.3791962.0669823-.1189499.0595398-.1933289.0966606-.3271561.0594482-.2230453.1710854-.3494339.1636429-.5948105-.0074425-.2155991-.0893097-.4014816-.1264305-.6096878-.0297699-.1933289-.0445633-.6468658.133873-.7806931.111454-.0892181.3717613-.0520477.5055428-.0817719.1412277-.0371704.2825432-.1189957.4089737-.1933289.334549-.2007599.319664-.4014816.193325-.7360764-.0669823-.1710434-.0744247-.3420334-.1190796-.513031-.0593605-.2156525-.2081184-.3717651-.3271065-.5502014-.1784401-.2677002-.20821-.5428009-.2973366-.8476257-.0297699-.118988-.0669823-.3048668-.1636429-.4015312-.0445671-.0446091-.1189919-.0743332-.1709976-.1189423-.1784363-.1561546-.230442-.4163704-.3420792-.6245766-.1114578-.2156067-.2230034-.4237671-.3865585-.602253-.230442-.2378883-.4460945-.4758186-.6617432-.7360802-.1337852-.1635513-.3122215-.2825394-.4387436-.438652-.111454-.1412697-.1412239-.3123093-.2377968-.4461403-.1116371-.1486664-.2156487-.2156029-.2900734-.4089279-.1561127-.4089279-.4460945-.8550224-.4906616-1.3086052-.0446548-.4238129-.0074425-.8847923 0-1.3086052.0074425-.2602158.0297699-.5427551.0891304-.8029709.0372124-.1710396.1041946-.3494797.1933212-.4981918.0223274-.0297241.1190796-.1709976.1265221-.2230492.0296783-.1709938-.0446548-.3568764.0073509-.5427551.0520096-.1412697.1562042-.2156067.2602158-.3197098.1635551-.1710396.3866463-.3569221.5278702-.5501976.1265221-.1710434.1487617-.3792038.2379799-.5650864.118988-.2156487.319664-.3048668.5278702-.4163704.1709976-.1041031.2900772-.1412697.4833984-.1264305.2898941.0223274.4757729-.1114998.6988678-.2973824.1412239-.118988.2527733-.2379303.3419914-.3792038.0520973-.0817757.0817757-.2007637.1486664-.2750969.1413193-.1709976.3717613-.3494797.6022987-.3643188.2082062-.0074425.4089737.0074425.6171799-.0223274.1709938-.0222816.334549-.0668907.5055428-.0892181.2454224-.0297241.4981041 0 .7509651-.0074425.2379799 0 .438652-.0297241.6690979.0446091.58741.2230911 1.0559235.6171341 1.672924.7584076.327198.0743332.6692772.0371666.9963837.0966606.1486702.0223274.2602158.0223274.4089737-.0148849.2230034-.0668907.446003-.1709976.6690979-.0371666.0967522.0520515.1709938.1561546.2603035.2156029.1040154.0669365.2155609.0966606.3122215.1636009.1561127.1041031.2974281.2676544.4164162.4238129.1709976.2379303.3568764.4609795.5353165.6840248.1041031.148716.1784363.3568764.3047752.4907494.1338768.1412735.3717613.1561127.5279655.2824974.1784363.148716.2081146.4089737.4609795.4684219.1635513.0446091.3047791.0520515.4684219.1264343.1487579.0520515.3420792.0668907.438652.2007179.1784363.2453766.1858788.5650826.4238586.7881317.3271065.2974281.7880859.6915169.6765404 1.1896629-.0965729.4089279-.4386559.7435226-.5502014 1.1450081-.0520058.1635971-.0668907.3048668-.0297699.4609795.0297699.0966606.0893097.1784363.1116371.2825394.0222359.1561584-.0148849.3271523.0296783.4833107.0445671.1412697.1487617.2825394.2230034.4163704.1265221.2230453.2305374.453537.3495255.6765823.133873.2528191.342083.4386978.6319733.5055885.20821.0446129.334549-.1189423.5502014-.0446091.133873.0446091.3568764.1636009.4164162.3123131.0372124.1189423.0074425.513031.0223274.5724831.0296783.2082062.0742416.4833069.1784363.6691856.1561127.2751007.438652.4238129.7211952.5427551.2156487.089222.4757729.1412735.6616554.2974281.2007637.1709976.2379761.3940468.3420792.6171379.1338768.2751007.4460945.334549.6840744.4981461.1709938.1263885.2898941.2676544.5204277.3048248.3048706.0371628.7063103.059494 1.0186234.0148849.2156487-.0297241.4088821-.1709976.6245308-.2082062.2305374-.0520096.4981918-.1338348.5650864-.394043.0372124-.1561584.0520973-.4981537-.0074425-.646862-.0520096-.1636009-.2675667-.193325-.4015312-.2751007-.200676-.118988-.3643188-.2230492-.5947647-.2751007-.1041031-.0223274-.2081146 0-.3123093-.0446091-.2378883-.0892181-.4906616-.3940887-.6839828-.5650826-.193325-.1710434-.2825432-.3197098-.2899857-.5799713-.0148849-.1784363-.0445633-.4609795.0594482-.6170883.3197556 0 .6171837-.0074425.9219627.0743332.3048668.0743332.5948524.1263847.8996315.1338272.2751884.0074425.6171799-.0297241.8030624-.2750969.1933212-.2751007 0-.721241.3271027-.9219627.2751923.3494339.5130806.6765862.7138443 1.0706749.1784363.3419914.3123131.6543045.7064018.7658043.1784363.0446091 1.0706253.1338272 1.0110855-.2676582-.0148849-.1412697-.3047791-.2676544-.3792038-.3643188-.230442-.2676544-.3940849-.6096916-.446003-.9517288-.0520973-.2973824-.1710854-.2973824-.3940887-.4684219-.1635513-.1263847-.2379761-.3197098-.4015312-.453537-.2007637-.1561127-.3419914-.3271523-.4461861-.5576401-.0891266-.193325-.0296783-.5799255-.1784363-.7211952-.1114578-.1041031-.3866463-.0669365-.5278702-.0669365-.1784401-.0297241-.3271065.0223274-.4460983.1487122-.1562004.1487122-.3271942.2676582-.5130768.3568764-.1337814.1487122-.0742416.3717613-.0742416.5501976.0074425.2007675.0445633.3866463-.0595398.5576439-.1561127.2453728-.7137527.4981918-.9889412.4461403-.2526817-.0371704-.2452393-.2528191-.3419914-.4386978-.0891304-.1412735-.1858826-.2751007-.2898941-.4089279-.1413155-.2081642-.3346405-.3197098-.5799713-.3197098-.1115456.0669365-.1413155.1635513-.0818672.2750969 0 .0371704 0 .0594978-.0074425.0966644-.0445633.1338272-.4981003.3792038-.5204277.3866463-.2007637.0668907-.4164162.1486664-.4683304-.0966644-.0074425-.074379.0073509-.1710396.0073509-.2453728.0074425-.3048248.0668907-.5204735.3123131-.706356.2602119-.2007179.4312096-.3048248.4609795-.6617432.0222359-.3048248.0147934-.602253.118988-.9070778.0297699-.1041031.0816841-.2230453.1040115-.3345947.0372124-.2750969.0520973-.5576401.0520973-.8401833 0-.1933212.074337-.6170883-.1337814-.7360764-.0669823-.0074425-.1265221-.0222816-.1933212-.0297241-.0967522 0-.1413193.0446091-.1338768.1263847-.0966606.1263847-.0594482.2156029-.245327.2751007-.1413193.0520515-.5427589.1338272-.6766319.0223274-.0668907-.0520554-.0520058-.1561584-.0520058-.2304916v-.5056343c0-.1486702.0667992-.4312096-.0148849-.5799255-.2007675-.319706-.6989594 0-.8997231-.2453728-.133873-.1561127-.0371208-.4238129-.1635551-.602253-.1041031-.1487122-.2899818-.4312553-.5056343-.4014854-.0668907 0-.126339.0817795-.1784363.0966644-.1040154.0371666-.2750092.0222816-.3568764 0-.0668907-.0148849-.1337814-.0520515-.193325-.0818253-.1337814-.0446091-.2527695-.0371666-.3940849-.0371666-.2601242 0-.527874-.0148392-.7955284 0-.2676582 0-.5056381.1189919-.773201.133831-.4164162.0074425-.4238586-.2081642-.6022987-.5130348-.1486664-.2378845-.3866463-.3717575-.5278702-.6022491-.1784401-.2973824-.3568764-.6096497-.5130768-.9294014-.1041031-.2230492-.2676582-.4758186-.3048706-.7211952-.0668907-.3420372.4313011-.2082062.6320648-.2974281.2230034-.1040573.4237709-.3643188.639328-.453537.2007675-.0668907.4387436-.0743332.6469536-.0743332.1858788-.0074425.5427551-.0966606.7137489.0222816.074337.0520515.0669823.1338272.1041069.2007675.0966606.1933212.2378845.3345909.3123093.5353127.0668907.2007637.1486702.3792038.20821.5799675.0593567.1709976.1784363.3122673.3568764.394043.230442.0966606.4906578-.0297241.7063065-.1412697.1337852-.0743332.3792038-.2230492.4684258-.3568764.0892181-.1338272.0520058-.2453766.0668907-.3866463.0148849-.1635513.0669823-.2081604.1412239-.334549.1116371-.2007637.2379799-.6691856.5650864-.5799675.1635513.0520515.3420792.2751007.4907494.3643188.1858788.118988.3197517.2528152.4981918.3940887.1337814.0966606.2750969.2527695.4238586.319706.1635513.074337.4832153.0520554.6542091.0297279.2677498-.0297279.4907532-.1784401.7211952-.0074425.1784401.1487122.2975197.2528152.5205193.3197517.1264343.0371666.2751007.0668907.408886.0817757.2230911.0297279.2007637.0222855.2975159-.118988.126339-.1932755.1858788-.2973824.4236755-.3494339.2230949-.0520515.4089737.0148849.5799713.133831-.0965729.2007637-.20821.4014854-.334549.5873642-.0595398.1264305-.0520973.2304916.0372124.3197098.0743332.2007637.2378845.3866463.3047791.6022949.0595398.1412277.0669823.2378883.0669823.3866005-.0074425.2379341.0520058.3271523.2082062.4758644.1709976.1709976.3271065.3122673.5427551.4089279.2527733.1041069.4237709-.0148849.6319771-.1412697.3048706-.2007179.438652-.5650826.8401833-.5501976.2751007.0148849.7435226.1115456.9740562-.074337.1858826-.1487122.1189003-.4163704.1486702-.6245766.0223274-.1933212.0445633-.3345947.0445633-.5204735.0074425-.394043.3346405-.5055885.661747-.6096954.4907494-.1561089 1.0631828-.3419914 1.159935-.9145164-.4313011-.1338272-1.040947-.0668907-1.4499207.1412697-.2974281.1561584-.5427551.4907074-.7955284.706356-.133873.1487122-.2974281.2527733-.4833069.3122673-.133873.0520515-.2602158.1115456-.3940887.1784363-.1932335.133831-.3494339.3569221-.6096497.3792038-.1486664.0148849-.334549.0074425-.4758644 0-.8401833-.0297241-.1858788-.8401833-.1487579-1.2714386.0148849-.2676544-.0296783-.4014854-.2750092-.438652-.1709938-.0223274-.5650826-.0966606-.5799675-.3494797-.0074425-.2007179.2602119-.304821.3866463-.4089279.2229996-.2081604.3940849-.4832611.6318817-.6691399.4015312-.3271523 1.0187149-.2007675 1.5093727-.2007675.3123131.0074425.6022949-.0669365.907074-.0669365.3940887.0074425.7881775-.0073967 1.1822662 0 .0817757-.0073967.1635513 0 .2454185.0148849.0965729.0669365.2081184.118988.3271065.1561546.1635551.0520515.334549.0297241.5055466.0297241.2082062 0 .4238586-.0074425.6246223.0371704.2230911.0520515.2230911.1858788.1933212.3940887-.0223274.1338272-.0520973.2750969-.0744247.4089279.0297699.1189423.0967522.2007637.20821.2602119.1858788.1858826.2379761.4015312.3792038.6096954.0446548.0892181.118988.1338272.2156487.1487122.1337852.0966606.2602158.2007637.3792038.3122673.1561127.1412697.2750092.2899818.4981003.3123093.3717651.0297279.7509689-.0074425 1.1227264-.0074425.1412277 0 .3494339.0446129.4833069-.0074425.0966644-.0297241.1636429-.1041031.2007675-.2007637.1041031-.0966606.2229996-.1784363.3419876-.2602158.2974319-.3345909-.0147934-.8996773.3346405-1.2193871.2824554.193325.0223312.5427589 0 .7584076-.0148849.133831.0074463.3197098.0148849.4609795.0148849.2081642.1635513.3568764.2898941.5055923.118988.1487122.3940887.4163704.6171799.2899818.1709976-.1041031.2007675-.4609795.267662-.6245766.0892181-.2007217.1858749-.3568764.3271942-.527874.2973328-.3569183.6616516-.6617432.8847504-1.0781136.1114502-.2156525.0743332-.4833069.1858749-.6914711.0594482-.118988.1412277-.1710396.1784439-.3048706.0668869-.2527695 0-.6394157 0-.907074-.0074463-.1338272.0074387-.2528152.0372086-.3792038.066803-.2528152.1412277-.5576401.2601242-.7955742.3271942.0669403.5205231.3643188.8328323.4238129.2082062.0371704.453537-.0074425.6616516 0 .081871 0 .2156525.0297279.2900772-.0223274.1263428-.0966606.1933212-.4238129.2081146-.5650368.0148849-.2305336-.0073471-.4758644-.0073471-.6989136 0-.2007637-.0148849-.4015312-.0074463-.5948524.0147934-.1858826.066803-.334549.1709976-.4832611.0965729-.1264343.2453308-.1858826.2898941-.3494797.0595398-.2304916.0297699-.602253.0148849-.84758-.0148849-.148716-.0520096-.2899857-.1858826-.3866463-.0892181-.074379-.2453308-.0892181-.3271027-.1784401-.1412277-.1412697-.0893097-.3717575-.081871-.5576401 0-.1933212-.0074387-.3717613-.0074387-.572525 2.7808532 3.7473345 4.4240035 8.3943453 4.4240035 13.4131174z" fill="#ebf0f3"/><path d="m70.4214554 40.5277824c-.1037445-.0359459-.1955109-.1156273-.2992477-.1395912-.0797806-.015976-.1675491.007988-.2474289-.0199699-.1037369-.0359459-.1355896-.1037407-.1955032-.1875153-.1156235-.1556625-.3112259-.2474251-.3112259-.4509163-.0038986-.0877686-.0238647-.215374-.007988-.2992477.0199661-.0957527.1077347-.1475754.1316986-.2393379-.0717926-.1396866-.4747772-.0639-.5984955-.0199699-.1276016.0439339-.2234573.1037445-.3670425.0757866-.1835175-.0398407-.3431778-.2313499-.4667892-.3630524-.0639038-.0757828-.1117325-.2074852-.199501-.2594032-.1396866-.0797806-.3192139-.0877686-.4628983-.1675491-.1835175-.0997467-.3670425-.2154732-.4827652-.3910065-.0717926-.0997467-.1316986-.2074852-.2114792-.3072357-.1117325-.1395874-.2752838-.1955032-.4149704-.3032379-.0797806-.0638046-.1435852-.1476746-.2194672-.2154732-.163559-.1435852-.3430862-.1355972-.5345917-.2234612-.1197205-.0518227-.207489-.1196213-.3112335-.1994972-.1237106-.0956573-.2434311-.1515732-.3910065-.2074852-.2274551-.0876694-.4309464-.1795311-.6264496-.3231125-.0837708-.0599098-.1316986-.0997505-.2154732-.1277084-.1795273-.0518227-.2952538-.1755333-.4508171-.2672958-.1197166-.071888-.2234612-.1316986-.3351898-.2154732-.0917625-.0757828-.1715431-.0997467-.2194672-.2074852-.0318565-.0677948-.0478287-.2194672-.1196213-.2513199-.0599098-.0279541-.1277084.007988-.1956024-.0239639-.1276093-.0639-.1954079-.1596565-.2752838-.2713852-.0717926-.0997505-.1316032-.1116333-.2353439-.1635513-.1117325-.0519218-.2114792-.1277084-.3152237-.1915131-.1755333-.0997467-.1835213-.2553139-.2314491-.4429283-.0159721-.0677948-.0319481-.1355934-.0478287-.203392-2.4737511-.9296913-5.1510925-1.4404182-7.9480553-1.4404182-1.2607918 0-2.493721.1037445-3.6986961.3032417-.0038948.007988-.0118828.015976-.0198708.0239639-.0798759.0757866-.1516685.1157227-.1716385.2313499-.015976.1037445.015976.2154732.007988.3192177-.007988.0877647-.0438347.2394333-.1237106.291256-.0598106.0359459-.1915131.0359459-.2633018.0639038-.0957565.0358467-.1755371.1036453-.2513237.1675453-.075882.0598106-.1716347.0877686-.2274513.1675491-.0559158.0798759-.0639038.1796265-.0757866.2752838-.0199699.1197166-.0519218.1915092-.1316986.2793732-.1077385.1196213-.0797806.2633018-.0279579.4149704.055912.1515732.1596565.2951546.2594032.418869.0677986.0878639.0598106.0798759.0877686.1636505.0279579.0677986-.011982.0358467.0598106.0837708.1396866.0917625.3192139.011982.4549103.1237144.0598106.0478287.0997467.1116333.1675453.1515694.0598106.0359459.1157265.0438347.1755371.0797806.1277046.0717926.1835213.2792778.2633018.3989944.0798759.1277084.0399361.2274551.059906.3710403.0319519.2514191.2393379.2992477.474781.3192139.1077385.011982.2514191-.0279541.3551598.007988.0438347.011982.1316032.1117325.1435852.1197205.051918.0438347.1715393.0957527.1994972.1595573.015976.0279579 0 .0878639 0 .1117325-.007988.0918579.003994.2792778-.0797806.3511658-.0279541.0239639-.1356926.0518227-.1635513.0638046-.0957565.0439301-.3152237.0997467-.3711357.1875153-.0717926.0997505.007988.2234612.059906.3112297.0797806.1396866.1395912.2194672.3112297.2514153.0677986.015976.1555634.0278587.223362-.003994.0678978-.0359421.1037445-.1117287.1756325-.1396866.0638046-.0279579.1435852-.0318527.2114792-.0439339.0638046-.0118828.1236153-.0198708.1715393-.0677948.0398445-.0319519.0598106-.0957565.0997505-.1237144.0757866-.0598106.498745-.1036453.5346909-.015976.0438347.0918617.0038948.319313-.0559158.3950996-.0757866.0917625-.1435852.0997505-.1476746.2273598-.007988.2354393.1038399.3431778.1876144.546669-.263401.2154732-.5506668.1555672-.8578987.1635513-.0997505.003994-.2274551.0239639-.3072357.0838737-.0917625.0677986-.0757866.1475754-.0318527.2353439.0638046.1356926.1635513.2992477.2553139.4149704.0519218.0677986.1117287.1396866.1955032.1635551.1515732.0439301.3631477.0159721.5187149.0119781.2034912-.0039902.3989944-.0558128.6024857-.0358467.1396866.0158806.3590584.0997505.474781-.0199661.0479279-.0479279.0598106-.1356964.1117325-.1795311.0558167-.047924.1356926-.0439301.2034912-.0439301.1355972.003994.1875153-.003994.2872658-.0957565.1675453-.1436806.3989944-.0639.5905037-.1396866.0678978-.0239639.1157265-.0638046.1875153-.0877686.0957565-.0318527.1915131-.0279579.2912598-.0279579.1516685 0 .3072357.0319519.4469223-.0398407.0518227-.0279541.0837746-.0638046.1435852-.075882.067894-.0158768.1476746.0040894.2194672.0040894.0917587-.0040894.1676445-.0199661.2554092-.0399361.1475792-.0399399.3071365-.0479279.430851-.1356926.1396866-.0997505.1117287-.2832718.1077347-.4428329-.003994-.067894-.003994-.1237106-.0239639-.1875153-.0238647-.0757866-.0797768-.1316986-.0956573-.2034912.3670464-.0479279.7460709.0158768 1.1171112-.0279579.2474251-.0319519.5944977-.2992477.4549103-.5705376-.0479279-.0838699-.1197205-.1795273-.2074852-.2234573-.1037445-.0478287-.2474251-.011982-.3591576-.011982-.1315994.003994-.3192139.0359421-.4388351-.0358467-.1636505-.1077385-.2354431-.3232117-.4549103-.3511696-.1435814-.0199699-.2912598-.0638046-.4229584-.1396866-.0757866-.0438347-.1395912-.1117287-.1874199-.1835213-.055912-.0837746-.067894-.1077385-.0279541-.1915092.0558167-.1117325.2194672-.1755371.3272018-.2234612.0997505-.0438347.1595612-.0478287.2672958-.0518227.0957565 0 .1994972.0199661.2912598-.0199699.0757866-.0319519.0797806-.0598106.1355972-.1157265.1356926-.1355934.5306931-.0757828.7062302-.0677948.1596565.003994.3272018.0319481.482769.0159721.055912-.007988.1237106-.0399361.1796227-.0359421.0997505.007988.1715431.0957527.2393417.1516685.075882.0638046.1197166.0997467.2194672.0837746.1077347-.0199699.2114792-.0677986.3272018-.0439339.1277046.0319519.1555672.1676445.2114792.2633018.0598106.0997505.1355972.1596565.2154732.2354431.1595612.1436806.223362.2474213.227356.4668884-.2034912.1116333-.5545578.1515732-.6822662.3430824-.0677986.0997505-.0957527.2792778-.0797768.3950043.0359421.3072319.4468231.3351898.6942482.3272018.1277046 0 .2992439-.0359459.4229584 0 .1157227.0358467.1515694.1435852.2234573.227356.0956612.1118279.1875191.1556625.3271065.1636505-.1635513.3271065-.6064796.6144714-.9775162.5905075-.2194672-.015976-.4269524.0239639-.6344414-.0877686-.1116295-.059906-.2074852-.1197166-.283268-.2234612-.0438347-.0598106-.0558167-.0797806-.1355972-.0877647-.0639038-.007988-.267395-.0199699-.3351898.0079842-.0478287.0199699-.0877686.0757866-.1277084.1037445-.0957527.0638046-.2314491.0757866-.2872658.1915092-.0558167.1117325-.0638008.2792778-.0677948.4029884-.007988.2672958.1515694.3510704.3830185.3830223.1595573.0239639.3112297.0837746.470787.0917587.0798759.007988.1636505-.0039902.2434311-.0039902.1915092 0 .4189644-.0318565.6064796 0 .1037445.0199661.1835213.0797768.2872658.1117287.1276093.0438347.2473259.0399399.3870125.0438347.1395912.0040932.2274551.0200653.3630524.071888.0997467.0399399.1755333.0518227.2832718.0518227.490757-.0118828.9816093-.0038948 1.4723663-.0038948.1915092 0 .3870125.0118828.5785255 0 .0558167-.0040932.1635513-.0439339.2114792-.0040932.0478287.0479279.0717888.1956024.1037407.2554131.0398407.0797806.0638046.1197166.0598106.2074852-.003994.0757866-.011982.1475792.003994.2234612.015976.0997505.0717926.1915092.0757866.2951546.007988.1716385-.0078926.1836205-.1236153.3152237-.0798759.0878639-.2194672.1117287-.3232079.1796265-.0997505.0638046-.1595612.1196213-.2832718.1315994-.0957565.007988-.1876144.003994-.2832718 0-.2154732-.003994-.4389343.0279579-.6544075.015976-.1157227-.003994-.2513199-.0359421-.3590584-.0757828-.1277046-.0439339-.2274551-.0558167-.3551598-.0599098-.1675453-.007988-.2952538-.0518227-.4388351-.1236153-.1396866-.067894-.2992477-.1396866-.4549103-.1516685-.1037445-.003994-.1475792-.0319519-.2354431-.0917587-.0398407-.0278625-.0876694-.0558167-.1276093-.0917625-.0199661-.0199699-.0757828-.0997505-.1077347-.1157265-.1396866-.0598068-.2593079.0639038-.3431778.1596565-.1316032.1475792-.2553177.2952538-.3950043.438839-.0638046.0639-.1116333.1197166-.2034912.1396866-.0837746.015976-.227356.007988-.3151245-.003994-.1197166-.0239639-.2074852-.1197166-.3112259-.1875153-.1237145-.0837743-.2194672-.1277043-.3671456-.1277043h-.6822662c-.1157227 0-.2353439 0-.3510666-.003994-.0399399 0-.1117325-.015976-.1476746 0-.1077385.0359421-.1875191.2474213-.2154732.3431778-.0917625.3272018.1396866.6543083.3671417.8657875.0398407.0359459.0837708.0877686.1395874.1117325.0718918.0319481.1636505.0239639.2314491.0638046.1595612.0957527.1476746.3112259.3471718.3471718.2553139.0478287.6822701.0158768.8058815.3112259.0239639.0558167.0199699.1276093.0439339.1875191.0319519.0917587.0837746.1435814.1435852.2194672.0838699.1077347.071888.2313499.1556625.3470726.1355934.1915131.3510666.3351936.5147171.502739.1117325.1157265.2193718.1915092.3750343.2314491.3032379.0797806.6622963.0319519.969532.0358467.2074852 0 .3989944-.0398407.6104736-.0398407h2.7171822c.1157265 0 .1955032.0199699.2832756-.055912.1077347-.0957565.1755295-.2593079.2074814-.3950043.015976-.0797768.0279541-.1715393.0199661-.2553139-.0119781-.1157227-.063797-.1875153-.1157227-.2872658-.0877686-.1755333-.0359421-.4189644-.0399399-.6144676 0-.1556625 0-.1955032.0838776-.3311958.0278549-.0358467.0398407-.0677986.0677948-.1037445.0877686-.1037407.2234573-.1277046.3311996-.2074852.1196213-.0877686.1116333-.1835213.1077347-.3192139-.0040894-.1435852-.0040894-.2871704-.0040894-.434845 0-.071888-.0158768-.1595573-.0038986-.2314491.0278625-.1635513.1475754-.2314491.1196213-.4109764-.0039978-.0438347-.0398407-.2553139-.0997467-.3112259-.0278625-.0278625-.1435852-.0438347-.1675491-.0558167-.1157227-.0519218-.2752838-.1795311-.2832718-.3152237-.007988-.1236153.1037445-.3192139.1197205-.4508171.0078888-.0838699.0039902-.1715431.0039902-.2554131 0-.1236153.0038986-.2553139 0-.3830185-.0039902-.2912598-.3232117-.3272057-.5187111-.482769-.0717926-.0558167-.1915131-.1676445-.2154732-.2633018-.0239639-.1077385.1037407-.2234612.1835213-.287365.1157227-.0917587.2074852-.0877647.3431816-.0837708.1077347.003994.2513199-.0358467.3470688.0199661.2832718.1596603.1715469.6104774.1715469.8697853 0 .1077347-.0358505.2912598.0040894.3950996.0358429.0876694.1595612.1675453.2233658.2353439.0877609.0917625.1476746.1396866.2832718.1556625.0997467.0158768.2154694.0198708.3192139.0118828.1356888-.007988.2354431-.0598106.2354431-.203392-.0039978-.1396866-.067894-.283371-.1835251-.3591537-.1316986-.0917625-.2114792-.1715431-.287262-.3152237-.0718918-.1316032-.0439377-.2752838-.0439377-.4228592 0-.0718918-.0399323-.2554131.0319519-.3072357.0558167-.0359459.2792816-.0040932.3390884-.0040932.1197205.0040932.2912598.015976.3989944.0838737.0757904.0478287.0997543.1395874.1675491.1795273.1636505.1077385.4030838.0558167.5866089.0479279.2353439-.007988.3710403.1236115.5345917.283268.0957565.0917625.1796265.1675491.2234573.2951584.0877686.2434273.2434311.4269524.4309464.6025848.1715469.1635513.2513199.3750305.4149704.5465698.1157303 0 .1515732.0399399.2672958.0359459.199501-.003994.2314529.0239639.3272095.1955032.0438309.0837746.1037369.1595612.1715393.2233658.0279541.0399361.0558167.0838699.0797806.1237106.1316986.071888.3032379-.1555672.3591537-.2473259.0717926-.1077385.0837708-.1955032.0877686-.3232117 0-.0717888-.0439377-.2354393-.0199738-.291256.0877686-.2154732.5107269-.195507.686264-.1875191.0877686 0 .271286.0478287.3152237-.051918-.0599133-.107639-.0877683-.1515729-.2034909-.191509z" fill="#ebf0f3"/><path d="m31.1762142 52.7410736c.1396866.0797806.2354412.0518227.3272038-.0957527.0717907-.1197205.1237106-.2394371.2074852-.3511658.1835213-.2513237.3950005-.2832718.6902542-.2832718.0638046 0 .1396866-.015976.2034912.007988.0877686.0279541.1237106.1037407.2234612.1197166.2633018.0518227.5226097.0518227.7820168.011982.2194672-.0359459.3311005-.2154732.4588051-.3871117.1636505-.223362.2872658-.4946518.3511658-.7660408.0398407-.1635513.0319519-.3311958.0278587-.494751-.0038948-.2114792.0559158-.3032379.1197205-.490757.0359421-.1197166.0957527-.2473259.1037407-.3670425.007988-.1676445-.0398407-.3431778.0439339-.494751.0518227-.0917625.1316032-.1595573.1755333-.2554131.0677986-.1315994.1516685-.279274.2034912-.4149704.015976-.0478287.015976-.1036453.0359459-.1515694.0398407-.0957565.0957565-.1635551.1076393-.2712898.0120773-.0917625-.0198708-.1915092-.0118828-.283371.0118828-.1156273.0837708-.219368.0957527-.3350906.011982-.0837746-.011982-.1715431-.003994-.2554131.0319519-.3510704.1955032-.7181129.3152237-1.0413246.0598106-.1595573.1236153-.2633972.2473259-.3830185.1117287-.1077385.259407-.2154732.3351898-.3551598.0797806-.1475792.0837746-.3350945.1475792-.494751.0639-.1555672.1715393-.2553139.2872658-.3750343.1077347-.1157227.1835213-.2354431.2554092-.3790245.0797806-.1595612.195507-.263401.3232117-.3910103.1116333-.1077347.2553139-.2154732.3152199-.3590546.0438347-.0958519.0438347-.2074852.0757866-.3072357.0318527-.1038399.0438347-.1956024.0598106-.2992477.0239639-.1915092.0997505-.3391838.1875153-.5067291.0678978-.1277084.0559158-.3112297.1476784-.4149704.1077347-.1277084.287262-.2394371.4189644-.3391876.1515694-.1117287.279274-.2474251.4148712-.3750305.0997505-.0957565.1916084-.1755371.267395-.2912598.0917587-.1436806.1955032-.2593079.2952499-.3950005.0797806-.0997505.0997505-.259407.207489-.3351936.1117287-.0797806.3271027-.0199699.3870125-.1515694.011982-.0279579 0-.0639038.007988-.0917625.015976-.0519218.0558167-.1038399.0757866-.1596565.0797768-.2194672.0319481-.4588051.0997467-.6822662.0279579-.1037445.0757866-.2274551.1355972-.3152237.067894-.0917587.2035904-.1635513.2434311-.2752838.0159721-.0558167.003994-.1475754.011982-.2074852.0119781-.0757828.0359421-.1316986.055912-.2074852.0278587-.1197166.0398407-.2034912.1156273-.3072319.051918-.0797806.1077347-.1555672.1596565-.2354431.0717926-.1077385.1435852-.2074852.1915092-.3271065.0558167-.1277046.1237144-.279377.1237144-.4229584 0-.0757866-.0279579-.1595612.0079842-.2314491.0518227-.1116333.2073898-.1635513.2912598-.2473259.1077385-.1037445.1954079-.2074852.3111305-.3032417.1317024-.1077347.2314491-.2354431.3232117-.3711357-6.0207788 3.555111-10.2461778 9.8313027-10.984358 17.1369324z" fill="#ebf0f3"/><path d="m74.5489502 63.439682c-3.3248367 8.2918015-11.4451218 14.1491394-20.9295006 14.1491394-12.4580994 0-22.5553722-10.0971756-22.5553722-22.555275 0-5.0567627 1.6583805-9.7214203 4.4685535-13.4792519-1.0619431 2.6141663-1.6420288 5.4652252-1.6420288 8.4551468 0 12.4499702 10.0972748 22.5553246 22.5471954 22.5553246 7.4258156 0 14.0101777-3.5863113 18.1111527-9.1250839z" fill="#344d5b" opacity=".15"/><path d="m90.7204132 57.0505257h-25.8929748c-.5395737 0-.9770012.4374237-.9770012.9770393v18.3328934c0 .5396118.4374275.9770355.9770012.9770355h25.8929749c.5395737 0 .9769974-.4374237.9769974-.9770355v-18.3328934c-.0000001-.5396156-.4374238-.9770393-.9769975-.9770393z" fill="#3a556a"/><path d="m69.956726 54.730553h15.63447v24.060616h-15.63447z" fill="#27a2db" transform="matrix(0 1 -1 0 144.535 -11.013)"/><path d="m90.7400589 77.3374939h-25.9322662c-.5287857 0-1.1132355.3168869-1.310421.7177353l-4.1433372 8.4228134c-.3389435.6890182-.0368843 1.2665253.6863327 1.2665253h35.4671173c.723114 0 1.0252762-.577507.6863327-1.2665253l-4.1433411-8.4228134c-.1971817-.4008484-.7817078-.7177353-1.3104172-.7177353z" fill="#ebf0f3"/><path d="m89.8635254 78.3259125h-24.1791229c-.3357391 0-.6977386.2073593-.8103943.4672623l-1.5377045 3.5474854c-.1437759.3316956.0525932.6054459.4412842.6054459h27.9927673c.3885956 0 .5849686-.2737503.4411926-.6054459l-1.5377045-3.5474854c-.1126556-.259903-.4746551-.4672623-.8103179-.4672623z" fill="#e1e6e9"/><path d="m82.9200897 83.9146042h-10.2922287c-.3997955 0-.7733765.2944794-.8356628.6645889l-.2203369 1.3093414c-.0684052.4065018.2242813.7427368.6552048.7427368h11.0938187c.4308243 0 .7235107-.336235.6551056-.7427368l-.2203369-1.3093414c-.0622865-.3701095-.4358674-.6645889-.8355638-.6645889z" fill="#e1e6e9"/><path d="m15.534094 33.204266h26.031647v3.256413h-26.031647z" fill="#2f4859"/><path d="m42.331955 24.9008579h-27.3982077c-.6993876 0-1.2663317.5669441-1.2663317 1.266304v6.9429302c0 .6993561.5669441 1.2663002 1.2663317 1.2663002h27.3982077c.6993294 0 1.2662735-.5669441 1.2662735-1.2663002v-6.9429302c0-.6993599-.5669442-1.266304-1.2662735-1.266304z" fill="#3a556a"/><g fill="#2f4859"><path d="m15.534094 26.582665h1.254516v1.254516h-1.254516z"/><path d="m16.708283 27.756853h1.254516v1.254516h-1.254516z"/><path d="m17.962799 26.582665h1.254516v1.254516h-1.254516z"/><path d="m19.136988 27.756853h1.254516v1.254516h-1.254516z"/><path d="m20.391502 26.582665h1.254516v1.254516h-1.254516z"/><path d="m21.565693 27.756853h1.254516v1.254516h-1.254516z"/><path d="m22.820208 26.582665h1.254516v1.254516h-1.254516z"/><path d="m23.994396 27.756853h1.254516v1.254516h-1.254516z"/><path d="m25.248913 26.582665h1.254516v1.254516h-1.254516z"/><path d="m15.534094 29.011368h1.254516v1.254516h-1.254516z"/><path d="m16.708283 30.185558h1.254516v1.254516h-1.254516z"/><path d="m17.962799 29.011368h1.254516v1.254516h-1.254516z"/><path d="m19.136988 30.185558h1.254516v1.254516h-1.254516z"/><path d="m20.391502 29.011368h1.254516v1.254516h-1.254516z"/><path d="m21.565693 30.185558h1.254516v1.254516h-1.254516z"/><path d="m22.820208 29.011368h1.254516v1.254516h-1.254516z"/><path d="m23.994396 30.185558h1.254516v1.254516h-1.254516z"/><path d="m25.248913 29.011368h1.254516v1.254516h-1.254516z"/><path d="m15.534094 31.440073h1.254516v1.254516h-1.254516z"/><path d="m17.962799 31.440073h1.254516v1.254516h-1.254516z"/><path d="m20.391502 31.440073h1.254516v1.254516h-1.254516z"/><path d="m22.820208 31.440073h1.254516v1.254516h-1.254516z"/><path d="m25.248913 31.440073h1.254516v1.254516h-1.254516z"/><path d="m29.424395 26.582665h12.141345v6.111925h-12.141345z"/></g><path d="m31.5764389 28.2939911c-.7425957 0-1.344635.6020107-1.344635 1.344635s.6020393 1.344635 1.344635 1.344635c.7426529 0 1.3446922-.6020107 1.3446922-1.344635s-.6020393-1.344635-1.3446922-1.344635z" fill="#64798a"/><path d="m35.4365501 28.2939911c-.7425957 0-1.344635.6020107-1.344635 1.344635s.6020393 1.344635 1.344635 1.344635c.7426529 0 1.3446922-.6020107 1.3446922-1.344635s-.6020393-1.344635-1.3446922-1.344635z" fill="#64798a"/><path d="m39.2966576 28.2939911c-.7425957 0-1.344635.6020107-1.344635 1.344635s.6020393 1.344635 1.344635 1.344635c.7426567 0 1.344696-.6020107 1.344696-1.344635s-.6020393-1.344635-1.344696-1.344635z" fill="#64798a"/><path d="m42.331955 34.7788734h-27.3982077c-.6993876 0-1.2663317.5669441-1.2663317 1.266304v6.9429283c0 .6993599.5669441 1.266304 1.2663317 1.266304h27.3982077c.6993294 0 1.2662735-.5669441 1.2662735-1.266304v-6.9429283c0-.6993598-.5669442-1.266304-1.2662735-1.266304z" fill="#3a556a"/><g fill="#2f4859"><path d="m15.534094 36.460678h1.254516v1.254516h-1.254516z"/><path d="m16.708283 37.634869h1.254516v1.254516h-1.254516z"/><path d="m17.962799 36.460678h1.254516v1.254516h-1.254516z"/><path d="m19.136988 37.634869h1.254516v1.254516h-1.254516z"/><path d="m20.391502 36.460678h1.254516v1.254516h-1.254516z"/><path d="m21.565693 37.634869h1.254516v1.254516h-1.254516z"/><path d="m22.820208 36.460678h1.254516v1.254516h-1.254516z"/><path d="m23.994396 37.634869h1.254516v1.254516h-1.254516z"/><path d="m25.248913 36.460678h1.254516v1.254516h-1.254516z"/><path d="m15.534094 38.889385h1.254516v1.254516h-1.254516z"/><path d="m16.708283 40.063572h1.254516v1.254516h-1.254516z"/><path d="m17.962799 38.889385h1.254516v1.254516h-1.254516z"/><path d="m19.136988 40.063572h1.254516v1.254516h-1.254516z"/><path d="m20.391502 38.889385h1.254516v1.254516h-1.254516z"/><path d="m21.565693 40.063572h1.254516v1.254516h-1.254516z"/><path d="m22.820208 38.889385h1.254516v1.254516h-1.254516z"/><path d="m23.994396 40.063572h1.254516v1.254516h-1.254516z"/><path d="m25.248913 38.889385h1.254516v1.254516h-1.254516z"/><path d="m15.534094 41.318089h1.254516v1.254516h-1.254516z"/><path d="m17.962799 41.318089h1.254516v1.254516h-1.254516z"/><path d="m20.391502 41.318089h1.254516v1.254516h-1.254516z"/><path d="m22.820208 41.318089h1.254516v1.254516h-1.254516z"/><path d="m25.248913 41.318089h1.254516v1.254516h-1.254516z"/><path d="m29.424395 36.460678h12.141345v6.111925h-12.141345z"/></g><path d="m31.5764389 38.1720047c-.7425957 0-1.344635.6020126-1.344635 1.344635 0 .7426262.6020393 1.3446388 1.344635 1.3446388.7426529 0 1.3446922-.6020126 1.3446922-1.3446388 0-.7426224-.6020393-1.344635-1.3446922-1.344635z" fill="#64798a"/><path d="m35.4365501 38.1720047c-.7425957 0-1.344635.6020126-1.344635 1.344635 0 .7426262.6020393 1.3446388 1.344635 1.3446388.7426529 0 1.3446922-.6020126 1.3446922-1.3446388.0000001-.7426224-.6020393-1.344635-1.3446922-1.344635z" fill="#64798a"/><path d="m39.2966576 38.1720047c-.7425957 0-1.344635.6020126-1.344635 1.344635 0 .7426262.6020393 1.3446388 1.344635 1.3446388.7426567 0 1.344696-.6020126 1.344696-1.3446388 0-.7426224-.6020393-1.344635-1.344696-1.344635z" fill="#64798a"/></svg>