<svg enable-background="new 0 0 110 110" height="512" viewBox="0 0 110 110" width="512" xmlns="http://www.w3.org/2000/svg"><g fill="#d5d6db"><path d="m73.772163 33.721214h15.577353v3.154169h-15.577353z"/><path d="m73.772163 53.422916h15.577353v3.154169h-15.577353z"/><path d="m73.772163 73.124619h15.577353v3.154169h-15.577353z"/></g><path d="m76.5126953 26.5457249h-54.6465435c-1.1497784 0-2.0818653.9320869-2.0818653 2.0819111v13.3413734c0 1.1497803.9320869 2.0818672 2.0818653 2.0818672h54.6465454c1.149826 0 2.0819168-.9320869 2.0819168-2.0818672v-13.3413734c-.0000019-1.1498242-.9320926-2.0819111-2.0819187-2.0819111z" fill="#ebf0f3"/><path d="m76.5126953 46.2474251h-54.6465435c-1.1497784 0-2.0818653.9320869-2.0818653 2.081913v13.3413696c0 1.1497803.9320869 2.0818672 2.0818653 2.0818672h54.6465454c1.149826 0 2.0819168-.9320869 2.0819168-2.0818672v-13.3413696c-.0000019-1.1498261-.9320926-2.081913-2.0819187-2.081913z" fill="#ebf0f3"/><path d="m76.5126953 65.9491272h-54.6465435c-1.1497784 0-2.0818653.9320831-2.0818653 2.0819092v13.3413696c0 1.1497803.9320869 2.081871 2.0818653 2.081871h54.6465454c1.149826 0 2.0819168-.9320908 2.0819168-2.081871v-13.3413696c-.0000019-1.1498261-.9320926-2.0819092-2.0819187-2.0819092z" fill="#ebf0f3"/><g fill="#d5d6db"><path d="m26.3877258 30.8127613h-1.6972275c-.3793983 0-.6870003.3075562-.6870003.6869545v7.5972118c0 .3793983.3076019.6869507.6870003.6869507h1.6972275c.3793983 0 .6869984-.3075523.6869984-.6869507v-7.5972118c0-.3793983-.3076-.6869545-.6869984-.6869545z"/><path d="m31.6410866 30.8127613h-1.6972275c-.3793983 0-.6870003.3075562-.6870003.6869545v7.5972118c0 .3793983.3076019.6869507.6870003.6869507h1.6972275c.3793983 0 .6870003-.3075523.6870003-.6869507v-7.5972118c0-.3793983-.307602-.6869545-.6870003-.6869545z"/><path d="m36.8944473 30.8127613h-1.6972275c-.3793983 0-.6870003.3075562-.6870003.6869545v7.5972118c0 .3793983.3076019.6869507.6870003.6869507h1.6972275c.3793983 0 .6869965-.3075523.6869965-.6869507v-7.5972118c0-.3793983-.3075981-.6869545-.6869965-.6869545z"/><path d="m42.1478081 30.8127613h-1.6972275c-.3793983 0-.6870003.3075562-.6870003.6869545v7.5972118c0 .3793983.3076019.6869507.6870003.6869507h1.6972275c.3793983 0 .6869965-.3075523.6869965-.6869507v-7.5972118c-.0000001-.3793983-.3075982-.6869545-.6869965-.6869545z"/><path d="m26.3877258 50.5144615h-1.6972275c-.3793983 0-.6870003.3075562-.6870003.6869545v7.5972099c0 .3793983.3076019.6869545.6870003.6869545h1.6972275c.3793983 0 .6869984-.3075562.6869984-.6869545v-7.5972099c0-.3793983-.3076-.6869545-.6869984-.6869545z"/><path d="m31.6410866 50.5144615h-1.6972275c-.3793983 0-.6870003.3075562-.6870003.6869545v7.5972099c0 .3793983.3076019.6869545.6870003.6869545h1.6972275c.3793983 0 .6870003-.3075562.6870003-.6869545v-7.5972099c0-.3793983-.307602-.6869545-.6870003-.6869545z"/><path d="m36.8944473 50.5144615h-1.6972275c-.3793983 0-.6870003.3075562-.6870003.6869545v7.5972099c0 .3793983.3076019.6869545.6870003.6869545h1.6972275c.3793983 0 .6869965-.3075562.6869965-.6869545v-7.5972099c0-.3793983-.3075981-.6869545-.6869965-.6869545z"/><path d="m42.1478081 50.5144615h-1.6972275c-.3793983 0-.6870003.3075562-.6870003.6869545v7.5972099c0 .3793983.3076019.6869545.6870003.6869545h1.6972275c.3793983 0 .6869965-.3075562.6869965-.6869545v-7.5972099c-.0000001-.3793983-.3075982-.6869545-.6869965-.6869545z"/><path d="m26.3877258 70.2161636h-1.6972275c-.3793983 0-.6870003.3075562-.6870003.6869507v7.5972137c0 .3793945.3076019.6869507.6870003.6869507h1.6972275c.3793983 0 .6869984-.3075562.6869984-.6869507v-7.5972137c0-.3793945-.3076-.6869507-.6869984-.6869507z"/><path d="m31.6410866 70.2161636h-1.6972275c-.3793983 0-.6870003.3075562-.6870003.6869507v7.5972137c0 .3793945.3076019.6869507.6870003.6869507h1.6972275c.3793983 0 .6870003-.3075562.6870003-.6869507v-7.5972137c0-.3793945-.307602-.6869507-.6870003-.6869507z"/><path d="m36.8944473 70.2161636h-1.6972275c-.3793983 0-.6870003.3075562-.6870003.6869507v7.5972137c0 .3793945.3076019.6869507.6870003.6869507h1.6972275c.3793983 0 .6869965-.3075562.6869965-.6869507v-7.5972137c0-.3793945-.3075981-.6869507-.6869965-.6869507z"/><path d="m42.1478081 70.2161636h-1.6972275c-.3793983 0-.6870003.3075562-.6870003.6869507v7.5972137c0 .3793945.3076019.6869507.6870003.6869507h1.6972275c.3793983 0 .6869965-.3075562.6869965-.6869507v-7.5972137c-.0000001-.3793945-.3075982-.6869507-.6869965-.6869507z"/><path d="m52.38908 32.0986481c-1.7670975 0-3.1996078 1.4325562-3.1996078 3.1996536 0 1.7670937 1.4325104 3.1996498 3.1996078 3.1996498 1.7671394 0 3.1996536-1.4325562 3.1996536-3.1996498.0000001-1.7670975-1.4325141-3.1996536-3.1996536-3.1996536z"/></g><path d="m54.3762283 35.3437843c.0251274-1.0974426-.8441849-2.0074692-1.9416275-2.0325966-1.0974464-.0251274-2.0074959.8441544-2.0326233 1.9416008-.0251312 1.0974693.8441811 2.0074959 1.9416275 2.0326233 1.0974427.0251274 2.0074959-.8441543 2.0326233-1.9416275z" fill="#e56353"/><path d="m62.0870476 32.0986481c-1.7670975 0-3.1996078 1.4325562-3.1996078 3.1996536 0 1.7670937 1.4325104 3.1996498 3.1996078 3.1996498 1.7671394 0 3.1996498-1.4325562 3.1996498-3.1996498 0-1.7670975-1.4325104-3.1996536-3.1996498-3.1996536z" fill="#d5d6db"/><path d="m64.0741959 35.3437843c.0251236-1.0974426-.8441849-2.0074692-1.9416275-2.0325966-1.0974464-.0251274-2.0074959.8441544-2.0326271 1.9416008-.0251274 1.0974693.8441849 2.0074959 1.9416275 2.0326233 1.0974464.0251274 2.0074958-.8441543 2.0326271-1.9416275z" fill="#44c4a1"/><path d="m71.7850113 32.0986481c-1.7670898 0-3.1996078 1.4325562-3.1996078 3.1996536 0 1.7670937 1.432518 3.1996498 3.1996078 3.1996498 1.7671432 0 3.1996536-1.4325562 3.1996536-3.1996498 0-1.7670975-1.4325104-3.1996536-3.1996536-3.1996536z" fill="#d5d6db"/><path d="m73.7721634 35.3437843c.0251236-1.0974426-.8441849-2.0074692-1.9416275-2.0325966s-2.0074997.8441544-2.0326233 1.9416008c-.0251312 1.0974693.8441772 2.0074959 1.9416275 2.0326233 1.0974426.0251274 2.0074921-.8441543 2.0326233-1.9416275z" fill="#2d93ba"/><path d="m52.38908 51.8003693c-1.7670975 0-3.1996078 1.4325562-3.1996078 3.1996536 0 1.7670937 1.4325104 3.1996536 3.1996078 3.1996536 1.7671394 0 3.1996536-1.43256 3.1996536-3.1996536.0000001-1.7670975-1.4325141-3.1996536-3.1996536-3.1996536z" fill="#d5d6db"/><path d="m54.3762283 55.0455055c.0251274-1.0974426-.8441849-2.0074692-1.9416275-2.0325966-1.0974464-.0251274-2.0074959.8441544-2.0326233 1.9416008-.0251312 1.0974731.8441811 2.0074959 1.9416275 2.0326233 1.0974427.0251274 2.0074959-.8441543 2.0326233-1.9416275z" fill="#e56353"/><path d="m62.0870476 51.8003693c-1.7670975 0-3.1996078 1.4325562-3.1996078 3.1996536 0 1.7670937 1.4325104 3.1996536 3.1996078 3.1996536 1.7671394 0 3.1996498-1.43256 3.1996498-3.1996536 0-1.7670975-1.4325104-3.1996536-3.1996498-3.1996536z" fill="#d5d6db"/><path d="m64.0741959 55.0455055c.0251236-1.0974426-.8441849-2.0074692-1.9416275-2.0325966-1.0974464-.0251274-2.0074959.8441544-2.0326271 1.9416008-.0251274 1.0974731.8441849 2.0074959 1.9416275 2.0326233 1.0974464.0251274 2.0074958-.8441543 2.0326271-1.9416275z" fill="#44c4a1"/><path d="m71.7850113 51.8003693c-1.7670898 0-3.1996078 1.4325562-3.1996078 3.1996536 0 1.7670937 1.432518 3.1996536 3.1996078 3.1996536 1.7671432 0 3.1996536-1.43256 3.1996536-3.1996536 0-1.7670975-1.4325104-3.1996536-3.1996536-3.1996536z" fill="#d5d6db"/><path d="m73.7721634 55.0455055c.0251236-1.0974426-.8441849-2.0074692-1.9416275-2.0325966s-2.0074997.8441544-2.0326233 1.9416008c-.0251312 1.0974731.8441772 2.0074959 1.9416275 2.0326233 1.0974426.0251274 2.0074921-.8441543 2.0326233-1.9416275z" fill="#2d93ba"/><path d="m52.38908 71.5020905c-1.7670975 0-3.1996078 1.4325562-3.1996078 3.1996536 0 1.7670898 1.4325104 3.1996536 3.1996078 3.1996536 1.7671394 0 3.1996536-1.4325638 3.1996536-3.1996536.0000001-1.7670975-1.4325141-3.1996536-3.1996536-3.1996536z" fill="#d5d6db"/><path d="m54.3762283 74.7472305c.0251274-1.0974503-.8441849-2.0074692-1.9416275-2.0326004-1.0974464-.0251236-2.0074959.8441544-2.0326233 1.941597-.0251312 1.0974731.8441811 2.0074997 1.9416275 2.0326309 1.0974427.0251236 2.0074959-.844162 2.0326233-1.9416275z" fill="#e56353"/><path d="m62.0870476 71.5020905c-1.7670975 0-3.1996078 1.4325562-3.1996078 3.1996536 0 1.7670898 1.4325104 3.1996536 3.1996078 3.1996536 1.7671394 0 3.1996498-1.4325638 3.1996498-3.1996536 0-1.7670975-1.4325104-3.1996536-3.1996498-3.1996536z" fill="#d5d6db"/><path d="m64.0741959 74.7472305c.0251236-1.0974503-.8441849-2.0074692-1.9416275-2.0326004-1.0974464-.0251236-2.0074959.8441544-2.0326271 1.941597-.0251274 1.0974731.8441849 2.0074997 1.9416275 2.0326309 1.0974464.0251236 2.0074958-.844162 2.0326271-1.9416275z" fill="#44c4a1"/><path d="m71.7850113 71.5020905c-1.7670898 0-3.1996078 1.4325562-3.1996078 3.1996536 0 1.7670898 1.432518 3.1996536 3.1996078 3.1996536 1.7671432 0 3.1996536-1.4325638 3.1996536-3.1996536 0-1.7670975-1.4325104-3.1996536-3.1996536-3.1996536z" fill="#d5d6db"/><path d="m73.7721634 74.7472305c.0251236-1.0974503-.8441849-2.0074692-1.9416275-2.0326004-1.0974426-.0251236-2.0074997.8441544-2.0326233 1.941597-.0251312 1.0974731.8441772 2.0074997 1.9416275 2.0326309 1.0974426.0251236 2.0074921-.844162 2.0326233-1.9416275z" fill="#2d93ba"/><path d="m86.916641 18.875h3.299072v72.25h-3.299072z" fill="#d5d6db"/></svg>