<svg enable-background="new 0 0 110 110" height="512" viewBox="0 0 110 110" width="512" xmlns="http://www.w3.org/2000/svg"><path d="m34.175903 41.59494h58.762146v22.048716h-58.762146z" fill="#2f4859"/><path d="m94.6868057 23.6591415h-62.2596588c-.7209682 0-1.305439.5844707-1.305439 1.305439v15.9206772c0 .7209663.5844707 1.3054352 1.305439 1.3054352h62.2596588c.7209625 0 1.3054352-.5844688 1.3054352-1.3054352v-15.9206772c0-.7209682-.5844727-1.305439-1.3054352-1.305439z" fill="#3a556a"/><g fill="#2f4859"><path d="m36.267994 28.591728h3.025587v9.076761h-3.025587z"/><path d="m42.285164 28.591728h3.025587v9.076761h-3.025587z"/><path d="m48.302338 28.591728h3.025587v9.076761h-3.025587z"/><path d="m54.319508 28.591728h3.025587v9.076761h-3.025587z"/><path d="m60.336678 28.591728h3.025587v9.076761h-3.025587z"/><path d="m75.0411835 29.5476074c-1.7957077 0-3.2514114 1.4556999-3.2514114 3.2514648 0 1.7957115 1.4557037 3.2514114 3.2514114 3.2514114 1.7957153 0 3.2514648-1.4556999 3.2514648-3.2514114 0-1.7957649-1.4557495-3.2514648-3.2514648-3.2514648z"/><path d="m86.109024 29.5476074c-1.7957153 0-3.2514114 1.4556999-3.2514114 3.2514648 0 1.7957115 1.4556961 3.2514114 3.2514114 3.2514114s3.2514648-1.4556999 3.2514648-3.2514114c.0000001-1.7957649-1.4557494-3.2514648-3.2514648-3.2514648z"/></g><path d="m94.6868057 43.3447723h-62.2596588c-.7209682 0-1.305439.5844727-1.305439 1.305439v15.9206772c0 .7209663.5844707 1.305439 1.305439 1.305439h62.2596588c.7209625 0 1.3054352-.5844727 1.3054352-1.305439v-15.9206772c0-.7209663-.5844727-1.305439-1.3054352-1.305439z" fill="#3a556a"/><g fill="#2f4859"><path d="m36.267994 48.277359h3.025587v9.076761h-3.025587z"/><path d="m42.285164 48.277359h3.025587v9.076761h-3.025587z"/><path d="m48.302338 48.277359h3.025587v9.076761h-3.025587z"/><path d="m54.319508 48.277359h3.025587v9.076761h-3.025587z"/><path d="m60.336678 48.277359h3.025587v9.076761h-3.025587z"/><path d="m75.0411835 49.2332382c-1.7957077 0-3.2514114 1.4556999-3.2514114 3.2514648 0 1.7957115 1.4557037 3.2514153 3.2514114 3.2514153 1.7957153 0 3.2514648-1.4557037 3.2514648-3.2514153 0-1.7957649-1.4557495-3.2514648-3.2514648-3.2514648z"/><path d="m86.109024 49.2332382c-1.7957153 0-3.2514114 1.4556999-3.2514114 3.2514648 0 1.7957115 1.4556961 3.2514153 3.2514114 3.2514153s3.2514648-1.4557037 3.2514648-3.2514153c.0000001-1.7957649-1.4557494-3.2514648-3.2514648-3.2514648z"/></g><path d="m94.6868057 63.0304031h-62.2596588c-.7209682 0-1.305439.5844727-1.305439 1.3054428v15.9206696c0 .7209702.5844707 1.3054428 1.305439 1.3054428h62.2596588c.7209625 0 1.3054352-.5844727 1.3054352-1.3054428v-15.9206696c0-.7209701-.5844727-1.3054428-1.3054352-1.3054428z" fill="#3a556a"/><path d="m36.267994 67.96299h3.025587v9.076761h-3.025587z" fill="#2f4859"/><path d="m42.285164 67.96299h3.025587v9.076761h-3.025587z" fill="#2f4859"/><path d="m48.302338 67.96299h3.025587v9.076761h-3.025587z" fill="#2f4859"/><path d="m54.319508 67.96299h3.025587v9.076761h-3.025587z" fill="#2f4859"/><path d="m60.336678 67.96299h3.025587v9.076761h-3.025587z" fill="#2f4859"/><path d="m75.0411835 68.918869c-1.7957077 0-3.2514114 1.4557037-3.2514114 3.2514648 0 1.7957153 1.4557037 3.2514114 3.2514114 3.2514114 1.7957153 0 3.2514648-1.4556961 3.2514648-3.2514114 0-1.795761-1.4557495-3.2514648-3.2514648-3.2514648z" fill="#2f4859"/><path d="m86.109024 68.918869c-1.7957153 0-3.2514114 1.4557037-3.2514114 3.2514648 0 1.7957153 1.4556961 3.2514114 3.2514114 3.2514114s3.2514648-1.4556961 3.2514648-3.2514114c.0000001-1.795761-1.4557494-3.2514648-3.2514648-3.2514648z" fill="#2f4859"/><path d="m53.2277908 61.6308365-19.6099853 24.710022-19.6100474-24.710022 6.0300303-7.4400025h27.1599731z" fill="#ebf0f3"/><path d="m47.2005272 54.1942406-7.3839684 7.3839683h13.4072304z" fill="#d5d6db"/><path d="m33.6180534 54.1942406-6.7036171 7.3839683h13.4072304z" fill="#d5d6db"/><path d="m33.6180534 86.3359146 6.7036133-24.7043114h-13.4072304z" fill="#e1e6e9"/><path d="m20.0355759 54.1942406-6.0232621 7.3839683h13.4072304z" fill="#d5d6db"/></svg>