<svg enable-background="new 0 0 110 110" height="512" viewBox="0 0 110 110" width="512" xmlns="http://www.w3.org/2000/svg"><path d="m43.9078979 58.0301933-9.3509101 29.4034081h21.2158126l-1.8460731-24.5028382z" fill="#d5d6db"/><g fill="#ebf0f3"><path d="m42.0668449 58.0301933-7.5098571 29.4034081h17.038742l-1.4826088-24.5028382z"/><path d="m36.8193169 20.1253147c-7.713892 13.4946957-4.9909458 31.5007191 7.6224213 41.3435898s30.2774162 8.7129288 41.4926262-2.049511z"/><ellipse cx="61.445" cy="39.679" rx="6.361" ry="31.456" transform="matrix(.626 -.78 .78 .626 -7.963 62.753)"/></g><path d="m84.4771957 58.3441086c-3.2444077.2861214-13.8519592-5.2397537-25.9878235-14.9825974-14.1584854-11.3663902-20.5190505-20.280178-20.2716789-22.3167991.0448036-.0111809.1088829-.0224571.1957703-.0301189 3.2440109-.2860889 13.8519554 5.2397499 25.9878197 14.9825954 14.1580886 11.3664245 20.5186538 20.2802124 20.2716827 22.3167991-.0448074.0111809-.1088867.0224572-.1957703.0301209z" fill="#d5d6db"/><path d="m80.9787903 24.2250538c0 2.8926888-2.3436661 5.2280045-5.2281036 5.2280045-.5818253 0-1.1390457-.0982304-1.655304-.2703838l-7.4242325 8.6861649-6.0967178 7.1292877c-.6883621-.5326653-1.3848763-1.0816307-2.0813866-1.6389046-1.3521156-1.0816307-2.6304588-2.1469574-3.8350296-3.1794739l7.2193642-6.1622887 9.0549316-7.7437763c-.2622299-.6309948-.409729-1.3194065-.409729-2.0486298 0-2.8844852 2.3354187-5.2282028 5.2281036-5.2282028 2.8844376 0 5.2281037 2.3437175 5.2281037 5.2282028z" fill="#64798a"/><path d="m23.700735 82.650314h45.560936v8.352838h-45.560936z" fill="#ebf0f3"/></svg>