<svg enable-background="new 0 0 110 110" height="512" viewBox="0 0 110 110" width="512" xmlns="http://www.w3.org/2000/svg"><path d="m77.5239639 39.885601c.4279022-1.2823448.6630859-2.6528625.6630859-4.0790634 0-7.1152039-5.7680206-12.8832264-12.8832245-12.8832264-2.4889755 0-4.8117294.7077503-6.7817574 1.9301414-3.1294479-3.7321167-7.8248215-6.1067848-13.0763741-6.1067848-9.4219131 0-17.0599079 7.6379585-17.0599079 17.0598698 0 1.6978989.2515221 3.3364563.7133522 4.8842163-3.5226364 2.2992363-5.8527126 6.2731857-5.8527126 10.7936134 0 7.1152039 5.7680225 12.883194 12.8832283 12.883194 2.9586678 0 5.6824341-.999733 7.8573837-2.6765938 2.1749496 1.6768608 4.8986816 2.6765938 7.8573494 2.6765938 4.0558357 0 7.6718864-1.8758965 10.0334129-4.8054504 2.3615265 2.929554 5.9775391 4.8054504 10.0333786 4.8054504 7.1152039 0 12.8832245-5.7679901 12.8832245-12.883194.0000002-5.1030998-2.9673918-9.5125961-7.270439-11.5987663z" fill="#ebf0f3"/><path d="m52.762257 81.615936h16.336119v7.61684h-16.336119z" fill="#2f4859"/><path d="m85.2642288 45.836525h-48.6678238c-.8225403 0-1.4893494.6668091-1.4893494 1.4893494v34.083374c0 .8225403.6668091 1.4893417 1.4893494 1.4893417h48.6678238c.8225861 0 1.4893494-.6668015 1.4893494-1.4893417v-34.083374c0-.8225404-.6667633-1.4893494-1.4893494-1.4893494z" fill="#3a556a"/><path d="m47.197582 39.79401h27.465328v45.598553h-27.465328z" fill="#27a2db" transform="matrix(0 1 -1 0 123.524 1.663)"/><path d="m49.025177 88.049202h23.810276v3.204131h-23.810276z" fill="#64798a"/><path d="m60.9830971 52.0482292v-13.0519638h-6.9929695v13.0519638h-4.9649506l8.4614601 8.4614563 8.4614067-8.4614563z" fill="#e56353"/></svg>