<svg enable-background="new 0 0 110 110" height="512" viewBox="0 0 110 110" width="512" xmlns="http://www.w3.org/2000/svg"><path d="m52.064232 66.964645h3.915257v23.419203h-3.915257z" fill="#3a556a"/><path d="m52.064232 61.653637h3.915257v54.563084h-3.915257z" fill="#3a556a" transform="matrix(0 1 -1 0 142.957 34.913)"/><path d="m76.8571167 64.9952774c-.503418-.9135742-.4086914-2.0803833-.1291504-3.0186768.7286377-2.4460449 2.6671143-4.3086548 3.5505371-6.8198242-.5134277-6.5472412-1.4025879-13.1867065-.5981445-19.7258301.0511475-.4160767.2124023-.7557373.4349365-1.0283813-4.6917725-9.0819092-14.1618652-15.2946167-25.0889893-15.2946167-15.5904541 0-28.2290039 12.6386108-28.2290039 28.229126s12.6385498 28.229126 28.2290039 28.229126c8.8457031 0 16.737793-4.0712891 21.9136963-10.4390869-.0272216-.0452271-.0565185-.0841065-.0828857-.131836z" fill="#ededed"/><g fill="#27a2db"><path d="m83.2596817 47.3348122c0 7.2866135-2.763855 13.9311104-7.2958755 18.9284325-.0279465 0-.0558853-.0093155-.0931473-.0093155-.2140198-.0093155-.4094086.2047577-.4931335.3629456-.0744095.1488724-.1023483.3071136-.1768723.4466705-.911972.9492264-1.8984604 1.833313-2.9499283 2.6336136-.0745239-.0093155-.1582413-.0093155-.2419662-.018631-.3351135-.0278854-.390892.1675034-.5398178.4187775-.1767654.2791748-.4653015.5490799-.7816772.6793213-.3629456.1489334-.7723541.2140808-1.1539307.2884827-.2419662.0465775-.3443222.065155-.4280396.3164291-.0557785.1488724-.083725.3256912-.102356.4839325-.455986.2605362-.911972.5118179-1.3865814.7444687.018631-.6700592.455986-1.2190857.4839249-1.8984604.0093155-.1488724-.0279388-.3163681.0093155-.4653015.0371475-.1768112.1395035-.2140198.2047043-.3628922.0744095-.1861267.1767654-.5769653.018631-.7258911-.2140198-.1953888-.5025558-.1953888-.5677643-.5490265-.018631-.1024017 0-.1861267.0093155-.2977982.018631-.3257446.0279465-.7072601-.0930405-1.0143738-.1023483-.2605438-.409523-.4001541-.6793137-.3815231-.2605972.0093155-.493248.1768188-.7444153.083725-.1304092-.046524-.1955032-.1953888-.325798-.2419662-.1209869-.0372086-.2047043-.0185776-.3256912-.0185776-.3256836.0093155-.6608047.0278931-.9863739.0093155-.2512817-.0093155-.474617-.1116638-.7072678-.1954422-.3537445-.1116714-.4374657-.2791672-.6235428-.5397644-.1489258-.2140198-.3350029-.3629456-.4746132-.576973-.046463-.0651474-.1209831-.1302948-.1675606-.1953888-.0744057-.1209793-.0744057-.2512741-.1301842-.3629456-.1117783-.2047577-.3723755-.2791672-.4466667-.5118179-.0652084-.1954498-.0279465-.4653015 0-.6607475.0185165-.176815.1581268-.4466705.0742912-.6049118-.0929222-.176815-.3814621-.1209831-.5303917-.1209831-.3256874.018631-.4466705.1024094-.6328583.3815804-.1301842.1953888-.2233353.3443146-.2326508.5769653-.0093155.1674995-.0371437.4094658.0093155.5676537.0558929.2326508.3258018.2884827.4374695.493248.1302986.2419586.0557785.5397034.1675568.7816696.1022415.2140732.1022415.3443146.1208687.5769653.0652084.4653015.5025635.5583954.8933411.5490799.1583557-.0093155.5957108-.0837784.7165794.0744629.1210976.1581879.0279465.6048584.0279465.7816772 0 .1581802.0279465.3349991-.0093155.4839249-.0557785.2326508-.2419662.3815231-.4000931.5397644-.2699127.2698517-.4466705.4187241-.8097343.5862274-.2511635.1209793-.5117607.2977982-.7908707.3164291-.2885437.0093155-.5398216.1023483-.8283615.1488724-.3162613.0465698-.6606903.0465698-.9770622.1209793-.2047043.0558319-.3722649.1861343-.5862846.2047653-.1302948.018631-.2512779.0093155-.3814621.0093155-.2792282-.0093155-.7165794.0558319-1.0051231-.0093155-.1396103-.0372086-.2792244-.1675034-.4094086-.2233353-.1489258-.0651474-.2978554-.1024094-.455986-.1116714-.3071709-.0093155-.6514854-.0279465-.9492302.0651474-.3071709.0930405-.7724686.2512283-1.079525.065094-.1489296-.0837173-.1209831-.1023483-.1955032-.2419052-.065094-.1024094-.1581306-.1675568-.2419662-.2605972-.0929222-.0837784-.306942-.2605362-.3162575-.3908386-.0093155-.0837784.0836067-.1674957.1208687-.2233353.1489258-.2233887.3164864-.4374084.4559822-.6700592.2233353-.3536301.455986-.5955963.5211906-1.0236359.0465775-.2791672 0-.5025635-.0652046-.7630997-.1301842-.493248-.0837212-.9864349-.0837212-1.4889908 0-.2884903-.065094-.6328049.0557747-.8933411.0745239-.1675034.2141342-.279171.2512817-.4653015.0838356-.3629494.018631-.8282471.018631-1.2005119 0-.2977409.1396141-.9398575-.2047043-1.0515251-.5211906-.1861305-.8003044.2977409-.7723579.7444687.0185165.3536339-.1582413.6141701-.1768723.9584885-.0093155.2699089.0652046.5676537-.0279465.8282471-.1022377.2605972-.3628349.372261-.4931297.5955963-.1116676.2140198-.037262.5304489-.037262.7630997.0093155.3070602-.027832.5118179-.1489296.7909851-.1115532.2605972-.2977409.4839325-.3535156.7724152-.1024666.4653015.0093117.8933411.0093117 1.3772736.0185165.4374084-.0372581.9399109-.325798 1.2842331-.1674461.2047043-.2419662.2512817.0093155.4187775.372261.2233353.7445221.4280396 1.1539345.5862885.2792244.1023483.5862808.1953888.8468781.3443146.2419624.1488724.4559822.1209793.735096.1861343.3351173.0837173.6701164.1953888.9958038.2977371.1396141.0465775.5398216.0279465.5862846.1582413-.2512817.3350067-.4653015.4001541-.8561935.4280396-.3721504.037262-.6606903.1024094-1.0050087.2419662-.2605934.1116714-.4652977.2512817-.688633.4281006-.3070564.2605362-.5490227.3815155-.9678612.3815155-.4002075 0-.7444115-.0278854-1.1353035.1024094-.474617.1675034-.8934555.3722076-1.4145317.4001541-.6793213.0185699-1.3959007-.1302948-2.056591.0185699-.6049118.1303024-1.16325.1209869-1.7774773.1209869-.1581268 0-.3071709.0093155-.4652977 0-.4000969 0-.911972-.1116714-1.2842331.0930939-.0557785.0278854-.1116676.0651474-.1582451.1023483-4.801815-1.8239899-8.9708824-4.9321671-12.0978012-8.9058456.1861916-.1302948.3815804-.2791672.493248-.474617.0838356-.1488724.0745201-.2419662.1209831-.4094658.0744057-.2791672.2141304-.437355.2048187-.7444687-.0093155-.2698517-.1117821-.5025024-.1582451-.7630959-.0372581-.2419662-.0557785-.8096199.1675568-.9771194.1394997-.1116676.4653015-.0651512.6327477-.1023521.1767578-.0465202.3536301-.1489296.5118752-.2419662.4187241-.2512817.4000931-.5025024.2419624-.9212837-.0838356-.214077-.0931511-.4280968-.1490402-.6421165-.074295-.2699127-.2604828-.4653015-.4094086-.6886368-.2233353-.3350601-.2605972-.6793747-.3721504-1.0608978-.0372581-.1489258-.0838356-.3815765-.2048187-.5025597-.0557747-.0558319-.1489258-.0930367-.2140198-.1488724-.2233353-.195446-.2884254-.5211334-.428154-.7817268-.1394958-.2698555-.27911-.5303917-.4838142-.7537842-.2884293-.2977409-.5583382-.5955429-.828249-.9212837-.1674442-.2047081-.3907795-.3536339-.5491352-.5490227-.1394997-.1768188-.1767597-.3908958-.2976284-.5583954-.1397266-.1860733-.2699108-.2698517-.3630619-.5118179-.1953888-.5118179-.5583363-1.0701561-.6141148-1.637867-.0558891-.5304489-.0093136-1.1074142 0-1.6378632.0093155-.3256874.037262-.6793213.1115551-1.0050087.0465755-.214077.1304111-.4374123.2419643-.6235428.0279465-.0372047.1490421-.2140198.1583576-.2791672.0371456-.2140198-.055891-.4466705.009201-.6793213.0650921-.176815.1955032-.2698517.3256874-.4001503.2047043-.214077.4839306-.4467278.6606903-.6886368.1583557-.214077.1861877-.4746132.2978554-.7072639.1489258-.2699089.4000931-.3815765.6606903-.5211334.2140198-.1302986.36306-.176815.6050262-.1582413.3628311.0279427.5954819-.1395569.8747101-.3722076.1767578-.1489296.3163719-.2977982.4280396-.474617.0652046-.1023521.1023521-.2512779.1860733-.3443146.1768723-.2140198.4653015-.4374123.7538414-.455986.2605934-.0093155.5118752.0093155.7724686-.0279465.2140198-.0278854.4187241-.0837212.6327438-.1116676.3071709-.0372009.6234322 0 .9399185-.0093155.2978554 0 .5490189-.0372009.8374481.0558357.7352104.2792244 1.3216057.7724152 2.0938492.9492302.409523.0930367.837677.0465202 1.2470856.1209831.1860733.0279427.3256874.0279427.5118752-.018631.2791138-.0837212.5582237-.2140198.8374481-.0465202.1210976.0651512.2140236.1954498.3258018.2698555.1301842.0837784.2697983.1209831.3907814.2047615.1953888.1302986.372261.3350029.5211906.5304489.2140198.2977982.4466705.5769653.670002.8561363.1302986.1861305.2233353.4466705.3814659.6142273.1675568.176815.4653015.1953888.6608047.3535767.2233353.1861305.260479.5118752.5769653.5862808.2047043.0558357.3814659.0651512.5862846.1582451.1861877.0651474.4281502.0837212.5490189.2512207.2233353.3071136.2326508.7072678.5305061.9864349.4094124.3722649.9863777.865509.8467674 1.4889946-.1208725.5118179-.5490227.9305992-.6886368 1.4331017-.0650902.2047615-.0837212.3815804-.037262.5769691.037262.1209831.1117821.2233353.1397285.3536339.027832.195446-.018631.4094658.0371475.6049118.0557747.176815.1861877.3536339.27911.5211334.1583557.2791672.2885399.5676537.4374695.8468208.1675568.3164291.428154.5490799.7909851.6328011.2605972.0558357.4187279-.1488724.6886368-.0558319.1675568.0558319.4466705.2047615.5211906.390892.0465736.1488724.0093155.6421165.0279465.7165222.0371437.2605972.0929222.6049118.2233353.8375626.1953888.3443184.5490189.5304489.9026527.6793213.2699089.1116676.5954857.176815.8281326.372261.2512817.2140198.2978592.4931908.428154.7724152.1675606.3443184.5583382.4187241.8561935.6234856.2140198.1581879.3628349.3350029.6513748.3815231.3815765.0465164.8840256.0744629 1.2749176.0186272.2699089-.0372009.5117607-.2140198.7816734-.2605934.2885399-.065094.6235428-.1675034.7072639-.493187.0465775-.1954498.0652046-.6234894-.0093155-.8096199-.0650902-.2047615-.3348885-.2419662-.5025597-.3443184-.2511673-.1489258-.455986-.2791672-.7444115-.3443146-.1302986-.0279465-.2604828 0-.390892-.0558357-.2977448-.1116676-.6141167-.4932442-.8560791-.7072639-.2419662-.214077-.3536339-.4001503-.3629494-.7258949-.018631-.2233353-.0557785-.5769691.0744057-.7723579.4002113 0 .7724724-.0093155 1.1539383.0930367.3815765.0930367.7445221.1581879 1.125988.1675034.344429.0093117.7724724-.0372047 1.0051193-.3443184.2419662-.3443184 0-.9027138.4094124-1.1539345.344429.437355.64217.8468208.8934517 1.340065.2233353.4280396.390892.8189316.88414.9584885.2233315.0558319 1.3400078.1674995 1.2654877-.3350029-.018631-.176815-.3814659-.3350029-.474617-.455986-.2884254-.3349991-.4932442-.7630959-.5582237-1.1911926-.0652046-.3722076-.2141304-.3722076-.4932442-.5862846-.2047043-.1581841-.2978554-.4001503-.5025597-.5676498-.2512817-.1953926-.4280396-.4094696-.5584526-.6979523-.1115532-.2419662-.0371475-.7258377-.2233353-.9026527-.1394958-.1302986-.4839287-.0837822-.6606865-.0837822-.2233353-.0372009-.4094124.0279465-.5583382.1861343-.1955032.1861305-.409523.3350029-.6421738.4466705-.1674461.1861305-.0929222.4652977-.0929222.688633.0093117.2512817.0557747.4839287-.0745239.6979485-.1953888.3071175-.8933372.6235428-1.2377701.5583954-.3162575-.0465164-.306942-.3164291-.4280396-.5490799-.1115532-.176815-.2326508-.3443146-.3628349-.5118179-.1768723-.2605362-.4188385-.4001503-.7258949-.4001503-.1396103.0837784-.1768723.2047043-.1024666.3443184 0 .0465164 0 .0744629-.0093117.1209831-.0557785.1674995-.6234322.4746132-.6513748.4839287-.2512817.0837212-.5211906.1860733-.5861702-.1209831-.0093155-.0930939.009201-.214077.009201-.3071136.0093155-.3815193.0837212-.651432.390892-.8840828.3256874-.2512207.5397072-.3815193.5769691-.8282471.027832-.3815193.0185165-.7537842.1489258-1.1353035.037262-.1302986.1022415-.279171.1301842-.4187813.0465775-.3443184.0652084-.6979523.0652084-1.0515823 0-.2419662.0930367-.7723579-.1674461-.9212875-.0838356-.0093117-.1583557-.0278854-.2419662-.0372009-.1210938 0-.1768723.0558319-.1675568.1581841-.1209831.1581879-.0744057.2698555-.3070564.3443184-.1768723.0651474-.6793213.1674995-.8468781.0279465-.0837212-.0651512-.065094-.195446-.065094-.2884865v-.6328545c0-.1860771.0836105-.5397072-.0186272-.7258415-.2512817-.4001503-.8748245 0-1.1261063-.3071136-.1675568-.1953888-.0464592-.5304489-.2047043-.7537842-.1302948-.1861305-.3629456-.5397644-.6328583-.5025024-.0837212 0-.1581268.1023521-.2233353.1209831-.1301842.0465164-.3442039.0278893-.4466667 0-.083725-.018631-.1674461-.0651474-.2419662-.1024094-.1674461-.0558357-.3163719-.0465202-.4932442-.0465202-.3255768 0-.6606903-.0185738-.9956932 0-.3350029 0-.6328583.1489296-.9677467.1675034-.5211906.0093155-.5305061-.26054-.7538414-.6421165-.1860733-.2977409-.4839287-.4653015-.6606903-.7537842-.2233353-.3722076-.4466705-.7630424-.6421738-1.16325-.1302948-.2791672-.3349991-.5955429-.3815765-.9026566-.0837212-.4280968.5398216-.2605934.7910995-.372261.2791138-.1302414.5303955-.455986.80019-.5676537.2512817-.0837212.5491371-.0930367.8097305-.0930367.2326508-.0093155.6793213-.1209831.8933411.0278893.0930367.0651474.0838356.1674995.1302986.2512817.1209831.2419624.2977409.4187813.390892.670002.0837212.2512817.1860733.474617.2605934.7258949.074295.2140198.2233353.3908386.4466705.4931908.2884293.1209831.6141167-.0372047.8840256-.1768188.1674461-.0930367.474617-.2791672.5862808-.4466667.1116676-.1675034.065094-.3071136.083725-.4839325.018631-.2047043.0838356-.2605362.1767578-.4187241.1397285-.2512817.2978554-.8375626.7072678-.7258949.2047043.0651474.4281502.3443184.6142273.455986.2326469.1489258.4002075.3164291.6235428.4932442.1674423.1209831.3443146.3163719.5305061.4001503.2047043.0930367.6047974.0651512.8188171.0372047.3351173-.0372047.6142273-.2233353.9026566-.0093155.2233315.1861305.3723755.3164291.6514854.4002075.1582451.0465202.3443184.0837212.5117645.1023521.2792244.0372047.2512779.0278893.3723755-.1489258.1581268-.241909.2326508-.3722076.5302773-.437355.2792244-.0651512.5118752.018631.7258949.1674995-.1208687.2512817-.2605934.5025024-.4187241.7351532-.0745201.1582451-.0652046.2884865.0465775.4001503.0930367.2512817.2977409.4839325.3814621.7538414.0745201.1767616.0838356.2977448.0838356.4838753-.0093155.2977982.065094.4094658.2605972.5955963.2140198.2140198.4094086.3908348.6793175.5118179.3163719.1302986.5303917-.0186272.7909889-.176815.3815765-.2512245.5490227-.7072639 1.0515823-.6886368.3443184.018631.9305992.1396141 1.2191391-.0930367.2326508-.1861305.1488152-.5211334.1860771-.7817268.0279427-.2419662.0557747-.4187813.0557747-.651432.0093155-.493187.4188385-.6328011.8282471-.7630997.6142311-.1953888 1.3306999-.4280396 1.4517937-1.144619-.5398254-.1675034-1.3028641-.0837212-1.8147392.176815-.3722649.195446-.6793213.6141701-.9956932.8840828-.1675568.1861305-.372261.3163719-.6049118.3908348-.1675568.0651512-.3256874.1396141-.4932442.2233353-.2418518.1675034-.437355.4467278-.7630424.474617-.1860771.0186272-.4187241.0093155-.5956001 0-1.0515823-.0372047-.2326469-1.0515823-.1861877-1.5913467.018631-.3350029-.0371475-.5025063-.3442039-.5490227-.2140198-.0279465-.7072639-.1209831-.7258949-.4374123-.0093155-.2512245.3256874-.3815193.4839325-.5118179.27911-.26054.4932442-.6048584.7908707-.8375053.5025635-.4094696 1.275032-.2512817 1.8891487-.2512817.390892.0093155.7538376-.0837784 1.1353035-.0837784.4932442.0093155.9864883-.0092583 1.4797325 0 .102356-.0092583.2047043 0 .3071747.018631.1208649.0837784.2604828.1489258.4094086.195446.2047043.0651474.4187241.0372009.6327438.0372009.2605972 0 .5305023-.0093117.7817841.0465202.2792282.0651474.2792282.2326508.2419662.4932442-.0279465.1675034-.0652008.3443184-.0931473.5118217.0372543.1488686.1210938.2512779.2605896.3256836.2326508.2326508.2978592.5025635.474617.7630997.0558929.1116676.1489258.1675034.2699127.1861343.1674423.1209793.3256836.2512779.474617.3908348.1953888.176815.3442001.3629456.6234283.390892.4653015.0372047.9399109-.0093155 1.4052124-.0093155.1767578 0 .437355.0558357.6049118-.0093155.1209869-.0372009.2048187-.1302948.2512817-.2512779.1302948-.1209831.2791138-.2233353.4280396-.3256874.372261-.4187813-.0185165-1.126049.4188385-1.5261993.3535156.2419662.0279465.6793213 0 .9492302-.018631.1675034.0093155.4001503.018631.5769691.018631.2605362.2047043.4466705.3628311.6328011.1489334.1861305.493248.5211334.7724762.3629456.2140198-.1302948.2512741-.5769653.3349991-.7817268.1116638-.2512245.2326508-.4466705.409523-.6606903.3721466-.4467278.8281326-.8282471 1.1073608-1.3493805.1394958-.2699127.0930328-.6049156.2326508-.8654518.0744019-.1489296.1767578-.214077.2233353-.3815804.0837173-.3163719 0-.8003006 0-1.1353035-.0093155-.1674995.0093155-.3164291.0465698-.4746132.0836105-.3164291.1767654-.6979523.3255768-.9957504.409523.0837784.6514893.455986 1.0423813.5304489.2605972.0465202.5676498-.0093155.8281326 0 .1024704 0 .2699127.0372047.36306-.0279465.1581345-.1209831.2419662-.5304489.2604828-.7072067.018631-.2885399-.009201-.5955963-.009201-.8747673 0-.2512779-.018631-.5025597-.0093155-.7445259.0185165-.2326508.0836105-.4187241.2140198-.6048546.1208725-.1582451.3070602-.2326508.3628387-.4374123.0745163-.2884827.0372543-.7537842.018631-1.0608406-.018631-.1861305-.065094-.3629494-.2326508-.4839287-.1116714-.0930939-.3070602-.1116676-.4094162-.2233372-.1767578-.176815-.1117783-.4652996-.1024628-.6979485 0-.2419662-.0093155-.4653015-.0093155-.7165813 3.4805534 4.6902039 5.5371406 10.5064537 5.5371406 16.7880051z"/><path d="m76.0597076 29.1797905c-.1298447-.0449886-.2446899-.1447201-.3745346-.1747131-.0998535-.0199947-.2097092.0099983-.3096848-.0249939-.1298447-.0449886-.1697083-.1298447-.2446899-.2346973-.144722-.194828-.389534-.3096771-.389534-.5643692-.0048828-.1098518-.0298767-.2695675-.0100021-.3745403.0249939-.1198483.1348419-.1847115.1648407-.2995605-.089859-.1748333-.5942459-.0799789-.7490845-.0249939-.1597137.054987-.279686.1298466-.4593964.0948544-.2296982-.0498657-.4295273-.2895603-.5842438-.4543972-.0799789-.0948544-.1398468-.2596912-.2496948-.3246746-.1748352-.0998535-.3995361-.1098518-.5793686-.2097034-.2296982-.1248474-.4593964-.2696896-.6042328-.4893894-.089859-.1248474-.1648407-.2596912-.2646942-.3845387-.1398392-.1747131-.3445435-.2446957-.5193787-.3795395-.0998535-.0798569-.1797104-.1848316-.2746887-.2696877-.2047043-.1797123-.4294052-.169714-.6690979-.279686-.1498413-.0648632-.259697-.1497192-.3895416-.2496948-.1548386-.1197262-.3046799-.1897087-.4893875-.2596893-.2846832-.1097298-.5393753-.2247009-.7840729-.4044113-.1048508-.0749817-.1648331-.1248474-.2696915-.1598377-.2246933-.0648632-.3695374-.2197018-.5642471-.3345509-.1498413-.0899773-.279686-.1648369-.4195251-.2696896-.1148529-.0948544-.2147064-.1248455-.2746887-.2596893-.0398712-.0848579-.0598602-.2746887-.1497192-.3145561-.0749817-.0349922-.1598358.0099983-.2448196-.0299931-.1597137-.0799789-.2445679-.1998272-.3445435-.3396702-.089859-.1248474-.1647186-.1397209-.2945633-.2047043-.1398392-.0649853-.2646866-.1598396-.3945312-.2396965-.2197037-.1248474-.2296982-.3195553-.2896881-.5543728-.0199966-.0848579-.0399857-.169714-.0598602-.2545719-3.0961761-1.1636105-6.4471664-1.8028412-9.947876-1.8028412-1.5780182 0-3.1211662.1298466-4.6293259.3795395-.004879.0099983-.0148735.0199947-.0248718.0299931-.0999756.0948544-.1898308.1448421-.2148247.2895622-.0199966.1298447.0199966.2696877.0099983.3995323-.0099983.1098518-.0548668.2996826-.1548386.3645439-.0748596.0449886-.2396965.0449886-.3295517.0799789-.1198502.0448685-.2197037.1297245-.3145561.2097034-.0949783.0748596-.2148247.1098518-.284687.2097054-.0699806.0999737-.0799789.2248211-.0948524.3445473-.0249939.1498394-.0649834.2396965-.1648369.3496685-.1348457.1497173-.0998535.3295517-.0349922.5193825.0699844.1897087.1998291.3694191.3246765.5242577.0848541.109972.0748596.0999756.109848.2048264.0349922.0848579-.0149956.0448685.0748596.1048527.1748352.1148491.3995361.0149956.5693703.1548386.0748596.059864.1248474.1397209.2097054.1897087.0748596.0449886.1448402.0548649.2196999.0998535.1598396.0898552.2296982.3495464.3295517.4993877.0999756.1598377.0499878.2846832.0749817.4643955.0399895.3146763.2995567.3745403.5942421.3995342.1348419.0149956.3146744-.0349922.4445229.0099964.054863.0149975.1647148.139843.1797104.1498413.0649834.0548649.2147026.1198483.249691.1997051.0199966.0349922 0 .1099739 0 .139843-.0099945.1149712.0050011.3495464-.0998497.4395256-.0349922.0299911-.169838.0648613-.2047081.0798569-.1198463.054987-.3945351.1248474-.4645157.2346973-.0898552.1248474.0099983.279686.0749817.3895378.0998535.1748333.1747131.2746868.389534.3146763.0848579.0199947.1947098.0348701.2795677-.0049992.0849762-.0449886.1298447-.139843.2198219-.1748333.0798569-.0349922.1797104-.0398693.2646904-.054987.0798569-.0148735.1547165-.0248718.2147026-.084856.0498657-.0399914.0748558-.1198483.1248436-.1548405.0948563-.0748577.6242371-.1297226.6692238-.0199947.054863.1149712.0048752.3996563-.0699806.4945107-.0948563.1148491-.1797142.1248474-.1848335.2845631-.0099983.2946815.1299667.4295273.2348175.6842194-.32967.2696877-.6892166.194706-1.0737534.2047043-.1248474.0049992-.2846832.0299931-.3845367.1049728-.1148491.0848579-.0948563.1847095-.0398674.2945614.0798569.169836.2047043.3745403.3195534.5193825.0649834.084856.139843.1748333.2446938.2047043.1897087.054985.4545212.0199947.6492271.0149956.2546921-.0049992.4993858-.0698605.7540779-.0448666.1748352.0198727.4494019.1248474.5942421-.0249939.0599861-.0599842.0748596-.169836.139843-.224699.0698624-.0599861.169838-.054987.2546921-.054987.1697159.0049992.2346992-.0049992.3595467-.1198483.2097015-.1798325.4993858-.0799789.7390823-.1748333.08498-.0299931.1448402-.0798588.2346954-.1098518.1198502-.0398674.2396965-.0349903.3645439-.0349903.1898308 0 .3845367.0399895.5593719-.0498657.0648613-.0349903.1048508-.0798588.1797104-.0949764.08498-.0198727.1848335.0051212.2746887.0051212.1148491-.0051212.2098236-.0249939.3196754-.0499878.1847115-.0499878.3844147-.0599842.539257-.169836.1748314-.1248455.139843-.3545456.1348419-.5542507-.0049973-.0849781-.0049973-.1548386-.0299911-.2346973-.0298729-.0948544-.0998535-.1648369-.1197281-.2546921.4594002-.0599861.9337921.0198727 1.3981857-.0349922.3096809-.0399895.7440834-.3745403.5693703-.7140884-.0599823-.1049747-.1498413-.224699-.2596893-.279686-.1298447-.059864-.3096809-.0149956-.4495239-.0149956-.1647148.0049973-.3995323.0449886-.5492516-.0448685-.2048264-.1348438-.2946815-.4045315-.5693703-.4395237-.1797104-.0249939-.3645401-.0798569-.529377-.1748333-.0948563-.0548649-.1747131-.139843-.2345772-.2296982-.0699806-.1048527-.0849762-.1348457-.0349922-.2396965.0698624-.139843.2746887-.2197018.4095345-.279686.1248436-.0548649.1997032-.059864.334549-.0648632.1198463 0 .2496948.0249939.3645439-.024992.0948524-.0399914.0998535-.0748596.1697121-.1448421.1698341-.169714.6642227-.0948544.8839264-.0848579.1998253.0049992.4095306.0399914.6042366.0199966.0699844-.0099983.1548424-.0499878.224823-.0449905.1248474.0099983.2147026.1198483.2995605.1898308.0949745.0798588.1498375.1248474.2746849.1048527.1348457-.0249939.2646904-.0848579.4095306-.054987.1598396.0399895.1947098.2098255.2646904.3295517.0748596.1248474.1697159.1998291.2696915.2946835.1997032.1798325.2795639.3096771.2845612.5843658-.2546921.1397209-.6940956.1897068-.8539314.4294033-.0848579.1248474-.1198502.3495464-.0998535.4943886.0449867.3845387.5592499.419529.868927.4095325.1598396 0 .3745422-.0449905.5293808 0 .1448402.0448666.1897087.1797104.279686.2845612.1197243.1399651.2346954.1948299.4094086.2048283-.2047043.4094086-.759079.7690754-1.2234726.7390823-.2746887-.0199947-.5343781.0299931-.7940712-.1098499-.1397209-.0749817-.2596893-.1498413-.3545456-.279686-.054863-.0748596-.0698586-.0998535-.1697121-.1098518-.0799789-.0099964-.334671-.0249939-.419529.0099983-.059864.0249939-.1098518.0948544-.1598396.1298447-.1198463.0798588-.2896805.0948544-.3595428.2396965-.0698586.139843-.0798569.3495464-.0848579.5043869-.0099945.334549.1897087.4394016.479393.4793911.199707.0299931.3895378.1048527.5892448.1148491.0999718.0099983.2048264-.0049992.3046799-.0049992.2396927 0 .5243797-.0398674.7590752 0 .1298485.0249939.2296982.0998535.3595467.139843.1597137.0548649.3095551.0499878.4843903.0548649.1747131.0051212.2846832.025116.4543991.0899773.1248436.0499878.2196999.0648632.3545418.0648632.6142349-.0148754 1.2285995-.0048771 1.8428345-.0048771.2396927 0 .4843903.0148735.7240829 0 .0698624-.0051212.2047043-.054987.2646942-.0051212.0598602.0599842.0898514.2448158.1298447.3196754.0498657.0998535.0798569.1498413.0748596.2596912-.0049973.0948544-.0149994.1847095.0049973.279686.0199966.1248474.089859.2396965.0948563.3694191.0099945.2148247-.0098801.2298222-.1547165.394537-.0999756.109972-.2746887.139843-.4045334.2248211-.1248474.0798588-.199707.1497192-.3545456.1647148-.1198502.0099964-.2348175.0049992-.3545456 0-.2696915-.0049992-.5493774.0349903-.8190613.0199947-.1448441-.0049992-.3145599-.0449886-.4494019-.0948544-.1598358-.054987-.2846832-.0698605-.4445267-.0749817-.2097015-.0099964-.3695374-.0648613-.5492516-.1547165-.1748314-.0849781-.3745384-.1748352-.5693665-.1898308-.1298485-.0049992-.1847115-.0399895-.2946854-.1148491-.0498619-.0348701-.109726-.0698605-.1597137-.1148491-.0249939-.0249939-.0948563-.1248474-.1348457-.1448421-.1748352-.0748596-.3245506.0799809-.4295273.1998272-.1647148.1847115-.3195534.3695431-.4943848.5492535-.0798607.0799809-.1397247.1498413-.2546959.1748352-.1048508.0199947-.2845612.0099964-.394413-.0049992-.1498375-.0299931-.2596893-.1498413-.389534-.2346973-.1548424-.1048527-.2746887-.1598377-.4595184-.1598377h-.8539352c-.1448402 0-.2945595 0-.4393997-.0049992-.0499878 0-.139843-.0199947-.1848335 0-.1348457.0449886-.2346954.309679-.2696877.4295254-.1148491.4095306.1748352.818943.4595184 1.0836334.0498657.0449867.1048508.109848.1747131.139843.0899773.0399895.2048264.0299911.2896843.0798569.1997032.1198463.1848297.3895378.4345245.4345245.3195534.059864.8539314.0198746 1.0086479.3895378.029995.0698586.0249939.1597137.0549889.2346954.0399895.1148491.1048508.1797104.1797104.2746887.1049728.1348419.0899773.2895622.194828.4344025.1697121.2396965.4394035.419529.6442299.6292343.139843.1448402.2745628.2396965.4693947.2896805.3795395.0998535.8289375.0399933 1.2134743.0448685.2596931 0 .4993858-.0498657.76408-.0498657h3.400856c.1448364 0 .2446899.0249939.3545456-.0699806.1348419-.1198502.219696-.3245544.2596893-.4943886.0199966-.0998535.0349884-.2147026.0249939-.3195572-.0149994-.1448402-.0798569-.2346954-.1448441-.3595428-.109848-.2196999-.0449905-.5243797-.0499878-.7690735 0-.1948318 0-.2446976.1049728-.4145317.034874-.0448685.0498657-.0848579.0848618-.1298447.109848-.1298485.279686-.1598396.4145279-.2596931.1497192-.109848.1397171-.2296982.1348419-.3995323-.0051193-.1797104-.0051193-.3594246-.0051193-.5442543 0-.0899773-.0198746-.199707-.0048752-.2896843.0348663-.2047043.1847076-.2896824.1497192-.5143833-.0049973-.054863-.0498657-.3195534-.1248474-.3895359-.034874-.0348701-.1797104-.0548649-.2097015-.0698605-.1448441-.0649834-.3445511-.2247009-.3545456-.3945351-.0100021-.1547184.1298447-.3995342.1498413-.564249.0098724-.1049747.0049973-.2147026.0049973-.3196754 0-.1547184.0048752-.3195553 0-.479393-.0049973-.364542-.4045334-.4095306-.649231-.6042385-.0898514-.0698605-.2396927-.2098255-.2696838-.3295517-.0299988-.1348438.1298447-.279686.2296982-.3596668.1448364-.1148491.2596893-.1098499.4295273-.1048508.1348419.0049992.3145523-.0448666.4344025.0249939.3545456.1998272.2146988.7640762.2146988 1.0886288 0 .1348438-.0448685.3645439.0051193.4945107.0448685.1097279.199707.2097034.2795639.2945595.1098557.114851.1848373.1748352.3545456.1948299.1248474.0198727.2696915.0248718.3995361.0148754.169838-.0099983.2946854-.0748596.2946854-.2545719-.0050049-.1748333-.0849838-.3546658-.2296982-.4495201-.1648407-.114851-.2646942-.2147026-.3595505-.394537-.0899734-.1647148-.054985-.3445473-.054985-.5292568 0-.0899773-.0499878-.3196754.0399933-.3845387.0698624-.0449886.3495483-.0051193.4244003-.0051193.1498413.0051193.3645477.0199947.4993896.1049728.0948563.059864.1248474.1747131.2097015.2247009.2048264.1348438.504509.0698605.7342072.0599842.2945633-.0099983.4644012.1547165.6691055.3545456.1198425.1148491.224823.2097034.279686.3694191.109848.3046799.3046799.5343781.5393753.7542019.2146988.2047043.3145523.4693947.5193787.6840973.1448441 0 .1897125.0499859.3345566.0449886.2496872-.0049992.2896805.0299911.4095306.2446938.054863.1048527.1298447.199707.2146988.2795639.0349884.0499878.0698624.1049747.0998535.1548405.1648407.0899773.3795395-.1947079.4495239-.309557.0898514-.1348438.1048508-.2446957.109848-.4045334 0-.0898552-.054985-.2946815-.0249939-.364542.109848-.2696896.6392288-.2446957.8589325-.2346973.109848 0 .3395462.0598621.3945312-.0649834-.0749741-.1347241-.1098481-.1897091-.2546922-.2396969z"/><path d="m26.9399433 44.4660835c.1748352.0998535.2946835.0648613.4095325-.1198502.0898552-.1498413.1548386-.2996788.2596912-.4395218.2296982-.3145561.4943886-.3545456.8639297-.3545456.0798569 0 .1748333-.0199966.2546921.0099983.1098499.0349884.1548386.1298447.279686.1498375.3295517.0648613.6541042.0648613.9787788.0149956.2746868-.0449867.4144096-.2696877.5742474-.4845123.2048264-.2795639.3595428-.6191101.4395237-.9587822.0498657-.2047043.0399895-.4145317.0348682-.619236-.0048752-.2646904.0699825-.3795395.1498413-.6142349.0449886-.1498413.1198483-.3095589.1298447-.4593964.0099983-.2098274-.0498638-.4295273.054987-.619236.0648613-.1148491.1647148-.199707.2197018-.3196754.084856-.1647148.1898308-.3495483.2546921-.5193825.0199947-.059864.0199947-.1297264.0449886-.1897087.0498657-.1198502.1198483-.2047043.1347218-.33955.0151176-.1148491-.0248718-.2396965-.0148735-.3546677.0148735-.1447182.1048508-.2745667.1198463-.4194069.0149956-.1048508-.0149956-.2147026-.0049973-.3196754.0399895-.4394035.2446938-.8987999.3945351-1.3033333.0748596-.199707.1547165-.3296738.3095551-.479393.139843-.1348419.3246765-.2696877.419529-.444519.0998535-.1847115.1048546-.4194107.1847115-.619236.0799789-.1947098.2147026-.3195534.3595428-.4693947.1348457-.1448441.2296982-.2946815.3196754-.4743958.0998535-.1997032.2446976-.3296738.4045334-.4893875.1397209-.1348457.3195534-.2696877.3945351-.4494019.0548668-.1199684.0548668-.2596893.0948563-.3845367.0398674-.1299667.054863-.2448158.0748596-.3745384.0299911-.2396965.1248474-.4245281.2346954-.6342335.08498-.1598377.0699844-.3895359.1848335-.5193806.1348419-.1598377.3595428-.2996807.5243797-.4245281.1897087-.139843.3495483-.309679.5192604-.4693947.1248474-.1198483.2398186-.2197018.334671-.3645439.1148491-.1798325.2446976-.3245525.3695412-.4943867.0998535-.1248474.1248474-.3246746.2596931-.419529.139843-.0998535.4094086-.0249939.4843903-.1897087.0149956-.0349922 0-.0799809.0099983-.1148491.0199928-.0649853.0698586-.1299686.0948524-.1998291.0998535-.2746868.0399895-.5742455.1248474-.8539314.0349922-.1298466.0948563-.2846851.1697121-.394537.08498-.1148491.2548141-.2047043.3046799-.3445473.0199966-.0698605.0050011-.1847095.0149994-.2596912.0149956-.0948544.0449867-.1648369.0699806-.2596912.0348701-.1498394.0498657-.2546921.144722-.3845367.0649834-.0998535.1348419-.1947079.1998253-.2946835.0898552-.1348438.1797104-.2596893.2396965-.4094086.0698624-.1598377.1548386-.3496685.1548386-.5293789 0-.0948544-.0349884-.199707.0099983-.2896843.0648613-.1397209.2595711-.2047043.3645439-.309557.1348419-.1298447.2445717-.2596912.3894157-.3795395.1648331-.1348438.2896805-.2946815.4045296-.4645176-7.5356712 4.4496176-12.8242244 12.3049681-13.7481403 21.4487745z"/></g><path d="m81.2257309 57.856575c-4.1613998 10.3781128-14.3248367 17.7092133-26.195591 17.7092133-15.5926895 0-28.230547-12.6377335-28.230547-28.230423 0-6.3291016 2.0756474-12.1674347 5.5928898-16.8707809-1.3291397 3.2719231-2.0551796 6.8403358-2.0551796 10.5825539 0 15.5825195 12.6378593 28.2304878 28.220314 28.2304878 9.2942353-.0000001 17.535286-4.4886628 22.6681138-11.4210511z" fill="#344d5b" opacity=".15"/></svg>