<svg enable-background="new 0 0 110 110" height="512" viewBox="0 0 110 110" width="512" xmlns="http://www.w3.org/2000/svg"><path d="m38.35891 40.846867h48.807602v26.172142h-48.807602z" fill="#474c5b"/><path d="m87.9913406 26.7231712h-50.4572563c-1.1878738 0-2.1509361.9630222-2.1509361 2.150938v12.096468c0 1.1879578.9630623 2.1509819 2.1509361 2.1509819h50.4572563c1.1879578 0 2.1509323-.9630241 2.1509323-2.1509819v-12.096468c0-1.1879157-.9629745-2.150938-2.1509323-2.150938z" fill="#3a556a"/><g fill="#2f4859"><path d="m40.1870384 30.3037586v.5497837h-1.6813659v1.6768112h-.5498124v-2.2265949z"/><path d="m43.6548233 30.3037586v.5497837h-1.681366v1.6768112h-.5498123v-2.2265949z"/><path d="m47.1226082 30.3037586v.5497837h-1.6813698v1.6768112h-.5498123v-2.2265949z"/><path d="m50.5903893 30.3037586v.5497837h-1.681366v1.6768112h-.5498123v-2.2265949z"/><path d="m54.0581741 30.3037586v.5497837h-1.6813697v1.6768112h-.5498086v-2.2265949z"/><path d="m57.5259552 30.3037586v.5497837h-1.681366v1.6768112h-.5498123v-2.2265949z"/><path d="m60.9937401 30.3037586v.5497837h-1.6813698v1.6768112h-.5498085v-2.2265949z"/><path d="m64.461525 30.3037586v.5497837h-1.6813698v1.6768112h-.5498123v-2.2265949z"/><path d="m40.1870384 33.8090668v.5497856h-1.6813659v1.6768074h-.5498124v-2.226593z"/><path d="m43.6548233 33.8090668v.5497856h-1.681366v1.6768074h-.5498123v-2.226593z"/><path d="m47.1226082 33.8090668v.5497856h-1.6813698v1.6768074h-.5498123v-2.226593z"/><path d="m50.5903893 33.8090668v.5497856h-1.681366v1.6768074h-.5498123v-2.226593z"/><path d="m54.0581741 33.8090668v.5497856h-1.6813697v1.6768074h-.5498086v-2.226593z"/><path d="m57.5259552 33.8090668v.5497856h-1.681366v1.6768074h-.5498123v-2.226593z"/><path d="m60.9937401 33.8090668v.5497856h-1.6813698v1.6768074h-.5498085v-2.226593z"/><path d="m64.461525 33.8090668v.5497856h-1.6813698v1.6768074h-.5498123v-2.226593z"/><path d="m40.1870384 37.3143768v.5497818h-1.6813659v1.6768112h-.5498124v-2.226593z"/><path d="m43.6548233 37.3143768v.5497818h-1.681366v1.6768112h-.5498123v-2.226593z"/><path d="m47.1226082 37.3143768v.5497818h-1.6813698v1.6768112h-.5498123v-2.226593z"/><path d="m50.5903893 37.3143768v.5497818h-1.681366v1.6768112h-.5498123v-2.226593z"/><path d="m54.0581741 37.3143768v.5497818h-1.6813697v1.6768112h-.5498086v-2.226593z"/><path d="m57.5259552 37.3143768v.5497818h-1.681366v1.6768112h-.5498123v-2.226593z"/><path d="m60.9937401 37.3143768v.5497818h-1.6813698v1.6768112h-.5498085v-2.226593z"/><path d="m64.461525 37.3143768v.5497818h-1.6813698v1.6768112h-.5498123v-2.226593z"/></g><path d="m72.5756302 32.2609406c-1.4699554 0-2.6614456 1.1915741-2.6614456 2.6614456s1.1914902 2.6613998 2.6614456 2.6613998c1.4698715 0 2.6613617-1.1915283 2.6613617-2.6613998s-1.1914902-2.6614456-2.6613617-2.6614456z" fill="#27a2db"/><path d="m81.8326569 32.2609406c-1.4699554 0-2.6614456 1.1915741-2.6614456 2.6614456s1.1914902 2.6613998 2.6614456 2.6613998c1.4698715 0 2.6613617-1.1915283 2.6613617-2.6613998s-1.1914902-2.6614456-2.6613617-2.6614456z" fill="#e56353"/><path d="m87.9913406 44.524147h-50.4572563c-1.1878738 0-2.1509361.9630241-2.1509361 2.1509361v12.0964699c0 1.1879578.9630623 2.1509819 2.1509361 2.1509819h50.4572563c1.1879578 0 2.1509323-.9630241 2.1509323-2.1509819v-12.0964698c0-1.187912-.9629745-2.1509362-2.1509323-2.1509362z" fill="#3a556a"/><g fill="#2f4859"><path d="m40.1870384 48.1047363v.5497818h-1.6813659v1.6768112h-.5498124v-2.226593z"/><path d="m43.6548233 48.1047363v.5497818h-1.681366v1.6768112h-.5498123v-2.226593z"/><path d="m47.1226082 48.1047363v.5497818h-1.6813698v1.6768112h-.5498123v-2.226593z"/><path d="m50.5903893 48.1047363v.5497818h-1.681366v1.6768112h-.5498123v-2.226593z"/><path d="m54.0581741 48.1047363v.5497818h-1.6813697v1.6768112h-.5498086v-2.226593z"/><path d="m57.5259552 48.1047363v.5497818h-1.681366v1.6768112h-.5498123v-2.226593z"/><path d="m60.9937401 48.1047363v.5497818h-1.6813698v1.6768112h-.5498085v-2.226593z"/><path d="m64.461525 48.1047363v.5497818h-1.6813698v1.6768112h-.5498123v-2.226593z"/><path d="m40.1870384 51.6100426v.5497856h-1.6813659v1.6768074h-.5498124v-2.226593z"/><path d="m43.6548233 51.6100426v.5497856h-1.681366v1.6768074h-.5498123v-2.226593z"/><path d="m47.1226082 51.6100426v.5497856h-1.6813698v1.6768074h-.5498123v-2.226593z"/><path d="m50.5903893 51.6100426v.5497856h-1.681366v1.6768074h-.5498123v-2.226593z"/><path d="m54.0581741 51.6100426v.5497856h-1.6813697v1.6768074h-.5498086v-2.226593z"/><path d="m57.5259552 51.6100426v.5497856h-1.681366v1.6768074h-.5498123v-2.226593z"/><path d="m60.9937401 51.6100426v.5497856h-1.6813698v1.6768074h-.5498085v-2.226593z"/><path d="m64.461525 51.6100426v.5497856h-1.6813698v1.6768074h-.5498123v-2.226593z"/><path d="m40.1870384 55.1153526v.5497856h-1.6813659v1.6768074h-.5498124v-2.226593z"/><path d="m43.6548233 55.1153526v.5497856h-1.681366v1.6768074h-.5498123v-2.226593z"/><path d="m47.1226082 55.1153526v.5497856h-1.6813698v1.6768074h-.5498123v-2.226593z"/><path d="m50.5903893 55.1153526v.5497856h-1.681366v1.6768074h-.5498123v-2.226593z"/><path d="m54.0581741 55.1153526v.5497856h-1.6813697v1.6768074h-.5498086v-2.226593z"/><path d="m57.5259552 55.1153526v.5497856h-1.681366v1.6768074h-.5498123v-2.226593z"/><path d="m60.9937401 55.1153526v.5497856h-1.6813698v1.6768074h-.5498085v-2.226593z"/><path d="m64.461525 55.1153526v.5497856h-1.6813698v1.6768074h-.5498123v-2.226593z"/></g><path d="m72.5756302 50.0619164c-1.4699554 0-2.6614456 1.1915741-2.6614456 2.6614456s1.1914902 2.6613998 2.6614456 2.6613998c1.4698715 0 2.6613617-1.1915283 2.6613617-2.6613998s-1.1914902-2.6614456-2.6613617-2.6614456z" fill="#27a2db"/><path d="m81.8326569 50.0619164c-1.4699554 0-2.6614456 1.1915741-2.6614456 2.6614456s1.1914902 2.6613998 2.6614456 2.6613998c1.4698715 0 2.6613617-1.1915283 2.6613617-2.6613998s-1.1914902-2.6614456-2.6613617-2.6614456z" fill="#e56353"/><path d="m87.9913406 62.3251228h-50.4572563c-1.1878738 0-2.1509361.9630241-2.1509361 2.1509361v12.0964737c0 1.1879578.9630623 2.1509781 2.1509361 2.1509781h50.4572563c1.1879578 0 2.1509323-.9630203 2.1509323-2.1509781v-12.0964736c0-1.187912-.9629745-2.1509362-2.1509323-2.1509362z" fill="#3a556a"/><path d="m40.1870384 65.9057083v.5497894h-1.6813659v1.6768036h-.5498124v-2.226593z" fill="#2f4859"/><path d="m43.6548233 65.9057083v.5497894h-1.681366v1.6768036h-.5498123v-2.226593z" fill="#2f4859"/><path d="m47.1226082 65.9057083v.5497894h-1.6813698v1.6768036h-.5498123v-2.226593z" fill="#2f4859"/><path d="m50.5903893 65.9057083v.5497894h-1.681366v1.6768036h-.5498123v-2.226593z" fill="#2f4859"/><path d="m54.0581741 65.9057083v.5497894h-1.6813697v1.6768036h-.5498086v-2.226593z" fill="#2f4859"/><path d="m57.5259552 65.9057083v.5497894h-1.681366v1.6768036h-.5498123v-2.226593z" fill="#2f4859"/><path d="m60.9937401 65.9057083v.5497894h-1.6813698v1.6768036h-.5498085v-2.226593z" fill="#2f4859"/><path d="m64.461525 65.9057083v.5497894h-1.6813698v1.6768036h-.5498123v-2.226593z" fill="#2f4859"/><path d="m40.1870384 69.4110184v.5497818h-1.6813659v1.6768112h-.5498124v-2.226593z" fill="#2f4859"/><path d="m43.6548233 69.4110184v.5497818h-1.681366v1.6768112h-.5498123v-2.226593z" fill="#2f4859"/><path d="m47.1226082 69.4110184v.5497818h-1.6813698v1.6768112h-.5498123v-2.226593z" fill="#2f4859"/><path d="m50.5903893 69.4110184v.5497818h-1.681366v1.6768112h-.5498123v-2.226593z" fill="#2f4859"/><path d="m54.0581741 69.4110184v.5497818h-1.6813697v1.6768112h-.5498086v-2.226593z" fill="#2f4859"/><path d="m57.5259552 69.4110184v.5497818h-1.681366v1.6768112h-.5498123v-2.226593z" fill="#2f4859"/><path d="m60.9937401 69.4110184v.5497818h-1.6813698v1.6768112h-.5498085v-2.226593z" fill="#2f4859"/><path d="m64.461525 69.4110184v.5497818h-1.6813698v1.6768112h-.5498123v-2.226593z" fill="#2f4859"/><path d="m40.1870384 72.9163284v.5497818h-1.6813659v1.6768112h-.5498124v-2.226593z" fill="#2f4859"/><path d="m43.6548233 72.9163284v.5497818h-1.681366v1.6768112h-.5498123v-2.226593z" fill="#2f4859"/><path d="m47.1226082 72.9163284v.5497818h-1.6813698v1.6768112h-.5498123v-2.226593z" fill="#2f4859"/><path d="m50.5903893 72.9163284v.5497818h-1.681366v1.6768112h-.5498123v-2.226593z" fill="#2f4859"/><path d="m54.0581741 72.9163284v.5497818h-1.6813697v1.6768112h-.5498086v-2.226593z" fill="#2f4859"/><path d="m57.5259552 72.9163284v.5497818h-1.681366v1.6768112h-.5498123v-2.226593z" fill="#2f4859"/><path d="m60.9937401 72.9163284v.5497818h-1.6813698v1.6768112h-.5498085v-2.226593z" fill="#2f4859"/><path d="m64.461525 72.9163284v.5497818h-1.6813698v1.6768112h-.5498123v-2.226593z" fill="#2f4859"/><path d="m72.5756302 67.8628922c-1.4699554 0-2.6614456 1.1915741-2.6614456 2.6614456s1.1914902 2.6613998 2.6614456 2.6613998c1.4698715 0 2.6613617-1.1915283 2.6613617-2.6613998s-1.1914902-2.6614456-2.6613617-2.6614456z" fill="#27a2db"/><path d="m81.8326569 67.8628922c-1.4699554 0-2.6614456 1.1915741-2.6614456 2.6614456s1.1914902 2.6613998 2.6614456 2.6613998c1.4698715 0 2.6613617-1.1915283 2.6613617-2.6613998s-1.1914902-2.6614456-2.6613617-2.6614456z" fill="#e56353"/><path d="m54.6554527 49.4915581h-31.9271908c-1.5853615 0-2.8705387 1.2852097-2.8705387 2.8705368v28.0441933c0 1.5853653 1.2851772 2.8705444 2.8705387 2.8705444h31.9271908c1.5853271 0 2.8705025-1.2851791 2.8705025-2.8705444v-28.0441933c0-1.5853272-1.2851753-2.8705368-2.8705025-2.8705368z" fill="#ebf0f3"/><path d="m57.5259552 57.0415001v-4.6794052c0-1.5853271-1.2851753-2.8705368-2.8705025-2.8705368h-31.9271908c-1.5853615 0-2.8705387 1.2852097-2.8705387 2.8705368v4.6794052z" fill="#44c4a1"/><path d="m51.6756668 52.0256577c-.6852646 0-1.2408257.5555573-1.2408257 1.2408867 0 .6852989.5555611 1.2408562 1.2408257 1.2408562.6853294 0 1.2408867-.5555573 1.2408867-1.2408562 0-.6853295-.5555573-1.2408867-1.2408867-1.2408867z" fill="#ebf0f3"/><path d="m47.0801582 52.0256577c-.6852646 0-1.2408218.5555573-1.2408218 1.2408867 0 .6852989.5555573 1.2408562 1.2408218 1.2408562.6853294 0 1.2408905-.5555573 1.2408905-1.2408562 0-.6853295-.555561-1.2408867-1.2408905-1.2408867z" fill="#ebf0f3"/><path d="m42.4846497 52.0256577c-.6852646 0-1.2408218.5555573-1.2408218 1.2408867 0 .6852989.5555573 1.2408562 1.2408218 1.2408562.6853333 0 1.2408905-.5555573 1.2408905-1.2408562 0-.6853295-.5555573-1.2408867-1.2408905-1.2408867z" fill="#ebf0f3"/><ellipse cx="38.692" cy="69.929" fill="#fcd462" rx="8.288" ry="8.288" transform="matrix(.957 -.29 .29 .957 -18.604 14.213)"/><path d="m37.795239 64.595154h1.793207v7.770562h-1.793207z" fill="#3a556a"/><path d="m37.795239 73.469185h1.793207v1.793207h-1.793207z" fill="#3a556a"/></svg>