<svg enable-background="new 0 0 110 110" height="512" viewBox="0 0 110 110" width="512" xmlns="http://www.w3.org/2000/svg"><path d="m82.9878922 84.6315994h-58.5007306l-3.507658-5.2867355h65.5160485z" fill="#4d5c7d"/><path d="m78.9874344 43.2580833h-50.499876c-1.0574436 0-1.9146118.8572273-1.9146118 1.914669v32.3574982c0 1.0574417.8571682 1.9146118 1.9146118 1.9146118h50.4998779c1.0574417 0 1.9146729-.8571701 1.9146729-1.9146118v-32.3574981c-.000002-1.0574417-.8572331-1.9146691-1.9146748-1.9146691z" fill="#2f4859"/><path d="m39.528629 38.071564h28.41803v46.559994h-28.41803z" fill="#2d93ba" transform="matrix(0 1 -1 0 115.089 7.614)"/><path d="m86.8318863 25.3684006h-15.4529572c-1.208725 0-2.1886063.9798832-2.1886063 2.1886063v28.6804695c0 1.208725.9798813 2.1886063 2.1886063 2.1886063h15.4529572c1.208725 0 2.1886063-.9798813 2.1886063-2.1886063v-28.6804696c0-1.208723-.9798813-2.1886062-2.1886063-2.1886062z" fill="#3a556a"/><path d="m70.914887 29.086462h16.38105v24.681761h-16.38105z" fill="#ebf0f3"/><path d="m80.8313599 26.9282951h-3.1325989c-.1915512 0-.3467712.1552811-.3467712.3468342s.15522.3468342.3467712.3468342h3.1325989c.1915512 0 .3468323-.1552811.3468323-.3468342s-.1552811-.3468342-.3468323-.3468342z" fill="#2f4859"/><path d="m79.7129593 54.8603706h-1.2150345c-.2825165 0-.5116119.2290344-.5116119.5115509v1.2150345c0 .2825165.2290955.5116119.5116119.5116119h1.2150345c.2825165 0 .5115509-.2290955.5115509-.5116119v-1.2150345c0-.2825164-.2290344-.5115509-.5115509-.5115509z" fill="#2f4859"/><path d="m61.9410553 63.3116455v-2.6199951l-2.2299805-.3299561c-.1300049-.5-.3300171-.9800415-.5900269-1.4300537l1.3500366-1.8099976-1.8600464-1.8499756-1.8099976 1.3400269c-.4400024-.25-.9199829-.4500122-1.4199829-.5900269l-.3300171-2.2299805h-2.6300049l-.3299561 2.2299805c-.5.1400146-.9800415.3400269-1.4200439.5900269l-1.8099976-1.3400269-1.8499756 1.8499756 1.3400269 1.8099976c-.2600098.4500122-.4500122.9300537-.5900269 1.4300537l-2.2299805.3299561v2.6199951l2.2299805.3300171c.1400146.5100098.3300171.9799805.5900269 1.4299927l-1.3400269 1.7999878 1.8499756 1.8600464 1.8099976-1.3400269c.4400024.25.9200439.4500122 1.4200439.5900269l.3299561 2.2299805h2.6300049l.3300171-2.2299805c.5-.1400146.9799805-.3400269 1.4199829-.5900269l1.8099976 1.3400269 1.8600464-1.8600464-1.3500366-1.7999878c.2600098-.4500122.460022-.9199829.5900269-1.4299927zm-8.2099609 2.4700317c-2.0800171 0-3.7700195-1.6900024-3.7700195-3.7800293 0-2.0799561 1.6900024-3.7699585 3.7700195-3.7699585 2.0899658 0 3.7799683 1.6900024 3.7799683 3.7699585-.0000001 2.0900269-1.6900025 3.7800293-3.7799683 3.7800293z" fill="#fcd462"/><path d="m73.392563 33.061047h11.4257v1.310383h-11.4257z" fill="#44c4a1"/><g fill="#d5d6db"><path d="m73.392563 37.151547h11.4257v1.310383h-11.4257z"/><path d="m73.392563 41.24205h11.4257v1.310383h-11.4257z"/><path d="m73.392563 45.33255h11.4257v1.310383h-11.4257z"/><path d="m73.392563 49.423054h11.4257v1.310383h-11.4257z"/><path d="m66.8529663 32.8801117v-1.5394173h-13.1647301v6.8499604l-.912529-1.0778923-1.1756095.9952087 2.8104934 3.3193703 3.1682854-3.1682854-1.0884171-1.0884171-1.2628059 1.262806v-5.5533333z"/></g></svg>