<svg enable-background="new 0 0 110 110" height="512" viewBox="0 0 110 110" width="512" xmlns="http://www.w3.org/2000/svg"><path d="m26.880955 33.812054h56.238091v31.212818h-56.238091z" fill="#2f4859"/><path d="m83.8854752 18.2475891h-57.7709485c-1.1478691 0-2.0783978.9305267-2.0783978 2.0783978v14.626955c0 1.1478691.9305286 2.0783997 2.0783978 2.0783997h57.7709503c1.1478653 0 2.078392-.9305305 2.078392-2.0783997v-14.626955c-.0000018-1.1478711-.9305285-2.0783978-2.0783938-2.0783978z" fill="#3a556a"/><g fill="#2f4859"><path d="m27.2774429 24.9884205v-3.5958538h3.5958538z"/><path d="m32.3216286 24.9884205v-3.5958538h3.5958519z"/><path d="m37.3658104 24.9884205v-3.5958538h3.5958557z"/><path d="m42.409996 24.9884205v-3.5958538h3.5958519z"/><path d="m47.4541779 24.9884205v-3.5958538h3.5958557z"/><path d="m52.4983635 24.9884205v-3.5958538h3.5958557z"/><path d="m27.2774429 29.8241615v-3.5958538h3.5958538z"/><path d="m32.3216286 29.8241615v-3.5958538h3.5958519z"/><path d="m37.3658104 29.8241615v-3.5958538h3.5958557z"/><path d="m42.409996 29.8241615v-3.5958538h3.5958519z"/><path d="m47.4541779 29.8241615v-3.5958538h3.5958557z"/><path d="m52.4983635 29.8241615v-3.5958538h3.5958557z"/><path d="m27.2774429 34.6599007v-3.5958538h3.5958538z"/><path d="m32.3216286 34.6599007v-3.5958538h3.5958519z"/><path d="m37.3658104 34.6599007v-3.5958538h3.5958557z"/><path d="m42.409996 34.6599007v-3.5958538h3.5958519z"/><path d="m47.4541779 34.6599007v-3.5958538h3.5958557z"/><path d="m52.4983635 34.6599007v-3.5958538h3.5958557z"/><path d="m66.6552811 24.7132206c-1.6161575 0-2.9262543 1.3101482-2.9262543 2.9263039 0 1.6161003 1.3100967 2.9262486 2.9262543 2.9262486 1.6161499 0 2.9262466-1.3101482 2.9262466-2.9262486 0-1.6161557-1.3100967-2.9263039-2.9262466-2.9263039z"/><path d="m76.9497681 24.7132206c-1.6161499 0-2.9262466 1.3101482-2.9262466 2.9263039 0 1.6161003 1.3100967 2.9262486 2.9262466 2.9262486 1.6161575 0 2.9262543-1.3101482 2.9262543-2.9262486-.0000001-1.6161557-1.3100968-2.9263039-2.9262543-2.9263039z"/></g><path d="m83.8854752 39.1647758h-57.7709485c-1.1478691 0-2.0783978.9305305-2.0783978 2.0783997v14.6269531c0 1.1478729.9305286 2.0783997 2.0783978 2.0783997h57.7709503c1.1478653 0 2.078392-.9305267 2.078392-2.0783997v-14.6269531c-.0000018-1.1478691-.9305285-2.0783997-2.0783938-2.0783997z" fill="#3a556a"/><g fill="#2f4859"><path d="m27.2774429 45.9056091v-3.5958519h3.5958538z"/><path d="m32.3216286 45.9056091v-3.5958519h3.5958519z"/><path d="m37.3658104 45.9056091v-3.5958519h3.5958557z"/><path d="m42.409996 45.9056091v-3.5958519h3.5958519z"/><path d="m47.4541779 45.9056091v-3.5958519h3.5958557z"/><path d="m52.4983635 45.9056091v-3.5958519h3.5958557z"/><path d="m27.2774429 50.7413483v-3.5958519h3.5958538z"/><path d="m32.3216286 50.7413483v-3.5958519h3.5958519z"/><path d="m37.3658104 50.7413483v-3.5958519h3.5958557z"/><path d="m42.409996 50.7413483v-3.5958519h3.5958519z"/><path d="m47.4541779 50.7413483v-3.5958519h3.5958557z"/><path d="m52.4983635 50.7413483v-3.5958519h3.5958557z"/><path d="m27.2774429 55.5770874v-3.5958519h3.5958538z"/><path d="m32.3216286 55.5770874v-3.5958519h3.5958519z"/><path d="m37.3658104 55.5770874v-3.5958519h3.5958557z"/><path d="m42.409996 55.5770874v-3.5958519h3.5958519z"/><path d="m47.4541779 55.5770874v-3.5958519h3.5958557z"/><path d="m52.4983635 55.5770874v-3.5958519h3.5958557z"/><path d="m66.6552811 45.6304092c-1.6161575 0-2.9262543 1.3101463-2.9262543 2.9263039 0 1.6161003 1.3100967 2.9262466 2.9262543 2.9262466 1.6161499 0 2.9262466-1.3101463 2.9262466-2.9262466 0-1.6161575-1.3100967-2.9263039-2.9262466-2.9263039z"/><path d="m76.9497681 45.6304092c-1.6161499 0-2.9262466 1.3101463-2.9262466 2.9263039 0 1.6161003 1.3100967 2.9262466 2.9262466 2.9262466 1.6161575 0 2.9262543-1.3101463 2.9262543-2.9262466-.0000001-1.6161575-1.3100968-2.9263039-2.9262543-2.9263039z"/></g><path d="m83.8854752 60.0819664h-57.7709485c-1.1478691 0-2.0783978.9305267-2.0783978 2.0783958v14.6269531c0 1.1478729.9305286 2.0783997 2.0783978 2.0783997h57.7709503c1.1478653 0 2.078392-.9305267 2.078392-2.0783997v-14.6269531c-.0000018-1.1478691-.9305285-2.0783958-2.0783938-2.0783958z" fill="#3a556a"/><path d="m27.2774429 66.8227997v-3.5958557h3.5958538z" fill="#2f4859"/><path d="m32.3216286 66.8227997v-3.5958557h3.5958519z" fill="#2f4859"/><path d="m37.3658104 66.8227997v-3.5958557h3.5958557z" fill="#2f4859"/><path d="m42.409996 66.8227997v-3.5958557h3.5958519z" fill="#2f4859"/><path d="m47.4541779 66.8227997v-3.5958557h3.5958557z" fill="#2f4859"/><path d="m52.4983635 66.8227997v-3.5958557h3.5958557z" fill="#2f4859"/><path d="m27.2774429 71.6585388v-3.5958557h3.5958538z" fill="#2f4859"/><path d="m32.3216286 71.6585388v-3.5958557h3.5958519z" fill="#2f4859"/><path d="m37.3658104 71.6585388v-3.5958557h3.5958557z" fill="#2f4859"/><path d="m42.409996 71.6585388v-3.5958557h3.5958519z" fill="#2f4859"/><path d="m47.4541779 71.6585388v-3.5958557h3.5958557z" fill="#2f4859"/><path d="m52.4983635 71.6585388v-3.5958557h3.5958557z" fill="#2f4859"/><path d="m27.2774429 76.494278v-3.5958558h3.5958538z" fill="#2f4859"/><path d="m32.3216286 76.494278v-3.5958558h3.5958519z" fill="#2f4859"/><path d="m37.3658104 76.494278v-3.5958558h3.5958557z" fill="#2f4859"/><path d="m42.409996 76.494278v-3.5958558h3.5958519z" fill="#2f4859"/><path d="m47.4541779 76.494278v-3.5958558h3.5958557z" fill="#2f4859"/><path d="m52.4983635 76.494278v-3.5958558h3.5958557z" fill="#2f4859"/><path d="m66.6552811 66.5475998c-1.6161575 0-2.9262543 1.3101425-2.9262543 2.9263 0 1.6161041 1.3100967 2.9262466 2.9262543 2.9262466 1.6161499 0 2.9262466-1.3101425 2.9262466-2.9262466 0-1.6161575-1.3100967-2.9263-2.9262466-2.9263z" fill="#2f4859"/><path d="m76.9497681 66.5475998c-1.6161499 0-2.9262466 1.3101425-2.9262466 2.9263 0 1.6161041 1.3100967 2.9262466 2.9262466 2.9262466 1.6161575 0 2.9262543-1.3101425 2.9262543-2.9262466-.0000001-1.6161575-1.3100968-2.9263-2.9262543-2.9263z" fill="#2f4859"/><path d="m51.485863 59.530834h7.028417v25.45648h-7.028417z" fill="#e1e6e9" transform="matrix(.707 .707 -.707 .707 67.204 -17.727)"/><path d="m47.321743 70.423805h15.356512v3.670435h-15.356512z" fill="#d5d6db" transform="matrix(-.707 .707 -.707 -.707 144.986 84.463)"/><path d="m67.1878128 67.3116608c-3.9964142 0-7.2427902-3.2408066-7.2427902-7.2427902 0-4.002018 3.246376-7.2427902 7.2427902-7.2427902 2.7482529 0 5.138237 1.5280266 6.3696289 3.7781181h-5.6587677l-2.2668686 3.4646721 2.2668686 3.4702415h5.6531601c-1.2313538 2.2500877-3.621376 3.7725487-6.3640213 3.7725487z" fill="#ebf0f3"/><path d="m42.7519875 77.2668304c3.9964142 0 7.2427902 3.2408066 7.2427902 7.2427902 0 4.0020218-3.246376 7.2427902-7.2427902 7.2427902-2.7482491 0-5.1382332-1.5280304-6.3696289-3.7781143h5.6587715l2.266861-3.4646759-2.266861-3.4702377h-5.6531677c1.2313575-2.2500915 3.6213798-3.7725525 6.3640251-3.7725525z" fill="#ebf0f3"/><path d="m40.9754486 54.6668854-3.4870911-1.9249993-1.562088 1.5620881 1.9250031 3.487091 3.1329384 1.7294922 11.8506012 11.850605 1.7218704-1.7218704-11.854538-11.854538z" fill="#ebf0f3"/><path d="m49.576088 73.4675751 16.7192764 16.7192764c.9351654.9351654 2.4513855.9351654 3.3865509 0l3.6904373-3.6904373c.935173-.935173.935173-2.4513855 0-3.3865585l-16.7192726-16.7192688z" fill="#f7be56"/><path d="m51.5201454 68.3346405-5.8470688 5.8470764.8286362.8286362 5.0727348.4555817 7.0769921-7.0769883-.4555855-5.0727348-.8286362-.82864z" fill="#fcd462"/><path d="m58.198143 63.341938-.0023041-.0257339-.8286361-.8286362-11.6941452 11.6941414.8286399.8286362.025734.002304z" fill="#f7be56"/></svg>