<svg enable-background="new 0 0 110 110" height="512" viewBox="0 0 110 110" width="512" xmlns="http://www.w3.org/2000/svg"><path d="m52.1220856 41.0299683v2h11.4100342v-2zm-27.1099873 0v41.3400269h47.2800293v-41.3400269zm45.2800312 39.3400268h-43.2800312v-37.3400268h43.2800293v37.3400268zm-18.1700439-39.3400268v2h11.4100342v-2z" fill="#2f4859"/><path d="m50.040402 32.807342h42.512013v2.2013h-42.512013z" fill="#2f4859"/><path d="m50.040402 47.55883h42.512013v2.254091h-42.512013z" fill="#2f4859"/><path d="m92.5764389 19.8684464h-42.1035118c-.8980064 0-1.6259384.7279282-1.6259384 1.6258984v10.3356419c0 .8979721.727932 1.6259384 1.6259384 1.6259384h42.1035118c.8979721 0 1.6259384-.7279663 1.6259384-1.6259384v-10.335642c0-.8979702-.7279663-1.6258983-1.6259384-1.6258983z" fill="#3a556a"/><g fill="#2f4859"><path d="m51.343731 22.344681h.776181v8.635008h-.776181z"/><path d="m54.391331 22.344681h.776181v8.635008h-.776181z"/><path d="m57.438931 22.344681h.776181v8.635008h-.776181z"/><path d="m60.48653 22.344681h.776181v8.635008h-.776181z"/><path d="m63.534134 22.344681h.776181v8.635008h-.776181z"/><path d="m78.739052 22.344681h.776181v8.635008h-.776181z"/><path d="m81.786652 22.344681h.776181v8.635008h-.776181z"/><path d="m84.834259 22.344681h.776181v8.635008h-.776181z"/><path d="m87.881859 22.344681h.776181v8.635008h-.776181z"/><path d="m90.929459 22.344681h.776181v8.635008h-.776181z"/><path d="m71.5246658 24.0199165c-1.459259 0-2.6422501 1.182991-2.6422501 2.6422882 0 1.459259 1.182991 2.6422501 2.6422501 2.6422501 1.4592972 0 2.6422882-1.182991 2.6422882-2.6422501 0-1.4592971-1.182991-2.6422882-2.6422882-2.6422882z"/></g><path d="m92.5764389 34.4867134h-42.1035118c-.8980064 0-1.6259384.7279282-1.6259384 1.6258965v10.3356438c0 .8979721.727932 1.6259384 1.6259384 1.6259384h42.1035118c.8979721 0 1.6259384-.7279663 1.6259384-1.6259384v-10.3356438c0-.8979683-.7279663-1.6258965-1.6259384-1.6258965z" fill="#3a556a"/><path d="m51.343731 36.962948h.776181v8.635008h-.776181z" fill="#2f4859"/><path d="m54.391331 36.962948h.776181v8.635008h-.776181z" fill="#2f4859"/><path d="m57.438931 36.962948h.776181v8.635008h-.776181z" fill="#2f4859"/><path d="m60.48653 36.962948h.776181v8.635008h-.776181z" fill="#2f4859"/><path d="m63.534134 36.962948h.776181v8.635008h-.776181z" fill="#2f4859"/><path d="m78.739052 36.962948h.776181v8.635008h-.776181z" fill="#2f4859"/><path d="m81.786652 36.962948h.776181v8.635008h-.776181z" fill="#2f4859"/><path d="m84.834259 36.962948h.776181v8.635008h-.776181z" fill="#2f4859"/><path d="m87.881859 36.962948h.776181v8.635008h-.776181z" fill="#2f4859"/><path d="m90.929459 36.962948h.776181v8.635008h-.776181z" fill="#2f4859"/><path d="m71.5246658 38.6381836c-1.459259 0-2.6422501 1.182991-2.6422501 2.6422882 0 1.459259 1.182991 2.6422501 2.6422501 2.6422501 1.4592972 0 2.6422882-1.182991 2.6422882-2.6422501 0-1.4592972-1.182991-2.6422882-2.6422882-2.6422882z" fill="#2f4859"/><path d="m92.5764389 49.3370628h-42.1035118c-.8980064 0-1.6259384.7279282-1.6259384 1.6259003v10.33564c0 .8979721.727932 1.6259384 1.6259384 1.6259384h42.1035118c.8979721 0 1.6259384-.7279663 1.6259384-1.6259384v-10.33564c0-.8979721-.7279663-1.6259003-1.6259384-1.6259003z" fill="#3a556a"/><path d="m51.343731 51.813297h.776181v8.635008h-.776181z" fill="#2f4859"/><path d="m54.391331 51.813297h.776181v8.635008h-.776181z" fill="#2f4859"/><path d="m57.438931 51.813297h.776181v8.635008h-.776181z" fill="#2f4859"/><path d="m60.48653 51.813297h.776181v8.635008h-.776181z" fill="#2f4859"/><path d="m63.534134 51.813297h.776181v8.635008h-.776181z" fill="#2f4859"/><path d="m78.739052 51.813297h.776181v8.635008h-.776181z" fill="#2f4859"/><path d="m81.786652 51.813297h.776181v8.635008h-.776181z" fill="#2f4859"/><path d="m84.834259 51.813297h.776181v8.635008h-.776181z" fill="#2f4859"/><path d="m87.881859 51.813297h.776181v8.635008h-.776181z" fill="#2f4859"/><path d="m90.929459 51.813297h.776181v8.635008h-.776181z" fill="#2f4859"/><path d="m71.5246658 53.488533c-1.459259 0-2.6422501 1.182991-2.6422501 2.6422882 0 1.459259 1.182991 2.6422501 2.6422501 2.6422501 1.4592972 0 2.6422882-1.182991 2.6422882-2.6422501 0-1.4592972-1.182991-2.6422882-2.6422882-2.6422882z" fill="#2f4859"/><path d="m41.314785 64.9119797-3.1673355-3.1673927c-.4247513-.4246941-1.0008354-.6633148-1.6015015-.6633148h-18.4835071c-1.250843 0-2.2648182 1.0139771-2.2648182 2.2648201v24.5206451c0 1.2507858 1.0139751 2.2648163 2.2648182 2.2648163h21.6508999c1.250843 0 2.2648163-1.0140305 2.2648163-2.2648163v-21.3532563c-.0000001-.6006622-.2386208-1.1767501-.6633721-1.6015014z" fill="#44c4a1"/><path d="m18.417835 75.880943h20.940109v14.250608h-20.940109z" fill="#ebf0f3"/><path d="m18.417835 75.880943h20.940109v2.62701h-20.940109z" fill="#3a556a"/><path d="m19.608906 61.081272h15.379682v8.19287h-15.379682z" fill="#ebf0f3"/><path d="m30.509604 64.424828h2.275746v3.850052h-2.275746z" fill="#2d93ba"/><g fill="#d5d6db"><path d="m21.459589 80.358238h3.91753v1.012766h-3.91753z"/><path d="m29.22016 80.358238h7.096032v1.012766h-7.096032z"/><path d="m26.012985 80.358238h2.621826v1.012766h-2.621826z"/><path d="m32.398663 82.615967h3.91753v1.012766h-3.91753z" transform="matrix(-1 0 0 -1 68.715 166.245)"/><path d="m21.459589 82.615967h7.096032v1.012766h-7.096032z" transform="matrix(-1 0 0 -1 50.015 166.245)"/><path d="m29.14097 82.615967h2.621826v1.012766h-2.621826z" transform="matrix(-1 0 0 -1 60.904 166.245)"/><path d="m21.459589 84.873695h2.42767v1.012766h-2.42767z"/><path d="m30.667511 84.873695h5.64868v1.012766h-5.64868z"/><path d="m24.411491 84.873695h5.766241v1.012766h-5.766241z"/><path d="m21.459589 87.131416h3.91753v1.012766h-3.91753z"/><path d="m29.22016 87.131416h7.096032v1.012766h-7.096032z"/><path d="m26.012985 87.131416h2.621826v1.012766h-2.621826z"/></g></svg>