<svg enable-background="new 0 0 110 110" height="512" viewBox="0 0 110 110" width="512" xmlns="http://www.w3.org/2000/svg"><path d="m67.001091 24.6828747h-45.2918606c-2.0164757 0-3.6511955 1.6346569-3.6511955 3.6511326v42.1276093c0 2.0165405 1.6347198 3.6511993 3.6511955 3.6511993h45.2918606c2.0164795 0 3.6511993-1.6346588 3.6511993-3.6511993v-42.1276093c0-2.0164757-1.6347198-3.6511326-3.6511993-3.6511326z" fill="#2d93ba"/><g fill="#ebf0f3"><path d="m38.4719887 38.0990677c.0012856-.0237541.0137138-.0437126.0137138-.0677872v-1.7688179c0-.7221794-.5855103-1.3076859-1.3077507-1.3076859h-10.3216019c-.7222443 0-1.3076859.5855064-1.3076859 1.3076859v1.7688179c0 .0240746.0124245.0440331.0137119.0677872h-5.3945847v32.3625488c0 .8497772.6921806 1.541954 1.541954 1.541954h45.2914124c.8497696 0 1.5419464-.6921768 1.5419464-1.541954v-32.3625488z"/><path d="m64.6506271 30.0090275c-.804451 0-1.4565239.6521358-1.4565239 1.4565258 0 .804451.6520729 1.4565887 1.4565239 1.4565887.8044586 0 1.4565277-.6521378 1.4565277-1.4565887 0-.80439-.652069-1.4565258-1.4565277-1.4565258z"/><path d="m58.8750916 30.0090275c-.804451 0-1.4565239.6521358-1.4565239 1.4565258 0 .804451.6520729 1.4565887 1.4565239 1.4565887.8044548 0 1.4565277-.6521378 1.4565277-1.4565887 0-.80439-.6520729-1.4565258-1.4565277-1.4565258z"/><path d="m53.099556 30.0090275c-.8044548 0-1.4565239.6521358-1.4565239 1.4565258 0 .804451.6520691 1.4565887 1.4565239 1.4565887.804451 0 1.4565239-.6521378 1.4565239-1.4565887 0-.80439-.6520729-1.4565258-1.4565239-1.4565258z"/></g><path d="m72.1290741 57.5133591-1.6531982-1.9374886c-.5546799-.6500626-1.3663177-1.0244637-2.2208633-1.0244637h-10.9565278c-1.6123695 0-2.9194527 1.3070831-2.9194527 2.9194527v24.9268532c0 1.6123657 1.3070831.2944794 2.9194527.2944794h29.398674c1.6123657 0 2.9194565 1.3178864 2.9194565-.2944794v-20.9404373c0-1.6123695-1.3070908-2.9194527-2.9194565-2.9194527h-12.347229c-.854538 0-1.6661835-.3744049-2.2208557-1.0244636z" fill="#f7be56"/><path d="m88.9354858 62.8423882h-33.8754959c-1.8674812 0-3.2010345 1.5004692-2.9830093 3.3150978l1.9925308 16.5837021c.1722641 1.4337387 1.6165733 2.5759354 3.2289505 2.5759354h29.3986816c1.612381 0 3.0566864-1.1421967 3.2289505-2.5759354l1.9925308-16.5837021c.2180253-1.8146286-1.1156539-3.3150978-2.983139-3.3150978z" fill="#fcd462"/><path d="m25.70805 42.907642h37.29422v4.686647h-37.29422z" fill="#d5d6db"/><path d="m25.70805 42.907642h7.818483v4.686647h-7.818483z" fill="#e56353"/><g fill="#d5d6db"><path d="m31.608421 51.158791h26.573032v1.088315h-26.573032z"/><path d="m37.736237 54.695816h14.317403v1.088315h-14.317403z"/></g></svg>