<svg enable-background="new 0 0 110 110" height="512" viewBox="0 0 110 110" width="512" xmlns="http://www.w3.org/2000/svg"><path d="m98.5604706 53.8725548h-40.3577652l28.5372543-28.5373039-1.9371414-1.9371376-28.5372505 28.5371932v-40.3577041h-2.7395477v40.3577041l-28.5372506-28.5371932-1.9371376 1.9371376 28.5372505 28.5373039h-40.3577613v2.7395515h40.3577613l-28.5372505 28.5372544 1.9371376 1.9370193 28.5372506-28.5372505v40.3577614h2.7395477v-40.357647l28.5372505 28.5371361 1.9371414-1.9370193-28.5372543-28.5372544h40.3577652z" fill="#3a556a"/><path d="m75.1423721 71.6210785c-.4669342-.8473587-.3790741-1.9296036-.1197968-2.7998962.6758347-2.2687683 2.4738159-3.9963837 3.2932129-6.3255577-.4762115-6.072731-1.3009338-12.2310028-.5547943-18.2962036.0474396-.3859215.1970139-.7009659.4034195-.9538498-4.351738-8.4237022-13.1354904-14.1861439-23.2706718-14.1861439-14.460537 0-26.1831093 11.7226315-26.1831093 26.1832256s11.7225723 26.1832275 26.1831093 26.1832275c8.2046127 0 15.5247231-3.7762299 20.3255043-9.682518-.0252457-.041954-.0524216-.0780105-.0768738-.1222839z" fill="#2d93ba"/><g fill="#ebf0f3"><path d="m81.0809097 55.240551c0 6.7585182-2.5635452 12.9214592-6.7671051 17.5565987-.0259247 0-.0518417-.0086441-.0864029-.0086441-.1985092-.0086365-.3797379.1899261-.4573898.336647-.0690155.1380768-.0949326.2848511-.1640549.414299-.8458786.8804321-1.7608719 1.7004395-2.7361374 2.4427414-.0691147-.0086441-.1467743-.0086441-.2244263-.0172806-.3108292-.0258713-.3625641.1553574-.5006943.3884277-.1639481.2589417-.4315796.509285-.7250214.6300888-.336647.1381302-.7163849.1985626-1.0703049.2675781-.2244263.0431976-.3193665.0604248-.3970184.2934952-.0517349.1380768-.077652.3020782-.0949326.4488525-.4229355.2416611-.8458786.4747238-1.2860947.6905136.0172806-.6214981.4229355-1.1307297.4488602-1.7608643.0086365-.1380844-.0259247-.2934494.0086365-.4315796.0344543-.1640015.1293945-.1985092.1898727-.3365936.0690155-.1726379.1639481-.5351486.0172806-.6732864-.1985092-.1812286-.4661407-.1812286-.526619-.5092316-.0172806-.094986 0-.1726379.0086365-.2762146.0172806-.3021317.0259247-.6560059-.0862885-.9408646-.0949402-.2416534-.3798447-.3711472-.6300888-.3538666-.2417068.0086365-.4574966.1640015-.6904602.077652-.1209641-.0431442-.1813354-.1812286-.3021927-.2244263-.1122131-.0345078-.1898651-.0172272-.3020782-.0172272-.3020859.0086365-.612915.0258636-.9148903.0086365-.2330704-.0086365-.4402199-.103569-.6560059-.181282-.3281097-.103569-.4057655-.258934-.5783539-.5006409-.138134-.1985092-.3107224-.3366394-.4402161-.5351486-.0430946-.0604324-.1122169-.1208572-.1554146-.1812286-.0690155-.1122208-.0690155-.2330704-.1207504-.336647-.1036797-.1899185-.3453865-.258934-.4142952-.4747238-.060482-.181282-.0259209-.4315796 0-.6128616.0171738-.1640015.1466675-.414299.0689087-.5610733-.0861893-.1640015-.3538208-.1122131-.4919548-.1122131-.3020821.0172806-.4142952.094986-.5869904.3539276-.1207504.1812286-.2071495.3193588-.2157898.5351486-.0086403.155365-.0344543.3797913.0086403.5265121.0518417.2157898.3021889.2675781.4057655.4574966.1208534.2244339.0517311.5005951.1554108.7250214.0948296.1985626.0948296.3193665.1121101.5351562.060482.431572.4661369.5179214.8285942.5092773.1468811-.0086365.5525398-.0777054.6646461.0690689.1123199.1467209.0259209.5610199.0259209.7250214 0 .1467209.0259209.3107224-.0086403.4488602-.0517349.2157898-.2244263.3538666-.3710976.5006409-.2503471.2502975-.4142952.388382-.7510452.5437393-.2329636.1122131-.4746704.2762146-.7335548.2934952-.2676277.0086441-.5006981.0949402-.7683258.1380844-.2933388.0431976-.6128082.0431976-.90625.1122131-.1898689.0517883-.3452835.1726456-.5437927.1899261-.1208534.0172729-.2330666.0086365-.353817.0086365-.2589874-.0086365-.6646461.0517883-.9322739-.0086365-.1294937-.0345078-.2589874-.155365-.3797379-.2071533-.138134-.0604248-.276268-.094986-.4229393-.1035767-.2849083-.0086365-.6042709-.0259171-.8804321.0604324-.2849083.0862961-.7164879.233017-1.0012894.0603714-.138134-.077652-.1122169-.0949326-.1813354-.2243729-.0603752-.094986-.1466675-.1554184-.2244301-.2417068-.0861893-.077713-.2846947-.2416611-.293335-.3625107-.0086403-.077713.077549-.155365.1121063-.2071533.138134-.2071991.2935486-.4057083.4229393-.6214981.2071495-.3280029.4229355-.5524292.4834175-.9494476.0431976-.258934 0-.4661407-.060482-.7077942-.1207466-.4574966-.077652-.9149399-.077652-1.3810806 0-.2675781-.0603752-.586937.0517349-.828598.0691185-.1553574.1986122-.258934.2330666-.431572.0777588-.336647.0172806-.768219.0172806-1.1135025 0-.2761688.1294937-.8717422-.1898689-.9753189-.4834175-.1726456-.7423019.2761612-.7163811.6905136.0171738.3280029-.1467743.5696564-.1640549.8890228-.0086403.2503433.060482.5265121-.0259171.768219-.0948296.2417068-.3365402.3452835-.4573936.5524292-.1035728.1985092-.0345612.4920044-.0345612.7077942.0086403.2848053-.0258141.4747238-.138134.7336655-.1034698.2417068-.2761612.4488525-.3278961.7164307-.0950394.4315796.0086403.828598.0086403 1.2774506.0171738.4057083-.0345612.8717957-.3021889 1.1911621-.1553078.1898651-.2244301.2330627.0086403.3884277.3452835.2071457.6905632.3970184 1.0703011.5437927.2589912.0949326.5437927.1812286.7855034.3193588.2244263.1380844.4229355.1122208.6818199.1726456.3108292.077652.6215515.1812286.9236336.2761612.1294937.0431976.5006981.0259247.5437927.1467743-.2330704.3107224-.4315758.3711548-.7941399.3970184-.3451767.0345612-.6128082.094986-.9321709.2244263-.2417068.1035767-.4315758.2330704-.6387253.3970718-.2848053.2416611-.5092316.3538742-.8977165.3538742-.3712006 0-.6904602-.0258713-1.0530205.094986-.4402199.1553574-.828701.3452301-1.3120155.3711472-.630085.0172272-1.2947311-.1208496-1.9075394.0172272-.5610695.1208572-1.0789413.1122131-1.6486549.1122131-.1466675 0-.2849083.0086441-.4315758 0-.3710976 0-.8458748-.103569-1.1911583.0863495-.0517349.0258713-.1035728.0604248-.1467743.0949326-4.453804-1.691803-8.3207207-4.574707-11.2210159-8.2603989.1726952-.1208496.3539238-.258934.4575005-.4402161.0777588-.1380844.0691185-.2244263.1122131-.3797913.0690155-.258934.1986122-.4056549.1899719-.6905136-.0086365-.2502975-.1036797-.4660797-.1467743-.7077942-.0345573-.2244263-.0517311-.7509384.1554146-.9062958.1293907-.1035767.4315796-.0604324.5868874-.0949402.1639481-.0431442.3280029-.1381302.4747772-.2244263.3883781-.2330704.3710976-.4660873.2244301-.8545151-.0777588-.1985626-.0863991-.3970718-.1382408-.5955811-.0689087-.2503433-.2416039-.431572-.3797379-.6387253-.2071495-.3107758-.2417068-.6301346-.3451767-.9840088-.0345612-.1381378-.0777588-.35392-.1899757-.4661407-.0517349-.0517807-.138134-.0862885-.1985092-.1380768-.2071457-.181282-.2675209-.4833641-.3971214-.7250748-.1293869-.2502975-.2588844-.491951-.4487534-.6991539-.2675209-.2761612-.5178719-.5523796-.768219-.8545151-.1553078-.1898689-.3624573-.3280029-.5093384-.5092316-.1293869-.1640015-.1639481-.3625641-.2760582-.5179253-.1295967-.1725883-.2503471-.2502937-.3367462-.4747238-.1812286-.4747238-.5178738-.9925957-.5696068-1.5191612-.0518398-.4920044-.0086403-1.0271568 0-1.5191612.0086403-.3020821.0345592-.630085.1034679-.9321709.0431995-.1985588.1209583-.4057083.2244282-.5783501.0259209-.0345078.1382408-.1985092.1468811-.258934.0344543-.1985092-.0518417-.414299.0085335-.6300888.0603752-.1640015.1813354-.2502937.3020821-.371151.1898689-.1985588.4488602-.4143486.6128082-.6387253.1468811-.1985626.1726952-.4402161.276268-.6560059.138134-.2503471.3710976-.3539238.6128082-.4833641.1985092-.1208534.3367462-.1640015.5611763-.1467743.3365364.0259209.5523262-.1294403.8113136-.3452301.1639481-.138134.2934456-.2762184.3970184-.4402199.0604782-.0949326.0949326-.2330666.1725883-.3193626.1640549-.1985092.4315796-.4057083.6992073-.4229355.2417068-.0086403.4747772.0086403.7164841-.0259209.1985092-.0258675.3883781-.0776558.5868874-.1035728.2849083-.0345078.5782471 0 .8717957-.0086403.276268 0 .5092316-.0345078.7767563.0517845.6819229.2589912 1.2258224.7164345 1.9420967.8804359.3798447.0862961.7769661.043148 1.1567039.1122131.1725883.0259209.3020821.0259209.4747772-.0172768.2588844-.0776558.517765-.1985092.7767563-.043148.1123199.0604248.1985092.181282.3021889.2502937.1207466.0777092.2502403.1122169.3624573.1899223.1812286.1208534.3452835.3107224.4834175.4920044.1985092.2762184.4142952.5351524.6214447.7940903.1208534.1726418.2071495.4142952.353817.5697098.1554146.1640015.4315796.1812286.6129112.3279495.2071495.1726418.2416039.4747772.5351524.5437927.1898689.0517883.353817.0604286.5437927.1467743.1726952.0604286.3971214.0776558.5092316.233017.2071495.2848549.2157898.6560059.4920578.9149437.3797379.3452797.9148903.8027802.7853966 1.3810768-.1121101.4747238-.5092316.8631554-.6387291 1.3292389-.0603714.1899223-.077652.3539238-.0345573.5351524.0345573.1122169.1036797.2071495.1295967.3280029.0258179.181282-.0172768.3797913.0344582.5610733.0517311.1640015.1726913.3280029.2588806.4833641.1468811.2589378.2676277.5265121.4057655.78545.1554108.2934952.3971214.5092812.7336578.586937.2417107.0517883.3883781-.1380806.6387291-.0517883.1554108.0517883.4142952.1899223.4834175.3625641.0431976.1380806.0086365.5955811.0259171.6645927.0344543.2417107.0861893.5610695.2071495.7768593.1812286.3193665.5092316.4920044.8372345.6300888.250351.1035767.5523262.1640015.768116.3452835.2330704.1985092.276268.4574432.3971214.7164307.1554146.3193665.5178719.388382.7941437.5783005.1985054.1467209.3365364.3107224.6041641.3538742.3539238.0431442.8199539.0690613 1.182518.0172729.250351-.0345001.4746742-.1985016.7250214-.2417068.2676277-.0603714.5783501-.1553574.6560059-.4574432.0432014-.181282.0604782-.5783005-.0086403-.7509384-.0603752-.1899261-.3106155-.2244339-.4661369-.3193665-.2329636-.1381302-.4229393-.258934-.6904602-.3193588-.1208534-.0259247-.2416039 0-.3625641-.0517883-.2761612-.1035767-.5696068-.4574966-.7940331-.6560059-.2244301-.1985626-.3280029-.371151-.3366432-.6732864-.0172806-.2071495-.0517349-.5351524.0690117-.7163811.3712044 0 .7164879-.0086403 1.0703049.0862923.3539238.0862961.690567.1467209 1.044384.1553612.3194695.0086403.7164879-.0345078.9322739-.3193626.2244301-.3193626 0-.8372879.3797379-1.0703011.3194695.4056549.5956306.7854462.828701 1.2429428.2071495.3970184.3625641.7595825.8200607.8890228.2071495.0517883 1.2428932.1553612 1.1737709-.3107224-.0172768-.1640015-.353817-.3107224-.4402161-.4229393-.2675247-.3107224-.4574966-.7077942-.517765-1.1048622-.060482-.3452301-.198616-.3452301-.4575005-.5437927-.1898651-.1467209-.276268-.371151-.4661369-.5265121-.2330666-.1812286-.3970146-.3797913-.5179749-.6473656-.1034698-.2244301-.0344543-.673233-.2071495-.8372345-.1293907-.1208534-.4488564-.0777092-.6128082-.0777092-.2071457-.0345039-.3797379.0259209-.5178719.1726418-.1813316.1726418-.3798409.3107262-.5956306.414299-.1553078.1726418-.0861893.4315758-.0861893.6387253.0086403.2330704.0517349.4488602-.0691185.6473656-.1812286.2848587-.8285942.5783539-1.1480637.5179253-.2933388-.043148-.2846985-.2934952-.3970184-.509285-.1034698-.1640015-.2157898-.3193626-.3365364-.4747238-.1640549-.2416573-.388485-.371151-.6732864-.371151-.1294937.0777092-.1640549.1898689-.0950394.3193626 0 .043148 0 .0690689-.0086403.1122169-.0517349.1553612-.5782471.4402161-.6041679.4488564-.2330666.0776558-.4834175.1725883-.5436859-.1122131-.0086403-.0863495.0085335-.1985626.0085335-.2848587.0086403-.3538704.0776558-.6042175.3625641-.8200073.3020821-.2330132.5005913-.3538704.5351524-.768219.0258141-.3538704.0171738-.6991539.138134-1.0530243.0345612-.1208534.0948296-.258934.1207504-.3884315.0431976-.3193626.0604782-.6473656.0604782-.9753685 0-.2244263.0862961-.7163811-.1553078-.8545151-.0777588-.0086403-.1468811-.0258675-.2244301-.0345078-.1123199 0-.1640549.0517883-.1554146.1467209-.1122131.1467247-.0690155.2502975-.2848015.3193665-.1640549.0604248-.6300888.1553612-.7854996.0259171-.0776558-.0604248-.0603752-.1812782-.0603752-.2675743v-.5869904c0-.1725922.077549-.5005951-.0172806-.6732368-.2330704-.3711472-.8114204 0-1.0444908-.2848549-.1554146-.1812286-.0430946-.4920044-.1898689-.6991539-.1208534-.1726418-.3366432-.5006447-.5869904-.4660835-.0776558 0-.1466675.0949364-.2071495.1122131-.1207466.043148-.3192558.0258675-.4142952 0-.0776558-.0172768-.1553116-.0604248-.2244301-.094986-.1553078-.0517883-.2934418-.043148-.4574966-.043148-.3019791 0-.6128082-.0172272-.9235306 0-.3107224 0-.5869904.138134-.8976097.1553612-.4834175.0086403-.4920578-.2416534-.6992073-.5955772-.1725883-.276165-.4488564-.4315796-.6128044-.6991539-.2071495-.3452301-.414299-.7077408-.5956306-1.0789452-.1208572-.258934-.3107262-.5523758-.3539238-.8372345-.0776558-.397068.5006981-.2417068.7337646-.3452835.2588844-.1208.491951-.4229355.7421951-.5265121.2330704-.077652.5093384-.0862923.7510452-.0862923.2157898-.0086403.6300888-.1122131.828598.0258675.0862923.0604248.0777588.1553612.1208534.2330666.1122131.2244301.2761612.3884315.3625641.6214485.077652.2330666.1725883.4402161.2417068.6732864.0689087.1985092.2071495.3625107.414299.4574432.2675209.1122131.5696068-.0345078.8199539-.1640015.1553078-.0862923.4402161-.258934.5437927-.4142952.1035728-.155365.0603752-.2848587.077652-.4488602.0172806-.1898689.0777626-.2416534.1639519-.3883781.1295967-.2330666.276268-.7768593.6560059-.6732864.1898689.0604286.3971214.3193665.5697098.4229393.2157898.138134.3712044.2934952.5783539.4574966.1553078.1122131.3193626.2934456.4920578.371151.1898651.0862961.5609665.0604286.7594719.0345078.3108292-.0345078.5697136-.2071495.8372383-.0086403.2071457.1726418.3453865.2934952.6042709.3712044.1467743.0431442.3193626.077652.4746704.0949326.2589874.0345078.2330704.0258675.3453903-.138134.1466675-.2243767.215786-.3452301.4918442-.4056587.2589912-.0604248.4747772.0172806.6732864.1553612-.1121063.2330704-.2417068.4660873-.3883781.6818733-.0691185.1467743-.0604782.2675781.0432014.371151.0862961.2330704.2761612.4488602.353817.6992073.0691185.1639481.0777588.2761612.0777588.4488029-.0086403.2762184.0603752.3797913.2417107.552433.1985092.1985092.3797379.3625107.630085.4747238.2934456.1208572.491951-.0172768.7336617-.1640015.3539238-.2330132.5092316-.6560059.9753685-.6387253.3193626.0172806.8631554.1294937 1.1307831-.0862961.2157898-.1726379.138031-.4833641.1725883-.725071.0259209-.2244301.0517349-.3884315.0517349-.6042213.0086403-.4574432.388485-.586937.7682228-.7077904.5697098-.1812286 1.2342529-.3970184 1.3465729-1.0616646-.5006981-.1553612-1.2084389-.0776558-1.6832161.1640015-.3452835.181282-.6300888.5696602-.9235306.8200073-.1554146.1726418-.3452835.2934418-.5610733.3625107-.1554108.0604286-.3020821.1294937-.4574966.2071495-.2243233.1553612-.4056549.4143486-.7077408.4402161-.1725883.0172806-.3883781.0086403-.5524292 0-.9753723-.0345078-.2157898-.9753685-.1726952-1.4760132.0172806-.3107224-.0344543-.4660835-.3192596-.5092316-.1985092-.0259209-.6560059-.1122131-.6732864-.4057121-.0086403-.2330132.3020859-.3538704.4488602-.4747238.2588806-.2416573.4574966-.5610199.7335548-.7768059.4661369-.3797913 1.182621-.2330704 1.7522278-.2330704.3625641.0086403.6992073-.0777054 1.0530243-.0777054.4574966.0086365.9149971-.0085907 1.3724937 0 .0949326-.0085907.1898689 0 .2849083.0172768.1121101.0777092.2416039.138134.3797379.181282.1898689.0604286.3883781.0345078.5868874.0345078.2417068 0 .4920578-.0086403.7251282.043148.2589874.0604286.2589874.2157898.2244263.4574966-.0259247.1553612-.0604782.3193626-.0864029.4747238.0345612.1380844.1123199.2330704.2417068.3020859.2157898.215786.2762756.4661369.4402237.7077904.0518341.1035767.1381302.155365.2503433.1726418.1553116.1122169.3020859.2330704.4402237.3625107.1812286.1640015.319252.3366432.5782394.3625641.4315796.0345078.8717957-.0086403 1.3033752-.0086403.1639481 0 .4056549.0517883.5610733-.0086403.1122131-.0345078.1899719-.1208534.2330704-.2330666.1208496-.1122169.2588806-.2071495.3970184-.3020859.3452759-.3884277-.0171814-1.0444336.3884811-1.4155846.3278961.2244263.0259171.630085 0 .8804321-.0172806.155365.0086365.371151.0172806.5351524.0172806.2416573.1898651.414299.3365326.5869408.1381378.1726418.4574966.4833641.7164917.3366432.1985092-.1208534.2330627-.5351524.3107224-.7250748.103569-.233017.2157898-.4142952.3798447-.6128044.3451767-.4143524.7681122-.7682228 1.0270996-1.2515869.1293869-.2503471.0862961-.5610695.2157898-.8027267.0690155-.138134.1639481-.1985626.2071457-.3539238.0776596-.2934418 0-.7423019 0-1.0530243-.0086365-.1553612.0086441-.2934952.0432053-.4402161.0775452-.2934952.1639481-.6473656.3019714-.923584.3798447.0777092.6042786.4229393.966835.4920044.2417145.043148.5265121-.0086403.7681198 0 .0950394 0 .250351.0345078.3367462-.0259171.1466675-.1122169.2244263-.4920044.2416077-.6559563.0172729-.2676277-.0085373-.5524292-.0085373-.811367 0-.2330666-.0172806-.4661369-.0086441-.690567.0171814-.215786.0775528-.3883743.1985092-.5610161.112114-.1467743.2848053-.2157898.3365402-.4057121.0691223-.2675743.0345612-.6991539.0172806-.9839554-.0172806-.1726418-.0603714-.3366432-.2157898-.4488602-.1035767-.0863457-.2848053-.1035728-.3797379-.2071457-.1639481-.1640015-.1036758-.4315796-.0950394-.6473656 0-.2244301-.0086365-.4315796-.0086365-.6646461 3.2282951 4.3502813 5.1358344 9.7449994 5.1358344 15.5712934z"/><path d="m74.4027557 38.4013138c-.1204376-.041729-.2269592-.1342316-.3473969-.1620483-.0926132-.0185471-.1945038.0092697-.2872314-.0231819-.1204376-.041729-.1574173-.1204376-.2269669-.2176895-.1342316-.1807098-.3613052-.2872353-.3613052-.523468-.0045166-.1018906-.0277023-.2500305-.0092697-.3473969.0231857-.1111603.1250687-.1713219.1528931-.2778473-.0833435-.1621628-.551178-.0741844-.6947937-.0231819-.14814.0510025-.2594147.1204338-.4261017.0879784-.2130508-.0462494-.3983994-.2685738-.5419006-.4214668-.0741806-.0879784-.1297073-.2408676-.2315979-.3011436-.1621628-.0926132-.370575-.1018867-.5373764-.1945038-.2130508-.115799-.4261017-.2501411-.5604477-.4539223-.0833435-.115799-.1528931-.2408676-.2455063-.3566666-.1297073-.1620522-.3195801-.226963-.4817429-.3520317-.0926132-.07407-.166687-.1714363-.254776-.250145-.1898727-.166687-.3982849-.1574135-.6206055-.2594147-.1389847-.0601616-.2408752-.1388664-.3613052-.2315979-.1436234-.1110497-.2826004-.1759605-.4539261-.2408676-.2640533-.1017761-.5002823-.208416-.7272415-.375103-.0972519-.0695457-.1528931-.115799-.250145-.1482544-.2084122-.0601616-.3427582-.2037773-.5233536-.3103027-.1389847-.0834579-.2594147-.1528893-.389122-.250145-.1065292-.0879784-.1991425-.1157951-.2547836-.2408676-.0369797-.0787086-.0555267-.2547798-.1388702-.2917595-.0695419-.0324554-.1482468.0092735-.2270737-.0278168-.14814-.0741844-.2268448-.1853485-.3195724-.3150539-.0833435-.115799-.1527786-.1295948-.2732162-.1898689-.1297073-.0602741-.2455063-.1482544-.3659363-.2223244-.2037811-.115799-.2130508-.2963943-.268692-.5141964-.0185471-.0787067-.0370941-.1574135-.0555267-.2361202-2.8717766-1.079277-5.9799042-1.6721802-9.2268982-1.6721802-1.4636536 0-2.8949661.1204357-4.2938194.3520317-.0045242.0092735-.0137978.0185471-.0230675.0278187-.0927315.0879803-.176075.134346-.1992569.2685757-.0185471.1204357.0185471.2501431.0092735.3705788-.0092735.1018887-.0508881.2779617-.1436157.3381233-.0694351.0417271-.2223244.0417271-.3056679.0741825-.1111641.0416145-.2037811.1203213-.2917595.1945057-.0880928.0694332-.1992531.1018887-.2640533.1945057-.0649109.0927296-.0741806.2085266-.0879784.3195763-.0231819.1389809-.060276.2223244-.1528893.3243256-.1250725.1388683-.092617.3056679-.0324554.481739.0649109.1759605.1853447.3426476.3011436.4862633.0787048.102005.0694351.0927315.1018867.1899834.0324554.0787086-.0139084.0416145.0694351.0972519.1621628.1065254.3705788.0139122.5281067.1436195.0694313.0555229.1157951.1295929.1945038.1759567.0694351.041729.134346.0508881.2037773.092617.1482544.0833435.2130508.3242149.3056679.4631958.0927315.1482544.0463638.2640495.0695457.4307365.0370941.2918739.2778511.3473969.5511742.3705788.1250725.0139084.2918739-.0324554.4123077.0092735.0508881.0139084.1527748.1297073.166687.1389809.0602722.0508881.1991425.1111603.2315979.1852303.0185432.0324554 0 .102005 0 .1297112-.0092735.106636.0046349.3242111-.092617.4076691-.0324554.0278168-.1575279.0601616-.1898689.07407-.1111641.0510025-.3659439.115799-.430851.2176857-.0833435.115799.0092697.2594185.0695457.3613052.092617.1621628.1620483.2547798.3613052.2918739.0787048.0185432.1805954.032341.2593002-.0046387.0788231-.041729.1204376-.1297073.2038918-.1621628.07407-.0324554.166687-.0369797.2455063-.0510025.07407-.0137939.1435051-.0230675.1991425-.0787048.0462532-.0370903.0694351-.1111641.115799-.1436195.0879784-.0694313.5789909-.1203194.6207199-.0185432.0508881.106636.0045242.3706894-.0649109.4586716-.0879784.1065254-.1666832.1157951-.1714363.2639389-.0092697.2733231.1205482.3983955.217804.6346283-.3057823.250145-.639267.1805954-.9959373.1898689-.115799.0046387-.2640533.0278206-.3566666.0973663-.1065254.0787048-.0879822.1713219-.0369797.2732124.07407.1575279.1898689.3473969.2963943.481739.0602722.0787086.1297073.1621628.2269592.1898689.1759605.0510025.4215813.0185471.6021767.0139084.2362328-.0046349.463192-.0647964.6994286-.0416145.1621628.0184326.4168282.115799.5511742-.0231819.0556374-.0556374.0694313-.1575279.1297073-.208416.0647964-.0556374.1575241-.0509987.2362328-.0509987.1574135.0046349.2176857-.0046387.3334846-.1111641.1945076-.1667976.4631958-.0741806.6855202-.1621628.0788193-.0278168.1343422-.07407.2176857-.1018867.1111641-.0369797.2223244-.0324554.3381233-.0324554.1760712 0 .3566704.0370903.5188332-.0462532.0601616-.0324554.0972519-.07407.166687-.0880928.0788193-.0184326.1714363.0047493.254776.0047493.1065254-.0047493.1946182-.0231819.2965088-.0463638.1713219-.0463638.3565559-.0556374.5001717-.1575279.1621628-.115799.1297112-.3288498.1250725-.51408-.0046349-.0788193-.0046349-.1436195-.0278168-.2176895-.0277061-.0879784-.092617-.1528893-.1110497-.2362328.4261017-.0556374.8661118.0184326 1.2968521-.0324554.2872353-.0370903.690155-.3473969.5281029-.6623344-.0556374-.0973663-.1389809-.208416-.2408676-.2594185-.1204338-.0555229-.2872353-.0139084-.4169426-.0139084-.1527786.0046387-.3705788.041729-.5094452-.0416145-.1899834-.1250725-.2733269-.3752136-.5281067-.4076691-.166687-.0231819-.3381233-.07407-.4910126-.1621628-.0879784-.0508881-.1620483-.1297073-.2175751-.2130508-.0649109-.0972557-.0788193-.1250725-.0324554-.2223244.0648003-.1297073.2547798-.2037811.3798523-.2594185.115799-.0508881.1852341-.0555229.3103027-.0601578.1111641 0 .2315979.0231819.3381233-.0231857.0879784-.0370903.092617-.0694313.1574135-.1343422.1575279-.1574135.6160851-.0879784.8198624-.0787086.1853447.0046387.3798523.0370941.5604477.0185471.0649109-.0092735.1436157-.0463638.2085266-.041729.115799.0092735.1991425.1111641.2778511.176075.0880928.07407.1389809.115799.254776.0972519.1250725-.0231819.2455101-.0787086.3798523-.0510025.1482544.0370941.1805954.1946182.2455063.3056679.0694351.115799.1574135.1853447.250145.2733269.1852303.1667976.2593002.2872314.2639389.5420113-.2362366.1295967-.6437912.1759605-.7920456.3982849-.0787048.115799-.1111603.3242149-.092617.4585571.041729.3566704.5187187.3891258.805954.3798523.1482544 0 .3473969-.041729.4910126 0 .134346.0416145.1759605.166687.2594185.2639389.1110458.1298218.2176857.1807098.379734.1899796-.1898651.3797379-.7040634.7133369-1.1348.6855202-.2547798-.0185471-.4956512.0278168-.7365189-.1018906-.1295967-.0695457-.2408714-.1389809-.3288498-.2594147-.0508881-.0694351-.0648003-.092617-.1574135-.1018906-.0741844-.0092697-.3104172-.0231819-.3891258.0092735-.0555229.0231819-.1018867.0879822-.1482544.1204376-.1111603.07407-.2686882.0879784-.3334846.2223206-.0647964.1297112-.07407.3242149-.0787086.4678307-.0092697.3103065.1759605.4075584.4446487.4446487.1852341.0278206.3613052.0972557.5465393.1065254.0927277.0092735.1899796-.0046349.2825966-.0046349.2223244 0 .4863777-.0369797.7040634 0 .1204376.0231819.2130508.092617.3334885.1297073.14814.0508881.2871208.0463638.4492836.0508881.1620483.0047493.2640533.0232964.4214668.0834579.115799.0463638.2037773.0601578.3288498.0601578.5697174-.0137939 1.1395493-.0045204 1.7092743-.0045204.2223206 0 .4492798.0137939.671608 0 .0647964-.0047493.1898651-.0510025.2455063-.0047493.0555191.0556374.0833435.2270737.12043.296505.046257.092617.0740738.1389809.0694351.2408714-.0046387.0879784-.0139084.1713219.0046387.2594147.0185471.115799.0833435.2223244.0879822.3426476.0092697.1992531-.0091629.2131653-.1435089.3659401-.0927277.1020012-.254776.1297073-.3752136.2085266-.115799.0740738-.1852341.1388702-.3288498.1527786-.1111603.0092735-.2177963.0046387-.3288498 0-.250145-.0046349-.5095596.0324554-.759697.0185471-.134346-.0046387-.2917633-.041729-.416832-.0879822-.1482544-.0509987-.2640533-.0647964-.4123077-.0695457-.1945038-.0092735-.3427582-.0601616-.5094452-.1435051-.1621628-.0788193-.3473969-.1621628-.5281029-.1760712-.1204376-.0046349-.1713257-.0370903-.2733269-.1065254-.0462532-.032341-.1017761-.0647964-.14814-.1065254-.0231819-.0231819-.0879822-.115799-.1250725-.134346-.1621628-.0694313-.3010292.0741844-.3983955.1853485-.1527786.1713219-.2963943.3427582-.4585571.5094452-.07407.0741806-.1295967.1389809-.2362366.1621628-.0972519.0185432-.2639389.0092735-.3658257-.0046387-.1389809-.0278168-.2408714-.1389809-.3613052-.2176857-.1436195-.0972519-.2547798-.1482544-.4262161-.1482544h-.7920418c-.134346 0-.2732124 0-.4075584-.0046349-.0463638 0-.1297073-.0185471-.1714363 0-.1250725.0417252-.2176857.2872314-.2501411.3983955-.1065254.3798485.1621628.7595863.4262123 1.0050926.0462532.041729.0972557.1018906.1620522.1297112.0834541.0370903.1899834.0278168.2686882.07407.1852341.1111603.1714363.3613052.4030342.4030304.2963943.0555267.7920418.0184326.9355469.3613052.0278206.0648003.0231819.1481438.0510025.2176895.0370903.1065254.0972519.166687.166687.2547798.0973625.1250687.0834541.2685738.180706.4029198.1574135.2223244.4075584.389122.597538.5836296.1297112.1343422.2546692.2223244.4353752.2686882.3520355.092617.7688637.0370903 1.1255302.0416145.2408714 0 .4631958-.0462532.7087021-.0462532h3.154377c.134346 0 .2269592.0231819.3288498-.0649109.1250763-.1111603.2037811-.3010292.2408752-.4585571.0185394-.0926132.0324554-.1991386.0231781-.2963943-.0139084-.1343422-.0740662-.2176857-.134346-.3334846-.1018906-.2037773-.0417252-.4863777-.0463638-.7133369 0-.1807098 0-.2269592.0973663-.3844872.032341-.0416145.0462494-.0787086.0787048-.1204338.1018906-.1204376.2594223-.1482544.384491-.2408714.1388702-.1018906.1295929-.2130508.1250687-.3705788-.0047455-.166687-.0047455-.333374-.0047455-.5048065 0-.0834579-.0184326-.1852341-.0045242-.268692.032341-.1898689.1713181-.2686882.1388702-.4771004-.0046387-.0508881-.046257-.2963943-.115799-.3613052-.0323486-.0323448-.166687-.0508881-.1945114-.0648003-.1343384-.0602722-.3195724-.2084122-.3288498-.3659401-.0092697-.1435051.1204376-.3705788.1389847-.5233536.0091553-.0973663.0046387-.1991425.0046387-.2965088 0-.1435051.0045166-.2963943 0-.4446487-.0046387-.3381233-.3752213-.3798485-.6021805-.5604477-.0833435-.0647964-.2223206-.1946182-.2501373-.3056679-.0278244-.1250687.12043-.2594147.2130508-.3335991.1343384-.1065254.2408676-.1018867.3983917-.0972519.1250763.0046387.2917633-.0416145.4029236.0231819.3288498.1853485.1991425.7087021.1991425 1.0097313 0 .1250725-.0416183.3381233.0047455.4586716.0416183.1017761.1852341.1945076.2593079.2732124.1018829.1065254.1714325.1621628.3288498.1807098.115799.0184326.2501373.0230675.370575.0137939.1575241-.0092697.2733231-.0694313.2733231-.2361183-.004631-.1621628-.0788193-.3289642-.2130508-.4169426-.1528854-.1065254-.2455063-.1991425-.3334885-.3659401-.0834503-.1527786-.0509949-.3195801-.0509949-.4909019 0-.0834541-.0463638-.296505.0370865-.3566666.0647964-.041729.3242188-.0047493.3936462-.0047493.1389847.0047493.3381271.0185432.4631958.0973625.0879822.0555267.115799.1620522.1945038.208416.1899872.1250725.4679489.0647964.6809998.0556374.2732086-.0092735.4307404.1435051.6206055.3288498.1111603.1065254.2085266.1945076.2594147.3426476.1018906.2825966.2826004.4956474.5002899.6995392.1991425.1898689.2917557.4353752.4817352.6345177.134346 0 .1759644.0463638.3103027.041729.2315979-.0046387.268692.0278168.3798523.2269592.0508881.0972519.1204376.1852341.1991425.259304.0324554.0463638.0647964.0973663.0926208.1436157.1528854.0834579.3520279-.1805954.4169388-.2871208.0833435-.1250725.0972519-.2269592.1018906-.3752136 0-.0833435-.0510025-.2733269-.0231857-.3381233.1018906-.2501411.5929031-.2269592.7966843-.2176895.1018906 0 .3149414.0555267.3659363-.0602722-.0695424-.1249586-.1018834-.1759611-.2362294-.2223249z"/><path d="m28.8429356 52.5797348c.1621628.092617.273325.0601616.3798504-.1111641.0833435-.1389809.1436176-.2779617.2408695-.4076691.2130527-.2917557.458559-.3288498.8013172-.3288498.07407 0 .1621628-.0185432.2362347.0092735.1018887.0324554.1436157.1204376.2594147.1389809.3056679.0601616.606699.0601616.9078426.0139084.2547798-.0417252.3843727-.2501411.5326271-.4493942.1899834-.259304.3334885-.5742455.4076691-.8892975.0462532-.1898689.0370941-.3844872.0323448-.5743561-.0045242-.2455063.0649109-.3520317.1389809-.5697212.0417252-.1389809.1111603-.2871208.1204338-.4261017.0092735-.1946182-.0462532-.3983955.0510025-.5743561.0601578-.1065254.1527748-.1852341.2037773-.2965088.0787048-.1527748.1760712-.3242111.2362328-.481739.0185471-.0555229.0185471-.1203232.041729-.1759605.0462494-.1111603.1111603-.1898689.124958-.3149376.0140228-.1065254-.0230713-.2223244-.0137978-.3289642.0137978-.1342316.0972557-.2546654.1111641-.3890114.0139084-.0972519-.0139084-.1991425-.0046387-.296505.0370941-.4075584.226963-.8336601.3659439-1.2088737.0694313-.1852341.1435013-.3057823.2871208-.4446487.1297073-.1250725.3011436-.250145.389122-.4123077.092617-.1713219.0972557-.3890114.1713257-.5743561.0741806-.1805954.1991386-.2963943.3334846-.4353752.1250725-.1343422.2130508-.2733231.2965088-.4400101.0926132-.1852341.2269592-.3057823.3752136-.4539223.1295929-.1250725.2963943-.2501411.3659401-.4168282.0508881-.1112747.0508881-.2408714.0879822-.3566704.0369759-.1205482.0508881-.2270737.0694313-.347393.0278206-.2223244.115799-.3937607.2176895-.5882683.0788193-.1482544.0649109-.3613052.1714363-.481739.1250687-.1482544.3334846-.2779617.4863739-.3937607.1759605-.1297073.3242149-.2872353.4816284-.4353752.115799-.1111603.2224388-.2037773.3104172-.3381233.1065254-.1667976.2269592-.3010292.3427582-.4585571.092617-.115799.115799-.3011436.2408714-.389122.1297073-.092617.3797379-.0231819.4492836-.1759605.0139084-.0324554 0-.0741844.0092735-.1065254.0185471-.0602722.0647964-.1205482.0879784-.1853447.092617-.2547798.0370941-.5326271.115799-.7920456.0324554-.1204338.0879784-.2640495.1574135-.3659401.0788193-.1065254.2363472-.1898689.2826004-.3195763.0185432-.0647964.0046349-.1713219.0139084-.2408714.0139084-.0879784.041729-.1528893.0649109-.2408676.032341-.1389809.0462494-.2362366.1342316-.3566704.0602722-.092617.1250687-.1805954.1853447-.2733231.0833435-.1250725.166687-.2408714.2223244-.3797379.0647964-.1482544.1436157-.3243294.1436157-.4910164 0-.0879784-.0324554-.1852303.0092735-.2686882.0601616-.1295929.240757-.1898689.3381233-.2871208.1250725-.1204338.2268486-.2408676.3611908-.3520317.1528893-.1250725.2686882-.2733231.3752136-.430851-6.9895249 4.1271324-11.8947907 11.413166-12.7517452 19.8942756z"/></g><path d="m79.1943665 64.9997559c-3.8598022 9.6259537-13.286644 16.4257355-24.2970657 16.4257355-14.4626122 0-26.1845455-11.7218094-26.1845455-26.1844254 0-5.8703995 1.9252148-11.2856026 5.1875477-15.6480713-1.232811 3.0347862-1.9062309 6.3445816-1.9062309 9.8155861 0 14.4531784 11.7219315 26.1844826 26.1750526 26.1844826 8.6206321 0 16.2644156-4.1633454 21.0252418-10.5933075z" fill="#344d5b" opacity=".15"/><path d="m97.2295074 49.5616341-8.5-20.6099873-2.1501465-5.2000122-5.6398926-2.3499756h-.0100098l-17.5900917-7.3200073-3.9299316-1.6300049-4.1599121-1.7299805-.3400879-.1500244-6.3399658 2.5100098-.0200195.0100098-20.6600342 8.1599731-.0100098.0100098-3.5899658 1.4199829-1.0699463 2.4800415-.1000977.2399902-1.8598633 4.2799683v.0100098l-8.5800772 19.869997-.0100098.0100098-2.4399414 5.6600342 2.0599365 5.2199707 1.4000244 3.5400391 6.9799795 17.6599083.0100098.0100098 1.6499023 4.1900635 2.5200195 1.0899658.2000732.0800781 3.9100342 1.6899414 19.5599365 8.4499512 6.3599854 2.75 4.5-1.7800293 21.6001015-8.5299072 4.5200195-1.7900391 1.079834-2.5.1000977-.2199707 1.5200195-3.5200195 9.1298828-21.1300011 2.2401123-5.1899414zm-10.5300293 30.7800254-1.4399414 3.3299561-1.1601562 2.6900635-.0100098.0098877-4.539917 1.7900391-20.3299599 8.0400391-2.9500732 1.1600342-1.3599854.539917-1.3800049-.5999756-4.539917-1.9599609-19.0500488-8.2200928-3.4799805-1.5098877-2.6900635-1.1600342-.0098877-.0100098-1.5900879-4.0400391-7.999999-20.2499962-1.4000244-3.539917-.5299072-1.3499756.5998535-1.3901367 1.6800537-3.8898926 8.5200186-19.7100239 1.4899902-3.460022 1.1600342-2.6900024.0100098-.0099487 3.1899414-1.25 20.1999512-7.9900513 4.4400635-1.75 1.3599854-.539978 1.3800049.5700073 2.7800293 1.1599731 20.9500771 8.7200317 3.6499023 1.5199585 1.5.6200562.5100098 1.2399902 1.4599608 3.5299683 8.2800293 20.08008 1.5900879 3.8498535.5599365 1.3601074-.5999756 1.3800049-1.4699707 3.4100342z" fill="#3a556a"/><g fill="#fcd462"><circle cx="85.122" cy="24.877" r="5.449"/><circle cx="24.877" cy="85.122" r="5.449"/><ellipse cx="97.6" cy="55" rx="5.449" ry="5.449" transform="matrix(.707 -.707 .707 .707 -10.305 85.122)"/><ellipse cx="12.4" cy="55" rx="5.449" ry="5.449" transform="matrix(.707 -.707 .707 .707 -35.259 24.877)"/><circle cx="84.076" cy="85.122" r="5.449"/><circle cx="23.831" cy="24.877" r="5.449"/><ellipse cx="53.954" cy="97.6" rx="5.449" ry="5.449" transform="matrix(.707 -.707 .707 .707 -53.211 66.737)"/><ellipse cx="53.954" cy="12.4" rx="5.449" ry="5.449" transform="matrix(.707 -.707 .707 .707 7.034 41.783)"/></g></svg>