<svg enable-background="new 0 0 110 110" height="512" viewBox="0 0 110 110" width="512" xmlns="http://www.w3.org/2000/svg"><path d="m34.153595 86.1054459v8.8251648c0 1.3355103 9.3332596 2.4181671 20.8463821 2.4181671 11.5131683 0 20.8464279-1.0826569 20.8464279-2.4181671v-8.8251648z" fill="#d5d6db"/><path d="m54.9999771 83.6872253c-11.5131226 0-20.8463821 1.0826645-20.8463821 2.4182205 0 1.3355103 9.3332596 2.4181671 20.8463821 2.4181671 11.5131683 0 20.8464279-1.0826569 20.8464279-2.4181671 0-1.335556-9.3332596-2.4182205-20.8464279-2.4182205z" fill="#ebf0f3"/><path d="m34.153595 75.9275589v8.8251724c0 1.3355103 9.3332596 2.4181671 20.8463821 2.4181671 11.5131683 0 20.8464279-1.0826569 20.8464279-2.4181671v-8.8251724z" fill="#d5d6db"/><path d="m54.9999771 73.509346c-11.5131226 0-20.8463821 1.0826569-20.8463821 2.4182129 0 1.3355103 9.3332596 2.4181747 20.8463821 2.4181747 11.5131683 0 20.8464279-1.0826645 20.8464279-2.4181747 0-1.335556-9.3332596-2.4182129-20.8464279-2.4182129z" fill="#ebf0f3"/><path d="m34.153595 65.7496796v8.8251648c0 1.3355103 9.3332596 2.4181747 20.8463821 2.4181747 11.5131683 0 20.8464279-1.0826645 20.8464279-2.4181747v-8.8251648z" fill="#d5d6db"/><path d="m54.9999771 63.3314629c-11.5131226 0-20.8463821 1.0826607-20.8463821 2.4182167 0 1.3355103 9.3332596 2.4181671 20.8463821 2.4181671 11.5131683 0 20.8464279-1.0826569 20.8464279-2.4181671 0-1.3355561-9.3332596-2.4182167-20.8464279-2.4182167z" fill="#ebf0f3"/><path d="m34.153595 55.5717964v8.8251686c0 1.3355103 9.3332596 2.4181747 20.8463821 2.4181747 11.5131683 0 20.8464279-1.0826645 20.8464279-2.4181747v-8.8251686z" fill="#d5d6db"/><path d="m54.9999771 53.1535835c-11.5131226 0-20.8463821 1.0826607-20.8463821 2.4182129 0 1.3355103 9.3332596 2.4181709 20.8463821 2.4181709 11.5131683 0 20.8464279-1.0826607 20.8464279-2.4181709 0-1.3355522-9.3332596-2.4182129-20.8464279-2.4182129z" fill="#ebf0f3"/><path d="m52.6958885 13.4449587c-1.6833267 2.9375734-2.5081062 6.2931852-2.4303017 9.5697737.0332527 3.3159389 1.0972252 6.345438 2.7257309 9.2562408 1.5948639 2.9438019 3.6598969 5.7968941 5.1451149 9.3864975.7168045 1.7784615 1.2894249 3.686924 1.4872742 5.7705727.2194214 2.066185-.015789 4.3512764-.8721542 6.5005341l-.0582886.1462364c-.6348915 1.5933266-2.4412155 2.3703423-4.0345421 1.7354546-1.5933266-.6348915-2.3702164-2.4412155-1.7353249-4.0345421.0584183-.1467514.1360931-.3014603.2132568-.4338303 1.1981392-2.0213814 1.2082825-5.0731544.3675804-8.0884705-.8001289-3.0016365-2.4522552-6.0952682-3.7900848-9.4521027-.6622353-1.6883316-1.2658005-3.4569111-1.5821533-5.3190861-.3350983-1.8544064-.3873558-3.7337208-.198494-5.5698318.3679695-3.6731853 1.735199-7.1811333 3.8870201-10.0504665.1744843-.232708.5047035-.279891.7373466-.1053448.2151833.1613865.2718048.4557858.1411018.6832294z" fill="#44c4a1"/><path d="m56.6263237 35.6248703c-2.4298019-1.997818-4.6869812-15.786005 13.2883263-16.4773617 0 0-1.0370407 2.3045254 0 6.6831264 1.037033 4.3785992-5.7206879 16.0164567-13.2883263 9.7942353z" fill="#44c4a1"/><path d="m54.9962196 39.4393654c-.052021-1.4294586 1.0012665-12.112793 12.1360054-18.4325123 0 0-8.2971344 3.4607983-10.5059013 19.5610371z" fill="#3ea69b"/><path d="m52.4512024 46.2950134c1.0002289-2.6367912-3.3867836-14.3692513-17.6790848-6.8985901 0 0 1.833519 1.3308258 2.9775238 5.1992836 1.1440087 3.8684578 11.5863304 9.9116211 14.701561 1.6993065z" fill="#44c4a1"/><path d="m55.4188423 48.5363235c-.5963936-1.1352539-6.1755562-8.9773178-17.6536865-8.933033 0 0 7.9968224-1.0042076 16.8883018 10.5372505z" fill="#3ea69b"/></svg>