<svg enable-background="new 0 0 110 110" height="512" viewBox="0 0 110 110" width="512" xmlns="http://www.w3.org/2000/svg"><path d="m27.237043 38.751061h52.85915v2.984331h-52.85915z" fill="#474c5b"/><path d="m81.2330093 39.368885h-55.132782c-1.0421963 0-1.8870621-.8448677-1.8870621-1.8870621v-15.2943267c0-1.0421963.8448658-1.8870621 1.8870621-1.8870621h55.132782c1.0421906 0 1.8870621.8448658 1.8870621 1.8870621v15.2943268c0 1.0421943-.8448715 1.887062-1.8870621 1.887062z" fill="#4d5c7d"/><path d="m72.8230438 25.6843357c-2.2921524 0-4.1503525 1.8581333-4.1503525 4.1502895 0 2.2922249 1.8582001 4.1503563 4.1503525 4.1503563 2.29216 0 4.1503601-1.8581314 4.1503601-4.1503563 0-2.2921562-1.8582-4.1502895-4.1503601-4.1502895z" fill="#474c5b"/><g fill="#2f4859"><path d="m27.681608 23.769554h.749037v2.476355h-.749037z"/><path d="m29.65634 23.769554h.749037v2.476355h-.749037z"/><path d="m31.631073 23.769554h.749037v2.476355h-.749037z"/><path d="m33.605808 23.769554h.749037v2.476355h-.749037z"/><path d="m35.58054 23.769554h.749037v2.476355h-.749037z"/><path d="m37.555271 23.769554h.749037v2.476355h-.749037z"/><path d="m39.530006 23.769554h.749037v2.476355h-.749037z"/><path d="m41.504738 23.769554h.749037v2.476355h-.749037z"/><path d="m43.479473 23.769554h.749037v2.476355h-.749037z"/><path d="m45.454205 23.769554h.749037v2.476355h-.749037z"/><path d="m47.42894 23.769554h.749037v2.476355h-.749037z"/><path d="m27.681608 26.987505h.749037v2.476355h-.749037z"/><path d="m29.65634 26.987505h.749037v2.476355h-.749037z"/><path d="m31.631073 26.987505h.749037v2.476355h-.749037z"/><path d="m33.605808 26.987505h.749037v2.476355h-.749037z"/><path d="m35.58054 26.987505h.749037v2.476355h-.749037z"/><path d="m37.555271 26.987505h.749037v2.476355h-.749037z"/><path d="m39.530006 26.987505h.749037v2.476355h-.749037z"/><path d="m41.504738 26.987505h.749037v2.476355h-.749037z"/><path d="m43.479473 26.987505h.749037v2.476355h-.749037z"/><path d="m45.454205 26.987505h.749037v2.476355h-.749037z"/><path d="m47.42894 26.987505h.749037v2.476355h-.749037z"/><path d="m27.681608 30.205458h.749037v2.476355h-.749037z"/><path d="m29.65634 30.205458h.749037v2.476355h-.749037z"/><path d="m31.631073 30.205458h.749037v2.476355h-.749037z"/><path d="m33.605808 30.205458h.749037v2.476355h-.749037z"/><path d="m35.58054 30.205458h.749037v2.476355h-.749037z"/><path d="m37.555271 30.205458h.749037v2.476355h-.749037z"/><path d="m39.530006 30.205458h.749037v2.476355h-.749037z"/><path d="m41.504738 30.205458h.749037v2.476355h-.749037z"/><path d="m43.479473 30.205458h.749037v2.476355h-.749037z"/><path d="m45.454205 30.205458h.749037v2.476355h-.749037z"/><path d="m47.42894 30.205458h.749037v2.476355h-.749037z"/><path d="m27.681608 33.423409h.749037v2.476355h-.749037z"/><path d="m29.65634 33.423409h.749037v2.476355h-.749037z"/><path d="m31.631073 33.423409h.749037v2.476355h-.749037z"/><path d="m33.605808 33.423409h.749037v2.476355h-.749037z"/><path d="m35.58054 33.423409h.749037v2.476355h-.749037z"/><path d="m37.555271 33.423409h.749037v2.476355h-.749037z"/><path d="m39.530006 33.423409h.749037v2.476355h-.749037z"/><path d="m41.504738 33.423409h.749037v2.476355h-.749037z"/><path d="m43.479473 33.423409h.749037v2.476355h-.749037z"/><path d="m45.454205 33.423409h.749037v2.476355h-.749037z"/><path d="m47.42894 33.423409h.749037v2.476355h-.749037z"/></g><path d="m60.2013969 25.6843357c-2.2921562 0-4.1503563 1.8581333-4.1503563 4.1502895 0 2.2922249 1.8582001 4.1503563 4.1503563 4.1503563s4.1503563-1.8581314 4.1503563-4.1503563c0-2.2921562-1.8582-4.1502895-4.1503563-4.1502895z" fill="#474c5b"/><path d="m60.2013969 27.3540344c-1.3700066 0-2.4806442 1.1105957-2.4806442 2.4806042 0 1.3700485 1.1106377 2.4806461 2.4806442 2.4806461s2.4806442-1.1105976 2.4806442-2.4806461c.0000001-1.3700085-1.1106376-2.4806042-2.4806442-2.4806042z" fill="#fcd462"/><path d="m72.8230438 27.3540344c-1.3700027 0-2.4806442 1.1105957-2.4806442 2.4806042 0 1.3700485 1.1106415 2.4806461 2.4806442 2.4806461 1.3700104 0 2.4806442-1.1105976 2.4806442-2.4806461 0-1.3700085-1.1106338-2.4806042-2.4806442-2.4806042z" fill="#27a2db"/><path d="m81.2330093 60.1348534h-55.132782c-1.0421963 0-1.8870621-.8448677-1.8870621-1.8870621v-15.2943268c0-1.0421944.8448658-1.8870621 1.8870621-1.8870621h55.132782c1.0421906 0 1.8870621.8448677 1.8870621 1.8870621v15.2943268c0 1.0421944-.8448715 1.8870621-1.8870621 1.8870621z" fill="#4d5c7d"/><path d="m72.8230438 46.4503021c-2.2921524 0-4.1503525 1.8581352-4.1503525 4.1502914 0 2.2922249 1.8582001 4.1503563 4.1503525 4.1503563 2.29216 0 4.1503601-1.8581314 4.1503601-4.1503563 0-2.2921562-1.8582-4.1502914-4.1503601-4.1502914z" fill="#474c5b"/><g fill="#2f4859"><path d="m27.681608 44.535523h.749037v2.476355h-.749037z"/><path d="m29.65634 44.535523h.749037v2.476355h-.749037z"/><path d="m31.631073 44.535523h.749037v2.476355h-.749037z"/><path d="m33.605808 44.535523h.749037v2.476355h-.749037z"/><path d="m35.58054 44.535523h.749037v2.476355h-.749037z"/><path d="m37.555271 44.535523h.749037v2.476355h-.749037z"/><path d="m39.530006 44.535523h.749037v2.476355h-.749037z"/><path d="m41.504738 44.535523h.749037v2.476355h-.749037z"/><path d="m43.479473 44.535523h.749037v2.476355h-.749037z"/><path d="m45.454205 44.535523h.749037v2.476355h-.749037z"/><path d="m47.42894 44.535523h.749037v2.476355h-.749037z"/><path d="m27.681608 47.753475h.749037v2.476355h-.749037z"/><path d="m29.65634 47.753475h.749037v2.476355h-.749037z"/><path d="m31.631073 47.753475h.749037v2.476355h-.749037z"/><path d="m33.605808 47.753475h.749037v2.476355h-.749037z"/><path d="m35.58054 47.753475h.749037v2.476355h-.749037z"/><path d="m37.555271 47.753475h.749037v2.476355h-.749037z"/><path d="m39.530006 47.753475h.749037v2.476355h-.749037z"/><path d="m41.504738 47.753475h.749037v2.476355h-.749037z"/><path d="m43.479473 47.753475h.749037v2.476355h-.749037z"/><path d="m45.454205 47.753475h.749037v2.476355h-.749037z"/><path d="m47.42894 47.753475h.749037v2.476355h-.749037z"/><path d="m27.681608 50.971424h.749037v2.476355h-.749037z"/><path d="m29.65634 50.971424h.749037v2.476355h-.749037z"/><path d="m31.631073 50.971424h.749037v2.476355h-.749037z"/><path d="m33.605808 50.971424h.749037v2.476355h-.749037z"/><path d="m35.58054 50.971424h.749037v2.476355h-.749037z"/><path d="m37.555271 50.971424h.749037v2.476355h-.749037z"/><path d="m39.530006 50.971424h.749037v2.476355h-.749037z"/><path d="m41.504738 50.971424h.749037v2.476355h-.749037z"/><path d="m43.479473 50.971424h.749037v2.476355h-.749037z"/><path d="m45.454205 50.971424h.749037v2.476355h-.749037z"/><path d="m47.42894 50.971424h.749037v2.476355h-.749037z"/><path d="m27.681608 54.189377h.749037v2.476355h-.749037z"/><path d="m29.65634 54.189377h.749037v2.476355h-.749037z"/><path d="m31.631073 54.189377h.749037v2.476355h-.749037z"/><path d="m33.605808 54.189377h.749037v2.476355h-.749037z"/><path d="m35.58054 54.189377h.749037v2.476355h-.749037z"/><path d="m37.555271 54.189377h.749037v2.476355h-.749037z"/><path d="m39.530006 54.189377h.749037v2.476355h-.749037z"/><path d="m41.504738 54.189377h.749037v2.476355h-.749037z"/><path d="m43.479473 54.189377h.749037v2.476355h-.749037z"/><path d="m45.454205 54.189377h.749037v2.476355h-.749037z"/><path d="m47.42894 54.189377h.749037v2.476355h-.749037z"/></g><path d="m60.2013969 46.4503021c-2.2921562 0-4.1503563 1.8581352-4.1503563 4.1502914 0 2.2922249 1.8582001 4.1503563 4.1503563 4.1503563s4.1503563-1.8581314 4.1503563-4.1503563c0-2.2921562-1.8582-4.1502914-4.1503563-4.1502914z" fill="#474c5b"/><path d="m60.2013969 48.1200027c-1.3700066 0-2.4806442 1.1105957-2.4806442 2.4806023 0 1.3700485 1.1106377 2.4806442 2.4806442 2.4806442s2.4806442-1.1105957 2.4806442-2.4806442c.0000001-1.3700066-1.1106376-2.4806023-2.4806442-2.4806023z" fill="#fcd462"/><path d="m72.8230438 48.1200027c-1.3700027 0-2.4806442 1.1105957-2.4806442 2.4806023 0 1.3700485 1.1106415 2.4806442 2.4806442 2.4806442 1.3700104 0 2.4806442-1.1105957 2.4806442-2.4806442 0-1.3700066-1.1106338-2.4806023-2.4806442-2.4806023z" fill="#27a2db"/><path d="m52.7729263 81.2786865-6.2632446-4.6142578v2.7294922h-6.2051392v-13.7675781h-4v17.7675781h10.2051392v2.4989014z" fill="#ebf0f3"/><path d="m84.411232 46.8755493h-28.0447655c-.7597313 0-1.3755913.6158791-1.3755913 1.3755913v40.072834c0 .7597351.61586 1.3755951 1.3755913 1.3755951h28.0447655c.7597198 0 1.3756027-.61586 1.3756027-1.3755951v-40.072834c0-.7597122-.6158829-1.3755913-1.3756027-1.3755913z" fill="#64798a"/><path d="m56.3665085 88.8685913c-.3003235 0-.5446548-.2442551-.5446548-.5446548v-40.0727578c0-.3004036.2443314-.544651.5446548-.544651h28.044693c.3004074 0 .5447388.2442474.5447388.544651v40.0727577c0 .3003998-.2443314.5446548-.5447388.5446548h-28.044693z" fill="#3a556a"/><circle cx="70.445" cy="62.321" fill="#ebf0f3" r="12.978"/><circle cx="70.445" cy="62.321" fill="#bcbdc1" r="4.917"/><circle cx="70.445" cy="62.321" fill="#d5d6db" r="4.143"/><circle cx="70.445" cy="62.321" fill="#bcbdc1" r="1.653"/><path d="m70.4447021 58.7670898c-.2828598 0-.5121613.2293015-.5121613.512146 0 .2828636.2293015.5121613.5121613.5121613s.5121536-.2292976.5121536-.5121613c.0000001-.2828445-.2292937-.512146-.5121536-.512146z" fill="#bcbdc1"/><path d="m70.4447021 64.8504944c-.2828598 0-.5121613.2293015-.5121613.5121384 0 .2828674.2293015.5121689.5121613.5121689s.5121536-.2293015.5121536-.5121689c.0000001-.282837-.2292937-.5121384-.5121536-.5121384z" fill="#bcbdc1"/><path d="m73.9985504 62.3209496c0-.2828636-.2292938-.5121613-.5121384-.5121613-.2828674 0-.5121689.2292976-.5121689.5121613 0 .282856.2293015.5121536.5121689.5121536.2828446 0 .5121384-.2292977.5121384-.5121536z" fill="#bcbdc1"/><path d="m67.9151535 62.3209496c0-.2828636-.2293015-.5121613-.512146-.5121613-.2828598 0-.5121613.2292976-.5121613.5121613 0 .282856.2293015.5121536.5121613.5121536.2828446 0 .512146-.2292977.512146-.5121536z" fill="#bcbdc1"/><path d="m72.9576569 59.8079948c-.2000122-.200016-.524292-.200016-.7242966-.0000153-.2000122.200016-.2000122.5242958 0 .7243118.2000122.2000046.524292.2000046.7243042-.0000114.2000046-.1999969.2000046-.5242767-.0000076-.7242851z" fill="#bcbdc1"/><path d="m68.656044 64.1096115c-.2000198-.200016-.524292-.200016-.7242966-.0000153-.2000122.2000122-.2000122.524292 0 .7243042s.5242844.2000122.7243042-.0000076c.199997-.1999969.199997-.5242767-.0000076-.7242813z" fill="#bcbdc1"/><path d="m72.9576492 64.8339005c.2000198-.2000122.2000198-.524292.0000153-.7242889-.2000122-.200016-.524292-.200016-.7243118 0-.2000046.2000046-.2000046.5242844.0000076.7242966.2000046.2000045.5242844.2000045.7242889-.0000077z" fill="#bcbdc1"/><path d="m68.6560364 60.5322914c.2000122-.200016.2000122-.5242958.0000153-.7242966-.2000198-.200016-.524292-.200016-.7243118 0-.2000046.2000084-.2000046.5242882.0000076.7243042.2000045.199997.5242767.199997.7242889-.0000076z" fill="#bcbdc1"/><path d="m69.9198303 80.3294144h-3.1534729c-.1191864 0-.2348175-.0405731-.3278809-.1150284l-2.3113785-1.8490982c-.1140594-.0912476-.1849327-.2258911-.1955948-.3715515l-.1142311-1.5612106c-.0082588-.1128769-.0527954-.2200699-.1269646-.3055954l-.2735558-.3153763c-.1165428-.1343765-.1571159-.3186417-.1077614-.4895325l.2359543-.8170013c.0678368-.2349548-.0355835-.4856567-.249382-.6044159l-2.2046814-1.2248459c-.2487946-.1382065-.5624275-.0529633-.7070084.1921997l-.6893576 1.1688919c-.0943718.1600342-.2663193.2582474-.4521065.2582474-.1721497 0-.3333893.0844269-.4314117.2259521l-.4759445.6869202c-.1445007.2085648-.1191025.4906311.0603142.6700668l.5172234.5172424c.0966454.0966492.1517868.2271729.1536903.3638382l.0375328 2.7028809c.004055.2926941-.2320786.5321579-.5248146.5321579h-.1401978c-.289875 0-.5248756.2350006-.5248756.5248947v2.2712784c0 .1413193.0569839.2766724.1580734.3754272l3.8554993 3.7668839c.0980644.0957947.2297249.149437.3668213.149437h3.2975159c.243576 0 .4551392-.167572.5109253-.4046631l.3842697-1.6331482c.0557861-.2370834.2673492-.4046555.5109177-.4046555h2.9218826c.2898712 0 .5248718-.234993.5248718-.5248718v-3.2604752c-.0000001-.2898712-.2350007-.5248489-.5248719-.5248489z" fill="#bcbdc1"/><path d="m76.502533 67.5849762-.035759-.0178757c-.1196671-.059845-.2635727-.0420303-.3650513.0451813l-4.9986191 4.2956924c-.0398712.0342484-.0710449.0774994-.0909424.1261444l-.2527924.6179276c-.0510712.1248474-.172554.206398-.3074417.206398h-.5504379c-.0551758 0-.1094971.0137558-.1580276.0400009l-6.3284721 3.4229507c-.0587921.0317917-.1066055.0805817-.1372185.1399765l-1.0962868 2.1266785c-.0630074.1222534-.0441818.2707062.04739.3733368l1.8715744 2.0980148c.0510025.0571671.1202011.0949631.1958694.1069489l2.2822495.3618546c.1100693.0174637.2215652-.0214615.2968826-.1036224l1.1574783-1.2626953c.0452347-.0493622.0745087-.1112137.0839767-.1775131l.0777664-.5443268c.0184021-.1288223.1102905-.2350006.2351151-.2717209l.3812027-.1120987c.0700912-.0206299.131424-.0637817.1745148-.1227722l4.6612625-6.3818665c.0575638-.0788193.0775528-.1789322.0546799-.2737885l-.0589447-.2444916c-.0177994-.0738068-.0097733-.1514587.0227203-.2200699l.2007065-.4237289c.0677872-.1430969.2271576-.2184601.3807831-.1800385.1355515.0338745.277832-.0206985.3559647-.136528l2.0266953-3.0051346c.1121292-.1662216.0525054-.3931732-.1268387-.4828338z" fill="#d5d6db"/><path d="m79.6890106 78.768425h-4.8846054c-.2789001 0-.5440979.1209641-.7269287.3315582l-2.4862595 2.8639145c-.1520081.1751175-.2357101.3992004-.2357101.631073v.8299255c0 .5392151.4428711.9732666.981987.9624329l6.004097-.1207047c.3649521-.0073242.6943588-.2204514.8506241-.5503311l1.3667679-2.8853989c.0610123-.1288223.092659-.2695694.092659-.4121017v-.6877365c-.0000001-.5316467-.4309922-.9626312-.9626313-.9626312z" fill="#bcbdc1"/><circle cx="69.469" cy="83.785" fill="#64798a" r=".344"/><circle cx="69.469" cy="81.234" fill="#64798a" r=".344"/><circle cx="64.663" cy="79.165" fill="#64798a" r=".68"/><circle cx="59.044" cy="81.718" fill="#64798a" r=".344"/><circle cx="63.835" cy="86.182" fill="#64798a" r=".344"/><circle cx="61.8" cy="74.188" fill="#64798a" r=".344"/><circle cx="74.932" cy="79.846" fill="#64798a" r=".344"/><circle cx="72.394" cy="82.975" fill="#64798a" r=".344"/><circle cx="79.768" cy="79.999" fill="#64798a" r=".344"/><circle cx="78.237" cy="83.216" fill="#64798a" r=".344"/><path d="m83.5122452 48.4934731c-.3308105 0-.5989914.2681694-.5989914.5990028 0 .3307915.2681808.5989799.5989914.5989799s.5989838-.2681885.5989838-.5989799c-.0000001-.3308334-.2681733-.5990028-.5989838-.5990028z" fill="#64798a"/><path d="m57.4665222 48.4934731c-.3308105 0-.5989914.2681694-.5989914.5990028 0 .3307915.2681808.5989799.5989914.5989799.3308144 0 .5989838-.2681885.5989838-.5989799 0-.3308334-.2681694-.5990028-.5989838-.5990028z" fill="#64798a"/><path d="m83.5122452 86.4830856c-.3308105 0-.5989914.2681656-.5989914.598999 0 .3307877.2681808.5989761.5989914.5989761s.5989838-.2681885.5989838-.5989761c-.0000001-.3308334-.2681733-.598999-.5989838-.598999z" fill="#64798a"/><path d="m57.4665222 86.4830856c-.3308105 0-.5989914.2681656-.5989914.598999 0 .3307877.2681808.5989761.5989914.5989761.3308144 0 .5989838-.2681885.5989838-.5989761 0-.3308334-.2681694-.598999-.5989838-.598999z" fill="#64798a"/></svg>