<svg enable-background="new 0 0 110 110" height="512" viewBox="0 0 110 110" width="512" xmlns="http://www.w3.org/2000/svg"><path d="m57.1252899 86.3528442v-14.5130157h-4.2506027v14.5130157h-22.8887024v4.2506867h50.0280075v-4.2506867z" fill="#ebf0f3"/><path d="m32.644634 42.549175h44.710709v32.295593h-44.710709z" fill="#fcd462"/><path d="m85.5676422 42.6782379-30.2960205-23.1897583c-.1602783-.1226807-.3829956-.1226807-.5432739 0l-30.2960186 23.1897583c-.3392944.2597046-.1556396.8018188.2716675.8018188h60.59198c.4273052.0000001.611021-.5421142.2716655-.8018188z" fill="#e56353"/><path d="m54.9999886 52.3487854c-4.9114456 0-8.8929329 3.9814911-8.8929329 8.892849v13.6031227h17.7858658v-13.6031227c-.0000001-4.9113579-3.9814873-8.892849-8.8929329-8.892849z" fill="#f7be56"/><path d="m48.1070709 74.8447647v-13.6029282c0-3.8007812 3.0917969-6.8930664 6.8925781-6.8930664s6.8935547 3.0922852 6.8935547 6.8930664v13.6029282z" fill="#e2a440"/></svg>