<svg enable-background="new 0 0 110 110" height="512" viewBox="0 0 110 110" width="512" xmlns="http://www.w3.org/2000/svg"><path d="m28.48266 60.800911h53.034679v20.538946h-53.034679z" fill="#2f4859"/><path d="m82.4165726 44.4267006h-54.8331452c-.948143 0-1.716795.7686539-1.716795 1.7167969v13.7422485c0 .948143.768652 1.7167969 1.716795 1.7167969h54.8331451c.948143 0 1.7167969-.7686539 1.7167969-1.7167969v-13.7422485c0-.948143-.7686538-1.7167969-1.7167968-1.7167969z" fill="#64798a"/><g fill="#3a556a"><path d="m28.363617 46.990688h3.087202v3.087202h-3.087202z"/><path d="m33.397244 46.990688h3.087202v3.087202h-3.087202z"/><path d="m38.430866 46.990688h3.087202v3.087202h-3.087202z"/><path d="m43.464493 46.990688h3.087202v3.087202h-3.087202z"/><path d="m48.498119 46.990688h3.087202v3.087202h-3.087202z"/><path d="m53.531746 46.990688h3.087202v3.087202h-3.087202z"/><path d="m28.363617 51.47102h3.087202v3.087202h-3.087202z"/><path d="m33.397244 51.47102h3.087202v3.087202h-3.087202z"/><path d="m38.430866 51.47102h3.087202v3.087202h-3.087202z"/><path d="m43.464493 51.47102h3.087202v3.087202h-3.087202z"/><path d="m48.498119 51.47102h3.087202v3.087202h-3.087202z"/><path d="m53.531746 51.47102h3.087202v3.087202h-3.087202z"/><path d="m28.363617 55.951351h3.087202v3.087202h-3.087202z"/><path d="m33.397244 55.951351h3.087202v3.087202h-3.087202z"/><path d="m38.430866 55.951351h3.087202v3.087202h-3.087202z"/><path d="m43.464493 55.951351h3.087202v3.087202h-3.087202z"/><path d="m48.498119 55.951351h3.087202v3.087202h-3.087202z"/><path d="m53.531746 55.951351h3.087202v3.087202h-3.087202z"/><path d="m65.1806717 50.0212936c-1.6532059 0-2.9933662 1.3401184-2.9933662 2.9933281 0 1.6531639 1.3401604 2.9933243 2.9933662 2.9933243 1.6531677 0 2.9933319-1.3401604 2.9933319-2.9933243 0-1.6532097-1.3401642-2.9933281-2.9933319-2.9933281z"/><path d="m74.766243 50.0212936c-1.6532059 0-2.9933701 1.3401184-2.9933701 2.9933281 0 1.6531639 1.3401642 2.9933243 2.9933701 2.9933243 1.6531677 0 2.9933243-1.3401604 2.9933243-2.9933243 0-1.6532097-1.3401566-2.9933281-2.9933243-2.9933281z"/></g><path d="m82.4165726 62.5642967h-54.8331452c-.948143 0-1.716795.7686539-1.716795 1.7167931v13.7422562c0 .948143.768652 1.7167892 1.716795 1.7167892h54.8331451c.948143 0 1.7167969-.7686462 1.7167969-1.7167892v-13.7422562c0-.9481392-.7686538-1.7167931-1.7167968-1.7167931z" fill="#64798a"/><g fill="#3a556a"><path d="m28.363617 65.128281h3.087202v3.087202h-3.087202z"/><path d="m33.397244 65.128281h3.087202v3.087202h-3.087202z"/><path d="m38.430866 65.128281h3.087202v3.087202h-3.087202z"/><path d="m43.464493 65.128281h3.087202v3.087202h-3.087202z"/><path d="m48.498119 65.128281h3.087202v3.087202h-3.087202z"/><path d="m53.531746 65.128281h3.087202v3.087202h-3.087202z"/><path d="m28.363617 69.60862h3.087202v3.087202h-3.087202z"/><path d="m33.397244 69.60862h3.087202v3.087202h-3.087202z"/><path d="m38.430866 69.60862h3.087202v3.087202h-3.087202z"/><path d="m43.464493 69.60862h3.087202v3.087202h-3.087202z"/><path d="m48.498119 69.60862h3.087202v3.087202h-3.087202z"/><path d="m53.531746 69.60862h3.087202v3.087202h-3.087202z"/><path d="m28.363617 74.088951h3.087202v3.087202h-3.087202z"/><path d="m33.397244 74.088951h3.087202v3.087202h-3.087202z"/><path d="m38.430866 74.088951h3.087202v3.087202h-3.087202z"/><path d="m43.464493 74.088951h3.087202v3.087202h-3.087202z"/><path d="m48.498119 74.088951h3.087202v3.087202h-3.087202z"/><path d="m53.531746 74.088951h3.087202v3.087202h-3.087202z"/><path d="m65.1806717 68.1588898c-1.6532059 0-2.9933662 1.3401184-2.9933662 2.9933319 0 1.6531601 1.3401604 2.9933243 2.9933662 2.9933243 1.6531677 0 2.9933319-1.3401642 2.9933319-2.9933243 0-1.6532135-1.3401642-2.9933319-2.9933319-2.9933319z"/><path d="m74.766243 68.1588898c-1.6532059 0-2.9933701 1.3401184-2.9933701 2.9933319 0 1.6531601 1.3401642 2.9933243 2.9933701 2.9933243 1.6531677 0 2.9933243-1.3401642 2.9933243-2.9933243 0-1.6532135-1.3401566-2.9933319-2.9933243-2.9933319z"/></g><path d="m82.4165726 80.7018967h-54.8331452c-.948143 0-1.716795.7686539-1.716795 1.7167969v13.7422485c0 .948143.768652 1.7167969 1.716795 1.7167969h54.8331451c.948143 0 1.7167969-.7686539 1.7167969-1.7167969v-13.7422486c0-.948143-.7686538-1.7167968-1.7167968-1.7167968z" fill="#64798a"/><path d="m28.363617 83.265884h3.087202v3.087202h-3.087202z" fill="#3a556a"/><path d="m33.397244 83.265884h3.087202v3.087202h-3.087202z" fill="#3a556a"/><path d="m38.430866 83.265884h3.087202v3.087202h-3.087202z" fill="#3a556a"/><path d="m43.464493 83.265884h3.087202v3.087202h-3.087202z" fill="#3a556a"/><path d="m48.498119 83.265884h3.087202v3.087202h-3.087202z" fill="#3a556a"/><path d="m53.531746 83.265884h3.087202v3.087202h-3.087202z" fill="#3a556a"/><path d="m28.363617 87.746216h3.087202v3.087202h-3.087202z" fill="#3a556a"/><path d="m33.397244 87.746216h3.087202v3.087202h-3.087202z" fill="#3a556a"/><path d="m38.430866 87.746216h3.087202v3.087202h-3.087202z" fill="#3a556a"/><path d="m43.464493 87.746216h3.087202v3.087202h-3.087202z" fill="#3a556a"/><path d="m48.498119 87.746216h3.087202v3.087202h-3.087202z" fill="#3a556a"/><path d="m53.531746 87.746216h3.087202v3.087202h-3.087202z" fill="#3a556a"/><path d="m28.363617 92.226547h3.087202v3.087202h-3.087202z" fill="#3a556a"/><path d="m33.397244 92.226547h3.087202v3.087202h-3.087202z" fill="#3a556a"/><path d="m38.430866 92.226547h3.087202v3.087202h-3.087202z" fill="#3a556a"/><path d="m43.464493 92.226547h3.087202v3.087202h-3.087202z" fill="#3a556a"/><path d="m48.498119 92.226547h3.087202v3.087202h-3.087202z" fill="#3a556a"/><path d="m53.531746 92.226547h3.087202v3.087202h-3.087202z" fill="#3a556a"/><path d="m65.1806717 86.2964859c-1.6532059 0-2.9933662 1.3401184-2.9933662 2.9933319 0 1.6531601 1.3401604 2.9933243 2.9933662 2.9933243 1.6531677 0 2.9933319-1.3401642 2.9933319-2.9933243 0-1.6532135-1.3401642-2.9933319-2.9933319-2.9933319z" fill="#3a556a"/><path d="m74.766243 86.2964859c-1.6532059 0-2.9933701 1.3401184-2.9933701 2.9933319 0 1.6531601 1.3401642 2.9933243 2.9933701 2.9933243 1.6531677 0 2.9933243-1.3401642 2.9933243-2.9933243 0-1.6532135-1.3401566-2.9933319-2.9933243-2.9933319z" fill="#3a556a"/><path d="m60.5032959 12.1222639c-10.353466 0-18.7466125 7.2131319-18.7466125 16.1109695 0 5.337389 3.0221138 10.0662937 7.6738014 12.998003-1.3292084 3.1291199-3.6958084 6.167244-7.9124146 7.0519333 0 0 7.5630951 1.1003799 14.9704742-4.3132858 1.2938881.2427139 2.6361389.3742714 4.0147514.3742714 10.3534622 0 18.7466125-7.2130852 18.7466125-16.1109219s-8.3931502-16.1109695-18.7466124-16.1109695z" fill="#ebf0f3"/><path d="m60.5020256 35.6846962c-.5600662 0-1.0140686.4540329-1.0140686 1.0140991s.4540024 1.0140686 1.0140686 1.0140686 1.0140991-.4540024 1.0140991-1.0140686-.4540329-1.0140991-1.0140991-1.0140991z" fill="#64798a"/><path d="m58.4475708 32.7049217v3.5934868c0 .2846718.2307777.5154533.5154228.5154533h3.0780945c.2846756 0 .5154228-.2307816.5154228-.5154533v-3.5934868z" fill="#3a556a"/><path d="m59.6901398 18.3078518c-3.2200508.3588238-5.8327637 2.9589291-6.2067299 6.1772518-.2721214 2.3420086.6037865 4.4839497 2.1360207 5.9465332.8892326.8487778 1.4974861 1.9368744 1.7046814 3.1249619.0734406.4210129.4271164.7338066.8545113.7338066h4.6393127c.4321442 0 .7872391-.3194542.8572884-.7458611.1885681-1.147728.7329102-2.2171726 1.5999069-3.0105438 1.409584-1.2899551 2.2947769-3.1417351 2.2947769-5.2036343-.0000001-4.1709118-3.6128159-7.4980087-7.8797684-7.0225143z" fill="#fcd462"/><path d="m67.5724106 25.3326778c0 2.0610065-.8890762 3.9098873-2.2984467 5.2030792-.8638229.7930946-1.4094009 1.8589611-1.5963058 3.0106983-.0706978.4243431-.4293671.7425919-.8587341.7425919h-1.0153656c.4344254 0 .7880402-.3182487.8587685-.7425919.1869049-1.1517372.7324486-2.2176037 1.5962715-3.0106983 1.4144287-1.2931919 2.2984467-3.1420727 2.2984467-5.2030792 0-3.7381496-2.8945236-6.7993813-6.5670013-7.0519581 4.1321562-.2929992 7.5823668 2.9753628 7.5823668 7.0519581z" fill="#f7be56"/><path d="m62.6152458 26.1699009h-.539978c-.4400024 0-.8000488.3600464-.8000488.8000488v.5899658h-1.539978v-.5899658c0-.4400024-.3599854-.8000488-.7999878-.8000488h-.539978c-.4400024 0-.8000488.3600464-.8000488.8000488 0 .4399414.3600464.7999878.8000488.7999878h1.1199951v6.5199566h.2199707v-6.5199566h1.539978v6.5199566h.210022v-6.5199566h1.1300049c.4400024 0 .7999878-.3600464.7999878-.7999878-.0000001-.4400024-.3599854-.8000488-.7999879-.8000488zm-4.2199707 1.3900146c-.3300171 0-.5900269-.2700195-.5900269-.5899658 0-.3200073.2600098-.5900269.5900269-.5900269h.539978c.3200073 0 .5800171.2700195.5800171.5900269v.5899658zm4.2199707 0h-1.1300049v-.5899658c0-.3200073.2700195-.5900269.5900269-.5900269h.539978c.3200073 0 .5900269.2700195.5900269.5900269 0 .3199463-.2700196.5899658-.5900269.5899658z" fill="#64798a"/></svg>