<svg enable-background="new 0 0 110 110" height="512" viewBox="0 0 110 110" width="512" xmlns="http://www.w3.org/2000/svg"><path d="m26.971787 39.469872h56.056427v25.142456h-56.056427z" fill="#2f4859"/><path d="m85.2747116 20.5538998h-60.5494194c-1.3607368 0-2.4638119 1.103075-2.4638119 2.4638119v15.1839103c0 1.3607368 1.103075 2.46381 2.4638119 2.46381h60.5494194c1.360733 0 2.4638062-1.1030731 2.4638062-2.46381v-15.1839104c0-1.3607368-1.1030732-2.4638118-2.4638062-2.4638118z" fill="#3a556a"/><g fill="#2f4859"><path d="m26.14567 24.027821h27.666067v.66934h-27.666067z"/><path d="m26.14567 26.110212h27.666067v.66934h-27.666067z"/><path d="m26.14567 28.192604h27.666067v.66934h-27.666067z"/><path d="m26.14567 30.274998h27.666067v.66934h-27.666067z"/><path d="m26.14567 32.357388h27.666067v.66934h-27.666067z"/><path d="m26.14567 34.439781h27.666067v.66934h-27.666067z"/><path d="m26.14567 36.522175h27.666067v.66934h-27.666067z"/></g><circle cx="65.517" cy="30.61" fill="#d5d6db" r="3.472"/><circle cx="76.919" cy="30.61" fill="#d5d6db" r="3.472"/><path d="m85.2747116 42.2674561h-60.5494194c-1.3607368 0-2.4638119 1.1030769-2.4638119 2.4638138v15.1839104c0 1.3607368 1.103075 2.46381 2.4638119 2.46381h60.5494194c1.360733 0 2.4638062-1.1030731 2.4638062-2.46381v-15.1839105c0-1.3607368-1.1030732-2.4638137-2.4638062-2.4638137z" fill="#3a556a"/><g fill="#2f4859"><path d="m26.14567 45.741379h27.666067v.66934h-27.666067z"/><path d="m26.14567 47.823769h27.666067v.66934h-27.666067z"/><path d="m26.14567 49.906162h27.666067v.66934h-27.666067z"/><path d="m26.14567 51.988556h27.666067v.66934h-27.666067z"/><path d="m26.14567 54.070946h27.666067v.66934h-27.666067z"/><path d="m26.14567 56.153339h27.666067v.66934h-27.666067z"/><path d="m26.14567 58.235729h27.666067v.66934h-27.666067z"/></g><circle cx="65.517" cy="52.323" fill="#d5d6db" r="3.472"/><circle cx="76.919" cy="52.323" fill="#d5d6db" r="3.472"/><path d="m85.2747116 63.9810143h-60.5494194c-1.3607368 0-2.4638119 1.1030769-2.4638119 2.46381v15.1839142c0 1.360733 1.103075 2.4638138 2.4638119 2.4638138h60.5494194c1.360733 0 2.4638062-1.1030807 2.4638062-2.4638138v-15.1839143c0-1.360733-1.1030732-2.4638099-2.4638062-2.4638099z" fill="#3a556a"/><path d="m26.14567 67.454933h27.666067v.66934h-27.666067z" fill="#2f4859"/><path d="m26.14567 69.537331h27.666067v.66934h-27.666067z" fill="#2f4859"/><path d="m26.14567 71.619721h27.666067v.66934h-27.666067z" fill="#2f4859"/><path d="m26.14567 73.70211h27.666067v.66934h-27.666067z" fill="#2f4859"/><path d="m26.14567 75.7845h27.666067v.66934h-27.666067z" fill="#2f4859"/><path d="m26.14567 77.866898h27.666067v.66934h-27.666067z" fill="#2f4859"/><path d="m26.14567 79.949287h27.666067v.66934h-27.666067z" fill="#2f4859"/><circle cx="65.517" cy="74.037" fill="#d5d6db" r="3.472"/><circle cx="76.919" cy="74.037" fill="#d5d6db" r="3.472"/><path d="m37.1415024 67.853508v6.3455582c0 .3195419-.1349258.6242142-.3715668.8389359l-.0973549.0883636c-.2366409.2147217-.3715973.5194244-.3715973.8389359v.6609726c0 .3195419.1349564.6242142.3715973.8389359l.0973244.0883331c.2366409.2147217.3715973.5194244.3715973.8389664v.1911163c0 .3195419-.1349564.6242142-.3715973.8389359l-.4615173.4188004c-.2366409.2147217-.3715973.5194244-.3715973.8389664 0 .3195496.1349564.6242142.3715973.8389359l.4615479.4188385c.2366409.2147217.3715668.5194244.3715668.8389664v.1910858c0 .3195419-.1349258.6242142-.3715668.8389359l-.1635704.1484375c-.2366409.2147217-.3715973.5194244-.3715973.8389664v.5983429c0 .2855606.1078262.560585.3019218.7700348l2.7899132 3.0107498c.3463783.3737946.9414597.3612518 1.27174-.0268402l2.0125084-2.3645477c.1309471-.1538696.2028542-.3493195.2028542-.5513687v-18.3773579z" fill="#d5d6db"/><path d="m40.500469 70.671883h1.019782v14.786844h-1.019782z" fill="#b5b6bc"/><path d="m35.3838387 68.1519318v2.2938385c0 .5558929.4506493 1.006546 1.006546 1.006546h7.174408c.5558929 0 1.0065804-.4506531 1.0065804-1.006546v-2.2938385z" fill="#d5d6db"/><path d="m51.9199982 56.8217087c-.0100098-.2200317-.0299683-.4500122-.0700073-.6699829-.0499878-.4800415-.1399536-.9500122-.2599487-1.4100342-.0500488-.2299805-.1100464-.4500122-.1800537-.6699829-.1499634-.4800415-.3299561-.9500122-.539978-1.4100342-.1099854-.2299805-.2199707-.4499512-.3399658-.6699829-.2600098-.5-.5600586-.9699707-.9000244-1.4199829-.1600342-.2300415-.3400269-.4500122-.5300293-.6699829-.4199829-.5100098-.8999634-.9800415-1.4099731-1.4100342-.2800293-.2399902-.5700073-.460022-.8800049-.6699829-.8200073-.5800171-1.7299805-1.0599976-2.6900024-1.4100342-.9000244-.3399658-1.8499756-.5599976-2.8399658-.6699829-.4300537-.0499878-.8600464-.0700073-1.3000488-.0700073s-.8699951.0200195-1.289978.0700073c-.9899902.1099854-1.9500122.3300171-2.8499756.6699829-.960022.3500366-1.8700562.8300171-2.6900024 1.4100342-.3099976.2099609-.6000366.4299927-.8800049.6699829-.5100098.4299927-.9899902.9000244-1.4100342 1.4100342-.1900024.2199707-.3699951.4399414-.5299683.6699829-.3400269.4500122-.6400146.9199829-.9000244 1.4199829-.1199951.2200317-.2299805.4400024-.3399658.6699829-.210022.460022-.3900146.9299927-.5400391 1.4100342-.0700073.2199707-.1300049.4400024-.1799927.6699829-.1199951.460022-.210022.9299927-.2600098 1.4100342-.039978.2199707-.0599976.4499512-.0700073.6699829-.0199585.2699585-.0299683.539978-.0299683.8200073 0 .1999512 0 .3999634.0299683.5899658 0 .2300415.0100098.4500122.0500488.6700439.1099854 1.2299805.4199829 2.3999634.8999634 3.4799805.2299805.5599976.5100098 1.0899658.8400269 1.5999756.5599976.9100342 1.25 1.7399902 2.039978 2.460022.3900146.3699951.8099976.7000122 1.25 1.0100098.3499756.25.710022.4699707 1.0900269.6699829.3699951.2199707.7699585.4099731 1.1699829.5800171h.0100098c.5599976.2299805 1.1499634.4199829 1.75.5700073.5199585.1300049 1.0599976.2199707 1.5999756.2699585.4100342.0499878.8200073.0700073 1.2399902.0700073.4100342 0 .8300171-.0200195 1.2300415-.0700073.5499878-.0499878 1.0799561-.1399536 1.5999756-.2699585.6099854-.1400146 1.1900024-.3400269 1.7600098-.5700073.4099731-.1700439.7999878-.3600464 1.1799927-.5800171.3800049-.2000122.7399902-.4199829 1.0900269-.6699829.4400024-.3099976.8599854-.6400146 1.25-1.0100098.789978-.7200317 1.4799805-1.5499878 2.039978-2.460022.3200073-.5100098.6099854-1.039978.8399658-1.5999756.4800415-1.0800171.7900391-2.25.9000244-3.4799805.039978-.2200317.0499878-.4400024.0499878-.6700439.0300293-.1900024.0300293-.3900146.0300293-.5899658-.0000003-.2800293-.0100101-.5500488-.0300296-.8200073zm-13.6399536-4.8300171c-.0100098-.0599976-.0100098-.1099854-.0100098-.1699829 0-.5.2099609-.9500122.5499878-1.25.2999878-.2900391.710022-.460022 1.1599731-.460022.4500122 0 .8600464.1699829 1.1600342.460022.3399658.3099976.5499878.75.5499878 1.25 0 .0599976 0 .1099854-.0100098.1699829-.0200195.2399902-.0999756.4700317-.210022.6699829-.2999878.5200195-.8499756.8699951-1.4899902.8699951-.6399536 0-1.1999512-.3499756-1.4899902-.8699951-.1099854-.1999512-.1900024-.4299927-.2099609-.6699829z" fill="#d5d6db"/><path d="m49.3000031 56.8217087c-.0199585-.2300415-.039978-.4500122-.0800171-.6699829-.0799561-.4900513-.1899414-.960022-.3399658-1.4100342-.0700073-.2299805-.1600342-.4500122-.25-.6699829-.2000122-.4899902-.4500122-.9700317-.7299805-1.4100342-.1400146-.2299805-.3000488-.4499512-.460022-.6699829-.3900146-.5200195-.8400269-1-1.3300171-1.4199829-.2799683-.2399902-.5700073-.4700317-.8699951-.6699829-.9799805-.6700439-2.0999756-1.1600342-3.2999878-1.4100342-.6300049-.1400146-1.289978-.210022-1.960022-.210022-.6699829 0-1.3299561.0700073-1.9699707.210022-1.2000122.25-2.3099976.7399902-3.2999878 1.4100342-.3000488.2099609-.5900269.4299927-.8699951.6699829-.4900513.4299927-.9400024.8999634-1.3300171 1.4199829-.1600342.2200317-.3099976.4400024-.460022.6699829-.2799683.4400024-.5299683.9200439-.7299805 1.4100342-.0900269.2199707-.1699829.4400024-.25.6699829-.1500244.4500122-.2600098.9199829-.3400269 1.4100342-.039978.2199707-.0599976.4399414-.0799561.6699829-.0300293.2699585-.0400391.539978-.0400391.8200073 0 .1999512.0100098.3999634.0200195.5899658.0100098.2300415.0299683.4500122.0700073.6700439.1599731 1.2599487.5800171 2.4299927 1.2000122 3.4799805.3399658.5700073.7399902 1.1099854 1.1900024 1.5999756 1 1.0900269 2.25 1.9400024 3.6699829 2.460022 1.0100098.3699951 2.0899658.5700073 3.2199707.5700073s2.210022-.2000122 3.210022-.5700073c1.4199829-.5200195 2.6799927-1.3699951 3.6799927-2.460022.4500122-.4899902.8499756-1.0299683 1.1799927-1.5999756.6199951-1.0499878 1.0400391-2.2200317 1.2000122-3.4799805.039978-.2200317.0599976-.4400024.0700073-.6700439.0100098-.1900024.0200195-.3900146.0200195-.5899658.0000003-.2800293-.0100095-.5500488-.0400387-.8200073zm-11.0199585-4.8300171c-.0100098-.0599976-.0100098-.1099854-.0100098-.1699829 0-.5.2099609-.9500122.5499878-1.25.2999878-.2900391.710022-.460022 1.1599731-.460022.4500122 0 .8600464.1699829 1.1600342.460022.3399658.3099976.5499878.75.5499878 1.25 0 .0599976 0 .1099854-.0100098.1699829-.0200195.2399902-.0999756.4700317-.210022.6699829-.2999878.5200195-.8499756.8699951-1.4899902.8699951-.6399536 0-1.1999512-.3499756-1.4899902-.8699951-.1099854-.1999512-.1900024-.4299927-.2099609-.6699829z" fill="#ebf0f3"/></svg>