<svg enable-background="new 0 0 110 110" height="512" viewBox="0 0 110 110" width="512" xmlns="http://www.w3.org/2000/svg"><path d="m52.362801 69.935906h5.274398v13.993482h-5.274398z" fill="#64798a"/><path d="m53.030918 60.217735h3.938161v46.385353h-3.938161z" fill="#64798a" transform="matrix(0 1 -1 0 138.41 28.41)"/><path d="m84.920929 22.5592041h-59.8418065c-1.21315 0-2.1965675.9834175-2.1965675 2.1965122v38.2456227c0 1.2130928.9834175 2.1965141 2.1965675 2.1965141h59.8418065c1.2130966 0 2.1965179-.9834213 2.1965179-2.1965141v-38.2456227c0-1.2130947-.9834213-2.1965122-2.1965179-2.1965122z" fill="#3a556a"/><path d="m39.081112 13.482292h31.837448v57.113136h-31.837448z" fill="#27a2db" transform="matrix(0 1 -1 0 97.039 -12.961)"/><path d="m19.2330017 65.1978531v1.7634048c0 2.3309937 1.8896255 4.2206192 4.2206192 4.2206192h63.0927582c2.3309937 0 4.2206192-1.8896255 4.2206192-4.2206192v-1.7634048z" fill="#2f4859"/><path d="m58.0315323 66.6759033h-6.0630646l-1.1606979-1.4780502h8.3844604z" fill="#64798a"/><circle cx="54.911" cy="83.095" fill="#d5d6db" r="4.345"/><circle cx="54.911" cy="83.095" fill="#2d93ba" r="2.726"/><path d="m65.6652374 43.7450027v-3.4099731l-2.8999672-.4300537c-.1800537-.6499634-.4400024-1.2799683-.7700195-1.8499756l1.75-2.3499756-2.4100342-2.4100342-2.3499756 1.7399902c-.5800171-.3299561-1.2000122-.5799561-1.8499756-.7600098l-.4299927-2.8999634h-3.4100342l-.4299927 2.8999634c-.6599731.1800537-1.2700195.4300537-1.8499756.7600098l-2.3500366-1.7399902-2.4099731 2.4100342 1.7399902 2.3499756c-.3300171.5700073-.5800171 1.2000122-.7600098 1.8499756l-2.9000244.4300537v3.4099731l2.9000244.4199829c.1799927.6600342.4299927 1.2800293.7600098 1.8599854l-1.7399902 2.3500366 2.4099731 2.4099731 2.3500366-1.75c.5799561.3300171 1.1900024.5900269 1.8499756.7700195l.4299927 2.9000244h3.4100342l.4299927-2.9000244c.6499634-.1799927 1.2699585-.4400024 1.8499756-.7700195l2.3499756 1.75 2.4100342-2.4099731-1.75-2.3500366c.3300171-.5799561.5899658-1.1999512.7700195-1.8599854zm-10.6699867 3.2000123c-2.7000122 0-4.9000244-2.2000122-4.9000244-4.9100342 0-2.7099609 2.2000122-4.8999634 4.9000244-4.8999634 2.710022 0 4.9099731 2.1900024 4.9099731 4.8999634 0 2.7100219-2.1999511 4.9100342-4.9099731 4.9100342z" fill="#ebf0f3"/></svg>