<svg enable-background="new 0 0 110 110" height="512" viewBox="0 0 110 110" width="512" xmlns="http://www.w3.org/2000/svg"><path d="m86.1703568 22.4762611h-62.3407174c-2.8034935 0-5.0762367 2.2727432-5.0762367 5.0763073v54.8948669c0 2.803566 2.2727432 5.0763016 5.0762367 5.0763016h62.3407173c2.8034973 0 5.0762405-2.2727356 5.0762405-5.0763016v-54.8948669c.0000001-2.803564-2.2727431-5.0763073-5.0762404-5.0763073z" fill="#ebf0f3"/><path d="m86.1703568 22.4762611h-62.3407174c-2.8034935 0-5.0762367 2.2727432-5.0762367 5.0763073v8.2532787h72.4931946v-8.2532787c0-2.803564-2.2727432-5.0763073-5.0762405-5.0763073z" fill="#64798a"/><g fill="#ebf0f3"><circle cx="81.878" cy="29.39" r="2.202"/><circle cx="73.665" cy="29.39" r="2.202"/><circle cx="65.452" cy="29.39" r="2.202"/></g><path d="m69.1573639 58.8050003c-4.7300415 0-11.6900063 6.4599609-14.1500282 8.8999634-.3999634.3900146-.6900024.6799927-.8200073.8200073-.4099731.4400024-.4099731 1.1199951 0 1.5599976.1300049.1400146.4200439.4299927.8200073.8300171 2.460022 2.4299927 9.4199867 8.8900146 14.1500282 8.8900146 5.789978 0 10.5-4.710022 10.5-10.5 0-5.7900391-4.710022-10.5-10.5-10.5zm0 18.7600098c-3.5 0-9.6799965-5.3900146-12.5800209-8.2600098 2.9000244-2.8699951 9.0700111-8.25 12.5800209-8.25 4.5499878 0 8.25 3.7000122 8.25 8.25s-3.7000122 8.2600098-8.25 8.2600098z" fill="#e56353"/><path d="m55.8173332 68.524971c-.1300049-.1400146-.4099731-.4199829-.8099976-.8200073-2.4599609-2.4299927-9.4199829-8.8999634-14.1599731-8.8999634-5.7999878 0-10.5100079 4.7099609-10.5100079 10.5 0 5.789978 4.7100201 10.5 10.5100079 10.5 4.7399902 0 11.7000122-6.4700317 14.1599731-8.8900146.4000244-.4099731.6799927-.6900024.8099976-.8300171.4100342-.4400025.4100342-1.1199952 0-1.5599976zm-14.9699707 9.0400391c-4.5599976 0-8.2600098-3.710022-8.2600098-8.2600098s3.7000122-8.25 8.2600098-8.25c3.5 0 9.6699829 5.3800049 12.5700073 8.25-2.9000244 2.8699951-9.0700073 8.2600098-12.5700073 8.2600098z" fill="#e56353"/><path d="m74.277359 70.1449661v-1.6799927l-1.4299927-.2099609c-.0900269-.3200073-.2200317-.6300049-.3800049-.9200439l.8599854-1.1599731-1.1900024-1.1900024-1.1599731.8699951c-.2800293-.1699829-.5900269-.289978-.9100342-.3800049l-.2099609-1.4299927h-1.6900024l-.210022 1.4299927c-.3200073.0900269-.6300049.210022-.9099731.3800049l-1.1600342-.8699951-1.1900024 1.1900024.8599854 1.1599731c-.1599731.2900391-.289978.6000366-.3800049.9200439l-1.4299965.2099609v1.6799927l1.4299965.210022c.0900269.3300171.2200317.6300049.3800049.9199829l-.8599854 1.1600342 1.1900024 1.1900024 1.1600342-.8600464c.2799683.1600342.5899658.2800293.9099731.3699951l.210022 1.4300537h1.6900024l.2099609-1.4300537c.3200073-.0899658.6300049-.2099609.9100342-.3699951l1.1599731.8600464 1.1900024-1.1900024-.8599854-1.1600342c.1599731-.289978.289978-.5899658.3800049-.9199829zm-5.2700195 1.5800171c-1.3300171 0-2.4199829-1.0800171-2.4199829-2.4199829 0-1.3400269 1.0899658-2.4200439 2.4199829-2.4200439 1.3400269 0 2.4199829 1.0800171 2.4199829 2.4200439 0 1.3399658-1.0799561 2.4199829-2.4199829 2.4199829z" fill="#27a2db"/><path d="m46.2473259 70.1449661v-1.6799927l-1.4299927-.2099609c-.0899658-.3200073-.2099609-.6300049-.3800049-.9200439l.8699951-1.1599731-1.1900024-1.1900025-1.1599731.8699951c-.289978-.1699829-.5900269-.289978-.9199829-.3800049l-.210022-1.4299927h-1.6799927l-.210022 1.4299927c-.3299561.0900269-.6300049.210022-.9199829.3800049l-1.1500244-.8699951-1.1999512 1.1900024.8599854 1.1599731c-.1600342.2900391-.2800293.6000366-.3699951.9200439l-1.4299927.2099609v1.6799927l1.4299927.210022c.0899658.3300171.2099609.6300049.3699951.9199829l-.8599854 1.1600342 1.1999512 1.1900024 1.1500244-.8600464c.289978.1600342.5900269.2800293.9199829.3699951l.210022 1.4300537h1.6799927l.210022-1.4300537c.3299561-.0899658.6300049-.2099609.9199829-.3699951l1.1599731.8600464 1.1900024-1.1900024-.8699951-1.1600342c.1700439-.289978.2900391-.5899658.3800049-.9199829zm-5.2600098 1.5800171c-1.3399658 0-2.4199829-1.0800171-2.4199829-2.4199829 0-1.3400269 1.0800171-2.4200439 2.4199829-2.4200439 1.3400269 0 2.4200439 1.0800171 2.4200439 2.4200439.0000001 1.3399658-1.080017 2.4199829-2.4200439 2.4199829z" fill="#44c4a1"/><path d="m29.826279 45.067173h50.347443v6.403579h-50.347443z" fill="#d5d6db"/><path d="m29.826279 45.067173h10.146232v6.403579h-10.146232z" fill="#44c4a1"/></svg>