<svg enable-background="new 0 0 110 110" height="512" viewBox="0 0 110 110" width="512" xmlns="http://www.w3.org/2000/svg"><path d="m33.735931 39.634007h54.355351v25.514771h-54.355351z" fill="#2f4859"/><path d="m89.6464081 21.9301567h-57.4654732c-1.2592983 0-2.2800484 1.0207481-2.2800484 2.2799149v14.4933434c0 1.2591667 1.02075 2.2799797 2.2800484 2.2799797h57.4654732c1.2590332 0 2.2799149-1.020813 2.2799149-2.2799797v-14.4933434c-.0000001-1.2591668-1.0208817-2.2799149-2.2799149-2.2799149z" fill="#3a556a"/><g fill="#2f4859"><path d="m33.2595329 25.6049881v2.2799683h2.2799072v-2.2799683zm1.8999024 1.9099731h-1.5300293v-1.539978h1.5300293z"/><path d="m36.7495232 25.6049881v2.2799683h2.289917v-2.2799683zm1.9099121 1.9099731h-1.5300293v-1.539978h1.5300293z"/><path d="m40.2495232 25.6049881v2.2799683h2.2799072v-2.2799683zm1.9099121 1.9099731h-1.5300293v-1.539978h1.5300293z"/><path d="m43.7495232 25.6049881v2.2799683h2.2799072v-2.2799683zm1.9099121 1.9099731h-1.5400391v-1.539978h1.5400391z"/><path d="m47.2495232 25.6049881v2.2799683h2.2799072v-2.2799683zm1.8999023 1.9099731h-1.5300293v-1.539978h1.5300293z"/><path d="m50.7395134 25.6049881v2.2799683h2.289917v-2.2799683zm1.9099121 1.9099731h-1.5300293v-1.539978h1.5300293z"/><path d="m54.2395134 25.6049881v2.2799683h2.2799072v-2.2799683zm1.9099121 1.9099731h-1.5300293v-1.539978h1.5300293z"/><path d="m57.7395134 25.6049881v2.2799683h2.2799072v-2.2799683zm1.9099121 1.9099731h-1.5400391v-1.539978h1.5400391z"/><path d="m33.2595329 28.7450027v2.2799683h2.2799072v-2.2799683zm1.8999024 1.9099732h-1.5300293v-1.5299683h1.5300293z"/><path d="m36.7495232 28.7450027v2.2799683h2.289917v-2.2799683zm1.9099121 1.9099732h-1.5300293v-1.5299683h1.5300293z"/><path d="m40.2495232 28.7450027v2.2799683h2.2799072v-2.2799683zm1.9099121 1.9099732h-1.5300293v-1.5299683h1.5300293z"/><path d="m43.7495232 28.7450027v2.2799683h2.2799072v-2.2799683zm1.9099121 1.9099732h-1.5400391v-1.5299683h1.5400391z"/><path d="m47.2495232 28.7450027v2.2799683h2.2799072v-2.2799683zm1.8999023 1.9099732h-1.5300293v-1.5299683h1.5300293z"/><path d="m50.7395134 28.7450027v2.2799683h2.289917v-2.2799683zm1.9099121 1.9099732h-1.5300293v-1.5299683h1.5300293z"/><path d="m54.2395134 28.7450027v2.2799683h2.2799072v-2.2799683zm1.9099121 1.9099732h-1.5300293v-1.5299683h1.5300293z"/><path d="m57.7395134 28.7450027v2.2799683h2.2799072v-2.2799683zm1.9099121 1.9099732h-1.5400391v-1.5299683h1.5400391z"/><path d="m33.2595329 31.8849564v2.2800293h2.2799072v-2.2800293zm1.8999024 1.9100341h-1.5300293v-1.5300293h1.5300293z"/><path d="m36.7495232 31.8849564v2.2800293h2.289917v-2.2800293zm1.9099121 1.9100341h-1.5300293v-1.5300293h1.5300293z"/><path d="m40.2495232 31.8849564v2.2800293h2.2799072v-2.2800293zm1.9099121 1.9100341h-1.5300293v-1.5300293h1.5300293z"/><path d="m43.7495232 31.8849564v2.2800293h2.2799072v-2.2800293zm1.9099121 1.9100341h-1.5400391v-1.5300293h1.5400391z"/><path d="m47.2495232 31.8849564v2.2800293h2.2799072v-2.2800293zm1.8999023 1.9100341h-1.5300293v-1.5300293h1.5300293z"/><path d="m50.7395134 31.8849564v2.2800293h2.289917v-2.2800293zm1.9099121 1.9100341h-1.5300293v-1.5300293h1.5300293z"/><path d="m54.2395134 31.8849564v2.2800293h2.2799072v-2.2800293zm1.9099121 1.9100341h-1.5300293v-1.5300293h1.5300293z"/><path d="m57.7395134 31.8849564v2.2800293h2.2799072v-2.2800293zm1.9099121 1.9100341h-1.5400391v-1.5300293h1.5400391z"/><path d="m33.2595329 35.024971v2.2800293h2.2799072v-2.2800293zm1.8999024 1.9100342h-1.5300293v-1.5300293h1.5300293z"/><path d="m36.7495232 35.024971v2.2800293h2.289917v-2.2800293zm1.9099121 1.9100342h-1.5300293v-1.5300293h1.5300293z"/><path d="m40.2495232 35.024971v2.2800293h2.2799072v-2.2800293zm1.9099121 1.9100342h-1.5300293v-1.5300293h1.5300293z"/><path d="m43.7495232 35.024971v2.2800293h2.2799072v-2.2800293zm1.9099121 1.9100342h-1.5400391v-1.5300293h1.5400391z"/><path d="m47.2495232 35.024971v2.2800293h2.2799072v-2.2800293zm1.8999023 1.9100342h-1.5300293v-1.5300293h1.5300293z"/><path d="m50.7395134 35.024971v2.2800293h2.289917v-2.2800293zm1.9099121 1.9100342h-1.5300293v-1.5300293h1.5300293z"/><path d="m54.2395134 35.024971v2.2800293h2.2799072v-2.2800293zm1.9099121 1.9100342h-1.5300293v-1.5300293h1.5300293z"/><path d="m57.7395134 35.024971v2.2800293h2.2799072v-2.2800293zm1.9099121 1.9100342h-1.5400391v-1.5300293h1.5400391z"/></g><path d="m70.7507553 27.3908367c-2.0080948 0-3.6360474 1.6278877-3.6360474 3.6359768s1.6279526 3.6359787 3.6360474 3.6359787c2.0080872 0 3.63591-1.6278877 3.63591-3.6359787s-1.6278228-3.6359768-3.63591-3.6359768z" fill="#ebf0f3"/><path d="m70.7507248 28.8721218c-1.1900024 0-2.1547318.9646912-2.1547318 2.1546917 0 1.1900024.9647293 2.1546936 2.1547318 2.1546936s2.1546555-.9646912 2.1546555-2.1546936c-.0000001-1.1900005-.9646531-2.1546917-2.1546555-2.1546917z" fill="#e56353"/><path d="m81.9299011 27.3908367c-2.0080872 0-3.6360397 1.6278877-3.6360397 3.6359768s1.6279526 3.6359787 3.6360397 3.6359787c2.0080948 0 3.6359177-1.6278877 3.6359177-3.6359787s-1.6278229-3.6359768-3.6359177-3.6359768z" fill="#ebf0f3"/><path d="m81.9298782 28.8721218c-1.1900024 0-2.1547318.9646912-2.1547318 2.1546917 0 1.1900024.9647293 2.1546936 2.1547318 2.1546936s2.1546555-.9646912 2.1546555-2.1546936c0-1.1900005-.964653-2.1546917-2.1546555-2.1546917z" fill="#27a2db"/><path d="m89.6464081 42.6650658h-57.4654732c-1.2592983 0-2.2800484 1.020752-2.2800484 2.2799187v14.4933395c0 1.2591705 1.02075 2.2799835 2.2800484 2.2799835h57.4654732c1.2590332 0 2.2799149-1.020813 2.2799149-2.2799835v-14.4933396c-.0000001-1.2591667-1.0208817-2.2799186-2.2799149-2.2799186z" fill="#3a556a"/><g fill="#2f4859"><path d="m33.2595329 46.3349686v2.2900391h2.2799072v-2.2900391zm1.8999024 1.9100341h-1.5300293v-1.5300293h1.5300293z"/><path d="m36.7495232 46.3349686v2.2900391h2.289917v-2.2900391zm1.9099121 1.9100341h-1.5300293v-1.5300293h1.5300293z"/><path d="m40.2495232 46.3349686v2.2900391h2.2799072v-2.2900391zm1.9099121 1.9100341h-1.5300293v-1.5300293h1.5300293z"/><path d="m43.7495232 46.3349686v2.2900391h2.2799072v-2.2900391zm1.9099121 1.9100341h-1.5400391v-1.5300293h1.5400391z"/><path d="m47.2495232 46.3349686v2.2900391h2.2799072v-2.2900391zm1.8999023 1.9100341h-1.5300293v-1.5300293h1.5300293z"/><path d="m50.7395134 46.3349686v2.2900391h2.289917v-2.2900391zm1.9099121 1.9100341h-1.5300293v-1.5300293h1.5300293z"/><path d="m54.2395134 46.3349686v2.2900391h2.2799072v-2.2900391zm1.9099121 1.9100341h-1.5300293v-1.5300293h1.5300293z"/><path d="m57.7395134 46.3349686v2.2900391h2.2799072v-2.2900391zm1.9099121 1.9100341h-1.5400391v-1.5300293h1.5400391z"/><path d="m33.2595329 49.484993v2.2799683h2.2799072v-2.2799683zm1.8999024 1.8999634h-1.5300293v-1.5299683h1.5300293z"/><path d="m36.7495232 49.484993v2.2799683h2.289917v-2.2799683zm1.9099121 1.8999634h-1.5300293v-1.5299683h1.5300293z"/><path d="m40.2495232 49.484993v2.2799683h2.2799072v-2.2799683zm1.9099121 1.8999634h-1.5300293v-1.5299683h1.5300293z"/><path d="m43.7495232 49.484993v2.2799683h2.2799072v-2.2799683zm1.9099121 1.8999634h-1.5400391v-1.5299683h1.5400391z"/><path d="m47.2495232 49.484993v2.2799683h2.2799072v-2.2799683zm1.8999023 1.8999634h-1.5300293v-1.5299683h1.5300293z"/><path d="m50.7395134 49.484993v2.2799683h2.289917v-2.2799683zm1.9099121 1.8999634h-1.5300293v-1.5299683h1.5300293z"/><path d="m54.2395134 49.484993v2.2799683h2.2799072v-2.2799683zm1.9099121 1.8999634h-1.5300293v-1.5299683h1.5300293z"/><path d="m57.7395134 49.484993v2.2799683h2.2799072v-2.2799683zm1.9099121 1.8999634h-1.5400391v-1.5299683h1.5400391z"/><path d="m33.2595329 52.6250076v2.2799683h2.2799072v-2.2799683zm1.8999024 1.8999634h-1.5300293v-1.5299683h1.5300293z"/><path d="m36.7495232 52.6250076v2.2799683h2.289917v-2.2799683zm1.9099121 1.8999634h-1.5300293v-1.5299683h1.5300293z"/><path d="m40.2495232 52.6250076v2.2799683h2.2799072v-2.2799683zm1.9099121 1.8999634h-1.5300293v-1.5299683h1.5300293z"/><path d="m43.7495232 52.6250076v2.2799683h2.2799072v-2.2799683zm1.9099121 1.8999634h-1.5400391v-1.5299683h1.5400391z"/><path d="m47.2495232 52.6250076v2.2799683h2.2799072v-2.2799683zm1.8999023 1.8999634h-1.5300293v-1.5299683h1.5300293z"/><path d="m50.7395134 52.6250076v2.2799683h2.289917v-2.2799683zm1.9099121 1.8999634h-1.5300293v-1.5299683h1.5300293z"/><path d="m54.2395134 52.6250076v2.2799683h2.2799072v-2.2799683zm1.9099121 1.8999634h-1.5300293v-1.5299683h1.5300293z"/><path d="m57.7395134 52.6250076v2.2799683h2.2799072v-2.2799683zm1.9099121 1.8999634h-1.5400391v-1.5299683h1.5400391z"/><path d="m33.2595329 55.7649612v2.2800293h2.2799072v-2.2800293zm1.8999024 1.9000245h-1.5300293v-1.5300293h1.5300293z"/><path d="m36.7495232 55.7649612v2.2800293h2.289917v-2.2800293zm1.9099121 1.9000245h-1.5300293v-1.5300293h1.5300293z"/><path d="m40.2495232 55.7649612v2.2800293h2.2799072v-2.2800293zm1.9099121 1.9000245h-1.5300293v-1.5300293h1.5300293z"/><path d="m43.7495232 55.7649612v2.2800293h2.2799072v-2.2800293zm1.9099121 1.9000245h-1.5400391v-1.5300293h1.5400391z"/><path d="m47.2495232 55.7649612v2.2800293h2.2799072v-2.2800293zm1.8999023 1.9000245h-1.5300293v-1.5300293h1.5300293z"/><path d="m50.7395134 55.7649612v2.2800293h2.289917v-2.2800293zm1.9099121 1.9000245h-1.5300293v-1.5300293h1.5300293z"/><path d="m54.2395134 55.7649612v2.2800293h2.2799072v-2.2800293zm1.9099121 1.9000245h-1.5300293v-1.5300293h1.5300293z"/><path d="m57.7395134 55.7649612v2.2800293h2.2799072v-2.2800293zm1.9099121 1.9000245h-1.5400391v-1.5300293h1.5400391z"/></g><path d="m70.7507553 48.1257477c-2.0080948 0-3.6360474 1.6278877-3.6360474 3.6359787s1.6279526 3.6359787 3.6360474 3.6359787c2.0080872 0 3.63591-1.6278877 3.63591-3.6359787s-1.6278228-3.6359787-3.63591-3.6359787z" fill="#ebf0f3"/><path d="m70.7507248 49.6070328c-1.1900024 0-2.1547318.9646912-2.1547318 2.1546936s.9647293 2.1546936 2.1547318 2.1546936 2.1546555-.9646912 2.1546555-2.1546936-.9646531-2.1546936-2.1546555-2.1546936z" fill="#e56353"/><path d="m81.9299011 48.1257477c-2.0080872 0-3.6360397 1.6278877-3.6360397 3.6359787s1.6279526 3.6359787 3.6360397 3.6359787c2.0080948 0 3.6359177-1.6278877 3.6359177-3.6359787s-1.6278229-3.6359787-3.6359177-3.6359787z" fill="#ebf0f3"/><path d="m81.9298782 49.6070328c-1.1900024 0-2.1547318.9646912-2.1547318 2.1546936s.9647293 2.1546936 2.1547318 2.1546936 2.1546555-.9646912 2.1546555-2.1546936-.964653-2.1546936-2.1546555-2.1546936z" fill="#27a2db"/><path d="m89.6464081 63.3999786h-57.4654732c-1.2592983 0-2.2800484 1.020752-2.2800484 2.2799149v14.4933472c0 1.2591629 1.02075 2.2799759 2.2800484 2.2799759h57.4654732c1.2590332 0 2.2799149-1.020813 2.2799149-2.2799759v-14.4933472c-.0000001-1.2591629-1.0208817-2.2799149-2.2799149-2.2799149z" fill="#3a556a"/><path d="m33.2595329 67.0749588v2.2800293h2.2799072v-2.2800293zm1.8999024 1.9000244h-1.5300293v-1.5299682h1.5300293z" fill="#2f4859"/><path d="m36.7495232 67.0749588v2.2800293h2.289917v-2.2800293zm1.9099121 1.9000244h-1.5300293v-1.5299682h1.5300293z" fill="#2f4859"/><path d="m40.2495232 67.0749588v2.2800293h2.2799072v-2.2800293zm1.9099121 1.9000244h-1.5300293v-1.5299682h1.5300293z" fill="#2f4859"/><path d="m43.7495232 67.0749588v2.2800293h2.2799072v-2.2800293zm1.9099121 1.9000244h-1.5400391v-1.5299682h1.5400391z" fill="#2f4859"/><path d="m47.2495232 67.0749588v2.2800293h2.2799072v-2.2800293zm1.8999023 1.9000244h-1.5300293v-1.5299682h1.5300293z" fill="#2f4859"/><path d="m50.7395134 67.0749588v2.2800293h2.289917v-2.2800293zm1.9099121 1.9000244h-1.5300293v-1.5299682h1.5300293z" fill="#2f4859"/><path d="m54.2395134 67.0749588v2.2800293h2.2799072v-2.2800293zm1.9099121 1.9000244h-1.5300293v-1.5299682h1.5300293z" fill="#2f4859"/><path d="m57.7395134 67.0749588v2.2800293h2.2799072v-2.2800293zm1.9099121 1.9000244h-1.5400391v-1.5299682h1.5400391z" fill="#2f4859"/><path d="m33.2595329 70.2149734v2.2800293h2.2799072v-2.2800293zm1.8999024 1.9100342h-1.5300293v-1.5300293h1.5300293z" fill="#2f4859"/><path d="m36.7495232 70.2149734v2.2800293h2.289917v-2.2800293zm1.9099121 1.9100342h-1.5300293v-1.5300293h1.5300293z" fill="#2f4859"/><path d="m40.2495232 70.2149734v2.2800293h2.2799072v-2.2800293zm1.9099121 1.9100342h-1.5300293v-1.5300293h1.5300293z" fill="#2f4859"/><path d="m43.7495232 70.2149734v2.2800293h2.2799072v-2.2800293zm1.9099121 1.9100342h-1.5400391v-1.5300293h1.5400391z" fill="#2f4859"/><path d="m47.2495232 70.2149734v2.2800293h2.2799072v-2.2800293zm1.8999023 1.9100342h-1.5300293v-1.5300293h1.5300293z" fill="#2f4859"/><path d="m50.7395134 70.2149734v2.2800293h2.289917v-2.2800293zm1.9099121 1.9100342h-1.5300293v-1.5300293h1.5300293z" fill="#2f4859"/><path d="m54.2395134 70.2149734v2.2800293h2.2799072v-2.2800293zm1.9099121 1.9100342h-1.5300293v-1.5300293h1.5300293z" fill="#2f4859"/><path d="m57.7395134 70.2149734v2.2800293h2.2799072v-2.2800293zm1.9099121 1.9100342h-1.5400391v-1.5300293h1.5400391z" fill="#2f4859"/><path d="m33.2595329 73.3549881v2.2799683h2.2799072v-2.2799683zm1.8999024 1.9099731h-1.5300293v-1.5299682h1.5300293z" fill="#2f4859"/><path d="m36.7495232 73.3549881v2.2799683h2.289917v-2.2799683zm1.9099121 1.9099731h-1.5300293v-1.5299682h1.5300293z" fill="#2f4859"/><path d="m40.2495232 73.3549881v2.2799683h2.2799072v-2.2799683zm1.9099121 1.9099731h-1.5300293v-1.5299682h1.5300293z" fill="#2f4859"/><path d="m43.7495232 73.3549881v2.2799683h2.2799072v-2.2799683zm1.9099121 1.9099731h-1.5400391v-1.5299682h1.5400391z" fill="#2f4859"/><path d="m47.2495232 73.3549881v2.2799683h2.2799072v-2.2799683zm1.8999023 1.9099731h-1.5300293v-1.5299682h1.5300293z" fill="#2f4859"/><path d="m50.7395134 73.3549881v2.2799683h2.289917v-2.2799683zm1.9099121 1.9099731h-1.5300293v-1.5299682h1.5300293z" fill="#2f4859"/><path d="m54.2395134 73.3549881v2.2799683h2.2799072v-2.2799683zm1.9099121 1.9099731h-1.5300293v-1.5299682h1.5300293z" fill="#2f4859"/><path d="m57.7395134 73.3549881v2.2799683h2.2799072v-2.2799683zm1.9099121 1.9099731h-1.5400391v-1.5299682h1.5400391z" fill="#2f4859"/><path d="m33.2595329 76.4950027v2.2799683h2.2799072v-2.2799683zm1.8999024 1.9099732h-1.5300293v-1.5299683h1.5300293z" fill="#2f4859"/><path d="m36.7495232 76.4950027v2.2799683h2.289917v-2.2799683zm1.9099121 1.9099732h-1.5300293v-1.5299683h1.5300293z" fill="#2f4859"/><path d="m40.2495232 76.4950027v2.2799683h2.2799072v-2.2799683zm1.9099121 1.9099732h-1.5300293v-1.5299683h1.5300293z" fill="#2f4859"/><path d="m43.7495232 76.4950027v2.2799683h2.2799072v-2.2799683zm1.9099121 1.9099732h-1.5400391v-1.5299683h1.5400391z" fill="#2f4859"/><path d="m47.2495232 76.4950027v2.2799683h2.2799072v-2.2799683zm1.8999023 1.9099732h-1.5300293v-1.5299683h1.5300293z" fill="#2f4859"/><path d="m50.7395134 76.4950027v2.2799683h2.289917v-2.2799683zm1.9099121 1.9099732h-1.5300293v-1.5299683h1.5300293z" fill="#2f4859"/><path d="m54.2395134 76.4950027v2.2799683h2.2799072v-2.2799683zm1.9099121 1.9099732h-1.5300293v-1.5299683h1.5300293z" fill="#2f4859"/><path d="m57.7395134 76.4950027v2.2799683h2.2799072v-2.2799683zm1.9099121 1.9099732h-1.5400391v-1.5299683h1.5400391z" fill="#2f4859"/><path d="m70.7507553 68.8606567c-2.0080948 0-3.6360474 1.6278915-3.6360474 3.6359787 0 2.0080948 1.6279526 3.6359787 3.6360474 3.6359787 2.0080872 0 3.63591-1.6278839 3.63591-3.6359787 0-2.0080871-1.6278228-3.6359787-3.63591-3.6359787z" fill="#ebf0f3"/><path d="m70.7507248 70.3419418c-1.1900024 0-2.1547318.9646912-2.1547318 2.1546936s.9647293 2.1546936 2.1547318 2.1546936 2.1546555-.9646912 2.1546555-2.1546936-.9646531-2.1546936-2.1546555-2.1546936z" fill="#e56353"/><path d="m81.9299011 68.8606567c-2.0080872 0-3.6360397 1.6278915-3.6360397 3.6359787 0 2.0080948 1.6279526 3.6359787 3.6360397 3.6359787 2.0080948 0 3.6359177-1.6278839 3.6359177-3.6359787 0-2.0080871-1.6278229-3.6359787-3.6359177-3.6359787z" fill="#ebf0f3"/><path d="m81.9298782 70.3419418c-1.1900024 0-2.1547318.9646912-2.1547318 2.1546936s.9647293 2.1546936 2.1547318 2.1546936 2.1546555-.9646912 2.1546555-2.1546936-.964653-2.1546936-2.1546555-2.1546936z" fill="#27a2db"/><path d="m38.1794548 58.0449905c-.0400391-.1300049-.0800781-.2600098-.1199951-.3800049-.1700439-.539978-.4000244-1.0499878-.6800537-1.5300293-.0699463-.1199951-.1398926-.25-.2199707-.3699951-.4399414-.6999512-.9899902-1.3399658-1.6199951-1.8800049-.1199951-.1099854-.25-.2199707-.3800049-.3199463-.2600098-.2000122-.5400391-.3900146-.8300781-.5700073-.1899414-.1100464-.3898926-.2200317-.5898438-.3200073-.0300293-.0200195-.0600586-.0300293-.1000977-.0499878-1.1298828-.5500488-2.3999023-.8600464-3.7399902-.8600464-4.7399902 0-8.5999756 3.8600464-8.5999756 8.6000366v11.5899658h17.2000732v-11.5899657c.0000001-.7999878-.1101074-1.5800171-.3200683-2.3200074zm-2.8000488 10.7899781h-10.959961v-8.4699707c0-3.0200195 2.4599609-5.4800415 5.4799805-5.4800415 1.2700195 0 2.4399414.4300537 3.3601074 1.1600342.1298828.0999756.2598877.210022.369873.3200073.0400391.0299683.0800781.0700073.1101074.0999756.3598633.3500366.6699219.7600098.9199219 1.2000122.0800781.1199951.1400146.25.1999512.3800049.3400879.7000122.5200195 1.4899902.5200195 2.3200073v8.4699707z" fill="#ebf0f3"/><path d="m39.3756142 66.1795349h-18.9494515c-1.299242 0-2.3524837 1.0532455-2.3524837 2.3524857v17.1853409c0 1.2992401 1.0532417 2.3524857 2.3524837 2.3524857h18.9495201c1.299202 0 2.3524132-1.053215 2.3524132-2.352417v-17.1854096c0-1.2992401-1.0532417-2.3524857-2.3524818-2.3524857z" fill="#44c4a1"/><path d="m32.6416779 76.0350647c0-1.5136795-1.2271118-2.7407913-2.7407913-2.7407913-1.5136776 0-2.7407894 1.2271118-2.7407894 2.7407913 0 1.0579147.6058979 1.9652405 1.4836578 2.4221039v4.1556091h2.514265v-4.1556091c.877758-.4568634 1.4836579-1.3641892 1.4836579-2.4221039z" fill="#2f4859"/></svg>