<svg enable-background="new 0 0 110 110" height="512" viewBox="0 0 110 110" width="512" xmlns="http://www.w3.org/2000/svg"><path d="m40.356464 38.144039h48.209187v22.441248h-48.209187z" fill="#2f4859"/><path d="m36.896759 21.471436h55.128593v17.632223h-55.128593z" fill="#3a556a"/><g fill="#2f4859"><path d="m36.896759 24.739067h24.079741v11.096961h-24.079741z"/><path d="m68.8197479 27.2537746c-1.5305023 0-2.771225 1.2407227-2.771225 2.7712173 0 1.5305462 1.2407227 2.7712688 2.771225 2.7712688 1.5304947 0 2.7712173-1.2407227 2.7712173-2.7712688.0000001-1.5304946-1.2407226-2.7712173-2.7712173-2.7712173z"/><path d="m76.8755417 27.7788334c-1.5304947 0-2.7712173 1.2407227-2.7712173 2.7712193 0 1.5305443 1.2407227 2.7712669 2.7712173 2.7712669 1.5305023 0 2.771225-1.2407227 2.771225-2.7712669 0-1.5304967-1.2407227-2.7712193-2.771225-2.7712193z"/><path d="m84.9313431 27.7788334c-1.5304947 0-2.7712173 1.2407227-2.7712173 2.7712193 0 1.5305443 1.2407227 2.7712669 2.7712173 2.7712669s2.771225-1.2407227 2.771225-2.7712669c0-1.5304967-1.2407303-2.7712193-2.771225-2.7712193z"/></g><path d="m36.896759 40.686264h55.128593v17.632223h-55.128593z" fill="#3a556a"/><g fill="#2f4859"><path d="m36.896759 43.953896h24.079741v11.096961h-24.079741z"/><path d="m68.8197479 46.4686012c-1.5305023 0-2.771225 1.2407227-2.771225 2.7712173 0 1.5305481 1.2407227 2.7712708 2.771225 2.7712708 1.5304947 0 2.7712173-1.2407227 2.7712173-2.7712708.0000001-1.5304946-1.2407226-2.7712173-2.7712173-2.7712173z"/><path d="m76.8755417 46.99366c-1.5304947 0-2.7712173 1.2407227-2.7712173 2.7712173 0 1.5305481 1.2407227 2.7712708 2.7712173 2.7712708 1.5305023 0 2.771225-1.2407227 2.771225-2.7712708 0-1.5304947-1.2407227-2.7712173-2.771225-2.7712173z"/><path d="m84.9313431 46.99366c-1.5304947 0-2.7712173 1.2407227-2.7712173 2.7712173 0 1.5305481 1.2407227 2.7712708 2.7712173 2.7712708s2.771225-1.2407227 2.771225-2.7712708c0-1.5304947-1.2407303-2.7712173-2.771225-2.7712173z"/></g><path d="m36.896759 59.901089h55.128593v17.632223h-55.128593z" fill="#3a556a"/><path d="m36.896759 63.16872h24.079741v11.096961h-24.079741z" fill="#2f4859"/><path d="m68.8197479 65.6834259c-1.5305023 0-2.771225 1.2407227-2.771225 2.771225 0 1.5305405 1.2407227 2.7712631 2.771225 2.7712631 1.5304947 0 2.7712173-1.2407227 2.7712173-2.7712631.0000001-1.5305023-1.2407226-2.771225-2.7712173-2.771225z" fill="#2f4859"/><path d="m76.8755417 66.2084885c-1.5304947 0-2.7712173 1.2407227-2.7712173 2.7712173 0 1.5305481 1.2407227 2.7712708 2.7712173 2.7712708 1.5305023 0 2.771225-1.2407227 2.771225-2.7712708 0-1.5304947-1.2407227-2.7712173-2.771225-2.7712173z" fill="#2f4859"/><path d="m84.9313431 66.2084885c-1.5304947 0-2.7712173 1.2407227-2.7712173 2.7712173 0 1.5305481 1.2407227 2.7712708 2.7712173 2.7712708s2.771225-1.2407227 2.771225-2.7712708c0-1.5304947-1.2407303-2.7712173-2.771225-2.7712173z" fill="#2f4859"/><path d="m17.974646 63.16872h39.345051v25.359844h-39.345051z" fill="#ebf0f3"/><path d="m57.3196983 63.1687202-19.6725273 13.2572823-19.6725254-13.2572823 19.6725254 15.0220299z" fill="#d5d6db"/><path d="m17.9746456 88.5285645 15.9384251-13.1891938.9703407.5092697z" fill="#d5d6db"/><path d="m57.3196983 88.5285645-15.9384231-13.1891938-.9703446.5092697z" fill="#d5d6db"/></svg>