<svg enable-background="new 0 0 110 110" height="512" viewBox="0 0 110 110" width="512" xmlns="http://www.w3.org/2000/svg"><path d="m27.7205181 30.765419c-.0319786-.8987484-.769865-1.610857-1.6692142-1.610857-.8993511 0-1.6372356.7121086-1.6692162 1.610857l-1.2688942 35.6674652h5.8762207z" fill="#2f4859"/><path d="m74.7727356 30.765419c-.0319824-.8987484-.7698669-1.610857-1.66922-1.610857s-1.6372375.7121086-1.6692123 1.610857l-1.268898 35.6674652h5.8762207z" fill="#2f4859"/><path d="m83.2829285 62.898468h-67.4110375c-1.2344236 0-2.2351313 1.0007057-2.2351313 2.2351303v16.4566574c0 1.2344742 1.0007076 2.2351837 2.2351313 2.2351837h67.4110413c1.2344208 0 2.2351303-1.0007095 2.2351303-2.2351837v-16.4566574c-.0000038-1.2344246-1.0007134-2.2351303-2.2351341-2.2351303z" fill="#3a556a"/><path d="m30.3178196 70.215271h-4.8892422c-.2500515 0-.4527073.2026749-.4527073.4526901v5.3880005c0 .2500076.2026558.4526901.4527073.4526901h4.8892422c.2499714 0 .4526672-.2026825.4526672-.4526901v-5.3880005c0-.2500152-.2026958-.4526901-.4526672-.4526901z" fill="#64798a"/><path d="m30.0134563 70.9555283h-4.2805519v3.9417038h1.0637226v.87117h2.1531067v-.87117h1.0637226z" fill="#474c5b"/><g fill="#fcd462"><path d="m25.979816 71.437836h.391624v.817302h-.391624z"/><path d="m26.669415 71.437836h.391624v.817302h-.391624z"/><path d="m27.359013 71.437836h.391624v.817302h-.391624z"/><path d="m28.048611 71.437836h.391624v.817302h-.391624z"/><path d="m28.738209 71.437836h.391624v.817302h-.391624z"/><path d="m29.427807 71.437836h.391624v.817302h-.391624z"/></g><path d="m44.7872887 70.215271h-4.8892403c-.2500534 0-.4527092.2026749-.4527092.4526901v5.3880005c0 .2500076.2026558.4526901.4527092.4526901h4.8892403c.2499733 0 .4526672-.2026825.4526672-.4526901v-5.3880005c0-.2500152-.2026939-.4526901-.4526672-.4526901z" fill="#64798a"/><path d="m44.4829292 70.9555283h-4.2805557v3.9417038h1.0637245v.87117h2.1531067v-.87117h1.0637245z" fill="#474c5b"/><path d="m40.449287 71.437836h.391624v.817302h-.391624z" fill="#fcd462"/><path d="m41.138886 71.437836h.391624v.817302h-.391624z" fill="#fcd462"/><path d="m41.828484 71.437836h.391624v.817302h-.391624z" fill="#fcd462"/><path d="m42.518082 71.437836h.391624v.817302h-.391624z" fill="#fcd462"/><path d="m43.20768 71.437836h.391624v.817302h-.391624z" fill="#fcd462"/><path d="m43.897278 71.437836h.391624v.817302h-.391624z" fill="#fcd462"/><path d="m59.2567596 70.215271h-4.8892403c-.2500534 0-.4527092.2026749-.4527092.4526901v5.3880005c0 .2500076.2026558.4526901.4527092.4526901h4.8892403c.2499733 0 .4526672-.2026825.4526672-.4526901v-5.3880005c.0000001-.2500152-.2026939-.4526901-.4526672-.4526901z" fill="#64798a"/><path d="m58.9523964 70.9555283h-4.2805519v3.9417038h1.0637245v.87117h2.1531067v-.87117h1.0637207z" fill="#474c5b"/><path d="m54.918758 71.437836h.391624v.817302h-.391624z" fill="#fcd462"/><path d="m55.608357 71.437836h.391624v.817302h-.391624z" fill="#fcd462"/><path d="m56.297955 71.437836h.391624v.817302h-.391624z" fill="#fcd462"/><path d="m56.987553 71.437836h.391624v.817302h-.391624z" fill="#fcd462"/><path d="m57.677151 71.437836h.391624v.817302h-.391624z" fill="#fcd462"/><path d="m58.366749 71.437836h.391624v.817302h-.391624z" fill="#fcd462"/><path d="m73.7262344 70.215271h-4.8892441c-.2500534 0-.4527054.2026749-.4527054.4526901v5.3880005c0 .2500076.202652.4526901.4527054.4526901h4.8892441c.2499695 0 .4526672-.2026825.4526672-.4526901v-5.3880005c.0000001-.2500152-.2026977-.4526901-.4526672-.4526901z" fill="#64798a"/><path d="m73.4218674 70.9555283h-4.2805481v3.9417038h1.0637207v.87117h2.1531067v-.87117h1.0637207z" fill="#474c5b"/><g fill="#fcd462"><path d="m69.388229 71.437836h.391624v.817302h-.391624z"/><path d="m70.077828 71.437836h.391624v.817302h-.391624z"/><path d="m70.767426 71.437836h.391624v.817302h-.391624z"/><path d="m71.457024 71.437836h.391624v.817302h-.391624z"/><path d="m72.146622 71.437836h.391624v.817302h-.391624z"/><path d="m72.83622 71.437836h.391624v.817302h-.391624z"/><path d="m41.8895454 51.2087822c3.0172539-3.0178146 4.6792755-7.029583 4.6792755-11.2970047s-1.6620216-8.2791862-4.6792755-11.296442l2.440773-2.440773c3.6701508 3.6690273 5.6906433 8.5477619 5.6906433 13.737215s-2.0204926 10.0681915-5.6906433 13.7377777z"/><path d="m37.0158653 46.6711006c3.7263374-3.7268982 3.7263374-9.790062 0-13.5180855l2.440773-2.4407711c5.0737076 5.0725842 5.0714607 13.3270473 0 18.3996296z"/><path d="m32.2568092 41.5754814c.9169731-.9169731.9169731-2.4098701 0-3.3268433l2.440773-2.440773c2.2632217 2.2620964 2.2632217 5.9451675 0 8.2083893z"/><path d="m88.2318268 51.2087822c3.0172501-3.0178146 4.6792679-7.029583 4.6792679-11.2970047s-1.6620178-8.2791862-4.6792679-11.296442l2.440773-2.440773c3.6701508 3.6690273 5.6906433 8.5477619 5.6906433 13.737215s-2.0204926 10.0681915-5.6906433 13.7377777z"/><path d="m83.3581467 46.6711006c3.7263336-3.7268982 3.7263336-9.790062 0-13.5180855l2.440773-2.4407711c5.0737076 5.0725842 5.0714569 13.3270473 0 18.3996296z"/><path d="m78.5990829 41.5754814c.9169769-.9169731.9169769-2.4098701 0-3.3268433l2.440773-2.440773c2.2632217 2.2620964 2.2632217 5.9451675 0 8.2083893z"/></g></svg>