<svg enable-background="new 0 0 110 110" height="512" viewBox="0 0 110 110" width="512" xmlns="http://www.w3.org/2000/svg"><path d="m55.9316635 58.9524574v-15.5219726h-2v15.5219726h-29.6865234v17.129879h2v-15.129879h27.6865234 2 27.6855469v15.129879h2v-17.129879z" fill="#3a556a"/><path d="m71.3336716 14.8643942h-32.8045197c-.6869125 0-1.2437248.5568514-1.2437248 1.243762v21.0193005c0 .6869125.5568123 1.2437248 1.2437248 1.2437248h32.8045197c.6869049 0 1.2437592-.5568123 1.2437592-1.2437248v-21.0193005c-.0000001-.6869106-.5568543-1.243762-1.2437592-1.243762z" fill="#3a556a"/><path d="m45.701386 11.495254h18.460239v30.245186h-18.460239z" fill="#2d93ba" transform="matrix(0 1 -1 0 81.549 -28.314)"/><path d="m71.3298569 38.271183h-32.796856c-.6890297 0-1.3847885.4727364-1.5570259 1.0661392l-2.6331482 9.0718384c-.2312202.796608.2425613 1.455616 1.0629883 1.455616h39.0512314c.8204269 0 1.2942047-.659008 1.0629807-1.455616l-2.6331406-9.0718384c-.1722412-.5934028-.8680038-1.0661392-1.5570297-1.0661392z" fill="#2f4859"/><path d="m70.1381912 39.4877739h-30.4135284c-.5217323 0-1.0396194.36446-1.1582642.819973l-.5781708 2.2198067c-.1290855.4956169.2146721.9029541.769577.9029541h32.3472443c.5549088 0 .8986664-.4073372.769577-.9029541l-.5781708-2.2198067c-.118637-.455513-.6365279-.819973-1.1582641-.819973z" fill="#3a556a"/><path d="m57.43293 44.5070152h-6.0048447c-.2819824 0-.5232964.2123489-.539093.4761467l-.162075 2.7065735c-.0172272.287693.209938.5226364.5075073.5226364h6.3367844c.2975693 0 .5282478-.2349434.5153198-.5226364l-.121624-2.7065735c-.0118523-.2637977-.2499924-.4761467-.5319748-.4761467z" fill="#3a556a"/><path d="m90.269249 93.9351807h-11.267807l.7812728-4.5251541h9.7052613z" fill="#2f4859"/><path d="m99.0920944 68.1535187h-28.9134979c-.4886703 0-.884819.3961487-.884819.884819v20.2488937c0 .4886703.3961487.884819.884819.884819h28.9134979c.4887009 0 .884819-.3961487.884819-.884819v-20.2488937c.0000001-.4886703-.3961181-.884819-.884819-.884819z" fill="#3a556a"/><path d="m76.476746 64.563667h16.31712v27.090048h-16.31712z" fill="#fcd462" transform="matrix(0 1 -1 0 162.744 -6.527)"/><path d="m90.7581024 93.2320175h-12.2455292c-1.0292664 0-1.8636703.8343964-1.8636703 1.8637009v.0398865h15.9729004v-.0398865c0-1.0293045-.834404-1.8637009-1.8637009-1.8637009z" fill="#64798a"/><circle cx="84.635" cy="88.33" fill="#2f4859" r=".851"/><path d="m30.998558 93.9351807h-11.267807l.7812691-4.5251541h9.7052689z" fill="#2f4859"/><path d="m39.8214035 68.1535187h-28.9134979c-.4886694 0-.88482.3961487-.88482.884819v20.2488937c0 .4886703.3961506.884819.88482.884819h28.9134979c.4886971 0 .884819-.3961487.884819-.884819v-20.2488937c0-.4886703-.3961219-.884819-.884819-.884819z" fill="#3a556a"/><path d="m17.206055 64.563667h16.31712v27.090048h-16.31712z" fill="#e56353" transform="matrix(0 1 -1 0 103.473 52.744)"/><path d="m31.4874096 93.2320175h-12.2455292c-1.0292664 0-1.8636646.8343964-1.8636646 1.8637009v.0398865h15.9728966v-.0398865c0-1.0293045-.8344002-1.8637009-1.8637028-1.8637009z" fill="#64798a"/><circle cx="25.365" cy="88.33" fill="#2f4859" r=".851"/></svg>