<svg enable-background="new 0 0 110 110" height="512" viewBox="0 0 110 110" width="512" xmlns="http://www.w3.org/2000/svg"><path d="m84.884903 35.4957771h-44.3842316c-1.9959831 0-3.6140862 1.618103-3.6140862 3.6141357v39.083065c0 1.9960327 1.618103 3.6141357 3.6140862 3.6141357h44.3842316c1.9959869 0 3.61409-1.618103 3.61409-3.6141357v-39.083065c-.0000001-1.9960326-1.6181031-3.6141357-3.61409-3.6141357z" fill="#e56353"/><path d="m40.5006905 80.3829727c-1.2076912 0-2.1901169-.9824295-2.1901169-2.1901245v-39.0828247c0-1.207695.9824257-2.1901207 2.1901169-2.1901207h44.384304c1.207695 0 2.1901169.9824257 2.1901169 2.1901207v39.0828247c0 1.207695-.9824219 2.1901245-2.1901169 2.1901245z" fill="#ebf0f3"/><path d="m84.884903 35.4957771h-44.3842316c-1.9959831 0-3.6140862 1.618103-3.6140862 3.6141357v5.8760223h51.6124077v-5.8760223c0-1.9960326-1.618103-3.6141357-3.6140899-3.6141357z" fill="#e56353"/><circle cx="81.829" cy="40.418" fill="#ebf0f3" r="1.568"/><circle cx="75.981" cy="40.418" fill="#ebf0f3" r="1.568"/><circle cx="70.134" cy="40.418" fill="#ebf0f3" r="1.568"/><g fill="#d5d6db"><path d="m43.642853 53.570622h10.046536v2.597245h-10.046536z"/><path d="m63.544895 53.570622h18.19783v2.597245h-18.19783z"/><path d="m55.320072 53.570622h6.723693v2.597245h-6.723693z"/><path d="m71.69619 59.36058h10.046536v2.597245h-10.046536z" transform="matrix(-1 0 0 -1 153.439 121.318)"/><path d="m43.642853 59.36058h18.19783v2.597245h-18.19783z" transform="matrix(-1 0 0 -1 105.484 121.318)"/><path d="m63.341812 59.36058h6.723693v2.597245h-6.723693z" transform="matrix(-1 0 0 -1 133.407 121.318)"/><path d="m43.642853 65.150536h6.225778v2.597245h-6.225778z"/><path d="m67.256638 65.150536h14.486083v2.597245h-14.486083z"/><path d="m51.213028 65.150536h14.78757v2.597245h-14.78757z"/><path d="m43.642853 70.940498h10.046536v2.597245h-10.046536z"/><path d="m63.544895 70.940498h18.19783v2.597245h-18.19783z"/><path d="m55.320072 70.940498h6.723693v2.597245h-6.723693z"/></g><path d="m69.4993286 28.1928825h-44.3842335c-1.9959831 0-3.6140881 1.6181068-3.6140881 3.6141396v39.0830612c0 1.9960327 1.6181049 3.6141434 3.6140881 3.6141434h44.3842316c1.9959793 0 3.61409-1.6181107 3.61409-3.6141434v-39.0830612c.0000019-1.9960327-1.6181088-3.6141396-3.6140881-3.6141396z" fill="#3a556a"/><path d="m25.1151142 73.0800781c-1.2076931 0-2.1901169-.9824219-2.1901169-2.1901169v-39.0828304c0-1.207695.9824238-2.1901188 2.1901169-2.1901188h44.3843079c1.207695 0 2.1901169.9824238 2.1901169 2.1901188v39.0828323c0 1.207695-.9824219 2.1901169-2.1901169 2.1901169h-44.3843079z" fill="#ebf0f3"/><path d="m69.4993286 28.1928825h-44.3842335c-1.9959831 0-3.6140881 1.6181068-3.6140881 3.6141396v5.8760223h51.6124115v-5.8760223c.0000001-1.9960327-1.6181106-3.6141396-3.6140899-3.6141396z" fill="#3a556a"/><circle cx="66.443" cy="33.115" fill="#ebf0f3" r="1.568"/><circle cx="60.596" cy="33.115" fill="#ebf0f3" r="1.568"/><circle cx="54.748" cy="33.115" fill="#ebf0f3" r="1.568"/><g fill="#d5d6db"><path d="m28.257277 46.267731h10.046536v2.597245h-10.046536z"/><path d="m48.159317 46.267731h18.19783v2.597245h-18.19783z"/><path d="m39.934494 46.267731h6.723693v2.597245h-6.723693z"/><path d="m56.310612 52.05769h10.046536v2.597245h-10.046536z" transform="matrix(-1 0 0 -1 122.668 106.713)"/><path d="m28.257277 52.05769h18.19783v2.597245h-18.19783z" transform="matrix(-1 0 0 -1 74.712 106.713)"/><path d="m47.956234 52.05769h6.723693v2.597245h-6.723693z" transform="matrix(-1 0 0 -1 102.636 106.713)"/><path d="m28.257277 57.847645h6.225778v2.597245h-6.225778z"/><path d="m51.871063 57.847645h14.486083v2.597245h-14.486083z"/><path d="m35.82745 57.847645h14.78757v2.597245h-14.78757z"/><path d="m28.257277 63.637604h10.046536v2.597245h-10.046536z"/><path d="m48.159317 63.637604h18.19783v2.597245h-18.19783z"/><path d="m39.934494 63.637604h6.723693v2.597245h-6.723693z"/></g><path d="m84.2030411 57.5952454-9.7033615-2.1850777 2.1850814 9.7033501 2.3959046-2.3959046 4.6679916 4.6679917 2.7264633-2.726471-4.6679916-4.667984z" fill="#2f4859"/></svg>