<svg enable-background="new 0 0 110 110" height="512" viewBox="0 0 110 110" width="512" xmlns="http://www.w3.org/2000/svg"><path d="m90.3283234 47.0608826c.1861191-.8057022.2907715-1.64011.2907715-2.4985924 0-5.6987114-4.3239822-10.4357872-10.0370865-11.4552422.0848541-.6807022.1334534-1.3718853.1334534-2.0741653 0-9.6895523-8.3066559-17.5444984-18.553524-17.5444984-5.2667236 0-10.0171471 2.0785799-13.3942871 5.4114056-2.2587967-.9376526-4.7531128-1.46171-7.3780594-1.46171-10.1497116 0-18.3776417 7.7805462-18.3776417 17.3782654 0 1.0426331.1026268 2.0620422.2887421 3.0541267-5.1945 2.3127937-8.7987223 7.2932625-8.7987223 13.0821991 0 7.9902878 6.8499308 14.4676857 15.299758 14.4676857h19.9870605 20.622673 14.6631546c5.7567139 0 10.4234161-4.4129066 10.4234161-9.8564987 0-3.6295357-2.0806503-6.7923394-5.1697082-8.5029755z" fill="#d5d6db"/><path d="m90.3283234 49.5025635c.1861191-.8057022.2907715-1.6401138.2907715-2.4985962 0-5.6987114-4.3239822-10.4357872-10.0370865-11.4552383.0848541-.680706.1334534-1.3718872.1334534-2.0741692 0-9.6895504-8.3066559-17.5444965-18.553524-17.5444965-5.2667236 0-10.0171471 2.0785809-13.3942871 5.4114056-2.2587967-.9376526-4.7531128-1.46171-7.3780594-1.46171-10.1497116 0-18.3776417 7.7805443-18.3776417 17.3782673 0 1.0426331.1026268 2.0620422.2887421 3.0541229-5.1945 2.3127937-8.7987223 7.2932663-8.7987223 13.0822029 0 7.990284 6.8499308 14.4676857 15.299758 14.4676857h19.9870605 20.622673 14.6631546c5.7567139 0 10.4234161-4.4129066 10.4234161-9.8564987 0-3.6295357-2.0806503-6.7923432-5.1697082-8.5029755z" fill="#ebf0f3"/><path d="m66.8762741 96.5116196h-27.1584282c-2.0436211 0-3.7003021-1.6566849-3.7003021-3.7003021v-55.1471215c0-2.0436172 1.6566811-3.7002983 3.7003021-3.7002983h27.1584282c2.0436172 0 3.7002945 1.6566811 3.7002945 3.7002983v55.1471214c0 2.0436173-1.6566772 3.7003022-3.7002945 3.7003022z" fill="#3a556a"/><g fill="#64798a"><path d="m40.36956 39.300179h25.854994v8.75513h-25.854994z"/><path d="m40.36956 49.844948h25.854994v8.75513h-25.854994z"/><path d="m40.36956 60.389717h25.854994v8.75513h-25.854994z"/><path d="m49.323223 75.785584h7.947668v15.793442h-7.947668z"/></g><path d="m53.2970581 78.9279785c-.9404907 0-1.7029419.7624512-1.7029419 1.7029419 0 .9405518.7624512 1.7030029 1.7029419 1.7030029.9405518 0 1.7029419-.7624511 1.7029419-1.7030029 0-.9404907-.7623901-1.7029419-1.7029419-1.7029419z" fill="#e56353"/><g fill="#ebf0f3"><path d="m53.2970581 83.7233429c-.4783974 0-.8662338.3878403-.8662338.8662338 0 .4784317.3878365.8662643.8662338.8662643.4784279 0 .8662338-.3878326.8662338-.8662643 0-.4783935-.3878059-.8662338-.8662338-.8662338z"/><path d="m53.2970581 86.7041397c-.4783974 0-.8662338.3878403-.8662338.8662338 0 .4784317.3878365.8662643.8662338.8662643.4784279 0 .8662338-.3878326.8662338-.8662643 0-.4783935-.3878059-.8662338-.8662338-.8662338z"/></g></svg>