<svg enable-background="new 0 0 110 110" height="512" viewBox="0 0 110 110" width="512" xmlns="http://www.w3.org/2000/svg"><path d="m87.6360168 29.2223701h-65.2721004c-1.1953602 0-2.1644249.9690647-2.1644249 2.1644917v42.3496094c0 1.1953583.9690647 2.1644211 2.1644249 2.1644211h65.2721024c1.1953583 0 2.1644897-.9690628 2.1644897-2.1644211v-42.3496094c-.0000019-1.1954269-.9691334-2.1644917-2.1644917-2.1644917z" fill="#3a556a"/><path d="m37.889484 21.691389h34.221771v59.53125h-34.221771z" fill="#ebf0f3" transform="matrix(0 1 -1 0 106.457 -3.543)"/><path d="m15.4547148 75.8008957v2.1820831c0 1.5434265 1.2511587 2.7946472 2.7945852 2.7946472h73.5014038c1.5434265 0 2.7945862-1.2512207 2.7945862-2.7946472v-2.1820831z" fill="#2f4859"/><path d="m55.0000343 70.2462234c-.9522171 0-1.724102.7719498-1.724102 1.7240982 0 .9522171.7718849 1.7240982 1.724102 1.7240982.9521484 0 1.7240334-.7718811 1.7240334-1.7240982 0-.9521484-.7718849-1.7240982-1.7240334-1.7240982z" fill="#2f4859"/><path d="m42.2588539 47.7653008 5.1562614 5.1452103c-1.3801422 1.6782074-2.1971779 3.8201904-2.1971779 6.1609039h-7.2540321c0-4.3391572 1.6230126-8.302887 4.2949486-11.3061142z" fill="#fcd462"/><path d="m54.3931198 42.0460014v7.2650871c-2.384922.1435394-4.5489426 1.1482544-6.1609726 2.7160759l-5.1452065-5.1340866c2.9259263-2.8707389 6.9007111-4.6924858 11.3061791-4.8470764z" fill="#44c4a1"/><path d="m66.9026794 46.8930779-5.1230354 5.1231041c-1.6341324-1.5678902-3.7871666-2.561554-6.183075-2.7050934v-7.2650871c4.3944169.1545905 8.3692017 1.9763374 11.3061104 4.8470764z" fill="#27a2db"/><path d="m72.0368347 59.0714149h-7.2540359c0-2.3517647-.817028-4.4937515-2.1861191-6.1719551l5.1340866-5.1341591c2.682991 3.0032273 4.3060684 6.9669571 4.3060684 11.3061142z" fill="#e56353"/><path d="m55.1538963 52.1494598c-.0252037-.1777077-.2818909-.1777077-.3070946 0l-1.4176788 9.9789429c-.0440712.3105316.1969147.5881767.5106125.5881767h2.1212959c.313633 0 .5546837-.2776451.5105438-.5881767z" fill="#2f4859"/><path d="m55.0003357 56.8925705c-1.1759834 0-2.1293411.9533577-2.1293411 2.1293373 0 1.1760559.9533577 2.1294136 2.1293411 2.1294136 1.1760521 0 2.1294098-.9533577 2.1294098-2.1294136 0-1.1759796-.9533577-2.1293373-2.1294098-2.1293373z" fill="#3a556a"/></svg>