<svg enable-background="new 0 0 110 110" height="512" viewBox="0 0 110 110" width="512" xmlns="http://www.w3.org/2000/svg"><path d="m83.1123123 23.1587009h-56.224678c-1.0296688 0-1.8644104.8347416-1.8644104 1.8644695v36.479496c0 1.0296669.8347416 1.8644104 1.8644104 1.8644104h56.224678c1.0296707 0 1.8644714-.8347435 1.8644714-1.8644104v-36.479496c.0000001-1.0297279-.8348007-1.8644695-1.8644714-1.8644695z" fill="#3a556a"/><path d="m40.261189 16.671597h29.478262v51.279572h-29.478262z" fill="#27a2db" transform="matrix(0 1 -1 0 97.312 -12.689)"/><path d="m55.0000305 58.4962006c-.8202286 0-1.4851227.6649513-1.4851227 1.4851227 0 .8202286.6648941 1.4851189 1.4851227 1.4851189.8201714 0 1.4850616-.6648903 1.4850616-1.4851189.0000001-.8201714-.6648902-1.4851227-1.4850616-1.4851227z" fill="#2f4859"/><path d="m91.0632477 86.841301h-72.1264992c-1.4690437 0-2.2177029-1.1772995-1.6858978-2.5930328l7.1613846-19.0645905c.3404846-.9064178 1.532896-1.6265335 2.6701279-1.6265335h55.8352776c1.1372299 0 2.3296432.7201157 2.6701202 1.6265335l7.1613922 19.0645905c.5317993 1.4157333-.216858 2.5930328-1.6859055 2.5930328z" fill="#2f4859"/><g fill="#4d5c7d"><path d="m28.839159 66.5515442h-.8541088c-.2490654 0-.5049095.1625137-.5716915.3638306l-.2314816.6978073c-.0682545.2057495.0816078.3732758.3349876.3732758h.8689117c.2532711 0 .5108376-.1675262.574728-.3732758l.2166805-.6978073c.0625135-.2013169-.0890692-.3638306-.3380259-.3638306z"/><path d="m31.9671459 66.5515442h-.8541088c-.2490654 0-.4987698.1625137-.5579472.3638306l-.2051182.6978073c-.060482.2057495.0957088.3732758.3490906.3732758h.8689117c.2532711 0 .504509-.1675262.560627-.3732758l.1903191-.6978073c.054905-.2013169-.1028175-.3638306-.3517742-.3638306z"/><path d="m35.0951347 66.5515442h-.8541107c-.2490654 0-.49263.1625137-.5442009.3638306l-.1787567.6978073c-.0527077.2057495.1098137.3732758.3631935.3732758h.8689117c.2532692 0 .4981804-.1675262.546524-.3732758l.1639557-.6978073c.0473023-.2013169-.1165618-.3638306-.3655166-.3638306z"/><path d="m38.2231216 66.5515442h-.8541069c-.2490654 0-.4864922.1625137-.5304604.3638306l-.1523933.6978073c-.0449333.2057495.1239166.3732758.3772964.3732758h.8689117c.2532692 0 .4918518-.1675262.5324211-.3732758l.1375923-.6978073c.0396959-.2013169-.1303061-.3638306-.3792609-.3638306z"/><path d="m41.3511086 66.5515442h-.8541069c-.2490654 0-.4803543.1625137-.5167122.3638306l-.1260338.6978073c-.037159.2057495.1380196.3732758.3913994.3732758h.8689117c.2532692 0 .4855194-.1675262.5183182-.3732758l.1112328-.6978073c.0320892-.2013169-.1440507-.3638306-.3930092-.3638306z"/><path d="m44.4790993 66.5515442h-.8541107c-.2490654 0-.4742126.1625137-.5029678.3638306l-.0996666.6978073c-.0293884.2057495.1521187.3732758.4054985.3732758h.8689117c.2532692 0 .4791908-.1675262.5042152-.3732758l.0848694-.6978073c.0244865-.2013169-.157795-.3638306-.4067497-.3638306z"/><path d="m47.6070862 66.5515442h-.8541107c-.2490654 0-.468071.1625137-.4892197.3638306l-.073307.6978073c-.0216179.2057495.1662216.3732758.4196014.3732758h.8689117c.2532692 0 .4728622-.1675262.4901123-.3732758l.058506-.6978073c.0168801-.2013169-.1715392-.3638306-.420494-.3638306z"/><path d="m50.7350731 66.5515442h-.8541107c-.2490654 0-.4619331.1625137-.4754753.3638306l-.0469437.6978073c-.0138435.2057495.1803246.3732758.4337044.3732758h.8689117c.2532692 0 .4665337-.1675262.4760132-.3732758l.0321426-.6978073c.0092736-.2013169-.1852874-.3638306-.4342422-.3638306z"/><path d="m53.86306 66.5515442h-.8541069c-.2490654 0-.4557953.1625137-.4617348.3638306l-.0205803.6978073c-.0060692.2057495.1944275.3732758.4478073.3732758h.8689117c.2532692 0 .4602051-.1675262.4619102-.3732758l.0057793-.6978073c.0016671-.2013169-.1990279-.3638306-.4479865-.3638306z"/><path d="m56.9910469 66.5515442h-.8541069c-.2490654 0-.4496536.1625137-.4479866.3638306l.0057793.6978073c.0017052.2057495.2085304.3732758.4619102.3732758h.8689117c.2532692 0 .4538765-.1675262.4478073-.3732758l-.0205803-.6978073c-.0059394-.2013169-.2127761-.3638306-.4617347-.3638306z"/><path d="m60.1190376 66.5515442h-.8541107c-.2490654 0-.4435158.1625137-.4342422.3638306l.0321426.6978073c.0094795.2057495.2226334.3732758.4760132.3732758h.8689117c.2532692 0 .4475479-.1675262.4337044-.3732758l-.0469437-.6978073c-.0135421-.2013169-.2265205-.3638306-.4754753-.3638306z"/><path d="m63.2470245 66.5515442h-.8541107c-.2490654 0-.4373741.1625137-.4204941.3638306l.058506.6978073c.0172501.2057495.2367325.3732758.4901123.3732758h.8689117c.2532692 0 .4412193-.1675262.4196014-.3732758l-.073307-.6978073c-.0211486-.2013169-.2402648-.3638306-.4892196-.3638306z"/><path d="m66.3750153 66.5515442h-.8541107c-.2490692 0-.4312363.1625137-.4067535.3638306l.0848694.6978073c.0250244.2057495.2508316.3732758.5042114.3732758h.8689117c.253273 0 .4348907-.1675262.4055023-.3732758l-.0996704-.6978073c-.0287552-.2013169-.2540055-.3638306-.5029602-.3638306z"/><path d="m69.5029984 66.5515442h-.8541107c-.2490616 0-.4250946.1625137-.3930054.3638306l.1112289.6978073c.0327988.2057495.2649384.3732758.5183182.3732758h.8689117c.253273 0 .428566-.1675262.3914032-.3732758l-.12603-.6978073c-.0363616-.2013169-.2677612-.3638306-.5167159-.3638306z"/><path d="m72.6309891 66.5515442h-.8541107c-.2490692 0-.4189606.1625137-.3792648.3638306l.1375961.6978073c.0405731.2057495.2790375.3732758.5324173.3732758h.8689117c.253273 0 .4222336-.1675262.3772964-.3732758l-.1523895-.6978073c-.0439682-.2013169-.2815018-.3638306-.5304565-.3638306z"/><path d="m75.7589722 66.5515442h-.8541031c-.2490692 0-.4128189.1625137-.3655167.3638306l.1639557.6978073c.0483398.2057495.2931366.3732758.5465164.3732758h.8689117c.253273 0 .4159012-.1675262.3631973-.3732758l-.1787567-.6978073c-.0515746-.2013169-.2952422-.3638306-.5442046-.3638306z"/><path d="m78.8869629 66.5515442h-.8541107c-.2490616 0-.4066772.1625137-.3517685.3638306l.1903152.6978073c.0561218.2057495.3072433.3732758.5606232.3732758h.8689117c.253273 0 .4095764-.1675262.3490982-.3732758l-.2051239-.6978073c-.0591735-.2013169-.3089904-.3638306-.5579452-.3638306z"/><path d="m82.0149536 66.5515442h-.8541107c-.2490692 0-.4005432.1625137-.338028.3638306l.2166824.6978073c.0638885.2057495.3213425.3732758.5747223.3732758h.8689117c.253273 0 .403244-.1675262.3349915-.3732758l-.2314835-.6978073c-.06678-.2013169-.3227309-.3638306-.5716857-.3638306z"/><path d="m28.1640491 68.6882095h-.8761501c-.2554932 0-.5193691.1710129-.5896549.3828888l-.2436905.7346115c-.0718746.2166672.0804291.3931046.3404655.3931046h.8917332c.259922 0 .5256538-.1764374.5929337-.3931046l.2281094-.7346115c.065792-.2118759-.0883656-.3828888-.3437463-.3828888z"/><path d="m31.3727589 68.6882095h-.8761501c-.2554932 0-.5129089.1710129-.5751896.3828888l-.2159386.7346115c-.0636883.2166672.0952797.3931046.3553162.3931046h.8917332c.2599239 0 .5189896-.1764374.578083-.3931046l.2003574-.7346115c.057785-.2118759-.1028309-.3828888-.3582115-.3828888z"/><path d="m34.5814667 68.6882095h-.8761482c-.2554932 0-.5064507.1710129-.5607262.3828888l-.1881828.7346115c-.0555038.2166672.1101303.3931046.3701668.3931046h.8917313c.259922 0 .5123253-.1764374.5632324-.3931046l.1726036-.7346115c.0497817-.2118759-.1172944-.3828888-.3726769-.3828888z"/><path d="m37.7901764 68.6882095h-.876152c-.2554893 0-.4999847.1710129-.546257.3828888l-.1604309.7346115c-.0473213.2166672.1249809.3931046.3850174.3931046h.8917313c.2599258 0 .5056572-.1764374.5483818-.3931046l.1448517-.7346115c.0417784-.2118759-.1317636-.3828888-.3871423-.3828888z"/><path d="m40.9988861 68.6882095h-.876152c-.2554932 0-.4935265.1710129-.5317917.3828888l-.132679.7346115c-.039135.2166672.1398315.3931046.399868.3931046h.8917351c.259922 0 .4989891-.1764374.5335274-.3931046l.1170998-.7346115c.0337714-.2118759-.1462289-.3828888-.4016076-.3828888z"/><path d="m44.2075958 68.6882095h-.876152c-.2554932 0-.4870644.1710129-.5173302.3828888l-.1049232.7346115c-.0309486.2166672.1546822.3931046.4147186.3931046h.8917351c.259922 0 .4923248-.1764374.5186768-.3931046l.089344-.7346115c.0257682-.2118759-.1606904-.3828888-.4160691-.3828888z"/><path d="m47.4163017 68.6882095h-.8761482c-.2554932 0-.4806061.1710129-.5028648.3828888l-.0771713.7346115c-.0227623.2166672.1695328.3931046.4295692.3931046h.8917351c.259922 0 .4856606-.1764374.5038261-.3931046l.0615921-.7346115c.017765-.2118759-.1751556-.3828888-.4305382-.3828888z"/><path d="m50.6250114 68.6882095h-.8761482c-.2554932 0-.4741478.1710129-.4883995.3828888l-.0494194.7346115c-.014576.2166672.1843834.3931046.4444237.3931046h.8917313c.259922 0 .4789963-.1764374.4889755-.3931046l.0338402-.7346115c.0097579-.2118759-.189621-.3828888-.4450036-.3828888z"/><path d="m53.8337212 68.6882095h-.876152c-.2554932 0-.4676819.1710129-.4739304.3828888l-.0216675.7346115c-.0063896.2166672.1992378.3931046.4592743.3931046h.8917313c.259922 0 .472332-.1764374.4741249-.3931046l.0060883-.7346115c.0017547-.2118759-.2040902-.3828888-.4594689-.3828888z"/><path d="m57.0424309 68.6882095h-.876152c-.2554932 0-.4612236.1710129-.4594688.3828888l.0060883.7346115c.0017929.2166672.2140884.3931046.4741249.3931046h.8917313c.2599258 0 .4656639-.1764374.4592743-.3931046l-.0216675-.7346115c-.0062486-.2118759-.2185518-.3828888-.4739305-.3828888z"/><path d="m60.2511368 68.6882095h-.8761482c-.2554932 0-.4547615.1710129-.4450035.3828888l.0338402.7346115c.0099792.2166672.2289391.3931046.4889755.3931046h.8917313c.2599258 0 .4589996-.1764374.4444237-.3931046l-.0494194-.7346115c-.0142518-.2118759-.2330171-.3828888-.4883996-.3828888z"/><path d="m63.4598465 68.6882095h-.8761482c-.2554932 0-.4483032.1710129-.4305382.3828888l.0615921.7346115c.0181656.2166672.2437897.3931046.5038261.3931046h.8917351c.259922 0 .4523315-.1764374.4295731-.3931046l-.0771751-.7346115c-.0222588-.2118759-.2474824-.3828888-.5028649-.3828888z"/><path d="m66.6685562 68.6882095h-.876152c-.2554932 0-.4418411.1710129-.416069.3828888l.0893402.7346115c.0263519.2166672.2586441.3931046.5186844.3931046h.8917313c.2599258 0 .4456635-.1764374.4147186-.3931046l-.1049271-.7346115c-.0302582-.2118759-.2619477-.3828888-.5173264-.3828888z"/><path d="m69.8772659 68.6882095h-.876152c-.2554932 0-.435379.1710129-.4016037.3828888l.1170959.7346115c.0345383.2166672.2734909.3931046.5335312.3931046h.8917313c.2599258 0 .439003-.1764374.3998718-.3931046l-.1326828-.7346115c-.038269-.2118759-.2764129-.3828888-.5317917-.3828888z"/><path d="m73.0859756 68.6882095h-.876152c-.2554932 0-.4289169.1710129-.3871384.3828888l.1448517.7346115c.042717.2166672.2883377.3931046.548378.3931046h.8917313c.2599258 0 .4323349-.1764374.3850174-.3931046l-.1604309-.7346115c-.0462723-.2118759-.2908783-.3828888-.5462571-.3828888z"/><path d="m76.2946854 68.6882095h-.876152c-.2554932 0-.4224625.1710129-.3726807.3828888l.1726074.7346115c.0509109.2166672.3031921.3931046.5632324.3931046h.8917313c.2599258 0 .4256744-.1764374.3701706-.3931046l-.1881866-.7346115c-.0542756-.2118759-.3053437-.3828888-.5607224-.3828888z"/><path d="m79.5033951 68.6882095h-.876152c-.2554932 0-.4160004.1710129-.3582153.3828888l.2003632.7346115c.0590897.2166672.3180389.3931046.5780792.3931046h.8917313c.2599258 0 .4190063-.1764374.3553162-.3931046l-.2159348-.7346115c-.0622789-.2118759-.3198091-.3828888-.5751878-.3828888z"/><path d="m82.7120972 68.6882095h-.8761444c-.2554932 0-.4095383.1710129-.34375.3828888l.2281113.7346115c.0672836.2166672.3328934.3931046.5929337.3931046h.8917313c.2599258 0 .4123459-.1764374.3404694-.3931046l-.2436905-.7346115c-.0702898-.2118759-.3342745-.3828888-.5896608-.3828888z"/><path d="m27.4531727 70.9380646h-.8993587c-.2622604 0-.5346737.1802063-.6087437.4034958l-.2568932.7744064c-.0757904.2284775.0790024.4145432.3460541.4145432h.9157867c.2669334 0 .5413456-.1860657.6122913-.4145432l.2404671-.7744064c.069336-.2232895-.0874576-.4034958-.3496036-.4034958z"/><path d="m30.7468796 70.9380646h-.8993587c-.2622604 0-.5278645.1802063-.5935001.4034958l-.2276363.7744064c-.0671597.2284775.0946636.4145432.3617134.4145432h.9157867c.2669334 0 .534317-.1860657.596632-.4145432l.2112103-.7744064c.0608996-.2232895-.1027013-.4034958-.3648473-.4034958z"/><path d="m34.0405884 70.9380646h-.8993607c-.2622604 0-.5210571.1802063-.5782585.4034958l-.1983795.7744064c-.0585289.2284775.1103249.4145432.3773766.4145432h.9157867c.2669334 0 .5272865-.1860657.5809708-.4145432l.1819534-.7744064c.0524635-.2232895-.1179466-.4034958-.3800888-.4034958z"/><path d="m37.3342934 70.9380646h-.8993607c-.2622604 0-.5142479.1802063-.5630112.4034958l-.1691246.7744064c-.0498962.2284775.125988.4145432.3930359.4145432h.9157867c.2669334 0 .5202599-.1860657.5653114-.4145432l.1526947-.7744064c.0440293-.2232895-.1331862-.4034958-.3953322-.4034958z"/><path d="m40.6279984 70.9380646h-.8993568c-.2622604 0-.5074425.1802063-.5477715.4034958l-.1398659.7744064c-.0412636.2284775.1416473.4145432.408699.4145432h.9157868c.2669334 0 .5132256-.1860657.5496445-.4145432l.1234436-.7744064c.0355911-.2232895-.1484338-.4034958-.4105797-.4034958z"/><path d="m43.9217072 70.9380646h-.8993607c-.2622604 0-.5006332.1802063-.5325241.4034958l-.110611.7744064c-.0326347.2284775.1573067.4145432.4243584.4145432h.9157867c.2669334 0 .5061989-.1860657.5339851-.4145432l.0941849-.7744064c.0271569-.2232895-.1636734-.4034958-.4258193-.4034958z"/><path d="m47.2154121 70.9380646h-.8993568c-.2622604 0-.4938278.1802063-.5172844.4034958l-.0813522.7744064c-.0240021.2284775.172966.4145432.4400177.4145432h.9157867c.2669334 0 .4991684-.1860657.5183258-.4145432l.06493-.7744064c.0187187-.2232895-.1789208-.4034958-.4410668-.4034958z"/><path d="m50.5091209 70.9380646h-.8993607c-.2622604 0-.4870186.1802063-.5020409.4034958l-.0520973.7744064c-.0153694.2284775.188633.4145432.4556847.4145432h.9157829c.2669373 0 .4921417-.1860657.5026665-.4145432l.0356712-.7744064c.0102845-.2232895-.1941604-.4034958-.4563064-.4034958z"/><path d="m53.8028259 70.9380646h-.8993607c-.2622604 0-.4802094.1802063-.4867935.4034958l-.0228424.7744064c-.0067368.2284775.2042923.4145432.471344.4145432h.9157867c.2669334 0 .4851112-.1860657.4870033-.4145432l.0064163-.7744064c.0018503-.2232895-.2094077-.4034958-.4715537-.4034958z"/><path d="m57.0965347 70.9380646h-.8993607c-.2622604 0-.4734039.1802063-.4715538.4034958l.0064163.7744064c.0018921.2284775.2199516.4145432.4870033.4145432h.9157867c.2669334 0 .4780807-.1860657.471344-.4145432l-.0228424-.7744064c-.006584-.2232895-.2246512-.4034958-.4867934-.4034958z"/><path d="m60.3902397 70.9380646h-.8993607c-.2622604 0-.4665909.1802063-.4563065.4034958l.0356712.7744064c.0105247.2284775.2356148.4145432.5026665.4145432h.9157829c.2669373 0 .4710541-.1860657.4556847-.4145432l-.0520973-.7744064c-.0150222-.2232895-.2398948-.4034958-.5020408-.4034958z"/><path d="m63.6839447 70.9380646h-.8993568c-.2622604 0-.4597855.1802063-.4410667.4034958l.06493.7744064c.0191574.2284775.2512741.4145432.5183258.4145432h.9157867c.2669334 0 .4640236-.1860657.4400215-.4145432l-.0813599-.7744064c-.0234528-.2232895-.2551346-.4034958-.5172806-.4034958z"/><path d="m66.9776535 70.9380646h-.8993607c-.2622604 0-.45298.1802063-.4258194.4034958l.0941849.7744064c.0277863.2284775.2669373.4145432.533989.4145432h.9157867c.2669296 0 .4569855-.1860657.4243546-.4145432l-.110611-.7744064c-.0318909-.2232895-.2703781-.4034958-.5325241-.4034958z"/><path d="m70.2713623 70.9380646h-.8993607c-.2622604 0-.4461746.1802063-.4105759.4034958l.123436.7744064c.0364227.2284775.2826004.4145432.5496521.4145432h.9157867c.2669296 0 .4499588-.1860657.408699-.4145432l-.1398697-.7744064c-.0403288-.2232895-.2856215-.4034958-.5477675-.4034958z"/><path d="m73.5650635 70.9380646h-.899353c-.2622604 0-.4393692.1802063-.39534.4034958l.1527023.7744064c.0450516.2284775.2982559.4145432.5653076.4145432h.9157867c.2669296 0 .4429321-.1860657.3930359-.4145432l-.1691208-.7744064c-.048767-.2232895-.3008727-.4034958-.5630187-.4034958z"/><path d="m76.8587723 70.9380646h-.8993607c-.2622604 0-.4325562.1802063-.3800888.4034958l.1819534.7744064c.0536804.2284775.3139191.4145432.5809708.4145432h.9157867c.2669373 0 .4359055-.1860657.3773727-.4145432l-.1983795-.7744064c-.0571975-.2232895-.3161086-.4034958-.5782546-.4034958z"/><path d="m80.1524811 70.9380646h-.8993607c-.2622604 0-.4257507.1802063-.3648453.4034958l.2112122.7744064c.0623093.2284775.3295746.4145432.5966263.4145432h.9157867c.2669373 0 .4288788-.1860657.3617172-.4145432l-.2276382-.7744064c-.0656357-.2232895-.3313522-.4034958-.5934982-.4034958z"/><path d="m83.4461823 70.9380646h-.899353c-.2622604 0-.4189377.1802063-.3496094.4034958l.2404709.7744064c.0709457.2284775.3452377.4145432.6122894.4145432h.9157867c.2669373 0 .4218445-.1860657.3460541-.4145432l-.2568893-.7744064c-.0740739-.2232895-.3466035-.4034958-.6087494-.4034958z"/><path d="m26.7036114 73.3103638h-.9238319c-.2693977 0-.5508957.190155-.6290665.4258041l-.2711983.8175278c-.0800362.241272.0772934.4377899.3517475.4377899h.9411736c.274334 0 .5579967-.1965179.6329155-.4377899l.2538567-.8175278c.0731734-.2356491-.0863191-.4258041-.3555966-.4258041z"/><path d="m30.0869408 73.3103638h-.9238319c-.2693958 0-.5437126.190155-.6129799.4258041l-.2403126.8175278c-.0709209.241272.0938339.4377899.368288.4377899h.9411716c.274334 0 .5505733-.1965179.6163769-.4377899l.2229729-.8175278c.06427-.2356491-.1024056-.4258041-.371685-.4258041z"/><path d="m33.4702721 73.3103638h-.9238319c-.2693977 0-.5365295.190155-.5968952.4258041l-.2094269.8175278c-.0618057.241272.1103725.4377899.3848286.4377899h.9411697c.274334 0 .543148-.1965179.5998383-.4377899l.1920853-.8175278c.0553702-.2356491-.1184923-.4258041-.3877679-.4258041z"/><path d="m36.8535995 73.3103638h-.9238319c-.2693939 0-.5293427.190155-.5808067.4258041l-.1785393.8175278c-.0526924.241272.1269112.4377899.4013634.4377899h.9411736c.274334 0 .5357246-.1965179.5832977-.4377899l.1612015-.8175278c.0464668-.2356491-.1345788-.4258041-.4038583-.4258041z"/><path d="m40.2369308 73.3103638h-.9238319c-.2693977 0-.5221596.190155-.5647202.4258041l-.1476555.8175278c-.0435753.241272.1434517.4377899.4179039.4377899h.9411736c.274334 0 .5282974-.1965179.5667572-.4377899l.1303177-.8175278c.0375595-.2356491-.1506653-.4258041-.4199448-.4258041z"/><path d="m43.6202621 73.3103638h-.9238319c-.2693977 0-.5149765.190155-.5486374.4258041l-.1167679.8175278c-.034462.241272.1599884.4377899.4344444.4377899h.9411736c.274334 0 .520874-.1965179.5502167-.4377899l.0994301-.8175278c.0286598-.2356491-.1667519-.4258041-.4360276-.4258041z"/><path d="m47.0035896 73.3103638h-.9238319c-.2693939 0-.5077896.190155-.532547.4258041l-.0858841.8175278c-.0253448.241272.1765289.4377899.450985.4377899h.9411736c.2743301 0 .5134506-.1965179.5336761-.4377899l.0685463-.8175278c.0197563-.2356491-.1828385-.4258041-.452118-.4258041z"/><path d="m50.3869209 73.3103638h-.9238319c-.2693977 0-.5006104.190155-.5164604.4258041l-.0550003.8175278c-.0162315.241272.1930695.4377899.4675217.4377899h.9411736c.274334 0 .5060272-.1965179.5171432-.4377899l.0376549-.8175278c.0108565-.2356491-.1989213-.4258041-.4682008-.4258041z"/><path d="m53.7702522 73.3103638h-.9238319c-.2693977 0-.4934273.190155-.5003777.4258041l-.0241127.8175278c-.0071144.241272.20961.4377899.4840622.4377899h.9411736c.274334 0 .4986038-.1965179.5006027-.4377899l.0067711-.8175278c.0019531-.2356491-.2150116-.4258041-.4842873-.4258041z"/><path d="m57.1535797 73.3103638h-.9238319c-.2693939 0-.4862404.190155-.4842873.4258041l.0067711.8175278c.0019989.241272.2261505.4377899.5006027.4377899h.9411736c.274334 0 .4911766-.1965179.4840622-.4377899l-.0241127-.8175278c-.0069504-.2356491-.2310982-.4258041-.5003777-.4258041z"/><path d="m60.536911 73.3103638h-.9238319c-.2693977 0-.4790573.190155-.4682007.4258041l.0376549.8175278c.011116.241272.2426872.4377899.5171432.4377899h.9411736c.274334 0 .4837532-.1965179.4675217-.4377899l-.0550003-.8175278c-.0158501-.2356491-.247181-.4258041-.5164605-.4258041z"/><path d="m63.9202423 73.3103638h-.9238319c-.2693977 0-.4718742.190155-.4521179.4258041l.0685463.8175278c.0202255.241272.2592239.4377899.5336761.4377899h.9411774c.2743301 0 .476326-.1965179.4509811-.4377899l-.0858841-.8175278c-.0247574-.2356491-.2632675-.4258041-.532547-.4258041z"/><path d="m67.3035736 73.3103638h-.9238358c-.2693939 0-.4646912.190155-.4360275.4258041l.0994263.8175278c.0293427.241272.2757645.4377899.5502243.4377899h.9411697c.2743378 0 .4689026-.1965179.4344482-.4377899l-.1167755-.8175278c-.0336532-.2356491-.2793502-.4258041-.5486297-.4258041z"/><path d="m70.6868973 73.3103638h-.9238281c-.2693939 0-.4575043.190155-.4199448.4258041l.1303177.8175278c.0384598.241272.292305.4377899.5667572.4377899h.9411697c.2743378 0 .4614868-.1965179.4179077-.4377899l-.1476517-.8175278c-.0425643-.2356491-.2954482-.4258041-.5647277-.4258041z"/><path d="m74.0702286 73.3103638h-.9238281c-.2694016 0-.450325.190155-.403862.4258041l.1612015.8175278c.0475769.241272.3088455.4377899.5832977.4377899h.9411774c.2743301 0 .4540558-.1965179.4013672-.4377899l-.1785431-.8175278c-.0514603-.2356491-.3115311-.4258041-.5808106-.4258041z"/><path d="m77.4535599 73.3103638h-.9238281c-.2694016 0-.4431381.190155-.3877716.4258041l.1920853.8175278c.0566864.241272.325386.4377899.5998383.4377899h.9411697c.2743378 0 .4466324-.1965179.3848267-.4377899l-.2094269-.8175278c-.0603639-.2356491-.3276139-.4258041-.5968934-.4258041z"/><path d="m80.8368912 73.3103638h-.9238282c-.2694016 0-.4359589.190155-.3716888.4258041l.2229767.8175278c.0658035.241272.3419189.4377899.6163712.4377899h.9411774c.2743301 0 .439209-.1965179.3682861-.4377899l-.2403107-.8175278c-.0692749-.2356491-.3437042-.4258041-.6129837-.4258041z"/><path d="m84.2202225 73.3103638h-.9238358c-.2693939 0-.428772.190155-.3555984.4258041l.2538605.8175278c.0749207.241272.3584595.4377899.6329193.4377899h.9411697c.2743301 0 .4317856-.1965179.3517456-.4377899l-.2711945-.8175278c-.0781707-.2356491-.3597869-.4258041-.6290664-.4258041z"/><path d="m61.6319962 79.353508h-13.2639924c-.3327942 0-.6215973.2508774-.645153.5621872l-.2780304 3.6738739c-.0255623.3377838.2370911.6132736.5867691.6132736h13.936821c.349678 0 .6123314-.2754898.5867691-.6132736l-.2780304-3.6738739c-.0235558-.3113098-.3123589-.5621872-.645153-.5621872z"/></g><path d="m38.662823 39.782272h1.249453v3.288033h-1.249453z" fill="#2f4859" transform="matrix(0 1 -1 0 80.714 2.139)"/><path d="m50.1298943 35.3456192-6.5789604 1.5204201c-.449379.1038475-.7676506.5040703-.7676506.9652901v1.5582504h-2.0685959c-.2059174 0-.3728561.1669235-.3728561.3728409v3.3277626c0 .2059135.1669388.3728409.3728561.3728409h2.0685959v1.5582199c0 .4612465.3182869.8614693.7676659.9653168l6.5789452 1.5203934v-12.1613351z" fill="#f7be56"/><path d="m52.0861359 48.0092163v-13.1658325c0-.2976151-.2412605-.5389023-.5388756-.5389023h-1.6297073c-.2976151 0-.5388756.2412872-.5388756.5389023v13.1658325c0 .2976151.2412605.5388489.5388756.5388489h1.6297073c.297615 0 .5388756-.2412338.5388756-.5388489z" fill="#fcd462"/><path d="m59.030529 37.4080963h-5.0688019c-.4377403 0-.7925835.3548317-.7925835.7925568 0 .4377289.3548431.7925873.7925835.7925873h5.0688019z" fill="#d5d6db"/><path d="m59.030529 43.8593063h-5.0688019c-.4377403 0-.7925835.3548317-.7925835.7925606 0 .4377251.3548431.7925835.7925835.7925835h5.0688019z" fill="#d5d6db"/><path d="m70.087723 39.782242h1.249453v3.288033h-1.249453z" fill="#3a556a" transform="matrix(0 -1 1 0 29.286 112.139)"/><path d="m59.8701057 47.5069275 6.5789604-1.5204201c.449379-.1038475.7676468-.5040703.7676468-.9652901v-1.5582466h2.0686035c.2059097 0 .3728485-.1669273.3728485-.3728447v-3.3277588c0-.2059174-.1669388-.3728447-.3728485-.3728447h-2.0686034v-1.5582199c0-.4612465-.3182831-.8614693-.767662-.9653168l-6.5789452-1.5203934v12.1613351z" fill="#fcd462"/><path d="m57.9138641 34.8433304v13.1658325c0 .2976151.2412605.5389023.5388756.5389023h1.6297073c.2976151 0 .5388756-.2412872.5388756-.5389023v-13.1658325c0-.2976151-.2412605-.5388489-.5388756-.5388489h-1.6297073c-.297615 0-.5388756.2412338-.5388756.5388489z" fill="#f7be56"/></svg>