<svg enable-background="new 0 0 110 110" height="512" viewBox="0 0 110 110" width="512" xmlns="http://www.w3.org/2000/svg"><path d="m94.9952621 56.7449951c.0100098.5300293-.0199585 1.0400391-.0700073 1.5499878-.6799927 6.210022-5.8899536 11.1000366-12.2999878 11.1900024-3.9199829.0500488-13.8399658.2000122-19.2299805.2700195-.7600098.0100098-1.4299927.0200195-1.9799805.0300293-1.5700073.0299683-4.0900269.0699463-6.8900146.0999756-5.2200317.0800171-11.4199829.1599731-14.3300171.210022h-.3800049c-2.0200195-.0100098-5.6300049-.2600098-8.8399639-.460022-2.5300293-.1699829-4.8200073-.3099976-5.8800049-.289978-5.0700073.0599976-9.3200073-3.6799927-9.9899902-8.5800171v-.0100098c0-.0100098 0-.0100098 0-.0200195-.0100098-.0099487-.0100098-.0099487 0-.0099487-.0300293-.1900024-.0500488-.3900146-.0700073-.5800171-.0200195-.2000122-.0300293-.4100342-.0300293-.6099854-.0100098-.4300537.0100098-.8500366.0700073-1.2600098.0100098-.2000122.039978-.4100342.0800171-.6099854.0899658-.5400391.2299805-1.0800171.4199829-1.6000366.0900269-.25.1900024-.4899902.2999878-.7299805.0800171-.1900024.1699829-.3800049.2800293-.5599976.0100098-.0300293.0199585-.0499878.039978-.0800171.0100098-.039978.0300293-.0800171.0599976-.1199951.0100098-.0200195.0200195-.0300293.0300293-.0499878.0899658-.1700439.1799927-.3200073.289978-.4800415.0100098-.0099487.0100098-.0199585.0200195-.0299683.0100098-.039978.039978-.0800171.0799561-.1199951.0800171-.1400146.1800537-.2700195.2800293-.4000244.0899658-.1400146.1900024-.2699585.3099976-.3999634.1300049-.1799927.289978-.3500366.4500122-.5200195.0899658-.0999756.1799927-.1900024.2799683-.2800293.0700073-.0699463.1400146-.1399536.210022-.2099609.0299683-.0300293.0700073-.0599976.1099854-.0900269.0300293-.0299683.0499878-.0499878.0800171-.0700073.1199951-.1099854.2399902-.2099609.3699951-.3099976.0299683-.0299683.0700073-.0499878.0999756-.0799561.1700439-.1400146.3600464-.2700195.5400391-.3900146l.0100098-.0100098c.0299683-.0200195.0499878-.0300293.0699463-.0499878.0100098-.0100098.0300293-.0200195.0400391-.0300293.2000122-.1199951.4099731-.25.6199951-.3599854 0 0 0-.0100098.0100098-.0100098s.0199585-.0100098.0299683-.0199585c.0100098-.0100098.0100098-.0100098.0200195-.0100098.2299805-.1199951.4699707-.2399902.710022-.3500366.25-.1099854.5-.2099609.7599487-.2999878.2300415-.0800171.460022-.1500244.6900024-.210022.0300293-.0099487.0500488-.0099487.0800171-.0199585.0100098-.0100098.0100098-.0100098.0200195-.0100098.1199951-.039978.25-.0700073.3800049-.0999756-.1700439-.710022-.3000488-1.4200439-.3699951-2.1700439v-.0199585c-.0200195-.2000122-.0400391-.4100342-.0400391-.6200562-.0100098-.1699829-.0199585-.3399658-.0199585-.5099487-.1200562-8.1300049 6.3799438-14.8200073 14.5099468-14.9400024.8500366-.0100098 1.6700439.0599976 2.4700317.1900024 1.9400024-5.75 7.3200073-9.9299927 13.7399902-10.0300293h.2000122c.5599976 0 1.1099854.0300293 1.6499634.0900269.5400391.0599976 1.0700073.1499634 1.5900269.2699585s1.0300293.2600098 1.5300293.4400024c.2399902.0900269.4899902.1799927.7299805.2800293.4899902.1900024.9599609.4099731 1.4199829.6699829.2299805.1199951.460022.25.6799927.3900146.2200317.1400146.4400024.2799683.6500244.4199829 1.1400146.7600098 2.1599731 1.6799927 3.0299683 2.7299805.0100098.0100098.0100098.0100098.0200195.0200195.1099854.1199951.2000122.2399902.2999878.3599854.0200195-.0099487.0300293-.0099487.0499878-.0199585.2900391-.1300049.5800171-.2399902.8800049-.3400269.2900391-.1099854.6000366-.2000122.9100342-.2799683.1499634-.0400391.2999878-.0800171.4500122-.1100464.1900024-.0499878.3800049-.0799561.5699463-.1099854.1000366-.0200195.1900024-.0299683.2800293-.0499878.0499878-.0100098.1099854-.0100098.1599731-.0200195.2300415-.0299683.460022-.0499878.7000122-.0700073.2300415-.0099487.460022-.0299683.7000122-.0299683h.1799927c.2200317 0 .4299927.0100098.6500244.0200195.2000122.0099487.3900146.0199585.5899658.0499878.0300293 0 .0700073 0 .1000366.0100098.2000122.0199585.3999634.0499878.5899658.0799561.2300415.0300293.4500122.0800171.6700439.1300049.1799927.0400391.3499756.0800171.5299683.1300049.2299805.0599976.460022.1300049.6799927.2000122.1900024.0700073.3699951.1300049.5599976.210022.1900024.0699463.3800049.1599731.5700073.2399902.1900024.0899658.3800049.1799927.5599976.2699585.1600342.0900269.3099976.1700439.460022.25.0199585.0200195.0499878.0300293.0800171.0500488.1799927.1099854.3499756.2199707.5299683.3299561.3400269.2300415.6699829.4700317.9899902.7300415.2200317.1799927.4299927.3699951.6300049.5599976.1000366.0799561.1900024.1699829.2800293.2699585.1699829.1700439.3399658.3500366.5.5300293 1.0899658 1.2299805 1.9199829 2.7000122 2.4299927 4.3099976.5199585-.1300049 1.0499878-.2299805 1.5999756-.2800293.1199951-.0099487.2399902-.0199585.3699951-.0199585.1199951-.0100098.25-.0200195.3699951-.0200195.4100342-.0100098.8200073.0100098 1.2200317.0599976.3200073.0300293.6300049.0800171.9400024.1400146.0700073.0100098.1400146.0299683.2099609.0499878.1400146.0300293.2700195.0599976.4000244.0999756.3200073.0900269.6400146.1900024.9500122.3100586.1699829.0599976.3399658.1299438.5100098.2099609.1599731.0700073.3099976.1400146.4599609.2200317.1600342.0799561.3200073.1599731.4700317.25.1400146.0799561.2799683.1699829.4199829.2599487.1400146.0900269.2800293.1800537.4199829.2800293.1400146.0999756.2700195.2000122.4100342.3099976.1300049.0999756.2600098.210022.3800049.3200073.1300049.1099854.25.2299805.3800049.3499756.1300049.1100464.25.2399902.3699951.3600464 0 .0099487.0100098.0199585.0199585.0199585 1.6199951 1.7700195 2.6300049 4.1099854 2.6700439 6.7000122.0099487.5100098-.0200195 1.0100098-.0900269 1.5v.0100098c-.1799927 1.3099976-.6099854 2.539978-1.25 3.6499634.2600098.3500366.5100098.710022.7399902 1.0900269 1.1199951 1.8400272 1.7800293 3.9899906 1.8099975 6.2999881z" fill="#d5d6db"/><path d="m94.9952621 59.4249878c.1000366 6.9400024-5.4400024 12.6400146-12.3699951 12.7400513-1.7299805.0199585-4.6400146.0599976-7.8200073.1099854-1.0100098.0199585-2.0599976.0299683-3.0999756.039978-3.0499878.0499878-6.0700073.1000366-8.3099976.1300049-.7600098.0100098-1.4299927.0200195-1.9799805.0300293-1.5700073.0199585-4.1000366.0599976-6.9100342.0899658-5.210022.0800171-11.4099731.1699829-14.3099976.210022h-.289978c-2 0-5.6700439-.25-8.9299908-.460022-2.5400391-.1699829-4.8200073-.3099976-5.8800049-.289978-2.8400269.039978-5.4299927-1.1199951-7.2600098-3.0100098-.2200317-.2200317-.4199829-.4500122-.6099854-.6900024-.2000122-.2399902-.3800049-.4899902-.5500488-.7399902-.1699829-.2600098-.3299561-.5300293-.4799805-.7999878-.0800171-.1400146-.1500244-.2700195-.210022-.4100342-.1299438-.2799683-.2599487-.5700073-.3699951-.8599854-.0499878-.1500244-.0999756-.2999878-.1499634-.4500122-.0499878-.1499634-.0900269-.2999878-.1300049-.4500122-.0400391-.1499634-.0800171-.3099976-.1099854-.4599609-.0300293-.1600342-.0599976-.3200073-.0900269-.4800415-.0299683-.1499634-.0499878-.2999878-.0599976-.4499512-.0100098-.0500488-.0100098-.1000366-.0200195-.1400146-.0100098-.1099854-.0199585-.210022-.0199585-.3099976-.0200195-.1900024-.0300293-.3699951-.0300293-.5599976 0-.2800293 0-.5599976.0300293-.8300171.0099487-.2000122.039978-.4000244.0599976-.5900269 0-.0099487.0100098-.0199585.0100098-.0299683v-.0100098c0-.0100098 0-.0100098 0-.0200195-.0100098-.0099487-.0100098-.0099487 0-.0099487.5499878-4.1500244 3.6799927-7.5 7.7399902-8.3800049-.2000122-.8300171-.3500366-1.6900024-.4000244-2.5700073-.0100098-.1300049-.0200195-.25-.0100098-.3699951-.0199585-.1199951-.0199585-.2399902-.0199585-.3699951-.0100098-.5200195.0099487-1.0300293.0599976-1.5400391v-.0199585c0-.0500488.0099487-.1000366.0099487-.1500244.7400513-7.3499756 6.8800049-13.1300049 14.4400005-13.2399902.8500366-.0100098 1.6700439.0700073 2.4700317.1900024 1.9400024-5.75 7.3200073-9.9299927 13.7399902-10.0200195 4.7800293-.0700073 9.0599976 2.1600342 11.7999878 5.6699829 1.4400024-.6499634 3.0300293-1.0099487 4.7000122-1.039978 5.4099731-.0800171 10.0300293 3.460022 11.5800171 8.3699951.75-.1900024 1.5299683-.3099976 2.3399658-.3200073 5.1700439-.0700073 9.4800415 3.75 10.1400146 8.7600098v.0100098c.0599976.3800049.0800171.7799683.0900269 1.1799927.0199585 1.25-.2000122 2.4500122-.6000366 3.5599976-.2000122.5499878-.4500122 1.0800171-.7399902 1.5900269 1.3499756 1.7799683 2.2399902 3.9199829 2.4799805 6.2599487.0400395.370056.059998.7499998.0700077 1.1300047z" fill="#ebf0f3"/><path d="m58.9952621 67.9150391c-.2699585-.9900513-.6699829-1.9300537-1.1699829-2.8100586l2.6599731-3.5699463-3.6699829-3.6700439-3.5700073 2.6600342c-.8800049-.5-1.8200073-.9000244-2.8200073-1.1700439l-.6499634-4.3999634h-5.1799927l-.6500244 4.3999634c-1 .2700195-1.9400024.6700439-2.8200073 1.1700439l-3.5700073-2.6600342-3.6599731 3.6700439 2.6400146 3.5699463c-.4900513.8800049-.8800049 1.8200073-1.1600342 2.8100586l-4.3999615.6499634v5.1900024l4.3999615.6500244c.2800293 1 .6699829 1.9400024 1.1600342 2.8200073l-2.6400146 3.5599976 3.6599731 3.6699829 3.5700073-2.6500244c.8800049.5 1.8200073.8900146 2.8200073 1.1700439l.6500245 4.3999634h5.1799927l.6499634-4.3999634c1-.2800293 1.9400024-.6700439 2.8200073-1.1700439l3.5700073 2.6500244 3.6699829-3.6699829-2.6599731-3.5599976c.5-.8800049.9000244-1.8200073 1.1699829-2.8200073l4.4000244-.6500244v-5.1900024zm-11.8099975 10.7099609c-3.5599976 0-6.539978-2.5-7.2799683-5.8499756-.1199951-.5200195-.1799927-1.0599976-.1799927-1.6099854 0-.3600464.0299683-.7200317.0899658-1.0700073.5100098-3.6100464 3.6199951-6.3900146 7.3699951-6.3900146 3.6799927 0 6.7399902 2.6699829 7.3400269 6.1799927.0800171.4199829.1199951.8400269.1199951 1.2800293 0 .4799805-.0499878.9499512-.1400146 1.3999634-.6499634 3.4500121-3.6799927 6.0599975-7.3200073 6.0599975z" fill="#e56353"/><path d="m84.3652573 56.8450317v-3.7800293l-3.2099609-.4799805c-.2000122-.7200317-.4899902-1.4100342-.8500366-2.0499878l1.9299927-2.6100464-2.6699829-2.6799927-2.6099854 1.9400024c-.6400146-.3599854-1.3300171-.6499634-2.0499878-.8499756l-.4800416-3.2100218h-3.7799683l-.4799805 3.210022c-.7300415.2000122-1.4100342.4899902-2.0500488.8499756l-2.6099854-1.9400024-2.6699829 2.6799927 1.9299927 2.6100464c-.3699951.6399536-.6500244 1.3299561-.8499756 2.0499878l-3.210022.4799805v3.7800293l3.210022.4699707c.1999512.7299805.4799805 1.4199829.8499756 2.0599976l-1.9299927 2.6099854 2.6699829 2.6700439 2.6099854-1.9299927c.6400146.3599854 1.3200073.6499634 2.0500488.8499756l.4799805 3.210022h3.7799683l.4800415-3.210022c.7199707-.2000122 1.4099731-.4899902 2.0499878-.8499756l2.6099854 1.9299927 2.6699829-2.6700439-1.9299927-2.6099856c.3600464-.6400146.6500244-1.3300171.8500366-2.0599976zm-11.8299561 3.5499878c-3 0-5.4500122-2.4299927-5.4500122-5.4400024s2.4500122-5.4400024 5.4500122-5.4400024 5.4400024 2.4299927 5.4400024 5.4400024-2.4400024 5.4400024-5.4400024 5.4400024z" fill="#27a2db"/><path d="m81.8952866 81.1749878v-2.7599487l-2.3500366-.3400269c-.1399536-.5300293-.3499756-1.039978-.6199951-1.5l1.4200439-1.9099731-1.960022-1.9500122-1.9000244 1.4099731c-.4699707-.2600098-.9699707-.4699707-1.5-.6199951l-.1799927-1.2299805-.1699829-1.1099854h-2.7600098l-.1699829 1.1499634-.1699829 1.1900024c-.5400391.1500244-1.0400391.3599854-1.5100098.6199951l-1.9000244-1.4099731-1.9500122 1.9500122 1.4100342 1.9099731c-.2700195.460022-.4700317.9699707-.6199951 1.5l-2.3400269.3400269v2.7599487l2.3400269.3500366c.1499634.5299683.3499756 1.0299683.6199951 1.5l-1.4100342 1.8999634 1.9500122 1.960022 1.9000244-1.4199829c.4699707.2699585.9699707.4799805 1.5100098.6199951l.3399658 2.3499756h2.7600098l.3499756-2.3499756c.5300293-.1400146 1.0300293-.3500366 1.5-.6199951l1.9000244 1.4199829 1.960022-1.960022-1.4200439-1.8999634c.2700195-.4700317.4800415-.9700317.6199951-1.5zm-8.6400147 2.6000366c-2.1900024 0-3.9699707-1.7800293-3.9699707-3.9800415 0-2.1900024 1.7799683-3.9699707 3.9699707-3.9699707 2.2000122 0 3.9700317 1.7799683 3.9700317 3.9699707 0 2.2000122-1.7700195 3.9800415-3.9700317 3.9800415z" fill="#fcd462"/></svg>