<svg enable-background="new 0 0 110 110" height="512" viewBox="0 0 110 110" width="512" xmlns="http://www.w3.org/2000/svg"><path d="m39.166199 36.30566h31.667458v8.0002h-31.667458z" fill="#27a2db"/><path d="m57.1698761 88.6402588v-21.258255h-4.3398209v21.258255h-20.131813v3.7868957h44.6034469v-3.7868957z" fill="#3a556a"/><path d="m62.3042831 17.5728455h-21.0322609v28.0110206h28.0110207v-21.0323162z" fill="#d5d6db"/><path d="m25.9416618 40.773201v33.9356689h58.0736351v-33.9356689h-4.3968734l-23.3456688 5.274456-25.6571255-5.274456z" fill="#d5d6db"/><g fill="#3a556a"><path d="m86.4651947 40.773201h-2.7431641v33.9356689h2.7431641c1.5610352 0 2.826416-1.2653809 2.826416-2.826355v-28.2829589c0-1.5609742-1.2653808-2.826355-2.826416-2.826355z"/><path d="m23.5348034 40.773201h2.7431641v33.9356689h-2.7431641c-1.5610352 0-2.826416-1.2653809-2.826416-2.826355v-28.2829589c0-1.5609742 1.2653808-2.826355 2.826416-2.826355z"/><path d="m71.6468353 60.1633987h-33.2936973c-1.0780029 0-1.9519043.8737793-1.9519043 1.9517212v12.59375h37.1973839v-12.59375c0-1.0779419-.8739014-1.9517212-1.9517823-1.9517212z"/><path d="m30.153429 40.773201v6.5682373c0 1.5424805 1.2504883 2.7929077 2.7929707 2.7929077h44.1071739c1.5424805 0 2.7928467-1.2504272 2.7928467-2.7929077v-6.5682373z"/></g><path d="m62.3042831 24.5515499h6.9787598l-6.9787598-6.9787044z" fill="#ebf0f3"/><path d="m41.272083 66.640793h28.010986v18.137207h-28.010986z" fill="#d5d6db"/><g fill="#babbbf"><path d="m43.85302 70.261635h22.708412v1.367977h-22.708412z"/><path d="m43.85302 75.025406h22.708412v1.367977h-22.708412z"/><path d="m43.85302 79.789185h22.708412v1.367977h-22.708412z"/></g></svg>