<svg enable-background="new 0 0 110 110" height="512" viewBox="0 0 110 110" width="512" xmlns="http://www.w3.org/2000/svg"><ellipse cx="57.366" cy="60.992" fill="#d5d6db" rx="15.103" ry="15.103" transform="matrix(.16 -.987 .987 .16 -12.027 107.847)"/><ellipse cx="35.386" cy="56.476" fill="#d5d6db" rx="17.518" ry="17.518" transform="matrix(.16 -.987 .987 .16 -26.03 82.359)"/><g fill="#ebf0f3"><ellipse cx="31.916" cy="53.172" rx="17.518" ry="17.518" transform="matrix(.16 -.987 .987 .16 -25.682 76.159)"/><ellipse cx="47.878" cy="38.958" rx="17.518" ry="17.518" transform="matrix(.16 -.987 .987 .16 1.753 79.977)"/><ellipse cx="68.007" cy="44.877" rx="15.103" ry="15.103" transform="matrix(.16 -.987 .987 .16 12.816 104.817)"/></g><g fill="#d5d6db"><ellipse cx="58.974" cy="58.891" rx="14.244" ry="14.244" transform="matrix(.16 -.987 .987 .16 -8.603 107.671)"/><ellipse cx="53.595" cy="50.388" rx="15.103" ry="15.103" transform="matrix(.16 -.987 .987 .16 -4.728 95.22)"/><ellipse cx="80.499" cy="58.891" rx="15.103" ry="15.103" transform="matrix(.16 -.987 .987 .16 9.473 128.917)"/></g><ellipse cx="80.499" cy="53.963" fill="#ebf0f3" rx="13.627" ry="13.627" transform="matrix(.16 -.987 .987 .16 14.338 124.778)"/><ellipse cx="54.172" cy="47.98" fill="#ebf0f3" rx="13.835" ry="13.835" transform="matrix(.16 -.987 .987 .16 -1.866 93.767)"/><path d="m64.6735535 64.3513947v-9.1852913c0-3.6459045 2.9661255-6.6124344 6.612442-6.6124344 3.6463089 0 6.6124344 2.9665298 6.6124344 6.6124344v9.1852913h4.180748v-9.1852913c0-5.9510307-4.8417511-10.7931824-10.7931824-10.7931824-5.9514389 0-10.7931862 4.8421516-10.7931862 10.7931824v9.1852913z" fill="#64798a"/><path d="m82.9078979 88.5595627h-23.2438583c-1.2692146 0-2.2981186-1.0289001-2.2981186-2.298111v-21.3971939c0-1.2692184 1.028904-2.2981186 2.2981186-2.2981186h23.2438583c1.2692184 0 2.2981186 1.0289001 2.2981186 2.2981186v21.3971939c0 1.2692108-1.0289001 2.298111-2.2981186 2.298111z" fill="#fcd462"/><path d="m57.3659286 81.6613693v4.6000443c0 1.2692337 1.028904 2.2980881 2.2981339 2.2980881h23.2438583c1.2691803 0 2.2980881-1.0288544 2.2980881-2.2980881v-4.6000443z" fill="#f7be56"/><path d="m82.9079208 62.5661049h-23.2438583c-1.2692299 0-2.2981339 1.0289574-2.2981339 2.2980843v4.6001434h27.8400803v-4.6001434c0-1.2691269-1.0289078-2.2980843-2.2980881-2.2980843z" fill="#f7be56"/><path d="m73.6673431 74.2954636c0-1.3151627-1.0661621-2.3813705-2.3813705-2.3813705-1.3152161 0-2.3813782 1.0662079-2.3813782 2.3813705 0 .9734344.5858307 1.8077393 1.4226913 2.1770248v3.5444489h1.917366v-3.5444489c.8368608-.3692856 1.4226914-1.2035904 1.4226914-2.1770248z" fill="#3a556a"/></svg>