<svg enable-background="new 0 0 110 110" height="512" viewBox="0 0 110 110" width="512" xmlns="http://www.w3.org/2000/svg"><ellipse cx="53.739" cy="54.278" fill="#ebf0f3" rx="33.925" ry="33.925" transform="matrix(.987 -.16 .16 .987 -8 9.309)"/><path d="m82.3087158 72.5796509c-.4199829-.3199463-.8500366-.6199951-1.2999878-.9100342-.1500244-.0998535-.3099976-.1999512-.460022-.2799072-.4699707-.3100586-.9500122-.5999756-1.4500122-.8699951-.4500122-.2600098-.8999634-.5-1.3699951-.7299805-.0100098-.0100098-.0200195-.0200195-.0299683-.0100098-1.3400269-.6900635-2.7700195-1.3100586-4.2700195-1.8500977-.2200317-.0899658-.4400024-.1699219-.6599731-.2399902-.460022-.1699219-.9300537-.3299561-1.4100342-.4699707-.5899658-.1999512-1.1900024-.3699951-1.7999878-.5300293-2.6300049-.7399902-5.4400024-1.2800293-8.3900108-1.619873-1.0599976-.130127-2.1400146-.2301025-3.2299805-.3000488-.7300415-.0400391-1.460022-.0800781-2.2000122-.1000977-.6599731-.0200195-1.3300171-.0299072-2-.0299072s-1.3400269.0098877-2 .0299072c-4.960022.1501465-9.6199951.8500977-13.8200073 2.0200195-1.3399658.3601074-2.6300049.7700195-3.8699951 1.2399902-2.8200073 1.0300293-5.3699951 2.2900391-7.5800171 3.7399902-.4499512.2900391-.8800049.5900879-1.2999878.9100342-.6699829.4901123-1.2999878 1-1.8900146 1.5300293.7400513 1.1400146 1.5500488 2.2299805 2.4100342 3.2800293.5800171-.5300293 1.2099609-1.0400391 1.8900146-1.5200195.4199829-.3199463.8499756-.6099854 1.2999878-.9000244 1.8200073-1.1699219 3.9199829-2.2099609 6.2399902-3.0899658 1.2299805-.4801025 2.5100098-.9000244 3.8599854-1.2700195 3.8800049-1.0999756 8.210022-1.7800293 12.7600098-1.9300537.6599731-.0300293 1.3300171-.039917 2-.039917s1.3400269.0098877 2 .039917c.710022.0200195 1.4099731.0500488 2.0999756.1000977 1.0900269.0799561 2.1700439.1899414 3.2300415.3299561 2.5999756.3299561 5.0999718.8399658 7.4299889 1.5.4799805.1199951.9500122.2600098 1.4099731.4200439.4899902.1499023.9700317.3099365 1.4500122.4799805.2999878.0999756.5999756.2099609.9000244.3299561.0299683.0100098.0700073.0200195.0999756.0400391.4400024.1600342.8699951.3299561 1.289978.5100098.4300537.1899414.8600464.3800049 1.2800293.5699463.4699707.2199707.9299927.4499512 1.3800049.6899414.6599731.3400879 1.289978.7000732 1.8900146 1.0800781.1300049.0700684.2699585.1600342.3999634.2399902.4500122.2900391.8800049.5800781 1.2999878.9000244.2200317.1500244.4400024.3099365.6500244.4799805.4400024.3399658.8499756.6800537 1.2399902 1.0400391.8599854-1.0500488 1.6699829-2.1400146 2.4100342-3.2800293-.5900269-.5300295-1.2200318-1.0399172-1.8900147-1.5300295z" fill="#27a2db"/><path d="m84.1887207 34.449707c-.7300415-1.1400146-1.5400391-2.2400513-2.4000244-3.2900372-.0299683-.039978-.0700073-.0800171-.0999756-.1199951-.0100098-.0100098-.0100098-.0100098-.0200195-.0200195-.210022-.25-.4199829-.4899902-.6300049-.7399902-.4299927-.4899902-.8699951-.9599609-1.3300171-1.4199829-.2299805-.2299805-.4599609-.460022-.6899414-.6900024-.2300415-.2199707-.4700317-.4500122-.710022-.6599731-.4799805-.4400024-.9700317-.8699951-1.4700317-1.2800293-.4899902-.4099731-.9799805-.7999878-1.4899902-1.1699829-1.0299683-.7600098-2.0999756-1.4700317-3.2099609-2.1199951-.2800293-.1700439-.5700073-.3300171-.8600464-.4899902-.4299927-.2400513-.8599854-.4700317-1.3099976-.6900024-.4400024-.2200317-.8899536-.4400024-1.3399658-.6400146-.2999878-.1400146-.6000366-.2700195-.9100342-.4000244-.3200073-.1300049-.6499634-.2699585-.9899902-.3999634-.4500122-.1700439-.9099731-.3300171-1.3599854-.4900513-.0100098 0-.0200195 0-.0200195 0-.4599609-.1499634-.9199829-.2999878-1.3900108-.4399414-.3199463-.0900269-.6399536-.1800537-.9699707-.2700195-.6500244-.1699829-1.2999878-.3300171-1.9699707-.460022-.6600342-.1300049-1.3300171-.25-2-.3499756-.2000122-.0300293-.4000244-.0599976-.6000366-.0800171-.039978-.0100098-.0800171-.0100098-.1199951-.0200195-1.460022-.1799927-2.9400024-.2799683-4.4500122-.2799683-.039978 0-.0700073-.0100098-.1099854-.0100098s-.0700073.0100098-.1099854.0100098c-11.2399902.0299683-21.2800293 5.1799927-27.9400024 13.2299805-.8599854 1.0499859-1.6699829 2.1500225-2.4000244 3.2900372-3.7399902 5.6999512-5.9099731 12.5099487-5.9099731 19.8300171 0 7.3099365 2.1699829 14.119873 5.8999634 19.8299561.7400513 1.1400146 1.5500488 2.2299805 2.4100342 3.2800293.2699585.3299561.539978.6500244.8300171.9599609.0299683.0400391.0699463.0799561.1099854.1199951.2199707.2399902.4400024.4799805.6599731.7199707.2200317.2399902.4400024.4699707.6799927.6900635.2200317.2299805.460022.4599609.6900024.6800537.2700195.2698975.5400391.5198975.8200073.7698975 6.3800049 5.7301025 14.7900391 9.2301025 24.0100098 9.3000488.0900269 0 .1699829.0100098.25.0100098s.1599731-.0100098.2399902-.0100098c4.6199951-.0300293 9.0300293-.9300537 13.090023-2.5400391 1.1799927-.4599609 2.3200073-.9799805 3.4299927-1.5499268 3.4799805-1.8200684 6.6300049-4.1800537 9.3300171-6.960083.2299805-.2399902.4599609-.4799805.6799927-.7199707.4400024-.4799805.8699951-.9699707 1.2799683-1.4699707.8599854-1.0500488 1.6699829-2.1400146 2.4100342-3.2800293 2.3899536-3.6700439 4.1499634-7.7800293 5.0899658-12.2000732.2300415-1.0499268.4100342-2.1098633.5400391-3.1899414.1799927-1.4599609.2699585-2.9399414.2699585-4.4399414-.0000003-7.3200686-2.1699832-14.1300662-5.9099734-19.8300174zm1.0599976 27.1399536c-.8400269 3.6300049-2.2900391 7.0300293-4.2399902 10.0799561-.1500244.2399902-.3000488.4700928-.460022.7000732-.6099854.9000244-1.2600098 1.7700195-1.9500122 2.5999756-.1300049.1600342-.2600098.3100586-.3999634.4599609-.6799927.7900391-1.4000244 1.5400391-2.1500244 2.25-.7199707.7000732-1.4799805 1.3500977-2.2600098 1.960083-2.0800171 1.6600342-4.3800049 3.0599365-6.8300171 4.1600342-.3599854.1599121-.7299805.3199463-1.0999756.4699707.2399902-.2800293.4799805-.5800781.710022-.8800049 1.2299805-1.5699463 2.3499756-3.3699951 3.3399658-5.3499756.8600464-1.75 1.6300049-3.6401367 2.2900391-5.6500244.0199585-.0600586.039978-.1199951.0599976-.1800537.039978-.1099854.0700073-.2199707.0999756-.3299561.0200195-.0400391.0300293-.0899658.039978-.1300049.1300049-.3900146.25-.7900391.3700562-1.1999512.0699463-.25.1399536-.5.1999512-.7600098.1700439-.6101074.3200073-1.2299805.460022-1.8601074.2299805-.9399414.4199829-1.9099121.5800171-2.8898926.0999756-.5300293.1900024-1.0700684.2600098-1.6101074.25-1.6599121.4299927-3.3798828.539978-5.1398926.039978-.6600342.0700073-1.3300781.0899658-2.0100098h11.1300049c-.039978.7299805-.1099854 1.4499512-.2099609 2.1699219-.1300051 1.0600588-.3200075 2.1101076-.5700075 3.1400148zm-23.3599816 21.0300293c-1.8800049 1.9599609-3.960022 3.2799072-6.1500244 3.7799072v-30.119873h15.1599693c0 .1298828-.0099487.2700195-.0199585.3999023-.0400391 1.2000732-.1300049 2.3901367-.25 3.5600586-.2300415 2.2299805-.5900269 4.3900146-1.0700073 6.4499512-.2999878 1.3601074-.6600342 2.6600342-1.0599976 3.9200439-1.1600342 3.6400146-2.7000122 6.8399658-4.4899902 9.4000244v.0100098c-.6799888.9699708-1.380001 1.8299561-2.1199913 2.5999756zm-10.1500244-38.7399902v8.4000244h-15.1599731c.1299438-3.6500244.5899658-7.1600342 1.3299561-10.4100342 4.2000121 1.1499634 8.869995 1.8599854 13.830017 2.0100098zm-12.7600098-5.9400024c2.710022-8.4600201 7.4000244-14.5499859 12.7600098-15.7800274v17.7200298c-4.5499878-.1600342-8.8699951-.8500366-12.7600098-1.9400024zm2.6300049-13.6500225c-2.7000122 3.1799927-4.9199829 7.4100342-6.5 12.380003-2.3099976-.8900146-4.4000244-1.9199829-6.2199707-3.0900269 3.3899536-4.0599957 7.75-7.2699566 12.7199707-9.2899761zm-7.5700073 16.3400249c-.8300171 3.6099854-1.3399658 7.5299072-1.4599609 11.6500244h-11.1300049c.3499756-5.6500244 2.1399536-10.9000244 5.0199585-15.4000244 2.2000122 1.4499512 4.75 2.6999512 7.5700073 3.75zm-1.4599609 15.6500244c.1299438 4.119873.6299438 8.0400391 1.4699707 11.6499023.2999878 1.3601074.6599731 2.6800537 1.0700073 3.9500732 1.5599976 4.9699707 3.789978 9.2099609 6.4899902 12.3900146-4.9699707-2.0200195-9.3399658-5.2399902-12.7299805-9.3000488-.8699951-1.0500488-1.6799927-2.1499023-2.4100342-3.3000488-2.8800049-4.5-4.6699829-9.7600098-5.0199585-15.3898926h11.130005zm19.1599731 30.1198731c-5.3599854-1.2399902-10.0499878-7.329834-12.7600098-15.789917-.3999634-1.2600098-.7600098-2.5599365-1.0599976-3.9200439-.75-3.25-1.2199707-6.7600098-1.3399658-10.4099121h15.1599731v30.119873zm17.8300133-44.5299073c.7399902 3.25 1.2000122 6.7600098 1.3299561 10.4100342h-15.1599694v-8.4000244c4.960022-.1500244 9.6300011-.8600464 13.8300133-2.0100098zm-13.8300133-1.9899902v-17.7200298c5.3599854 1.2300415 10.049984 7.3200073 12.760006 15.7800274-3.8900147 1.0899658-8.2100182 1.7799682-12.760006 1.9400024zm10.1300011-15.5900249c4.9699707 2.0200195 9.3300171 5.2299805 12.7199707 9.2899761-1.8199463 1.1700439-3.9099731 2.210022-6.2199707 3.0900269-1.5800171-4.9699689-3.8099976-9.2000104-6.5-12.380003zm9.0299682 27.9900493c-.1199951-4.1201172-.6299438-8.0400391-1.4599609-11.6500244 2.8099976-1.0400391 5.3699951-2.3000488 7.5700073-3.75 2.8800049 4.5 4.6699829 9.75 5.0199585 15.4000244z" fill="#27a2db"/><path d="m92.528656 66.5543594c-.0061874-.0572586-.0088272-.1139526-.0088272-.1715317v-6.0114517c0-.9482307-.7880783-1.7204666-1.7350845-1.6718178-7.2731705.3739853-12.6011429-2.5101776-14.6410065-3.8354149-.5571823-.3620453-1.2676315-.3620453-1.8248062 0-2.0398407 1.3252373-7.367775 4.2094002-14.6409798 3.8354149-.9470062-.0486488-1.7350807.723587-1.7350807 1.6718178v6.0114517c0 .057579-.0026093.1142731-.0088348.1715317-.1428375 1.3174438-1.7336044 19.2570877 16.7665787 25.4402618.341774.1142654.7196884.1142654 1.0614624 0 18.500183-6.1831741 16.9094161-24.1228179 16.7665786-25.4402618z" fill="#fcd462"/><path d="m75.2313995 88.7426071c-6.6271057-2.2887268-11.002739-6.5533524-13.0127563-12.6867218-1.5756302-4.8076172-1.0732422-8.917038-1.0679588-8.9578781l.0199432-.1561737v-5.1016922c.1434364.0023994.2866287.0033607.4298248.0033607 6.45364 0 11.2951317-2.3684883 13.6309471-3.7989998 2.3358154 1.4309921 7.1773071 3.7994804 13.6314316 3.7989998.142952 0 .2861481-.0009613.4295807-.0033607v5.1016922l.0199432.1561737c.0807267.6597519 1.7796097 16.1570435-14.0809555 21.6445999z" fill="#ebf0f3"/><path d="m75.2286987 63.3097534c-.3300171 0-.6499634.039917-.9599609.119873-1.6700439.4300537-2.9100342 1.9500732-2.9100342 3.75v5.210083h7.7399902v-5.210083c0-2.1298827-1.7299804-3.869873-3.8699951-3.869873zm-2.4599609 3.8698731c0-.9099121.5-1.7099609 1.2399902-2.1398926.3599854-.210083.7699585-.3300781 1.2199707-.3300781 1.3599854 0 2.4700317 1.1101074 2.4700317 2.4699707v3.8100586h-4.9299927v-3.8100586z" fill="#3a556a"/><path d="m79.4917297 69.7935333h-8.5207672c-.5842133 0-1.0578079.4736023-1.0578079 1.0578156v7.7275238c0 .5842133.4735947 1.0578079 1.0578079 1.0578079h8.5207977c.584198 0 1.057785-.4735794 1.057785-1.0577774v-7.7275543c.0000001-.5842133-.4736022-1.0578156-1.0578155-1.0578156z" fill="#e56353"/><path d="m72.262138 71.745903h5.938413v5.938413h-5.938413z" fill="#d15241"/><path d="m76.3839645 74.0736084c0-.6365662-.5160599-1.1525955-1.152626-1.1525955s-1.1526031.5160294-1.1526031 1.1525955c0 .4827194.2973251.8948898.7183456 1.0665131v1.3690872h.8685455v-1.3691177c.42099-.1716614.718338-.5837937.718338-1.0664826z" fill="#2f4859"/></svg>