<svg enable-background="new 0 0 110 110" height="512" viewBox="0 0 110 110" width="512" xmlns="http://www.w3.org/2000/svg"><path d="m81.9754562 39.388237c-1.4253998-7.7174568-8.1853485-13.5648289-16.3154297-13.5648289-1.5288544 0-3.0076752.2109375-4.4135246.5979786-2.2310982-4.4766788-6.841526-7.5594139-12.1831932-7.5594139-5.9556999 0-11.0052567 3.8293438-12.8549461 9.1552868-1.2694473-.6748886-2.7162476-1.0603619-4.2541962-1.0603619-5.0145226 0-9.0795822 4.0650597-9.0795822 9.0795822 0 1.7401962.4982224 3.3602028 1.3471222 4.741478-5.562542 2.8242111-9.3767214 8.5952377-9.3767214 15.2607384 0 9.4491653 7.6600161 17.1092224 17.1091423 17.1092224h24.7235012 21.3681641c9.4491653 0 17.1092224-7.6600571 17.1092224-17.1092224-.000001-8.0962105-5.6254129-14.8740997-13.1795588-16.6504593z" fill="#d5d6db"/><path d="m81.9754562 41.959301c-1.4253998-7.7174568-8.1853485-13.5648308-16.3154297-13.5648308-1.5288544 0-3.0076752.2109375-4.4135246.5979805-2.2310982-4.4766788-6.841526-7.5594139-12.1831932-7.5594139-5.9556999 0-11.0052567 3.8293438-12.8549461 9.1552849-1.2694473-.6748886-2.7162476-1.0603619-4.2541962-1.0603619-5.0145226 0-9.0795822 4.0650616-9.0795822 9.0795841 0 1.7401962.4982224 3.3602028 1.3471222 4.741478-5.562542 2.8242111-9.3767214 8.5952377-9.3767214 15.2607384 0 9.4491692 7.6600161 17.1092186 17.1091423 17.1092186h24.7235012 21.3681641c9.4491653 0 17.1092224-7.6600494 17.1092224-17.1092186-.000001-8.0962105-5.6254129-14.8740997-13.1795588-16.6504593z" fill="#e1e6e9"/><path d="m77.6531372 63.9349899c-4.147049 4.147049-10.8737183 4.1501007-15.0238304-.0000191-4.1501007-4.1500969-4.147049-10.8767662 0-15.0238113 2.760601-2.7606049 6.6561241-3.6869278 10.1774254-2.7728653l-5.6224213 5.6224136 1.6103363 6.0089226 6.0089417 1.6103516 5.6224136-5.6224136c.9140625 3.5212974-.0122604 7.4168205-2.7728653 10.1774215z" fill="#3a556a"/><path d="m62.2552605 57.8783226-2.1900024 1.9199829-5.960022 5.2200356-4.1400146 3.6400146-5.1300049 4.4899902-5.8599854 5.1400146c-2.8699951 2.5099487-3.0100098 6.9299927-.3200073 9.6199951 2.6900024 2.6999512 7.1100464 2.5499878 9.6199951-.3200073l9.5500488-10.8900146.8599854-.9799805 2.25-2.5700073.6900024-.7900391 5.1400185-5.8599854 1.9199829-2.1900024zm-17.2900391 26.8500404c-.8699951.8699951-2.2699585.8699951-3.1300049 0-.8699951-.8600464-.8699951-2.2600098 0-3.1300049.8600464-.8600464 2.2600098-.8600464 3.1300049 0 .8600464.8699952.8600464 2.2699586 0 3.1300049z" fill="#3a556a"/><path d="m43.6409035 54.8052711-3.6564331 3.6564293 31.0560951 31.7435913c1.206955 1.234024 3.1892929 1.2449951 4.4098663.0244217s1.2095795-3.2028809-.0244217-4.4098663z" fill="#fcd462"/><path d="m61.2187614 80.1713943 9.821804 10.0338974c1.206955 1.234024 3.1892929 1.2449951 4.4098663.0244217s1.2095795-3.2028809-.0244217-4.4098663l-10.0496597-9.8060379z" fill="#3a556a"/><path d="m57.9252434 47.5383568-2.789978 2.789978-4.1300049.210022-.960022 5.2999878-6.1482086-2.4612503-2.5317841-6.2287521 5.2999878-.960022.2000122-4.1199951 2.789978-2.789978c.5300293-.5300293 1.3900146-.5300293 1.9200439 0l3.1799927 3.1699829 3.1699829 3.1699829c.5300294.5300292.5300294 1.3900146.0000001 1.9200439z" fill="#3a556a"/><path d="m49.6583748 39.2699623-2.7425079 2.7425079 8.2700615 8.2700577 2.7425041-2.7425079c.5295944-.5295944.5295944-1.3881836 0-1.917778l-6.3522797-6.3522797c-.5295944-.5295944-1.3881836-.5295944-1.917778 0z" fill="#64798a"/><path d="m31.8168602 76.5588226.0000019-.0000076c.2638416-.2638397.4345531-.6032486.4844418-.9730301.2710266-2.0088348 1.6469803-8.8894501 7.8464661-9.8523941l-.899826-7.1379013-7.7824211-1.5443459s-8.1270428 9.0159569-2.3410797 19.1596642c.5559367.9746399 1.8990057 1.1414185 2.692417.3480148z" fill="#3a556a"/><path d="m33.756664 50.303856h13.998225v12.278574h-13.998225z" fill="#64798a" transform="matrix(.707 -.707 .707 .707 -27.974 45.351)"/></svg>