<svg enable-background="new 0 0 110 110" height="512" viewBox="0 0 110 110" width="512" xmlns="http://www.w3.org/2000/svg"><path d="m84.9449768 81.5808105v5.1799927h-59.8899536v-5.1799927h27.3499756v-18.3900146h5.1900024v18.3900146z" fill="#3a556a"/><path d="m74.6123123 23.2391949h-39.220932c-1.7168694 0-3.1087036 1.3919735-3.1087036 3.1088409v39.220932c0 1.7168655 1.3918343 3.1087036 3.1087036 3.1087036h39.220932c1.7168732 0 3.1088409-1.3918381 3.1088409-3.1087036v-39.220932c.0000001-1.7168674-1.3919677-3.1088409-3.1088409-3.1088409z" fill="#64798a"/><path d="m70.5972443 29.7467098h-31.1907425v26.7747135h4.3394279v2.9068642h5.3714981v3.7584915h11.7688904v-3.7584915h5.3715019v-2.9068642h4.3394242z" fill="#3a556a"/><g fill="#fcd462"><path d="m39.406502 29.74671h3.323457v7.74365h-3.323457z"/><path d="m43.376843 29.74671h3.323457v7.74365h-3.323457z"/><path d="m47.347183 29.74671h3.323457v7.74365h-3.323457z"/><path d="m51.317524 29.74671h3.323457v7.74365h-3.323457z"/><path d="m55.287865 29.74671h3.323457v7.74365h-3.323457z"/><path d="m59.258209 29.74671h3.323457v7.74365h-3.323457z"/><path d="m63.22855 29.74671h3.323457v7.74365h-3.323457z"/><path d="m67.198891 29.74671h3.323457v7.74365h-3.323457z"/></g></svg>