<svg enable-background="new 0 0 110 110" height="512" viewBox="0 0 110 110" width="512" xmlns="http://www.w3.org/2000/svg"><path d="m88.0831451 85.6522217v3.8999023h-66.159975v-3.8999023h30.8599872v-20.1000977h4.4299927v20.1000977z" fill="#ebf0f3"/><path d="m32.3573189 21.8684921c-.0223465-.7908936-.6701241-1.4206142-1.4614582-1.4206142-.7914467 0-1.4391117.6297207-1.4614601 1.4206142l-1.0306721 32.8707161h4.9841537z" fill="#3a556a"/><path d="m80.5657043 21.8684921c-.0223541-.7908936-.6701279-1.4206142-1.4614639-1.4206142-.7914429 0-1.4391098.6297207-1.4614563 1.4206142l-1.0306701 32.8707161h4.9841537z" fill="#3a556a"/><path d="m89.1774368 50.5978127h-68.3548698c-1.1572971 0-2.095438.9380684-2.095438 2.0953674v16.0748787c0 1.1572952.9381409 2.0955124 2.095438 2.0955124h68.3548737c1.1572952 0 2.0954361-.9382172 2.0954361-2.0955124v-16.0748787c-.0000039-1.1572991-.9381447-2.0953674-2.09544-2.0953674z" fill="#64798a"/><path d="m27.798199 59.372482h54.403595v11.491093h-54.403595z" fill="#3a556a"/><path d="m37.2289009 62.5802727h-6.1235618v4.3173408h.8722801v.8405991h.5705223v.7774505h3.2379684v-.7774505h.5705109v-.8405991h.8722801z" fill="#d5d6db"/><path d="m33.2034721 67.8603058v-.7774506h-.5704956v-.8405914h-.8721752v-3.006527h4.8127422v3.006527h-.8723869v.8405914h-.5704956v.7774506z" fill="#474c5b"/><path d="m50.3742981 62.5802727h-6.123558v4.3173408h.8722763v.8405991h.5705261v.7774505h3.2379646v-.7774505h.5705109v-.8405991h.8722801z" fill="#d5d6db"/><path d="m46.3488731 67.8603058v-.7774506h-.5704994v-.8405914h-.8721733v-3.006527h4.8127403v3.006527h-.8723869v.8405914h-.5704956v.7774506z" fill="#474c5b"/><path d="m63.5196991 62.5802727h-6.1235619v4.3173408h.8722802v.8405991h.5705223v.7774505h3.2379684v-.7774505h.5705109v-.8405991h.8722801z" fill="#d5d6db"/><path d="m59.4942703 67.8603058v-.7774506h-.5704956v-.8405914h-.8721733v-3.006527h4.8127403v3.006527h-.8723869v.8405914h-.5704956v.7774506z" fill="#474c5b"/><path d="m76.6651001 62.5802727h-6.1235657v4.3173408h.872284v.8405991h.5705185v.7774505h3.2379684v-.7774505h.5705109v-.8405991h.8722839z" fill="#d5d6db"/><path d="m72.6396713 67.8603058v-.7774506h-.5704956v-.8405914h-.8721771v-3.006527h4.8127441v3.006527h-.8723907v.8405914h-.5704956v.7774506z" fill="#474c5b"/></svg>