<svg enable-background="new 0 0 110 110" height="512" viewBox="0 0 110 110" width="512" xmlns="http://www.w3.org/2000/svg"><path d="m39.94075 64.826492h2.419139v7.715091h-2.419139z" fill="#3a556a" transform="matrix(.707 .707 -.707 .707 60.62 -8.981)"/><path d="m64.886154 39.881088h2.419139v7.715091h-2.419139z" fill="#3a556a" transform="matrix(.707 .707 -.707 .707 50.287 -33.926)"/><path d="m27.5948906 83.1195145-.8800468-.8800507 7.2156181-8.0461578 1.7105903 1.7105865z" fill="#3a556a"/><path d="m57.042622 61.361561h11.765946v3.128066h-11.765946z" fill="#474c5b" transform="matrix(.707 .707 -.707 .707 62.926 -26.065)"/><path d="m89.3275299 76.9062042-18.8451919-18.8451881c-.3677063-.3677101-.9639435-.3677521-1.3316498-.000042l-11.0897141 11.0897141c-.3677101.3677063-.3676682.9639435.000042 1.3316498l18.8451881 18.845192c.3677139.3677063.963768.3675766 1.3314819-.0001297l11.0897141-11.0897141c.3677063-.367714.367836-.963768.0001297-1.331482z" fill="#64798a"/><g fill="#ebf0f3"><path d="m68.082672 60.757404h4.136059v4.136059h-4.136059z" transform="matrix(.707 .707 -.707 .707 64.971 -31.203)"/><path d="m71.685753 64.360489h4.136059v4.136059h-4.136059z" transform="matrix(.707 .707 -.707 .707 68.574 -32.695)"/><path d="m75.288841 67.963577h4.136059v4.136059h-4.136059z" transform="matrix(.707 .707 -.707 .707 72.177 -34.188)"/><path d="m78.89193 71.566666h4.136059v4.136059h-4.136059z" transform="matrix(.707 .707 -.707 .707 75.78 -35.68)"/><path d="m82.49501 75.169746h4.136059v4.136059h-4.136059z" transform="matrix(.707 .707 -.707 .707 79.383 -37.173)"/><path d="m64.420029 64.420044h4.136059v4.136059h-4.136059z" transform="matrix(.707 .707 -.707 .707 66.488 -27.54)"/><path d="m68.023117 68.023132h4.136059v4.136059h-4.136059z" transform="matrix(.707 .707 -.707 .707 70.091 -29.033)"/><path d="m71.626198 71.626221h4.136059v4.136059h-4.136059z" transform="matrix(.707 .707 -.707 .707 73.694 -30.525)"/><path d="m75.229286 75.229302h4.136059v4.136059h-4.136059z" transform="matrix(.707 .707 -.707 .707 77.297 -32.018)"/><path d="m78.832375 78.83239h4.136059v4.136059h-4.136059z" transform="matrix(.707 .707 -.707 .707 80.9 -33.51)"/><path d="m60.757389 68.082687h4.136059v4.136059h-4.136059z" transform="matrix(.707 .707 -.707 .707 68.005 -23.878)"/><path d="m64.360474 71.685776h4.136059v4.136059h-4.136059z" transform="matrix(.707 .707 -.707 .707 71.608 -25.37)"/><path d="m67.963562 75.288857h4.136059v4.136059h-4.136059z" transform="matrix(.707 .707 -.707 .707 75.211 -26.863)"/><path d="m71.566643 78.891945h4.136059v4.136059h-4.136059z" transform="matrix(.707 .707 -.707 .707 78.814 -28.355)"/><path d="m75.169731 82.495033h4.136059v4.136059h-4.136059z" transform="matrix(.707 .707 -.707 .707 82.418 -29.847)"/></g><path d="m41.191433 45.510372h11.765946v3.128066h-11.765946z" fill="#474c5b" transform="matrix(-.707 -.707 .707 -.707 47.074 113.648)"/><path d="m20.6724701 33.0937958 18.8451881 18.8451881c.3677101.3677101.9639435.3677521 1.3316536.000042l11.0897141-11.0897141c.3677101-.3677101.3676682-.9639435-.000042-1.3316536l-18.8451881-18.8451881c-.3677101-.3677101-.9637718-.3675804-1.33148.0001297l-11.089716 11.089716c-.3677101.3677082-.3678398.9637699-.0001297 1.33148z" fill="#64798a"/><g fill="#ebf0f3"><path d="m37.781273 45.106537h4.136059v4.136059h-4.136059z" transform="matrix(-.707 -.707 .707 -.707 34.67 108.71)"/><path d="m34.178185 41.503449h4.136059v4.136059h-4.136059z" transform="matrix(-.707 -.707 .707 -.707 31.066 100.011)"/><path d="m30.5751 37.900364h4.136059v4.136059h-4.136059z" transform="matrix(-.707 -.707 .707 -.707 27.463 91.312)"/><path d="m26.972014 34.297279h4.136059v4.136059h-4.136059z" transform="matrix(-.707 -.707 .707 -.707 23.86 82.614)"/><path d="m23.368929 30.694193h4.136059v4.136059h-4.136059z" transform="matrix(-.707 -.707 .707 -.707 20.257 73.915)"/><path d="m41.443913 41.443893h4.136059v4.136059h-4.136059z" transform="matrix(-.707 -.707 .707 -.707 43.512 105.047)"/><path d="m37.840828 37.840809h4.136059v4.136059h-4.136059z" transform="matrix(-.707 -.707 .707 -.707 39.909 96.348)"/><path d="m34.23774 34.237724h4.136059v4.136059h-4.136059z" transform="matrix(-.707 -.707 .707 -.707 36.306 87.65)"/><path d="m30.634655 30.634638h4.136059v4.136059h-4.136059z" transform="matrix(-.707 -.707 .707 -.707 32.703 78.951)"/><path d="m27.031569 27.031551h4.136059v4.136059h-4.136059z" transform="matrix(-.707 -.707 .707 -.707 29.1 70.253)"/><path d="m45.106552 37.781254h4.136059v4.136059h-4.136059z" transform="matrix(-.707 -.707 .707 -.707 52.354 101.384)"/><path d="m41.503468 34.178169h4.136059v4.136059h-4.136059z" transform="matrix(-.707 -.707 .707 -.707 48.751 92.686)"/><path d="m37.900383 30.575083h4.136059v4.136059h-4.136059z" transform="matrix(-.707 -.707 .707 -.707 45.148 83.987)"/><path d="m34.297295 26.971996h4.136059v4.136059h-4.136059z" transform="matrix(-.707 -.707 .707 -.707 41.545 75.289)"/><path d="m30.69421 23.368912h4.136059v4.136059h-4.136059z" transform="matrix(-.707 -.707 .707 -.707 37.942 66.59)"/></g><path d="m70.0277939 49.0226173-9.2160378-9.2160416c-.7945442-.7945442-2.0826912-.7945862-2.8771935-.0000839l-19.8152618 19.815258c-.7945023.7945061-.7944603 2.082653.0000877 2.8771973l9.2160378 9.2160416c.7945442.7945404 2.0826073.7945023 2.8771095 0l19.815258-19.8152618c.7945023-.7945023.7945481-2.0825653.0000001-2.8771096z" fill="#3a556a"/><path d="m50.112511 39.714832h7.922132v32.091896h-7.922132z" fill="#64798a" transform="matrix(.707 .707 -.707 .707 55.267 -21.904)"/><path d="m40.4319 69.4025421c-5.3070984-5.3070984-13.7545319-5.5351906-19.3475113-.710083l20.0575066 20.0575104c4.8251076-5.5929794 4.5971031-14.040329-.7099953-19.3474274z" fill="#d5d6db"/><path d="m40.4318848 69.4025269c-3.6035538-3.6035538-10.6585941-2.4392548-16.1283321 2.5090942l13.6191807 13.6191788c4.9483451-5.4697342 6.1127051-12.5247116 2.5091514-16.128273z" fill="#ebf0f3"/><path d="m70.7592621 34.938652-2.640564.3841209c-.3357391.0488396-.6235123.2652512-.7636108.5742493l-2.0943909 4.6193848c-.1712646.3777466-.0904694.822094.2028046 1.1153717l2.7390976 2.73909c.2932739.2932816.7376251.3740768 1.1153717.2028084l4.6193848-2.0943909c.3089905-.1400986.5254059-.4278717.5742493-.7636108l.3841171-2.6405602c.0452499-.3110695-.059021-.6252441-.2812958-.8475151l-3.0076523-3.0076485c-.2222748-.2222748-.5364456-.3265533-.8475113-.2812996z" fill="#ebf0f3"/><path d="m28.0503139 81.7841263c-.5967083-.5967026-1.564146-.5967026-2.1608524 0-.5967083.5967102-.5967083 1.5641479 0 2.1608582.5966206.5966187 1.5640583.5966187 2.1607666-.0000916.5967083-.5967026.5967083-1.5641403.0000858-2.1607666z" fill="#3a556a"/></svg>