<svg enable-background="new 0 0 110 110" height="512" viewBox="0 0 110 110" width="512" xmlns="http://www.w3.org/2000/svg"><path d="m20.246475 45.800957h69.50705v3.072431h-69.50705z" fill="#2f4859"/><path d="m92.845253 22.592186h-75.690506c-1.1905861 0-2.1557789.9651241-2.1557789 2.1557102v19.4196377c0 1.1905861.9651928 2.155777 2.1557789 2.155777h75.690506c1.1905899 0 2.155777-.9651909 2.155777-2.155777v-19.4196377c0-1.1905861-.9651871-2.1557102-2.155777-2.1557102z" fill="#3a556a"/><g fill="#2f4859"><path d="m20.190275 26.184616h7.502884v1.172326h-7.502884z"/><path d="m20.190275 28.763731h7.502884v1.172326h-7.502884z"/><path d="m20.190275 31.342848h7.502884v1.172326h-7.502884z"/><path d="m20.190275 33.921963h7.502884v1.172326h-7.502884z"/><path d="m20.190275 36.50108h7.502884v1.172326h-7.502884z"/><path d="m20.190275 39.080196h7.502884v1.172326h-7.502884z"/><path d="m20.190275 41.659313h7.502884v1.172326h-7.502884z"/><path d="m30.037809 26.184616h7.502884v1.172326h-7.502884z"/><path d="m30.037809 28.763731h7.502884v1.172326h-7.502884z"/><path d="m30.037809 31.342848h7.502884v1.172326h-7.502884z"/><path d="m30.037809 33.921963h7.502884v1.172326h-7.502884z"/><path d="m30.037809 36.50108h7.502884v1.172326h-7.502884z"/><path d="m30.037809 39.080196h7.502884v1.172326h-7.502884z"/><path d="m30.037809 41.659313h7.502884v1.172326h-7.502884z"/><path d="m39.885346 26.184616h7.502884v1.172326h-7.502884z"/><path d="m39.885346 28.763731h7.502884v1.172326h-7.502884z"/><path d="m39.885346 31.342848h7.502884v1.172326h-7.502884z"/><path d="m39.885346 33.921963h7.502884v1.172326h-7.502884z"/><path d="m39.885346 36.50108h7.502884v1.172326h-7.502884z"/><path d="m39.885346 39.080196h7.502884v1.172326h-7.502884z"/><path d="m39.885346 41.659313h7.502884v1.172326h-7.502884z"/><path d="m49.73288 26.184616h7.502884v1.172326h-7.502884z"/><path d="m49.73288 28.763731h7.502884v1.172326h-7.502884z"/><path d="m49.73288 31.342848h7.502884v1.172326h-7.502884z"/><path d="m49.73288 33.921963h7.502884v1.172326h-7.502884z"/><path d="m49.73288 36.50108h7.502884v1.172326h-7.502884z"/><path d="m49.73288 39.080196h7.502884v1.172326h-7.502884z"/><path d="m49.73288 41.659313h7.502884v1.172326h-7.502884z"/><path d="m70.4451218 30.5890408c-2.3724213 0-4.2956161 1.9232655-4.2956161 4.2956829 0 2.3724213 1.9231949 4.29562 4.2956161 4.29562s4.2956848-1.9231987 4.2956848-4.29562c0-2.3724175-1.9232636-4.2956829-4.2956848-4.2956829z"/><path d="m83.3320541 30.5890408c-2.3724213 0-4.2956161 1.9232655-4.2956161 4.2956829 0 2.3724213 1.9231949 4.29562 4.2956161 4.29562s4.2956848-1.9231987 4.2956848-4.29562c.0000001-2.3724175-1.9232635-4.2956829-4.2956848-4.2956829z"/></g><path d="m92.845253 48.1940765h-75.690506c-1.1905861 0-2.1557789.965126-2.1557789 2.1557083v19.4196396c0 1.1905823.9651928 2.155777 2.1557789 2.155777h75.690506c1.1905899 0 2.155777-.9651947 2.155777-2.155777v-19.4196395c0-1.1905823-.9651871-2.1557084-2.155777-2.1557084z" fill="#3a556a"/><g fill="#2f4859"><path d="m20.190275 51.786507h7.502884v1.172326h-7.502884z"/><path d="m20.190275 54.365624h7.502884v1.172326h-7.502884z"/><path d="m20.190275 56.94474h7.502884v1.172326h-7.502884z"/><path d="m20.190275 59.523857h7.502884v1.172326h-7.502884z"/><path d="m20.190275 62.10297h7.502884v1.172326h-7.502884z"/><path d="m20.190275 64.682091h7.502884v1.172326h-7.502884z"/><path d="m20.190275 67.261208h7.502884v1.172326h-7.502884z"/><path d="m30.037809 51.786507h7.502884v1.172326h-7.502884z"/><path d="m30.037809 54.365624h7.502884v1.172326h-7.502884z"/><path d="m30.037809 56.94474h7.502884v1.172326h-7.502884z"/><path d="m30.037809 59.523857h7.502884v1.172326h-7.502884z"/><path d="m30.037809 62.10297h7.502884v1.172326h-7.502884z"/><path d="m30.037809 64.682091h7.502884v1.172326h-7.502884z"/><path d="m30.037809 67.261208h7.502884v1.172326h-7.502884z"/><path d="m39.885346 51.786507h7.502884v1.172326h-7.502884z"/><path d="m39.885346 54.365624h7.502884v1.172326h-7.502884z"/><path d="m39.885346 56.94474h7.502884v1.172326h-7.502884z"/><path d="m39.885346 59.523857h7.502884v1.172326h-7.502884z"/><path d="m39.885346 62.10297h7.502884v1.172326h-7.502884z"/><path d="m39.885346 64.682091h7.502884v1.172326h-7.502884z"/><path d="m39.885346 67.261208h7.502884v1.172326h-7.502884z"/><path d="m49.73288 51.786507h7.502884v1.172326h-7.502884z"/><path d="m49.73288 54.365624h7.502884v1.172326h-7.502884z"/><path d="m49.73288 56.94474h7.502884v1.172326h-7.502884z"/><path d="m49.73288 59.523857h7.502884v1.172326h-7.502884z"/><path d="m49.73288 62.10297h7.502884v1.172326h-7.502884z"/><path d="m49.73288 64.682091h7.502884v1.172326h-7.502884z"/><path d="m49.73288 67.261208h7.502884v1.172326h-7.502884z"/><path d="m70.4451218 56.1909332c-2.3724213 0-4.2956161 1.9232635-4.2956161 4.2956848 0 2.3724174 1.9231949 4.2956161 4.2956161 4.2956161s4.2956848-1.9231987 4.2956848-4.2956161c0-2.3724212-1.9232636-4.2956848-4.2956848-4.2956848z"/><path d="m83.3320541 56.1909332c-2.3724213 0-4.2956161 1.9232635-4.2956161 4.2956848 0 2.3724174 1.9231949 4.2956161 4.2956161 4.2956161s4.2956848-1.9231987 4.2956848-4.2956161c.0000001-2.3724212-1.9232635-4.2956848-4.2956848-4.2956848z"/></g><circle cx="51.68" cy="53.388" fill="#fff" opacity=".15" r="13.892"/><path d="m63.271416 63.419903h3.477655v6.595553h-3.477655z" fill="#dc8744" transform="matrix(.707 -.707 .707 .707 -28.135 65.51)"/><path d="m68.0539474 48.1985321c-.2200317-.6399536-.4800415-1.2699585-.7800293-1.8800049-.5999756-1.2299805-1.3499756-2.4099731-2.2799683-3.4899902-.3000488-.3699951-.6300049-.7299805-.9700317-1.0700073-1.9699707-1.9699707-4.3099976-3.3599854-6.789978-4.1499634-2.4299927-.7800293-5-1-7.5-.6500244-.7900391.1000366-1.5800171.2600098-2.3500366.4800415-.2399902.0699463-.4899902.1499634-.7299805.2299805-1.0700073.3599854-2.1199951.8300171-3.1199951 1.4099731-.6000366.3500366-1.1900024.7399902-1.75 1.1700439-.5599976.4299927-1.1000366.8899536-1.6199951 1.4099731-.0400391.0300293-.0700073.0599976-.1099854.0999756-.0599976.0599976-.1200562.1200562-.1700439.1800537-.289978.289978-.5499878.5799561-.7999878.8899536-.9299927 1.0800171-1.6900024 2.2600098-2.289978 3.4899902-.2999878.6100464-.5599976 1.2400513-.7800293 1.8800049-.3999634 1.1700439-.6799927 2.3699951-.8099976 3.5900269-.0499878.3900146-.0800171.7799683-.0999756 1.1699829-.0200195.460022-.0200195.9400024 0 1.4100342.0100098.3899536.0299683.7799683.0799561 1.1699829.0500488.4699707.1200562.9500122.210022 1.4099731.0700073.3900146.1600342.7800293.2700195 1.1700439.1199951.4799805.2699585.9499512.4400024 1.4099731.1400146.4000244.2999878.789978.4699707 1.1699829.2200317.4800415.4500122.9400024.710022 1.4000244.0800171.1400146.1699829.289978.2600098.4299927.6399536 1.0700073 1.4299927 2.0900269 2.3399658 3.0200195.0499878.0599976.1100464.1199951.1700439.1799927.0499878.0499878.0899658.0899658.1399536.1300049.5200195.5100098 1.0599976.9799805 1.6199951 1.3999634.5700073.4400024 1.1600342.8200073 1.7600098 1.1699829 5.9899902 3.460022 13.6500244 2.9500122 19.1500244-1.5299683.4500122-.3599854.8800049-.75 1.2999878-1.1699829.4099731-.4100342.7999878-.8400269 1.1599731-1.289978.5300293-.6500244 1.0100098-1.3300171 1.4300537-2.0300293 1.0899658-1.8300171 1.7999878-3.8300171 2.1399536-5.8699951.1199951-.7200317.1900024-1.4400024.210022-2.1699829.0900269-2.0900267-.2199706-4.1799925-.9099731-6.1700438zm-6.8800048 14.6900024c-1.1700439 1.1700439-2.5100098 2.0700073-3.9400024 2.6900024-.2300415.1000366-.4500122.2000122-.6799927.2800293-2.9500122 1.0999756-6.2300415 1.0800171-9.1700439-.0499878-.7699585-.3000488-1.5199585-.6700439-2.2299805-1.1300049-.6500244-.4000244-1.2600098-.8699951-1.8400269-1.4000244-.1399536-.1199951-.2799683-.2600098-.4099731-.3900146-.2600098-.2599487-.5-.5199585-.7299805-.789978-.3800049-.4500122-.7200317-.9099731-1.0300293-1.4000244-.2399902-.3800049-.4699707-.7699585-.6599731-1.1699829-.2399902-.460022-.4400024-.9299927-.6000366-1.4099731-.4500122-1.210022-.6900024-2.4800415-.7600098-3.75-.0899658-2.1000366.3200073-4.2200317 1.2400513-6.1700439.3099976-.6499634.6799927-1.2799683 1.0999756-1.8800049.4199829-.5999756.9000244-1.1699829 1.4400024-1.7099609.6900024-.6900024 1.4299927-1.2800293 2.2199707-1.7800293.7200317-.4599609 1.4800415-.8399658 2.2600098-1.1399536 2.960022-1.1500244 6.2600098-1.1600342 9.2300415-.0300293.2099609.0800171.4099731.1599731.6199951.25.5899658.2600098 1.1699829.5700073 1.7199707.9199829.7900391.5 1.5300293 1.0900269 2.2200317 1.7800293.539978.539978 1.0199585 1.1099854 1.4400024 1.7099609.4299927.6000366.7999878 1.2300415 1.0999756 1.8800049.9199829 1.9500122 1.3300171 4.0700073 1.2399902 6.1700439-.1499634 3.0999755-1.4099731 6.1599731-3.7799682 8.5199584z" fill="#e6e9ef"/><path d="m70.292625 64.744949h8.514259v23.024475h-8.514259z" fill="#f7be56" transform="matrix(.707 -.707 .707 .707 -32.087 75.05)"/></svg>