<svg enable-background="new 0 0 110 110" height="512" viewBox="0 0 110 110" width="512" xmlns="http://www.w3.org/2000/svg"><path d="m38.698986 38.777008h48.646221v21.781719h-48.646221z" fill="#474c5b"/><path d="m88.1559982 24.9982929h-50.3493805c-1.0105896 0-1.8297997.819212-1.8297997 1.8297997v11.5892506c0 1.0105896.8192101 1.8298645 1.8297997 1.8298645h50.3493805c1.0105896 0 1.8298645-.8192749 1.8298645-1.8298645v-11.5892506c0-1.0105877-.8192749-1.8297997-1.8298645-1.8297997z" fill="#3a556a"/><g fill="#64798a"><path d="m39.535561 28.441046h27.642716v1.689948h-27.642716z"/><path d="m39.535561 31.777777h27.642716v1.689948h-27.642716z"/><path d="m39.535561 35.114506h27.642716v1.689948h-27.642716z"/></g><path d="m75.0266266 30.1309681c-1.376152 0-2.4917526 1.1155949-2.4917526 2.4917507 0 1.3762207 1.1156006 2.4918137 2.4917526 2.4918137 1.3761597 0 2.4917526-1.115593 2.4917526-2.4918137 0-1.3761558-1.1155929-2.4917507-2.4917526-2.4917507z" fill="#e56353"/><path d="m82.6853409 30.1309681c-1.3761597 0-2.4917526 1.1155949-2.4917526 2.4917507 0 1.3762207 1.115593 2.4918137 2.4917526 2.4918137 1.376152 0 2.4917526-1.115593 2.4917526-2.4918137 0-1.3761558-1.1156006-2.4917507-2.4917526-2.4917507z" fill="#27a2db"/><path d="m88.1559982 41.0571365h-50.3493805c-1.0105896 0-1.8297997.8192101-1.8297997 1.8297958v11.5892525c0 1.0105896.8192101 1.8298645 1.8297997 1.8298645h50.3493805c1.0105896 0 1.8298645-.8192749 1.8298645-1.8298645v-11.5892524c0-1.0105858-.8192749-1.8297959-1.8298645-1.8297959z" fill="#3a556a"/><g fill="#64798a"><path d="m39.535561 44.499886h27.642716v1.689948h-27.642716z"/><path d="m39.535561 47.836617h27.642716v1.689948h-27.642716z"/><path d="m39.535561 51.173348h27.642716v1.689948h-27.642716z"/></g><path d="m75.0266266 46.1898079c-1.376152 0-2.4917526 1.1155968-2.4917526 2.4917526 0 1.3762169 1.1156006 2.4918137 2.4917526 2.4918137 1.3761597 0 2.4917526-1.1155968 2.4917526-2.4918137 0-1.3761558-1.1155929-2.4917526-2.4917526-2.4917526z" fill="#e56353"/><path d="m82.6853409 46.1898079c-1.3761597 0-2.4917526 1.1155968-2.4917526 2.4917526 0 1.3762169 1.115593 2.4918137 2.4917526 2.4918137 1.376152 0 2.4917526-1.1155968 2.4917526-2.4918137 0-1.3761558-1.1156006-2.4917526-2.4917526-2.4917526z" fill="#27a2db"/><path d="m88.1559982 57.1159782h-50.3493805c-1.0105896 0-1.8297997.8192101-1.8297997 1.8297958v11.5892525c0 1.0105896.8192101 1.8298645 1.8297997 1.8298645h50.3493805c1.0105896 0 1.8298645-.8192749 1.8298645-1.8298645v-11.5892524c0-1.0105858-.8192749-1.8297959-1.8298645-1.8297959z" fill="#3a556a"/><path d="m39.535561 60.558727h27.642716v1.689948h-27.642716z" fill="#64798a"/><path d="m39.535561 63.895458h27.642716v1.689948h-27.642716z" fill="#64798a"/><path d="m39.535561 67.232193h27.642716v1.689948h-27.642716z" fill="#64798a"/><path d="m75.0266266 62.2486496c-1.376152 0-2.4917526 1.1155968-2.4917526 2.4917526 0 1.3762207 1.1156006 2.4918137 2.4917526 2.4918137 1.3761597 0 2.4917526-1.115593 2.4917526-2.4918137 0-1.3761558-1.1155929-2.4917526-2.4917526-2.4917526z" fill="#e56353"/><path d="m82.6853409 62.2486496c-1.3761597 0-2.4917526 1.1155968-2.4917526 2.4917526 0 1.3762207 1.115593 2.4918137 2.4917526 2.4918137 1.376152 0 2.4917526-1.115593 2.4917526-2.4918137 0-1.3761558-1.1156006-2.4917526-2.4917526-2.4917526z" fill="#27a2db"/><path d="m38.5470963 46.1691093s-5.340004 3.4378395-18.532959 3.4104652v10.6299286s.3141308 20.753624 18.532959 24.7922058c18.2188301-4.0385818 18.5329628-24.7922058 18.5329628-24.7922058v-10.6299285c-13.1929551.0273743-18.5329628-3.4104653-18.5329628-3.4104653z" fill="#e56353"/><path d="m38.5475464 81.2302628c-14.4356422-3.8016434-14.8649769-20.9007072-14.867363-21.0761414l.0002975-6.9895782c7.6546135-.3636971 12.4172668-1.8659172 14.866169-2.9092674 2.4492035 1.0436478 7.2100639 2.5458679 14.867363 2.9092674v7.0044975c-.0259552 1.0167961-.6715965 17.3329735-14.8664665 21.0612221z" fill="#ebf0f3"/><path d="m52.6227379 65.5853806c.6973343-2.8696404.7822495-5.0637436.7912827-5.4163589v-7.0044861c-7.6568375-.3634224-12.4176216-1.8654976-14.8669167-2.9090652v15.3299103h14.075634z" fill="#ebf0f3"/><path d="m38.5471039 50.2554703c-.0001259-.0000648-.0003166-.0001259-.0004425-.0001907-2.4489136 1.0433159-7.2115974 2.5455818-14.8661594 2.909256l-.0003167 6.9895744c.000885.0636253.0616016 2.3573647.8224964 5.4312706h14.0444221v-15.3299103z" fill="#44c4a1"/><path d="m38.5471039 65.5853806v15.6447449c.0001259.000061.0003166.000061.0004425.0001297 9.272007-2.4352722 12.7617111-10.2400131 14.0751915-15.6448746z" fill="#44c4a1"/><path d="m24.5026817 65.5853806c1.3372364 5.401825 4.8443775 13.2217331 14.0444221 15.6447449v-15.6447449z" fill="#ebf0f3"/></svg>