<svg enable-background="new 0 0 110 110" height="512" viewBox="0 0 110 110" width="512" xmlns="http://www.w3.org/2000/svg"><path d="m41.875897 41.400269h45.781662v7.189389h-45.781662z" fill="#2f4859"/><path d="m88.9646378 26.8159199h-48.3958245c-.8595161 0-1.556263.6967869-1.556263 1.5562611v13.2390289c0 .8595161.6967468 1.5562592 1.556263 1.5562592h48.3958244c.8594742 0 1.5562668-.696743 1.5562668-1.5562592v-13.239029c0-.8594741-.6967926-1.556261-1.5562667-1.556261z" fill="#3a556a"/><g fill="#2f4859"><path d="m42.269619 29.4667h1.787796v1.787796h-1.787796z"/><path d="m45.998451 29.4667h1.787796v1.787796h-1.787796z"/><path d="m49.72728 29.4667h1.787796v1.787796h-1.787796z"/><path d="m53.456112 29.4667h1.787796v1.787796h-1.787796z"/><path d="m57.184944 29.4667h1.787796v1.787796h-1.787796z"/><path d="m60.913776 29.4667h1.787796v1.787796h-1.787796z"/><path d="m42.269619 32.5541h1.787796v1.787796h-1.787796z"/><path d="m45.998451 32.5541h1.787796v1.787796h-1.787796z"/><path d="m49.72728 32.5541h1.787796v1.787796h-1.787796z"/><path d="m53.456112 32.5541h1.787796v1.787796h-1.787796z"/><path d="m57.184944 32.5541h1.787796v1.787796h-1.787796z"/><path d="m60.913776 32.5541h1.787796v1.787796h-1.787796z"/><path d="m42.269619 35.641502h1.787796v1.787796h-1.787796z"/><path d="m45.998451 35.641502h1.787796v1.787796h-1.787796z"/><path d="m49.72728 35.641502h1.787796v1.787796h-1.787796z"/><path d="m53.456112 35.641502h1.787796v1.787796h-1.787796z"/><path d="m57.184944 35.641502h1.787796v1.787796h-1.787796z"/><path d="m60.913776 35.641502h1.787796v1.787796h-1.787796z"/><path d="m42.269619 38.728901h1.787796v1.787796h-1.787796z"/><path d="m45.998451 38.728901h1.787796v1.787796h-1.787796z"/><path d="m49.72728 38.728901h1.787796v1.787796h-1.787796z"/><path d="m53.456112 38.728901h1.787796v1.787796h-1.787796z"/><path d="m57.184944 38.728901h1.787796v1.787796h-1.787796z"/><path d="m60.913776 38.728901h1.787796v1.787796h-1.787796z"/></g><ellipse cx="72.875" cy="34.992" fill="#d5d6db" rx="3.737" ry="3.737" transform="matrix(.383 -.924 .924 .383 12.659 88.929)"/><ellipse cx="72.875" cy="34.992" fill="#e56353" rx="2.273" ry="2.273" transform="matrix(.383 -.924 .924 .383 12.659 88.929)"/><ellipse cx="83.253" cy="34.992" fill="#d5d6db" rx="3.737" ry="3.737" transform="matrix(.383 -.924 .924 .383 19.065 98.516)"/><ellipse cx="83.253" cy="34.992" fill="#44c4a1" rx="2.273" ry="2.273" transform="matrix(.383 -.924 .924 .383 19.065 98.516)"/><path d="m88.9646378 44.6232071h-48.3958245c-.8595161 0-1.556263.696785-1.556263 1.556263v13.2390251c0 .8595161.6967468 1.556263 1.556263 1.556263h48.3958244c.8594742 0 1.5562668-.6967468 1.5562668-1.556263v-13.2390251c0-.859478-.6967926-1.556263-1.5562667-1.556263z" fill="#3a556a"/><g fill="#2f4859"><path d="m42.269619 47.273987h1.787796v1.787796h-1.787796z"/><path d="m45.998451 47.273987h1.787796v1.787796h-1.787796z"/><path d="m49.72728 47.273987h1.787796v1.787796h-1.787796z"/><path d="m53.456112 47.273987h1.787796v1.787796h-1.787796z"/><path d="m57.184944 47.273987h1.787796v1.787796h-1.787796z"/><path d="m60.913776 47.273987h1.787796v1.787796h-1.787796z"/><path d="m42.269619 50.361389h1.787796v1.787796h-1.787796z"/><path d="m45.998451 50.361389h1.787796v1.787796h-1.787796z"/><path d="m49.72728 50.361389h1.787796v1.787796h-1.787796z"/><path d="m53.456112 50.361389h1.787796v1.787796h-1.787796z"/><path d="m57.184944 50.361389h1.787796v1.787796h-1.787796z"/><path d="m60.913776 50.361389h1.787796v1.787796h-1.787796z"/><path d="m42.269619 53.448788h1.787796v1.787796h-1.787796z"/><path d="m45.998451 53.448788h1.787796v1.787796h-1.787796z"/><path d="m49.72728 53.448788h1.787796v1.787796h-1.787796z"/><path d="m53.456112 53.448788h1.787796v1.787796h-1.787796z"/><path d="m57.184944 53.448788h1.787796v1.787796h-1.787796z"/><path d="m60.913776 53.448788h1.787796v1.787796h-1.787796z"/><path d="m42.269619 56.53619h1.787796v1.787796h-1.787796z"/><path d="m45.998451 56.53619h1.787796v1.787796h-1.787796z"/><path d="m49.72728 56.53619h1.787796v1.787796h-1.787796z"/><path d="m53.456112 56.53619h1.787796v1.787796h-1.787796z"/><path d="m57.184944 56.53619h1.787796v1.787796h-1.787796z"/><path d="m60.913776 56.53619h1.787796v1.787796h-1.787796z"/></g><ellipse cx="72.875" cy="52.799" fill="#d5d6db" rx="3.737" ry="3.737" transform="matrix(.383 -.924 .924 .383 -3.793 99.921)"/><ellipse cx="72.875" cy="52.799" fill="#f7be56" rx="2.273" ry="2.273" transform="matrix(.383 -.924 .924 .383 -3.793 99.921)"/><ellipse cx="83.253" cy="52.799" fill="#d5d6db" rx="3.737" ry="3.737" transform="matrix(.383 -.924 .924 .383 2.613 109.509)"/><ellipse cx="83.253" cy="52.799" fill="#27a2db" rx="2.273" ry="2.273" transform="matrix(.383 -.924 .924 .383 2.613 109.509)"/><path d="m31.3496246 69.1707611 18.9125977-4.5337143 14.4258957 1.9835587c1.180687.1623459 2.0603561 1.1712494 2.0603561 2.3630447 0 1.3173523-1.0679245 2.3852844-2.3852768 2.3852844h-6.185154l-6.4045792 1.5112381 21.7551003 2.2745895c.3766251.0393753.7550735-.0552444 1.06884-.2672424l8.3541031-5.6443024c1.4647598-.9896469 3.3266907-1.183342 4.9637909-.5163727.5243378.213623.6702271.887413.2812119 1.29879l-9.5847778 10.1356277c-1.0010223 1.058548-2.3708344 1.6915207-3.825737 1.7678223l-23.929451 1.2549973-20.6695957-2.8850937z" fill="#fcd462"/><path d="m19.479097 65.978149h19.143393v16.584587h-19.143393z" fill="#4d5c7d"/></svg>