<svg enable-background="new 0 0 110 110" height="512" viewBox="0 0 110 110" width="512" xmlns="http://www.w3.org/2000/svg"><path d="m52.642876 74.093491h5.190984v15.282603h-5.190984z" fill="#2f4859"/><path d="m52.642876 69.948853h5.190984v36.47871h-5.190984z" fill="#2f4859" transform="matrix(0 1 -1 0 143.427 32.95)"/><path d="m33.233555 35.303093h43.532887v25.857502h-43.532887z" fill="#2f4859"/><path d="m76.8510208 38.2290802h-43.7020454c-5.250227 0-9.5063801-4.2561493-9.5063801-9.5063782v-.000019c0-5.2502289 4.2561531-9.506382 9.5063801-9.506382h43.7020454c5.2502289 0 9.5063858 4.2561531 9.5063858 9.506382v.0000191c0 5.2502288-4.2561569 9.5063781-9.5063858 9.5063781z" fill="#64798a"/><circle cx="32.551" cy="28.723" fill="#ebf0f3" r="4.191"/><circle cx="32.551" cy="28.723" fill="#e56353" r="2.762"/><circle cx="45.786" cy="28.723" fill="#ebf0f3" r="4.191"/><circle cx="45.786" cy="28.723" fill="#27a2db" r="2.762"/><g fill="#3a556a"><path d="m64.475395 23.847529h1.976659v1.976659h-1.976659z"/><path d="m66.385567 25.757704h1.976659v1.976659h-1.976659z"/><path d="m68.362228 23.847529h1.976659v1.976659h-1.976659z"/><path d="m70.272408 25.757704h1.976659v1.976659h-1.976659z"/><path d="m72.249062 23.847529h1.976659v1.976659h-1.976659z"/><path d="m74.159241 25.757704h1.976659v1.976659h-1.976659z"/><path d="m76.135895 23.847529h1.976659v1.976659h-1.976659z"/><path d="m64.475395 27.734362h1.976659v1.976659h-1.976659z"/><path d="m66.385567 29.644537h1.976659v1.976659h-1.976659z"/><path d="m68.362228 27.734362h1.976659v1.976659h-1.976659z"/><path d="m70.272408 29.644537h1.976659v1.976659h-1.976659z"/><path d="m72.249062 27.734362h1.976659v1.976659h-1.976659z"/><path d="m74.159241 29.644537h1.976659v1.976659h-1.976659z"/><path d="m76.135895 27.734362h1.976659v1.976659h-1.976659z"/><path d="m64.475395 31.621197h1.976659v1.976659h-1.976659z"/><path d="m68.362228 31.621197h1.976659v1.976659h-1.976659z"/><path d="m72.249062 31.621197h1.976659v1.976659h-1.976659z"/><path d="m76.135895 31.621197h1.976659v1.976659h-1.976659z"/></g><path d="m76.8510208 58.4768982h-43.7020454c-5.250227 0-9.5063801-4.2561531-9.5063801-9.506382v-.0000191c0-5.2502289 4.2561531-9.5063782 9.5063801-9.5063782h43.7020454c5.2502289 0 9.5063858 4.2561493 9.5063858 9.5063782v.0000191c0 5.2502289-4.2561569 9.506382-9.5063858 9.506382z" fill="#64798a"/><circle cx="32.551" cy="48.971" fill="#ebf0f3" r="4.191"/><circle cx="32.551" cy="48.971" fill="#e56353" r="2.762"/><circle cx="45.786" cy="48.971" fill="#ebf0f3" r="4.191"/><circle cx="45.786" cy="48.971" fill="#27a2db" r="2.762"/><g fill="#3a556a"><path d="m64.475395 44.095345h1.976659v1.976659h-1.976659z"/><path d="m66.385567 46.00552h1.976659v1.976659h-1.976659z"/><path d="m68.362228 44.095345h1.976659v1.976659h-1.976659z"/><path d="m70.272408 46.00552h1.976659v1.976659h-1.976659z"/><path d="m72.249062 44.095345h1.976659v1.976659h-1.976659z"/><path d="m74.159241 46.00552h1.976659v1.976659h-1.976659z"/><path d="m76.135895 44.095345h1.976659v1.976659h-1.976659z"/><path d="m64.475395 47.982178h1.976659v1.976659h-1.976659z"/><path d="m66.385567 49.892353h1.976659v1.976659h-1.976659z"/><path d="m68.362228 47.982178h1.976659v1.976659h-1.976659z"/><path d="m70.272408 49.892353h1.976659v1.976659h-1.976659z"/><path d="m72.249062 47.982178h1.976659v1.976659h-1.976659z"/><path d="m74.159241 49.892353h1.976659v1.976659h-1.976659z"/><path d="m76.135895 47.982178h1.976659v1.976659h-1.976659z"/><path d="m64.475395 51.869011h1.976659v1.976659h-1.976659z"/><path d="m68.362228 51.869011h1.976659v1.976659h-1.976659z"/><path d="m72.249062 51.869011h1.976659v1.976659h-1.976659z"/><path d="m76.135895 51.869011h1.976659v1.976659h-1.976659z"/></g><path d="m76.8510208 78.7247162h-43.7020454c-5.250227 0-9.5063801-4.2561493-9.5063801-9.5063858v-.0000153c0-5.2502289 4.2561531-9.506382 9.5063801-9.506382h43.7020454c5.2502289 0 9.5063858 4.2561531 9.5063858 9.506382v.0000153c0 5.2502365-4.2561569 9.5063858-9.5063858 9.5063858z" fill="#64798a"/><circle cx="32.551" cy="69.218" fill="#ebf0f3" r="4.191"/><circle cx="32.551" cy="69.218" fill="#e56353" r="2.762"/><circle cx="45.786" cy="69.218" fill="#ebf0f3" r="4.191"/><circle cx="45.786" cy="69.218" fill="#27a2db" r="2.762"/><path d="m64.475395 64.343163h1.976659v1.976659h-1.976659z" fill="#3a556a"/><path d="m66.385567 66.253334h1.976659v1.976659h-1.976659z" fill="#3a556a"/><path d="m68.362228 64.343163h1.976659v1.976659h-1.976659z" fill="#3a556a"/><path d="m70.272408 66.253334h1.976659v1.976659h-1.976659z" fill="#3a556a"/><path d="m72.249062 64.343163h1.976659v1.976659h-1.976659z" fill="#3a556a"/><path d="m74.159241 66.253334h1.976659v1.976659h-1.976659z" fill="#3a556a"/><path d="m76.135895 64.343163h1.976659v1.976659h-1.976659z" fill="#3a556a"/><path d="m64.475395 68.229996h1.976659v1.976659h-1.976659z" fill="#3a556a"/><path d="m66.385567 70.140167h1.976659v1.976659h-1.976659z" fill="#3a556a"/><path d="m68.362228 68.229996h1.976659v1.976659h-1.976659z" fill="#3a556a"/><path d="m70.272408 70.140167h1.976659v1.976659h-1.976659z" fill="#3a556a"/><path d="m72.249062 68.229996h1.976659v1.976659h-1.976659z" fill="#3a556a"/><path d="m74.159241 70.140167h1.976659v1.976659h-1.976659z" fill="#3a556a"/><path d="m76.135895 68.229996h1.976659v1.976659h-1.976659z" fill="#3a556a"/><path d="m64.475395 72.116829h1.976659v1.976659h-1.976659z" fill="#3a556a"/><path d="m68.362228 72.116829h1.976659v1.976659h-1.976659z" fill="#3a556a"/><path d="m72.249062 72.116829h1.976659v1.976659h-1.976659z" fill="#3a556a"/><path d="m76.135895 72.116829h1.976659v1.976659h-1.976659z" fill="#3a556a"/></svg>