<svg enable-background="new 0 0 110 110" height="512" viewBox="0 0 110 110" width="512" xmlns="http://www.w3.org/2000/svg"><path d="m53.271862 60.9417381v10.8264809h-26.3486347v2h28.3486347v-13.7695961c-.4411621.6889648-1.2602539 1.0029907-2 .9431152z" fill="#2f4859"/><path d="m53.271862 36.2315941v9.6461182c.5847168-.3004761 1.3734131-.2747803 2 .0772095v-7.7233276h18.4199181v-2h-20.4199181z" fill="#2f4859"/><path d="m64.9394684 55.8383446v-3.4100342l-2.9000282-.4299927c-.1800537-.6499634-.4400635-1.2699585-.7700195-1.8499756l1.75-2.3500366-2.4100342-2.4099731-2.3598633 1.7399902c-.5700684-.3200073-1.1900635-.5800171-1.8500977-.7600098l-.4199219-2.8999634h-3.4100342l-.4300537 2.8999634c-.6599121.1799927-1.2800293.4400024-1.8499756.7600098l-2.3499756-1.7399902-2.4100342 2.4099731 1.7399902 2.3500366c-.3299561.5800171-.5799561 1.2000122-.7698975 1.8499756l-2.8901367.4299927v3.4100342l2.8901367.4299927c.1899414.6500244.4399414 1.2700195.7698975 1.8499756l-1.7399902 2.3500366 2.4100342 2.4099731 2.3499756-1.7399902c.5699463.3200073 1.1900635.5800171 1.8499756.7600098l.4300537 2.8999672h3.4100342l.4199219-2.8999672c.6600342-.1799927 1.2800293-.4400024 1.8500977-.7600098l2.3598633 1.7399902 2.4100342-2.4099731-1.75-2.3500366c.3299561-.5799561.5899658-1.1999512.7700195-1.8499756zm-10.6700478 3.2000122c-2.7099609 0-4.9100342-2.2000122-4.9100342-4.9000244 0-2.710022 2.2000732-4.9099731 4.9100342-4.9099731 2.710083 0 4.9000244 2.1999512 4.9000244 4.9099731 0 2.7000122-2.1899414 4.9000244-4.9000244 4.9000244z" fill="#ebf0f3"/><path d="m10.544268 29.389668h28.328323v51.220665h-28.328323z" fill="#3a556a"/><g fill="#2f4859"><path d="m13.220919 32.256783h22.975021v7.738291h-22.975021z"/><path d="m13.220919 41.713429h22.975021v7.738291h-22.975021z"/><path d="m13.220919 51.026447h.440628v26.723133h-.440628z"/><path d="m35.755314 51.026447h.440628v26.723133h-.440628z"/></g><circle cx="24.708" cy="62.588" fill="#e56353" r="2.072"/><circle cx="24.708" cy="67.581" fill="#ebf0f3" r=".679"/><path d="m71.127411 29.389668h28.328323v51.220665h-28.328323z" fill="#3a556a"/><g fill="#2f4859"><path d="m73.804062 32.256783h22.975021v7.738291h-22.975021z"/><path d="m73.804062 41.713429h22.975021v7.738291h-22.975021z"/><path d="m73.804062 51.026447h.440628v26.723133h-.440628z"/><path d="m96.338455 51.026447h.440628v26.723133h-.440628z"/></g><circle cx="85.292" cy="62.588" fill="#e56353" r="2.072"/><circle cx="85.292" cy="67.581" fill="#ebf0f3" r=".679"/></svg>