<svg enable-background="new 0 0 110 110" height="512" viewBox="0 0 110 110" width="512" xmlns="http://www.w3.org/2000/svg"><g fill="#3a556a"><path d="m73.6516266 35.2309647h-4.8118897v-17.3770695h9.6237717v3.0240955z"/><path d="m73.6516266 54.8233871h-4.8118897v-17.3770713h9.6237717v3.0240974z"/><path d="m73.6516266 74.4158096h-4.8118897v-17.3770713h9.6237717v3.0240974z"/><path d="m35.9289589 35.2309647h4.8118896v-17.3770695h-9.6237735v3.0240955z"/><path d="m35.9289589 54.8233871h4.8118896v-17.3770713h-9.6237735v3.0240974z"/><path d="m35.9289589 74.4158096h4.8118896v-17.3770713h-9.6237735v3.0240974z"/><path d="m51.476418 78.322334h6.627749v18.347073h-6.627749z"/></g><path d="m67.9319305 13.3305912h-26.2832794c-2.1625328 0-3.9156113 1.7530279-3.9156113 3.9155636v59.4426422c0 2.1625366 1.7530785 3.9156647 3.9156113 3.9156647h26.2832794c2.1625366 0 3.9156189-1.7531281 3.9156189-3.9156647v-59.4426422c0-2.1625357-1.7530822-3.9155636-3.9156189-3.9155636z" fill="#64798a"/><ellipse cx="54.79" cy="27.37" fill="#e56353" rx="7.861" ry="7.861" transform="matrix(.383 -.924 .924 .383 8.537 67.515)"/><ellipse cx="54.79" cy="46.968" fill="#fcd462" rx="7.861" ry="7.861" transform="matrix(.383 -.924 .924 .383 -9.569 79.613)"/><ellipse cx="54.79" cy="66.565" fill="#44c4a1" rx="7.861" ry="7.861" transform="matrix(.383 -.924 .924 .383 -27.675 91.711)"/><g fill="#3a556a"><path d="m64.2837753 26.8350639h-.6545143c-1.3919144-3.521225-4.8220139-6.0233841-8.8403854-6.0233841-4.0183182 0-7.4484215 2.5021591-8.8320389 6.0233841h-.6545181c.2733765-4.9960213 4.4159966-8.9811687 9.486557-8.9811687 5.0706138 0 9.2132301 3.9851475 9.4948997 8.9811687z"/><path d="m64.2837753 46.1348534h-.6545143c-1.3919144-3.521225-4.8220139-6.0233841-8.8403854-6.0233841-4.0183182 0-7.4484215 2.5021591-8.8320389 6.0233841h-.6545181c.2733765-4.9960251 4.4159966-8.9811707 9.486557-8.9811707 5.0706138 0 9.2132301 3.9851456 9.4948997 8.9811707z"/><path d="m64.2837753 65.434639h-.6545143c-1.3919144-3.521225-4.8220139-6.0233803-8.8403854-6.0233803-4.0183182 0-7.4484215 2.5021553-8.8320389 6.0233803h-.6545181c.2733765-4.9960213 4.4159966-8.9811668 9.486557-8.9811668 5.0706138-.0000001 9.2132301 3.9851455 9.4948997 8.9811668z"/></g><path d="m86.7577133 47.6627197v24.2873535h6.269249v-24.2873535h4.636467l-7.7710877-9.6127929-7.7710953 9.6127929z" fill="#fcd462"/><path d="m23.2422886 62.3372803v-24.2873535h-6.2692528v24.2873535h-4.6364651l7.7710915 9.6127929 7.7710915-9.6127929z" fill="#ebf0f3"/></svg>