<svg enable-background="new 0 0 110 110" height="512" viewBox="0 0 110 110" width="512" xmlns="http://www.w3.org/2000/svg"><path d="m74.7498779 20.6426678h-52.4726944c-2.359724 0-4.2727108 1.9129848-4.2727108 4.272768v46.205452c0 2.359787 1.9129868 4.2727737 4.2727108 4.2727737h52.4726944c2.359726 0 4.2727051-1.9129868 4.2727051-4.2727737v-46.205452c0-2.3597832-1.9129791-4.272768-4.2727051-4.272768z" fill="#ebf0f3"/><path d="m74.7498779 20.6426678h-52.4726944c-2.359724 0-4.2727108 1.9129848-4.2727108 4.272768v6.9468517h61.0181103v-6.9468517c0-2.3597832-1.9129791-4.272768-4.2727051-4.272768z" fill="#44c4a1"/><circle cx="71.137" cy="26.462" fill="#ebf0f3" r="1.853"/><path d="m71.1365204 26.6315823c-.0937042 0-.1697388-.0764427-.1697388-.1701488s.0760345-.1701508.1697388-.1701508c.0937119 0 .1701508.0764446.1701508.1701508s-.076439.1701488-.1701508.1701488z" fill="#ebf0f3"/><circle cx="64.224" cy="26.462" fill="#ebf0f3" r="1.853"/><circle cx="64.224" cy="26.461" fill="#ebf0f3" r=".17"/><circle cx="57.311" cy="26.462" fill="#ebf0f3" r="1.853"/><circle cx="57.311" cy="26.461" fill="#ebf0f3" r=".17"/><g fill="#d5d6db"><path d="m26.676285 37.929691h43.674492v4.082466h-43.674492z"/><path d="m26.676285 44.808922h12.351819v11.336098h-12.351819z"/><path d="m42.33762 44.808922h12.351819v11.336098h-12.351819z"/><path d="m57.998955 44.808922h12.351819v11.336098h-12.351819z"/><path d="m26.676285 57.862133h12.351819v1.613178h-12.351819z"/><path d="m26.676285 61.192421h6.399166v1.613178h-6.399166z"/><path d="m42.33762 57.862133h12.351819v1.613178h-12.351819z"/><path d="m42.33762 61.192421h6.399166v1.613178h-6.399166z"/><path d="m57.998955 57.862133h12.351819v1.613178h-12.351819z"/><path d="m57.998955 61.192421h6.399166v1.613178h-6.399166z"/></g><path d="m84.829628 51.667332h1.619345v4.774757h-1.619345z" fill="#2f4859" transform="matrix(.707 .707 -.707 .707 63.306 -44.724)"/><path d="m90.2669373 51.228157-1.8010864-1.8010826c-.1768417-.1768417-.4635315-.1768417-.6403656 0l-2.1062851 2.1062813c-.1768188.1768188-.1768188.4635086.0000229.6403465l1.8010788 1.8010864c.1768417.1768379.4635315.1768379.6403503.0000191l2.1062851-2.1062813c.1768417-.1768379.1768417-.4635276 0-.6403694z" fill="#3a556a"/><path d="m88.1915588 49.9743462c-.0697632-.0697632-.182869-.0697632-.2526321 0l-1.6724319 1.6724358c-.0697632.0697594-.0697632.1828651 0 .2526283s.1828766.0697708.2526398.0000076l1.6724319-1.6724358c.0697632-.0697594.0697555-.1828766-.0000077-.2526359z" fill="#2f4859"/><path d="m88.7009277 50.4837112c-.0697632-.0697632-.182869-.0697632-.2526321 0l-1.6724396 1.6724358c-.0697556.0697594-.0697556.1828651 0 .2526283.0697632.0697632.1828766.0697708.2526398.0000076l1.6724396-1.6724358c.0697631-.0697593.0697479-.1828765-.0000077-.2526359z" fill="#2f4859"/><path d="m89.210289 50.9930763c-.0697632-.0697632-.182869-.0697632-.2526321 0l-1.6724319 1.6724358c-.0697632.0697632-.0697632.1828651 0 .2526283s.1828766.0697708.2526398.0000114l1.6724319-1.6724396c.0697631-.0697593.0697555-.1828765-.0000077-.2526359z" fill="#2f4859"/><path d="m89.7196579 51.5024414c-.0697632-.0697632-.182869-.0697632-.2526321 0l-1.6724396 1.6724358c-.0697556.0697632-.0697556.182869 0 .2526283.0697632.0697632.1828766.0697708.2526398.0000114l1.6724396-1.6724358c.0697631-.0697631.0697479-.1828765-.0000077-.2526397z" fill="#2f4859"/><path d="m56.169121 51.667332h1.619345v4.774757h-1.619345z" fill="#2f4859" transform="matrix(-.707 .707 -.707 -.707 135.491 51.987)"/><path d="m52.3511543 51.228157 1.8010826-1.8010826c.1768417-.1768417.4635315-.1768417.6403732 0l2.1062813 2.1062813c.1768188.1768188.1768188.4635086-.0000229.6403465l-1.8010826 1.8010864c-.1768417.1768379-.4635315.1768379-.6403503.0000191l-2.1062813-2.1062813c-.1768417-.1768379-.1768417-.4635276 0-.6403694z" fill="#3a556a"/><path d="m54.4265327 49.9743462c.0697594-.0697632.1828651-.0697632.2526283 0l1.6724358 1.6724358c.0697632.0697594.0697632.1828651 0 .2526283s-.1828766.0697708-.2526398.0000076l-1.6724358-1.6724358c-.0697593-.0697594-.0697516-.1828766.0000115-.2526359z" fill="#2f4859"/><path d="m53.9171677 50.4837112c.0697594-.0697632.1828651-.0697632.2526283 0l1.6724358 1.6724358c.0697632.0697594.0697632.1828651 0 .2526283s-.1828766.0697708-.2526398.0000076l-1.6724358-1.6724358c-.0697593-.0697593-.0697517-.1828765.0000115-.2526359z" fill="#2f4859"/><path d="m53.4078026 50.9930763c.0697594-.0697632.1828651-.0697632.2526283 0l1.6724358 1.6724358c.0697632.0697632.0697632.1828651 0 .2526283s-.1828766.0697708-.2526398.0000114l-1.6724358-1.6724396c-.0697593-.0697593-.0697517-.1828765.0000115-.2526359z" fill="#2f4859"/><path d="m52.8984375 51.5024414c.0697594-.0697632.1828651-.0697632.2526283 0l1.6724358 1.6724358c.0697632.0697632.0697632.182869 0 .2526283-.0697632.0697632-.1828766.0697708-.2526398.0000114l-1.6724358-1.6724358c-.0697593-.0697631-.0697517-.1828765.0000115-.2526397z" fill="#2f4859"/><path d="m69.675179 44.611279h3.26773v4.792015h-3.26773z" fill="#2f4859"/><path d="m91.9955292 68.6718826c0 11.4232025-9.2622528 20.6854477-20.6854553 20.6854477-5.1509857 0-9.8534508-1.8823624-13.4754562-4.9946594-4.4170647-3.7850876-7.2167969-9.4117737-7.2167969-15.6907883 0-11.4300117 9.2622452-20.6922569 20.6922531-20.6922569 5.9392471 0 11.2872849 2.5007324 15.0519714 6.5100861 3.4928894 3.7035446 5.6334839 8.6914062 5.6334839 14.1821708z" fill="#d15241"/><path d="m71.3100739 47.9796257c-11.4300079 0-20.6922531 9.2622452-20.6922531 20.6922569 0 6.2790146 2.7997322 11.9057007 7.2167969 15.6907883 5.7897644-1.3795013 12.4221649-5.3820572 18.1643143-11.4504166 5.6334839-5.9460449 9.2350769-12.6463852 10.3631134-18.4225426-3.7646867-4.0093536-9.1127244-6.510086-15.0519715-6.510086z" fill="#e56353"/><ellipse cx="71.309" cy="68.67" fill="#ebf0f3" rx="16.847" ry="16.847" transform="matrix(.973 -.23 .23 .973 -13.87 18.22)"/><g fill="#3a556a"><path d="m81.235992 57.254421h.755048v2.222837h-.755048z" transform="matrix(.707 .707 -.707 .707 65.175 -40.615)"/><path d="m60.627052 77.863365h.755048v2.222837h-.755048z" transform="matrix(.707 .707 -.707 .707 73.711 -20.006)"/><path d="m81.235992 77.863365h.755048v2.222837h-.755048z" transform="matrix(-.707 .707 -.707 -.707 195.167 77.109)"/><path d="m60.627052 57.254421h.755048v2.222837h-.755048z" transform="matrix(-.707 .707 -.707 -.707 145.412 56.5)"/><path d="m65.354782 54.095451h.755048v2.222837h-.755048z" transform="matrix(.924 -.383 .383 .924 -16.123 29.357)"/><path d="m76.508263 81.022331h.755048v2.222837h-.755048z" transform="matrix(.924 -.383 .383 .924 -25.579 35.675)"/><path d="m84.394959 61.982151h.755048v2.222837h-.755048z" transform="matrix(.383 .924 -.924 .383 110.622 -39.371)"/><path d="m57.468082 73.135628h.755048v2.222837h-.755048z" transform="matrix(.383 .924 -.924 .383 104.304 -7.608)"/><path d="m76.508263 54.095451h.755048v2.222837h-.755048z" transform="matrix(.924 .383 -.383 .924 26.979 -25.221)"/><path d="m65.354782 81.022331h.755048v2.222837h-.755048z" transform="matrix(.924 .383 -.383 .924 36.435 -18.903)"/><path d="m84.394959 73.135628h.755048v2.222837h-.755048z" transform="matrix(-.383 .924 -.924 -.383 185.809 24.341)"/><path d="m57.468082 61.982151h.755048v2.222837h-.755048z" transform="matrix(-.383 .924 -.924 -.383 138.273 33.796)"/><path d="m70.4386673 52.9109421.8703766 1.9866333.8703842-1.9866333z"/><path d="m72.1794281 84.4296799-.8703842-1.9866333-.8703766 1.9866333z"/><path d="m87.0684128 67.7999268-1.9866333.8703842 1.9866333.8703766z"/><path d="m55.549675 69.5406876 1.9866333-.8703766-1.9866333-.8703842z"/><path d="m71.4131699 60.5241547c-.0182877-.1191177-.1898804-.1191177-.2082062 0l-1.7381973 11.2960815c-.0346298.2250519.1394882.4280396.3671951.4280396h2.9501724c.2276993 0 .4018173-.2029877.3671875-.4280396z"/></g><circle cx="71.309" cy="68.558" fill="#64798a" r="2.299"/><path d="m74.6592865 42.2042542h-6.7004623c-.4204865 0-.7613373.3408508-.7613373.7613373v2.1972504c0 .4204865.3408508.7613411.7613373.7613411h6.7004623c.4204865 0 .7613449-.3408546.7613449-.7613411v-2.1972504c0-.4204865-.3408585-.7613373-.7613449-.7613373z" fill="#3a556a"/><path d="m68.1075287 42.9023628c-.1482849 0-.2684784.1201973-.2684784.2684746v1.7867584c0 .1482811.1201935.2684784.2684784.2684784.1482773 0 .2684708-.1201973.2684708-.2684784v-1.7867584c0-.1482773-.1201935-.2684746-.2684708-.2684746z" fill="#2f4859"/><path d="m69.1747055 42.9023628c-.1482773 0-.2684784.1201973-.2684784.2684746v1.7867584c0 .1482811.1202011.2684784.2684784.2684784s.2684708-.1201973.2684708-.2684784v-1.7867584c0-.1482773-.1201935-.2684746-.2684708-.2684746z" fill="#2f4859"/><path d="m70.2418823 42.9023628c-.1482773 0-.2684784.1201973-.2684784.2684746v1.7867584c0 .1482811.1202011.2684784.2684784.2684784s.2684708-.1201973.2684708-.2684784v-1.7867584c0-.1482773-.1201935-.2684746-.2684708-.2684746z" fill="#2f4859"/><path d="m71.3090591 42.9023628c-.1482773 0-.2684784.1201973-.2684784.2684746v1.7867584c0 .1482811.1202011.2684784.2684784.2684784s.2684784-.1201973.2684784-.2684784v-1.7867584c0-.1482773-.1202011-.2684746-.2684784-.2684746z" fill="#2f4859"/><path d="m72.376236 42.9023628c-.1482773 0-.2684784.1201973-.2684784.2684746v1.7867584c0 .1482811.1202011.2684784.2684784.2684784s.2684784-.1201973.2684784-.2684784v-1.7867584c0-.1482773-.1202012-.2684746-.2684784-.2684746z" fill="#2f4859"/><path d="m73.4434128 42.9023628c-.1482773 0-.2684784.1201973-.2684784.2684746v1.7867584c0 .1482811.1202011.2684784.2684784.2684784s.2684784-.1201973.2684784-.2684784v-1.7867584c0-.1482773-.1202011-.2684746-.2684784-.2684746z" fill="#2f4859"/><path d="m74.5105896 42.9023628c-.1482773 0-.2684784.1201973-.2684784.2684746v1.7867584c0 .1482811.1202011.2684784.2684784.2684784s.2684784-.1201973.2684784-.2684784v-1.7867584c0-.1482773-.1202011-.2684746-.2684784-.2684746z" fill="#2f4859"/></svg>