<svg enable-background="new 0 0 110 110" height="512" viewBox="0 0 110 110" width="512" xmlns="http://www.w3.org/2000/svg"><path d="m46.210655 56.775745h3.163896v23.076172h-3.163896z" fill="#ebf0f3"/><path d="m20.676409 46.030914h54.281075v5.674353h-54.281075z" fill="#2f4859"/><path d="m75.2927933 28.6348743h-55.0003758c-1.6617451 0-3.0088387 1.347147-3.0088387 3.0088902v12.4812202c0 1.6617432 1.3470936 3.0088387 3.0088387 3.0088387h55.0003738c1.6617432 0 3.0088348-1.3470955 3.0088348-3.0088387v-12.4812202c.000002-1.6617432-1.3470897-3.0088902-3.0088328-3.0088902z" fill="#3a556a"/><g fill="#2f4859"><path d="m24.6649895 32.4883003h-.8841972c-.309145 0-.5597935.2506485-.5597935.5598373v.8841553c0 .309185.2506485.5598335.5597935.5598335h.8841972c.3091888 0 .5597935-.2506485.5597935-.5598335v-.8841553c-.0000001-.3091888-.2506047-.5598373-.5597935-.5598373z"/><path d="m27.638586 32.4883003h-.8841972c-.3091469 0-.5597935.2506485-.5597935.5598373v.8841553c0 .309185.2506466.5598335.5597935.5598335h.8841972c.3091869 0 .5597916-.2506485.5597916-.5598335v-.8841553c0-.3091888-.2506046-.5598373-.5597916-.5598373z"/><path d="m30.6121807 32.4883003h-.8841972c-.309145 0-.5597916.2506485-.5597916.5598373v.8841553c0 .309185.2506466.5598335.5597916.5598335h.8841972c.3091888 0 .5597935-.2506485.5597935-.5598335v-.8841553c0-.3091888-.2506046-.5598373-.5597935-.5598373z"/><path d="m33.5857773 32.4883003h-.8841973c-.3091469 0-.5597916.2506485-.5597916.5598373v.8841553c0 .309185.2506447.5598335.5597916.5598335h.8841972c.3091888 0 .5597916-.2506485.5597916-.5598335v-.8841553c0-.3091888-.2506027-.5598373-.5597915-.5598373z"/><path d="m36.5593719 32.4883003h-.8841972c-.3091431 0-.5597916.2506485-.5597916.5598373v.8841553c0 .309185.2506485.5598335.5597916.5598335h.8841972c.3091888 0 .5597954-.2506485.5597954-.5598335v-.8841553c0-.3091888-.2506065-.5598373-.5597954-.5598373z"/><path d="m39.5329704 32.4883003h-.8841972c-.3091469 0-.5597954.2506485-.5597954.5598373v.8841553c0 .309185.2506485.5598335.5597954.5598335h.8841972c.3091888 0 .5597916-.2506485.5597916-.5598335v-.8841553c0-.3091888-.2506027-.5598373-.5597916-.5598373z"/><path d="m42.5065651 32.4883003h-.8841972c-.3091431 0-.5597916.2506485-.5597916.5598373v.8841553c0 .309185.2506485.5598335.5597916.5598335h.8841972c.3091888 0 .5597954-.2506485.5597954-.5598335v-.8841553c0-.3091888-.2506066-.5598373-.5597954-.5598373z"/><path d="m24.6649895 35.4177246h-.8841972c-.309145 0-.5597935.2506485-.5597935.5598373v.8841515c0 .3091888.2506485.5598373.5597935.5598373h.8841972c.3091888 0 .5597935-.2506485.5597935-.5598373v-.8841514c-.0000001-.3091889-.2506047-.5598374-.5597935-.5598374z"/><path d="m27.638586 35.4177246h-.8841972c-.3091469 0-.5597935.2506485-.5597935.5598373v.8841515c0 .3091888.2506466.5598373.5597935.5598373h.8841972c.3091869 0 .5597916-.2506485.5597916-.5598373v-.8841514c0-.3091889-.2506046-.5598374-.5597916-.5598374z"/><path d="m30.6121807 35.4177246h-.8841972c-.309145 0-.5597916.2506485-.5597916.5598373v.8841515c0 .3091888.2506466.5598373.5597916.5598373h.8841972c.3091888 0 .5597935-.2506485.5597935-.5598373v-.8841514c0-.3091889-.2506046-.5598374-.5597935-.5598374z"/><path d="m33.5857773 35.4177246h-.8841973c-.3091469 0-.5597916.2506485-.5597916.5598373v.8841515c0 .3091888.2506447.5598373.5597916.5598373h.8841972c.3091888 0 .5597916-.2506485.5597916-.5598373v-.8841514c0-.3091889-.2506027-.5598374-.5597915-.5598374z"/><path d="m36.5593719 35.4177246h-.8841972c-.3091431 0-.5597916.2506485-.5597916.5598373v.8841515c0 .3091888.2506485.5598373.5597916.5598373h.8841972c.3091888 0 .5597954-.2506485.5597954-.5598373v-.8841514c0-.3091889-.2506065-.5598374-.5597954-.5598374z"/><path d="m39.5329704 35.4177246h-.8841972c-.3091469 0-.5597954.2506485-.5597954.5598373v.8841515c0 .3091888.2506485.5598373.5597954.5598373h.8841972c.3091888 0 .5597916-.2506485.5597916-.5598373v-.8841514c0-.3091889-.2506027-.5598374-.5597916-.5598374z"/><path d="m42.5065651 35.4177246h-.8841972c-.3091431 0-.5597916.2506485-.5597916.5598373v.8841515c0 .3091888.2506485.5598373.5597916.5598373h.8841972c.3091888 0 .5597954-.2506485.5597954-.5598373v-.8841514c0-.3091889-.2506066-.5598374-.5597954-.5598374z"/><path d="m24.6649895 38.3471489h-.8841972c-.309145 0-.5597935.2506485-.5597935.5598335v.8841553c0 .3091888.2506485.5598373.5597935.5598373h.8841972c.3091888 0 .5597935-.2506485.5597935-.5598373v-.8841553c-.0000001-.309185-.2506047-.5598335-.5597935-.5598335z"/><path d="m27.638586 38.3471489h-.8841972c-.3091469 0-.5597935.2506485-.5597935.5598335v.8841553c0 .3091888.2506466.5598373.5597935.5598373h.8841972c.3091869 0 .5597916-.2506485.5597916-.5598373v-.8841553c0-.309185-.2506046-.5598335-.5597916-.5598335z"/><path d="m30.6121807 38.3471489h-.8841972c-.309145 0-.5597916.2506485-.5597916.5598335v.8841553c0 .3091888.2506466.5598373.5597916.5598373h.8841972c.3091888 0 .5597935-.2506485.5597935-.5598373v-.8841553c0-.309185-.2506046-.5598335-.5597935-.5598335z"/><path d="m33.5857773 38.3471489h-.8841973c-.3091469 0-.5597916.2506485-.5597916.5598335v.8841553c0 .3091888.2506447.5598373.5597916.5598373h.8841972c.3091888 0 .5597916-.2506485.5597916-.5598373v-.8841553c0-.309185-.2506027-.5598335-.5597915-.5598335z"/><path d="m36.5593719 38.3471489h-.8841972c-.3091431 0-.5597916.2506485-.5597916.5598335v.8841553c0 .3091888.2506485.5598373.5597916.5598373h.8841972c.3091888 0 .5597954-.2506485.5597954-.5598373v-.8841553c0-.309185-.2506065-.5598335-.5597954-.5598335z"/><path d="m39.5329704 38.3471489h-.8841972c-.3091469 0-.5597954.2506485-.5597954.5598335v.8841553c0 .3091888.2506485.5598373.5597954.5598373h.8841972c.3091888 0 .5597916-.2506485.5597916-.5598373v-.8841553c0-.309185-.2506027-.5598335-.5597916-.5598335z"/><path d="m42.5065651 38.3471489h-.8841972c-.3091431 0-.5597916.2506485-.5597916.5598335v.8841553c0 .3091888.2506485.5598373.5597916.5598373h.8841972c.3091888 0 .5597954-.2506485.5597954-.5598373v-.8841553c0-.309185-.2506066-.5598335-.5597954-.5598335z"/><path d="m24.6649895 41.2765732h-.8841972c-.309145 0-.5597935.2506447-.5597935.5598335v.8841553c0 .3091888.2506485.5598373.5597935.5598373h.8841972c.3091888 0 .5597935-.2506485.5597935-.5598373v-.8841553c-.0000001-.3091888-.2506047-.5598335-.5597935-.5598335z"/><path d="m27.638586 41.2765732h-.8841972c-.3091469 0-.5597935.2506447-.5597935.5598335v.8841553c0 .3091888.2506466.5598373.5597935.5598373h.8841972c.3091869 0 .5597916-.2506485.5597916-.5598373v-.8841553c0-.3091888-.2506046-.5598335-.5597916-.5598335z"/><path d="m30.6121807 41.2765732h-.8841972c-.309145 0-.5597916.2506447-.5597916.5598335v.8841553c0 .3091888.2506466.5598373.5597916.5598373h.8841972c.3091888 0 .5597935-.2506485.5597935-.5598373v-.8841553c0-.3091888-.2506046-.5598335-.5597935-.5598335z"/><path d="m33.5857773 41.2765732h-.8841973c-.3091469 0-.5597916.2506447-.5597916.5598335v.8841553c0 .3091888.2506447.5598373.5597916.5598373h.8841972c.3091888 0 .5597916-.2506485.5597916-.5598373v-.8841553c0-.3091888-.2506027-.5598335-.5597915-.5598335z"/><path d="m36.5593719 41.2765732h-.8841972c-.3091431 0-.5597916.2506447-.5597916.5598335v.8841553c0 .3091888.2506485.5598373.5597916.5598373h.8841972c.3091888 0 .5597954-.2506485.5597954-.5598373v-.8841553c0-.3091888-.2506065-.5598335-.5597954-.5598335z"/><path d="m39.5329704 41.2765732h-.8841972c-.3091469 0-.5597954.2506447-.5597954.5598335v.8841553c0 .3091888.2506485.5598373.5597954.5598373h.8841972c.3091888 0 .5597916-.2506485.5597916-.5598373v-.8841553c0-.3091888-.2506027-.5598335-.5597916-.5598335z"/><path d="m42.5065651 41.2765732h-.8841972c-.3091431 0-.5597916.2506447-.5597916.5598335v.8841553c0 .3091888.2506485.5598373.5597916.5598373h.8841972c.3091888 0 .5597954-.2506485.5597954-.5598373v-.8841553c0-.3091888-.2506066-.5598335-.5597954-.5598335z"/><circle cx="52.849" cy="37.498" r="3.006"/><circle cx="61.491" cy="37.498" r="3.006"/><circle cx="70.133" cy="37.498" r="3.006"/></g><path d="m75.2927933 48.4866638h-55.0003758c-1.6617451 0-3.0088387 1.3471489-3.0088387 3.0088921v12.4812202c0 1.6617432 1.3470936 3.0088348 3.0088387 3.0088348h55.0003738c1.6617432 0 3.0088348-1.3470917 3.0088348-3.0088348v-12.4812202c.000002-1.6617432-1.3470897-3.0088921-3.0088328-3.0088921z" fill="#3a556a"/><g fill="#2f4859"><path d="m24.6649895 52.3400917h-.8841972c-.309145 0-.5597935.2506485-.5597935.5598335v.8841553c0 .3091888.2506485.5598373.5597935.5598373h.8841972c.3091888 0 .5597935-.2506485.5597935-.5598373v-.8841553c-.0000001-.309185-.2506047-.5598335-.5597935-.5598335z"/><path d="m27.638586 52.3400917h-.8841972c-.3091469 0-.5597935.2506485-.5597935.5598335v.8841553c0 .3091888.2506466.5598373.5597935.5598373h.8841972c.3091869 0 .5597916-.2506485.5597916-.5598373v-.8841553c0-.309185-.2506046-.5598335-.5597916-.5598335z"/><path d="m30.6121807 52.3400917h-.8841972c-.309145 0-.5597916.2506485-.5597916.5598335v.8841553c0 .3091888.2506466.5598373.5597916.5598373h.8841972c.3091888 0 .5597935-.2506485.5597935-.5598373v-.8841553c0-.309185-.2506046-.5598335-.5597935-.5598335z"/><path d="m33.5857773 52.3400917h-.8841973c-.3091469 0-.5597916.2506485-.5597916.5598335v.8841553c0 .3091888.2506447.5598373.5597916.5598373h.8841972c.3091888 0 .5597916-.2506485.5597916-.5598373v-.8841553c0-.309185-.2506027-.5598335-.5597915-.5598335z"/><path d="m36.5593719 52.3400917h-.8841972c-.3091431 0-.5597916.2506485-.5597916.5598335v.8841553c0 .3091888.2506485.5598373.5597916.5598373h.8841972c.3091888 0 .5597954-.2506485.5597954-.5598373v-.8841553c0-.309185-.2506065-.5598335-.5597954-.5598335z"/><path d="m39.5329704 52.3400917h-.8841972c-.3091469 0-.5597954.2506485-.5597954.5598335v.8841553c0 .3091888.2506485.5598373.5597954.5598373h.8841972c.3091888 0 .5597916-.2506485.5597916-.5598373v-.8841553c0-.309185-.2506027-.5598335-.5597916-.5598335z"/><path d="m42.5065651 52.3400917h-.8841972c-.3091431 0-.5597916.2506485-.5597916.5598335v.8841553c0 .3091888.2506485.5598373.5597916.5598373h.8841972c.3091888 0 .5597954-.2506485.5597954-.5598373v-.8841553c0-.309185-.2506066-.5598335-.5597954-.5598335z"/><path d="m24.6649895 55.269516h-.8841972c-.309145 0-.5597935.2506447-.5597935.5598335v.8841553c0 .3091888.2506485.5598373.5597935.5598373h.8841972c.3091888 0 .5597935-.2506485.5597935-.5598373v-.8841553c-.0000001-.3091888-.2506047-.5598335-.5597935-.5598335z"/><path d="m27.638586 55.269516h-.8841972c-.3091469 0-.5597935.2506447-.5597935.5598335v.8841553c0 .3091888.2506466.5598373.5597935.5598373h.8841972c.3091869 0 .5597916-.2506485.5597916-.5598373v-.8841553c0-.3091888-.2506046-.5598335-.5597916-.5598335z"/><path d="m30.6121807 55.269516h-.8841972c-.309145 0-.5597916.2506447-.5597916.5598335v.8841553c0 .3091888.2506466.5598373.5597916.5598373h.8841972c.3091888 0 .5597935-.2506485.5597935-.5598373v-.8841553c0-.3091888-.2506046-.5598335-.5597935-.5598335z"/><path d="m33.5857773 55.269516h-.8841973c-.3091469 0-.5597916.2506447-.5597916.5598335v.8841553c0 .3091888.2506447.5598373.5597916.5598373h.8841972c.3091888 0 .5597916-.2506485.5597916-.5598373v-.8841553c0-.3091888-.2506027-.5598335-.5597915-.5598335z"/><path d="m36.5593719 55.269516h-.8841972c-.3091431 0-.5597916.2506447-.5597916.5598335v.8841553c0 .3091888.2506485.5598373.5597916.5598373h.8841972c.3091888 0 .5597954-.2506485.5597954-.5598373v-.8841553c0-.3091888-.2506065-.5598335-.5597954-.5598335z"/><path d="m39.5329704 55.269516h-.8841972c-.3091469 0-.5597954.2506447-.5597954.5598335v.8841553c0 .3091888.2506485.5598373.5597954.5598373h.8841972c.3091888 0 .5597916-.2506485.5597916-.5598373v-.8841553c0-.3091888-.2506027-.5598335-.5597916-.5598335z"/><path d="m42.5065651 55.269516h-.8841972c-.3091431 0-.5597916.2506447-.5597916.5598335v.8841553c0 .3091888.2506485.5598373.5597916.5598373h.8841972c.3091888 0 .5597954-.2506485.5597954-.5598373v-.8841553c0-.3091888-.2506066-.5598335-.5597954-.5598335z"/><path d="m24.6649895 58.1989403h-.8841972c-.309145 0-.5597935.2506447-.5597935.5598335v.8841553c0 .3091888.2506485.5598335.5597935.5598335h.8841972c.3091888 0 .5597935-.2506447.5597935-.5598335v-.8841553c-.0000001-.3091888-.2506047-.5598335-.5597935-.5598335z"/><path d="m27.638586 58.1989403h-.8841972c-.3091469 0-.5597935.2506447-.5597935.5598335v.8841553c0 .3091888.2506466.5598335.5597935.5598335h.8841972c.3091869 0 .5597916-.2506447.5597916-.5598335v-.8841553c0-.3091888-.2506046-.5598335-.5597916-.5598335z"/><path d="m30.6121807 58.1989403h-.8841972c-.309145 0-.5597916.2506447-.5597916.5598335v.8841553c0 .3091888.2506466.5598335.5597916.5598335h.8841972c.3091888 0 .5597935-.2506447.5597935-.5598335v-.8841553c0-.3091888-.2506046-.5598335-.5597935-.5598335z"/><path d="m33.5857773 58.1989403h-.8841973c-.3091469 0-.5597916.2506447-.5597916.5598335v.8841553c0 .3091888.2506447.5598335.5597916.5598335h.8841972c.3091888 0 .5597916-.2506447.5597916-.5598335v-.8841553c0-.3091888-.2506027-.5598335-.5597915-.5598335z"/><path d="m36.5593719 58.1989403h-.8841972c-.3091431 0-.5597916.2506447-.5597916.5598335v.8841553c0 .3091888.2506485.5598335.5597916.5598335h.8841972c.3091888 0 .5597954-.2506447.5597954-.5598335v-.8841553c0-.3091888-.2506065-.5598335-.5597954-.5598335z"/><path d="m39.5329704 58.1989403h-.8841972c-.3091469 0-.5597954.2506447-.5597954.5598335v.8841553c0 .3091888.2506485.5598335.5597954.5598335h.8841972c.3091888 0 .5597916-.2506447.5597916-.5598335v-.8841553c0-.3091888-.2506027-.5598335-.5597916-.5598335z"/><path d="m42.5065651 58.1989403h-.8841972c-.3091431 0-.5597916.2506447-.5597916.5598335v.8841553c0 .3091888.2506485.5598335.5597916.5598335h.8841972c.3091888 0 .5597954-.2506447.5597954-.5598335v-.8841553c0-.3091888-.2506066-.5598335-.5597954-.5598335z"/><path d="m24.6649895 61.1283607h-.8841972c-.309145 0-.5597935.2506485-.5597935.5598373v.8841553c0 .3091888.2506485.5598335.5597935.5598335h.8841972c.3091888 0 .5597935-.2506447.5597935-.5598335v-.8841553c-.0000001-.3091888-.2506047-.5598373-.5597935-.5598373z"/><path d="m27.638586 61.1283607h-.8841972c-.3091469 0-.5597935.2506485-.5597935.5598373v.8841553c0 .3091888.2506466.5598335.5597935.5598335h.8841972c.3091869 0 .5597916-.2506447.5597916-.5598335v-.8841553c0-.3091888-.2506046-.5598373-.5597916-.5598373z"/><path d="m30.6121807 61.1283607h-.8841972c-.309145 0-.5597916.2506485-.5597916.5598373v.8841553c0 .3091888.2506466.5598335.5597916.5598335h.8841972c.3091888 0 .5597935-.2506447.5597935-.5598335v-.8841553c0-.3091888-.2506046-.5598373-.5597935-.5598373z"/><path d="m33.5857773 61.1283607h-.8841973c-.3091469 0-.5597916.2506485-.5597916.5598373v.8841553c0 .3091888.2506447.5598335.5597916.5598335h.8841972c.3091888 0 .5597916-.2506447.5597916-.5598335v-.8841553c0-.3091888-.2506027-.5598373-.5597915-.5598373z"/><path d="m36.5593719 61.1283607h-.8841972c-.3091431 0-.5597916.2506485-.5597916.5598373v.8841553c0 .3091888.2506485.5598335.5597916.5598335h.8841972c.3091888 0 .5597954-.2506447.5597954-.5598335v-.8841553c0-.3091888-.2506065-.5598373-.5597954-.5598373z"/><path d="m39.5329704 61.1283607h-.8841972c-.3091469 0-.5597954.2506485-.5597954.5598373v.8841553c0 .3091888.2506485.5598335.5597954.5598335h.8841972c.3091888 0 .5597916-.2506447.5597916-.5598335v-.8841553c0-.3091888-.2506027-.5598373-.5597916-.5598373z"/><path d="m42.5065651 61.1283607h-.8841972c-.3091431 0-.5597916.2506485-.5597916.5598373v.8841553c0 .3091888.2506485.5598335.5597916.5598335h.8841972c.3091888 0 .5597954-.2506447.5597954-.5598335v-.8841553c0-.3091888-.2506066-.5598373-.5597954-.5598373z"/><circle cx="52.849" cy="57.35" r="3.006"/><circle cx="61.491" cy="57.35" r="3.006"/><circle cx="70.133" cy="57.35" r="3.006"/></g><path d="m21.352144 78.054215h52.88092v3.2209h-52.88092z" fill="#ebf0f3"/><circle cx="75.601" cy="64.249" fill="#27a2db" r="17.116"/><circle cx="75.601" cy="64.249" fill="#ebf0f3" r="13.224"/><path d="m75.243958 51.705269h.71358v2.140739h-.71358z" fill="#64798a"/><path d="m75.243958 74.652939h.71358v2.140739h-.71358z" fill="#64798a"/><path d="m86.717789 63.179104h.71358v2.140739h-.71358z" fill="#64798a" transform="matrix(0 1 -1 0 151.324 -22.825)"/><path d="m63.770119 63.179104h.71358v2.140739h-.71358z" fill="#64798a" transform="matrix(0 1 -1 0 128.376 .123)"/><path d="m76.2671127 65.5914383h-1.0231552l.1872635-10.6115265h.6652069z" fill="#64798a"/><path d="m74.264473 64.8863449v-1.2737389l8.3298111.2331315v.8281211z" fill="#64798a"/><circle cx="75.756" cy="64.249" fill="#44c4a1" r="1.075"/></svg>