<svg enable-background="new 0 0 110 110" height="512" viewBox="0 0 110 110" width="512" xmlns="http://www.w3.org/2000/svg"><path d="m38.9510651 61.195015c-.2600098.0799561-.6500244.2199707-.9099731.0599976-.1200562-.0700073-.1000366-.0900269-.1600342-.2000122-.0599976-.0900269-.1400146-.1500244-.210022-.2199707-.0799561-.0800171-.2599487-.2200317-.2699585-.3300171 0-.0700073.0499878-.1199951.0899658-.1600342-.0700073-.0099487-.1399536-.0199585-.2099609-.039978v1.3099976c.0199585.0100098.0299683.0100098.0499878.0200195.2299805.0799561.4899902.1599731.710022.289978.2099609.1199951.3899536.0999756.6199951.1500244.2099609.0599976.4199829.1199951.6199951.1900024v-1.1199951c-.1100464 0-.2300416.0199585-.3300171.0499878zm-1.6699829-20.0400391v38.8800049h39.6199951v-38.8800049zm37.6199951 36.8800049h-35.6199951v-34.8800049h35.6199951z" fill="#e1e6e9"/><path d="m58.500744 76.974281h34.802204v4.121314h-34.802204z" fill="#474c5b"/><path d="m94.0514221 78.002449h-36.2991524c-.6861763 0-1.2424316-.5562515-1.2424316-1.2424316v-10.0697098c0-.6861801.5562553-1.2424316 1.2424316-1.2424316h36.2991524c.6861801 0 1.2424316.5562515 1.2424316 1.2424316v10.0697098c.0000001.6861801-.5562515 1.2424316-1.2424316 1.2424316z" fill="#4d5c7d"/><path d="m88.5143509 68.9926071c-1.5091476 0-2.7325821 1.2233887-2.7325821 2.7325363 0 1.5091858 1.2234344 2.7325745 2.7325821 2.7325745 1.50914 0 2.7325745-1.2233887 2.7325745-2.7325745 0-1.5091476-1.2234345-2.7325363-2.7325745-2.7325363z" fill="#474c5b"/><g fill="#2f4859"><path d="m58.793446 67.731926h.493162v1.63042h-.493162z"/><path d="m60.093597 67.731926h.493162v1.63042h-.493162z"/><path d="m61.393753 67.731926h.493162v1.63042h-.493162z"/><path d="m62.693909 67.731926h.493162v1.63042h-.493162z"/><path d="m63.994064 67.731926h.493162v1.63042h-.493162z"/><path d="m65.29422 67.731926h.493162v1.63042h-.493162z"/><path d="m66.594376 67.731926h.493162v1.63042h-.493162z"/><path d="m67.894524 67.731926h.493162v1.63042h-.493162z"/><path d="m69.194679 67.731926h.493162v1.63042h-.493162z"/><path d="m70.494835 67.731926h.493162v1.63042h-.493162z"/><path d="m71.794991 67.731926h.493162v1.63042h-.493162z"/><path d="m58.793446 69.850609h.493162v1.63042h-.493162z"/><path d="m60.093597 69.850609h.493162v1.63042h-.493162z"/><path d="m61.393753 69.850609h.493162v1.63042h-.493162z"/><path d="m62.693909 69.850609h.493162v1.63042h-.493162z"/><path d="m63.994064 69.850609h.493162v1.63042h-.493162z"/><path d="m65.29422 69.850609h.493162v1.63042h-.493162z"/><path d="m66.594376 69.850609h.493162v1.63042h-.493162z"/><path d="m67.894524 69.850609h.493162v1.63042h-.493162z"/><path d="m69.194679 69.850609h.493162v1.63042h-.493162z"/><path d="m70.494835 69.850609h.493162v1.63042h-.493162z"/><path d="m71.794991 69.850609h.493162v1.63042h-.493162z"/><path d="m58.793446 71.969292h.493162v1.63042h-.493162z"/><path d="m60.093597 71.969292h.493162v1.63042h-.493162z"/><path d="m61.393753 71.969292h.493162v1.63042h-.493162z"/><path d="m62.693909 71.969292h.493162v1.63042h-.493162z"/><path d="m63.994064 71.969292h.493162v1.63042h-.493162z"/><path d="m65.29422 71.969292h.493162v1.63042h-.493162z"/><path d="m66.594376 71.969292h.493162v1.63042h-.493162z"/><path d="m67.894524 71.969292h.493162v1.63042h-.493162z"/><path d="m69.194679 71.969292h.493162v1.63042h-.493162z"/><path d="m70.494835 71.969292h.493162v1.63042h-.493162z"/><path d="m71.794991 71.969292h.493162v1.63042h-.493162z"/><path d="m58.793446 74.087982h.493162v1.63042h-.493162z"/><path d="m60.093597 74.087982h.493162v1.63042h-.493162z"/><path d="m61.393753 74.087982h.493162v1.63042h-.493162z"/><path d="m62.693909 74.087982h.493162v1.63042h-.493162z"/><path d="m63.994064 74.087982h.493162v1.63042h-.493162z"/><path d="m65.29422 74.087982h.493162v1.63042h-.493162z"/><path d="m66.594376 74.087982h.493162v1.63042h-.493162z"/><path d="m67.894524 74.087982h.493162v1.63042h-.493162z"/><path d="m69.194679 74.087982h.493162v1.63042h-.493162z"/><path d="m70.494835 74.087982h.493162v1.63042h-.493162z"/><path d="m71.794991 74.087982h.493162v1.63042h-.493162z"/></g><path d="m80.2043152 68.9926071c-1.5091476 0-2.7325745 1.2233887-2.7325745 2.7325363 0 1.5091858 1.2234268 2.7325745 2.7325745 2.7325745s2.7325745-1.2233887 2.7325745-2.7325745c-.0000001-1.5091476-1.2234269-2.7325363-2.7325745-2.7325363z" fill="#474c5b"/><path d="m80.2043152 70.0919342c-.9020081 0-1.6332474.7312088-1.6332474 1.6332169 0 .9020309.7312393 1.6332397 1.6332474 1.6332397s1.6332474-.7312088 1.6332474-1.6332397c0-.9020081-.7312394-1.6332169-1.6332474-1.6332169z" fill="#fcd462"/><path d="m88.5143509 70.0919342c-.9020081 0-1.6332474.7312088-1.6332474 1.6332169 0 .9020309.7312393 1.6332397 1.6332474 1.6332397.9020004 0 1.6332397-.7312088 1.6332397-1.6332397 0-.9020081-.7312393-1.6332169-1.6332397-1.6332169z" fill="#27a2db"/><path d="m94.0514221 91.6746597h-36.2991524c-.6861763 0-1.2424316-.5562515-1.2424316-1.2424316v-10.0697098c0-.6861725.5562553-1.2424316 1.2424316-1.2424316h36.2991524c.6861801 0 1.2424316.5562592 1.2424316 1.2424316v10.0697098c.0000001.6861801-.5562515 1.2424316-1.2424316 1.2424316z" fill="#4d5c7d"/><path d="m88.5143509 82.6648254c-1.5091476 0-2.7325821 1.223381-2.7325821 2.7325287 0 1.5091858 1.2234344 2.7325745 2.7325821 2.7325745 1.50914 0 2.7325745-1.2233887 2.7325745-2.7325745 0-1.5091476-1.2234345-2.7325287-2.7325745-2.7325287z" fill="#474c5b"/><g fill="#2f4859"><path d="m58.793446 81.404137h.493162v1.63042h-.493162z"/><path d="m60.093597 81.404137h.493162v1.63042h-.493162z"/><path d="m61.393753 81.404137h.493162v1.63042h-.493162z"/><path d="m62.693909 81.404137h.493162v1.63042h-.493162z"/><path d="m63.994064 81.404137h.493162v1.63042h-.493162z"/><path d="m65.29422 81.404137h.493162v1.63042h-.493162z"/><path d="m66.594376 81.404137h.493162v1.63042h-.493162z"/><path d="m67.894524 81.404137h.493162v1.63042h-.493162z"/><path d="m69.194679 81.404137h.493162v1.63042h-.493162z"/><path d="m70.494835 81.404137h.493162v1.63042h-.493162z"/><path d="m71.794991 81.404137h.493162v1.63042h-.493162z"/><path d="m58.793446 83.52282h.493162v1.63042h-.493162z"/><path d="m60.093597 83.52282h.493162v1.63042h-.493162z"/><path d="m61.393753 83.52282h.493162v1.63042h-.493162z"/><path d="m62.693909 83.52282h.493162v1.63042h-.493162z"/><path d="m63.994064 83.52282h.493162v1.63042h-.493162z"/><path d="m65.29422 83.52282h.493162v1.63042h-.493162z"/><path d="m66.594376 83.52282h.493162v1.63042h-.493162z"/><path d="m67.894524 83.52282h.493162v1.63042h-.493162z"/><path d="m69.194679 83.52282h.493162v1.63042h-.493162z"/><path d="m70.494835 83.52282h.493162v1.63042h-.493162z"/><path d="m71.794991 83.52282h.493162v1.63042h-.493162z"/><path d="m58.793446 85.64151h.493162v1.63042h-.493162z"/><path d="m60.093597 85.64151h.493162v1.63042h-.493162z"/><path d="m61.393753 85.64151h.493162v1.63042h-.493162z"/><path d="m62.693909 85.64151h.493162v1.63042h-.493162z"/><path d="m63.994064 85.64151h.493162v1.63042h-.493162z"/><path d="m65.29422 85.64151h.493162v1.63042h-.493162z"/><path d="m66.594376 85.64151h.493162v1.63042h-.493162z"/><path d="m67.894524 85.64151h.493162v1.63042h-.493162z"/><path d="m69.194679 85.64151h.493162v1.63042h-.493162z"/><path d="m70.494835 85.64151h.493162v1.63042h-.493162z"/><path d="m71.794991 85.64151h.493162v1.63042h-.493162z"/><path d="m58.793446 87.760193h.493162v1.63042h-.493162z"/><path d="m60.093597 87.760193h.493162v1.63042h-.493162z"/><path d="m61.393753 87.760193h.493162v1.63042h-.493162z"/><path d="m62.693909 87.760193h.493162v1.63042h-.493162z"/><path d="m63.994064 87.760193h.493162v1.63042h-.493162z"/><path d="m65.29422 87.760193h.493162v1.63042h-.493162z"/><path d="m66.594376 87.760193h.493162v1.63042h-.493162z"/><path d="m67.894524 87.760193h.493162v1.63042h-.493162z"/><path d="m69.194679 87.760193h.493162v1.63042h-.493162z"/><path d="m70.494835 87.760193h.493162v1.63042h-.493162z"/><path d="m71.794991 87.760193h.493162v1.63042h-.493162z"/></g><path d="m80.2043152 82.6648254c-1.5091476 0-2.7325745 1.223381-2.7325745 2.7325287 0 1.5091858 1.2234268 2.7325745 2.7325745 2.7325745s2.7325745-1.2233887 2.7325745-2.7325745c-.0000001-1.5091476-1.2234269-2.7325287-2.7325745-2.7325287z" fill="#474c5b"/><path d="m80.2043152 83.7641449c-.9020081 0-1.6332474.7312088-1.6332474 1.6332169 0 .9020309.7312393 1.6332397 1.6332474 1.6332397s1.6332474-.7312088 1.6332474-1.6332397c0-.9020081-.7312394-1.6332169-1.6332474-1.6332169z" fill="#fcd462"/><path d="m88.5143509 83.7641449c-.9020081 0-1.6332474.7312088-1.6332474 1.6332169 0 .9020309.7312393 1.6332397 1.6332474 1.6332397.9020004 0 1.6332397-.7312088 1.6332397-1.6332397 0-.9020081-.7312393-1.6332169-1.6332397-1.6332169z" fill="#27a2db"/><circle cx="38.538" cy="42.158" fill="#ededed" r="23.832"/><path d="m56.7789116 56.8013229c2.5220642-2.7968979 3.8086853-7.8777809 3.9999466-11.5923882.2195168-4.2638741-.1967354-8.5426903-1.6993217-12.5519943-.2556076-.6821766.1504364-1.1708717.6904984-1.3315887-.6002655-1.1734982-1.2920952-2.2922287-2.0714188-3.3423977-4.344532-5.8608742-11.3131142-9.655468-19.1616096-9.655468-13.1593971 0-23.8284225 10.6689148-23.8284225 23.8283482 0 5.5701714 1.9091492 10.6925468 5.1066208 14.7464104 2.6398449 3.3547134 6.1594906 5.9786911 10.2133179 7.5185547 2.6398087 1.0213242 5.5073051 1.5712967 8.5084839 1.5712967 3.8182259 0 7.4320946-.895668 10.629715-2.4983215.4007187-.1963997.785614-.4085579 1.170578-.6285172.9584579-.5420952 1.8776436-1.1548958 2.7418747-1.8305283.8876762-.6756325 1.7205467-1.4220085 2.490406-2.2233734.2278748-.2199593.439991-.4478302.6442719-.6756325.0982208-.1083527.1912613-.2215118.2875595-.3316765-.0712245-.3268318-.0076907-.6864662.2774999-1.0027237z" fill="#ededed"/><path d="m62.3732262 42.1558418c0 6.1515541-2.3333206 11.761013-6.1593704 15.9798813-.0235901 0-.047184-.0078621-.07864-.0078621-.1806793-.0078659-.3456345.172863-.4163132.3064079-.0628166.1256828-.0864105.2592735-.1493225.3770905-.7699089.8013649-1.6027298 1.5477333-2.490406 2.2233696-.062912-.0078659-.1335945-.0078659-.2042732-.015728-.282917-.0235443-.3300018.141407-.4557343.3535461-.1492233.2356796-.3928185.4635468-.6599083.5734978-.3064079.1257286-.6520424.1807289-.9741821.2435455-.2042732.0393219-.2906799.0550003-.3613625.2671394-.0470886.125679-.0706787.2749519-.0864067.4085464-.3849564.2199516-.7699089.4320908-1.1705933.6284981.015728-.5656815.3849564-1.0291824.4085464-1.6027298.0078659-.125679-.0235901-.2670898.0078659-.3928185.0313606-.1492729.1177673-.1806793.1728172-.3063622.0628166-.157135.1492233-.4870911.015728-.6128197-.1806831-.1649513-.4242744-.1649513-.4793243-.4634972-.015728-.0864601 0-.1571388.0078659-.2514114.015728-.2750015.0235901-.5970917-.0785446-.8563652-.0864105-.2199554-.3457298-.3378181-.5735016-.3220901-.2200012.0078621-.4164085.1492729-.6284523.0706787-.110096-.0392723-.1650467-.1649513-.2750473-.2042732-.1021385-.0314064-.1728172-.0156784-.2749557-.0156784-.2749519.0078621-.557869.0235443-.8327255.0078621-.2121391-.0078621-.4006844-.0942726-.5970917-.1650009-.2986412-.0942726-.3693237-.2356796-.526413-.4556808-.1257286-.1806831-.2828178-.3064117-.4006805-.4870911-.0392265-.0550003-.1021385-.1100006-.1414566-.1649551-.0628166-.1021347-.0628166-.2121353-.1099052-.3064079-.094368-.1728668-.3143692-.2356834-.3770905-.4320908-.0550499-.1650009-.0235939-.3928185 0-.5578194.0156326-.1492729.1334953-.3770905.0627213-.510685-.0784492-.1492729-.3220444-.1021347-.447773-.1021347-.2749519.015728-.3770905.0864563-.5342751.3221359-.1099052.1649551-.1885452.2906837-.1964073.4870911-.0078659.1414108-.0313606.3456841.0078621.479229.047184.1964073.2750511.2435455.3693237.4164085.1100006.2042732.0470886.4556351.1414566.6599083.0863113.1807289.0863113.2906837.1020393.4870911.0550499.3928185.4242744.4714127.7541809.4635468.1336899-.0078621.5029144-.0707283.6049576.0628662.1022301.1335449.0235901.5106354.0235901.6599083 0 .1335449.0235939.2828178-.0078621.4085464-.0470886.1964111-.2042732.3220901-.3377724.4556847-.2278633.2278175-.3770905.3534966-.6835938.4949074-.2120438.1021347-.432045.2514076-.6676788.2671356-.2435913.0078659-.4557304.0864105-.6993256.1256828-.2669907.0393181-.5577698.0393181-.8248596.1021347-.1728172.0471382-.3142738.1571388-.494957.1728668-.1100006.015728-.2121353.0078621-.3220406.0078621-.2357292-.0078621-.6049576.0471382-.8485489-.0078621-.1178665-.0314102-.2357292-.1414108-.3456345-.1885452-.1257286-.0550003-.2514572-.0864563-.3849564-.0942726-.2593193-.0078659-.5500031-.0235939-.8013649.0550003-.2593193.0785446-.6521378.2120895-.9113655.0549507-.1257286-.0706787-.1021347-.0864067-.1650505-.2042236-.0549507-.0864563-.1334953-.1414566-.2042732-.2200012-.0784454-.0707283-.2591286-.2199554-.2669907-.3299561-.0078659-.0707283.0705833-.141407.1020393-.1885452.1257286-.188591.2671852-.3692741.3849525-.5656853.1885452-.2985458.3849564-.5028191.4400063-.8641815.0393181-.2356796 0-.4242744-.0550499-.6442261-.1099052-.4164124-.0706787-.8327751-.0706787-1.2570496 0-.2435455-.0549545-.5342255.0470848-.7541809.0629158-.141407.1807785-.2356796.2121391-.3928185.0707779-.3064079.015728-.6992264.015728-1.013504 0-.2513618.1178665-.7934532-.1728172-.8877258-.4400024-.157135-.6756363.2513618-.6520424.6285019.0156288.2985458-.1335945.5184975-.1493225.8091812-.0078659.2278671.0550499.479229-.0235939.6992302-.0863113.2200012-.3063126.3142738-.4163132.5028191-.0942726.1806793-.031456.4478188-.031456.6442261.0078621.2592278-.0234947.4320908-.1257286.6677742-.0941772.2200012-.2513618.4085464-.2984505.652092-.0865059.3928185.0078621.7541809.0078621 1.1627274.0156326.3692741-.031456.7935028-.2750473 1.0841827-.1413612.1728172-.2042732.2121391.0078621.3535461.3142738.1885452.6285477.3613625.9741821.494957.235733.0864067.494957.1649513.7149582.2906799.2042732.1256828.3849564.1021385.6205902.1571388.2829132.0706787.565731.1649513.840683.2513618.1178665.0393181.4557304.0235901.494957.1335907-.2121391.2828178-.3928185.3378181-.7228203.3613625-.3141785.031456-.5577736.0864563-.8484535.2042732-.2200012.0942726-.3928185.2121391-.5813637.361412-.2592278.2199516-.463501.3220901-.8170967.3220901-.3378639 0-.6284523-.0235443-.9584541.0864563-.4006805.141407-.7542763.3142242-1.1941833.3378143-.5734978.015686-1.1784554-.1100006-1.7362251.015686-.510685.1100006-.982048.1021347-1.5005951.1021347-.1334972 0-.2593231.0078659-.3928185 0-.3377705 0-.7699089-.0942764-1.0841846.0785904-.0470867.0235443-.0942726.0550003-.1335926.0864105-4.0538177-1.5398674-7.5734577-4.163868-10.2132835-7.5185547.1571846-.1100006.3221378-.2356796.4164104-.4006805.0707779-.1256828.062912-.2042732.1021366-.3456841.0628166-.2356796.1807785-.3692245.1729145-.6284981-.007864-.2278175-.0943699-.4242287-.1335945-.6442299-.031456-.2042732-.0470867-.6835022.1414585-.8249092.1177673-.0942726.3928185-.0550003.5341797-.0864105.1492233-.0392723.2985458-.1257286.4321384-.2042732.3534985-.2121353.3377705-.4242249.2042732-.777771-.070776-.1807289-.07864-.361412-.1258259-.5420914-.0627193-.2278671-.2199039-.3928185-.3456326-.5813637-.1885471-.2828674-.2200031-.5735474-.3141785-.8956375-.031456-.1257286-.0707779-.3221397-.1729145-.4242783-.0470867-.0471344-.1257286-.0785408-.1806812-.125679-.1885452-.1650009-.2434959-.4399567-.3614578-.6599579-.1177692-.2278175-.2356339-.4477692-.4084511-.636364-.2434978-.2513618-.4713631-.5027695-.6992283-.777771-.1413612-.1728172-.3299065-.2985458-.4635944-.463501-.1177692-.1492729-.1492252-.3300018-.2512665-.4714088-.11796-.1570892-.2278652-.2278175-.3065052-.4320908-.1649532-.4320908-.4713631-.9034538-.5184517-1.3827324-.047184-.4478188-.007864-.9349098 0-1.3827286.007864-.2749519.031456-.5734978.0941772-.8484535.03932-.1807289.110096-.3692741.2042732-.5264091.023592-.0314102.125824-.1806831.133688-.2356834.0313606-.1806793-.047184-.3770905.0077686-.5734978.0549526-.1492729.1650486-.2278175.2749538-.3378181.1728172-.1807289.4085464-.37714.5577717-.5813637.133688-.1807289.1571846-.4006844.2514572-.5970955.1257286-.2278633.3377705-.3221359.5577717-.4399529.1806812-.1100006.3065052-.1492729.5107803-.1335945.3063126.0235939.5027218-.1178169.7384529-.3142242.1492233-.1257286.2670898-.2514114.3613625-.4006844.055048-.0864067.0864086-.2121353.1570873-.2906799.1493225-.1806831.3928204-.3692741.6364136-.3849564.2200012-.0078621.4321384.0078659.6521397-.0235901.1806812-.0235443.3534985-.0706825.5341797-.0942726.2593212-.0314102.5263157 0 .7935009-.0078659.2514572 0 .4634991-.0314064.7069969.0471382.6206837.2357292 1.115736.652092 1.767683.8013649.3457317.0785446.7071896.0392723 1.052824.1021347.1570892.0235939.2749538.0235939.4321384-.015728.2356339-.0706787.4712677-.1806793.7069969-.0392723.102232.0550003.1806812.1650009.2750492.2278175.1099052.0707283.2277699.1021385.3299065.1728668.1649532.1100006.3142738.2828178.4400024.4478188.1806812.2514076.3770905.4870911.5656357.7227745.1100025.157135.1885471.3770905.3220425.5185471.1414585.1492729.3928185.1649513.557869.2984962.1885452.1571388.2199039.4321404.4870911.494957.1728172.0471344.3220425.0550003.4949551.1335907.1571846.0550003.3614578.0706825.4634972.2120895.1885452.2592735.1964111.5970917.4478683.8327751.3456345.3142738.8327255.7306824.7148628 1.2570457-.1020432.4320908-.463501.7856407-.5813675 1.2098656-.0549507.1728668-.0706787.3221397-.031456.4870911.031456.1021385.0943718.1885452.1179619.2985458.0234985.1650009-.015728.3456841.0313606.510685.0470886.1492729.1571846.2985458.2356339.4399529.1336899.2356834.2435951.479229.3693237.7149086.1414566.2671394.3614578.4635468.6677704.5342293.2200012.0471344.3535004-.1256828.5813637-.0471382.1414566.0471382.3770905.1728668.4400024.3300018.0393219.1256828.0078659.5420914.0235939.604908.0313606.2200012.0784492.510685.1885452.7070961.1649513.2906799.4634972.4478188.762043.5734978.2278671.0942726.5027237.1492729.6991348.3142738.2121353.1806831.2514572.4163628.3614578.652092.1414566.2906837.4713631.3535004.7228203.5263634.1806831.1335449.3063164.2828178.5499077.3220901.3221397.0392723.7463188.0628662 1.0763206.015728.2278633-.0314064.4320412-.1806793.6599083-.2200012.2435913-.0549507.5264091-.141407.5970917-.4163628.0393181-.1650009.0550461-.5263634-.0078659-.6834984-.0549507-.1728668-.2827225-.2042732-.4242744-.2906837-.2120399-.1257286-.3849525-.2356796-.6284523-.2906799-.1100006-.0235939-.2199059 0-.3300018-.0471382-.2513618-.0942726-.5184517-.4164085-.7227249-.5970917-.2042732-.1807289-.2985458-.3378181-.3064079-.6128197-.015728-.1885452-.0470886-.4870911.0628166-.6520462.3378639 0 .6521378-.0078621.9741821.0785446.3221359.0785446.6285477.1335449.9505882.1414108.2907791.0078621.6521416-.0314102.8485489-.2906837.2042732-.2906799 0-.7620926.3456345-.9741821.2907791.3692284.542141.7149086.7542801 1.131321.1885452.3613625.3300018.6913643.7464104.8091812.1885452.0471344 1.1312714.141407 1.0683594-.2828178-.015728-.1492729-.3220406-.2828178-.4006805-.3849564-.2434998-.2828178-.4164124-.6442261-.4712677-1.0056381-.0550499-.3142242-.1807785-.3142242-.4164124-.4949532-.1728172-.1335449-.2514572-.3378181-.4242744-.479229-.2121353-.1649513-.3613625-.3456802-.4714584-.5892258-.0941772-.2042732-.0313606-.6127739-.1885452-.7620468-.1177673-.1100006-.4085464-.0707283-.5577736-.0707283-.1885452-.0314064-.3456345.0235939-.4713631.1571388-.1650467.157135-.3457298.2828178-.5421371.3770905-.1413612.157135-.0784492.3928185-.0784492.5813637.0078621.2121353.0470886.4085464-.062912.5892258-.1649551.2592735-.7541809.526413-1.04496.4714127-.2669945-.0392723-.2591286-.2671394-.3613625-.4635468-.0941772-.1492729-.1964073-.2906837-.3063126-.4320908-.1493225-.2199554-.3535957-.3378181-.6128197-.3378181-.1178665.0707283-.1493225.1728172-.0865059.2906799 0 .0392723 0 .0628662-.0078659.1021385-.0470848.141407-.5263138.4006805-.5499077.4085464-.2121353.0706787-.4400024.1570892-.4948578-.1021385-.0078621-.0785904.0077667-.1807289.0077667-.2592735.0078659-.3220901.0706825-.5499535.3300018-.7463646.2749557-.2120895.4556351-.3220901.4870949-.6992264.0234947-.322094.0156288-.6363678.1257286-.9584579.031456-.1100006.0863113-.2356796.1099014-.3535461.0393219-.2906799.0550499-.5892258.0550499-.8877716 0-.2042732.0785446-.6520462-.1413612-.7777748-.0707741-.0078621-.1336899-.0235443-.2042732-.0314064-.1022339 0-.1493187.0471344-.1414566.1335449-.1021347.1335449-.0628166.2278175-.2592239.2906799-.1493225.0550003-.5735016.1414108-.7149582.0235939-.0706825-.0550003-.0549545-.1650009-.0549545-.2435455v-.5342751c0-.1570892.0705872-.4556351-.015728-.6127739-.2121353-.3378181-.7385483 0-.9506836-.2592735-.1414566-.1649513-.0392265-.4478188-.1728172-.636364-.1100006-.1571388-.3064117-.4556847-.5342751-.4242287-.0706825 0-.1334991.0864105-.1885452.1021385-.1099052.0392723-.2905884.0235443-.3770905 0-.0706825-.015728-.1413612-.0550003-.2042732-.0864563-.1413612-.0471382-.2670898-.0392723-.4164124-.0392723-.2748566 0-.5577698-.0156784-.8405876 0-.2828217 0-.5342789.1257286-.8169975.141407-.4400043.0078659-.4478683-.2199516-.6364136-.5420914-.1570892-.2513618-.4085464-.3928185-.5577717-.636364-.1885452-.3142242-.3770905-.6441803-.542141-.9820442-.1100006-.2356834-.2828178-.5027733-.3221378-.7620468-.0706806-.3614082.4557323-.2200012.6678696-.3142738.2356339-.109951.4477711-.3849525.6755409-.4792252.2121372-.0706825.4635944-.0785446.6835938-.0785446.1964111-.0078659.5735016-.1021385.7541847.0235443.0785408.0550003.0707741.141407.1100006.2121353.1021347.2042732.251358.3535461.3300018.5656357.0706787.2121391.1570892.4006844.2200012.6128197.0627174.1806831.1885452.3299561.3770905.4163628.2434959.1021385.5184517-.0314064.746315-.1492729.1413612-.0785446.4006844-.2356796.494957-.3770905.0942726-.141407.0549507-.2592735.0706787-.4085464.015728-.1728172.0707779-.2199516.1492271-.3534966.1179581-.2121391.2514572-.7070923.5970917-.6128197.1728172.0550003.3614578.2906799.5185471.3849525.1964073.1257286.3378639.2671394.5264091.4164124.1413612.1021347.2906837.2670898.4478683.3378181.1728172.0785446.5105896.0550003.6912689.0314064.2829132-.0314064.5185471-.1885452.7620468-.0078621.1885452.157135.3143692.2671356.5500031.3378639.1335907.0392723.2906799.0706825.4320412.0864105.2357292.0314064.2121391.0235443.3143692-.1257286.1334991-.2042274.1964111-.3142281.4476776-.3692284.2357292-.0550003.4321365.015728.6128197.1414108-.1020432.2121353-.2200012.4242249-.3535004.620636-.062912.1335907-.0550461.2435455.0393219.3378181.0785446.2121353.2513618.4085464.3220406.6364098.062912.1492271.0707779.2513618.0707779.4085007-.0078659.2514076.0549507.3456802.2200012.5028191.1806793.1806793.3456345.3299522.5735016.4320908.2670898.1100006.4477692-.015728.6677704-.1492729.3221397-.2120895.463501-.5970917.8877754-.5813637.2906799.015728.7856369.1178627 1.0292282-.0785446.1964111-.1571388.1256332-.4399567.1570892-.6599579.0235939-.2042732.0470886-.3535461.0470886-.5499535.0078659-.4163628.3535957-.5342293.6992302-.6442299.5185471-.1649513 1.1234055-.3613625 1.2256393-.9663162-.4557304-.1414108-1.0999107-.0706825-1.5320511.1492729-.3142738.1650009-.5734978.5184975-.8405876.7463646-.1414566.157135-.3142738.2670898-.510685.3299522-.1414566.0550003-.2749519.1178665-.4164085.1885452-.2041779.1414108-.3692284.37714-.6441803.4006844-.1570892.015728-.3535004.0078621-.5028191 0-.8877754-.0314102-.1964111-.8877754-.1571884-1.3434563.015728-.2828178-.0313568-.4242287-.2905846-.463501-.1806793-.0235901-.5970917-.1021347-.6128197-.3692741-.0078659-.2120895.2749519-.3220901.4085464-.4320908.2356339-.2199516.4164124-.5106354.667675-.7070427.4242744-.3456841 1.076416-.2121391 1.5948677-.2121391.3300018.0078621.6364136-.0707283.9584541-.0707283.4164124.0078621.8328209-.0078163 1.2492332 0 .0864067-.0078163.1728172 0 .2593231.015728.1020393.0707283.219902.1257286.3456306.1650009.1728172.0550003.3535004.0314064.5341797.0314064.220005 0 .4478683-.0078621.6600075.0392723.2357292.0550003.2357292.1964111.2042732.4164124-.0235939.1414108-.0550499.2906837-.07864.4320908.031456.1256828.1022301.2121391.2200012.2749557.1964073.1964073.2514572.4242744.4006805.6442261.047184.0942726.1257286.1414108.2278671.1571388.1413612.1021347.2749519.2121353.4006805.3299522.1649551.1492729.2905884.3064117.5263176.3300018.3928185.0314102.793499-.0078621 1.1863174-.0078621.1492271 0 .3692284.0471344.510685-.0078659.1021347-.0314064.1729126-.1100006.2121391-.2121353.1100006-.1021385.23563-.1885452.3613586-.2749557.3142776-.3535461-.0156288-.9506378.3535957-1.288456.2984505.2042732.0235939.5735016 0 .8013649-.015728.1414108.0078659.3378181.015728.4870911.015728.2199554.1728172.3770905.3063164.5342293.1257286.157135.4164085.4399529.6521378.3064079.1806831-.1100006.2121391-.4870911.2828178-.6599541.0942726-.2120895.1964111-.3770905.3457298-.5577736.3141785-.3771362.6991348-.6992264.934864-1.139183.1177673-.2278671.0785446-.510685.1964073-.7306366.0628166-.1257286.1492271-.1807289.1885452-.3221397.0706825-.2670898 0-.6756363 0-.9584541-.0078621-.141407.0078659-.2671356.0393219-.4006805.0705833-.2671394.1492233-.5892296.2748566-.8406372.3457298.0707283.5500031.3849525.8800087.4478188.2200012.0392723.4792252-.0078659.699131 0 .0865059 0 .2278671.0314064.3065071-.0235939.1334953-.1021347.2042732-.4478188.2199059-.5970421.015728-.2435951-.0077705-.5028191-.0077705-.7385025 0-.2121372-.015728-.4242744-.0078621-.6285477.0156326-.1964092.0705833-.3534985.1806793-.5106354.1020432-.1335926.2592278-.1964092.3063164-.3692741.062912-.2435455.031456-.636364.015728-.8955898-.015728-.1571369-.0549545-.3064098-.1964111-.4085464-.0942726-.0785923-.2592239-.0942726-.3456345-.1885452-.1492233-.1492729-.094368-.3928185-.0865021-.5892277 0-.2042751-.0078659-.3928204-.0078659-.6049576 2.9383707 3.9595951 4.6745997 8.8698276 4.6745997 14.1728786z" fill="#1c75a1"/><path d="m56.2948227 26.8288937c-.1096191-.037981-.2065811-.1221771-.3162003-.1474972-.0842972-.01688-.1770363.00844-.2614365-.021101-.1096191-.037981-.1432762-.1096191-.2065773-.1981373-.1221771-.1644802-.3288574-.2614384-.3288574-.4764576-.0041199-.0927391-.025219-.2275753-.0084419-.3161964.0211029-.1011791.1138382-.1559372.1391602-.2528954-.0758591-.1476002-.5016747-.067522-.6323929-.021101-.1348381.0464211-.2361183.1096191-.3878365.0800781-.1939163-.0420971-.3626175-.2444553-.4932327-.3836136-.0675201-.08008-.1180611-.2192383-.2108002-.2740993-.1475983-.0842991-.3372955-.0927391-.4891167-.1770382-.1939163-.1053982-.3878326-.2276783-.5101128-.4131546-.0758591-.1054001-.1391602-.2192383-.2234573-.3246384-.1180611-.1474953-.2908783-.2065773-.4384766-.3204155-.084301-.0674191-.1517181-.1560402-.2318993-.2276783-.1728172-.1517181-.3625145-.1432781-.5648727-.2361183-.1264992-.0547581-.2192383-.1263962-.3288574-.2107983-.1307182-.1010761-.2572174-.1601582-.4131546-.2192383-.2403374-.0926361-.4553566-.1896973-.6619339-.3414135-.0885201-.0633011-.1391602-.1054001-.2276802-.1349411-.1896973-.0547581-.3119736-.1854763-.4763527-.2824364-.1264992-.0759602-.2361183-.1391582-.3541756-.2276764-.096962-.08008-.1812592-.1054001-.2318993-.2192383-.0336571-.0716381-.0505371-.2318993-.1263962-.2655563-.0633011-.029541-.1349411.00844-.2066803-.0253201-.1348381-.067522-.2064781-.1687012-.2908783-.2867603-.0758591-.1053982-.1390572-.1179562-.2486763-.1728172-.1180573-.0548611-.2234573-.1349392-.3330765-.2023582-.1854782-.1053982-.1939163-.2697754-.2445564-.4680157-.01688-.0716381-.0337639-.1432762-.0505409-.2149143-2.6138725-.9823513-5.4428673-1.522007-8.3982582-1.522007-1.3322029 0-2.6349716.1096191-3.9081993.3204174-.0041161.00844-.012558.01688-.0209999.0253201-.0844002.0800781-.1602592.1222801-.1813583.2444553-.01688.1096191.01688.2276783.0084381.3372974-.0084381.0927391-.0463142.2529984-.1307182.3077564-.0631981.037981-.2023582.037981-.2782173.067522-.1011772.037878-.1854744.1095161-.2655525.1770363-.0801849.0631981-.1813622.0927391-.2403412.1770382-.0590782.0844002-.0675201.1898003-.0800781.2908764-.0210991.1264992-.0548592.2023582-.1391602.2951984-.1138382.1263962-.0842972.2782173-.029541.4384766.059082.1601562.1687012.3118744.2741013.4425926.0716362.0928421.0631981.0844021.0927391.1729202.029541.0716381-.012661.037878.0631981.0885201.1475983.0969582.3372955.0126591.4806747.1307182.0631981.050539.1054001.1179562.1770401.1601582.0631981.0379791.1222763.0463181.1854744.0842972.1349411.0758591.1939201.2950974.2782173.4215965.0844002.1349392.042202.2403374.0633011.3920555.0337601.2656593.2528954.3161964.5016747.3372974.1138382.0126591.2656593-.029541.3752785.00844.0463181.0126591.1390572.1180592.1517181.1264992.0548592.0463181.1812553.1011791.2107964.1685963.01688.029541 0 .0928421 0 .1180592-.0084419.0970631.0042191.2950974-.0842972.3710575-.029541.025322-.1433792.0547581-.1728172.0674191-.101181.0464211-.3330803.1053982-.3921585.1981373-.0758591.1054001.0084381.2361183.0633011.3288574.0842972.1476002.1474953.2318993.3288574.2656593.0716362.01688.1643753.029438.2360153-.004221.0717392-.0379791.1096191-.1180592.1855774-.1475983.067421-.029541.1517181-.033659.2234612-.0464211.0674171-.012558.1306152-.020998.1812553-.0716381.042099-.033762.0631981-.1011791.1054001-.1307201.0800781-.0631981.5269928-.1095161.5649757-.01688.0463181.0970612.0041161.3374004-.059082.4174786-.0800781.0969582-.1517181.1053982-.1560402.2402344-.0084381.2487793.1097221.3626194.1982422.5776367-.2783203.2276783-.5818558.1643772-.9064941.1728172-.1054001.0042191-.2403374.0253201-.3246384.0886211-.0969582.0716381-.0800781.1559372-.0336571.2486763.067421.1433792.1728172.3161964.2697754.4384766.054863.0716381.1180611.1475983.2065811.1728172.1601562.0464191.3837166.01688.5480919.0126591.2150192-.0042191.4215965-.0589771.6366158-.037878.1475983.016777.3793945.1054001.5016747-.0210991.0506401-.050642.0631981-.1433811.1180573-.1896992.058979-.0506401.1433792-.0464191.2150192-.0464191.1432762.0042191.1981392-.004221.3035355-.1011791.1770401-.1518211.4215965-.067522.6239548-.1476002.071743-.0253201.1222801-.0674191.1981392-.0927391.1011772-.0336571.2023544-.029541.3077545-.029541.1602592 0 .3246384.033762.4722366-.0420971.05476-.029541.0885201-.0674191.1517181-.0801811.0717392-.016777.1560402.0043221.2318993.0043221.0969582-.0043221.1771393-.0210991.2698784-.0422001.1559372-.0422001.3245316-.0506401.4552536-.1433792.1475983-.1054001.1180573-.2993164.1138382-.4679146-.0042191-.0717411-.0042191-.1307182-.025322-.1981373-.0252151-.0800781-.0842972-.1391602-.1010742-.2150173.3878365-.050642.7883301.016777 1.1803856-.029541.2614403-.0337601.6281738-.3161964.4806786-.6028538-.0506439-.0886211-.126503-.1896973-.2192383-.2361183-.1096191-.0505371-.2614403-.0126591-.3795013-.0126591-.1390533.0042191-.3372955.0379791-.4636917-.037878-.1729202-.1138401-.2487793-.3415184-.4806786-.3710575-.1517143-.021101-.3077545-.0674191-.4469147-.1476002-.0800781-.0463181-.1474953-.1180592-.1980362-.1939182-.0590782-.0885181-.0717392-.1138382-.029541-.2023563.058979-.1180611.2318993-.1854782.3457375-.2361202.1054001-.0463161.1685982-.0505371.2824364-.0547562.101181 0 .2108002.0210991.3077583-.021101.0800781-.0337601.0842972-.0631981.1432762-.1222801.1433792-.1432762.5607567-.0800781.7462349-.0716381.1686974.004221.3457375.0337601.5101128.01688.059082-.00844.1307182-.0422001.1898003-.037981.1054001.0084419.1812592.1011791.2528954.1602612.0801811.0674171.1264992.1053982.2318993.0885181.1138382-.021101.2234573-.0716381.3457375-.0464211.1349373.033762.1643753.1771412.2234573.2782173.0631981.1053982.1432762.1686993.2276802.2487774.1685944.1518211.2360153.2614384.2402344.4933376-.2150192.1179562-.5859718.1601562-.7209129.3625145-.07164.1053982-.1011772.2950974-.0842972.4173756.0379791.3246365.4721336.3541775.7335701.3457375.1349411 0 .3161964-.037981.4469185 0 .1222763.037878.1601562.1517162.2361183.2402363.1010742.1181622.1981354.1644802.3456345.1729202-.1728172.3456345-.6408348.6492729-1.0328903.6239529-.2318993-.01688-.4511375.0253201-.6703758-.0927391-.1179543-.0633011-.2192383-.1264992-.2993164-.2361183-.0463181-.0631981-.0589752-.0842991-.1432762-.0927391-.0675201-.00844-.2825394-.0210991-.3541756.00844-.0505371.021101-.0927391.08008-.1349411.1096191-.1011772.0674191-.2445564.08008-.3035355.2023582-.058979.1180592-.0674171.2950974-.07164.4258156-.0084381.2824364.1601562.3709564.4047165.4047165.1685982.0253201.3288574.0885181.4974556.0969582.0844002.00844.1729202-.0042191.2572174-.0042191.2023582 0 .4426956-.033659.6408348 0 .1096191.0210991.1939163.0842972.3035355.1180592.1348381.0463181.2613373.0422001.4089355.0463181.1474953.0043221.2403374.0212021.3836136.0759602.1054001.0422001.1854782.0547581.2993202.0547581.5185509-.012558 1.0372086-.0041161 1.5557632-.0041161.2023582 0 .4089355.0125561.6112938 0 .058979-.004324.1728172-.0464211.2234612-.004324.0505371.0506401.0758553.2066803.1096153.2698784.042099.0842991.067421.1264992.0632019.2192383-.0042229.0800781-.012661.1559372.0042191.2361183.01688.1054001.0758591.2023582.0800781.3118744.0084381.1813602-.0083389.1940212-.1306152.3330765-.084404.0928421-.2318993.1180592-.3415184.1898003-.1054001.0674191-.1685982.1263981-.2993164.1390572-.101181.00844-.1982422.004221-.2993164 0-.2276802-.0042191-.4637985.029541-.6914749.01688-.1222801-.0042191-.2655563-.037981-.3793945-.0800781-.1349411-.0464211-.2403412-.0589771-.3752785-.0633011-.1770363-.00844-.3119774-.0547581-.4636955-.1306171-.1475983-.0717411-.3161964-.1475983-.4806747-.1602592-.1096191-.0042191-.1559372-.0337601-.2487793-.0969582-.042099-.029438-.0926361-.058979-.1348381-.0969601-.0210991-.0210991-.0800781-.1053982-.1138382-.1222782-.1475983-.0631981-.2739944.0675201-.3626175.1686993-.1390572.1559372-.2697754.3119774-.4173737.4636936-.067421.067522-.1179581.1264992-.2150192.1476002-.0885201.01688-.2402344.00844-.3329735-.004221-.1264992-.0253201-.2192383-.1264992-.3288574-.1981373-.130722-.0885181-.2318993-.1349392-.3879395-.1349392h-.7209129c-.1222801 0-.2486763 0-.3709526-.0042191-.042202 0-.1180611-.0168819-.1560402 0-.1138382.0379791-.1981392.2614384-.2276802.3626175-.0969582.3457375.1476021.6913719.3879395.9148293.042099.037981.0885201.0927391.1474953.1180592.0759621.0337601.1729202.0253201.2445602.0674191.1685982.1011791.1560402.3288555.3668365.3668365.2697754.050539.7209129.016777.8515282.3288574.025322.058979.0211029.1348362.0464211.1981373.0337601.0969601.0885201.1517181.1517181.2318993.088623.1138382.0759621.2444553.1644783.3667336.14328.2023582.3709564.3541775.5438766.5312157.1180573.1222801.2317963.2023582.3962746.2445602.3204193.0842972.6998138.0337601 1.0244484.0378761.2192383 0 .4215965-.042099.6450539-.042099h2.8710938c.1222801 0 .2065773.0211029.2993164-.0590782.1138382-.101181.1854782-.2739983.2192383-.4173775.01688-.0842991.029541-.1812572.0210991-.2697754-.012661-.1222801-.0674171-.1981392-.1222801-.3035374-.0927353-.1854782-.0379791-.4426956-.0421982-.6492748 0-.1644783 0-.2065773.0886192-.3499565.029438-.037878.042099-.0716381.07164-.1096191.0927391-.1096191.2361183-.1349392.3499565-.2192383.1263962-.0927391.1179581-.1939163.1138382-.3372974-.0043221-.1517162-.0043221-.3034325-.0043221-.4594727 0-.0759621-.016777-.1685982-.0041161-.2445583.029438-.1728172.1559372-.2445583.1263962-.4342556-.0042191-.0463181-.042099-.2697773-.1054001-.3288574-.029438-.029438-.1517143-.0463181-.1770363-.058979-.1222801-.0548611-.2908745-.1896973-.2993164-.3330765-.0084419-.1306171.1096191-.3372974.1264992-.4763546.0083389-.0886211.0042191-.1812572.0042191-.2698784 0-.1306171.0041199-.2697754 0-.4047165-.0042191-.3077564-.3415146-.3457375-.5480957-.5101128-.0758553-.058979-.2023544-.1771412-.2276764-.2782173-.025322-.1138382.1096191-.2361183.1939163-.3036385.1222801-.0969601.2192383-.0927391.3626175-.0885201.113842.004221.2655563-.037878.3667374.021101.2993164.1686993.1812553.6450539.1812553.9190502 0 .1138382-.0378761.3077564.0043221.4174786.0378799.0926361.1685982.1770363.2360153.2486763.0927391.0969582.1560402.1475983.2993202.1644783.1053963.0167789.2276764.020998.3372955.012558.1433792-.00844.2487793-.0631981.2487793-.2149143-.0042191-.1476002-.071743-.2994194-.1939201-.3794975-.1391563-.0969601-.2234573-.1812592-.3035355-.3330784-.0759621-.1390572-.0464211-.2908764-.0464211-.4468136 0-.0759602-.0421982-.2698784.0337601-.3246365.058979-.037981.2950974-.0043221.3582954-.0043221.1264992.0043221.3077583.01688.4215965.0886211.0800781.0505371.1054001.1474972.1770363.1896973.1729202.1138382.4259186.0589771.6198387.0506401.2486725-.00844.3920555.1306171.5648727.2993164.1011772.0969601.1898003.1770382.2361183.3118744.0927353.2572193.2572174.4511356.4553528.6367168.1812592.1728172.2655563.3962746.4384766.5775318.1222801 0 .1601601.042202.2824364.037981.2108002-.0042191.2445602.025322.3457375.2065792.0463181.0885181.1096191.1685963.1812592.2360153.029541.0422001.058979.0886211.0842972.1307182.1391602.0759621.3204193-.1643772.3794975-.2613354.0758591-.1138382.0885201-.2065773.0927391-.3415165 0-.0758591-.0464211-.2487793-.0210991-.3077583.0927391-.2276783.5396538-.2065773.725132-.1981373.0927391 0 .2866554.050539.3330765-.0548611-.0633017-.1137352-.0927397-.1601562-.215016-.2023563z" fill="#1c75a1"/><path d="m14.8266125 39.7339859c.1476002.0842972.2487793.0547562.3457375-.101181.0758591-.1264992.1307201-.2529984.2192383-.3710556.1939173-.2655563.4173756-.2993164.729353-.2993164.0674171 0 .1476002-.01688.2150173.0084381.0927391.029541.1307201.1096191.2361183.1264992.2782173.05476.5522118.05476.8263111.012661.2318993-.0379791.3498554-.2276764.4847946-.4090385.1729202-.2360153.3035374-.5226707.3710575-.8094292.0420971-.1728172.0337601-.3499603.029438-.5227776-.004118-.2234573.0590801-.3204155.1264992-.5185509.037981-.126503.1011791-.2613373.1096191-.3878365.00844-.1771393-.042099-.3626175.0464211-.5227737.0547581-.096962.1390553-.1685982.1854763-.2698822.0716381-.1390533.1602612-.2950935.2150192-.4384727.01688-.0505409.01688-.1095161.037981-.1601601.0420971-.1011772.1011772-.1728172.1137352-.2866554.012764-.0969582-.020998-.2023582-.012558-.2994194.012558-.1221771.0885201-.2317963.1011791-.3540726.012661-.0885201-.0126591-.1812592-.0042191-.2698822.0337601-.3709526.2065773-.7587891.3330765-1.1003075.0631981-.1685944.1306171-.2783165.2613354-.4047127.1180592-.113842.2740993-.2276802.3541775-.3752785.0842991-.1559372.0885201-.3540745.1559372-.5227757.067522-.1643772.1812572-.2697754.3035374-.3962746.1138382-.1222801.1939182-.2487793.2698784-.4004955.0842991-.1685982.2065773-.2783184.3415184-.4131565.1179562-.1138382.2697754-.2276783.3330765-.3793945.0463181-.1012821.0463181-.2192383.0800781-.3246365.0336571-.1097221.0463181-.2066803.0631981-.3161964.0253201-.2023582.1054001-.3583984.1981373-.5354366.0717411-.1349392.059082-.3288555.1560402-.4384747.1138401-.1349392.3035374-.2529984.4426956-.3583984.1601582-.1180592.2950974-.2614384.4383736-.3962746.1054001-.1011791.2024612-.1854782.2825394-.3077564.0969582-.1518211.2065773-.2739964.3119774-.4173756.0842991-.1054001.1053982-.2740993.2192383-.3541775.1180592-.0842991.3456345-.021101.4089355-.1601582.0126591-.029541 0-.0675201.00844-.0969582.01688-.0548611.0589771-.1097221.0800781-.1687012.0842991-.2318974.0337601-.4847927.1053982-.720911.029541-.1096191.08008-.2403393.1432781-.3330784.0717411-.0969582.2151203-.1728172.2572174-.2908764.01688-.0589771.004221-.1559372.012661-.2192383.012661-.0800781.037981-.1391582.0590801-.2192364.029438-.1265011.042099-.2150192.1221771-.3246384.0548611-.0842972.1138382-.1643772.1686993-.2487774.0758591-.1138401.1517181-.2192383.2023582-.3456345.058979-.1349392.1307201-.2952003.1307201-.4469166 0-.0800781-.029541-.1685982.00844-.2445583.0547581-.1179562.2191353-.1728172.3077564-.2613373.1138382-.1096172.2064743-.2192364.3287544-.3204155.1391602-.1138401.2445583-.2487793.3415165-.3921585-6.3618144 3.7564853-10.8265504 10.3881782-11.6065444 18.1076225z" fill="#1c75a1"/><path d="m60.6561127 51.0385933c-3.5131683 8.7614746-12.0934067 14.9505882-22.1150131 14.9505882-13.1637611 0-23.8329754-10.6691093-23.8329754-23.8328705 0-5.3431969 1.7523155-10.2720737 4.7216644-14.2427616-1.1220932 2.7622433-1.7350349 5.7747936-1.7350349 8.9340725 0 13.1551781 10.6692142 23.8329277 23.8243351 23.8329277 7.8464393 0 14.8037567-3.7894516 19.1370239-9.6419563z" fill="#344d5b" opacity=".15"/></svg>