<svg enable-background="new 0 0 110 110" height="512" viewBox="0 0 110 110" width="512" xmlns="http://www.w3.org/2000/svg"><path d="m45.236149 70.781036h19.527704v10.740237h-19.527704z" fill="#2f4859"/><path d="m85.6843185 26.3482685h-61.3686409c-1.1608734 0-2.1019707.9410954-2.1019707 2.1020508v42.3050156c0 1.160881.9410973 2.1019745 2.1019707 2.1019745h61.3686409c1.160881 0 2.1019745-.9410934 2.1019745-2.1019745v-42.3050156c0-1.1609554-.9410934-2.1020508-2.1019745-2.1020508z" fill="#3a556a"/><path d="m37.163853 19.41452h35.672295v57.556553h-35.672295z" fill="#fcd462" transform="matrix(0 1 -1 0 103.193 -6.807)"/><path d="m80.396339 68.903976h2.984435v1.06587h-2.984435z" fill="#e56353"/><path d="m75.621239 68.903976h2.984435v1.06587h-2.984435z" fill="#fcd462"/><path d="m70.846146 68.903976h2.984435v1.06587h-2.984435z" fill="#44c4a1"/><path d="m37.286217 79.719086h35.427563v3.93265h-35.427563z" fill="#64798a"/><path d="m46.289711 37.9488602v13.8180732h-3.4226303l6.2972755 6.1770707 6.2972756-6.1770707h-3.4009857v-13.8180732z" fill="#e56353"/><path d="m63.710289 57.9440041v-13.8180733h3.4226303l-6.2972755-6.1770706-6.2972756 6.1770706h3.4009857v13.8180733z" fill="#ebf0f3"/></svg>