<svg enable-background="new 0 0 110 110" height="512" viewBox="0 0 110 110" width="512" xmlns="http://www.w3.org/2000/svg"><path d="m28.9288368 34.618866v36.9293594c0 2.5683594 2.0820312 4.6503906 4.6503296 4.6503906h51.793148c2.5683594 0 4.6503906-2.0820312 4.6503906-4.6503906v-36.9293594z" fill="#e6e9ef"/><path d="m85.3722992 22.5000629h-51.7931366c-2.5682983 0-4.6503391 2.0821095-4.6503391 4.6504059v7.8361034h61.0938797v-7.8361034c.0000019-2.5682964-2.0820446-4.6504059-4.650404-4.6504059z" fill="#64798a"/><g fill="#ebf0f3"><path d="m81.841835 26.9014702c-1.0054398 0-1.8204422.8150024-1.8204422 1.8204441 0 1.0053482.8150024 1.8204441 1.8204422 1.8204441 1.0053482 0 1.8203583-.8150959 1.8203583-1.8204441 0-1.0054417-.8150101-1.8204441-1.8203583-1.8204441z"/><path d="m74.9936371 26.9014702c-1.0054398 0-1.8204422.8150024-1.8204422 1.8204441 0 1.0053482.8150024 1.8204441 1.8204422 1.8204441 1.0053482 0 1.8203506-.8150959 1.8203506-1.8204441 0-1.0054417-.8150024-1.8204441-1.8203506-1.8204441z"/><path d="m68.1454391 26.9014702c-1.0054398 0-1.8204422.8150024-1.8204422 1.8204441 0 1.0053482.8150024 1.8204441 1.8204422 1.8204441 1.0053482 0 1.8203506-.8150959 1.8203506-1.8204441.0000001-1.0054417-.8150023-1.8204441-1.8203506-1.8204441z"/></g><path d="m27.1879501 53.7754936h14.4211502c1.082943 0 2.0763397-.6012688 2.5786247-1.5606995l.9306793-1.7777672c.502285-.9594803 1.4956818-1.5606956 2.5786247-1.5606956h15.058056c1.6075096 0 2.9106483 1.3031387 2.9106483 2.9105911v32.802372c0 1.6075058-1.3031387 2.9106445-2.9106483 2.9106445h-35.5671349c-1.6075039 0-2.9106445-1.3031387-2.9106445-2.9106445v-27.9032097c0-1.6074485 1.3031406-2.9105911 2.9106445-2.9105911z" fill="#f7be56"/><path d="m26.934122 56.794266h36.074791v22.20891h-36.074791z" fill="#ebf0f3"/><path d="m67.2379684 60.5455132h-44.5328502c-1.7929497 0-2.9890823 1.4388008-2.6788712 3.1740875l3.8621197 21.6043587c.2166195 1.2117462 1.5678329 2.1759186 3.0221519 2.1759186h36.1220474c1.454319 0 2.8055305-.9641724 3.0221519-2.1759186l3.8621216-21.6043587c.3102113-1.7352867-.8859252-3.1740875-2.6788711-3.1740875z" fill="#fcd462"/><path d="m46.9093742 47.2117271-6.386425-8.003086-6.3864708 8.003086h3.4200478v11.3322907h5.9328003v-11.3322907z" fill="#e56353"/><path d="m47.7617149 50.5409355 6.3864251 8.0030823 6.3864746-8.0030823h-3.4200478v-11.3322944h-5.9328041v11.3322944z" fill="#44c4a1"/></svg>