<svg enable-background="new 0 0 110 110" height="512" viewBox="0 0 110 110" width="512" xmlns="http://www.w3.org/2000/svg"><path d="m21.018112 44.256176h67.963776v3.228745h-67.963776z" fill="#2f4859"/><path d="m90.2912598 23.3872795h-70.5825177c-1.5797558 0-2.860405 1.2806492-2.860405 2.860405v15.6954193c0 1.5797577 1.2806492 2.860363 2.860405 2.860363h70.5825195c1.5797577 0 2.860405-1.2806053 2.860405-2.860363v-15.6954193c-.0000019-1.5797558-1.2806491-2.860405-2.8604068-2.860405z" fill="#64798a"/><path d="m90.2912598 46.9646835h-70.5825177c-1.5797558 0-2.860405 1.2806511-2.860405 2.860405v15.6954193c0 1.5797577 1.2806492 2.8603592 2.860405 2.8603592h70.5825195c1.5797577 0 2.860405-1.2806015 2.860405-2.8603592v-15.6954193c-.0000019-1.5797539-1.2806491-2.860405-2.8604068-2.860405z" fill="#64798a"/><g fill="#3a556a"><path d="m22.9608097 26.8019581c-.677927 0-1.2275066.5495796-1.2275066 1.2275066 0 .6779671.5495796 1.2275467 1.2275066 1.2275467.6779671 0 1.2275467-.5495796 1.2275467-1.2275467 0-.677927-.5495796-1.2275066-1.2275467-1.2275066z"/><path d="m27.2574806 26.8019581c-.677927 0-1.2275066.5495796-1.2275066 1.2275066 0 .6779671.5495796 1.2275467 1.2275066 1.2275467.6779671 0 1.2275467-.5495796 1.2275467-1.2275467 0-.677927-.5495796-1.2275066-1.2275467-1.2275066z"/><path d="m31.5541515 26.8019581c-.677927 0-1.2275066.5495796-1.2275066 1.2275066 0 .6779671.5495796 1.2275467 1.2275066 1.2275467.6779652 0 1.2275448-.5495796 1.2275448-1.2275467 0-.677927-.5495796-1.2275066-1.2275448-1.2275066z"/><path d="m35.8508224 26.8019581c-.6779289 0-1.2275047.5495796-1.2275047 1.2275066 0 .6779671.5495758 1.2275467 1.2275047 1.2275467.6779671 0 1.2275467-.5495796 1.2275467-1.2275467 0-.677927-.5495796-1.2275066-1.2275467-1.2275066z"/><path d="m40.1474915 26.8019581c-.6779251 0-1.2275047.5495796-1.2275047 1.2275066 0 .6779671.5495796 1.2275467 1.2275047 1.2275467.6779671 0 1.2275467-.5495796 1.2275467-1.2275467-.0000001-.677927-.5495797-1.2275066-1.2275467-1.2275066z"/><path d="m44.4441643 26.8019581c-.6779289 0-1.2275085.5495796-1.2275085 1.2275066 0 .6779671.5495796 1.2275467 1.2275085 1.2275467.6779671 0 1.2275467-.5495796 1.2275467-1.2275467 0-.677927-.5495797-1.2275066-1.2275467-1.2275066z"/><path d="m48.7408333 26.8019581c-.6779251 0-1.2275047.5495796-1.2275047 1.2275066 0 .6779671.5495796 1.2275467 1.2275047 1.2275467.6779671 0 1.2275467-.5495796 1.2275467-1.2275467 0-.677927-.5495796-1.2275066-1.2275467-1.2275066z"/><path d="m22.9608097 30.8458843c-.677927 0-1.2275066.5495777-1.2275066 1.2275066 0 .6779671.5495796 1.2275467 1.2275066 1.2275467.6779671 0 1.2275467-.5495796 1.2275467-1.2275467 0-.6779289-.5495796-1.2275066-1.2275467-1.2275066z"/><path d="m27.2574806 30.8458843c-.677927 0-1.2275066.5495777-1.2275066 1.2275066 0 .6779671.5495796 1.2275467 1.2275066 1.2275467.6779671 0 1.2275467-.5495796 1.2275467-1.2275467 0-.6779289-.5495796-1.2275066-1.2275467-1.2275066z"/><path d="m31.5541515 30.8458843c-.677927 0-1.2275066.5495777-1.2275066 1.2275066 0 .6779671.5495796 1.2275467 1.2275066 1.2275467.6779652 0 1.2275448-.5495796 1.2275448-1.2275467 0-.6779289-.5495796-1.2275066-1.2275448-1.2275066z"/><path d="m35.8508224 30.8458843c-.6779289 0-1.2275047.5495777-1.2275047 1.2275066 0 .6779671.5495758 1.2275467 1.2275047 1.2275467.6779671 0 1.2275467-.5495796 1.2275467-1.2275467 0-.6779289-.5495796-1.2275066-1.2275467-1.2275066z"/><path d="m40.1474915 30.8458843c-.6779251 0-1.2275047.5495777-1.2275047 1.2275066 0 .6779671.5495796 1.2275467 1.2275047 1.2275467.6779671 0 1.2275467-.5495796 1.2275467-1.2275467-.0000001-.6779289-.5495797-1.2275066-1.2275467-1.2275066z"/><path d="m44.4441643 30.8458843c-.6779289 0-1.2275085.5495777-1.2275085 1.2275066 0 .6779671.5495796 1.2275467 1.2275085 1.2275467.6779671 0 1.2275467-.5495796 1.2275467-1.2275467 0-.6779289-.5495797-1.2275066-1.2275467-1.2275066z"/><path d="m48.7408333 30.8458843c-.6779251 0-1.2275047.5495777-1.2275047 1.2275066 0 .6779671.5495796 1.2275467 1.2275047 1.2275467.6779671 0 1.2275467-.5495796 1.2275467-1.2275467 0-.6779289-.5495796-1.2275066-1.2275467-1.2275066z"/><path d="m22.9608097 34.8898087c-.677927 0-1.2275066.5495796-1.2275066 1.2275047 0 .6779709.5495796 1.2275467 1.2275066 1.2275467.6779671 0 1.2275467-.5495758 1.2275467-1.2275467 0-.6779251-.5495796-1.2275047-1.2275467-1.2275047z"/><path d="m27.2574806 34.8898087c-.677927 0-1.2275066.5495796-1.2275066 1.2275047 0 .6779709.5495796 1.2275467 1.2275066 1.2275467.6779671 0 1.2275467-.5495758 1.2275467-1.2275467 0-.6779251-.5495796-1.2275047-1.2275467-1.2275047z"/><path d="m31.5541515 34.8898087c-.677927 0-1.2275066.5495796-1.2275066 1.2275047 0 .6779709.5495796 1.2275467 1.2275066 1.2275467.6779652 0 1.2275448-.5495758 1.2275448-1.2275467 0-.6779251-.5495796-1.2275047-1.2275448-1.2275047z"/><path d="m35.8508224 34.8898087c-.6779289 0-1.2275047.5495796-1.2275047 1.2275047 0 .6779709.5495758 1.2275467 1.2275047 1.2275467.6779671 0 1.2275467-.5495758 1.2275467-1.2275467 0-.6779251-.5495796-1.2275047-1.2275467-1.2275047z"/><path d="m40.1474915 34.8898087c-.6779251 0-1.2275047.5495796-1.2275047 1.2275047 0 .6779709.5495796 1.2275467 1.2275047 1.2275467.6779671 0 1.2275467-.5495758 1.2275467-1.2275467-.0000001-.6779251-.5495797-1.2275047-1.2275467-1.2275047z"/><path d="m44.4441643 34.8898087c-.6779289 0-1.2275085.5495796-1.2275085 1.2275047 0 .6779709.5495796 1.2275467 1.2275085 1.2275467.6779671 0 1.2275467-.5495758 1.2275467-1.2275467 0-.6779251-.5495797-1.2275047-1.2275467-1.2275047z"/><path d="m48.7408333 34.8898087c-.6779251 0-1.2275047.5495796-1.2275047 1.2275047 0 .6779709.5495796 1.2275467 1.2275047 1.2275467.6779671 0 1.2275467-.5495758 1.2275467-1.2275467 0-.6779251-.5495796-1.2275047-1.2275467-1.2275047z"/><path d="m22.9608097 38.9337349c-.677927 0-1.2275066.5495796-1.2275066 1.2275047 0 .6779671.5495796 1.2275467 1.2275066 1.2275467.6779671 0 1.2275467-.5495796 1.2275467-1.2275467 0-.6779251-.5495796-1.2275047-1.2275467-1.2275047z"/><path d="m27.2574806 38.9337349c-.677927 0-1.2275066.5495796-1.2275066 1.2275047 0 .6779671.5495796 1.2275467 1.2275066 1.2275467.6779671 0 1.2275467-.5495796 1.2275467-1.2275467 0-.6779251-.5495796-1.2275047-1.2275467-1.2275047z"/><path d="m31.5541515 38.9337349c-.677927 0-1.2275066.5495796-1.2275066 1.2275047 0 .6779671.5495796 1.2275467 1.2275066 1.2275467.6779652 0 1.2275448-.5495796 1.2275448-1.2275467 0-.6779251-.5495796-1.2275047-1.2275448-1.2275047z"/><path d="m35.8508224 38.9337349c-.6779289 0-1.2275047.5495796-1.2275047 1.2275047 0 .6779671.5495758 1.2275467 1.2275047 1.2275467.6779671 0 1.2275467-.5495796 1.2275467-1.2275467 0-.6779251-.5495796-1.2275047-1.2275467-1.2275047z"/><path d="m40.1474915 38.9337349c-.6779251 0-1.2275047.5495796-1.2275047 1.2275047 0 .6779671.5495796 1.2275467 1.2275047 1.2275467.6779671 0 1.2275467-.5495796 1.2275467-1.2275467-.0000001-.6779251-.5495797-1.2275047-1.2275467-1.2275047z"/><path d="m44.4441643 38.9337349c-.6779289 0-1.2275085.5495796-1.2275085 1.2275047 0 .6779671.5495796 1.2275467 1.2275085 1.2275467.6779671 0 1.2275467-.5495796 1.2275467-1.2275467 0-.6779251-.5495797-1.2275047-1.2275467-1.2275047z"/><path d="m48.7408333 38.9337349c-.6779251 0-1.2275047.5495796-1.2275047 1.2275047 0 .6779671.5495796 1.2275467 1.2275047 1.2275467.6779671 0 1.2275467-.5495796 1.2275467-1.2275467 0-.6779251-.5495796-1.2275047-1.2275467-1.2275047z"/><path d="m22.9608097 50.379364c-.677927 0-1.2275066.5495796-1.2275066 1.2275047 0 .6779671.5495796 1.2275467 1.2275066 1.2275467.6779671 0 1.2275467-.5495796 1.2275467-1.2275467 0-.6779251-.5495796-1.2275047-1.2275467-1.2275047z"/><path d="m27.2574806 50.379364c-.677927 0-1.2275066.5495796-1.2275066 1.2275047 0 .6779671.5495796 1.2275467 1.2275066 1.2275467.6779671 0 1.2275467-.5495796 1.2275467-1.2275467 0-.6779251-.5495796-1.2275047-1.2275467-1.2275047z"/><path d="m31.5541515 50.379364c-.677927 0-1.2275066.5495796-1.2275066 1.2275047 0 .6779671.5495796 1.2275467 1.2275066 1.2275467.6779652 0 1.2275448-.5495796 1.2275448-1.2275467 0-.6779251-.5495796-1.2275047-1.2275448-1.2275047z"/><path d="m35.8508224 50.379364c-.6779289 0-1.2275047.5495796-1.2275047 1.2275047 0 .6779671.5495758 1.2275467 1.2275047 1.2275467.6779671 0 1.2275467-.5495796 1.2275467-1.2275467 0-.6779251-.5495796-1.2275047-1.2275467-1.2275047z"/><path d="m40.1474915 50.379364c-.6779251 0-1.2275047.5495796-1.2275047 1.2275047 0 .6779671.5495796 1.2275467 1.2275047 1.2275467.6779671 0 1.2275467-.5495796 1.2275467-1.2275467-.0000001-.6779251-.5495797-1.2275047-1.2275467-1.2275047z"/><path d="m44.4441643 50.379364c-.6779289 0-1.2275085.5495796-1.2275085 1.2275047 0 .6779671.5495796 1.2275467 1.2275085 1.2275467.6779671 0 1.2275467-.5495796 1.2275467-1.2275467 0-.6779251-.5495797-1.2275047-1.2275467-1.2275047z"/><path d="m48.7408333 50.379364c-.6779251 0-1.2275047.5495796-1.2275047 1.2275047 0 .6779671.5495796 1.2275467 1.2275047 1.2275467.6779671 0 1.2275467-.5495796 1.2275467-1.2275467 0-.6779251-.5495796-1.2275047-1.2275467-1.2275047z"/><path d="m22.9608097 54.4232903c-.677927 0-1.2275066.5495796-1.2275066 1.2275047 0 .6779671.5495796 1.2275467 1.2275066 1.2275467.6779671 0 1.2275467-.5495796 1.2275467-1.2275467 0-.6779251-.5495796-1.2275047-1.2275467-1.2275047z"/><path d="m27.2574806 54.4232903c-.677927 0-1.2275066.5495796-1.2275066 1.2275047 0 .6779671.5495796 1.2275467 1.2275066 1.2275467.6779671 0 1.2275467-.5495796 1.2275467-1.2275467 0-.6779251-.5495796-1.2275047-1.2275467-1.2275047z"/><path d="m31.5541515 54.4232903c-.677927 0-1.2275066.5495796-1.2275066 1.2275047 0 .6779671.5495796 1.2275467 1.2275066 1.2275467.6779652 0 1.2275448-.5495796 1.2275448-1.2275467 0-.6779251-.5495796-1.2275047-1.2275448-1.2275047z"/><path d="m35.8508224 54.4232903c-.6779289 0-1.2275047.5495796-1.2275047 1.2275047 0 .6779671.5495758 1.2275467 1.2275047 1.2275467.6779671 0 1.2275467-.5495796 1.2275467-1.2275467 0-.6779251-.5495796-1.2275047-1.2275467-1.2275047z"/><path d="m40.1474915 54.4232903c-.6779251 0-1.2275047.5495796-1.2275047 1.2275047 0 .6779671.5495796 1.2275467 1.2275047 1.2275467.6779671 0 1.2275467-.5495796 1.2275467-1.2275467-.0000001-.6779251-.5495797-1.2275047-1.2275467-1.2275047z"/><path d="m44.4441643 54.4232903c-.6779289 0-1.2275085.5495796-1.2275085 1.2275047 0 .6779671.5495796 1.2275467 1.2275085 1.2275467.6779671 0 1.2275467-.5495796 1.2275467-1.2275467 0-.6779251-.5495797-1.2275047-1.2275467-1.2275047z"/><path d="m48.7408333 54.4232903c-.6779251 0-1.2275047.5495796-1.2275047 1.2275047 0 .6779671.5495796 1.2275467 1.2275047 1.2275467.6779671 0 1.2275467-.5495796 1.2275467-1.2275467 0-.6779251-.5495796-1.2275047-1.2275467-1.2275047z"/><path d="m22.9608097 58.4672165c-.677927 0-1.2275066.5495758-1.2275066 1.2275047 0 .6779671.5495796 1.2275467 1.2275066 1.2275467.6779671 0 1.2275467-.5495796 1.2275467-1.2275467 0-.6779289-.5495796-1.2275047-1.2275467-1.2275047z"/><path d="m27.2574806 58.4672165c-.677927 0-1.2275066.5495758-1.2275066 1.2275047 0 .6779671.5495796 1.2275467 1.2275066 1.2275467.6779671 0 1.2275467-.5495796 1.2275467-1.2275467 0-.6779289-.5495796-1.2275047-1.2275467-1.2275047z"/><path d="m31.5541515 58.4672165c-.677927 0-1.2275066.5495758-1.2275066 1.2275047 0 .6779671.5495796 1.2275467 1.2275066 1.2275467.6779652 0 1.2275448-.5495796 1.2275448-1.2275467 0-.6779289-.5495796-1.2275047-1.2275448-1.2275047z"/><path d="m35.8508224 58.4672165c-.6779289 0-1.2275047.5495758-1.2275047 1.2275047 0 .6779671.5495758 1.2275467 1.2275047 1.2275467.6779671 0 1.2275467-.5495796 1.2275467-1.2275467 0-.6779289-.5495796-1.2275047-1.2275467-1.2275047z"/><path d="m40.1474915 58.4672165c-.6779251 0-1.2275047.5495758-1.2275047 1.2275047 0 .6779671.5495796 1.2275467 1.2275047 1.2275467.6779671 0 1.2275467-.5495796 1.2275467-1.2275467-.0000001-.6779289-.5495797-1.2275047-1.2275467-1.2275047z"/><path d="m44.4441643 58.4672165c-.6779289 0-1.2275085.5495758-1.2275085 1.2275047 0 .6779671.5495796 1.2275467 1.2275085 1.2275467.6779671 0 1.2275467-.5495796 1.2275467-1.2275467 0-.6779289-.5495797-1.2275047-1.2275467-1.2275047z"/><path d="m48.7408333 58.4672165c-.6779251 0-1.2275047.5495758-1.2275047 1.2275047 0 .6779671.5495796 1.2275467 1.2275047 1.2275467.6779671 0 1.2275467-.5495796 1.2275467-1.2275467 0-.6779289-.5495796-1.2275047-1.2275467-1.2275047z"/><path d="m22.9608097 62.5111389c-.677927 0-1.2275066.5495796-1.2275066 1.2275085 0 .6779633.5495796 1.2275467 1.2275066 1.2275467.6779671 0 1.2275467-.5495834 1.2275467-1.2275467 0-.6779289-.5495796-1.2275085-1.2275467-1.2275085z"/><path d="m27.2574806 62.5111389c-.677927 0-1.2275066.5495796-1.2275066 1.2275085 0 .6779633.5495796 1.2275467 1.2275066 1.2275467.6779671 0 1.2275467-.5495834 1.2275467-1.2275467 0-.6779289-.5495796-1.2275085-1.2275467-1.2275085z"/><path d="m31.5541515 62.5111389c-.677927 0-1.2275066.5495796-1.2275066 1.2275085 0 .6779633.5495796 1.2275467 1.2275066 1.2275467.6779652 0 1.2275448-.5495834 1.2275448-1.2275467 0-.6779289-.5495796-1.2275085-1.2275448-1.2275085z"/><path d="m35.8508224 62.5111389c-.6779289 0-1.2275047.5495796-1.2275047 1.2275085 0 .6779633.5495758 1.2275467 1.2275047 1.2275467.6779671 0 1.2275467-.5495834 1.2275467-1.2275467 0-.6779289-.5495796-1.2275085-1.2275467-1.2275085z"/><path d="m40.1474915 62.5111389c-.6779251 0-1.2275047.5495796-1.2275047 1.2275085 0 .6779633.5495796 1.2275467 1.2275047 1.2275467.6779671 0 1.2275467-.5495834 1.2275467-1.2275467-.0000001-.6779289-.5495797-1.2275085-1.2275467-1.2275085z"/><path d="m44.4441643 62.5111389c-.6779289 0-1.2275085.5495796-1.2275085 1.2275085 0 .6779633.5495796 1.2275467 1.2275085 1.2275467.6779671 0 1.2275467-.5495834 1.2275467-1.2275467 0-.6779289-.5495797-1.2275085-1.2275467-1.2275085z"/><path d="m48.7408333 62.5111389c-.6779251 0-1.2275047.5495796-1.2275047 1.2275085 0 .6779633.5495796 1.2275467 1.2275047 1.2275467.6779671 0 1.2275467-.5495834 1.2275467-1.2275467 0-.6779289-.5495796-1.2275085-1.2275467-1.2275085z"/><ellipse cx="63.485" cy="34.663" rx="3.923" ry="3.923" transform="matrix(.973 -.23 .23 .973 -6.266 15.513)"/><ellipse cx="80.455" cy="34.663" rx="3.923" ry="3.923" transform="matrix(.973 -.23 .23 .973 -5.812 19.412)"/><ellipse cx="63.485" cy="57.673" rx="3.923" ry="3.923" transform="matrix(.973 -.23 .23 .973 -11.552 16.129)"/><ellipse cx="80.455" cy="57.673" rx="3.923" ry="3.923" transform="matrix(.973 -.23 .23 .973 -11.098 20.028)"/></g><path d="m73.2121124 55.3627205-3.3599854-3.3599854c-.0400391-.0400391-.0800171-.0800171-.1199951-.1099854-1.6900024-1.5800171-4.3200073-1.5800171-6.0100098 0-.039978.0299683-.0800171.0699463-.1199951.1099854l-2.8900146 2.8999634-5.0100098 5c-1.7199707 1.7200317-1.7199707 4.5200157 0 6.2400475l.2700195.2799683 2.8099976 2.8099976.2799683.2800293c1.7200317 1.7199707 4.5200195 1.7199707 6.2400513 0l1.1300049-1.1300049 6.7799683-6.7800255c1.7200317-1.7199708 1.7200317-4.5200196-.0000001-6.2399903zm-2.8099975 3.4299927-7.9099731 7.9100304c-.1700439.1699829-.4500122.1699829-.6200562 0l-.2799683-.2800293-2.8099976-2.8099937-.2700195-.2800293c-.1699829-.1699829-.1699829-.4499512 0-.6199951l2.2399902-2.2399902 5.5400391-5.539978.1199951-.1199951c.1799927-.1699829.4500122-.1699829.6199951 0l3.3699951 3.3599854c.169983.1699827.169983.450012.0000001.6199949z" fill="#ebf0f3"/><path d="m57.4021149 71.1727142-.2800293-.2799683-2.5099487-2.5100098-.5700073-.5700073c-1.7300415-1.7300415-4.5300293-1.7300415-6.25 0l-.5700073.5700073-7.3300171 7.3299561c-1.7199707 1.7200317-1.7199707 4.5200195 0 6.2400513l3.3599854 3.3699951c1.7200317 1.7199707 4.5200195 1.7199707 6.2400513 0l7.9099731-7.9100342c1.7199706-1.7199706 1.7199706-4.5199584-.0000001-6.2399902zm-2.8099976 3.4299927-7.9099731 7.9100342c-.1700439.1699829-.4500122.1699829-.6200562 0l-3.3599854-3.3699951c-.1699829-.1700439-.1699829-.4500122 0-.6200562l7.9000244-7.8999634c.1799927-.1699829.4500122-.1699829.6199951 0l.2799683.2700195 2.8099976 2.8099976.2800293.2799683c.1699829.1699829.1699829.4500122 0 .6199951z" fill="#e1e6e9"/><path d="m63.8268776 64.1939392-11.9842033 11.9841995c-.7763901.7763977-2.0353699.7763977-2.8117638 0-.7763901-.7763901-.7763901-2.0353699 0-2.8117599l11.9842033-11.9841995c.7763901-.7763939 2.0353699-.7763939 2.8117638 0 .7763939.77639.7763939 2.0353698 0 2.8117599z" fill="#d5d6db"/></svg>