<svg enable-background="new 0 0 110 110" height="512" viewBox="0 0 110 110" width="512" xmlns="http://www.w3.org/2000/svg"><path d="m53.5042572 101.9507294c-6.2507172 0-11.3366127-5.0858994-11.3366127-11.3366165v-4.76371h2.7190857v4.76371c0 4.7513199 3.8662033 8.6175232 8.617527 8.6175232s8.6175232-3.8662033 8.6175232-8.6175232v-40.4933358c0-4.1060677 3.3413239-7.4473953 7.4482803-7.4473953s7.4482803 3.3413277 7.4482803 7.4473953v24.5142708h-2.7190857v-24.5142708c0-2.607563-2.1216278-4.7283058-4.7291946-4.7283058-2.6075592 0-4.7291946 2.1207428-4.7291946 4.7283058v40.4933357c0 6.2507172-5.0858955 11.3366166-11.3366089 11.3366166z" fill="#2f4859"/><path d="m42.167645 8.049274h2.719087v15.412124h-2.719087z" fill="#2f4859"/><path d="m43.526783 47.8998222h-8.0148468v15.0040131 4.4688759h16.0296898v-19.472889z" fill="#e1e6e9"/><path d="m43.526783 60.7976532h-8.0148468v5.0661316 1.5089264h16.0296898v-6.575058z" fill="#d5d6db"/><path d="m52.6213074 27.3928642c-.8410645.0217285-1.529541-.6535645-1.529541-1.489624v-4.7174072c0-1.4318848-1.1607666-2.5927734-2.5927734-2.5927734h-9.944336c-1.4318848 0-2.5927734 1.1608887-2.5927734 2.5927734v4.659668c0 .8178711-.6333008 1.5695801-1.4508057 1.5484619-.8409424-.0216064-1.5294189.6535645-1.5294189 1.489624v15.0708008c0 .5742188.465332 1.0395508 1.0395508 1.0395508h19.0113525c.5740967 0 1.0395508-.465332 1.0395508-1.0395508v-15.0129395c-.0000001-.8178711-.6331788-1.5695801-1.4508057-1.548584z" fill="#3a556a"/><path d="m53.0325623 62.9038506h-19.0113526c-.5742188 0-1.0395508.465332-1.0395508 1.0395508v15.0129433c0 .8178711.6333008 1.5695801 1.4508057 1.548584.8409424-.0217285 1.5294189.6535645 1.5294189 1.489624v4.7174072c0 1.4318848 1.1608887 2.5927734 2.5927734 2.5927734h9.9443359c1.4320068 0 2.5927734-1.1608887 2.5927734-2.5927734v-4.659668c0-.8178711.6333008-1.5695801 1.4509277-1.5484619.8408203.0216064 1.5294189-.6535645 1.5294189-1.489624v-15.0708047c.0000002-.5742187-.4654539-1.0395507-1.0395505-1.0395507z" fill="#3a556a"/><g fill="#64798a"><path d="m39.729218 52.405712h1.98808v6.031072h-1.98808z"/><path d="m45.336426 52.405712h1.98808v6.031072h-1.98808z"/></g></svg>