<svg enable-background="new 0 0 110 110" height="512" viewBox="0 0 110 110" width="512" xmlns="http://www.w3.org/2000/svg"><path d="m43.1663704 83.6281815h23.6672707c-3.4280396-4.5322266-3.1792259-9.0645752.7481079-13.5966797-8.3878021-2.4197998-16.7756844-2.4197998-25.1634865 0 3.9273338 4.5321045 4.1761474 9.0644531.7481079 13.5966797z" fill="#3a556a"/><path d="m22.8925171 65.6361465v4.2543182c0 1.223877.9921875 2.2160645 2.2160645 2.2160645h59.7828369c1.223877 0 2.2160645-.9921875 2.2160645-2.2160645v-4.2543182z" fill="#d5d6db"/><path d="m87.1074829 65.8669662v-39.9473896c0-1.223938-.9921875-2.2161255-2.2160645-2.2161255h-59.7828369c-1.223877 0-2.2160645.9921875-2.2160645 2.2161255v39.9473877h64.2149659z" fill="#3a556a"/><path d="m37.860931 17.016583h34.278137v55.886482h-34.278137z" fill="#27a2db" transform="matrix(0 1 -1 0 99.96 -10.04)"/><path d="m36.526909 82.191414h36.946194v4.105133h-36.946194z" fill="#64798a"/><path d="m41.445732 43.683189h6.256552v8.863448h-6.256552z" fill="#f7be56" transform="matrix(-1 0 0 -1 89.148 96.23)"/><path d="m32.2853775 62.1325493c-.0058823-2.0874939-.002224-4.3413773.0298729-5.7066116.0723991-3.0815277 2.7756004-4.5288811 2.7756004-4.5288811l5.5905571-2.2440643 3.4331589 1.5002174.459446.9593735.4611931-.9593735 3.4314117-1.5002174 5.5905533 2.2440643s2.7031708 1.4473534 2.7756042 4.5288811c.032093 1.3652344.0357552 3.6191177.0298691 5.7066116z" fill="#e56353"/><path d="m47.702282 48.8308334-2.6670647 2.3223763 1.7156982 2.459465 1.7156983-3.9596748z" fill="#ebf0f3"/><path d="m41.4474907 48.8308334 2.6670647 2.3223763-1.7156983 2.459465-1.7156982-3.9596748z" fill="#ebf0f3"/><path d="m38.9366875 40.1063652c.3476372-.0327682.6845093.5247993.75243 1.2453728.0679207.7205429-.1588287 1.3312378-.5064659 1.364006s-.6845093-.5247993-.7524261-1.2453423c-.0679208-.7205734.1588248-1.3312682.506462-1.3640365z" fill="#f7be56"/><path d="m50.4335518 40.1063652c-.3476372-.0327682-.6845093.5247993-.75243 1.2453728-.0679207.7205429.1588287 1.3312378.5064659 1.364006s.6845055-.5247993.7524261-1.2453423c.0679208-.7205734-.1588248-1.3312682-.506462-1.3640365z" fill="#f7be56"/><ellipse cx="44.59" cy="41.069" fill="#fcd462" rx="5.46" ry="7.046"/><path d="m39.646801 43.1519737h-.229744s-.6637077-4.1609497-.5615997-6.4584045 1.6196861-4.7721901 5.2330933-5.0288734c3.248642-.2307739 4.8501854 1.1997833 5.7436371 3.0632744.8934555 1.8634911.6892395 5.0544014.3318558 6.4328766-.3573799 1.3784714-.3829079 1.991127-.3829079 1.991127h-.3573837s-.2596931-5.7963943-.6936569-6.2814102c-.4339638-.4850197-3.0688782 3.8919106-6.5050354-.0238304-.0000001-.0000001-3.0749131 1.0212096-2.5782586 6.3052405z" fill="#4d5c7d"/><path d="m78.4888916 31.6402054h-21.6238976v11.9171142h3.2160645v3.9844971l3.9844933-3.9844971h14.4233398z" fill="#ebf0f3"/><g fill="#3a556a"><path d="m62.7524834 36.3333206c-.7443848 0-1.3478394.6033936-1.3478394 1.3477783s.6034546 1.3477783 1.3478394 1.3477783c.7444458 0 1.3478966-.6033936 1.3478966-1.3477783s-.6034508-1.3477783-1.3478966-1.3477783z"/><path d="m67.6769104 36.3333206c-.7443848 0-1.3478394.6033936-1.3478394 1.3477783s.6034546 1.3477783 1.3478394 1.3477783c.7444458 0 1.3479004-.6033936 1.3479004-1.3477783s-.6034546-1.3477783-1.3479004-1.3477783z"/><path d="m72.6013412 36.3333206c-.7443848 0-1.3478394.6033936-1.3478394 1.3477783s.6034546 1.3477783 1.3478394 1.3477783c.7444458 0 1.3479004-.6033936 1.3479004-1.3477783s-.6034546-1.3477783-1.3479004-1.3477783z"/></g></svg>