<svg height="512pt" viewBox="-61 0 512 512" width="512pt" xmlns="http://www.w3.org/2000/svg"><path d="m195 0c-90.902344 0-165 74.097656-165 165v90c0 8.402344 6.597656 15 15 15h300c8.402344 0 15-6.597656 15-15v-90c0-90.902344-74.097656-165-165-165zm75.300781 165c-21.300781 0-39.902343-10.199219-56.402343-23.402344-5.398438-4.195312-11.699219-6.597656-18.898438-6.597656s-13.5 2.402344-18.898438 6.597656c-16.5 13.203125-35.101562 23.402344-56.402343 23.402344h-59.699219c0-74.398438 60.601562-135 135-135s135 60.601562 135 135zm0 0" fill="#ff8859"/><path d="m360 165v90c0 8.402344-6.597656 15-15 15h-150v-135c7.199219 0 13.5 2.402344 18.898438 6.597656 16.5 13.203125 35.101562 23.402344 56.402343 23.402344h59.699219c0-74.398438-60.601562-135-135-135v-30c90.902344 0 165 74.097656 165 165zm0 0" fill="#ff3939"/><path d="m390 377v120c0 8.402344-6.597656 15-15 15h-60v-120h-240v120h-60c-8.402344 0-15-6.597656-15-15v-120c0-33 27-60 60-60h270c33 0 60 27 60 60zm0 0" fill="#ff8859"/><path d="m390 377v120c0 8.402344-6.597656 15-15 15h-60v-120h-120v-75h135c33 0 60 27 60 60zm0 0" fill="#ff3939"/><path d="m285 165v60c0 39-25.199219 72-60 84.601562v7.398438l-30 60-30-60v-7.398438c-34.800781-12.601562-60-45.601562-60-84.601562v-60l14.699219-7.5c16.5 0 33.601562-7.199219 51.898437-21.898438 6.601563-5.101562 15-8.101562 23.402344-8.101562s16.800781 3 23.402344 8.101562c18.296875 14.699219 35.398437 21.898438 51.898437 21.898438zm0 0" fill="#fed2a4"/><path d="m285 165v60c0 39-25.199219 72-60 84.601562v7.398438l-30 60v-249.5c8.402344 0 16.800781 3 23.402344 8.101562 18.296875 14.699219 35.398437 21.898438 51.898437 21.898438zm0 0" fill="#ffbd86"/><path d="m285 165h-14.699219c-21.300781 0-39.902343-10.199219-56.402343-23.402344-5.398438-4.195312-11.699219-6.597656-18.898438-6.597656s-13.5 2.402344-18.898438 6.597656c-16.5 13.203125-35.101562 23.402344-56.402343 23.402344h-14.699219c0-22.5 8.699219-45.902344 26.398438-63.601562 16.199218-16.199219 38.699218-26.398438 63.601562-26.398438 50.699219 0 90 41.101562 90 90zm0 0" fill="#07485e"/><path d="m285 165h-14.699219c-21.300781 0-39.902343-10.199219-56.402343-23.402344-5.398438-4.195312-11.699219-6.597656-18.898438-6.597656v-60c50.699219 0 90 41.101562 90 90zm0 0" fill="#03232e"/><path d="m240 225c0 24.902344-20.097656 45-45 45s-45-20.097656-45-45c0-8.402344 6.597656-15 15-15s15 6.597656 15 15 6.597656 15 15 15 15-6.597656 15-15 6.597656-15 15-15 15 6.597656 15 15zm0 0" fill="#ff8859"/><path d="m330 377v120c0 8.402344-6.597656 15-15 15h-240c-8.402344 0-15-6.597656-15-15v-120c0-8.402344 6.597656-15 15-15h240c8.402344 0 15 6.597656 15 15zm0 0" fill="#e1ebf0"/><path d="m330 377v120c0 8.402344-6.597656 15-15 15h-120v-150h120c8.402344 0 15 6.597656 15 15zm0 0" fill="#b4d2d7"/><path d="m210 437c0 8.402344-6.597656 15-15 15s-15-6.597656-15-15 6.597656-15 15-15 15 6.597656 15 15zm0 0" fill="#07485e"/><path d="m210 437c0 8.402344-6.597656 15-15 15v-30c8.402344 0 15 6.597656 15 15zm0 0" fill="#03232e"/><path d="m240 225c0 24.902344-20.097656 45-45 45v-30c8.402344 0 15-6.597656 15-15s6.597656-15 15-15 15 6.597656 15 15zm0 0" fill="#ff3939"/></svg>