<svg height="512pt" viewBox="0 0 512.00037 512" width="512pt" xmlns="http://www.w3.org/2000/svg"><path d="m511.230469 136.792969v359.460937c0 8.386719-6.589844 14.976563-14.976563 14.976563h-481.277344c-8.386718 0-14.976562-6.589844-14.976562-14.976563v-359.460937l255.617188-14.675781c3.027343.175781 272.589843 15.65625 255.613281 14.675781zm0 0" fill="#fff5f5"/><path d="m511.230469 136.792969v359.460937c0 8.386719-6.589844 14.976563-14.976563 14.976563h-240.636718v-389.113281c3.027343.175781 272.589843 15.65625 255.613281 14.675781zm0 0" fill="#efe2dd"/><path d="m511.230469 46.929688v89.863281h-511.230469v-89.863281c0-8.386719 6.589844-14.976563 14.976562-14.976563h481.277344c8.386719 0 14.976563 6.589844 14.976563 14.976563zm0 0" fill="#ff8859"/><path d="m511.230469 46.929688v89.863281h-255.613281v-104.839844h240.636718c8.386719 0 14.976563 6.589844 14.976563 14.976563zm0 0" fill="#ff3939"/><path d="m450.324219 391.410156c0-6.875-4.683594-12.855468-11.351563-14.523437l-59.910156-14.976563c-4.417969-1.125-9.183594-.117187-12.839844 2.71875-3.644531 2.839844-5.765625 7.199219-5.765625 11.804688v14.976562h-104.839843c-8.28125 0-14.980469 6.699219-14.980469 14.980469 0 8.277344 6.699219 14.976563 14.980469 14.976563h104.839843v14.976562c0 4.605469 2.121094 8.964844 5.761719 11.804688 3.785156 2.953124 8.59375 3.808593 12.84375 2.71875l59.910156-14.976563c6.667969-1.667969 11.347656-7.648437 11.347656-14.523437v-29.957032zm0 0" fill="#87a0af"/><path d="m360.457031 256.613281c0-8.386719 6.589844-14.976562 14.976563-14.976562h73.390625c-6.890625-34.148438-37.144531-59.910157-73.390625-59.910157-23.363282 0-45.53125 11.382813-59.609375 29.957032h-120.417969c-14.078125-18.574219-36.246094-29.957032-59.609375-29.957032-36.246094 0-66.5 25.761719-73.390625 59.910157h73.390625c8.386719 0 14.976563 6.589843 14.976563 14.976562 0 8.390625-6.589844 14.976563-14.976563 14.976563h-73.390625c6.890625 34.152344 37.144531 59.910156 73.390625 59.910156 23.363281 0 45.53125-11.382812 59.609375-29.953125h120.417969c14.078125 18.570313 36.246093 29.953125 59.609375 29.953125 36.25 0 66.5-25.757812 73.390625-59.910156h-73.390625c-8.386719 0-14.976563-6.585938-14.976563-14.976563zm0 0" fill="#b4d2d7"/><path d="m375.433594 271.589844h73.390625c-6.890625 34.152344-37.144531 59.910156-73.390625 59.910156-23.363282 0-45.53125-11.382812-59.609375-29.953125h-60.207031v-89.863281h60.207031c14.078125-18.574219 36.246093-29.957032 59.609375-29.957032 36.25 0 66.5 25.761719 73.390625 59.910157h-73.390625c-8.386719 0-14.976563 6.589843-14.976563 14.976562 0 8.390625 6.589844 14.976563 14.976563 14.976563zm0 0" fill="#87a0af"/><path d="m75.886719 89.863281c-8.28125 0-14.976563-6.695312-14.976563-14.976562v-59.910157c0-8.277343 6.695313-14.976562 14.976563-14.976562 8.277343 0 14.976562 6.699219 14.976562 14.976562v59.910157c0 8.28125-6.699219 14.976562-14.976562 14.976562zm0 0" fill="#0b799d"/><path d="m195.707031 89.863281c-8.28125 0-14.980469-6.695312-14.980469-14.976562v-59.910157c0-8.277343 6.699219-14.976562 14.980469-14.976562 8.277344 0 14.976563 6.699219 14.976563 14.976562v59.910157c0 8.28125-6.699219 14.976562-14.976563 14.976562zm0 0" fill="#0b799d"/><path d="m315.527344 89.863281c-8.28125 0-14.980469-6.695312-14.980469-14.976562v-59.910157c0-8.277343 6.699219-14.976562 14.980469-14.976562 8.277344 0 14.976562 6.699219 14.976562 14.976562v59.910157c0 8.28125-6.699218 14.976562-14.976562 14.976562zm0 0" fill="#07485e"/><path d="m435.34375 89.863281c-8.277344 0-14.976562-6.695312-14.976562-14.976562v-59.910157c0-8.277343 6.699218-14.976562 14.976562-14.976562 8.28125 0 14.980469 6.699219 14.980469 14.976562v59.910157c0 8.28125-6.699219 14.976562-14.980469 14.976562zm0 0" fill="#07485e"/><path d="m225.660156 361.457031c-11.683594 0-21.867187 4.492188-29.953125 11.683594-8.089843-7.191406-18.273437-11.683594-29.957031-11.683594h-89.863281c-8.390625 0-14.976563 6.589844-14.976563 14.976563v59.910156c0 8.386719 6.585938 14.976562 14.976563 14.976562h89.863281c11.683594 0 21.867188-4.492187 29.957031-11.679687 8.085938 7.1875 18.269531 11.679687 29.953125 11.679687h17.972656c6.617188 0 11.984376-5.363281 11.984376-11.980468v-65.902344c0-6.617188-5.367188-11.980469-11.984376-11.980469zm0 0" fill="#ff9f22"/></svg>