<svg height="512pt" viewBox="0 0 512 512.00068" width="512pt" xmlns="http://www.w3.org/2000/svg"><path d="m0 135c0 3.253906 0 124.453125 0 119.996094l195 15 194.996094-15c0-3.253906 0-124.453125 0-119.996094l-194.996094-15zm0 0" fill="#03232e"/><path d="m0 374.996094c0 8.289062 6.710938 15 15 15h227.957031l147.039063-135h-389.996094zm0 0" fill="#07485e"/><path d="m389.996094 15c0-8.292969-6.710938-15-15-15h-359.996094c-8.289062 0-15 6.707031-15 15v120h389.996094zm0 0" fill="#07485e"/><path d="m90 75c0 8.285156-6.714844 15-15 15s-15-6.714844-15-15 6.714844-15 15-15 15 6.714844 15 15zm0 0" fill="#6fe8d5"/><path d="m150 75c0 8.285156-6.71875 15-15 15-8.285156 0-15-6.714844-15-15s6.714844-15 15-15c8.28125 0 15 6.714844 15 15zm0 0" fill="#6fe8d5"/><path d="m209.996094 75c0 8.285156-6.714844 15-14.996094 15-8.285156 0-15-6.714844-15-15s6.714844-15 15-15c8.28125 0 14.996094 6.714844 14.996094 15zm0 0" fill="#6fe8d5"/><path d="m327.199219 263.597656-63.601563-63.601562c-5.699218-5.699219-15.300781-5.699219-21.300781 0l-21 21.300781-21.300781 21c-5.699219 6-5.699219 15.601563 0 21.300781l63.601562 63.597656c8.699219 9 20.398438 13.203126 31.800782 13.203126 11.699218 0 23.097656-4.203126 31.800781-13.203126 17.695312-17.398437 17.695312-45.898437 0-63.597656zm0 0" fill="#fdbf00"/><path d="m327.199219 327.195312-105.902344-105.898437 21-21.300781c6-5.699219 15.601563-5.699219 21.300781 0l63.601563 63.601562c17.695312 17.699219 17.695312 46.199219 0 63.597656zm0 0" fill="#ff9100"/><path d="m507.492188 486.496094-20.996094 20.996094c-5.03125 5.03125-12.734375 5.878906-18.300782 2.402343l-53.101562-31.800781c-8.535156-5.253906-9.699219-17.308594-3-23.398438l10.800781-10.800781-74.398437-74.097656c-6-6-6-15.300781 0-21.300781 6-6.003906 15.300781-6 21.300781 0l74.097656 74.398437 10.800781-10.800781c7.015626-7.011719 18.402344-5.121094 23.398438 3l31.800781 53.101562c3.472657 5.554688 2.636719 13.261719-2.402343 18.300782zm0 0" fill="#b4d2d7"/><path d="m507.492188 486.496094-10.496094 10.5-148.5-148.5c6-6 15.300781-6 21.300781 0l74.097656 74.398437 10.800781-10.800781c7.015626-7.011719 18.402344-5.117188 23.398438 3.003906l31.800781 53.097656c3.472657 5.554688 2.636719 13.261719-2.402343 18.300782zm0 0" fill="#87a0af"/><path d="m482.59375 214.398438-51.898438 51.898437c-6 6-15.601562 5.699219-21.300781 0s-5.699219-15.300781 0-21.300781l51.902344-51.898438c-29.101563-18.898437-68.699219-15.898437-94.199219 9.601563-16.800781 16.5-24.300781 40.199219-21 63.296875l-85.5 85.5c-23.101562-3.300782-46.800781 4.199218-63.300781 21-25.5 25.5-28.5 65.101562-9.597656 94.199218l51.898437-51.898437c6-5.703125 15.601563-5.703125 21.300782 0 6 6 6 15.296875 0 21.296875l-51.898438 51.902344c12.597656 8.398437 26.996094 12.296875 41.398438 12.296875 19.199218 0 38.398437-7.199219 53.097656-21.898438 16.5-16.5 24-40.199219 21-63.296875l85.199218-85.203125c23.101563 3.003907 46.800782-4.496093 63.300782-21 25.796875-25.796875 28.796875-65.097656 9.597656-94.496093zm0 0" fill="#e1ebf0"/><path d="m472.996094 308.894531c-16.5 16.5-40.199219 24-63.300782 21l-85.199218 85.203125c3 23.097656-4.5 46.796875-21 63.296875-14.699219 14.699219-33.898438 21.898438-53.097656 21.898438-14.402344 0-28.800782-3.898438-41.398438-12.296875l51.898438-51.902344c6-5.996094 6-15.296875 0-21.296875l148.496093-148.5c5.699219 5.699219 15.300781 6 21.300781 0l51.898438-51.898437c19.199219 29.398437 16.199219 68.699218-9.597656 94.496093zm0 0" fill="#b4d2d7"/><g fill="#6fe8d5"><path d="m90 194.996094c0 8.285156-6.714844 15-15 15s-15-6.714844-15-15c0-8.28125 6.714844-15 15-15s15 6.71875 15 15zm0 0"/><path d="m150 194.996094c0 8.285156-6.71875 15-15 15-8.285156 0-15-6.714844-15-15 0-8.28125 6.714844-15 15-15 8.28125 0 15 6.71875 15 15zm0 0"/><path d="m209.996094 194.996094c0 8.285156-6.714844 15-14.996094 15-8.285156 0-15-6.714844-15-15 0-8.28125 6.714844-15 15-15 8.28125 0 14.996094 6.71875 14.996094 15zm0 0"/><path d="m90 314.996094c0 8.285156-6.714844 15-15 15s-15-6.714844-15-15 6.714844-15 15-15 15 6.714844 15 15zm0 0"/><path d="m150 314.996094c0 8.285156-6.71875 15-15 15-8.285156 0-15-6.714844-15-15s6.714844-15 15-15c8.28125 0 15 6.714844 15 15zm0 0"/><path d="m209.996094 314.996094c0 8.285156-6.714844 15-14.996094 15-8.285156 0-15-6.714844-15-15s6.714844-15 15-15c8.28125 0 14.996094 6.714844 14.996094 15zm0 0"/></g></svg>