<svg height="512pt" viewBox="0 0 512 512" width="512pt" xmlns="http://www.w3.org/2000/svg"><path d="m271 257v60c0 8.402344-6.597656 15-15 15s-15-6.597656-15-15v-60c0-8.402344 6.597656-15 15-15s15 6.597656 15 15zm0 0" fill="#beebfa"/><path d="m271 257v60c0 8.402344-6.597656 15-15 15v-90c8.402344 0 15 6.597656 15 15zm0 0" fill="#7ed8f6"/><path d="m256 302c-24.902344 0-45 20.097656-45 45v60c0 8.402344 6.597656 15 15 15h15v-75c0-8.402344 6.597656-15 15-15s15 6.597656 15 15v75h15c8.402344 0 15-6.597656 15-15v-60c0-24.902344-20.097656-45-45-45zm0 0" fill="#07485e"/><path d="m301 347v60c0 8.402344-6.597656 15-15 15h-15v-75c0-8.402344-6.597656-15-15-15v-30c24.902344 0 45 20.097656 45 45zm0 0" fill="#03232e"/><path d="m196 452h-181c-8.289062 0-15-6.710938-15-15s6.710938-15 15-15h181c8.289062 0 15 6.710938 15 15s-6.710938 15-15 15zm0 0" fill="#beebfa"/><path d="m497 452h-181c-8.289062 0-15-6.710938-15-15s6.710938-15 15-15h181c8.289062 0 15 6.710938 15 15s-6.710938 15-15 15zm0 0" fill="#7ed8f6"/><path d="m436 0h-360c-8.402344 0-15 6.597656-15 15v120c0 8.402344 6.597656 15 15 15h360c8.402344 0 15-6.597656 15-15v-120c0-8.402344-6.597656-15-15-15zm0 0" fill="#0b799d"/><path d="m451 15v120c0 8.402344-6.597656 15-15 15h-180v-150h180c8.402344 0 15 6.597656 15 15zm0 0" fill="#07485e"/><path d="m451 135v120c0 8.402344-6.597656 15-15 15h-360c-8.402344 0-15-6.597656-15-15v-120zm0 0" fill="#07485e"/><path d="m451 135v120c0 8.402344-6.597656 15-15 15h-180v-135zm0 0" fill="#03232e"/><g fill="#6fe8d5"><path d="m151 75c0 8.285156-6.714844 15-15 15s-15-6.714844-15-15 6.714844-15 15-15 15 6.714844 15 15zm0 0"/><path d="m211 75c0 8.285156-6.714844 15-15 15s-15-6.714844-15-15 6.714844-15 15-15 15 6.714844 15 15zm0 0"/><path d="m151 195c0 8.285156-6.714844 15-15 15s-15-6.714844-15-15 6.714844-15 15-15 15 6.714844 15 15zm0 0"/><path d="m211 195c0 8.285156-6.714844 15-15 15s-15-6.714844-15-15 6.714844-15 15-15 15 6.714844 15 15zm0 0"/></g><path d="m316 392h-120c-8.402344 0-15 6.597656-15 15v90c0 8.402344 6.597656 15 15 15h120c8.402344 0 15-6.597656 15-15v-90c0-8.402344-6.597656-15-15-15zm0 0" fill="#fdbf00"/><path d="m331 407v90c0 8.402344-6.597656 15-15 15h-60v-120h60c8.402344 0 15 6.597656 15 15zm0 0" fill="#ff9100"/><path d="m271 75c0 8.402344-6.597656 15-15 15s-15-6.597656-15-15 6.597656-15 15-15 15 6.597656 15 15zm0 0" fill="#6fe8d5"/><path d="m271 195c0 8.402344-6.597656 15-15 15s-15-6.597656-15-15 6.597656-15 15-15 15 6.597656 15 15zm0 0" fill="#6fe8d5"/><path d="m271 195c0 8.402344-6.597656 15-15 15v-30c8.402344 0 15 6.597656 15 15zm0 0" fill="#15ccc2"/><path d="m256 90v-30c8.402344 0 15 6.597656 15 15s-6.597656 15-15 15zm0 0" fill="#15ccc2"/></svg>