<svg height="512pt" viewBox="0 0 512 512" width="512pt" xmlns="http://www.w3.org/2000/svg"><path d="m271 255v122c0 8.402344-6.597656 15-15 15s-15-6.597656-15-15v-122c0-8.402344 6.597656-15 15-15s15 6.597656 15 15zm0 0" fill="#beebfa"/><path d="m271 255v122c0 8.402344-6.597656 15-15 15v-152c8.402344 0 15 6.597656 15 15zm0 0" fill="#7ed8f6"/><path d="m436 362h-360c-8.402344 0-15 6.597656-15 15v120c0 8.402344 6.597656 15 15 15h360c8.402344 0 15-6.597656 15-15v-120c0-8.402344-6.597656-15-15-15zm0 0" fill="#07485e"/><path d="m451 377v120c0 8.402344-6.597656 15-15 15h-180v-150h180c8.402344 0 15 6.597656 15 15zm0 0" fill="#03232e"/><path d="m437 150h-91c-8.289062 0-15-6.710938-15-15s6.710938-15 15-15h91c8.289062 0 15 6.710938 15 15s-6.710938 15-15 15zm0 0" fill="#7ed8f6"/><path d="m166 150h-91c-8.289062 0-15-6.710938-15-15s6.710938-15 15-15h91c8.289062 0 15 6.710938 15 15s-6.710938 15-15 15zm0 0" fill="#beebfa"/><g fill="#6fe8d5"><path d="m151 437c0 8.285156-6.714844 15-15 15s-15-6.714844-15-15 6.714844-15 15-15 15 6.714844 15 15zm0 0"/><path d="m211 437c0 8.285156-6.714844 15-15 15s-15-6.714844-15-15 6.714844-15 15-15 15 6.714844 15 15zm0 0"/><path d="m271 437c0 8.402344-6.597656 15-15 15s-15-6.597656-15-15 6.597656-15 15-15 15 6.597656 15 15zm0 0"/></g><path d="m271 437c0 8.402344-6.597656 15-15 15v-30c8.402344 0 15 6.597656 15 15zm0 0" fill="#15ccc2"/><path d="m45 180c-24.8125 0-45-20.1875-45-45s20.1875-45 45-45 45 20.1875 45 45-20.1875 45-45 45zm0 0" fill="#beebfa"/><path d="m467 180c-24.8125 0-45-20.1875-45-45s20.1875-45 45-45 45 20.1875 45 45-20.1875 45-45 45zm0 0" fill="#7ed8f6"/><path d="m361 75v180c0 8.402344-6.597656 15-15 15h-180c-8.402344 0-15-6.597656-15-15v-240c0-8.402344 6.597656-15 15-15h120zm0 0" fill="#fff5f5"/><path d="m361 75v180c0 8.402344-6.597656 15-15 15h-90v-270h30zm0 0" fill="#efe2dd"/><path d="m296.605469 4.394531c-2.8125-2.8125-6.621094-4.394531-10.605469-4.394531v75h75c0-3.984375-1.582031-7.792969-4.394531-10.605469zm0 0" fill="#cdbfba"/></svg>