<svg height="512pt" viewBox="0 -16 512 512" width="512pt" xmlns="http://www.w3.org/2000/svg"><path d="m512 15v120l-15 15h-160.902344l-24.597656-4.5-55.5-55.5h-241c-8.402344 0-15-6.597656-15-15v-60c0-8.402344 6.597656-15 15-15h482c8.402344 0 15 6.597656 15 15zm0 0" fill="#ffda44"/><path d="m512 15v120l-15 15h-160.902344l-24.597656-4.5-55.5-55.5v-90h241c8.402344 0 15 6.597656 15 15zm0 0" fill="#ff9f22"/><path d="m322.300781 135-55.800781-55.5c-2.699219-3-6.601562-4.5-10.5-4.5h-256v390c0 8.402344 6.597656 15 15 15h482c8.402344 0 15-6.597656 15-15v-330zm0 0" fill="#07485e"/><path d="m512 135v330c0 8.402344-6.597656 15-15 15h-241v-405c3.898438 0 7.800781 1.5 10.5 4.5l55.800781 55.5zm0 0" fill="#03232e"/><g fill="#87a0af"><path d="m331 195c0 8.285156-6.714844 15-15 15s-15-6.714844-15-15 6.714844-15 15-15 15 6.714844 15 15zm0 0"/><path d="m451 375c0 8.285156-6.714844 15-15 15s-15-6.714844-15-15 6.714844-15 15-15 15 6.714844 15 15zm0 0"/><path d="m436 210h-60c-8.289062 0-15-6.710938-15-15s6.710938-15 15-15h60c8.289062 0 15 6.710938 15 15s-6.710938 15-15 15zm0 0"/><path d="m376 390h-60c-8.289062 0-15-6.710938-15-15s6.710938-15 15-15h60c8.289062 0 15 6.710938 15 15s-6.710938 15-15 15zm0 0"/><path d="m436 270h-120c-8.289062 0-15-6.710938-15-15s6.710938-15 15-15h120c8.289062 0 15 6.710938 15 15s-6.710938 15-15 15zm0 0"/><path d="m436 330h-120c-8.289062 0-15-6.710938-15-15s6.710938-15 15-15h120c8.289062 0 15 6.710938 15 15s-6.710938 15-15 15zm0 0"/></g><path d="m241 300c0 24.902344-40.5 45-90 45s-90-20.097656-90-45h-15v60c0 34.199219 45 60 105 60s105-25.800781 105-60v-60zm0 0" fill="#b4d2d7"/><path d="m241 240c0 24.902344-40.5 45-90 45s-90-20.097656-90-45h-15v60c0 34.199219 45 60 105 60s105-25.800781 105-60v-60zm0 0" fill="#e1ebf0"/><path d="m241 165h-180c-8.402344 0-15 6.597656-15 15v60c0 34.199219 45 60 105 60s105-25.800781 105-60v-60c0-8.402344-6.597656-15-15-15zm0 0" fill="#b4d2d7"/><path d="m151 240c-59.855469 0-105-25.796875-105-60s45.144531-60 105-60 105 25.796875 105 60-45.144531 60-105 60zm0 0" fill="#e1ebf0"/></svg>