<svg height="512pt" viewBox="0 0 511 512" width="512pt" xmlns="http://www.w3.org/2000/svg"><path d="m406.5 180c0 24.902344-40.5 45-90 45s-90-20.097656-90-45h-15v60c0 34.199219 45 60 105 60s105-25.800781 105-60v-60zm0 0" fill="#b4d2d7"/><path d="m406.5 180h15v60c0 34.199219-45 60-105 60v-75c49.5 0 90-20.097656 90-45zm0 0" fill="#87a0af"/><path d="m406.5 120c0 24.902344-40.5 45-90 45s-90-20.097656-90-45h-15v60c0 34.199219 45 60 105 60s105-25.800781 105-60v-60zm0 0" fill="#e1ebf0"/><path d="m421.5 120v60c0 34.199219-45 60-105 60v-75c49.5 0 90-20.097656 90-45zm0 0" fill="#b4d2d7"/><path d="m421.5 60v60c0 34.199219-45 60-105 60s-105-25.800781-105-60v-60c0-8.402344 6.597656-15 15-15h180c8.402344 0 15 6.597656 15 15zm0 0" fill="#b4d2d7"/><path d="m421.5 60v60c0 34.199219-45 60-105 60v-135h90c8.402344 0 15 6.597656 15 15zm0 0" fill="#87a0af"/><path d="m15.5 332c-8.285156 0-15 6.714844-15 15v120c0 8.285156 6.714844 15 15 15h106l15-75-15-75zm0 0" fill="#ff8859"/><path d="m500.800781 396.199219-135.300781 112.199219c-2.699219 2.402343-6 3.601562-9.597656 3.601562h-112.601563c-1.199219 0-2.402343-.300781-3.601562-.300781l-118.199219-29.699219v-150s27-30 60-30 60 30 60 30h91c16.5 0 30 13.5 30 30s-13.5 30-30 30h-76c-8.402344 0-15 6.597656-15 15s6.597656 15 15 15h113.800781c3.300781 0 6.898438-1.199219 9.597657-3.601562l83.402343-69.296876c12.898438-10.203124 31.5-8.402343 42 4.199219 10.800781 12.898438 8.699219 32.398438-4.5 42.898438zm0 0" fill="#fed2a4"/><path d="m332.5 392h-16v-60h16c16.5 0 30 13.5 30 30s-13.5 30-30 30zm0 0" fill="#ffbd86"/><path d="m500.800781 396.199219-135.300781 112.199219c-2.699219 2.402343-6 3.601562-9.597656 3.601562h-39.402344v-90h53.800781c3.300781 0 6.898438-1.199219 9.597657-3.601562l83.402343-69.296876c12.898438-10.203124 31.5-8.402343 42 4.199219 10.800781 12.898438 8.699219 32.398438-4.5 42.898438zm0 0" fill="#ffbd86"/><path d="m316.5 0c-60 0-105 25.800781-105 60s45 60 105 60 105-25.800781 105-60-45-60-105-60zm0 0" fill="#e1ebf0"/><path d="m421.5 60c0 34.199219-45 60-105 60v-120c60 0 105 25.800781 105 60zm0 0" fill="#b4d2d7"/></svg>