<svg height="512pt" viewBox="0 0 512 512" width="512pt" xmlns="http://www.w3.org/2000/svg"><path d="m512 256c0 141.5-114.519531 256-256 256-68.378906 0-132.671875-26.628906-181.019531-74.980469-4.511719-4.507812-8.832031-9.167969-12.980469-13.980469v13.960938c0 8.28125-6.71875 15-15 15s-15-6.71875-15-15v-60c0-8.28125 6.71875-15 15-15h60c8.28125 0 15 6.71875 15 15s-6.71875 15-15 15h-31.519531c6.328125 8.359375 13.238281 16.328125 20.710937 23.808594 42.6875 42.679687 99.4375 66.191406 159.808594 66.191406 124.921875 0 226-101.089844 226-226 0-18.761719-2.28125-37.390625-6.78125-55.351562-2.019531-8.039063 2.859375-16.1875 10.902344-18.199219 8.027344-2.007813 16.179687 2.871093 18.199218 10.902343 5.101563 20.347657 7.679688 41.429688 7.679688 62.648438zm0 0" fill="#beebfa"/><path d="m481 77v60c0 8.28125-6.71875 15-15 15h-60c-8.28125 0-15-6.71875-15-15s6.71875-15 15-15h32.011719c-6.730469-9.089844-14.132813-17.730469-22.203125-25.808594-42.6875-42.679687-99.4375-66.191406-159.808594-66.191406-124.921875 0-226 101.101562-226 226 0 19.421875 2.441406 38.679688 7.261719 57.230469 2.078125 8.019531-2.730469 16.210937-10.75 18.289062-8 2.082031-16.203125-2.71875-18.292969-10.75-5.449219-21.007812-8.21875-42.808593-8.21875-64.769531 0-141.5 114.519531-256 256-256 68.378906 0 132.671875 26.628906 181.019531 74.980469 4.871094 4.871093 9.53125 9.929687 13.980469 15.140625v-13.121094c0-8.28125 6.71875-15 15-15s15 6.71875 15 15zm0 0" fill="#beebfa"/><path d="m346 317c0 24.902344-40.5 45-90 45s-90-20.097656-90-45h-15v60c0 34.199219 45 60 105 60s105-25.800781 105-60v-60zm0 0" fill="#e1ebf0"/><path d="m346 317h15v60c0 34.199219-45 60-105 60v-75c49.5 0 90-20.097656 90-45zm0 0" fill="#b4d2d7"/><path d="m346 257c0 24.902344-40.5 45-90 45s-90-20.097656-90-45h-15v60c0 34.199219 45 60 105 60s105-25.800781 105-60v-60zm0 0" fill="#b4d2d7"/><path d="m346 257h15v60c0 34.199219-45 60-105 60v-75c49.5 0 90-20.097656 90-45zm0 0" fill="#87a0af"/><path d="m346 197c0 24.902344-40.5 45-90 45s-90-20.097656-90-45h-15v60c0 34.199219 45 60 105 60s105-25.800781 105-60v-60zm0 0" fill="#e1ebf0"/><path d="m361 197v60c0 34.199219-45 60-105 60v-75c49.5 0 90-20.097656 90-45zm0 0" fill="#b4d2d7"/><path d="m361 137v60c0 34.199219-45 60-105 60s-105-25.800781-105-60v-60c0-8.402344 6.597656-15 15-15h180c8.402344 0 15 6.597656 15 15zm0 0" fill="#b4d2d7"/><path d="m361 137v60c0 34.199219-45 60-105 60v-135h90c8.402344 0 15 6.597656 15 15zm0 0" fill="#87a0af"/><path d="m256 77c-60 0-105 25.800781-105 60s45 60 105 60 105-25.800781 105-60-45-60-105-60zm0 0" fill="#e1ebf0"/><path d="m361 137c0 34.199219-45 60-105 60v-120c60 0 105 25.800781 105 60zm0 0" fill="#b4d2d7"/><g fill="#7ed8f6"><path d="m415.808594 96.191406c-42.6875-42.679687-99.4375-66.191406-159.808594-66.191406v-30c68.378906 0 132.671875 26.628906 181.019531 74.980469 4.871094 4.871093 9.53125 9.929687 13.980469 15.140625v-13.121094c0-8.28125 6.71875-15 15-15s15 6.71875 15 15v60c0 8.28125-6.71875 15-15 15h-60c-8.28125 0-15-6.71875-15-15s6.71875-15 15-15h32.011719c-6.730469-9.089844-14.132813-17.730469-22.203125-25.808594zm0 0"/><path d="m512 256c0 141.5-114.519531 256-256 256v-30c124.921875 0 226-101.089844 226-226 0-18.761719-2.28125-37.390625-6.78125-55.351562-2.019531-8.039063 2.859375-16.1875 10.902344-18.199219 8.027344-2.007813 16.179687 2.871093 18.199218 10.902343 5.101563 20.347657 7.679688 41.429688 7.679688 62.648438zm0 0"/></g></svg>