<svg height="512pt" viewBox="0 -16 512 512" width="512pt" xmlns="http://www.w3.org/2000/svg"><path d="m226 480c-16.539062 0-30-13.460938-30-30s13.460938-30 30-30 30 13.460938 30 30-13.460938 30-30 30zm0 0" fill="#ff8859"/><path d="m406 480c-16.539062 0-30-13.460938-30-30s13.460938-30 30-30 30 13.460938 30 30-13.460938 30-30 30zm0 0" fill="#ff3939"/><path d="m493.300781 199.199219-42.902343 150c-1.800782 6.300781-7.800782 10.800781-14.398438 10.800781h-254.699219c-6.601562 0-12.601562-4.5-14.398437-10.800781l-42.902344-150c-1.199219-4.5-.300781-9.597657 2.398438-13.199219 3.003906-3.898438 7.203124-6 12.003906-6h340.496094c4.800781 0 9 2.101562 12.003906 6 2.695312 3.601562 3.597656 8.699219 2.398437 13.199219zm0 0" fill="#ff8859"/><path d="m493.300781 199.199219-42.902343 150c-1.800782 6.300781-7.800782 10.800781-14.398438 10.800781h-120v-180h162.898438c4.800781 0 9 2.101562 12.003906 6 2.695312 3.601562 3.597656 8.699219 2.398437 13.199219zm0 0" fill="#ff3939"/><path d="m512 405c0 8.402344-6.597656 15-15 15h-361c-6.597656 0-12.597656-4.5-14.398438-10.800781l-57-199.199219h-49.601562c-8.402344 0-15-6.597656-15-15s6.597656-15 15-15h61c6.597656 0 12.597656 4.5 14.398438 10.800781l57 199.199219h349.601562c8.402344 0 15 6.597656 15 15zm0 0" fill="#ff8859"/><path d="m512 405c0 8.402344-6.597656 15-15 15h-181v-30h181c8.402344 0 15 6.597656 15 15zm0 0" fill="#ff3939"/><path d="m406 180c0 24.902344-40.5 45-90 45s-90-20.097656-90-45h-15v60c0 34.199219 45 60 105 60s105-25.800781 105-60v-60zm0 0" fill="#b4d2d7"/><path d="m406 180h15v60c0 34.199219-45 60-105 60v-75c49.5 0 90-20.097656 90-45zm0 0" fill="#87a0af"/><path d="m406 120c0 24.902344-40.5 45-90 45s-90-20.097656-90-45h-15v60c0 34.199219 45 60 105 60s105-25.800781 105-60v-60zm0 0" fill="#e1ebf0"/><path d="m421 120v60c0 34.199219-45 60-105 60v-75c49.5 0 90-20.097656 90-45zm0 0" fill="#b4d2d7"/><path d="m421 60v60c0 34.199219-45 60-105 60s-105-25.800781-105-60v-60c0-8.402344 6.597656-15 15-15h180c8.402344 0 15 6.597656 15 15zm0 0" fill="#b4d2d7"/><path d="m421 60v60c0 34.199219-45 60-105 60v-135h90c8.402344 0 15 6.597656 15 15zm0 0" fill="#87a0af"/><path d="m316 0c-60 0-105 25.800781-105 60s45 60 105 60 105-25.800781 105-60-45-60-105-60zm0 0" fill="#e1ebf0"/><path d="m421 60c0 34.199219-45 60-105 60v-120c60 0 105 25.800781 105 60zm0 0" fill="#b4d2d7"/></svg>