<svg height="512pt" viewBox="-4 0 512 512.001" width="512pt" xmlns="http://www.w3.org/2000/svg"><path d="m503.941406 363.859375c-1.5 4.195313-15.292968 41.984375-46.183594 50.078125-4.195312 1.199219-8.394531 1.5-12.59375 1.5-16.191406 0-31.1875-7.199219-40.785156-13.496094-8.398437 9.296875-17.992187 17.09375-27.886718 24.59375 1.496093.898438 2.996093 1.496094 4.496093 2.394532 26.089844 18.296874 26.089844 58.480468 26.089844 62.976562 0 6-3.898437 11.398438-9.59375 13.796875-2.703125.898437-17.695313 6.296875-34.789063 6.296875-11.097656 0-23.09375-2.097656-33.289062-9.296875-15.59375-11.09375-21.886719-29.6875-24.289062-44.082031-12.296876 2.398437-24.890626 4.199218-37.785157 4.199218h-29.988281c-12.894531 0-25.488281-1.800781-37.785156-4.199218-2.398438 14.394531-8.695313 32.988281-24.289063 44.082031-10.195312 7.199219-22.191406 9.296875-33.289062 9.296875-17.09375 0-32.085938-5.398438-34.785157-6.296875-5.699218-2.398437-9.59375-7.796875-9.59375-13.792969 0-4.5 0-44.683594 26.089844-62.976562 1.496094-.898438 2.996094-1.5 4.496094-2.398438-10.195312-7.496094-19.492188-15.59375-27.890625-24.890625-10.195313 6.59375-24.890625 13.792969-40.785156 13.792969-4.195313 0-8.394531-.296875-12.59375-1.5-30.886719-8.09375-44.683594-45.878906-46.179688-50.078125-1.800781-6-.300781-12.296875 4.496094-16.195313 3-2.699218 27.890625-23.691406 55.179687-21.890624-.601562-2.101563-1.5-4.199219-1.800781-6.296876l-5.398437-23.691406c-11.992188-6.597656-34.785156-22.191406-38.984375-46.484375-5.398438-31.484375 22.792969-59.976562 26.089843-62.972656 4.5-4.199219 10.796876-5.398437 16.496094-3 4.195313 1.800781 40.484375 18.894531 46.179688 50.378906 4.199218 23.695313-11.09375 45.882813-20.390625 56.378907l3.898437 17.394531c18.890625-24.289063 57.277344-24.289063 61.476563-24.589844 6.296875.300781 11.691406 4.199219 13.792969 9.597656 1.5 4.496094 15.292968 41.984375-3 68.074219-8.695313 12.59375-22.191407 18.890625-34.785157 22.488281 8.996094 9.597657 19.191407 17.992188 30.289063 24.894531-1.5-7.199218-1.5-14.996093.597656-23.09375 8.097656-30.890624 45.882812-44.382812 50.082031-45.882812 5.695313-2.097656 12.296875-.300781 16.195313 4.199219 2.996094 3.597656 28.785156 34.1875 20.691406 65.074219-2.703125 9.59375-8.398438 17.390624-14.699219 23.691406 3.601563.296875 6.601563.898437 10.199219.898437h29.988281c3.597657 0 6.597657-.601562 10.195313-.898437-6.296875-6.300782-11.996094-14.097656-14.695313-23.691406-8.09375-30.886719 17.695313-61.476563 20.691407-65.074219 3.898437-4.5 10.5-6 16.195312-4.199219 4.199219 1.5 41.984375 14.992188 50.082031 45.882812 2.097657 8.097657 2.097657 15.894532.597657 23.09375 11.097656-6.898437 21.292968-15.296874 30.289062-24.894531-12.59375-3.597656-26.089844-9.894531-34.785156-22.488281-18.292969-26.089844-4.5-63.578125-3-68.074219 2.101562-5.398437 7.496094-9.296875 13.792968-9.597656 4.5.300781 42.585938.300781 61.476563 24.589844l3.898437-17.394531c-9.296874-10.496094-24.589843-32.683594-20.390624-56.378907 5.695312-31.484375 41.984374-48.578125 46.179687-50.378906 5.699219-2.398437 11.996094-1.199219 16.496094 3 3.296875 2.996094 31.488281 31.488281 26.089843 62.972656-4.199218 24.292969-26.992187 39.886719-38.984374 46.484375l-5.398438 23.691406c-.300781 2.097657-1.203125 4.195313-1.800781 6.296876 27.289062-1.800782 52.179687 19.191406 55.179687 21.890624 4.800782 3.898438 6.300782 10.195313 4.5 16.195313zm0 0" fill="#fdbf00"/><path d="m342.304688 179.929688c0 24.890624-40.484376 44.984374-89.964844 44.984374-49.484375 0-89.964844-20.09375-89.964844-44.984374h-14.996094v59.976562c0 34.1875 44.984375 59.976562 104.960938 59.976562 59.976562 0 104.957031-25.789062 104.957031-59.976562v-59.976562zm0 0" fill="#b4d2d7"/><path d="m342.304688 179.929688h14.992187v59.976562c0 34.1875-44.980469 59.976562-104.957031 59.976562v-74.96875c49.480468 0 89.964844-20.09375 89.964844-44.984374zm0 0" fill="#87a0af"/><path d="m342.304688 119.953125c0 24.890625-40.484376 44.984375-89.964844 44.984375-49.484375 0-89.964844-20.09375-89.964844-44.984375h-14.996094v59.976563c0 34.1875 44.984375 59.976562 104.960938 59.976562 59.976562 0 104.957031-25.789062 104.957031-59.976562v-59.976563zm0 0" fill="#e1ebf0"/><path d="m357.296875 119.953125v59.976563c0 34.1875-44.980469 59.976562-104.957031 59.976562v-74.96875c49.480468 0 89.964844-20.09375 89.964844-44.984375zm0 0" fill="#b4d2d7"/><path d="m357.296875 59.976562v59.976563c0 34.1875-44.980469 59.976563-104.957031 59.976563-59.976563 0-104.960938-25.789063-104.960938-59.976563v-59.976563c0-8.398437 6.597656-14.992187 14.996094-14.992187h179.929688c8.394531 0 14.992187 6.59375 14.992187 14.992187zm0 0" fill="#b4d2d7"/><path d="m357.296875 59.976562v59.976563c0 34.1875-44.980469 59.976563-104.957031 59.976563v-134.945313h89.964844c8.394531 0 14.992187 6.59375 14.992187 14.992187zm0 0" fill="#87a0af"/><path d="m252.339844 0c-59.976563 0-104.960938 25.789062-104.960938 59.976562s44.984375 59.976563 104.960938 59.976563c59.976562 0 104.957031-25.789063 104.957031-59.976563s-44.980469-59.976562-104.957031-59.976562zm0 0" fill="#e1ebf0"/><path d="m357.296875 59.976562c0 34.1875-44.980469 59.976563-104.957031 59.976563v-119.953125c59.976562 0 104.957031 25.789062 104.957031 59.976562zm0 0" fill="#b4d2d7"/><path d="m503.941406 363.859375c-1.5 4.195313-15.292968 41.984375-46.183594 50.078125-4.195312 1.199219-8.394531 1.5-12.59375 1.5-16.191406 0-31.1875-7.199219-40.785156-13.496094-8.398437 9.296875-17.992187 17.09375-27.886718 24.59375 1.496093.898438 2.996093 1.496094 4.496093 2.394532 26.089844 18.296874 26.089844 58.480468 26.089844 62.976562 0 6-3.898437 11.398438-9.59375 13.796875-2.703125.898437-17.695313 6.296875-34.789063 6.296875-11.097656 0-23.09375-2.097656-33.289062-9.296875-15.59375-11.09375-21.886719-29.6875-24.289062-44.082031-12.296876 2.398437-24.890626 4.199218-37.785157 4.199218h-14.992187v-29.988281h14.992187c3.597657 0 6.597657-.601562 10.199219-.898437-6.300781-6.300782-12-14.097656-14.699219-23.691406-8.09375-30.886719 17.695313-61.476563 20.691407-65.074219 3.898437-4.5 10.5-6 16.195312-4.199219 4.199219 1.5 41.984375 14.992188 50.082031 45.882812 2.097657 8.097657 2.097657 15.894532.597657 23.09375 11.097656-6.898437 21.292968-15.296874 30.289062-24.894531-12.59375-3.597656-26.089844-9.894531-34.785156-22.488281-18.292969-26.089844-4.5-63.578125-3-68.074219 2.101562-5.398437 7.496094-9.296875 13.792968-9.597656 4.5.300781 42.585938.300781 61.476563 24.589844l3.898437-17.394531c-9.296874-10.496094-24.589843-32.683594-20.390624-56.378907 5.695312-31.484375 41.984374-48.578125 46.179687-50.378906 5.699219-2.398437 11.996094-1.199219 16.496094 3 3.296875 2.996094 31.488281 31.488281 26.089843 62.972656-4.199218 24.292969-26.992187 39.886719-38.984374 46.484375l-5.398438 23.691406c-.300781 2.097657-1.203125 4.195313-1.800781 6.296876 27.289062-1.800782 52.179687 19.191406 55.179687 21.890624 4.800782 3.898438 6.300782 10.195313 4.5 16.195313zm0 0" fill="#ff9100"/></svg>