<svg height="512pt" viewBox="-46 0 512 512" width="512pt" xmlns="http://www.w3.org/2000/svg"><path d="m330 105v180l-49.5 180c0 8.398438-6.898438 15-15 15h-250.5c-8.402344 0-15-6.601562-15-15v-450c0-8.402344 6.597656-15 15-15h210v105zm0 0" fill="#fff5f5"/><path d="m330 105v180l-49.5 180c0 8.398438-6.898438 15-15 15h-115.5v-480h75v105zm0 0" fill="#efe2dd"/><path d="m235.605469 4.394531c-2.8125-2.8125-6.621094-4.394531-10.605469-4.394531v105h105c0-3.984375-1.582031-7.792969-4.394531-10.605469zm0 0" fill="#cdbfba"/><path d="m405 272h-180c-8.402344 0-15 6.597656-15 15v85.199219c0 63 40.199219 119.101562 100.199219 138.898437 1.5.601563 3.300781.902344 4.800781.902344s3.300781-.300781 4.800781-.902344c60-19.796875 100.199219-75.898437 100.199219-138.898437v-85.199219c0-8.402344-6.597656-15-15-15zm0 0" fill="#6fe8d5"/><path d="m420 287v85.199219c0 63-40.199219 119.101562-100.199219 138.898437-1.5.601563-3.300781.902344-4.800781.902344v-240h90c8.402344 0 15 6.597656 15 15zm0 0" fill="#15ccc2"/><g fill="#efe2dd"><path d="m270 165c0 8.398438-6.597656 15-15 15h-180c-8.402344 0-15-6.601562-15-15 0-8.402344 6.597656-15 15-15h180c8.402344 0 15 6.597656 15 15zm0 0"/><path d="m270 225c0 8.398438-6.597656 15-15 15h-180c-8.402344 0-15-6.601562-15-15 0-8.402344 6.597656-15 15-15h180c8.402344 0 15 6.597656 15 15zm0 0"/><path d="m180 285c0 8.398438-6.597656 15-15 15h-90c-8.402344 0-15-6.601562-15-15 0-8.402344 6.597656-15 15-15h90c8.402344 0 15 6.597656 15 15zm0 0"/><path d="m180 105c0 8.402344-6.597656 15-15 15h-90c-8.402344 0-15-6.597656-15-15s6.597656-15 15-15h90c8.402344 0 15 6.597656 15 15zm0 0"/><path d="m180 345c0 8.398438-6.597656 15-15 15h-90c-8.402344 0-15-6.601562-15-15 0-8.402344 6.597656-15 15-15h90c8.402344 0 15 6.597656 15 15zm0 0"/><path d="m180 405c0 8.398438-6.597656 15-15 15h-90c-8.402344 0-15-6.601562-15-15 0-8.402344 6.597656-15 15-15h90c8.402344 0 15 6.597656 15 15zm0 0"/></g><path d="m372 356-45 60c-2.699219 3.601562-6.601562 5.699219-10.800781 6h-1.199219c-3.898438 0-7.800781-1.5-10.5-4.5l-30-30c-6-5.699219-6-15.300781 0-21 5.699219-6 15.300781-6 21 0l18 17.699219 1.5-2.097657 33-44.101562c5.101562-6.601562 14.398438-7.800781 21-3 6.601562 5.097656 8.101562 14.398438 3 21zm0 0" fill="#0b799d"/><path d="m372 356-45 60c-2.699219 3.601562-6.601562 5.699219-10.800781 6h-1.199219v-39.902344l33-44.097656c5.101562-6.601562 14.398438-7.800781 21-3 6.601562 5.097656 8.101562 14.398438 3 21zm0 0" fill="#07485e"/><path d="m180 405c0 8.398438-6.597656 15-15 15h-15v-30h15c8.402344 0 15 6.597656 15 15zm0 0" fill="#cdbfba"/><path d="m180 345c0 8.398438-6.597656 15-15 15h-15v-30h15c8.402344 0 15 6.597656 15 15zm0 0" fill="#cdbfba"/><path d="m180 285c0 8.398438-6.597656 15-15 15h-15v-30h15c8.402344 0 15 6.597656 15 15zm0 0" fill="#cdbfba"/><path d="m165 120h-15v-30h15c8.402344 0 15 6.597656 15 15s-6.597656 15-15 15zm0 0" fill="#cdbfba"/><path d="m270 225c0 8.398438-6.597656 15-15 15h-105v-30h105c8.402344 0 15 6.597656 15 15zm0 0" fill="#cdbfba"/><path d="m255 180h-105v-30h105c8.402344 0 15 6.597656 15 15 0 8.398438-6.597656 15-15 15zm0 0" fill="#cdbfba"/></svg>