<svg height="512pt" viewBox="-16 0 512 512" width="512pt" xmlns="http://www.w3.org/2000/svg"><path d="m225 285v195h-210c-8.402344 0-15-6.601562-15-15v-450c0-8.402344 6.597656-15 15-15h210v105h105v180zm0 0" fill="#fff5f5"/><path d="m225 285v195h-75v-480h75v105h105v180zm0 0" fill="#efe2dd"/><path d="m235.605469 4.394531c-2.8125-2.8125-6.621094-4.394531-10.605469-4.394531v105h105c0-3.984375-1.582031-7.792969-4.394531-10.605469zm0 0" fill="#cdbfba"/><g fill="#efe2dd"><path d="m180 285c0 8.398438-6.597656 15-15 15h-90c-8.402344 0-15-6.601562-15-15 0-8.402344 6.597656-15 15-15h90c8.402344 0 15 6.597656 15 15zm0 0"/><path d="m180 345c0 8.398438-6.597656 15-15 15h-90c-8.402344 0-15-6.601562-15-15 0-8.402344 6.597656-15 15-15h90c8.402344 0 15 6.597656 15 15zm0 0"/><path d="m180 405c0 8.398438-6.597656 15-15 15h-90c-8.402344 0-15-6.601562-15-15 0-8.402344 6.597656-15 15-15h90c8.402344 0 15 6.597656 15 15zm0 0"/></g><path d="m465 272h-240c-8.285156 0-15 6.714844-15 15v143h43.800781l31.199219-31.300781 31.5 31.300781h41.101562c-.601562-2.105469-6.601562-8.125-12.601562-14.144531-3.300781-3.011719-6.300781-6.019531-8.699219-8.425781l8.699219-8.730469 30-30.09375 61.199219 61.394531h43.800781v-143c0-8.285156-6.714844-15-15-15zm0 0" fill="#fdbf00"/><path d="m345 415.898438c6 6 12 12 12.597656 14.101562h-12.597656zm0 0" fill="#87a0af"/><path d="m480 287v143h-43.800781l-61.199219-61.394531-30 30.09375v-126.699219h120c8.285156 0 15 6.714844 15 15zm0 0" fill="#ff9100"/><path d="m480 430.699219v66.300781c0 8.398438-6.597656 15-15 15h-240c-8.402344 0-15-6.601562-15-15 0 0 0-62.699219 0-66l64.5-64.5c5.699219-6 15.300781-6 21 0l19.5 19.199219 30-29.699219 19.503906-19.503906c5.699219-5.996094 15.296875-5.996094 20.996094 0zm0 0" fill="#0b799d"/><path d="m480 430.699219v66.300781c0 8.398438-6.597656 15-15 15h-120v-156l19.5-19.5c5.699219-6 15.300781-6 21 0zm0 0" fill="#07485e"/><path d="m173.402344 152.398438-23.402344-15.597657-66.597656-44.398437c-4.800782-3.003906-10.503906-3.304688-15.601563-.601563-4.800781 2.699219-7.800781 7.800781-7.800781 13.199219v120c0 5.398438 3 10.5 7.800781 13.199219 5.449219 2.722656 10.511719 2.222656 15.601563-.601563l90-60c4.195312-2.996094 6.597656-7.5 6.597656-12.597656 0-5.101562-2.402344-9.601562-6.597656-12.601562zm0 0" fill="#ff8859"/><path d="m180 165c0 5.097656-2.402344 9.601562-6.597656 12.597656l-23.402344 15.601563v-56.398438l23.402344 15.597657c4.195312 3 6.597656 7.5 6.597656 12.601562zm0 0" fill="#ff3939"/><path d="m180 405c0 8.398438-6.597656 15-15 15h-15v-30h15c8.402344 0 15 6.597656 15 15zm0 0" fill="#cdbfba"/><path d="m180 345c0 8.398438-6.597656 15-15 15h-15v-30h15c8.402344 0 15 6.597656 15 15zm0 0" fill="#cdbfba"/><path d="m165 300h-15v-30h15c8.402344 0 15 6.597656 15 15 0 8.398438-6.597656 15-15 15zm0 0" fill="#cdbfba"/></svg>