<svg height="512pt" viewBox="-31 0 512 512" width="512pt" xmlns="http://www.w3.org/2000/svg"><path d="m389.097656 332c-7.5-84-78.296875-150-164.097656-150s-156.597656 66-164.097656 150l9.898437 15-9.898437 15c7.5 84 78.296875 150 164.097656 150s156.597656-66 164.097656-150l-14.097656-15zm0 0" fill="#beebfa"/><path d="m375 347 14.097656 15c-7.5 84-78.296875 150-164.097656 150v-330c85.800781 0 156.597656 66 164.097656 150zm0 0" fill="#7ed8f6"/><path d="m360 347c0 74.398438-60.601562 135-135 135s-135-60.601562-135-135c0-74.402344 60.601562-135 135-135s135 60.597656 135 135zm0 0" fill="#5696e5"/><path d="m360 347c0 74.398438-60.601562 135-135 135v-270c74.398438 0 135 60.597656 135 135zm0 0" fill="#1862bf"/><path d="m389.097656 332h-89.398437c-3-75.300781-29.097657-150-74.699219-150s-71.699219 74.699219-74.699219 150h-89.398437c-.601563 4.800781-.902344 9.898438-.902344 15 0 5.097656.300781 10.199219.902344 15h89.398437c3 75.300781 29.097657 150 74.699219 150s71.699219-74.699219 74.699219-150h89.398437c.601563-4.800781.902344-9.902344.902344-15 0-5.101562-.300781-10.199219-.902344-15zm-164.097656 150c-17.101562 0-41.699219-46.199219-44.699219-120h89.398438c-3 73.800781-27.597657 120-44.699219 120zm-44.699219-150c3-73.800781 27.597657-120 44.699219-120s41.699219 46.199219 44.699219 120zm0 0" fill="#beebfa"/><path d="m390 347c0 5.097656-.300781 10.199219-.902344 15h-89.398437c-3 75.300781-29.097657 150-74.699219 150v-30c17.101562 0 41.699219-46.199219 44.699219-120h-44.699219v-30h44.699219c-3-73.800781-27.597657-120-44.699219-120v-30c45.601562 0 71.699219 74.699219 74.699219 150h89.398437c.601563 4.800781.902344 9.898438.902344 15zm0 0" fill="#7ed8f6"/><path d="m225 0c-41.398438 0-75 33.601562-75 75 0 13.199219 3.601562 26.101562 9.902344 37.5l52.199218 92c2.699219 4.5 7.5 7.5 12.898438 7.5 5.402344 0 10.203125-3 12.902344-7.5l52.199218-92c6.296876-11.398438 9.898438-24.300781 9.898438-37.5 0-41.398438-33.601562-75-75-75zm0 90c-8.402344 0-15-6.597656-15-15s6.597656-15 15-15 15 6.597656 15 15-6.597656 15-15 15zm0 0" fill="#ff8859"/><path d="m300 75c0 13.199219-3.601562 26.101562-9.902344 37.5l-52.199218 92c-2.699219 4.5-7.5 7.5-12.898438 7.5v-122c8.398438 0 15-6.597656 15-15s-6.601562-15-15-15v-60c41.398438 0 75 33.601562 75 75zm0 0" fill="#ff3939"/><path d="m375 152c-41.398438 0-75 33.601562-75 75 0 13.199219 3.601562 26.101562 9.902344 37.5l52.199218 90c2.699219 4.5 7.5 7.5 12.898438 7.5 5.402344 0 10.203125-3 12.902344-7.5l52.199218-90c6.296876-11.398438 9.898438-24.300781 9.898438-37.5 0-41.398438-33.601562-75-75-75zm0 90c-8.402344 0-15-6.601562-15-15 0-8.402344 6.597656-15 15-15s15 6.597656 15 15c0 8.398438-6.597656 15-15 15zm0 0" fill="#ff3939"/><path d="m75 152c-41.398438 0-75 33.601562-75 75 0 13.199219 3.601562 26.101562 9.902344 37.5l52.199218 90c2.699219 4.5 7.5 7.5 12.898438 7.5 5.402344 0 10.203125-3 12.902344-7.5l52.199218-90c6.296876-11.398438 9.898438-24.300781 9.898438-37.5 0-41.398438-33.601562-75-75-75zm0 90c-8.402344 0-15-6.601562-15-15 0-8.402344 6.597656-15 15-15s15 6.597656 15 15c0 8.398438-6.597656 15-15 15zm0 0" fill="#ff8859"/></svg>