<svg height="512pt" viewBox="-61 0 512 512" width="512pt" xmlns="http://www.w3.org/2000/svg"><path d="m210 346v151c0 8.398438-6.597656 15-15 15s-15-6.601562-15-15v-151c0-8.402344 6.597656-15 15-15s15 6.597656 15 15zm0 0" fill="#beebfa"/><path d="m75 512c-8.289062 0-15-6.710938-15-15v-61c0-3.984375 1.582031-7.792969 4.394531-10.605469l25.605469-25.605469v-53.789062c0-8.289062 6.710938-15 15-15s15 6.710938 15 15v60c0 3.984375-1.582031 7.792969-4.394531 10.605469l-25.605469 25.605469v54.789062c0 8.289062-6.710938 15-15 15zm0 0" fill="#beebfa"/><path d="m315 512c-8.289062 0-15-6.710938-15-15v-54.789062l-25.605469-25.605469c-2.8125-2.8125-4.394531-6.621094-4.394531-10.605469v-60c0-8.289062 6.710938-15 15-15s15 6.710938 15 15v53.789062l25.605469 25.605469c2.8125 2.8125 4.394531 6.621094 4.394531 10.605469v61c0 8.289062-6.710938 15-15 15zm0 0" fill="#7ed8f6"/><path d="m210 15v122.5c0 8.398438-6.597656 15-15 15s-15-6.601562-15-15v-122.5c0-8.402344 6.597656-15 15-15s15 6.597656 15 15zm0 0" fill="#beebfa"/><path d="m210 15v122.5c0 8.398438-6.597656 15-15 15v-152.5c8.402344 0 15 6.597656 15 15zm0 0" fill="#7ed8f6"/><path d="m210 346v151c0 8.398438-6.597656 15-15 15v-181c8.402344 0 15 6.597656 15 15zm0 0" fill="#7ed8f6"/><path d="m105 219.027344c-8.289062 0-15-6.710938-15-15v-91.816406l-25.605469-25.605469c-2.8125-2.8125-4.394531-6.621094-4.394531-10.605469v-61c0-8.289062 6.710938-15 15-15s15 6.710938 15 15v54.789062l25.605469 25.605469c2.8125 2.8125 4.394531 6.621094 4.394531 10.605469v98.027344c0 8.289062-6.710938 15-15 15zm0 0" fill="#beebfa"/><path d="m285 211c-8.289062 0-15-6.710938-15-15v-90c0-3.984375 1.582031-7.792969 4.394531-10.605469l25.605469-25.605469v-54.789062c0-8.289062 6.710938-15 15-15s15 6.710938 15 15v61c0 3.984375-1.582031 7.792969-4.394531 10.605469l-25.605469 25.605469v83.789062c0 8.289062-6.710938 15-15 15zm0 0" fill="#7ed8f6"/><path d="m105 512h-60c-8.289062 0-15-6.710938-15-15s6.710938-15 15-15h60c8.289062 0 15 6.710938 15 15s-6.710938 15-15 15zm0 0" fill="#beebfa"/><path d="m240 497c0 8.398438-6.597656 15-15 15h-60c-8.402344 0-15-6.601562-15-15 0-8.402344 6.597656-15 15-15h60c8.402344 0 15 6.597656 15 15zm0 0" fill="#beebfa"/><path d="m345 512h-60c-8.289062 0-15-6.710938-15-15s6.710938-15 15-15h60c8.289062 0 15 6.710938 15 15s-6.710938 15-15 15zm0 0" fill="#7ed8f6"/><path d="m105 30h-60c-8.289062 0-15-6.710938-15-15s6.710938-15 15-15h60c8.289062 0 15 6.710938 15 15s-6.710938 15-15 15zm0 0" fill="#beebfa"/><path d="m240 15c0 8.402344-6.597656 15-15 15h-60c-8.402344 0-15-6.597656-15-15s6.597656-15 15-15h60c8.402344 0 15 6.597656 15 15zm0 0" fill="#beebfa"/><g fill="#7ed8f6"><path d="m240 497c0 8.398438-6.597656 15-15 15h-30v-30h30c8.402344 0 15 6.597656 15 15zm0 0"/><path d="m225 30h-30v-30h30c8.402344 0 15 6.597656 15 15s-6.597656 15-15 15zm0 0"/><path d="m345 30h-60c-8.289062 0-15-6.710938-15-15s6.710938-15 15-15h60c8.289062 0 15 6.710938 15 15s-6.710938 15-15 15zm0 0"/></g><path d="m300 181h-5.097656c-12.601563-35.398438-46.5-60-84.902344-60-5.097656 0-9.902344.300781-15 1.199219-32.402344 5.398437-59.398438 28.5-70.199219 59.398437-31.5 4.5-57 28.5-63.300781 59.402344h-1.5c-33 0-60 26.996094-60 60 0 32.996094 27 60 60 60h240c49.5 0 90-40.503906 90-90 0-49.5-40.5-90-90-90zm0 0" fill="#fff5f5"/><path d="m390 271c0 49.5-40.5 90-90 90h-105v-238.800781c5.097656-.898438 9.902344-1.199219 15-1.199219 38.402344 0 72.300781 24.601562 84.902344 60h5.097656c49.5 0 90 40.5 90 90zm0 0" fill="#efe2dd"/></svg>