<svg height="512pt" viewBox="0 0 512 512" width="512pt" xmlns="http://www.w3.org/2000/svg"><path d="m451 15v307.097656c0 8.402344-6.597656 15-15 15l-82.199219 129.902344c0 8.398438-6.601562 15-15 15h-323.800781c-8.402344 0-15-6.601562-15-15v-452c0-8.402344 6.597656-15 15-15h421c8.402344 0 15 6.597656 15 15zm0 0" fill="#07485e"/><path d="m451 15v307.097656c0 8.402344-6.597656 15-15 15l-82.199219 129.902344c0 8.398438-6.601562 15-15 15h-172.800781v-482h270c8.402344 0 15 6.597656 15 15zm0 0" fill="#03232e"/><path d="m406 302c-57.898438 0-105 47.101562-105 105s47.101562 105 105 105 105-47.101562 105-105-47.101562-105-105-105zm0 0" fill="#ffda44"/><path d="m511 407c0 57.898438-47.101562 105-105 105v-210c57.898438 0 105 47.101562 105 105zm0 0" fill="#ff9f22"/><path d="m391 377c0 8.285156-6.714844 15-15 15s-15-6.714844-15-15 6.714844-15 15-15 15 6.714844 15 15zm0 0" fill="#07485e"/><path d="m451 377c0 8.285156-6.714844 15-15 15s-15-6.714844-15-15 6.714844-15 15-15 15 6.714844 15 15zm0 0" fill="#03232e"/><path d="m437.800781 438.800781c-8.398437 8.398438-19.800781 13.199219-31.800781 13.199219s-23.402344-4.800781-31.800781-13.199219c-6-6-6-15.300781 0-21.300781 6-5.699219 15.300781-5.699219 21.300781 0 2.699219 2.699219 6.601562 4.199219 10.5 4.199219s7.800781-1.5 10.5-4.199219c6-5.699219 15.300781-5.699219 21.300781 0 6 6 6 15.300781 0 21.300781zm0 0" fill="#07485e"/><path d="m437.800781 438.800781c-8.398437 8.398438-19.800781 13.199219-31.800781 13.199219v-30.300781c3.898438 0 7.800781-1.5 10.5-4.199219 6-5.699219 15.300781-5.699219 21.300781 0 6 6 6 15.300781 0 21.300781zm0 0" fill="#03232e"/><path d="m271 317c0 8.398438-6.597656 15-15 15h-180c-8.402344 0-15-6.601562-15-15 0-8.402344 6.597656-15 15-15h180c8.402344 0 15 6.597656 15 15zm0 0" fill="#e1ebf0"/><path d="m271 317c0 8.398438-6.597656 15-15 15h-90v-30h90c8.402344 0 15 6.597656 15 15zm0 0" fill="#b4d2d7"/><path d="m271 407c0 8.398438-6.597656 15-15 15h-180c-8.402344 0-15-6.601562-15-15 0-8.402344 6.597656-15 15-15h180c8.402344 0 15 6.597656 15 15zm0 0" fill="#e1ebf0"/><path d="m271 407c0 8.398438-6.597656 15-15 15h-90v-30h90c8.402344 0 15 6.597656 15 15zm0 0" fill="#b4d2d7"/><path d="m316 152c-8.289062 0-15-6.710938-15-15v-30c0-8.289062 6.710938-15 15-15s15 6.710938 15 15v30c0 8.289062-6.710938 15-15 15zm0 0" fill="#15ccc2"/><path d="m316 242c-8.289062 0-15-6.710938-15-15v-30c0-8.289062 6.710938-15 15-15s15 6.710938 15 15v30c0 8.289062-6.710938 15-15 15zm0 0" fill="#ff3939"/><path d="m376 152c-8.289062 0-15-6.710938-15-15v-30c0-8.289062 6.710938-15 15-15s15 6.710938 15 15v30c0 8.289062-6.710938 15-15 15zm0 0" fill="#15ccc2"/><path d="m376 242c-8.289062 0-15-6.710938-15-15v-30c0-8.289062 6.710938-15 15-15s15 6.710938 15 15v30c0 8.289062-6.710938 15-15 15zm0 0" fill="#ff3939"/><path d="m106 362c-8.289062 0-15-6.710938-15-15v-60c0-8.289062 6.710938-15 15-15s15 6.710938 15 15v60c0 8.289062-6.710938 15-15 15zm0 0" fill="#6fe8d5"/><path d="m226 452c-8.289062 0-15-6.710938-15-15v-60c0-8.289062 6.710938-15 15-15s15 6.710938 15 15v60c0 8.289062-6.710938 15-15 15zm0 0" fill="#15ccc2"/><path d="m240.097656 241.097656c-18.898437 19.203125-45.296875 30.902344-74.097656 30.902344-57.898438 0-105-47.101562-105-105 0-28.800781 11.699219-55.199219 30.902344-74.097656l42.296875 42.296875c-8.101563 8.101562-13.199219 19.199219-13.199219 31.800781 0 24.898438 20.097656 45 45 45 12.597656 0 23.699219-5.101562 31.800781-13.199219 1.5-1.5 3-3.300781 4.199219-5.101562l24 9zm0 0" fill="#ffda44"/><path d="m240.097656 241.097656c-18.898437 19.203125-45.296875 30.902344-74.097656 30.902344v-60c12.597656 0 23.699219-5.101562 31.800781-13.199219 1.5-1.5 3-3.300781 4.199219-5.101562l24 9zm0 0" fill="#ff9f22"/><path d="m271 167c0 28.800781-11.699219 55.199219-30.902344 74.097656l-42.296875-42.296875c1.5-1.5 3-3.300781 4.199219-5.101562 5.699219-7.5 9-16.800781 9-26.699219 0-12.601562-5.097656-23.699219-13.199219-31.800781l9.597657-21.597657 32.699218-20.699218c19.203125 18.898437 30.902344 45.296875 30.902344 74.097656zm0 0" fill="#ff3939"/><path d="m240.097656 92.902344-42.296875 42.296875c-8.230469-8.246094-19.550781-13.199219-31.800781-13.199219-12.597656 0-23.699219 5.097656-31.800781 13.199219l-42.296875-42.296875c18.898437-19.203125 45.296875-30.902344 74.097656-30.902344s55.199219 11.699219 74.097656 30.902344zm0 0" fill="#6fe8d5"/><path d="m240.097656 92.902344-42.296875 42.296875c-8.230469-8.246094-19.550781-13.199219-31.800781-13.199219v-60c28.800781 0 55.199219 11.699219 74.097656 30.902344zm0 0" fill="#15ccc2"/></svg>