<svg height="512pt" viewBox="0 0 512 512" width="512pt" xmlns="http://www.w3.org/2000/svg"><path d="m497 241h-16.902344c-7.199218-112.199219-96.898437-201.902344-209.097656-209.101562v-16.898438c0-8.402344-6.597656-15-15-15s-15 6.597656-15 15v16.898438c-112.199219 7.199218-201.898438 96.902343-209.097656 209.101562h-16.902344c-8.402344 0-15 6.597656-15 15 0 8.398438 6.597656 15 15 15h16.902344c7.199218 112.199219 96.898437 201.898438 209.097656 209.097656v16.902344c0 8.398438 6.597656 15 15 15s15-6.601562 15-15v-16.902344c112.199219-7.199218 201.898438-96.898437 209.097656-209.097656h16.902344c8.402344 0 15-6.601562 15-15 0-8.402344-6.597656-15-15-15zm-61 30h14.097656c-7.199218 95.398438-83.699218 171.898438-179.097656 179.097656v-14.097656c0-8.402344-6.597656-15-15-15s-15 6.597656-15 15v14.097656c-95.398438-7.199218-171.898438-83.699218-179.097656-179.097656h14.097656c8.402344 0 15-6.601562 15-15 0-8.402344-6.597656-15-15-15h-14.097656c7.199218-95.398438 83.699218-171.902344 179.097656-179.101562v14.101562c0 8.398438 6.597656 15 15 15s15-6.601562 15-15v-14.101562c95.398438 7.199218 171.898438 83.703124 179.097656 179.101562h-14.097656c-8.402344 0-15 6.597656-15 15 0 8.398438 6.597656 15 15 15zm0 0" fill="#ff8859"/><path d="m512 256c0 8.398438-6.597656 15-15 15h-16.902344c-7.199218 112.199219-96.898437 201.898438-209.097656 209.097656v16.902344c0 8.398438-6.597656 15-15 15v-91c8.402344 0 15 6.597656 15 15v14.097656c95.398438-7.199218 171.898438-83.699218 179.097656-179.097656h-14.097656c-8.402344 0-15-6.601562-15-15 0-8.402344 6.597656-15 15-15h14.097656c-7.199218-95.398438-83.699218-171.902344-179.097656-179.101562v14.101562c0 8.398438-6.597656 15-15 15v-91c8.402344 0 15 6.597656 15 15v16.898438c112.199219 7.199218 201.898438 96.902343 209.097656 209.101562h16.902344c8.402344 0 15 6.597656 15 15zm0 0" fill="#ff3939"/><path d="m296.5 116.5-30 30c-2.699219 3-6.601562 4.5-10.5 4.5s-7.800781-1.5-10.5-4.5l-30-30c-6-5.699219-6-15.300781 0-21 5.699219-6 15.300781-6 21 0l19.5 19.199219 19.503906-19.199219c5.699219-6 15.296875-6 20.996094 0 6 5.699219 6 15.300781 0 21zm0 0" fill="#0b799d"/><path d="m296.5 116.5-30 30c-2.699219 3-6.601562 4.5-10.5 4.5v-36.300781l19.5-19.199219c5.699219-6 15.300781-6 21 0 6 5.699219 6 15.300781 0 21zm0 0" fill="#07485e"/><path d="m256 121c-24.902344 0-45 20.097656-45 45 0 24.898438 20.097656 45 45 45s45-20.101562 45-45c0-24.902344-20.097656-45-45-45zm0 0" fill="#07485e"/><path d="m301 166c0 24.898438-20.097656 45-45 45v-90c24.902344 0 45 20.097656 45 45zm0 0" fill="#03232e"/><path d="m319.898438 337.597656-49.800782-137.097656c-2.097656-6-7.796875-9.898438-14.097656-9.898438s-12 3.898438-14.097656 9.898438l-49.800782 137.097656c-1.5 3.902344-1.199218 8.402344.898438 12.003906 13.800781 25.796876 37.199219 41.398438 63 41.398438s49.199219-15.601562 63-41.398438c2.097656-3.601562 2.398438-8.101562.898438-12.003906zm0 0" fill="#0b799d"/><path d="m319 349.601562c-13.800781 25.796876-37.199219 41.398438-63 41.398438v-200.398438c6.300781 0 12 3.898438 14.097656 9.898438l49.800782 137.097656c1.5 3.902344 1.199218 8.402344-.898438 12.003906zm0 0" fill="#07485e"/><path d="m385.601562 271c0 10.199219-1.800781 20.398438-5.402343 30-8.398438 24.601562-27.300781 45-53.699219 54.601562-11.640625 4.011719-14.882812 5.996094-19.199219 5.996094-6 0-12-3.597656-14.101562-9.898437l-29.398438-80.699219-7.800781-21.601562-7.800781 21.601562-29.398438 80.699219c-2.101562 6.300781-8.101562 9.898437-14.101562 9.898437-4.269531 0-6.289063-1.546875-19.199219-5.996094-26.398438-9.601562-45.300781-30-53.699219-54.601562-3.601562-9.601562-5.402343-19.800781-5.402343-30s1.800781-20.699219 5.402343-30.902344c16.796875-46.5 68.699219-70.496094 115.199219-53.699218l9 3.300781 9-3.300781c46.5-16.796876 98.402344 7.203124 115.199219 53.699218 3.601562 10.203125 5.402343 20.703125 5.402343 30.902344zm0 0" fill="#ff8859"/><path d="m385.601562 271c0 10.199219-1.800781 20.398438-5.402343 30-8.398438 24.601562-27.300781 45-53.699219 54.601562l-14.101562 5.097657c-1.796876.601562-3.296876.898437-5.097657.898437-6 0-12-3.597656-14.101562-9.898437l-29.398438-80.699219-7.800781-21.601562v-59.699219l9-3.300781c46.5-16.800782 98.402344 7.199218 115.199219 53.699218 3.601562 10.203125 5.402343 20.703125 5.402343 30.902344zm0 0" fill="#ff3939"/><path d="m316 256c0 8.398438-6.597656 15-15 15h-37.199219l-7.800781-21.601562-7.800781 21.601562h-37.199219c-8.402344 0-15-6.601562-15-15 0-8.402344 6.597656-15 15-15h90c8.402344 0 15 6.597656 15 15zm0 0" fill="#ff3939"/><path d="m316 256c0 8.398438-6.597656 15-15 15h-37.199219l-7.800781-21.601562v-8.398438h45c8.402344 0 15 6.597656 15 15zm0 0" fill="#cd0000"/><path d="m181 286c0 8.398438-6.597656 15-15 15h-34.199219c-3.601562-9.601562-5.402343-19.800781-5.402343-30h39.601562c8.402344 0 15 6.597656 15 15zm0 0" fill="#ff3939"/><path d="m385.601562 271c0 10.199219-1.800781 20.398438-5.402343 30h-34.199219c-8.402344 0-15-6.601562-15-15 0-8.402344 6.597656-15 15-15zm0 0" fill="#cd0000"/></svg>