<svg height="511pt" viewBox="0 0 511.9999 511" width="511pt" xmlns="http://www.w3.org/2000/svg"><path d="m383.691406 60.5c3.902344 2.699219 6.300782 7.5 6.300782 12.296875v182.699219c0 8.398437-6.597657 15-14.996094 15l-46.199219 86.699218c5.996094 5.699219 6.296875 15.296876.898437 21.296876-34.800781 37.800781-81.597656 63.300781-132.296874 71.699218-.601563.300782-1.5.300782-2.402344.300782-.898438 0-1.800782 0-2.398438-.300782-111.597656-18.597656-192.597656-113.996094-192.597656-227.09375v-150.300781c0-4.796875 2.402344-9.597656 6.300781-12.296875 3.898438-2.699219 9.300781-3.601562 13.800781-1.800781 22.496094 8.101562 39.898438-8.398438 39.898438-28.199219 0-3-.601562-6.300781-1.800781-9.898438-1.800781-4.800781-.902344-9.902343 1.800781-13.800781 2.699219-3.902343 7.5-6.300781 12.296875-6.300781h245.398437c4.800782 0 9.597657 2.398438 12.300782 6.300781 2.699218 3.898438 3.597656 9 1.796875 13.800781-1.195313 3.597657-1.796875 6.898438-1.796875 9.898438 0 19.800781 17.398437 36.300781 39.898437 28.199219 4.800781-1.800781 9.898438-.898438 13.796875 1.800781zm0 0" fill="#e1ebf0"/><path d="m383.691406 60.5c3.902344 2.699219 6.300782 7.5 6.300782 12.296875v182.699219c0 8.398437-6.597657 15-14.996094 15l-46.199219 86.699218c5.996094 5.699219 6.296875 15.296876.898437 21.296876-34.800781 37.800781-81.597656 63.300781-132.296874 71.699218-.601563.300782-1.5.300782-2.402344.300782v-449.992188h122.699218c4.800782 0 9.597657 2.398438 12.300782 6.300781 2.699218 3.898438 3.597656 9 1.796875 13.800781-1.195313 3.597657-1.796875 6.898438-1.796875 9.898438 0 19.800781 17.398437 36.300781 39.898437 28.199219 4.800781-1.800781 9.898438-.898438 13.796875 1.800781zm0 0" fill="#b4d2d7"/><path d="m235.496094 86-30 30c-2.699219 3-6.597656 4.5-10.5 4.5-3.898438 0-7.800782-1.5-10.496094-4.5l-30-30c-6-5.703125-6-15.300781 0-21 5.699219-6 15.296875-6 20.996094 0l19.5 19.199219 19.5-19.199219c5.703125-6 15.300781-6 21 0 6 5.699219 6 15.296875 0 21zm0 0" fill="#0b799d"/><path d="m235.496094 86-30 30c-2.699219 3-6.597656 4.5-10.5 4.5v-36.300781l19.5-19.199219c5.703125-6 15.300781-6 21 0 6 5.699219 6 15.296875 0 21zm0 0" fill="#07485e"/><path d="m194.996094 90.5c-24.898438 0-45 20.097656-45 45 0 24.898438 20.101562 45 45 45 24.902344 0 45-20.101562 45-45 0-24.902344-20.097656-45-45-45zm0 0" fill="#07485e"/><path d="m239.996094 135.5c0 24.898438-20.097656 45-45 45v-90c24.902344 0 45 20.097656 45 45zm0 0" fill="#03232e"/><path d="m258.894531 307.09375-49.796875-137.097656c-2.101562-5.996094-7.800781-9.898438-14.101562-9.898438-6.300782 0-12 3.902344-14.097656 9.898438l-49.800782 137.097656c-1.5 3.902344-1.199218 8.402344.902344 12.003906 13.796875 25.796875 37.199219 41.398438 62.996094 41.398438 25.800781 0 49.199218-15.601563 63-41.398438 2.097656-3.601562 2.398437-8.101562.898437-12.003906zm0 0" fill="#0b799d"/><path d="m257.996094 319.097656c-13.800782 25.796875-37.199219 41.398438-63 41.398438v-200.398438c6.300781 0 12 3.902344 14.101562 9.898438l49.796875 137.097656c1.5 3.902344 1.199219 8.402344-.898437 12.003906zm0 0" fill="#07485e"/><path d="m324.59375 240.496094c0 10.199218-1.796875 20.402344-5.398438 30-8.402343 24.601562-27.300781 45-53.699218 54.601562-11.640625 4.011719-14.882813 5.996094-19.199219 5.996094-6 0-12-3.597656-14.101563-9.898438l-29.398437-80.699218-7.800781-21.597656-7.800782 21.597656-29.398437 80.699218c-2.097656 6.300782-8.097656 9.898438-14.097656 9.898438-4.269531 0-6.289063-1.546875-19.199219-5.996094-26.402344-9.601562-45.300781-30-53.699219-54.601562-3.601562-9.597656-5.402343-19.800782-5.402343-30 0-10.199219 1.800781-20.699219 5.402343-30.898438 16.796875-46.5 68.699219-70.5 115.199219-53.699218l8.996094 3.300781 9-3.300781c46.5-16.800782 98.402344 7.199218 115.199218 53.699218 3.601563 10.199219 5.398438 20.699219 5.398438 30.898438zm0 0" fill="#ff8859"/><path d="m324.59375 240.496094c0 10.199218-1.796875 20.402344-5.398438 30-8.402343 24.601562-27.300781 45-53.699218 54.601562l-14.101563 5.097656c-1.796875.601563-3.296875.898438-5.097656.898438-6 0-12-3.601562-14.101563-9.898438l-29.398437-80.699218-7.800781-21.601563v-59.699219l9-3.296874c46.5-16.800782 98.402344 7.199218 115.199218 53.695312 3.601563 10.203125 5.398438 20.703125 5.398438 30.902344zm0 0" fill="#ff3939"/><path d="m254.996094 225.496094c0 8.398437-6.597656 15-15 15h-37.199219l-7.800781-21.597656-7.800782 21.597656h-37.199218c-8.398438 0-15-6.601563-15-15 0-8.398438 6.601562-15 15-15h90c8.402344 0 15 6.601562 15 15zm0 0" fill="#ff3939"/><path d="m254.996094 225.496094c0 8.398437-6.597656 15-15 15h-37.199219l-7.800781-21.597656v-8.402344h45c8.402344 0 15 6.601562 15 15zm0 0" fill="#cd0000"/><path d="m120 255.496094c0 8.398437-6.601562 15-15 15h-34.199219c-3.601562-9.597656-5.402343-19.800782-5.402343-30h39.601562c8.398438 0 15 6.601562 15 15zm0 0" fill="#ff3939"/><path d="m325.59375 242.496094c0 10.199218-1.796875 20.402344-5.398438 30h-34.199218c-8.402344 0-15-6.601563-15-15 0-8.398438 6.597656-15 15-15zm0 0" fill="#cd0000"/><path d="m510.492188 490.890625-120-239.996094c-2.699219-5.097656-8.097657-7.796875-13.5-7.796875-5.398438 0-10.796876 2.699219-13.496094 7.796875l-120 239.996094c-2.101563 4.503906-2.101563 10.203125.601562 14.402344 3 4.5 7.800782 7.199219 12.898438 7.199219h239.996094c5.101562 0 9.902343-2.699219 12.902343-7.199219 2.699219-4.199219 2.699219-9.898438.597657-14.402344zm0 0" fill="#ffda44"/><path d="m509.890625 505.292969c-2.996094 4.5-7.796875 7.199219-12.898437 7.199219h-120v-269.394532c5.402343 0 10.800781 2.699219 13.5 7.796875l120 239.996094c2.101562 4.503906 2.101562 10.203125-.601563 14.402344zm0 0" fill="#ff9f22"/><path d="m391.992188 437.492188c0 8.402343-6.597657 15-15 15-8.398438 0-14.996094-6.597657-14.996094-15 0-8.398438 6.597656-14.996094 14.996094-14.996094 8.402343 0 15 6.597656 15 14.996094zm0 0" fill="#0b799d"/><path d="m391.992188 347.496094v30c0 8.398437-6.597657 15-15 15-8.398438 0-14.996094-6.601563-14.996094-15v-30c0-8.402344 6.597656-15 14.996094-15 8.402343 0 15 6.597656 15 15zm0 0" fill="#0b799d"/><g fill="#07485e"><path d="m391.992188 437.492188c0 8.402343-6.597657 15-15 15v-29.996094c8.402343 0 15 6.597656 15 14.996094zm0 0"/><path d="m391.992188 347.496094v30c0 8.398437-6.597657 15-15 15v-60c8.402343 0 15 6.597656 15 15zm0 0"/></g></svg>