<svg height="512pt" viewBox="0 0 512 512" width="512pt" xmlns="http://www.w3.org/2000/svg"><path d="m331 360v120c0 8.398438-6.597656 15-15 15h-120c-8.402344 0-15-6.601562-15-15v-120c0-8.402344 6.597656-15 15-15h120c8.402344 0 15 6.597656 15 15zm0 0" fill="#b4d2d7"/><path d="m331 360v120c0 8.398438-6.597656 15-15 15h-60v-150h60c8.402344 0 15 6.597656 15 15zm0 0" fill="#87a0af"/><path d="m391 497c0 8.398438-6.597656 15-15 15h-240c-8.402344 0-15-6.601562-15-15 0-8.402344 6.597656-15 15-15h240c8.402344 0 15 6.597656 15 15zm0 0" fill="#e1ebf0"/><path d="m391 497c0 8.398438-6.597656 15-15 15h-120v-30h120c8.402344 0 15 6.597656 15 15zm0 0" fill="#b4d2d7"/><path d="m512 255v120c0 8.398438-6.597656 15-15 15h-482c-8.402344 0-15-6.601562-15-15v-120c3.035156-.167969 273.003906-15.039062 256-14.101562zm0 0" fill="#e1ebf0"/><path d="m512 255v120c0 8.398438-6.597656 15-15 15h-241v-149.101562zm0 0" fill="#b4d2d7"/><path d="m301 315c0 8.398438-6.597656 15-15 15h-60c-8.402344 0-15-6.601562-15-15 0-8.402344 6.597656-15 15-15h60c8.402344 0 15 6.597656 15 15zm0 0" fill="#b4d2d7"/><path d="m301 315c0 8.398438-6.597656 15-15 15h-30v-30h30c8.402344 0 15 6.597656 15 15zm0 0" fill="#87a0af"/><path d="m497 0h-482c-8.402344 0-15 6.597656-15 15v240h512v-240c0-8.402344-6.597656-15-15-15zm0 0" fill="#07485e"/><path d="m497 0h-241v255h256v-240c0-8.402344-6.597656-15-15-15zm0 0" fill="#03232e"/><path d="m256 60c-23.402344 0-45.601562 11.398438-59.699219 30h-90.300781c-3.898438 0-7.800781 1.5-10.5 4.5l-30 30c-6 5.699219-6 15.300781 0 21l30 30c2.699219 3 6.601562 4.5 10.5 4.5h90.300781c14.097657 18.601562 36.296875 30 59.699219 30 41.398438 0 75-33.601562 75-75s-33.601562-75-75-75zm0 90c-8.402344 0-15-6.601562-15-15 0-8.402344 6.597656-15 15-15s15 6.597656 15 15c0 8.398438-6.597656 15-15 15zm0 0" fill="#e1ebf0"/><g fill="#b4d2d7"><path d="m436 90h-60c-8.289062 0-15-6.710938-15-15s6.710938-15 15-15h60c8.289062 0 15 6.710938 15 15s-6.710938 15-15 15zm0 0"/><path d="m436 210h-60c-8.289062 0-15-6.710938-15-15s6.710938-15 15-15h60c8.289062 0 15 6.710938 15 15s-6.710938 15-15 15zm0 0"/><path d="m436 150h-60c-8.289062 0-15-6.710938-15-15s6.710938-15 15-15h60c8.289062 0 15 6.710938 15 15s-6.710938 15-15 15zm0 0"/><path d="m331 135c0 41.398438-33.601562 75-75 75v-60c8.402344 0 15-6.601562 15-15 0-8.402344-6.597656-15-15-15v-60c41.398438 0 75 33.601562 75 75zm0 0"/></g></svg>