<svg height="512pt" viewBox="0 0 512 512" width="512pt" xmlns="http://www.w3.org/2000/svg"><path d="m331 362v120c0 8.398438-6.597656 15-15 15h-120c-8.402344 0-15-6.601562-15-15v-120c0-8.402344 6.597656-15 15-15h120c8.402344 0 15 6.597656 15 15zm0 0" fill="#b4d2d7"/><path d="m331 362v120c0 8.398438-6.597656 15-15 15h-60v-150h60c8.402344 0 15 6.597656 15 15zm0 0" fill="#87a0af"/><path d="m391 497c0 8.398438-6.597656 15-15 15h-240c-8.402344 0-15-6.601562-15-15 0-8.402344 6.597656-15 15-15h240c8.402344 0 15 6.597656 15 15zm0 0" fill="#e1ebf0"/><path d="m391 497c0 8.398438-6.597656 15-15 15h-120v-30h120c8.402344 0 15 6.597656 15 15zm0 0" fill="#b4d2d7"/><path d="m512 257v120c0 8.398438-6.597656 15-15 15h-482c-8.402344 0-15-6.601562-15-15v-120c3.035156-.167969 273.003906-15.039062 256-14.101562zm0 0" fill="#e1ebf0"/><path d="m512 257v120c0 8.398438-6.597656 15-15 15h-241v-149.101562zm0 0" fill="#b4d2d7"/><path d="m497 0h-482c-8.402344 0-15 6.597656-15 15v240h512v-240c0-8.402344-6.597656-15-15-15zm0 0" fill="#07485e"/><path d="m497 0h-241v255h256v-240c0-8.402344-6.597656-15-15-15zm0 0" fill="#03232e"/><path d="m301 317c0 8.398438-6.597656 15-15 15h-60c-8.402344 0-15-6.601562-15-15 0-8.402344 6.597656-15 15-15h60c8.402344 0 15 6.597656 15 15zm0 0" fill="#b4d2d7"/><path d="m301 317c0 8.398438-6.597656 15-15 15h-30v-30h30c8.402344 0 15 6.597656 15 15zm0 0" fill="#87a0af"/><path d="m361 107c0 8.398438-6.597656 15-15 15h-180c-6 0-11.398438-3.601562-13.800781-9.300781-2.398438-5.699219-1.199219-12 3.300781-16.199219l30-30c5.699219-6 15.296875-6 21 0 6 5.699219 6 15.300781 0 21l-4.199219 4.5h143.699219c8.402344 0 15 6.597656 15 15zm0 0" fill="#e1ebf0"/><path d="m356.5 177.5-30 30c-5.398438 6-15.601562 6-21 0-6-5.699219-6-15.300781 0-21l4.199219-4.5h-143.699219c-8.402344 0-15-6.601562-15-15 0-8.402344 6.597656-15 15-15h180c6 0 11.398438 3.601562 13.800781 9.300781 2.398438 5.699219 1.199219 12-3.300781 16.199219zm0 0" fill="#e1ebf0"/><path d="m346 122h-90v-30h90c8.402344 0 15 6.597656 15 15 0 8.398438-6.597656 15-15 15zm0 0" fill="#b4d2d7"/><path d="m359.800781 161.300781c2.398438 5.699219 1.199219 12-3.300781 16.199219l-30 30c-5.394531 6-15.601562 6-21 0-6-5.699219-6-15.300781 0-21l4.199219-4.5h-53.699219v-30h90c6 0 11.398438 3.601562 13.800781 9.300781zm0 0" fill="#b4d2d7"/><path d="m512 437v60c0 8.398438-6.597656 15-15 15h-121c-8.402344 0-15-6.601562-15-15v-60c3.023438-.582031 79.871094-15.335938 75-14.402344zm0 0" fill="#e1ebf0"/><path d="m512 437v60c0 8.398438-6.597656 15-15 15h-61v-89.402344zm0 0" fill="#b4d2d7"/><path d="m512 257v180h-151v-180c0-8.402344 6.597656-15 15-15h121c8.402344 0 15 6.597656 15 15zm0 0" fill="#0b799d"/><path d="m512 257v180h-76v-195h61c8.402344 0 15 6.597656 15 15zm0 0" fill="#07485e"/></svg>