<svg height="512pt" viewBox="0 0 512.00125 512" width="512pt" xmlns="http://www.w3.org/2000/svg"><path d="m329.097656 212c-7.5-84-78.296875-150-164.097656-150s-156.597656 66-164.097656 150l9.898437 15-9.898437 15c7.5 84 78.296875 150 164.097656 150s156.597656-66 164.097656-150l-14.097656-15zm0 0" fill="#beebfa"/><path d="m315 227 14.097656 15c-7.5 84-78.296875 150-164.097656 150v-330c85.800781 0 156.597656 66 164.097656 150zm0 0" fill="#7ed8f6"/><path d="m300 227c0 74.398438-60.601562 135-135 135s-135-60.601562-135-135 60.601562-135 135-135 135 60.601562 135 135zm0 0" fill="#5696e5"/><path d="m300 227c0 74.398438-60.601562 135-135 135v-270c74.398438 0 135 60.601562 135 135zm0 0" fill="#1862bf"/><path d="m329.097656 212h-89.398437c-3-75.300781-29.097657-150-74.699219-150s-71.699219 74.699219-74.699219 150h-89.398437c-.601563 4.800781-.902344 9.898438-.902344 15s.300781 10.199219.902344 15h89.398437c3 75.300781 29.097657 150 74.699219 150s71.699219-74.699219 74.699219-150h89.398437c.601563-4.800781.902344-9.898438.902344-15s-.300781-10.199219-.902344-15zm-164.097656 150c-17.101562 0-41.699219-46.199219-44.699219-120h89.398438c-3 73.800781-27.597657 120-44.699219 120zm-44.699219-150c3-73.800781 27.597657-120 44.699219-120s41.699219 46.199219 44.699219 120zm0 0" fill="#beebfa"/><path d="m330 227c0 5.101562-.300781 10.199219-.902344 15h-89.398437c-3 75.300781-29.097657 150-74.699219 150v-30c17.101562 0 41.699219-46.199219 44.699219-120h-44.699219v-30h44.699219c-3-73.800781-27.597657-120-44.699219-120v-30c45.601562 0 71.699219 74.699219 74.699219 150h89.398437c.601563 4.800781.902344 9.898438.902344 15zm0 0" fill="#7ed8f6"/><path d="m406 152h-226c-8.289062 0-15 6.710938-15 15v120c0 8.292969 6.710938 15 15 15h191.722656l34.277344-7.542969c8.289062 0 15-6.710937 15-15v-112.457031c0-8.289062-6.710938-15-15-15zm0 0" fill="#fdbf00"/><g fill="#07485e"><path d="m241 227c0 8.285156-6.714844 15-15 15s-15-6.714844-15-15 6.714844-15 15-15 15 6.714844 15 15zm0 0"/><path d="m301 227c0 8.285156-6.714844 15-15 15s-15-6.714844-15-15 6.714844-15 15-15 15 6.714844 15 15zm0 0"/><path d="m361 227c0 8.285156-6.714844 15-15 15s-15-6.714844-15-15 6.714844-15 15-15 15 6.714844 15 15zm0 0"/></g><path d="m15 90c-8.289062 0-15-6.707031-15-15v-60c0-8.289062 6.710938-15 15-15h60c8.289062 0 15 6.710938 15 15 0 8.292969-6.710938 15-15 15h-45v45c0 8.292969-6.710938 15-15 15zm0 0" fill="#0b799d"/><path d="m497 90c-8.289062 0-15-6.707031-15-15v-45h-45c-8.289062 0-15-6.707031-15-15 0-8.289062 6.710938-15 15-15h60c8.289062 0 15 6.710938 15 15v60c0 8.292969-6.710938 15-15 15zm0 0" fill="#07485e"/><path d="m75 512h-60c-8.289062 0-15-6.707031-15-15v-60c0-8.289062 6.710938-15 15-15s15 6.710938 15 15v45h45c8.289062 0 15 6.710938 15 15 0 8.292969-6.710938 15-15 15zm0 0" fill="#0b799d"/><path d="m497 512h-60c-8.289062 0-15-6.707031-15-15 0-8.289062 6.710938-15 15-15h45v-45c0-8.289062 6.710938-15 15-15s15 6.710938 15 15v60c0 8.292969-6.710938 15-15 15zm0 0" fill="#07485e"/><path d="m443.972656 410.886719-32.832031-32.816407-10.605469 10.605469c-3.910156 3.910157-9.605468 5.375-14.953125 3.75-5.289062-1.597656-9.273437-5.992187-10.355469-11.410156l-21.210937-106.070313c-.984375-4.921874.554687-10.003906 4.101563-13.550781 3.558593-3.558593 8.640624-5.054687 13.546874-4.101562l106.070313 21.210937c5.421875 1.085938 9.816406 5.070313 11.410156 10.355469 1.613281 5.304687.164063 11.046875-3.75 14.957031l-10.605469 10.605469 32.816407 32.832031c5.859375 5.859375 5.859375 15.351563 0 21.210938l-42.421875 42.421875c-5.859375 5.859375-15.351563 5.859375-21.210938 0zm0 0" fill="#07485e"/></svg>