<svg height="512pt" viewBox="0 0 512 512" width="512pt" xmlns="http://www.w3.org/2000/svg"><g fill="#beebfa"><path d="m391 227v30c0 8.398438-6.597656 15-15 15s-15-6.601562-15-15v-30c0-8.402344 6.597656-15 15-15s15 6.597656 15 15zm0 0"/><path d="m181 377c0 8.398438-6.597656 15-15 15h-30c-8.402344 0-15-6.601562-15-15v-30c0-8.402344 6.597656-15 15-15s15 6.597656 15 15v15h15c8.402344 0 15 6.597656 15 15zm0 0"/><path d="m151 257v30c0 8.398438-6.597656 15-15 15s-15-6.601562-15-15v-30c0-8.402344 6.597656-15 15-15s15 6.597656 15 15zm0 0"/></g><path d="m136 302v-60c8.402344 0 15 6.597656 15 15v30c0 8.398438-6.597656 15-15 15zm0 0" fill="#7ed8f6"/><path d="m181 377c0 8.398438-6.597656 15-15 15h-30v-60c8.402344 0 15 6.597656 15 15v15h15c8.402344 0 15 6.597656 15 15zm0 0" fill="#7ed8f6"/><path d="m286 152h-30c-8.289062 0-15-6.710938-15-15s6.710938-15 15-15h30c8.289062 0 15 6.710938 15 15s-6.710938 15-15 15zm0 0" fill="#beebfa"/><path d="m391 137v30c0 8.398438-6.597656 15-15 15s-15-6.601562-15-15v-15h-15c-8.402344 0-15-6.601562-15-15 0-8.402344 6.597656-15 15-15h30c8.402344 0 15 6.597656 15 15zm0 0" fill="#beebfa"/><path d="m391 137v30c0 8.398438-6.597656 15-15 15v-60c8.402344 0 15 6.597656 15 15zm0 0" fill="#7ed8f6"/><path d="m391 227v30c0 8.398438-6.597656 15-15 15v-60c8.402344 0 15 6.597656 15 15zm0 0" fill="#7ed8f6"/><path d="m256 392h-30c-8.289062 0-15-6.710938-15-15s6.710938-15 15-15h30c8.289062 0 15 6.710938 15 15s-6.710938 15-15 15zm0 0" fill="#7ed8f6"/><path d="m136 182c-41.398438 0-75 33.601562-75 75 0 8.398438 6.597656 15 15 15h120c8.402344 0 15-6.601562 15-15 0-41.398438-33.601562-75-75-75zm0 0" fill="#e1ebf0"/><path d="m211 257c0 8.398438-6.597656 15-15 15h-60v-90c41.398438 0 75 33.601562 75 75zm0 0" fill="#b4d2d7"/><path d="m376 422c-41.398438 0-75 33.601562-75 75 0 8.398438 6.597656 15 15 15h120c8.402344 0 15-6.601562 15-15 0-41.398438-33.601562-75-75-75zm0 0" fill="#e1ebf0"/><path d="m451 497c0 8.398438-6.597656 15-15 15h-60v-90c41.398438 0 75 33.601562 75 75zm0 0" fill="#b4d2d7"/><path d="m256 0h-241c-8.402344 0-15 6.597656-15 15v182c0 8.398438 6.597656 15 15 15h241c8.402344 0 15-6.601562 15-15v-182c0-8.402344-6.597656-15-15-15zm0 0" fill="#07485e"/><path d="m271 15v182c0 8.398438-6.597656 15-15 15h-120v-212h120c8.402344 0 15 6.597656 15 15zm0 0" fill="#03232e"/><path d="m497 242h-241c-8.402344 0-15 6.597656-15 15v180c0 8.398438 6.597656 15 15 15h241c8.402344 0 15-6.601562 15-15v-180c0-8.402344-6.597656-15-15-15zm0 0" fill="#07485e"/><path d="m512 257v180c0 8.398438-6.597656 15-15 15h-121v-210h121c8.402344 0 15 6.597656 15 15zm0 0" fill="#03232e"/></svg>