<svg height="512pt" viewBox="0 0 512.00012 512" width="512pt" xmlns="http://www.w3.org/2000/svg"><path d="m512 134.792969c0-3.253907 0-124.265625 0-119.816407 0-8.277343-6.699219-14.976562-14.976562-14.976562-3.25 0-125.261719 0-120.8125 0l-14.976563 69.734375 14.976563 65.058594 67.394531 9.828125zm0 0" fill="#07485e"/><path d="m376.210938 0v134.792969l-119.8125 6.289062c-3.035157-.078125-272.851563-6.71875-255.605469-6.289062 0 0 0-116.519531 0-119.816407 0-4.191406 1.796875-7.789062 4.492187-10.484374 2.695313-2.695313 6.289063-4.492188 10.484375-4.492188zm0 0" fill="#ff8859"/><path d="m376.210938 0v134.792969l-119.8125 6.289062v-141.082031zm0 0" fill="#ff3939"/><path d="m121.605469 89.859375h-29.953125c-8.277344 0-14.976563-6.699219-14.976563-14.976563 0-8.277343 6.699219-14.976562 14.976563-14.976562h29.953125c8.277343 0 14.976562 6.699219 14.976562 14.976562 0 8.277344-6.699219 14.976563-14.976562 14.976563zm0 0" fill="#0b799d"/><path d="m211.464844 89.859375h-29.953125c-8.277344 0-14.976563-6.699219-14.976563-14.976563 0-8.277343 6.699219-14.976562 14.976563-14.976562h29.953125c8.28125 0 14.976562 6.699219 14.976562 14.976562 0 8.277344-6.695312 14.976563-14.976562 14.976563zm0 0" fill="#0b799d"/><path d="m301.328125 89.859375h-29.953125c-8.28125 0-14.976562-6.699219-14.976562-14.976563 0-8.277343 6.695312-14.976562 14.976562-14.976562h29.953125c8.277344 0 14.976563 6.699219 14.976563 14.976562 0 8.277344-6.699219 14.976563-14.976563 14.976563zm0 0" fill="#07485e"/><path d="m512 134.792969v361.4375c0 8.386719-6.589844 14.976562-14.976562 14.976562h-481.253907c-8.386719 0-14.976562-6.589843-14.976562-14.976562v-361.4375zm0 0" fill="#fff5f5"/><path d="m512 134.792969v361.4375c0 8.386719-6.589844 14.976562-14.976562 14.976562h-240.625v-376.414062zm0 0" fill="#efe2dd"/><path d="m301.328125 376.417969c0 8.269531-6.707031 14.976562-14.976563 14.976562-8.273437 0-14.976562-6.707031-14.976562-14.976562 0-8.273438 6.703125-14.976563 14.976562-14.976563 8.269532 0 14.976563 6.703125 14.976563 14.976563zm0 0" fill="#07485e"/><path d="m451.09375 436.324219c0 8.269531-6.703125 14.976562-14.976562 14.976562-8.269532 0-14.976563-6.707031-14.976563-14.976562 0-8.273438 6.707031-14.976563 14.976563-14.976563 8.273437 0 14.976562 6.703125 14.976562 14.976563zm0 0" fill="#07485e"/><path d="m316.304688 331.484375c-8.277344 0-14.976563-6.695313-14.976563-14.976563v-119.8125c0-8.277343 6.699219-14.976562 14.976563-14.976562 8.277343 0 14.976562 6.699219 14.976562 14.976562v119.8125c0 8.28125-6.699219 14.976563-14.976562 14.976563zm0 0" fill="#87a0af"/><path d="m406.164062 331.484375c-8.277343 0-14.976562-6.695313-14.976562-14.976563v-119.8125c0-8.277343 6.699219-14.976562 14.976562-14.976562 8.277344 0 14.976563 6.699219 14.976563 14.976562v119.8125c0 8.28125-6.699219 14.976563-14.976563 14.976563zm0 0" fill="#87a0af"/><path d="m346.257812 301.53125h-59.90625c-8.28125 0-14.976562-6.699219-14.976562-14.976562 0-8.277344 6.695312-14.976563 14.976562-14.976563h59.90625c8.277344 0 14.976563 6.699219 14.976563 14.976563 0 8.277343-6.699219 14.976562-14.976563 14.976562zm0 0" fill="#07485e"/><path d="m436.117188 241.625h-59.90625c-8.277344 0-14.976563-6.699219-14.976563-14.976562 0-8.277344 6.699219-14.976563 14.976563-14.976563h59.90625c8.277343 0 14.976562 6.699219 14.976562 14.976563 0 8.277343-6.699219 14.976562-14.976562 14.976562zm0 0" fill="#07485e"/><path d="m66.085938 297.144531c-5.847657-5.847656-5.847657-15.328125 0-21.175781l59.90625-59.910156c5.851562-5.847656 15.328124-5.847656 21.179687 0l19.363281 19.367187 49.320313-49.320312c5.851562-5.847657 15.328125-5.847657 21.179687 0 5.847656 5.851562 5.847656 15.328125 0 21.179687l-59.910156 59.90625c-5.847656 5.851563-15.328125 5.851563-21.175781 0l-19.367188-19.363281-49.316406 49.316406c-5.851563 5.851563-15.328125 5.851563-21.179687 0zm0 0" fill="#0b799d"/><path d="m226.441406 451.300781h-149.765625c-8.277343 0-14.976562-6.699219-14.976562-14.976562v-59.90625c0-8.28125 6.699219-14.976563 14.976562-14.976563h149.765625c8.28125 0 14.976563 6.695313 14.976563 14.976563v59.90625c0 8.277343-6.695313 14.976562-14.976563 14.976562zm0 0" fill="#b4d2d7"/><path d="m436.117188 391.394531h-89.859376c-8.277343 0-14.976562-6.699219-14.976562-14.976562 0-8.28125 6.699219-14.976563 14.976562-14.976563h89.859376c8.277343 0 14.976562 6.695313 14.976562 14.976563 0 8.277343-6.699219 14.976562-14.976562 14.976562zm0 0" fill="#87a0af"/><path d="m376.210938 451.300781h-89.859376c-8.28125 0-14.976562-6.699219-14.976562-14.976562 0-8.277344 6.695312-14.976563 14.976562-14.976563h89.859376c8.277343 0 14.976562 6.699219 14.976562 14.976563 0 8.277343-6.699219 14.976562-14.976562 14.976562zm0 0" fill="#87a0af"/><path d="m226.441406 331.484375h-149.765625c-8.277343 0-14.976562-6.695313-14.976562-14.976563v-119.8125c0-8.277343 6.699219-14.976562 14.976562-14.976562 8.277344 0 14.976563 6.699219 14.976563 14.976562v104.835938h134.789062c8.28125 0 14.976563 6.699219 14.976563 14.976562 0 8.28125-6.695313 14.976563-14.976563 14.976563zm0 0" fill="#0b799d"/></svg>