<svg height="512pt" viewBox="0 0 512.00012 512" width="512pt" xmlns="http://www.w3.org/2000/svg"><path d="m512 134.792969c0-3.253907 0-124.265625 0-119.816407 0-8.277343-6.699219-14.976562-14.976562-14.976562-3.25 0-125.261719 0-120.8125 0l-14.976563 69.734375 14.976563 65.058594 67.394531 9.828125zm0 0" fill="#07485e"/><path d="m376.210938 0v134.792969l-119.8125 6.289062c-3.035157-.078125-272.851563-6.71875-255.605469-6.289062 0 0 0-116.519531 0-119.816407 0-4.191406 1.796875-7.789062 4.492187-10.484374 2.695313-2.695313 6.289063-4.492188 10.484375-4.492188zm0 0" fill="#ff8859"/><path d="m376.210938 0v134.792969l-119.8125 6.289062v-141.082031zm0 0" fill="#ff3939"/><path d="m121.605469 89.859375h-29.953125c-8.277344 0-14.976563-6.699219-14.976563-14.976563 0-8.277343 6.699219-14.976562 14.976563-14.976562h29.953125c8.277343 0 14.976562 6.699219 14.976562 14.976562 0 8.277344-6.699219 14.976563-14.976562 14.976563zm0 0" fill="#0b799d"/><path d="m211.464844 89.859375h-29.953125c-8.277344 0-14.976563-6.699219-14.976563-14.976563 0-8.277343 6.699219-14.976562 14.976563-14.976562h29.953125c8.28125 0 14.976562 6.699219 14.976562 14.976562 0 8.277344-6.695312 14.976563-14.976562 14.976563zm0 0" fill="#0b799d"/><path d="m301.328125 89.859375h-29.953125c-8.28125 0-14.976562-6.699219-14.976562-14.976563 0-8.277343 6.695312-14.976562 14.976562-14.976562h29.953125c8.277344 0 14.976563 6.699219 14.976563 14.976562 0 8.277344-6.699219 14.976563-14.976563 14.976563zm0 0" fill="#07485e"/><path d="m512 134.792969v361.4375c0 8.386719-6.589844 14.976562-14.976562 14.976562h-481.253907c-8.386719 0-14.976562-6.589843-14.976562-14.976562v-361.4375zm0 0" fill="#fff5f5"/><path d="m512 134.792969v361.4375c0 8.386719-6.589844 14.976562-14.976562 14.976562h-240.625v-376.414062zm0 0" fill="#efe2dd"/><path d="m166.535156 271.578125h-59.90625c-8.277344 0-14.976562-6.699219-14.976562-14.976563v-59.90625c0-8.277343 6.699218-14.976562 14.976562-14.976562h59.90625c8.277344 0 14.976563 6.699219 14.976563 14.976562v59.90625c0 8.277344-6.699219 14.976563-14.976563 14.976563zm0 0" fill="#b4d2d7"/><path d="m286.351562 181.71875h-59.910156c-8.386718 0-14.976562 6.589844-14.976562 14.976562v59.90625c0 8.386719 6.589844 14.976563 14.976562 14.976563h59.910156c8.386719 0 14.976563-6.589844 14.976563-14.976563v-59.90625c0-8.386718-6.589844-14.976562-14.976563-14.976562zm0 0" fill="#b4d2d7"/><path d="m301.328125 196.695312v59.90625c0 8.386719-6.589844 14.976563-14.976563 14.976563h-29.953124v-89.859375h29.953124c8.386719 0 14.976563 6.589844 14.976563 14.976562zm0 0" fill="#87a0af"/><path d="m406.164062 271.578125h-59.90625c-8.277343 0-14.976562-6.699219-14.976562-14.976563v-59.90625c0-8.277343 6.699219-14.976562 14.976562-14.976562h59.90625c8.277344 0 14.976563 6.699219 14.976563 14.976562v59.90625c0 8.277344-6.699219 14.976563-14.976563 14.976563zm0 0" fill="#87a0af"/><path d="m166.535156 331.484375h-59.90625c-8.277344 0-14.976562-6.695313-14.976562-14.976563 0-8.277343 6.699218-14.976562 14.976562-14.976562h59.90625c8.277344 0 14.976563 6.699219 14.976563 14.976562 0 8.28125-6.699219 14.976563-14.976563 14.976563zm0 0" fill="#b4d2d7"/><path d="m301.328125 316.507812c0 8.386719-6.589844 14.976563-14.976563 14.976563h-59.910156c-8.386718 0-14.976562-6.589844-14.976562-14.976563 0-8.386718 6.589844-14.976562 14.976562-14.976562h59.910156c8.386719 0 14.976563 6.589844 14.976563 14.976562zm0 0" fill="#b4d2d7"/><path d="m301.328125 316.507812c0 8.386719-6.589844 14.976563-14.976563 14.976563h-29.953124v-29.953125h29.953124c8.386719 0 14.976563 6.589844 14.976563 14.976562zm0 0" fill="#87a0af"/><path d="m406.164062 331.484375h-59.90625c-8.277343 0-14.976562-6.695313-14.976562-14.976563 0-8.277343 6.699219-14.976562 14.976562-14.976562h59.90625c8.277344 0 14.976563 6.699219 14.976563 14.976562 0 8.28125-6.699219 14.976563-14.976563 14.976563zm0 0" fill="#87a0af"/><path d="m316.304688 451.300781c-8.277344 0-14.976563-6.699219-14.976563-14.976562v-59.90625c0-8.28125 6.699219-14.976563 14.976563-14.976563 8.277343 0 14.976562 6.695313 14.976562 14.976563v59.90625c0 8.277343-6.699219 14.976562-14.976562 14.976562zm0 0"/><path d="m325.589844 406.371094-9.285156 44.929687h-149.769532l-8.683594-44.929687 8.683594-44.929688h149.769532zm0 0" fill="#ff8859"/><path d="m106.628906 361.441406c-8.277344 0-14.976562 6.695313-14.976562 14.976563v59.90625c0 8.277343 6.699218 14.976562 14.976562 14.976562h59.90625v-89.859375zm0 0" fill="#07485e"/><path d="m325.589844 406.371094-9.285156 44.929687h-59.90625v-89.859375h59.90625zm0 0" fill="#ff3939"/><path d="m412.863281 392.972656-59.90625-29.953125c-2.078125-1.039062-4.375-1.578125-6.699219-1.578125h-29.953124v89.859375h29.953124c2.324219 0 4.621094-.542969 6.699219-1.582031l59.90625-29.953125c5.074219-2.542969 8.277344-7.71875 8.277344-13.394531 0-5.675782-3.203125-10.851563-8.277344-13.398438zm0 0" fill="#fed2a4"/></svg>