<svg height="512pt" viewBox="0 0 512 512" width="512pt" xmlns="http://www.w3.org/2000/svg"><path d="m496.839844 481.71875h-120.917969c-8.289063 0-14.992187-6.703125-14.992187-14.992188 0-8.285156 6.703124-14.988281 14.992187-14.988281h120.917969c8.285156 0 14.988281 6.703125 14.988281 14.988281 0 8.289063-6.703125 14.992188-14.988281 14.992188zm0 0" fill="#7ed8f6"/><path d="m345.941406 451.738281c-8.285156 0-14.992187-6.703125-14.992187-14.988281v-61.960938c0-8.285156 6.707031-14.988281 14.992187-14.988281s14.988282 6.703125 14.988282 14.988281v61.960938c0 8.285156-6.703126 14.988281-14.988282 14.988281zm0 0" fill="#7ed8f6"/><path d="m330.949219 466.726562c0 8.394532-6.59375 14.992188-14.988281 14.992188h-119.921876c-8.394531 0-14.988281-6.597656-14.988281-14.992188 0-8.394531 6.59375-14.988281 14.988281-14.988281h119.921876c8.394531 0 14.988281 6.59375 14.988281 14.988281zm0 0" fill="#beebfa"/><path d="m330.949219 466.726562c0 8.394532-6.59375 14.992188-14.988281 14.992188h-59.960938v-29.980469h59.960938c8.394531 0 14.988281 6.59375 14.988281 14.988281zm0 0" fill="#7ed8f6"/><path d="m136.082031 481.71875h-120.921875c-8.285156 0-14.988281-6.703125-14.988281-14.992188 0-8.285156 6.703125-14.988281 14.988281-14.988281h120.921875c8.285157 0 14.988281 6.703125 14.988281 14.988281 0 8.289063-6.703124 14.992188-14.988281 14.992188zm0 0" fill="#beebfa"/><path d="m166.0625 451.738281c-8.289062 0-14.992188-6.703125-14.992188-14.988281v-61.960938c0-8.285156 6.703126-14.988281 14.992188-14.988281 8.285156 0 14.988281 6.703125 14.988281 14.988281v61.960938c0 8.285156-6.703125 14.988281-14.988281 14.988281zm0 0" fill="#beebfa"/><path d="m512 240c0 59.402344-45.097656 110.402344-103.898438 118.800781h-304.203124c-58.800782-8.398437-103.898438-59.398437-103.898438-118.800781 0-54.898438 39.101562-102.601562 91.601562-115.800781 5.996094-70.199219 64.195313-124.199219 134.398438-124.199219 10.199219 0 20.398438 1.199219 30 3.597656 33 7.5 62.402344 27.601563 81.597656 56.402344h8.402344c37.5 0 69 27.898438 74.097656 63.898438 52.503906 13.5 91.902344 61.203124 91.902344 116.101562zm0 0" fill="#fff5f5"/><path d="m512 240c0 59.402344-45.097656 110.402344-103.898438 118.800781h-152.101562v-355.199219c33 7.5 62.402344 27.597657 81.601562 56.398438h8.398438c37.5 0 69 27.902344 74.101562 63.902344 52.5 13.496094 91.898438 61.199218 91.898438 116.097656zm0 0" fill="#efe2dd"/><path d="m166.0625 511.699219c-24.800781 0-44.972656-20.171875-44.972656-44.972657 0-24.796874 20.171875-44.96875 44.972656-44.96875 24.796875 0 44.96875 20.171876 44.96875 44.96875 0 24.800782-20.171875 44.972657-44.96875 44.972657zm0 0" fill="#beebfa"/><path d="m345.941406 511.699219c-24.796875 0-44.972656-20.171875-44.972656-44.972657 0-24.796874 20.175781-44.96875 44.972656-44.96875s44.96875 20.171876 44.96875 44.96875c0 24.800782-20.171875 44.972657-44.96875 44.972657zm0 0" fill="#7ed8f6"/><path d="m226.019531 389.78125h-119.917969c-8.285156 0-14.992187-6.707031-14.992187-14.992188v-179.878906c0-8.285156 6.707031-14.988281 14.992187-14.988281h119.917969c8.285157 0 14.992188 6.703125 14.992188 14.988281v179.878906c0 8.285157-6.707031 14.992188-14.992188 14.992188zm0 0" fill="#07485e"/><path d="m405.898438 389.78125h-119.917969c-8.285157 0-14.988281-6.707031-14.988281-14.992188v-179.878906c0-8.285156 6.703124-14.988281 14.988281-14.988281h119.917969c8.285156 0 14.992187 6.703125 14.992187 14.988281v179.878906c0 8.285157-6.707031 14.992188-14.992187 14.992188zm0 0" fill="#03232e"/><path d="m181.050781 254.871094c0 8.277344-6.710937 14.988281-14.988281 14.988281-8.28125 0-14.992188-6.710937-14.992188-14.988281 0-8.28125 6.710938-14.992188 14.992188-14.992188 8.277344 0 14.988281 6.710938 14.988281 14.992188zm0 0" fill="#6fe8d5"/><path d="m181.050781 314.832031c0 8.277344-6.710937 14.988281-14.988281 14.988281-8.28125 0-14.992188-6.710937-14.992188-14.988281 0-8.28125 6.710938-14.992187 14.992188-14.992187 8.277344 0 14.988281 6.710937 14.988281 14.992187zm0 0" fill="#6fe8d5"/><g fill="#15ccc2"><path d="m360.929688 254.871094c0 8.277344-6.710938 14.988281-14.988282 14.988281-8.28125 0-14.992187-6.710937-14.992187-14.988281 0-8.28125 6.710937-14.992188 14.992187-14.992188 8.277344 0 14.988282 6.710938 14.988282 14.992188zm0 0"/><path d="m360.929688 314.832031c0 8.277344-6.710938 14.988281-14.988282 14.988281-8.28125 0-14.992187-6.710937-14.992187-14.988281 0-8.28125 6.710937-14.992187 14.992187-14.992187 8.277344 0 14.988282 6.710937 14.988282 14.992187zm0 0"/></g></svg>