<svg height="512pt" viewBox="0 0 512 512" width="512pt" xmlns="http://www.w3.org/2000/svg"><path d="m512 240c0 59.402344-45.097656 110.402344-103.898438 118.800781h-304.203124c-58.800782-8.398437-103.898438-59.398437-103.898438-118.800781 0-54.898438 39.101562-102.601562 91.601562-115.800781 5.996094-70.199219 64.195313-124.199219 134.398438-124.199219 10.199219 0 20.398438 1.199219 30 3.597656 33 7.5 62.402344 27.601563 81.597656 56.402344h8.402344c37.5 0 69 27.898438 74.097656 63.898438 52.503906 13.5 91.902344 61.203124 91.902344 116.101562zm0 0" fill="#fff5f5"/><path d="m512 240c0 59.402344-45.097656 110.402344-103.898438 118.800781h-152.101562v-355.199219c33 7.5 62.402344 27.597657 81.601562 56.398438h8.398438c37.5 0 69 27.902344 74.101562 63.902344 52.5 13.496094 91.898438 61.199218 91.898438 116.097656zm0 0" fill="#efe2dd"/><path d="m270.992188 374.789062v61.960938c0 8.390625-6.597657 14.988281-14.992188 14.988281s-14.988281-6.597656-14.988281-14.988281v-61.960938c0-8.394531 6.59375-14.988281 14.988281-14.988281s14.992188 6.59375 14.992188 14.988281zm0 0" fill="#beebfa"/><path d="m270.992188 374.789062v61.960938c0 8.390625-6.597657 14.988281-14.992188 14.988281v-91.9375c8.394531 0 14.992188 6.59375 14.992188 14.988281zm0 0" fill="#7ed8f6"/><path d="m226.019531 481.71875h-210.859375c-8.285156 0-14.988281-6.703125-14.988281-14.992188 0-8.285156 6.703125-14.988281 14.988281-14.988281h210.859375c8.285157 0 14.992188 6.703125 14.992188 14.988281 0 8.289063-6.707031 14.992188-14.992188 14.992188zm0 0" fill="#beebfa"/><path d="m496.839844 481.71875h-210.859375c-8.285157 0-14.988281-6.703125-14.988281-14.992188 0-8.285156 6.703124-14.988281 14.988281-14.988281h210.859375c8.285156 0 14.988281 6.703125 14.988281 14.988281 0 8.289063-6.703125 14.992188-14.988281 14.992188zm0 0" fill="#7ed8f6"/><path d="m256 421.757812c-24.882812 0-44.96875 20.085938-44.96875 44.96875 0 24.882813 20.085938 44.972657 44.96875 44.972657 24.886719 0 44.96875-20.089844 44.96875-44.972657 0-24.882812-20.085938-44.96875-44.96875-44.96875zm0 0" fill="#beebfa"/><path d="m300.96875 466.726562c0 24.882813-20.082031 44.972657-44.96875 44.972657v-89.941407c24.882812 0 44.96875 20.085938 44.96875 44.96875zm0 0" fill="#7ed8f6"/><path d="m360.929688 194.910156v179.878906c0 8.394532-6.59375 14.992188-14.988282 14.992188h-179.878906c-8.398438 0-14.992188-6.597656-14.992188-14.992188v-239.839843c0-8.394531 6.59375-14.988281 14.992188-14.988281h119.917969zm0 0" fill="#fdbf00"/><path d="m360.929688 194.910156v179.878906c0 8.394532-6.59375 14.992188-14.988282 14.992188h-89.941406v-269.820312h29.980469zm0 0" fill="#ff9100"/><path d="m296.578125 124.351562c-2.8125-2.8125-6.617187-4.390624-10.597656-4.390624v74.949218h74.949219c0-3.980468-1.582032-7.789062-4.390626-10.597656zm0 0" fill="#fdbf00"/></svg>