<svg height="512pt" viewBox="0 0 512 511" width="512pt" xmlns="http://www.w3.org/2000/svg"><path d="m200.300781 333.5-45.300781 45.300781c-5.550781 5.546875-14.847656 6.449219-21.300781 0-6-5.703125-6-15.300781 0-21.304687l45.300781-45.296875c6-6 15.597656-6 21.300781 0 6 5.699219 6 15.300781 0 21.300781zm0 0" fill="#07485e"/><path d="m200.300781 333.5-45.300781 45.300781c-5.550781 5.546875-14.847656 6.449219-21.300781 0l66.601562-66.601562c6 5.699219 6 15.300781 0 21.300781zm0 0" fill="#03232e"/><path d="m454.699219 57.800781c-35.101563-35.402343-84-57.300781-137.699219-57.300781-107.402344 0-195 87.597656-195 195 0 53.699219 21.898438 102.597656 57.300781 137.699219 35.097657 35.398437 84 57.300781 137.699219 57.300781 107.402344 0 195-87.601562 195-195 0-53.699219-21.898438-102.601562-57.300781-137.699219zm0 0" fill="#b4d2d7"/><path d="m123.800781 452.300781-55.699219 55.699219c-5.839843 5.839844-15.167968 6.136719-21.300781 0l-42.300781-42.300781c-6-6-6-15.300781 0-21.300781l55.699219-55.699219 39.601562 24 .300781.300781zm0 0" fill="#0b799d"/><path d="m123.800781 452.300781-55.699219 55.699219c-5.839843 5.839844-15.167968 6.136719-21.300781 0l-21-21 74-74.300781.300781.300781zm0 0" fill="#07485e"/><path d="m176 400.101562-52.199219 52.199219-63.601562-63.601562 52.199219-52.199219c6-6 15.300781-6 21.300781 0l42.300781 42.300781c6 6 6 15.300781 0 21.300781zm0 0" fill="#b4d2d7"/><path d="m176 400.101562-52.199219 52.199219-31.800781-31.800781 62.996094-62.699219 21 21c6.003906 6 6.003906 15.300781.003906 21.300781zm0 0" fill="#87a0af"/><path d="m512 195.5c0 107.398438-87.597656 195-195 195-53.699219 0-102.597656-21.902344-137.699219-57.300781l275.398438-275.398438c35.402343 35.097657 57.300781 84 57.300781 137.699219zm0 0" fill="#87a0af"/><path d="m482 195.5c0 90.898438-74.097656 165-165 165-45.601562 0-86.699219-18.601562-116.699219-48.300781-29.699219-30-48.300781-71.101563-48.300781-116.699219 0-90.902344 74.097656-165 165-165 45.601562 0 86.699219 18.601562 116.699219 48.300781 29.699219 30 48.300781 71.097657 48.300781 116.699219zm0 0" fill="#fff5f5"/><path d="m482 195.5c0 90.898438-74.097656 165-165 165-45.601562 0-86.699219-18.601562-116.699219-48.300781l233.398438-233.398438c29.699219 30 48.300781 71.097657 48.300781 116.699219zm0 0" fill="#efe2dd"/><path d="m354.5 127.097656-7.5 38.402344-30 8.398438-45-8.398438-10.199219-39 10.199219-36h45 30zm0 0" fill="#e1ebf0"/><path d="m422 165.5v120c0 8.285156-6.714844 15-15 15h-180c-4.199219 0-7.800781-1.800781-10.800781-4.199219-2.398438-3-4.199219-6.601562-4.199219-10.800781v-180c0-8.285156 6.714844-15 15-15h45v60c0 8.285156 6.714844 15 15 15h45c8.285156 0 15-6.714844 15-15v-60c3.898438 0 7.800781 1.5 10.5 4.5l60 60c3 2.699219 4.5 6.601562 4.5 10.5zm0 0" fill="#0b799d"/><path d="m422 165.5v120c0 8.398438-6.597656 15-15 15h-180c-4.199219 0-7.800781-1.800781-10.800781-4.199219l171.300781-171.300781 30 30c3 2.699219 4.5 6.601562 4.5 10.5zm0 0" fill="#07485e"/><path d="m362 225.5c0 8.398438-6.597656 15-15 15h-60c-4.199219 0-7.800781-1.800781-10.800781-4.199219-2.398438-3-4.199219-6.601562-4.199219-10.800781 0-8.402344 6.597656-15 15-15h60c8.398438 0 15 6.597656 15 15zm0 0" fill="#e1ebf0"/><path d="m362 225.5c0 8.398438-6.597656 15-15 15h-60c-4.199219 0-7.800781-1.800781-10.800781-4.199219l25.800781-25.800781h45c8.398438 0 15 6.597656 15 15zm0 0" fill="#b4d2d7"/></svg>