<svg height="512pt" viewBox="0 0 512 512" width="512pt" xmlns="http://www.w3.org/2000/svg"><path d="m271 315v62c0 8.398438-6.597656 15-15 15s-15-6.601562-15-15v-62c0-8.402344 6.597656-15 15-15s15 6.597656 15 15zm0 0" fill="#beebfa"/><path d="m271 195v60c0 8.398438-6.597656 15-15 15s-15-6.601562-15-15v-60c0-8.402344 6.597656-15 15-15s15 6.597656 15 15zm0 0" fill="#beebfa"/><path d="m271 195v60c0 8.398438-6.597656 15-15 15v-90c8.402344 0 15 6.597656 15 15zm0 0" fill="#7ed8f6"/><path d="m271 315v62c0 8.398438-6.597656 15-15 15v-92c8.402344 0 15 6.597656 15 15zm0 0" fill="#7ed8f6"/><path d="m226 300h-151c-8.289062 0-15-6.710938-15-15v-60c0-8.289062 6.710938-15 15-15s15 6.710938 15 15v45h136c8.289062 0 15 6.710938 15 15s-6.710938 15-15 15zm0 0" fill="#beebfa"/><path d="m437 300h-151c-8.289062 0-15-6.710938-15-15s6.710938-15 15-15h136v-45c0-8.289062 6.710938-15 15-15s15 6.710938 15 15v60c0 8.289062-6.710938 15-15 15zm0 0" fill="#7ed8f6"/><path d="m256 240c-24.902344 0-45 20.097656-45 45 0 24.898438 20.097656 45 45 45s45-20.101562 45-45c0-24.902344-20.097656-45-45-45zm0 0" fill="#beebfa"/><path d="m301 285c0 24.898438-20.097656 45-45 45v-90c24.902344 0 45 20.097656 45 45zm0 0" fill="#7ed8f6"/><path d="m256 0c-41.398438 0-75 33.601562-75 75 0 13.199219 3.601562 26.101562 9.902344 37.5l52.199218 90c2.699219 4.5 7.5 7.5 12.898438 7.5 5.402344 0 10.203125-3 12.902344-7.5l52.199218-90c6.296876-11.398438 9.898438-24.300781 9.898438-37.5 0-41.398438-33.601562-75-75-75zm0 90c-8.402344 0-15-6.601562-15-15 0-8.402344 6.597656-15 15-15s15 6.597656 15 15c0 8.398438-6.597656 15-15 15zm0 0" fill="#ff8859"/><path d="m331 75c0 13.199219-3.601562 26.101562-9.902344 37.5l-52.199218 90c-2.699219 4.5-7.5 7.5-12.898438 7.5v-120c8.398438 0 15-6.601562 15-15 0-8.402344-6.601562-15-15-15v-60c41.398438 0 75 33.601562 75 75zm0 0" fill="#ff3939"/><path d="m75 30c-41.398438 0-75 33.601562-75 75 0 13.199219 3.601562 26.101562 9.902344 37.5l52.199218 90c2.699219 4.5 7.5 7.5 12.898438 7.5 5.402344 0 10.203125-3 12.902344-7.5l52.199218-90c6.296876-11.398438 9.898438-24.300781 9.898438-37.5 0-41.398438-33.601562-75-75-75zm0 90c-8.402344 0-15-6.601562-15-15 0-8.402344 6.597656-15 15-15s15 6.597656 15 15c0 8.398438-6.597656 15-15 15zm0 0" fill="#ff8859"/><path d="m437 30c-41.398438 0-75 33.601562-75 75 0 13.199219 3.601562 26.101562 9.902344 37.5l52.199218 90c2.699219 4.5 7.5 7.5 12.898438 7.5 5.402344 0 10.203125-3 12.902344-7.5l52.199218-90c6.296876-11.398438 9.898438-24.300781 9.898438-37.5 0-41.398438-33.601562-75-75-75zm0 90c-8.402344 0-15-6.601562-15-15 0-8.402344 6.597656-15 15-15s15 6.597656 15 15c0 8.398438-6.597656 15-15 15zm0 0" fill="#ff3939"/><path d="m436 362h-360c-8.402344 0-15 6.597656-15 15v120c0 8.402344 6.597656 15 15 15h360c8.402344 0 15-6.597656 15-15v-120c0-8.402344-6.597656-15-15-15zm0 0" fill="#07485e"/><path d="m451 377v120c0 8.402344-6.597656 15-15 15h-180v-150h180c8.402344 0 15 6.597656 15 15zm0 0" fill="#03232e"/><g fill="#6fe8d5"><path d="m151 437c0 8.285156-6.714844 15-15 15s-15-6.714844-15-15 6.714844-15 15-15 15 6.714844 15 15zm0 0"/><path d="m211 437c0 8.285156-6.714844 15-15 15s-15-6.714844-15-15 6.714844-15 15-15 15 6.714844 15 15zm0 0"/><path d="m271 437c0 8.402344-6.597656 15-15 15s-15-6.597656-15-15 6.597656-15 15-15 15 6.597656 15 15zm0 0"/></g><path d="m271 437c0 8.402344-6.597656 15-15 15v-30c8.402344 0 15 6.597656 15 15zm0 0" fill="#15ccc2"/></svg>