<svg height="512pt" viewBox="0 0 512.00064 512" width="512pt" xmlns="http://www.w3.org/2000/svg"><path d="m329.992188 279.195312v157.796876c0 8.398437-6.597657 15-15 15h-145.496094l-4.5 3-81.597656 54.597656c-5.074219 2.816406-10.140626 3.328125-15.601563.601562-4.800781-2.703125-7.796875-7.800781-7.796875-13.199218v-45h-45c-8.402344 0-15-6.601563-15-15v-239.996094c0-8.398438 6.597656-15 15-15h217.796875c8.097656 0 14.996094 6.601562 14.996094 15l67.199219 67.199218c8.402343 0 15 6.898438 15 15zm0 0" fill="#ff8859"/><path d="m329.992188 279.195312v157.796876c0 8.398437-6.597657 15-15 15h-145.496094l-4.5 3v-272.996094h67.800781c8.097656 0 14.996094 6.601562 14.996094 15l67.199219 67.199218c8.402343 0 15 6.898438 15 15zm0 0" fill="#ff3939"/><path d="m478.089844 244.796875c21.898437-26.703125 33.898437-59.699219 33.898437-94.796875 0-82.800781-67.199219-150-149.996093-150-82.796876 0-149.996094 67.199219-149.996094 150 0 82.796875 67.199218 149.996094 149.996094 149.996094h134.996093c6 0 11.402344-3.601563 13.800781-9.300782 2.398438-5.699218 1.199219-12-3.300781-16.199218zm0 0" fill="#ffda2d"/><path d="m507.488281 274.492188c4.5 4.199218 5.699219 10.503906 3.300781 16.203124-2.402343 5.699219-7.800781 9.296876-13.800781 9.296876h-134.996093v-299.992188c82.796874 0 149.996093 67.199219 149.996093 149.996094 0 35.097656-12 68.097656-33.898437 94.796875zm0 0" fill="#fdbf00"/><path d="m238.496094 370.390625-60-119.996094c-2.699219-5.097656-8.101563-7.800781-13.5-7.800781-5.398438 0-10.800782 2.703125-13.5 7.800781l-60 119.996094c-3.597656 7.203125-.597656 16.203125 6.902344 20.101563 7.199218 3.601562 16.199218.601562 20.097656-6.898438l10.800781-21.601562h71.398437l10.800782 21.601562c2.699218 5.398438 8.101562 8.398438 13.5 8.398438 2.398437 0 4.5-.601563 6.597656-1.5 7.5-3.898438 10.5-12.902344 6.902344-20.101563zm-94.199219-38.394531 20.699219-41.402344 20.699218 41.402344zm0 0" fill="#07485e"/><path d="m231.59375 390.492188c-2.097656.898437-4.199219 1.5-6.597656 1.5-5.402344 0-10.800782-3-13.5-8.398438l-10.800782-21.601562h-35.699218v-29.996094h20.699218l-20.699218-41.402344v-48c5.398437 0 10.800781 2.703125 13.5 7.800781l60 119.996094c3.597656 7.199219.597656 16.203125-6.902344 20.101563zm0 0" fill="#03232e"/><path d="m428.589844 181.496094-22.199219-11.097656c.300781-1.800782.601563-3.601563.601563-5.402344v-59.996094c0-24.902344-20.097657-45-45-45-24.902344 0-45 20.097656-45 45v59.996094c0 24.898437 20.097656 45 45 45 12 0 23.101562-4.800782 31.199218-12.601563l22.199219 11.101563c2.097656.898437 4.199219 1.5 6.601563 1.5 5.398437 0 10.796874-3 13.5-8.398438 3.597656-7.203125.597656-16.203125-6.902344-20.101562zm-51.597656-16.5c0 8.402344-6.597657 15-15 15-8.402344 0-15-6.597656-15-15v-59.996094c0-8.402344 6.597656-15 15-15 8.402343 0 15 6.597656 15 15zm0 0" fill="#07485e"/><path d="m435.492188 201.597656c-2.703126 5.398438-8.101563 8.398438-13.5 8.398438-2.402344 0-4.503907-.601563-6.601563-1.5l-22.199219-11.101563c-8.101562 7.800781-19.199218 12.601563-31.199218 12.601563v-30c8.402343 0 15-6.601563 15-15v-59.996094c0-8.402344-6.597657-15-15-15v-30c24.902343 0 45 20.097656 45 45v59.996094c0 1.800781-.300782 3.601562-.601563 5.402344l22.199219 11.097656c7.5 3.898437 10.5 12.898437 6.902344 20.101562zm0 0" fill="#03232e"/></svg>