<svg height="512pt" viewBox="-31 0 512 512" width="512pt" xmlns="http://www.w3.org/2000/svg"><path d="m450 225v15c0 8.398438-6.597656 15-15 15s-15-6.601562-15-15v-15c0-107.402344-87.597656-195-195-195s-195 87.597656-195 195v15c0 8.398438-6.597656 15-15 15s-15-6.601562-15-15v-15c0-124.199219 100.800781-225 225-225s225 100.800781 225 225zm0 0" fill="#b4d2d7"/><path d="m450 225v15c0 8.398438-6.597656 15-15 15s-15-6.601562-15-15v-15c0-107.402344-87.597656-195-195-195v-30c124.199219 0 225 100.800781 225 225zm0 0" fill="#87a0af"/><path d="m195 482h-120c-8.289062 0-15-6.710938-15-15v-92c0-8.289062 6.710938-15 15-15s15 6.710938 15 15v77h105c8.289062 0 15 6.710938 15 15s-6.710938 15-15 15zm0 0" fill="#b4d2d7"/><path d="m255 422h-60c-8.402344 0-15 6.597656-15 15v60c0 8.398438 6.597656 15 15 15h60c24.902344 0 45-20.101562 45-45 0-24.902344-20.097656-45-45-45zm0 0" fill="#0b799d"/><path d="m300 467c0 24.898438-20.097656 45-45 45h-30v-90h30c24.902344 0 45 20.097656 45 45zm0 0" fill="#07485e"/><path d="m195 210h-60c-8.289062 0-15 6.710938-15 15s6.710938 15 15 15h45v30h-45c-8.289062 0-15 6.710938-15 15v60c0 8.289062 6.710938 15 15 15h60c8.289062 0 15-6.710938 15-15s-6.710938-15-15-15h-45v-30h45c8.289062 0 15-6.710938 15-15v-60c0-8.289062-6.710938-15-15-15zm0 0" fill="#0b799d"/><path d="m315 240c-8.289062 0-15 6.710938-15 15v15h-30v-45c0-8.289062-6.710938-15-15-15s-15 6.710938-15 15v60c0 8.289062 6.710938 15 15 15h45v45c0 8.289062 6.710938 15 15 15s15-6.710938 15-15c0-3.90625 0-94.535156 0-90 0-8.289062-6.710938-15-15-15zm0 0" fill="#07485e"/><path d="m75 390h-15c-33.089844 0-60-26.910156-60-60v-90c0-33.089844 26.910156-60 60-60h15c8.289062 0 15 6.710938 15 15v180c0 8.289062-6.710938 15-15 15zm0 0" fill="#0b799d"/><path d="m390 390h-15c-8.289062 0-15-6.710938-15-15v-180c0-8.289062 6.710938-15 15-15h15c33.089844 0 60 26.910156 60 60v90c0 33.089844-26.910156 60-60 60zm0 0" fill="#07485e"/></svg>