<svg height="512pt" viewBox="0 0 512 512" width="512pt" xmlns="http://www.w3.org/2000/svg"><path d="m271 15v92l-135 15h-.902344l-135.097656-15v-92c0-8.402344 6.597656-15 15-15h241c8.402344 0 15 6.597656 15 15zm0 0" fill="#0b799d"/><path d="m271 15v92l-135 15v-122h120c8.402344 0 15 6.597656 15 15zm0 0" fill="#07485e"/><path d="m271 107v210c0 8.398438-6.597656 15-15 15-.082031.109375-114.289062 150-120 150h-121c-8.402344 0-15-6.601562-15-15v-360zm0 0" fill="#07485e"/><path d="m271 107v210c0 8.398438-6.597656 15-15 15-.082031.109375-114.289062 150-120 150v-375zm0 0" fill="#03232e"/><path d="m151 197c0 8.398438-6.597656 15-15 15s-15-6.601562-15-15c0-8.402344 6.597656-15 15-15s15 6.597656 15 15zm0 0" fill="#6fe8d5"/><path d="m151 257c0 8.398438-6.597656 15-15 15s-15-6.601562-15-15c0-8.402344 6.597656-15 15-15s15 6.597656 15 15zm0 0" fill="#6fe8d5"/><path d="m151 257c0 8.398438-6.597656 15-15 15v-30c8.402344 0 15 6.597656 15 15zm0 0" fill="#15ccc2"/><path d="m136 212v-30c8.402344 0 15 6.597656 15 15 0 8.398438-6.597656 15-15 15zm0 0" fill="#15ccc2"/><path d="m196 62h-120c-8.402344 0-15 6.597656-15 15v60c0 8.398438 6.597656 15 15 15h120c8.402344 0 15-6.601562 15-15v-60c0-8.402344-6.597656-15-15-15zm0 0" fill="#e1ebf0"/><path d="m211 77v60c0 8.398438-6.597656 15-15 15h-60v-90h60c8.402344 0 15 6.597656 15 15zm0 0" fill="#b4d2d7"/><g fill="#7ed8f6"><path d="m377 272c-8.289062 0-15-6.710938-15-15 0-24.8125-20.1875-45-45-45-8.289062 0-15-6.710938-15-15s6.710938-15 15-15c41.351562 0 75 33.648438 75 75 0 8.289062-6.710938 15-15 15zm0 0"/><path d="m437 272c-8.289062 0-15-6.710938-15-15 0-57.890625-47.109375-105-105-105-8.289062 0-15-6.710938-15-15s6.710938-15 15-15c74.441406 0 135 60.558594 135 135 0 8.289062-6.710938 15-15 15zm0 0"/><path d="m497 272c-8.289062 0-15-6.710938-15-15 0-90.980469-74.019531-165-165-165-8.289062 0-15-6.710938-15-15s6.710938-15 15-15c107.519531 0 195 87.480469 195 195 0 8.289062-6.710938 15-15 15zm0 0"/></g><path d="m386.5 306.5-59.699219 76.199219-70.800781 54.300781-78.601562-61.800781-51.898438-68.699219c2.699219-2.699219 6.300781-4.5 10.5-4.5h240c4.199219 0 7.800781 1.800781 10.5 4.5zm0 0" fill="#fdbf00"/><path d="m386.5 306.5-59.699219 76.199219-70.800781 54.300781v-135h120c4.199219 0 7.800781 1.800781 10.5 4.5zm0 0" fill="#ff9100"/><path d="m226 407-37.941406 52.5-62.558594 48c-2.699219-2.699219-4.5-6.300781-4.5-10.5v-180c0-4.199219 1.800781-7.800781 4.5-10.5zm0 0" fill="#efe2dd"/><path d="m391 317v180c0 4.199219-1.800781 7.800781-4.5 10.5l-65.25-50.5-35.25-50 100.5-100.5c2.699219 2.699219 4.5 6.300781 4.5 10.5zm0 0" fill="#cdbfba"/><path d="m386.5 507.5c-2.699219 2.699219-6.300781 4.5-10.5 4.5h-240c-4.199219 0-7.800781-1.800781-10.5-4.5l100.5-100.5 30 30 30-30zm0 0" fill="#fff5f5"/><path d="m386.5 507.5c-2.699219 2.699219-6.300781 4.5-10.5 4.5h-120v-75l30-30zm0 0" fill="#efe2dd"/></svg>