<svg height="512pt" viewBox="0 0 512 512" width="512pt" xmlns="http://www.w3.org/2000/svg"><path d="m451 251.597656c0-6.898437-4.5-12.898437-11.398438-14.699218l-96.902343-24.597657c-1.199219-.300781-2.398438-.601562-3.898438-.601562h-37.800781l-15 15-15-15h-90l-14.398438 15-15.601562-15h-136c-8.402344 0-15 6.601562-15 15v75l10.800781 15.898437-10.800781 14.101563v60l10.800781 15.898437-10.800781 14.101563v75c0 8.398437 6.597656 15 15 15h136l15.601562-13.199219 14.398438 13.199219h90l14.398438-13.199219 15.601562 13.199219h135c8.402344 0 15-6.601563 15-15v-75l-14.398438-16.800781 14.398438-13.199219v-60l-14.398438-15.601563 14.398438-14.398437zm0 0" fill="#fdbf00"/><path d="m451 301.699219-14.398438 14.398437 14.398438 15.601563v60l-14.398438 13.199219 14.398438 16.800781v75c0 8.398437-6.597656 15-15 15h-210v-300h45l15 15 15-15h37.800781c1.5 0 2.699219.300781 3.898438.601562l96.898437 24.597657c6.898438 1.800781 11.402344 7.800781 11.402344 14.699218zm0 0" fill="#ff9100"/><path d="m491 101.699219-72-96c-3-3.601563-7.5-5.699219-12-5.699219s-9 2.097656-12 5.699219l-72 96c-13.800781 18.300781-21 40.199219-21 63 0 57.902343 47.101562 105 105 105s105-47.097657 105-105c0-22.800781-7.199219-44.699219-21-63zm0 0" fill="#ff8859"/><path d="m512 164.699219c0 57.902343-47.101562 105-105 105v-269.699219c4.5 0 9 2.097656 12 5.699219l72 96c13.800781 18.300781 21 40.199219 21 63zm0 0" fill="#ff3939"/><path d="m455 173.699219-36-48c-3-3.601563-7.5-5.699219-12-5.699219-4.503906 0-9 2.097656-12.003906 5.699219l-35.996094 48c-7.800781 10.5-12.003906 22.800781-12.003906 36 0 33 27.003906 60 60 60 33 0 60-27 60-60 .003906-13.199219-4.195313-25.5-11.996094-36zm0 0" fill="#ff3939"/><path d="m467 209.699219c0 33-27 60-60 60v-149.699219c4.5 0 9 2.097656 12 5.699219l36 48c7.800781 10.5 12 22.800781 12 36zm0 0" fill="#cd0000"/><path d="m451 331.699219v-30h-150v-90h-30v90h-90v-90h-30v90h-151v30h91v60h-91v30h151v90h30v-90h90v90h30v-90h150v-30h-90v-60zm-120 60h-210v-60h210zm0 0" fill="#ffda2d"/><path d="m361 331.699219v60h90v30h-150v90h-30v-90h-45v-30h105v-60h-105v-30h45v-90h30v90h150v30zm0 0" fill="#fdbf00"/></svg>