<svg height="512pt" viewBox="-91 0 512 512" width="512pt" xmlns="http://www.w3.org/2000/svg"><path d="m330 377v120c0 8.398438-6.597656 15-15 15h-300c-8.402344 0-15-6.601562-15-15v-120l165-15zm0 0" fill="#e1ebf0"/><path d="m330 377v120c0 8.398438-6.597656 15-15 15h-150v-150zm0 0" fill="#b4d2d7"/><path d="m330 15v362h-330v-362c0-8.402344 6.597656-15 15-15h300c8.402344 0 15 6.597656 15 15zm0 0" fill="#0b799d"/><path d="m330 15v362h-165v-377h150c8.402344 0 15 6.597656 15 15zm0 0" fill="#07485e"/><path d="m210 437c0 8.398438-6.597656 15-15 15h-60c-8.402344 0-15-6.601562-15-15 0-8.402344 6.597656-15 15-15h60c8.402344 0 15 6.597656 15 15zm0 0" fill="#b4d2d7"/><path d="m210 437c0 8.398438-6.597656 15-15 15h-30v-30h30c8.402344 0 15 6.597656 15 15zm0 0" fill="#87a0af"/><path d="m269.398438 227-104.398438 15-104.398438-15c0-2.402344 0-4.5.898438-6.601562l30-60c2.699219-5.097657 7.800781-8.398438 13.5-8.398438h120c5.699219 0 10.800781 3.300781 13.5 8.398438l30 60c.898438 2.101562.898438 4.199218.898438 6.601562zm0 0" fill="#fff5f5"/><path d="m269.398438 227-104.398438 15v-90h60c5.699219 0 10.800781 3.300781 13.5 8.398438l30 60c.898438 2.101562.898438 4.199218.898438 6.601562zm0 0" fill="#e1ebf0"/><path d="m269.398438 227c0 3.898438-.898438 7.800781-3.898438 10.5l-90 90c-2.699219 3-6.601562 4.5-10.5 4.5s-7.800781-1.5-10.5-4.5l-90-90c-3-2.699219-3.898438-6.601562-3.898438-10.5zm0 0" fill="#e1ebf0"/><path d="m269.398438 227c0 3.898438-.898438 7.800781-3.898438 10.5l-90 90c-2.699219 3-6.601562 4.5-10.5 4.5v-105zm0 0" fill="#b4d2d7"/></svg>