<svg height="512pt" viewBox="-16 0 512 512" width="512pt" xmlns="http://www.w3.org/2000/svg"><path d="m345 0c-74.441406 0-135 60.558594-135 135v60c0 8.289062 6.710938 15 15 15h60c8.289062 0 15-6.710938 15-15v-60c0-24.8125 20.1875-45 45-45s45 20.1875 45 45v60c0 8.289062 6.710938 15 15 15h60c8.289062 0 15-6.710938 15-15v-60c0-74.441406-60.558594-135-135-135zm0 0" fill="#b4d2d7"/><path d="m315 182h-300c-8.402344 0-15 6.597656-15 15v300c0 8.398438 6.597656 15 15 15h300c8.402344 0 15-6.601562 15-15v-300c0-8.402344-6.597656-15-15-15zm0 0" fill="#fdbf00"/><path d="m330 197v300c0 8.398438-6.597656 15-15 15h-150v-330h150c8.402344 0 15 6.597656 15 15zm0 0" fill="#ff9100"/><path d="m180 347c0 8.398438-6.597656 15-15 15s-15-6.601562-15-15c0-8.402344 6.597656-15 15-15s15 6.597656 15 15zm0 0" fill="#0b799d"/><path d="m255 332h-16.5c-2.101562-9.601562-5.699219-18.300781-11.101562-26.398438l11.699218-11.703124c6-5.699219 6-15.296876 0-21-5.695312-6-15.296875-6-20.996094 0l-11.703124 11.703124c-8.097657-5.402343-16.796876-9-26.398438-11.101562v-16.5c0-8.402344-6.597656-15-15-15s-15 6.597656-15 15v16.5c-9.601562 2.101562-18.300781 5.699219-26.398438 11.101562l-11.703124-11.703124c-5.699219-6-15.296876-6-20.996094 0-6 5.703124-6 15.300781 0 21l11.699218 11.703124c-5.402343 8.097657-9 16.796876-11.101562 26.398438h-16.5c-8.402344 0-15 6.597656-15 15 0 8.398438 6.597656 15 15 15h16.5c2.101562 9.601562 5.699219 18.300781 11.101562 26.398438l-11.699218 11.699218c-6 5.703125-6 15.300782 0 21 2.699218 3.003906 6.597656 4.503906 10.496094 4.503906 3.902343 0 7.5-1.5 10.5-4.503906l11.699218-11.699218c8.101563 5.402343 16.800782 9 26.402344 11.101562v16.5c0 8.398438 6.597656 15 15 15s15-6.601562 15-15v-16.5c9.601562-2.101562 18.300781-5.699219 26.398438-11.101562l11.703124 11.699218c3 3.003906 6.597657 4.503906 10.5 4.503906 3.898438 0 7.796876-1.5 10.496094-4.503906 6-5.699218 6-15.296875 0-21l-11.695312-11.699218c5.398437-8.097657 9-16.796876 11.097656-26.398438h16.5c8.402344 0 15-6.601562 15-15 0-8.402344-6.597656-15-15-15zm-90 60c-24.902344 0-45-20.101562-45-45 0-24.902344 20.097656-45 45-45s45 20.097656 45 45c0 24.898438-20.097656 45-45 45zm0 0" fill="#0b799d"/><g fill="#07485e"><path d="m165 362v-30c8.402344 0 15 6.597656 15 15 0 8.398438-6.597656 15-15 15zm0 0"/><path d="m270 347c0 8.398438-6.597656 15-15 15h-16.5c-2.101562 9.601562-5.699219 18.300781-11.101562 26.398438l11.699218 11.699218c6 5.703125 6 15.300782 0 21-2.699218 3.003906-6.597656 4.503906-10.496094 4.503906-3.902343 0-7.5-1.5-10.5-4.503906l-11.699218-11.699218c-8.101563 5.402343-16.800782 9-26.402344 11.101562v16.5c0 8.398438-6.597656 15-15 15v-60c24.902344 0 45-20.101562 45-45 0-24.902344-20.097656-45-45-45v-60c8.402344 0 15 6.597656 15 15v16.5c9.601562 2.101562 18.300781 5.699219 26.398438 11.101562l11.703124-11.703124c5.699219-6 15.296876-6 20.996094 0 6 5.703124 6 15.300781 0 21l-11.699218 11.703124c5.402343 8.097657 9 16.796876 11.101562 26.398438h16.5c8.402344 0 15 6.597656 15 15zm0 0"/></g></svg>