<svg height="512pt" viewBox="0 0 512.00012 512" width="512pt" xmlns="http://www.w3.org/2000/svg"><path d="m512 106.835938c0-3.253907 0-96.308594 0-91.859376 0-8.277343-6.699219-14.976562-14.976562-14.976562-3.25 0-125.261719 0-120.8125 0l-14.976563 71.734375 14.976563 35.101563 67.394531 9.828124zm0 0" fill="#b4d2d7"/><path d="m376.210938 0v106.835938l-119.8125 6.289062c-3.035157-.078125-272.851563-6.71875-255.605469-6.289062 0 0 0-88.5625 0-91.859376 0-4.191406 1.796875-7.789062 4.492187-10.484374 2.695313-2.695313 6.289063-4.492188 10.484375-4.492188zm0 0" fill="#ff8859"/><path d="m376.210938 0v106.835938l-119.8125 6.289062v-113.125zm0 0" fill="#ff3939"/><path d="m512 106.835938v239.625c0 8.386718-6.589844 14.980468-14.976562 14.980468h-481.253907c-8.386719 0-14.976562-6.59375-14.976562-14.980468v-239.625zm0 0" fill="#07485e"/><path d="m512 106.835938v239.625c0 8.386718-6.589844 14.980468-14.976562 14.980468h-240.625v-254.605468zm0 0" fill="#03232e"/><path d="m360.933594 349.757812c-1.195313 4.492188-3.894532 8.089844-8.085938 10.183594l-6.289062 2.996094c-27.859375 14.078125-45.230469 42.234375-45.230469 73.386719 0 8.386719-6.589844 14.976562-14.976563 14.976562h-59.910156c-8.386718 0-14.976562-6.589843-14.976562-14.976562 0-31.152344-17.371094-59.308594-45.230469-73.386719l-6.289063-2.996094c-4.191406-2.09375-6.886718-5.691406-8.085937-10.183594-.898437-4.195312 0-8.6875 2.695313-12.28125l88.960937-118.617187c-1.195313 2.097656-2.097656 4.792969-2.097656 7.789063v89.859374c0 8.386719 6.589843 14.976563 14.980469 14.976563 8.386718 0 14.976562-6.589844 14.976562-14.976563v-89.859374c0-2.996094-.902344-5.691407-2.097656-7.789063l88.960937 118.617187c2.695313 3.59375 3.597657 8.085938 2.695313 12.28125zm0 0" fill="#e1ebf0"/><path d="m360.933594 349.757812c-1.195313 4.492188-3.894532 8.089844-8.085938 10.183594l-6.289062 2.996094c-27.859375 14.078125-45.230469 42.234375-45.230469 73.386719 0 8.386719-6.589844 14.976562-14.976563 14.976562h-29.953124v-119.816406c8.386718 0 14.976562-6.589844 14.976562-14.976563v-89.859374c0-2.996094-.902344-5.691407-2.097656-7.789063l88.960937 118.617187c2.695313 3.59375 3.597657 8.085938 2.695313 12.28125zm0 0" fill="#b4d2d7"/><path d="m226.441406 211.671875h-89.859375c-8.277343 0-14.976562-6.699219-14.976562-14.976563 0-8.277343 6.699219-14.976562 14.976562-14.976562h89.859375c8.28125 0 14.976563 6.699219 14.976563 14.976562 0 8.277344-6.695313 14.976563-14.976563 14.976563zm0 0" fill="#beebfa"/><path d="m376.210938 211.671875h-89.859376c-8.28125 0-14.976562-6.699219-14.976562-14.976563 0-8.277343 6.695312-14.976562 14.976562-14.976562h89.859376c8.277343 0 14.976562 6.699219 14.976562 14.976562 0 8.277344-6.699219 14.976563-14.976562 14.976563zm0 0" fill="#7ed8f6"/><path d="m316.304688 421.347656h-119.816407c-8.386719 0-14.976562 6.585938-14.976562 14.976563v59.90625c0 8.386719 6.589843 14.976562 14.976562 14.976562h119.816407c8.386718 0 14.976562-6.589843 14.976562-14.976562v-59.90625c0-8.390625-6.589844-14.976563-14.976562-14.976563zm0 0" fill="#ff8859"/><path d="m331.28125 436.324219v59.90625c0 8.386719-6.589844 14.976562-14.976562 14.976562h-59.90625v-89.859375h59.90625c8.386718 0 14.976562 6.585938 14.976562 14.976563zm0 0" fill="#ff3939"/><path d="m256.398438 151.765625c-24.863282 0-44.933594 20.066406-44.933594 44.929687 0 24.859376 20.070312 44.929688 44.933594 44.929688 24.859374 0 44.929687-20.070312 44.929687-44.929688 0-24.863281-20.070313-44.929687-44.929687-44.929687zm0 0" fill="#beebfa"/><path d="m301.328125 196.695312c0 24.859376-20.070313 44.929688-44.929687 44.929688v-89.859375c24.859374 0 44.929687 20.066406 44.929687 44.929687zm0 0" fill="#7ed8f6"/><path d="m136.582031 151.765625h-59.90625c-8.386719 0-14.976562 6.585937-14.976562 14.976563v59.90625c0 8.386718 6.589843 14.976562 14.976562 14.976562h59.90625c8.386719 0 14.976563-6.589844 14.976563-14.976562v-59.90625c0-8.390626-6.589844-14.976563-14.976563-14.976563zm0 0" fill="#beebfa"/><path d="m436.117188 151.765625h-59.90625c-8.386719 0-14.976563 6.585937-14.976563 14.976563v59.90625c0 8.386718 6.589844 14.976562 14.976563 14.976562h59.90625c8.386718 0 14.976562-6.589844 14.976562-14.976562v-59.90625c0-8.390626-6.589844-14.976563-14.976562-14.976563zm0 0" fill="#7ed8f6"/></svg>