<svg height="512pt" viewBox="0 0 512 512" width="512pt" xmlns="http://www.w3.org/2000/svg"><path d="m271 406v91c0 8.398438-6.597656 15-15 15s-15-6.601562-15-15v-91c0-8.402344 6.597656-15 15-15s15 6.597656 15 15zm0 0" fill="#beebfa"/><path d="m376 481h-60c-8.289062 0-15-6.710938-15-15v-70.238281c0-8.292969 6.710938-15 15-15s15 6.707031 15 15v55.238281h45c8.289062 0 15 6.710938 15 15s-6.710938 15-15 15zm0 0" fill="#7ed8f6"/><path d="m196 481h-60c-8.289062 0-15-6.710938-15-15s6.710938-15 15-15h45v-55.238281c0-8.292969 6.710938-15 15-15s15 6.707031 15 15v70.238281c0 8.289062-6.710938 15-15 15zm0 0" fill="#beebfa"/><path d="m271 15v91c0 8.398438-6.597656 15-15 15s-15-6.601562-15-15v-91c0-8.402344 6.597656-15 15-15s15 6.597656 15 15zm0 0" fill="#beebfa"/><path d="m271 15v91c0 8.398438-6.597656 15-15 15v-121c8.402344 0 15 6.597656 15 15zm0 0" fill="#7ed8f6"/><path d="m271 406v91c0 8.398438-6.597656 15-15 15v-121c8.402344 0 15 6.597656 15 15zm0 0" fill="#7ed8f6"/><path d="m316 131.238281c-8.289062 0-15-6.707031-15-15v-70.238281c0-8.289062 6.710938-15 15-15h60c8.289062 0 15 6.710938 15 15s-6.710938 15-15 15h-45v55.238281c0 8.292969-6.710938 15-15 15zm0 0" fill="#7ed8f6"/><path d="m196 131.238281c-8.289062 0-15-6.707031-15-15v-55.238281h-45c-8.289062 0-15-6.710938-15-15s6.710938-15 15-15h60c8.289062 0 15 6.710938 15 15v70.238281c0 8.292969-6.710938 15-15 15zm0 0" fill="#beebfa"/><path d="m497 271h-91c-8.289062 0-15-6.710938-15-15s6.710938-15 15-15h91c8.289062 0 15 6.710938 15 15s-6.710938 15-15 15zm0 0" fill="#7ed8f6"/><path d="m466 211h-70.238281c-8.292969 0-15-6.710938-15-15s6.707031-15 15-15h55.238281v-45c0-8.289062 6.710938-15 15-15s15 6.710938 15 15v60c0 8.289062-6.710938 15-15 15zm0 0" fill="#7ed8f6"/><path d="m466 391c-8.289062 0-15-6.710938-15-15v-45h-55.238281c-8.292969 0-15-6.710938-15-15s6.707031-15 15-15h70.238281c8.289062 0 15 6.710938 15 15v60c0 8.289062-6.710938 15-15 15zm0 0" fill="#7ed8f6"/><g fill="#beebfa"><path d="m106 271h-91c-8.289062 0-15-6.710938-15-15s6.710938-15 15-15h91c8.289062 0 15 6.710938 15 15s-6.710938 15-15 15zm0 0"/><path d="m116.238281 211h-70.238281c-8.289062 0-15-6.710938-15-15v-60c0-8.289062 6.710938-15 15-15s15 6.710938 15 15v45h55.238281c8.292969 0 15 6.710938 15 15s-6.707031 15-15 15zm0 0"/><path d="m46 391c-8.289062 0-15-6.710938-15-15v-60c0-8.289062 6.710938-15 15-15h70.238281c8.292969 0 15 6.710938 15 15s-6.707031 15-15 15h-55.238281v45c0 8.289062-6.710938 15-15 15zm0 0"/></g><path d="m256 91c-90.902344 0-165 74.097656-165 165 0 90.898438 74.097656 165 165 165s165-74.101562 165-165c0-90.902344-74.097656-165-165-165zm0 0" fill="#fdbf00"/><path d="m421 256c0 90.898438-74.097656 165-165 165v-330c90.902344 0 165 74.097656 165 165zm0 0" fill="#ff9f22"/><path d="m301 196v30c0 8.398438-6.597656 15-15 15s-15-6.601562-15-15v-30c0-8.402344-6.597656-15-15-15s-15 6.597656-15 15v30c0 8.398438-6.597656 15-15 15s-15-6.601562-15-15v-30c0-24.902344 20.097656-45 45-45s45 20.097656 45 45zm0 0" fill="#07485e"/><path d="m301 196v30c0 8.398438-6.597656 15-15 15s-15-6.601562-15-15v-30c0-8.402344-6.597656-15-15-15v-30c24.902344 0 45 20.097656 45 45zm0 0" fill="#03232e"/><path d="m316 211h-120c-8.402344 0-15 6.597656-15 15v120c0 8.398438 6.597656 15 15 15h120c8.402344 0 15-6.601562 15-15v-120c0-8.402344-6.597656-15-15-15zm0 0" fill="#0b799d"/><path d="m331 226v120c0 8.398438-6.597656 15-15 15h-60v-150h60c8.402344 0 15 6.597656 15 15zm0 0" fill="#07485e"/><path d="m271 286c0 8.398438-6.597656 15-15 15s-15-6.601562-15-15c0-8.402344 6.597656-15 15-15s15 6.597656 15 15zm0 0" fill="#fdbf00"/><path d="m271 286c0 8.398438-6.597656 15-15 15v-30c8.402344 0 15 6.597656 15 15zm0 0" fill="#ff9f22"/></svg>