<svg height="512pt" viewBox="0 -16 512 512" width="512pt" xmlns="http://www.w3.org/2000/svg"><path d="m421 165c0 53.097656-25.800781 103.5-69.300781 134.398438-13.199219 9.300781-20.699219 23.101562-20.699219 37.800781v7.800781h-150v-9.902344c0-13.5-7.199219-26.101562-19.800781-35.097656-52.796875-37.199219-78.601563-99.902344-67.796875-164.101562 12.898437-74.347657 77.335937-135.898438 162.597656-135.898438 93.984375 0 165 76.386719 165 165zm0 0" fill="#ffda44"/><path d="m421 165c0 53.097656-25.800781 103.5-69.300781 134.398438-13.199219 9.300781-20.699219 23.101562-20.699219 37.800781v7.800781h-75v-345c93.984375 0 165 76.386719 165 165zm0 0" fill="#ff9f22"/><path d="m425.394531 85.605469c-5.859375-5.859375-5.859375-15.351563 0-21.210938l30-30c5.859375-5.859375 15.351563-5.859375 21.210938 0s5.859375 15.351563 0 21.210938l-30 30c-5.859375 5.859375-15.351563 5.859375-21.210938 0zm0 0" fill="#7ed8f6"/><path d="m65.394531 85.605469-30-30c-5.859375-5.859375-5.859375-15.351563 0-21.210938s15.351563-5.859375 21.210938 0l30 30c5.859375 5.859375 5.859375 15.351563 0 21.210938s-15.351563 5.859375-21.210938 0zm0 0" fill="#beebfa"/><path d="m455.394531 295.605469-30-30c-5.859375-5.859375-5.859375-15.351563 0-21.210938s15.351563-5.859375 21.210938 0l30 30c5.859375 5.859375 5.859375 15.351563 0 21.210938s-15.351563 5.859375-21.210938 0zm0 0" fill="#7ed8f6"/><path d="m35.394531 295.605469c-5.859375-5.859375-5.859375-15.351563 0-21.210938l30-30c5.859375-5.859375 15.351563-5.859375 21.210938 0s5.859375 15.351563 0 21.210938l-30 30c-5.859375 5.859375-15.351563 5.859375-21.210938 0zm0 0" fill="#beebfa"/><path d="m46 180h-31c-8.289062 0-15-6.710938-15-15s6.710938-15 15-15h31c8.289062 0 15 6.710938 15 15s-6.710938 15-15 15zm0 0" fill="#beebfa"/><path d="m497 180h-31c-8.289062 0-15-6.710938-15-15s6.710938-15 15-15h31c8.289062 0 15 6.710938 15 15s-6.710938 15-15 15zm0 0" fill="#7ed8f6"/><path d="m331 405c0 41.398438-33.601562 75-75 75s-75-33.601562-75-75l75-15zm0 0" fill="#e1ebf0"/><path d="m331 405c0 41.398438-33.601562 75-75 75v-90zm0 0" fill="#b4d2d7"/><path d="m181 345h150v60h-150zm0 0" fill="#b4d2d7"/><path d="m256 345h75v60h-75zm0 0" fill="#87a0af"/><path d="m361 345c0 8.398438-6.597656 15-15 15h-180c-8.402344 0-15-6.601562-15-15 0-8.402344 6.597656-15 15-15h180c8.402344 0 15 6.597656 15 15zm0 0" fill="#e1ebf0"/><path d="m361 345c0 8.398438-6.597656 15-15 15h-90v-30h90c8.402344 0 15 6.597656 15 15zm0 0" fill="#b4d2d7"/><path d="m360.398438 165-104.398438 15-104.398438-15c0-2.402344 0-4.5.898438-6.601562l30-60c2.699219-5.097657 7.800781-8.398438 13.5-8.398438h120c5.699219 0 10.800781 3.300781 13.5 8.398438l30 60c.898438 2.101562.898438 4.199218.898438 6.601562zm0 0" fill="#fff5f5"/><path d="m360.398438 165-104.398438 15v-90h60c5.699219 0 10.800781 3.300781 13.5 8.398438l30 60c.898438 2.101562.898438 4.199218.898438 6.601562zm0 0" fill="#efe2dd"/><path d="m360.398438 165c0 3.898438-.898438 7.800781-3.898438 10.5l-90 90c-2.699219 3-6.601562 4.5-10.5 4.5s-7.800781-1.5-10.5-4.5l-90-90c-3-2.699219-3.898438-6.601562-3.898438-10.5zm0 0" fill="#efe2dd"/><path d="m360.398438 165c0 3.898438-.898438 7.800781-3.898438 10.5l-90 90c-2.699219 3-6.601562 4.5-10.5 4.5v-105zm0 0" fill="#cdbfba"/></svg>