<svg height="512pt" viewBox="-61 0 512 512" width="512pt" xmlns="http://www.w3.org/2000/svg"><path d="m285 60h-16.5c-6.902344-34.199219-37.199219-60-73.5-60s-66.597656 25.800781-73.5 60h-16.5c-41.398438 0-75 33.601562-75 75s33.601562 75 75 75h180c41.398438 0 75-33.601562 75-75s-33.601562-75-75-75zm0 0" fill="#fff5f5"/><path d="m360 135c0 41.398438-33.601562 75-75 75h-90v-210c36.300781 0 66.597656 25.800781 73.5 60h16.5c41.398438 0 75 33.601562 75 75zm0 0" fill="#efe2dd"/><path d="m360 257v180c0 8.398438-6.597656 15-15 15h-300c-8.402344 0-15-6.601562-15-15v-180c0-8.402344 6.597656-15 15-15h300c8.402344 0 15 6.597656 15 15zm0 0" fill="#07485e"/><path d="m360 257v180c0 8.398438-6.597656 15-15 15h-150v-210h150c8.402344 0 15 6.597656 15 15zm0 0" fill="#03232e"/><path d="m235.5 336.5c6 5.699219 6 15.300781 0 21l-30 30c-1.917969 2.398438-6.019531 4.5-10.5 4.5s-8.582031-2.101562-10.5-4.5l-30-30c-6-5.699219-6-15.300781 0-21 5.699219-6 15.300781-6 21 0l4.5 4.199219v-199.398438l-4.5 4.199219c-5.699219 6-15.296875 6-21 0-6-5.699219-6-15.300781 0-21l30-30c2.4375-3.046875 7.488281-4.5 10.5-4.5s8.0625 1.453125 10.5 4.5l30 30c6 5.699219 6 15.300781 0 21-5.398438 6-15.601562 6-21 0l-4.5-4.199219v199.398438l4.5-4.199219c5.699219-6 15.300781-6 21 0zm0 0" fill="#6fe8d5"/><path d="m235.5 336.5c6 5.699219 6 15.300781 0 21l-30 30c-1.917969 2.398438-6.019531 4.5-10.5 4.5v-302c3.011719 0 8.0625 1.453125 10.5 4.5l30 30c6 5.699219 6 15.300781 0 21-5.398438 6-15.601562 6-21 0l-4.5-4.199219v199.398438l4.5-4.199219c5.699219-6 15.300781-6 21 0zm0 0" fill="#15ccc2"/><path d="m375 422h-360c-8.402344 0-15 6.597656-15 15 0 41.398438 33.601562 75 75 75h240c41.398438 0 75-33.601562 75-75 0-8.402344-6.597656-15-15-15zm0 0" fill="#e1ebf0"/><path d="m390 437c0 41.398438-33.601562 75-75 75h-120v-90h180c8.402344 0 15 6.597656 15 15zm0 0" fill="#b4d2d7"/></svg>