<svg height="512pt" viewBox="-31 0 512 512" width="512pt" xmlns="http://www.w3.org/2000/svg"><path d="m390 75v242c0 8.398438-6.597656 15-15 15s-15-6.601562-15-15v-242c0-13.199219-5.699219-25.800781-15.902344-34.199219-10.199218-8.699219-23.398437-12.300781-36.898437-10.203125-21 3.601563-37.199219 24.003906-37.199219 47.703125v343.699219c0 49.5-40.5 90-90 90-31.199219 0-58.800781-16.199219-75-40.199219-9.300781-14.402343-15-31.5-15-49.800781v-45c0-8.402344 6.597656-15 15-15s15 6.597656 15 15v45c0 33 27 60 60 60s60-27 60-60v-343.699219c0-38.402343 27-71.402343 62.402344-77.402343 22.199218-3.300782 44.398437 2.703124 61.199218 17.101562 16.796876 14.101562 26.398438 35.097656 26.398438 57zm0 0" fill="#0b799d"/><path d="m390 75v242c0 8.398438-6.597656 15-15 15s-15-6.601562-15-15v-242c0-13.199219-5.699219-25.800781-15.902344-34.199219-10.199218-8.699219-23.398437-12.300781-36.898437-10.203125-21 3.601563-37.199219 24.003906-37.199219 47.703125v343.699219c0 49.5-40.5 90-90 90-31.199219 0-58.800781-16.199219-75-40.199219v-109.800781c8.402344 0 15 6.597656 15 15v45c0 33 27 60 60 60s60-27 60-60v-343.699219c0-38.402343 27-71.402343 62.402344-77.402343 22.199218-3.300782 44.398437 2.703124 61.199218 17.101562 4.5 3.597656 8.398438 7.800781 11.398438 12.300781 9.902344 12.898438 15 28.5 15 44.699219zm0 0" fill="#07485e"/><path d="m390 75v242c0 8.398438-6.597656 15-15 15v-301.699219c9.902344 12.898438 15 28.5 15 44.699219zm0 0" fill="#03232e"/><path d="m150 312v34.402344c0 24.097656-18.667969 44.472656-42.734375 45.644531-25.9375 1.261719-47.265625-19.296875-47.265625-44.945313v-35.101562c0-8.285156 6.714844-15 15-15h60c8.285156 0 15 6.714844 15 15zm0 0" fill="#ff3939"/><path d="m135 297c8.285156 0 15 6.714844 15 15v35.101562c0 24.898438-20.097656 45-45 45v-95.101562zm0 0" fill="#cd0000"/><path d="m180 15v92c0 8.398438-6.597656 15-15 15h-120c-8.402344 0-15-6.601562-15-15v-92c0-8.402344 6.597656-15 15-15h120c8.402344 0 15 6.597656 15 15zm0 0" fill="#e1ebf0"/><path d="m180 15v92c0 8.398438-6.597656 15-15 15h-60v-122h60c8.402344 0 15 6.597656 15 15zm0 0" fill="#b4d2d7"/><path d="m195 92h-180c-8.402344 0-15 6.597656-15 15v120c0 57.898438 47.101562 105 105 105s105-47.101562 105-105v-120c0-8.402344-6.597656-15-15-15zm0 0" fill="#ff8859"/><path d="m210 107v120c0 57.898438-47.101562 105-105 105v-240h90c8.402344 0 15 6.597656 15 15zm0 0" fill="#ff3939"/><path d="m420 437v60c0 8.398438-6.597656 15-15 15h-60c-8.402344 0-15-6.601562-15-15v-60c0-8.402344 6.597656-15 15-15h60c8.402344 0 15 6.597656 15 15zm0 0" fill="#e1ebf0"/><path d="m420 437v60c0 8.398438-6.597656 15-15 15h-30v-90h30c8.402344 0 15 6.597656 15 15zm0 0" fill="#b4d2d7"/><path d="m375 302c-41.398438 0-75 33.601562-75 75v60c0 8.398438 6.597656 15 15 15h120c8.402344 0 15-6.601562 15-15v-60c0-41.398438-33.601562-75-75-75zm0 0" fill="#ff8859"/><g fill="#ff3939"><path d="m450 377v60c0 8.398438-6.597656 15-15 15h-60v-150c41.398438 0 75 33.601562 75 75zm0 0"/><path d="m150 167c0 8.398438-6.597656 15-15 15h-60c-8.402344 0-15-6.601562-15-15 0-8.402344 6.597656-15 15-15h60c8.402344 0 15 6.597656 15 15zm0 0"/><path d="m150 227c0 8.398438-6.597656 15-15 15h-60c-8.402344 0-15-6.601562-15-15 0-8.402344 6.597656-15 15-15h60c8.402344 0 15 6.597656 15 15zm0 0"/></g><path d="m150 227c0 8.398438-6.597656 15-15 15h-30v-30h30c8.402344 0 15 6.597656 15 15zm0 0" fill="#cd0000"/><path d="m135 182h-30v-30h30c8.402344 0 15 6.597656 15 15 0 8.398438-6.597656 15-15 15zm0 0" fill="#cd0000"/></svg>