<svg height="512pt" viewBox="0 -46 512 512" width="512pt" xmlns="http://www.w3.org/2000/svg"><path d="m76 420c-8.289062 0-15-6.710938-15-15v-30c0-8.289062 6.710938-15 15-15s15 6.710938 15 15v30c0 8.289062-6.710938 15-15 15zm0 0" fill="#0b799d"/><path d="m466 420c-8.289062 0-15-6.710938-15-15v-30c0-8.289062 6.710938-15 15-15s15 6.710938 15 15v30c0 8.289062-6.710938 15-15 15zm0 0" fill="#07485e"/><path d="m76 270c-8.289062 0-15-6.710938-15-15v-210c0-8.289062 6.710938-15 15-15s15 6.710938 15 15v210c0 8.289062-6.710938 15-15 15zm0 0" fill="#0b799d"/><path d="m436 270c-8.289062 0-15-6.710938-15-15v-210c0-8.289062 6.710938-15 15-15s15 6.710938 15 15v210c0 8.289062-6.710938 15-15 15zm0 0" fill="#07485e"/><path d="m497 240h-482c-8.402344 0-15 6.597656-15 15v120c0 8.398438 6.597656 15 15 15h482c8.402344 0 15-6.601562 15-15v-120c0-8.402344-6.597656-15-15-15zm0 0" fill="#07485e"/><path d="m512 255v120c0 8.398438-6.597656 15-15 15h-241v-150h241c8.402344 0 15 6.597656 15 15zm0 0" fill="#03232e"/><g fill="#6fe8d5"><path d="m91 315c0 8.285156-6.714844 15-15 15s-15-6.714844-15-15 6.714844-15 15-15 15 6.714844 15 15zm0 0"/><path d="m151 315c0 8.285156-6.714844 15-15 15s-15-6.714844-15-15 6.714844-15 15-15 15 6.714844 15 15zm0 0"/><path d="m211 315c0 8.285156-6.714844 15-15 15s-15-6.714844-15-15 6.714844-15 15-15 15 6.714844 15 15zm0 0"/></g><path d="m346 330h-30c-8.289062 0-15-6.710938-15-15s6.710938-15 15-15h30c8.289062 0 15 6.710938 15 15s-6.710938 15-15 15zm0 0" fill="#15ccc2"/><path d="m436 330h-30c-8.289062 0-15-6.710938-15-15s6.710938-15 15-15h30c8.289062 0 15 6.710938 15 15s-6.710938 15-15 15zm0 0" fill="#15ccc2"/><path d="m372.699219 69.601562c-5.796875 5.789063-15.117188 6.175782-21.300781 0-25.496094-25.503906-59.398438-39.601562-95.398438-39.601562s-69.902344 14.097656-95.398438 39.601562c-6 5.996094-15.300781 5.996094-21.300781 0-5.703125-6-5.703125-15.300781 0-21.300781 31.199219-31.199219 72.601563-48.300781 116.699219-48.300781s85.5 17.101562 116.699219 48.300781c5.703125 6 5.703125 15.300781 0 21.300781zm0 0" fill="#beebfa"/><path d="m330.097656 111.898438c-5.402344 6.003906-15.597656 6-20.996094 0-14.101562-14.097657-33.601562-21.300782-53.101562-21.300782s-39 7.203125-53.101562 21.300782c-5.699219 6-15.300782 6-21 0-6-5.699219-6-15.296876 0-21 19.800781-20.097657 47.097656-30 74.101562-30 27 0 54.300781 9.902343 74.097656 30 6 5.699218 6 15.300781 0 21zm0 0" fill="#beebfa"/><path d="m256 120c-24.902344 0-45 20.097656-45 45 0 24.898438 20.097656 45 45 45s45-20.101562 45-45c0-24.902344-20.097656-45-45-45zm0 0" fill="#beebfa"/><path d="m301 165c0 24.898438-20.097656 45-45 45v-90c24.902344 0 45 20.097656 45 45zm0 0" fill="#7ed8f6"/><path d="m330.097656 90.898438c6 5.699218 6 15.300781 0 21-5.402344 6.003906-15.597656 6-20.996094 0-14.101562-14.097657-33.601562-21.300782-53.101562-21.300782v-29.699218c27 0 54.300781 9.902343 74.097656 30zm0 0" fill="#7ed8f6"/><path d="m372.699219 69.601562c-5.796875 5.789063-15.117188 6.175782-21.300781 0-25.496094-25.503906-59.398438-39.601562-95.398438-39.601562v-30c44.097656 0 85.5 17.101562 116.699219 48.300781 5.703125 6 5.703125 15.300781 0 21.300781zm0 0" fill="#7ed8f6"/></svg>