<svg height="512pt" viewBox="0 0 512 512" width="512pt" xmlns="http://www.w3.org/2000/svg"><path d="m149.929688 164.929688c-3.835938 0-7.675782-1.464844-10.605469-4.394532l-83.71875-83.71875c-5.859375-5.859375-5.859375-15.351562 0-21.210937s15.351562-5.859375 21.210937 0l83.71875 83.71875c5.859375 5.859375 5.859375 15.351562 0 21.210937-2.929687 2.929688-6.765625 4.394532-10.605468 4.394532zm0 0" fill="#beebfa"/><path d="m351.464844 160.535156c-5.859375-5.859375-5.859375-15.351562 0-21.210937l83.71875-83.71875c5.859375-5.859375 15.351562-5.859375 21.210937 0s5.859375 15.351562 0 21.210937l-83.71875 83.71875c-5.859375 5.859375-15.351562 5.859375-21.210937 0zm0 0" fill="#7ed8f6"/><path d="m445.789062 460.789062c-3.839843 0-7.675781-1.464843-10.605468-4.394531l-83.71875-83.71875c-5.859375-5.859375-5.859375-15.355469 0-21.210937 5.859375-5.859375 15.351562-5.859375 21.210937 0l83.71875 83.71875c5.859375 5.859375 5.859375 15.351562 0 21.210937-2.929687 2.929688-6.765625 4.394531-10.605469 4.394531zm0 0" fill="#7ed8f6"/><g fill="#beebfa"><path d="m66.210938 460.789062c-3.839844 0-7.675782-1.464843-10.605469-4.394531-5.859375-5.859375-5.859375-15.351562 9-20.976562l83.71875-83.722657c-3.140625-6.089843 6.355469-6.089843 12.210937-.230468 5.859375 5.855468 5.859375 15.351562 0 21.210937l-83.71875 83.71875c-2.929687 2.929688-6.765625 4.394531-10.605468 4.394531zm0 0"/><path d="m45 90c-24.8125 0-45-20.1875-45-45s20.1875-45 45-45 45 20.1875 45 45-20.1875 45-45 45zm0 0"/><path d="m45 512c-24.8125 0-45-20.1875-45-45s20.1875-45 45-45 45 20.1875 45 45-20.1875 45-45 45zm0 0"/></g><path d="m467 90c-24.8125 0-45-20.1875-45-45s20.1875-45 45-45 45 20.1875 45 45-20.1875 45-45 45zm0 0" fill="#7ed8f6"/><path d="m467 512c-24.8125 0-45-20.1875-45-45s20.1875-45 45-45 45 20.1875 45 45-20.1875 45-45 45zm0 0" fill="#7ed8f6"/><path d="m420.097656 241c-7.5-84-78.296875-150-164.097656-150s-156.597656 66-164.097656 150l9.898437 15-9.898437 15c7.5 84 78.296875 150 164.097656 150s156.597656-66 164.097656-150l-14.097656-15zm0 0" fill="#beebfa"/><path d="m406 256 14.097656 15c-7.5 84-78.296875 150-164.097656 150v-330c85.800781 0 156.597656 66 164.097656 150zm0 0" fill="#7ed8f6"/><path d="m391 256c0 74.398438-60.601562 135-135 135s-135-60.601562-135-135c0-74.402344 60.601562-135 135-135s135 60.597656 135 135zm0 0" fill="#5696e5"/><path d="m391 256c0 74.398438-60.601562 135-135 135v-270c74.398438 0 135 60.597656 135 135zm0 0" fill="#1862bf"/><path d="m420.097656 241h-89.398437c-3-75.300781-29.097657-150-74.699219-150s-71.699219 74.699219-74.699219 150h-89.398437c-.601563 4.800781-.902344 9.898438-.902344 15 0 5.097656.300781 10.199219.902344 15h89.398437c3 75.300781 29.097657 150 74.699219 150s71.699219-74.699219 74.699219-150h89.398437c.601563-4.800781.902344-9.902344.902344-15 0-5.101562-.300781-10.199219-.902344-15zm-164.097656 150c-17.101562 0-41.699219-46.199219-44.699219-120h89.398438c-3 73.800781-27.597657 120-44.699219 120zm-44.699219-150c3-73.800781 27.597657-120 44.699219-120s41.699219 46.199219 44.699219 120zm0 0" fill="#beebfa"/><path d="m421 256c0 5.097656-.300781 10.199219-.902344 15h-89.398437c-3 75.300781-29.097657 150-74.699219 150v-30c17.101562 0 41.699219-46.199219 44.699219-120h-44.699219v-30h44.699219c-3-73.800781-27.597657-120-44.699219-120v-30c45.601562 0 71.699219 74.699219 74.699219 150h89.398437c.601563 4.800781.902344 9.898438.902344 15zm0 0" fill="#7ed8f6"/></svg>