<svg height="512pt" viewBox="0 -21 512.00011 512" width="512pt" xmlns="http://www.w3.org/2000/svg"><path d="m239.179688 315.925781-113.8125-55.890625c-5.855469-5.859375-15.355469-5.859375-21.214844 0l-99.757813 99.757813c-4.472656 4.472656-5.660156 11.265625-2.96875 16.988281 2.691407 5.722656 8.679688 9.136719 14.976563 8.554688l75.613281-7.097657-7.097656 75.613281c-.589844 6.292969 2.832031 12.285157 8.554687 14.976563 5.753906 2.703125 12.542969 1.476563 16.988282-2.96875l128.71875-128.722656c5.859374-5.855469 5.859374-15.351563 0-21.210938zm0 0" fill="#ff8859"/><path d="m507.605469 359.792969-99.757813-99.757813c-5.855468-5.859375-15.355468-5.859375-21.214844 0l-113.8125 55.890625c-5.859374 5.859375-5.859374 15.355469 0 21.210938l128.71875 128.722656c4.464844 4.460937 11.257813 5.664063 16.988282 2.96875 5.722656-2.691406 9.144531-8.683594 8.554687-14.976563l-7.097656-75.613281 75.613281 7.097657c6.300782.582031 12.285156-2.832032 14.976563-8.554688 2.691406-5.722656 1.503906-12.515625-2.96875-16.988281zm0 0" fill="#ff3939"/><path d="m436.300781 174.300781-29.699219-29.699219 10.796876-40.800781c2.101562-8.101562-2.699219-16.199219-10.496094-18.300781l-40.804688-10.800781-10.796875-40.800781c-2.101562-8.097657-10.203125-12.597657-18.300781-10.496094l-40.800781 10.796875-29.703125-29.699219c-2.699219-2.996094-6.597656-4.5-10.496094-4.5-3.902344 0-7.800781 1.5-10.5 4.5l-29.703125 29.699219-40.800781-10.796875c-7.796875-2.101563-16.199219 2.398437-18.296875 10.496094l-10.800781 40.800781-40.796876 10.800781c-7.800781 2.101562-12.601562 10.199219-10.5 18.300781l10.800782 40.800781-29.703125 29.699219c-6 5.699219-6 15.300781 0 21l29.703125 29.699219-10.800782 40.800781c-2.101562 8.101563 2.699219 16.199219 10.5 18.300781l40.800782 10.800782 10.796875 40.800781c2.101562 8.097656 10.5 12.597656 18.300781 10.5l40.800781-10.800781 29.703125 29.699218c2.699219 3 6.597656 4.5 10.496094 4.5 3.902344 0 7.800781-1.5 10.5-4.5l29.703125-29.699218 40.800781 10.800781c8.097656 2.097656 16.199219-2.402344 18.296875-10.5l10.800781-40.800781 40.800782-10.800782c7.800781-2.101562 12.601562-10.199218 10.5-18.300781l-10.800782-40.800781 29.699219-29.699219c6-5.699219 6-15.300781 0-21zm0 0" fill="#ffda44"/><path d="m436.300781 195.300781-29.699219 29.699219 10.796876 40.800781c2.101562 8.101563-2.699219 16.199219-10.496094 18.300781l-40.800782 10.800782-10.800781 40.800781c-2.101562 8.097656-10.203125 12.597656-18.300781 10.5l-40.800781-10.800781-29.699219 29.699218c-2.699219 3-6.597656 4.5-10.5 4.5v-369.601562c3.902344 0 7.800781 1.503906 10.5 4.503906l29.703125 29.699219 40.796875-10.800781c8.101562-2.101563 16.199219 2.402344 18.300781 10.5l10.800781 40.796875 40.800782 10.800781c7.796875 2.101562 12.597656 10.199219 10.5 18.300781l-10.800782 40.800781 29.699219 29.699219c6 5.699219 6 15.300781 0 21zm0 0" fill="#ff9f22"/><path d="m360.398438 184.800781-104.398438 15-104.398438-15c0-2.402343 0-4.5.898438-6.601562l30-60c2.703125-5.097657 7.800781-8.398438 13.5-8.398438h120c5.699219 0 10.800781 3.300781 13.5 8.398438l30 60c.898438 2.101562.898438 4.203125.898438 6.601562zm0 0" fill="#fff5f5"/><path d="m360.398438 184.800781-104.398438 15v-90h60c5.699219 0 10.800781 3.300781 13.5 8.398438l30 60c.898438 2.101562.898438 4.203125.898438 6.601562zm0 0" fill="#efe2dd"/><path d="m360.398438 184.800781c0 3.898438-.898438 7.800781-3.898438 10.5l-90 90c-2.699219 3-6.597656 4.5-10.5 4.5-3.898438 0-7.800781-1.5-10.5-4.5l-90-90c-3-2.699219-3.898438-6.601562-3.898438-10.5zm0 0" fill="#efe2dd"/><path d="m360.398438 184.800781c0 3.898438-.898438 7.800781-3.898438 10.5l-90 90c-2.699219 3-6.597656 4.5-10.5 4.5v-105zm0 0" fill="#cdbfba"/></svg>