<svg height="512pt" viewBox="-31 0 512 512" width="512pt" xmlns="http://www.w3.org/2000/svg"><path d="m225 392c-24.898438 0-45 20.097656-45 45 0 7.800781 2.101562 15.597656 6 22.5l26.101562 45c2.699219 4.5 7.5 7.5 12.898438 7.5 5.402344 0 10.203125-3 12.902344-7.5l26.097656-45c3.902344-6.902344 6-14.699219 6-22.5 0-24.902344-20.097656-45-45-45zm0 0" fill="#ffda44"/><path d="m270 437c0 7.800781-2.097656 15.597656-6 22.5l-26.097656 45c-2.699219 4.5-7.5 7.5-12.902344 7.5v-120c24.902344 0 45 20.097656 45 45zm0 0" fill="#ff9f22"/><path d="m315 0h-180c-8.398438 0-15 6.597656-15 15v392c0 8.398438 6.601562 15 15 15h180c8.402344 0 15-6.601562 15-15v-392c0-8.402344-6.597656-15-15-15zm0 0" fill="#07485e"/><path d="m330 15v392c0 8.398438-6.597656 15-15 15h-90v-422h90c8.402344 0 15 6.597656 15 15zm0 0" fill="#03232e"/><path d="m225 47c-24.898438 0-45 20.097656-45 45 0 24.898438 20.101562 45 45 45 24.902344 0 45-20.101562 45-45 0-24.902344-20.097656-45-45-45zm0 0" fill="#6fe8d5"/><path d="m225 167c-24.898438 0-45 20.097656-45 45 0 24.898438 20.101562 45 45 45 24.902344 0 45-20.101562 45-45 0-24.902344-20.097656-45-45-45zm0 0" fill="#ff8859"/><path d="m225 287c-24.898438 0-45 20.097656-45 45 0 24.898438 20.101562 45 45 45 24.902344 0 45-20.101562 45-45 0-24.902344-20.097656-45-45-45zm0 0" fill="#ffda44"/><g fill="#beebfa"><path d="m90 377c0 8.398438-6.597656 15-15 15h-60c-8.398438 0-15-6.601562-15-15 0-8.402344 6.601562-15 15-15h60c8.402344 0 15 6.597656 15 15zm0 0"/><path d="m90 437c0 8.398438-6.597656 15-15 15h-60c-8.398438 0-15-6.601562-15-15 0-8.402344 6.601562-15 15-15h60c8.402344 0 15 6.597656 15 15zm0 0"/><path d="m90 497c0 8.398438-6.597656 15-15 15h-60c-8.398438 0-15-6.601562-15-15 0-8.402344 6.601562-15 15-15h60c8.402344 0 15 6.597656 15 15zm0 0"/><path d="m85.5 267.5c-5.394531 6-15.601562 6-21 0l-4.5-4.199219v53.699219c0 8.398438-6.597656 15-15 15s-15-6.601562-15-15v-53.699219l-4.5 4.199219c-5.699219 6-15.300781 6-21 0-6-5.699219-6-15.300781 0-21l30-30c1.199219-1.5 3-2.699219 4.800781-3.300781 1.796875-.601563 3.898438-1.199219 5.699219-1.199219s3.902344.597656 5.699219 1.199219c1.800781.601562 3.601562 1.800781 4.800781 3.300781l30 30c6 5.699219 6 15.300781 0 21zm0 0"/><path d="m450 197c0 8.398438-6.597656 15-15 15h-60c-8.398438 0-15-6.601562-15-15 0-8.402344 6.601562-15 15-15h60c8.402344 0 15 6.597656 15 15zm0 0"/><path d="m450 257c0 8.398438-6.597656 15-15 15h-60c-8.398438 0-15-6.601562-15-15 0-8.402344 6.601562-15 15-15h60c8.402344 0 15 6.597656 15 15zm0 0"/><path d="m450 317c0 8.398438-6.597656 15-15 15h-60c-8.398438 0-15-6.601562-15-15 0-8.402344 6.601562-15 15-15h60c8.402344 0 15 6.597656 15 15zm0 0"/><path d="m450 497c0 8.398438-6.597656 15-15 15h-60c-8.398438 0-15-6.601562-15-15 0-8.402344 6.601562-15 15-15h60c8.402344 0 15 6.597656 15 15zm0 0"/><path d="m450 437c0 8.398438-6.597656 15-15 15h-60c-8.398438 0-15-6.601562-15-15 0-8.402344 6.601562-15 15-15h60c8.402344 0 15 6.597656 15 15zm0 0"/><path d="m445.5 87.5c-5.394531 6-15.601562 6-21 0l-4.5-4.199219v53.699219c0 8.398438-6.597656 15-15 15s-15-6.601562-15-15v-53.699219l-4.5 4.199219c-5.699219 6-15.300781 6-21 0-6-5.699219-6-15.300781 0-21l30-30c1.199219-1.5 3-2.699219 4.800781-3.300781 1.796875-.601563 3.898438-1.199219 5.699219-1.199219s3.902344.597656 5.699219 1.199219c1.800781.601562 3.601562 1.800781 4.800781 3.300781l30 30c6 5.699219 6 15.300781 0 21zm0 0"/></g><path d="m270 332c0 24.898438-20.097656 45-45 45v-90c24.902344 0 45 20.097656 45 45zm0 0" fill="#ff9f22"/><path d="m270 212c0 24.898438-20.097656 45-45 45v-90c24.902344 0 45 20.097656 45 45zm0 0" fill="#ff3939"/><path d="m225 137v-90c24.902344 0 45 20.097656 45 45 0 24.898438-20.097656 45-45 45zm0 0" fill="#15ccc2"/><path d="m450 497c0 8.398438-6.597656 15-15 15h-30v-30h30c8.402344 0 15 6.597656 15 15zm0 0" fill="#7ed8f6"/><path d="m450 437c0 8.398438-6.597656 15-15 15h-30v-30h30c8.402344 0 15 6.597656 15 15zm0 0" fill="#7ed8f6"/><path d="m450 317c0 8.398438-6.597656 15-15 15h-30v-30h30c8.402344 0 15 6.597656 15 15zm0 0" fill="#7ed8f6"/><path d="m450 257c0 8.398438-6.597656 15-15 15h-30v-30h30c8.402344 0 15 6.597656 15 15zm0 0" fill="#7ed8f6"/><path d="m450 197c0 8.398438-6.597656 15-15 15h-30v-30h30c8.402344 0 15 6.597656 15 15zm0 0" fill="#7ed8f6"/><path d="m405 152v-120c1.800781 0 3.902344.597656 5.699219 1.199219 1.800781.601562 3.601562 1.800781 4.800781 3.300781l30 30c6 5.699219 6 15.300781 0 21-5.394531 6-15.601562 6-21 0l-4.5-4.199219v53.699219c0 8.398438-6.597656 15-15 15zm0 0" fill="#7ed8f6"/><path d="m90 497c0 8.398438-6.597656 15-15 15h-30v-30h30c8.402344 0 15 6.597656 15 15zm0 0" fill="#7ed8f6"/><path d="m90 437c0 8.398438-6.597656 15-15 15h-30v-30h30c8.402344 0 15 6.597656 15 15zm0 0" fill="#7ed8f6"/><path d="m90 377c0 8.398438-6.597656 15-15 15h-30v-30h30c8.402344 0 15 6.597656 15 15zm0 0" fill="#7ed8f6"/><path d="m45 332v-120c1.800781 0 3.902344.597656 5.699219 1.199219 1.800781.601562 3.601562 1.800781 4.800781 3.300781l30 30c6 5.699219 6 15.300781 0 21-5.394531 6-15.601562 6-21 0l-4.5-4.199219v53.699219c0 8.398438-6.597656 15-15 15zm0 0" fill="#7ed8f6"/></svg>