<svg height="512pt" viewBox="0 0 512.00066 512" width="512pt" xmlns="http://www.w3.org/2000/svg"><path d="m194.878906 0h-179.886718c-8.28125 0-14.992188 6.710938-14.992188 14.992188v239.566406c5.996094.597656 97.738281 8.679687 104.636719 9.28125h.300781l77.050781-9.28125 14.089844-51.792969 13.792969-51.792969v-135.980468c0-8.28125-6.710938-14.992188-14.992188-14.992188zm0 0" fill="#0b799d"/><path d="m194.878906 0h-89.941406v263.839844h.296875l76.832031-9.28125 27.804688-103.585938v-135.980468c0-8.28125-6.710938-14.992188-14.992188-14.992188zm0 0" fill="#07485e"/><path d="m181.988281 254.84375-15.890625 59.964844c0 8.390625-6.894531 14.988281-14.992187 14.988281h-136.113281c-8.28125 0-14.992188-6.710937-14.992188-14.988281v-59.964844zm0 0" fill="#e1ebf0"/><path d="m104.9375 254.84375h77.351562l-15.890624 59.964844c0 8.390625-6.894532 14.988281-14.992188 14.988281h-46.46875zm0 0" fill="#b4d2d7"/><path d="m511.6875 256.84375c.410156.035156.425781.035156 0 0zm0 0" fill="#6fe8d5"/><path d="m511.6875 196.878906c0-8.394531-6.597656-14.988281-14.992188-14.988281h-136.117187c-8.09375 0-14.988281 6.59375-14.988281 14.988281l-43.773438 163.699219v76.15625l104.933594 14.988281 104.9375-14.988281zm0 0" fill="#0b799d"/><path d="m255.84375 120.925781c-74.355469 0-134.917969 60.5625-134.917969 134.917969 0 74.351562 60.5625 134.917969 134.917969 134.917969 74.351562 0 134.917969-60.566407 134.917969-134.917969 0-74.355469-60.566407-134.917969-134.917969-134.917969zm0 0" fill="#fdbf00"/><path d="m390.761719 255.84375c0 74.351562-60.566407 134.917969-134.917969 134.917969v-269.835938c74.351562 0 134.917969 60.5625 134.917969 134.917969zm0 0" fill="#ff9f22"/><path d="m299.316406 262.4375-29.980468 59.964844c-2.699219 5.394531-8.097657 8.394531-13.492188 8.394531-2.398438 0-4.5-.601563-6.59375-1.5-7.496094-3.894531-10.496094-12.894531-6.898438-20.085937l19.1875-38.375h-35.675781c-5.097656 0-9.898437-2.699219-12.894531-7.199219-2.699219-4.195313-2.699219-9.894531-.601562-14.390625l29.984374-59.960938c2.699219-5.398437 8.09375-8.394531 13.492188-8.394531 2.398438 0 4.496094.597656 6.59375 1.496094 7.496094 3.898437 10.492188 12.894531 6.894531 20.089843l-19.1875 38.375h35.679688c5.097656 0 9.894531 2.699219 12.894531 7.195313 2.699219 4.199219 2.699219 9.894531.597656 14.390625zm0 0" fill="#0b799d"/><path d="m269.335938 202.476562-13.492188 26.984376v-48.570313c2.398438 0 4.496094.597656 6.59375 1.496094 7.496094 3.898437 10.496094 12.894531 6.898438 20.089843zm0 0" fill="#07485e"/><path d="m299.316406 262.4375-29.980468 59.964844c-2.699219 5.394531-8.097657 8.394531-13.492188 8.394531v-48.570313l5.695312-11.390624h-5.695312v-29.984376h29.980469c5.097656 0 9.894531 2.699219 12.894531 7.195313 2.699219 4.199219 2.699219 9.894531.597656 14.390625zm0 0" fill="#07485e"/><path d="m511.6875 436.734375v59.960937c0 8.394532-6.597656 14.992188-14.992188 14.992188h-179.890624c-8.394532 0-14.988282-6.597656-14.988282-14.992188v-59.960937zm0 0" fill="#e1ebf0"/><path d="m511.6875 256.84375c.410156.035156.425781.035156 0 0zm0 0" fill="#15ccc2"/><path d="m511.6875 256.84375v-59.964844c0-8.394531-6.597656-14.988281-14.992188-14.988281h-89.945312v269.832031l104.9375-14.988281zm0 0" fill="#07485e"/><path d="m406.75 436.734375h104.9375v59.960937c0 8.394532-6.597656 14.992188-14.992188 14.992188h-89.945312zm0 0" fill="#b4d2d7"/></svg>