<svg xmlns="http://www.w3.org/2000/svg" xmlns:xlink="http://www.w3.org/1999/xlink" viewBox="0 0 1395.59 1333.36"><defs><style>.cls-1{isolation:isolate;}.cls-2{fill:url(#linear-gradient);}.cls-3{fill:#6b99d1;}.cls-3,.cls-46{opacity:0.15;mix-blend-mode:multiply;}.cls-4{fill:#dceeff;}.cls-5{fill:#a5cbfa;}.cls-6{fill:#c8e2ff;}.cls-45,.cls-7{fill:#fff;}.cls-46,.cls-8{fill:#344593;}.cls-9{fill:#1e3779;}.cls-10{fill:#031f60;}.cls-11{fill:#abffef;}.cls-12,.cls-20,.cls-22{fill:#6cffe6;}.cls-13{fill:#47eace;}.cls-14,.cls-47,.cls-59,.cls-64{opacity:0.3;}.cls-14{fill:url(#Degradado_sin_nombre_4);}.cls-15,.cls-19,.cls-22,.cls-30,.cls-48,.cls-60,.cls-69{opacity:0.5;}.cls-15{fill:url(#Degradado_sin_nombre_4-2);}.cls-16{fill:url(#Degradado_sin_nombre_33);}.cls-17{fill:url(#Degradado_sin_nombre_20);}.cls-18,.cls-45{opacity:0.4;}.cls-18{fill:url(#Degradado_sin_nombre_50);}.cls-19,.cls-58{fill:#57f7e0;}.cls-20,.cls-21{opacity:0.7;}.cls-23{fill:url(#Degradado_sin_nombre_20-2);}.cls-24{fill:url(#Degradado_sin_nombre_20-3);}.cls-25,.cls-32,.cls-33,.cls-65,.cls-75,.cls-76{fill:none;stroke-miterlimit:10;}.cls-25,.cls-76{stroke:#344593;}.cls-26{fill:url(#Degradado_sin_nombre_3);}.cls-27{fill:url(#Degradado_sin_nombre_3-2);}.cls-28{fill:url(#Degradado_sin_nombre_3-3);}.cls-29{fill:url(#Degradado_sin_nombre_3-4);}.cls-30{fill:url(#Degradado_sin_nombre_50-2);}.cls-31{fill:#e9fffb;opacity:0.2;}.cls-32{stroke:#eef7ff;}.cls-33{stroke:#fff;}.cls-33,.cls-76{stroke-linecap:round;}.cls-34{fill:#41e5c9;}.cls-35{fill:url(#Degradado_sin_nombre_54);}.cls-36{fill:url(#Degradado_sin_nombre_54-2);}.cls-37{fill:url(#Degradado_sin_nombre_54-3);}.cls-38{fill:url(#Degradado_sin_nombre_54-4);}.cls-39{fill:url(#Degradado_sin_nombre_54-5);}.cls-40{fill:url(#Degradado_sin_nombre_54-6);}.cls-41{fill:url(#Degradado_sin_nombre_54-7);}.cls-42{fill:url(#Degradado_sin_nombre_54-8);}.cls-43{fill:#b5deff;}.cls-44{fill:#3a52aa;}.cls-45{mix-blend-mode:soft-light;}.cls-47{fill:url(#Degradado_sin_nombre_4-3);}.cls-48{fill:url(#Degradado_sin_nombre_4-4);}.cls-49{fill:#ffa8a7;}.cls-50{fill:#e4f2f2;}.cls-51{fill:#2d2979;}.cls-52{fill:#7fa8e6;}.cls-53{fill:#597bc6;}.cls-54{fill:#f28f8f;}.cls-55{fill:#f5fbfb;}.cls-56{fill:#c8dbda;}.cls-57{fill:#543354;}.cls-59{fill:url(#Degradado_sin_nombre_15);}.cls-60{fill:url(#Degradado_sin_nombre_15-2);}.cls-61{fill:#c4d9ff;}.cls-62{fill:#9ebce8;}.cls-63{fill:#3a2c6d;}.cls-65{stroke:#e9fffb;}.cls-66,.cls-68{fill:#0b3fa5;}.cls-66,.cls-67{opacity:0.8;}.cls-70{opacity:0.9;}.cls-71{fill:#291d51;}.cls-72{fill:#eff6fe;}.cls-73{fill:#aad1fc;}.cls-74{fill:#aeb5b7;}.cls-75{stroke:#6cffe6;}.cls-77{fill:#6f89d1;}.cls-78{fill:#3fe0c5;}</style><linearGradient id="linear-gradient" x1="-88.42" y1="1495.48" x2="1290.18" y2="993.71" gradientTransform="matrix(1, 0, 0, -1, 0, 1876)" gradientUnits="userSpaceOnUse"><stop offset="0" stop-color="#150773"/><stop offset="0.5" stop-color="#5333ed"/><stop offset="0.93" stop-color="#2cd4d9"/></linearGradient><linearGradient id="Degradado_sin_nombre_4" x1="1327.61" y1="586.72" x2="1295.51" y2="530.17" gradientUnits="userSpaceOnUse"><stop offset="0" stop-color="#57f7e0"/><stop offset="0.12" stop-color="#57f7e0" stop-opacity="0.88"/><stop offset="0.73" stop-color="#57f7e0" stop-opacity="0.25"/><stop offset="1" stop-color="#57f7e0" stop-opacity="0"/></linearGradient><linearGradient id="Degradado_sin_nombre_4-2" x1="1252.43" y1="586.95" x2="1278.18" y2="541.15" xlink:href="#Degradado_sin_nombre_4"/><linearGradient id="Degradado_sin_nombre_33" x1="882.75" y1="819.01" x2="943.47" y2="819.01" gradientUnits="userSpaceOnUse"><stop offset="0" stop-color="#6b99d1"/><stop offset="0.02" stop-color="#6e9bd3"/><stop offset="0.24" stop-color="#86b0e4"/><stop offset="0.46" stop-color="#97bff0"/><stop offset="0.71" stop-color="#a2c8f8"/><stop offset="1" stop-color="#a5cbfa"/></linearGradient><linearGradient id="Degradado_sin_nombre_20" x1="888.57" y1="808.25" x2="937.64" y2="808.25" gradientUnits="userSpaceOnUse"><stop offset="0" stop-color="#a5cbfa"/><stop offset="0.36" stop-color="#a8cdfa"/><stop offset="0.67" stop-color="#b3d4fc"/><stop offset="0.95" stop-color="#c4dffe"/><stop offset="1" stop-color="#c8e2ff"/></linearGradient><linearGradient id="Degradado_sin_nombre_50" x1="913.1" y1="816.07" x2="913.1" y2="675.68" gradientUnits="userSpaceOnUse"><stop offset="0" stop-color="#57f7d7" stop-opacity="0.7"/><stop offset="0.11" stop-color="#57f7d7" stop-opacity="0.67"/><stop offset="0.29" stop-color="#57f7d9" stop-opacity="0.58"/><stop offset="0.5" stop-color="#57f7da" stop-opacity="0.44"/><stop offset="0.74" stop-color="#57f7dd" stop-opacity="0.24"/><stop offset="1" stop-color="#57f7e0" stop-opacity="0"/></linearGradient><linearGradient id="Degradado_sin_nombre_20-2" x1="1115.05" y1="817.19" x2="1182.05" y2="817.19" xlink:href="#Degradado_sin_nombre_20"/><linearGradient id="Degradado_sin_nombre_20-3" x1="1120.81" y1="806.92" x2="1176.29" y2="806.92" xlink:href="#Degradado_sin_nombre_20"/><linearGradient id="Degradado_sin_nombre_3" x1="1168.14" y1="485.72" x2="1174.91" y2="492.48" gradientTransform="translate(-123.43 594.5) rotate(-15.53)" gradientUnits="userSpaceOnUse"><stop offset="0" stop-color="#91f1e6"/><stop offset="1" stop-color="#0662dd"/></linearGradient><linearGradient id="Degradado_sin_nombre_3-2" x1="1189.26" y1="469.38" x2="1192.91" y2="473.02" xlink:href="#Degradado_sin_nombre_3"/><linearGradient id="Degradado_sin_nombre_3-3" x1="1201.05" y1="475.08" x2="1204.7" y2="478.73" xlink:href="#Degradado_sin_nombre_3"/><linearGradient id="Degradado_sin_nombre_3-4" x1="1193.02" y1="490.5" x2="1197.59" y2="495.07" xlink:href="#Degradado_sin_nombre_3"/><linearGradient id="Degradado_sin_nombre_50-2" x1="1148.55" y1="815.77" x2="1148.55" y2="657.03" xlink:href="#Degradado_sin_nombre_50"/><linearGradient id="Degradado_sin_nombre_54" x1="987.04" y1="685.86" x2="997.47" y2="685.86" gradientUnits="userSpaceOnUse"><stop offset="0" stop-color="#c8e2ff"/><stop offset="0.18" stop-color="#c2defc"/><stop offset="0.41" stop-color="#b2d1f4"/><stop offset="0.67" stop-color="#97bce7"/><stop offset="0.95" stop-color="#729fd5"/><stop offset="1" stop-color="#6b99d1"/></linearGradient><linearGradient id="Degradado_sin_nombre_54-2" x1="995.78" y1="690.93" x2="1006.2" y2="690.93" xlink:href="#Degradado_sin_nombre_54"/><linearGradient id="Degradado_sin_nombre_54-3" x1="1004.51" y1="695.99" x2="1014.93" y2="695.99" xlink:href="#Degradado_sin_nombre_54"/><linearGradient id="Degradado_sin_nombre_54-4" x1="1013.24" y1="701.06" x2="1023.67" y2="701.06" xlink:href="#Degradado_sin_nombre_54"/><linearGradient id="Degradado_sin_nombre_54-5" x1="3667.04" y1="685.86" x2="3677.47" y2="685.86" gradientTransform="matrix(-1, 0, 0, 1, 4744.87, 0)" xlink:href="#Degradado_sin_nombre_54"/><linearGradient id="Degradado_sin_nombre_54-6" x1="3675.78" y1="690.93" x2="3686.2" y2="690.93" gradientTransform="matrix(-1, 0, 0, 1, 4744.87, 0)" xlink:href="#Degradado_sin_nombre_54"/><linearGradient id="Degradado_sin_nombre_54-7" x1="3684.51" y1="695.99" x2="3694.93" y2="695.99" gradientTransform="matrix(-1, 0, 0, 1, 4744.87, 0)" xlink:href="#Degradado_sin_nombre_54"/><linearGradient id="Degradado_sin_nombre_54-8" x1="3693.24" y1="701.06" x2="3703.67" y2="701.06" gradientTransform="matrix(-1, 0, 0, 1, 4744.87, 0)" xlink:href="#Degradado_sin_nombre_54"/><linearGradient id="Degradado_sin_nombre_4-3" x1="1112.01" y1="682.13" x2="1037.25" y2="550.45" xlink:href="#Degradado_sin_nombre_4"/><linearGradient id="Degradado_sin_nombre_4-4" x1="952.97" y1="682.65" x2="1012.94" y2="576" xlink:href="#Degradado_sin_nombre_4"/><linearGradient id="Degradado_sin_nombre_15" x1="933.76" y1="530.51" x2="905.87" y2="481.38" gradientUnits="userSpaceOnUse"><stop offset="0" stop-color="#57f7e0"/><stop offset="0.04" stop-color="#57f7e0" stop-opacity="0.91"/><stop offset="0.14" stop-color="#57f7e0" stop-opacity="0.7"/><stop offset="0.25" stop-color="#57f7e0" stop-opacity="0.51"/><stop offset="0.36" stop-color="#57f7e0" stop-opacity="0.35"/><stop offset="0.47" stop-color="#57f7e0" stop-opacity="0.22"/><stop offset="0.59" stop-color="#57f7e0" stop-opacity="0.13"/><stop offset="0.71" stop-color="#57f7e0" stop-opacity="0.06"/><stop offset="0.84" stop-color="#57f7e0" stop-opacity="0.01"/><stop offset="1" stop-color="#57f7e0" stop-opacity="0"/></linearGradient><linearGradient id="Degradado_sin_nombre_15-2" x1="863.84" y1="530.72" x2="886.22" y2="490.93" xlink:href="#Degradado_sin_nombre_15"/></defs><title>hero_bg</title><g class="cls-1"><g id="Layer_1" data-name="Layer 1"><polygon class="cls-2" points="0 0 0 1333.36 1395.59 520.7 1395.59 0 0 0"/><path class="cls-3" d="M1334.31,602l-42,24.26a4.62,4.62,0,0,1-2.29.55,4.69,4.69,0,0,1-2.3-.55l-42-24.26a1.61,1.61,0,0,1-1-1.33,1.36,1.36,0,0,1,.5-1,2,2,0,0,1,.45-.33l42-24.26a5.08,5.08,0,0,1,4.59,0l42,24.26A1.4,1.4,0,0,1,1334.31,602Z"/><path class="cls-4" d="M1334.31,597l-42,24.25a4.52,4.52,0,0,1-2.29.55,4.64,4.64,0,0,1-2.29-.54l-42-24.26a1.63,1.63,0,0,1-1-1.32,1.61,1.61,0,0,1,1-1.33l6.67-3.85,35.35-20.41a5,5,0,0,1,4.59,0l42,24.26A1.4,1.4,0,0,1,1334.31,597Z"/><path class="cls-5" d="M1290,612.23v9.57a4.64,4.64,0,0,1-2.29-.54l-42-24.26a1.63,1.63,0,0,1-1-1.32v-8.29a1.37,1.37,0,0,1,.5-1l7.12,4.11Z"/><path class="cls-6" d="M1290,612.23v9.57a4.58,4.58,0,0,0,2.28-.54l42-24.26a1.63,1.63,0,0,0,1-1.32v-8.29a1.37,1.37,0,0,0-.5-1l-7.13,4.11Z"/><path class="cls-4" d="M1334.31,588.71l-42,24.27a4.62,4.62,0,0,1-2.29.54,4.68,4.68,0,0,1-2.3-.54l-42-24.27a1.6,1.6,0,0,1-1-1.32,1.37,1.37,0,0,1,.5-1,2.38,2.38,0,0,1,.45-.33l42-24.25a5.08,5.08,0,0,1,4.59,0l42,24.25C1335.57,586.8,1335.57,588,1334.31,588.71Z"/><path class="cls-7" d="M1290,562.26a3.73,3.73,0,0,1,1.79.41l42,24.26c.33.19.45.38.45.46s-.12.27-.44.46l-42,24.26a3.7,3.7,0,0,1-1.79.41,3.77,3.77,0,0,1-1.8-.41l-42-24.27c-.31-.17-.45-.36-.45-.45s0-.13.18-.27a1.43,1.43,0,0,1,.27-.19l42-24.26a3.7,3.7,0,0,1,1.79-.41m0-1a4.66,4.66,0,0,0-2.3.55l-42,24.25a2.38,2.38,0,0,0-.45.33,1.37,1.37,0,0,0-.5,1,1.6,1.6,0,0,0,1,1.32l42,24.27a4.68,4.68,0,0,0,2.3.54,4.62,4.62,0,0,0,2.29-.54l42-24.27c1.26-.72,1.26-1.91,0-2.65l-42-24.25a4.62,4.62,0,0,0-2.29-.55Z"/><path class="cls-8" d="M1288.46,567.57l-32.8,18.94a.93.93,0,0,0,0,1.76l32.8,18.94a3.37,3.37,0,0,0,3.06,0l32.79-18.94c.85-.48.85-1.27,0-1.76l-32.79-18.94A3.43,3.43,0,0,0,1288.46,567.57Z"/><path class="cls-9" d="M1324.31,586.51l-32.79-18.94a3.2,3.2,0,0,0-1.53-.36v1.55l34.06,19.67.26-.16C1325.16,587.79,1325.16,587,1324.31,586.51Z"/><path class="cls-10" d="M1290,567.21a3.14,3.14,0,0,0-1.53.36l-32.8,18.94a.93.93,0,0,0,0,1.76l.27.16L1290,568.76Z"/><polygon class="cls-11" points="1272.06 558.41 1297.16 543.92 1307.92 550.13 1282.82 564.62 1272.06 558.41"/><path class="cls-12" d="M1272.06,587.11a8.43,8.43,0,0,0,3.82,6.62l3.11,1.8a8.45,8.45,0,0,0,7.65,0l17.43-10.06a8.5,8.5,0,0,0,3.83-6.62l0-28.72-25.1,14.49-10.76-6.21Z"/><path class="cls-13" d="M1275.88,593.73l1.56.9,1.55.9a7.83,7.83,0,0,0,3.83.91V564.62l-10.76-6.21v28.7A8.43,8.43,0,0,0,1275.88,593.73Z"/><path class="cls-8" d="M1295.59,567.89c2.39-1.39,4.33-.26,4.33,2.5a9.6,9.6,0,0,1-4.33,7.52c-2.4,1.38-4.34.26-4.34-2.51A9.58,9.58,0,0,1,1295.59,567.89Z"/><path class="cls-8" d="M1294.15,581.83c0,1.17.64,1.74,1.43,1.28a3.67,3.67,0,0,0,1.44-3V568.77l-2.87,1.65Z"/><path class="cls-8" d="M1280.28,556.94c-1.4.81-1.4,2.12,0,2.93a5.59,5.59,0,0,0,5.07,0c1.4-.81,1.4-2.12,0-2.93A5.66,5.66,0,0,0,1280.28,556.94Z"/><path class="cls-8" d="M1294.63,548.66c-1.41.81-1.41,2.12,0,2.93a5.57,5.57,0,0,0,5.06,0c1.4-.81,1.4-2.12,0-2.93A5.63,5.63,0,0,0,1294.63,548.66Z"/><path class="cls-8" d="M1279.23,544.19v14.22h7.17v-14a.89.89,0,0,1,.44-.77l6.07-3.5a.44.44,0,0,1,.66.38v9.59h7.17V535.77c0-4.63-3.27-6.52-7.28-4.21l-10.4,6A8.46,8.46,0,0,0,1279.23,544.19Z"/><path class="cls-14" d="M1292.29,513.74a4,4,0,0,1-2.3.55h0v93.28a3.57,3.57,0,0,0,1.53-.36l32.53-18.78c.61-.34.9-.63.9-1v-92.5Z"/><path class="cls-15" d="M1290,514.29a5.3,5.3,0,0,1-.57,0h0a4.85,4.85,0,0,1-.55-.09l-.34-.11-.22-.06a5,5,0,0,1-.52-.25L1255,494.89v92.5a1.08,1.08,0,0,0,.63.88l32.8,18.94a3.54,3.54,0,0,0,1.49.36h0V514.29Z"/><path class="cls-3" d="M869.28,661.1l20.51-11.85a5.08,5.08,0,0,1,4.59,0l20.51,11.85a1.39,1.39,0,0,1,0,2.64l-20.51,11.85a5.08,5.08,0,0,1-4.59,0l-20.51-11.85C868,663,868,661.83,869.28,661.1Z"/><path class="cls-4" d="M869.28,637.28l20.51-11.84a5.08,5.08,0,0,1,4.59,0l20.51,11.84c1.26.74,1.26,1.92,0,2.65l-20.51,11.84a5.08,5.08,0,0,1-4.59,0l-20.51-11.84C868,639.2,868,638,869.28,637.28Z"/><path class="cls-7" d="M892.08,625.89a3.66,3.66,0,0,1,1.8.42l20.51,11.84c.33.19.45.38.45.46s-.12.27-.45.46l-20.51,11.84a4.13,4.13,0,0,1-3.59,0l-20.51-11.84c-.33-.2-.45-.38-.45-.46s.12-.27.45-.46l20.51-11.84a3.64,3.64,0,0,1,1.79-.42m0-1a4.73,4.73,0,0,0-2.29.55l-20.51,11.84c-1.27.73-1.27,1.92,0,2.65l20.51,11.84a4.62,4.62,0,0,0,2.29.55,4.69,4.69,0,0,0,2.3-.55l20.51-11.84c1.26-.73,1.26-1.91,0-2.65l-20.51-11.84a4.8,4.8,0,0,0-2.3-.55Z"/><path class="cls-5" d="M868.33,659.31a1.62,1.62,0,0,0,.95,1.32l20.51,11.84a4.53,4.53,0,0,0,2.29.55v-20.7a4.54,4.54,0,0,1-2.29-.55l-20.51-11.84a1.61,1.61,0,0,1-.95-1.32Z"/><path class="cls-6" d="M915.84,659.31a1.64,1.64,0,0,1-1,1.32l-20.51,11.84a4.57,4.57,0,0,1-2.3.55v-20.7a4.58,4.58,0,0,0,2.3-.55l20.51-11.84a1.61,1.61,0,0,0,1-1.32Z"/><path class="cls-3" d="M891.43,809.9c-12,6.91-12,18.11,0,25s31.38,6.91,43.35,0,12-18.12,0-25S903.4,803,891.43,809.9Z"/><path class="cls-16" d="M938.06,809l-.42-.79h-.59a23.12,23.12,0,0,0-2.48-1.63c-11.86-6.84-31.08-6.84-42.94,0a28.21,28.21,0,0,0-2.49,1.63h-.57l-.43.81c-2,3.72-5.39,8.74-5.39,9.92,0,4.5,3,9,8.88,12.43,11.86,6.85,31.08,6.85,42.94,0,5.93-3.41,8.9-7.91,8.9-12.39C943.47,817.56,940.63,812.45,938.06,809Z"/><path class="cls-17" d="M934.49,801.33a18.83,18.83,0,0,0-4-3.1c-9.58-5.53-25.11-5.53-34.69,0a18.91,18.91,0,0,0-4,3.1h-3.14v6.92h0c0,3.62,2.4,7.25,7.19,10,9.58,5.53,25.11,5.53,34.69,0,4.79-2.76,7.19-6.39,7.19-10v-6.92Z"/><path class="cls-4" d="M895.76,792.18c-9.58,5.53-9.58,14.5,0,20s25.11,5.53,34.69,0,9.58-14.5,0-20S905.34,786.65,895.76,792.18Z"/><path class="cls-7" d="M913.1,789A34.36,34.36,0,0,1,930,793c4.31,2.49,6.69,5.74,6.69,9.15s-2.38,6.66-6.69,9.15a37.3,37.3,0,0,1-33.69,0c-4.31-2.49-6.69-5.74-6.69-9.15s2.38-6.66,6.69-9.15a34.32,34.32,0,0,1,16.84-4m0-1c-6.27,0-12.55,1.38-17.34,4.15-9.58,5.53-9.58,14.5,0,20,4.79,2.76,11.07,4.15,17.34,4.15s12.56-1.39,17.35-4.15c9.58-5.53,9.58-14.5,0-20-4.79-2.77-11.07-4.15-17.35-4.15Z"/><path class="cls-18" d="M888.57,802.19c0,3.62,2.4,7.25,7.18,10,9.59,5.53,25.12,5.53,34.7,0,4.78-2.77,7.19-6.4,7.19-10V676.53H888.57Z"/><path class="cls-19" d="M887.93,774.17a26.92,26.92,0,0,1-5.92-4.52,14.52,14.52,0,0,1-4.5-9.78v20c.09,5.18,3.57,10.34,10.42,14.29a45,45,0,0,0,14.56,5.09v-20A45.17,45.17,0,0,1,887.93,774.17Z"/><path class="cls-19" d="M933.18,783.49A26.69,26.69,0,0,0,939.1,779a14.47,14.47,0,0,0,4.5-9.78v20c-.09,5.18-3.57,10.35-10.42,14.3a45.17,45.17,0,0,1-14.56,5.08v-20A45.17,45.17,0,0,0,933.18,783.49Z"/><path class="cls-19" d="M924.05,768.17v24.4a59.27,59.27,0,0,1-21.29.11,44,44,0,0,1-14.19-5,25.42,25.42,0,0,1-2.92-1.92V761.41a30.09,30.09,0,0,0,2.92,1.91,43.94,43.94,0,0,0,14.19,4.95A59.5,59.5,0,0,0,924.05,768.17Z"/><path class="cls-20" d="M905.55,773.28v9.6a59.5,59.5,0,0,0,12.66.25v-9.59A60.16,60.16,0,0,1,905.55,773.28Z"/><path class="cls-19" d="M938.44,745.26a19.37,19.37,0,0,1-2.32,2,17.83,17.83,0,0,1-1.56,1.07c-.31.2-.62.4-.95.58a36.65,36.65,0,0,1-11.36,4,44.88,44.88,0,0,1-6.16.76v22.53a46.49,46.49,0,0,0,6.16-.76,36.39,36.39,0,0,0,11.36-4,27.27,27.27,0,0,0,2.51-1.65,19.43,19.43,0,0,0,2.32-2A12.4,12.4,0,0,0,942,761.2V738.68A12.4,12.4,0,0,1,938.44,745.26Z"/><g class="cls-21"><path class="cls-22" d="M928.34,756.41V769.3c-1,.35-2,.66-3,.94V757.35C926.35,757.07,927.36,756.76,928.34,756.41Z"/><path class="cls-22" d="M934.13,753.69v12.88a5.48,5.48,0,0,1-.52.31,28,28,0,0,1-2.5,1.29V755.28a27.93,27.93,0,0,0,2.5-1.28Z"/><path class="cls-22" d="M939.92,748.54v12.89a15,15,0,0,1-1.48,1.78c-.47.48-1,.95-1.54,1.41V751.73a19,19,0,0,0,1.54-1.4A15.09,15.09,0,0,0,939.92,748.54Z"/></g><path class="cls-19" d="M921,734v26a46.85,46.85,0,0,1-4.92.55,49.67,49.67,0,0,1-11.64-.67c-.66-.12-1.31-.26-2-.41v-26c.65.15,1.3.29,2,.41a49.14,49.14,0,0,0,11.64.67A44.32,44.32,0,0,0,921,734Z"/><path class="cls-19" d="M938,718.52v21.13a24.44,24.44,0,0,0-4.07-2.88c-5.78-3.34-13.27-5.11-20.86-5.29V711.43c8,0,16.08,1.77,22.22,5.31A25.41,25.41,0,0,1,938,718.52Z"/><path class="cls-19" d="M903.72,721.84c-.72-.12-1.42-.28-2.13-.43a38.84,38.84,0,0,1-8.35-2.8h0a26.61,26.61,0,0,1-2.38-1.22c-.35-.21-.7-.41-1-.63s-.65-.4-1-.61l-.67-.49s0,0-.05,0a19.74,19.74,0,0,1-2.54-2.19,12.87,12.87,0,0,1-4-8.62l.07,22.71V728a12.81,12.81,0,0,0,4,8.63,20.44,20.44,0,0,0,2.54,2.19s0,.05,0,.05c.52.38,1,.75,1.63,1.11.32.2.67.42,1,.62.77.43,1.55.85,2.37,1.22h0a38.55,38.55,0,0,0,8.36,2.79c.7.17,1.41.32,2.12.45,1.66.29,3.35.5,5,.63l-.06-23.15C907.06,722.35,905.37,722.13,903.72,721.84Z"/><path class="cls-20" d="M891.41,721.26c-2.34-.92-5.07,1.29-4.95,4s.58,6,4.74,8.43c4.59,2.63,6.71-.94,6.54-4.1A9.38,9.38,0,0,0,891.41,721.26Z"/><path class="cls-3" d="M1124.86,809.26c-13.08,7.56-13.08,19.8,0,27.35s34.29,7.56,47.38,0,13.08-19.79,0-27.35S1137.94,801.71,1124.86,809.26Z"/><path class="cls-23" d="M1177.76,807.75a25.37,25.37,0,0,0-5.52-4.23c-13.09-7.55-34.3-7.55-47.38,0a25.37,25.37,0,0,0-5.52,4.23h-4.29v9.44h0c0,4.95,3.27,9.9,9.81,13.68,13.08,7.55,34.29,7.55,47.38,0,6.54-3.78,9.81-8.73,9.81-13.68v-9.44Z"/><path class="cls-4" d="M1124.86,795.25c-13.08,7.55-13.08,19.8,0,27.35s34.29,7.56,47.38,0,13.08-19.79,0-27.35S1137.94,787.7,1124.86,795.25Z"/><path class="cls-7" d="M1148.55,790.59c8.77,0,17,2,23.19,5.53,6,3.46,9.31,8,9.31,12.81s-3.31,9.34-9.31,12.81c-6.18,3.56-14.42,5.53-23.19,5.53s-17-2-23.19-5.53c-6-3.47-9.31-8-9.31-12.81s3.31-9.35,9.31-12.81c6.18-3.57,14.41-5.53,23.19-5.53m0-1c-8.57,0-17.15,1.89-23.69,5.66-13.08,7.55-13.08,19.8,0,27.35,6.54,3.78,15.12,5.67,23.69,5.67s17.14-1.89,23.69-5.67c13.08-7.55,13.08-19.79,0-27.35-6.55-3.77-15.12-5.66-23.69-5.66Z"/><path class="cls-24" d="M1172.74,799.1a21.12,21.12,0,0,0-4.58-3.5c-10.83-6.26-28.39-6.26-39.23,0a21.29,21.29,0,0,0-4.57,3.5h-3.55v7.82h0c0,4.1,2.71,8.2,8.12,11.33,10.84,6.25,28.4,6.25,39.23,0,5.42-3.13,8.13-7.23,8.13-11.33V799.1Z"/><path class="cls-4" d="M1128.93,788.75c-10.83,6.26-10.83,16.4,0,22.65s28.4,6.26,39.23,0,10.84-16.39,0-22.65S1139.77,782.5,1128.93,788.75Z"/><path class="cls-7" d="M1148.55,785.06c7.24,0,14,1.62,19.11,4.56,4.92,2.84,7.63,6.55,7.63,10.46s-2.71,7.62-7.63,10.46c-5.09,2.93-11.87,4.55-19.11,4.55s-14-1.62-19.12-4.55c-4.91-2.84-7.62-6.56-7.62-10.46s2.71-7.62,7.62-10.46c5.09-2.94,11.88-4.56,19.12-4.56m0-1c-7.1,0-14.2,1.57-19.62,4.69-10.83,6.26-10.83,16.4,0,22.65,5.42,3.13,12.52,4.69,19.62,4.69s14.2-1.56,19.61-4.69c10.84-6.25,10.84-16.39,0-22.65-5.41-3.12-12.51-4.69-19.61-4.69Z"/><polyline class="cls-25" points="1160.15 749.16 1163.21 731.84 1150.32 729.5"/><polyline class="cls-25" points="1136.23 751.96 1150.32 729.5 1160.15 749.16"/><path class="cls-26" d="M1131.33,753.32a5.08,5.08,0,1,1,6.26,3.54A5.09,5.09,0,0,1,1131.33,753.32Z"/><path class="cls-27" d="M1147.68,730.24a2.74,2.74,0,1,1,3.37,1.9A2.74,2.74,0,0,1,1147.68,730.24Z"/><path class="cls-28" d="M1160.57,732.57a2.74,2.74,0,1,1,3.37,1.91A2.73,2.73,0,0,1,1160.57,732.57Z"/><path class="cls-29" d="M1156.84,750.08a3.44,3.44,0,1,1,4.23,2.39A3.45,3.45,0,0,1,1156.84,750.08Z"/><path class="cls-30" d="M1120.81,800.07c0,4.1,2.71,8.2,8.12,11.33,10.84,6.25,28.41,6.25,39.23,0,5.41-3.13,8.13-7.23,8.13-11.33V658h-55.48Z"/><path class="cls-31" d="M774.25,600.66l-24.1,13.91a1.4,1.4,0,0,0,0,2.65l24.1,13.91a5.08,5.08,0,0,0,4.59,0l24.09-13.91c1.27-.73,1.27-1.92,0-2.65l-24.09-13.91A5.08,5.08,0,0,0,774.25,600.66Z"/><path class="cls-3" d="M774.25,610.85l-24.1,13.91a1.4,1.4,0,0,0,0,2.65l24.1,13.91a5.08,5.08,0,0,0,4.59,0l24.09-13.91c1.27-.73,1.27-1.92,0-2.65l-24.09-13.91A5.08,5.08,0,0,0,774.25,610.85Z"/><path class="cls-32" d="M774.25,600.66l-24.1,13.91a1.4,1.4,0,0,0,0,2.65l24.1,13.91a5.08,5.08,0,0,0,4.59,0l24.09-13.91c1.27-.73,1.27-1.92,0-2.65l-24.09-13.91A5.08,5.08,0,0,0,774.25,600.66Z"/><path class="cls-6" d="M803.88,566.21v31.25a5.09,5.09,0,0,1-2.29,4l-22.76,13.13a5,5,0,0,1-4.58,0L751.5,601.44a5.1,5.1,0,0,1-2.3-4V566.21Z"/><path class="cls-5" d="M776.54,566.21v48.91a4.73,4.73,0,0,1-2.29-.55L751.5,601.44a5.1,5.1,0,0,1-2.3-4V566.21Z"/><path class="cls-4" d="M774.25,551l-24.1,13.91a1.4,1.4,0,0,0,0,2.65l24.1,13.91a5.08,5.08,0,0,0,4.59,0l24.09-13.91c1.27-.73,1.27-1.92,0-2.65L778.84,551A5.08,5.08,0,0,0,774.25,551Z"/><path class="cls-10" d="M785.38,588.81V598c0,1,.69,1.37,1.53.89l.26-.16,7.68-4.43a3,3,0,0,0,1.09-1.15l-10.1-5.82A3,3,0,0,0,785.38,588.81Z"/><path class="cls-9" d="M796.38,582.77v-.3c0-1-.68-1.37-1.52-.88l-.15.08-7.78,4.49a3.08,3.08,0,0,0-1.08,1.15l10.1,5.82a3,3,0,0,0,.44-1.49Z"/><path class="cls-8" d="M794.71,590.5a2.87,2.87,0,0,1-.45,1.5,3.13,3.13,0,0,1-1.07,1.15l-7.69,4.43-.12.07v-8.84a3,3,0,0,1,.46-1.5,3.08,3.08,0,0,1,1.08-1.15l7.78-4.49Z"/><path class="cls-10" d="M767.69,588.81V598c0,1-.68,1.37-1.52.89l-.27-.16-7.68-4.43a3.08,3.08,0,0,1-1.08-1.15l10.1-5.82A3,3,0,0,1,767.69,588.81Z"/><path class="cls-9" d="M756.7,582.77v-.3c0-1,.68-1.37,1.52-.88l.14.08,7.79,4.49a3.08,3.08,0,0,1,1.08,1.15l-10.1,5.82a2.94,2.94,0,0,1-.44-1.49Z"/><path class="cls-8" d="M758.37,590.5a2.87,2.87,0,0,0,.45,1.5,3.13,3.13,0,0,0,1.07,1.15l7.69,4.43.11.07v-8.84a3,3,0,0,0-.45-1.5,3.08,3.08,0,0,0-1.08-1.15l-7.79-4.49Z"/><path class="cls-4" d="M774.25,551l-24.1,13.91a1.4,1.4,0,0,0,0,2.65l24.1,13.91a5.08,5.08,0,0,0,4.59,0l24.09-13.91c1.27-.73,1.27-1.92,0-2.65L778.84,551A5.08,5.08,0,0,0,774.25,551Z"/><path class="cls-9" d="M786,567.09l-.25.15-7.68,4.44a3,3,0,0,1-1.52.36,3.1,3.1,0,0,1-1.54-.36l-7.68-4.44-.26-.15a.93.93,0,0,1,0-1.76l7.93-4.58a3.35,3.35,0,0,1,3.06,0l7.93,4.58A.93.93,0,0,1,786,567.09Z"/><path class="cls-10" d="M776.55,560.38V572a3.1,3.1,0,0,1-1.54-.36l-7.68-4.44-.26-.15a.93.93,0,0,1,0-1.76l7.93-4.58A3.11,3.11,0,0,1,776.55,560.38Z"/><path class="cls-8" d="M785.75,567.24l-7.68,4.44a3.37,3.37,0,0,1-3.06,0l-7.68-4.44,7.68-4.42a3.37,3.37,0,0,1,3.06,0Z"/><path class="cls-3" d="M1112.47,710,1036,754.11a7.9,7.9,0,0,1-7.13,0L952.38,710a2.48,2.48,0,0,1-1.48-2.06,2.12,2.12,0,0,1,.78-1.55,3.24,3.24,0,0,1,.7-.51l76.49-44.11a7.86,7.86,0,0,1,7.13,0l76.47,44.11C1114.43,707,1114.43,708.86,1112.47,710Z"/><path class="cls-3" d="M988.81,767.93l-6.22-3.6c-4.22-2.44-10.05-3-13-1.31s-1.95,5.08,2.27,7.52l6.23,3.6c4.22,2.43,10.05,3,13,1.3S993,770.36,988.81,767.93Z"/><path class="cls-4" d="M1112.47,703.69,1036,747.8a7.2,7.2,0,0,1-3.57.85,7.35,7.35,0,0,1-3.55-.83L952.38,703.7a2.52,2.52,0,0,1-1.48-2.06,2.48,2.48,0,0,1,1.48-2.06l10.37-6,66.12-38.14a7.86,7.86,0,0,1,7.13,0l76.47,44.12C1114.43,700.7,1114.43,702.55,1112.47,703.69Z"/><path class="cls-5" d="M1032.41,733.79v14.86a7.35,7.35,0,0,1-3.55-.83L952.38,703.7a2.52,2.52,0,0,1-1.48-2.06V688.76a2.12,2.12,0,0,1,.78-1.55l11.07,6.39Z"/><path class="cls-6" d="M1032.41,733.79v14.86a7.37,7.37,0,0,0,3.56-.83l76.5-44.13a2.54,2.54,0,0,0,1.48-2.06V688.76a2.09,2.09,0,0,0-.78-1.55l-11.07,6.39Z"/><path class="cls-4" d="M1112.47,690.81,1036,734.94a7.9,7.9,0,0,1-7.13,0l-76.47-44.12a2.47,2.47,0,0,1-1.48-2.06,2.12,2.12,0,0,1,.78-1.55,3.22,3.22,0,0,1,.7-.5l76.49-44.12a7.92,7.92,0,0,1,7.13,0l76.47,44.11C1114.43,687.84,1114.43,689.69,1112.47,690.81Z"/><path class="cls-3" d="M988.81,767.93l-6.22-3.6c-4.22-2.44-10.05-3-13-1.31s-1.95,5.08,2.27,7.52l6.23,3.6c4.22,2.43,10.05,3,13,1.3S993,770.36,988.81,767.93Z"/><path class="cls-3" d="M1076.41,762.23l6.23-3.59c4.22-2.44,10-3,13-1.31s1.95,5.08-2.27,7.52l-6.22,3.59c-4.22,2.44-10.05,3-13,1.31S1072.19,764.67,1076.41,762.23Z"/><path class="cls-7" d="M1032.43,642.74a6.36,6.36,0,0,1,3.07.72l76.46,44.1c.62.36,1,.8,1,1.2s-.36.83-1,1.19l-76.49,44.12a6.88,6.88,0,0,1-6.13,0L952.87,690c-.62-.35-1-.79-1-1.19a1.16,1.16,0,0,1,.46-.81,2.48,2.48,0,0,1,.52-.38l76.49-44.11a6.26,6.26,0,0,1,3.06-.72m0-1a7.24,7.24,0,0,0-3.56.85l-76.49,44.12a3.22,3.22,0,0,0-.7.5,2.12,2.12,0,0,0-.78,1.55,2.47,2.47,0,0,0,1.48,2.06l76.47,44.12a7.9,7.9,0,0,0,7.13,0l76.49-44.13c2-1.12,2-3,0-4.11L1036,642.59a7.3,7.3,0,0,0-3.57-.85Z"/><path class="cls-8" d="M1030.05,651.55,967.9,687.4c-1.31.75-1.31,2,0,2.74L1030,726a5.23,5.23,0,0,0,4.75,0l62.15-35.85c1.31-.75,1.31-2,0-2.74l-62.14-35.84A5.23,5.23,0,0,0,1030.05,651.55Z"/><path class="cls-9" d="M1096.94,687.39l-62.14-35.84a4.8,4.8,0,0,0-2.37-.57v2.42l64.1,37,.41-.24C1098.25,689.38,1098.25,688.15,1096.94,687.39Z"/><path class="cls-10" d="M1032.43,651a4.87,4.87,0,0,0-2.38.57L967.9,687.4c-1.31.75-1.31,2,0,2.74l.41.24,64.12-37Z"/><path class="cls-33" d="M1032.93,672.32l18.4-10.59c.29-.17.29-.43,0-.6l-18.4-10.62a1.17,1.17,0,0,0-1,0l-18.37,10.62a.32.32,0,0,0,0,.6l18.37,10.59A1.17,1.17,0,0,0,1032.93,672.32Z"/><path class="cls-12" d="M1032.43,665.38v42.55a6.19,6.19,0,0,0,3-.72l39.37-22.73a6.67,6.67,0,0,0,3-5.22V665.38Z"/><path class="cls-34" d="M987,665.38v13.88a6.65,6.65,0,0,0,3,5.22l39.37,22.73a6.15,6.15,0,0,0,3,.72V665.38Z"/><path class="cls-11" d="M1029.4,690.88l-41.12-23.76c-1.67-1-1.67-2.52,0-3.48l41.14-23.75a6.67,6.67,0,0,1,6,0l41.13,23.75c1.67,1,1.67,2.52,0,3.48l-41.15,23.76A6.67,6.67,0,0,1,1029.4,690.88Z"/><path class="cls-33" d="M996.72,664.22l33.7-19.46a4.39,4.39,0,0,1,4,0l33.72,19.46a1.23,1.23,0,0,1,0,2.33L1034.43,686a4.39,4.39,0,0,1-4,0l-33.69-19.46A1.23,1.23,0,0,1,996.72,664.22Z"/><path class="cls-33" d="M1033.42,649.62,1060,664.8a.61.61,0,0,1,0,1.16l-26.53,15.19a2.16,2.16,0,0,1-2,0L1005.11,666a.62.62,0,0,1,0-1.17l26.3-15.18A2.22,2.22,0,0,1,1033.42,649.62Z"/><path class="cls-35" d="M997.47,680.35a3.14,3.14,0,0,0-1.43-2.47,1,1,0,0,0-1-.09h0l-5.83,3.37a4.77,4.77,0,0,0-2.15,3.72v8h0a1,1,0,0,0,.59.82,3.17,3.17,0,0,0,2.86,0,1,1,0,0,0,.59-.82V685a.48.48,0,0,1,.25-.43l5.71-3.3h0A1,1,0,0,0,997.47,680.35Z"/><path class="cls-36" d="M1006.2,685.41a3.16,3.16,0,0,0-1.43-2.47,1,1,0,0,0-1-.09h0l-5.82,3.36a4.76,4.76,0,0,0-2.15,3.73v8h0a1,1,0,0,0,.59.82,3.12,3.12,0,0,0,2.85,0,1,1,0,0,0,.59-.82v-7.87a.52.52,0,0,1,.25-.43l5.72-3.3h0A1,1,0,0,0,1006.2,685.41Z"/><path class="cls-37" d="M1014.93,690.48a3.13,3.13,0,0,0-1.42-2.47,1,1,0,0,0-1-.09h0l-5.83,3.36a4.78,4.78,0,0,0-2.15,3.73v8h0a1,1,0,0,0,.59.82,3.12,3.12,0,0,0,2.85,0,1,1,0,0,0,.6-.82v-7.87a.5.5,0,0,1,.24-.43l5.72-3.3h0A1,1,0,0,0,1014.93,690.48Z"/><path class="cls-38" d="M1023.67,695.55a3.18,3.18,0,0,0-1.43-2.48,1,1,0,0,0-1-.09h0l-5.82,3.37a4.74,4.74,0,0,0-2.16,3.72v8h0a1,1,0,0,0,.6.83,3.18,3.18,0,0,0,2.85,0,1,1,0,0,0,.59-.83V700.2a.5.5,0,0,1,.25-.43l5.71-3.3h0A1,1,0,0,0,1023.67,695.55Z"/><path class="cls-39" d="M1067.4,680.35a3.14,3.14,0,0,1,1.43-2.47,1,1,0,0,1,1-.09h0l5.82,3.37a4.77,4.77,0,0,1,2.15,3.72v8h0a1,1,0,0,1-.59.82,3.15,3.15,0,0,1-2.85,0,1,1,0,0,1-.59-.82V685a.5.5,0,0,0-.25-.43l-5.72-3.3h0A1,1,0,0,1,1067.4,680.35Z"/><path class="cls-40" d="M1058.66,685.41a3.16,3.16,0,0,1,1.43-2.47,1,1,0,0,1,1-.09h0l5.83,3.36a4.79,4.79,0,0,1,2.15,3.73v8h0a1,1,0,0,1-.59.82,3.14,3.14,0,0,1-2.86,0,1,1,0,0,1-.59-.82v-7.87a.51.51,0,0,0-.24-.43l-5.72-3.3h0A1,1,0,0,1,1058.66,685.41Z"/><path class="cls-41" d="M1049.93,690.48a3.14,3.14,0,0,1,1.43-2.47,1,1,0,0,1,1-.09h0l5.82,3.36a4.75,4.75,0,0,1,2.15,3.73v8h0a1,1,0,0,1-.59.82,3.12,3.12,0,0,1-2.85,0,1,1,0,0,1-.59-.82v-7.87a.48.48,0,0,0-.25-.43l-5.72-3.3h0A1,1,0,0,1,1049.93,690.48Z"/><path class="cls-42" d="M1041.2,695.55a3.19,3.19,0,0,1,1.42-2.48,1,1,0,0,1,1-.09h0l5.83,3.37a4.76,4.76,0,0,1,2.15,3.72v8h0a1,1,0,0,1-.59.83,3.18,3.18,0,0,1-2.85,0,1,1,0,0,1-.59-.83V700.2a.52.52,0,0,0-.25-.43l-5.72-3.3h0A1,1,0,0,1,1041.2,695.55Z"/><path class="cls-43" d="M1068.65,558.08a38.91,38.91,0,1,1-27.37-23.45A38.9,38.9,0,0,1,1068.65,558.08Z"/><path class="cls-44" d="M1027.88,539.34c-1.78,0-4.07.66-2.41,1.67s2.71,1.11,2.72,2.42-.85,2.69-.42,3.62,1.11,2,1.79,1.7,2.53-2.38,3.59-2.29,4.65.26,5.18-.92,1.05-1.09,1.91-2.4.82-3.06-.23-3.06-1.19.44-3,.31-2.58-1.29-4.29-1A27,27,0,0,1,1027.88,539.34Z"/><path class="cls-44" d="M1021.26,539.81c-2,1.08-6.27,2.7-8.24,2.16a34.55,34.55,0,0,0-3.38-.9,39,39,0,0,0-15,22.73,13.53,13.53,0,0,0,1.76,2.72c1.54,1.81,3.13,2,5.08,2.41s1.35,1.47,2.31,2.63a8.44,8.44,0,0,0,2.46,2.43c1.1.62-.39,1.78-.82,3s-.55,2,.35,4.52,3.5,4.64,4.28,5.63-.54,2.14-.2,4.21.22,7.58,2.22,10.68,3.18,2.74,3,.65-.84-4.07.37-5.63,3.66-1.15,4.49-4,1.37-2.73,2.69-3.71.74-1.81,2-4,1.6-4.3-.23-5.21-3-.82-4.6-3a19.93,19.93,0,0,0-6.26-5.47c-2.27-1.23-5.86.27-7.29-.15s-2.34-3.14-2.25-4.2-1-1.33-2-1.07-1.6-.4-1.89-1.78,1.87-3.12,3.61-3.26,2.68.68,3,2.92a4.39,4.39,0,0,0,3.44,3.77c1.61.4.6-1.27-.54-2.41s-1.21-2.18-.36-4.7,3-2.33,4.55-4.65,1.88-.57,3.47-.34,1.36-.63,1.94-2.08,2.61-.19,4.28-1.37-1.81-3-1.58-4.61,1.81-1.53.93-3.92.33-2.47,1-3.36S1023.28,538.73,1021.26,539.81Zm-2.35,5.82c-.53,1.18-1,1-1.84,2.24A4.88,4.88,0,0,1,1014,550c-.87.11-2.3-1.44-2.37-2.39s1.3-1.24,2.86-1.45a8.6,8.6,0,0,0,4.31-2C1019.91,543.27,1019.43,544.45,1018.91,545.63Z"/><path class="cls-44" d="M1071.32,569.59v.11a2.76,2.76,0,0,0-1.55,1.53c-.88,2.16-1,1.22-3.12,2.69s-1.28,2.63-1.17,4.11-2.29,3.15-3.48,3.68-1.72,3.89-1.33,5.53-1.57,2.3-2.77,3.8-1.88,4-2.67,5.19a3.68,3.68,0,0,1-3.63,1.68c-1.42-.24-2.74-2.6-3.5-4.64a11.82,11.82,0,0,1-.59-6.52c.44-2.21.28-1.94-.24-5.4a5.52,5.52,0,0,0-4.31-4.83c-1.34-.34-3.55.44-4.75-.25s-1.7-1.71-2.48-5,.84-4,2.1-5.76a12.24,12.24,0,0,1,6-4.22,6.58,6.58,0,0,1,5.13.66c1.36.68,2,2.21,3,2.31s1.8-.4,2.78-.21,1.62.66,2.57.5.35-1.25.21-1.85-1-.45-2.13-.46a1.64,1.64,0,0,1-1.83-1.08c-.41-.75-1.06-.09-1.61-.4s-.44,1.08-.49,1.62-.47-.41-.47-.41-.47.74-.67.4.26-1.15.2-2-1.27-.64-2-1.28a2.86,2.86,0,0,0-2.82-.4c-1,.35-1.22.1-1.68,1s-2.68,1.52-3.39,1.4-.21-1.56.4-2.83,1.85-.84,2.63-2.12-.28-1.47-1-1.68-.94-.89-.2-2.52,1.75-1.19,2.16-.43a2.52,2.52,0,0,0,2.28,1.14c1,0,.73-.67.71-2.07a2.59,2.59,0,0,1,1.9-2.68,18.64,18.64,0,0,0,4.21-2.16c.81-.76,2.25-.26,3,.56s2.45,1.12,4.23,1.42a1.46,1.46,0,0,0,1.25-.41A38.73,38.73,0,0,1,1071.32,569.59Z"/><path class="cls-44" d="M1064,588.73c-.94-.16-.86.15-1.42.9s-1.36,1.59-1.21,2.37.22,1.73.87,1.15.43-1.25,1.36-1.68S1065.45,589,1064,588.73Z"/><path class="cls-45" d="M1042.66,538.06c-24.77-7.15-29.4,9.74-16.27,20.38s35.64,14.15,38.67,7.14S1061.08,543.38,1042.66,538.06Z"/><path class="cls-46" d="M1022,592c-19.25-15.8-18.66-46.47-1.78-56.38h0c-.71.24-1.42.49-2.13.77a38.9,38.9,0,1,0,50.34,51.14C1063,595.11,1041.22,607.82,1022,592Z"/><path class="cls-47" d="M1036.71,507.89a7.37,7.37,0,0,1-4.29,1h0V726.55a5.27,5.27,0,0,0,2.87-.87l60.91-35.17c1.13-.62,1.68-1.17,1.68-1.93v-216Z"/><path class="cls-48" d="M1032.35,508.91a7.89,7.89,0,0,1-1.09,0h-.06a8.51,8.51,0,0,1-1-.17c-.22-.05-.43-.13-.64-.2s-.27-.07-.4-.12a8.89,8.89,0,0,1-1-.46L967,472.59v216a2,2,0,0,0,1.19,1.65l61.41,35.46a4.75,4.75,0,0,0,2.77.85h.08V508.91Z"/><path class="cls-49" d="M887.22,495.81a18.79,18.79,0,0,0-2.54,0,7.88,7.88,0,0,1-2.46.1c-.88-.12-3.32-2-5.28-3.71a21.21,21.21,0,0,1-5-6.8c-1-2.75-2.62-8.41-3.37-10.31a3.18,3.18,0,0,0-2.9-2.43c-1.39-.2-2.29.35-1.56,3.2a57,57,0,0,0,4.29,11.8,27.36,27.36,0,0,0,5.67,6.93,31.75,31.75,0,0,0,6.43,4.29c.66.36,1.07.8,2.25,1.65a9,9,0,0,0,4,1.65c1.21.11,1.67,0,1.8-.28s0-.53-.6-.65a7.22,7.22,0,0,1-2.52-.81s1.18.31,1.91.43a7,7,0,0,0,2,.07c.63-.07,1.07-.9.52-1s-1-.08-2.08-.28a6.87,6.87,0,0,1-1.66-.5,14.73,14.73,0,0,0,2.19.1,3.09,3.09,0,0,0,1.66-.46c.26-.17.37-.72-.34-.79a10.79,10.79,0,0,1-2.64-.18c-.86-.22-1.44-.5-1.29-.6s.64.07,1.4-.1,1.33-.76,1.21-1.16S888,495.75,887.22,495.81Z"/><path class="cls-50" d="M869.12,476.05c-.47-1.56-.84-2.31-1.78-3a3,3,0,0,0-1.75-.6l-2,8.95,2,4.59c3.19.82,5.84-2.57,5.84-2.57S869.56,477.5,869.12,476.05Z"/><path class="cls-51" d="M858.45,543.1a12.87,12.87,0,0,1-.47,1.37,5.84,5.84,0,0,0-.53,2.16c0,.53,1.14,1.44,1.93,1.67a5.09,5.09,0,0,1,2.3,1.94A4.76,4.76,0,0,0,865,552.1c1.15,0,2.47,0,2.81-.46s0-1-2.09-3-3.57-3.31-4.08-5Z"/><path class="cls-51" d="M852.7,549.39a4.09,4.09,0,0,0-.59,2.71,15.08,15.08,0,0,1-.19,3.77,6.87,6.87,0,0,0,1.21,4.19,1.76,1.76,0,0,0,3.06-.51,7.18,7.18,0,0,0,.31-4.5c-.41-1.59.13-2.8-.14-3.87a8.81,8.81,0,0,0-.64-1.79Z"/><path class="cls-52" d="M852.7,505.54c.06,1.78.61,9.53.86,13.63s.62,8.87.62,8.87a45,45,0,0,0-1.48,6.76c-.46,3.51,0,14.59,0,14.59a2.79,2.79,0,0,0,3,0s2.08-9.77,3-13.76,1.78-5.89,2-8.4,1.06-16.46,1.06-16.46l.47,0,1.15,12.75a20.85,20.85,0,0,0-2.18,5c-.65,2.51-2.69,14.58-2.69,14.58a2.59,2.59,0,0,0,3.23.51s7.09-16.22,7.74-17.82-.3-24.46-.3-24.46Z"/><path class="cls-53" d="M861.7,510.77a23.81,23.81,0,0,0,4.65-2.31,7.94,7.94,0,0,1-2.81,2.32c-.17,1.68-.22,12.76-.22,12.76l-1.15-12.75Z"/><path class="cls-49" d="M857,471.06s.2,3.89.11,4.23-1.78,1.49-2.28,1.9,2.69,3.54,4.24,4.25,6.45-1.16,6.54-3.57-.84-4.43-1.59-4.54S857,471.06,857,471.06Z"/><path class="cls-54" d="M857,471l.11,2.69s2.48,2.35,4.46,2c1.1-.2,1-.92,1-.92v-2.27Z"/><path class="cls-55" d="M856.54,475.87s2.82,4.21,6.76,4.6c1.24-1.22,1.35-5.58-.37-7,0,0,1.58-1.27,2.66-1a5.57,5.57,0,0,1,2.44,3.1,25.48,25.48,0,0,1,1.38,9c-.06,4.13,0,16.73,0,16.73s-.56,2.67-4.12,4.66-6.2,2.17-8.62,1.61c-2-.47-3.64-1.17-4.33-2.61.18-2.9,1.47-10.44,1-14.08s-1.25-6.35-1.45-9.29.39-2.88,1.86-3.93A24.21,24.21,0,0,1,856.54,475.87Z"/><path class="cls-50" d="M863.3,480.47a22.12,22.12,0,0,0,.34-2.87,9.37,9.37,0,0,0-1.1-3.11V473.4a2.61,2.61,0,0,1,1.44.94,6.08,6.08,0,0,1,1.43,4.28A5,5,0,0,1,863.3,480.47Z"/><path class="cls-55" d="M863.3,480.47c.28-.55.83-2.42,1.1-2.7.52-.17,1,.85,1,.85a2.69,2.69,0,0,1-.67,1.7A1.23,1.23,0,0,1,863.3,480.47Z"/><path class="cls-56" d="M864.4,477.77c-.27.28-.82,2.15-1.1,2.7a10.05,10.05,0,0,1,.59-.9c.3-.37.65-1.09,1.52-.95C865.41,478.62,864.92,477.6,864.4,477.77Z"/><path class="cls-49" d="M865.78,465.26h0c-.46-3-2.64-5.31-5.75-5.13a6,6,0,0,0-3,10.93,5.9,5.9,0,0,0,.48,1.32c1.1,1.29,4.43,2.08,5.39,1.94a2.84,2.84,0,0,0,2.48-2C866.36,469.92,866,466.75,865.78,465.26Z"/><path class="cls-57" d="M865.33,462.83a6,6,0,0,0-10,0c-1.31.46-1.44,1.44-1.28,3a11.74,11.74,0,0,0,1.31,4.71c.28.48,1.13.16,1.61.49-.07-.21-1.64-2.55,0-3.07a1.92,1.92,0,0,1,.33,1.23.76.76,0,0,0,.63-1c0-.26-.1-.5-.14-.72a2.72,2.72,0,0,1,.46-2.08,2.43,2.43,0,0,0,.42-2,8,8,0,0,0,4.56.35A4.12,4.12,0,0,0,865.33,462.83Z"/><path class="cls-57" d="M855.34,462.84s-.38-1.19,1.15-2.35c1.82-1.38,4.38-1.07,7.08,0,1.72.69,4.4-.15,3.88,1.82-.76,2.9-6.36,3.15-8.79,1.13A6.37,6.37,0,0,0,855.34,462.84Z"/><path class="cls-49" d="M857,471s-.14.32-.73.35c-1.09.05-2.37-2-1.49-3.36a1.43,1.43,0,0,1,2.2,0Z"/><path class="cls-50" d="M857.11,474.52c.07.59,3.24,3,4,3.26s2.2,2.69,2.2,2.69a3.13,3.13,0,0,0-2.88,1.13s-4.5-1.9-5.23-4.92c0,0,.84-1.62,1-2s.46-.9.93-.92Z"/><path class="cls-55" d="M860.42,481.6s.33-2.32.82-2.53,2.06,1.4,2.06,1.4A4.35,4.35,0,0,1,860.42,481.6Z"/><path class="cls-56" d="M861.24,479.07c-.49.21-.82,2.53-.82,2.53a9.92,9.92,0,0,1,1.65-1.28,3.14,3.14,0,0,1,1.23.15S861.72,478.86,861.24,479.07Z"/><path class="cls-3" d="M943.1,567.42l-42,24.26a4.62,4.62,0,0,1-2.29.55,4.69,4.69,0,0,1-2.3-.55l-42-24.26a1.6,1.6,0,0,1-1-1.33,1.33,1.33,0,0,1,.5-1,2,2,0,0,1,.45-.33l42-24.26a5.08,5.08,0,0,1,4.59,0l42,24.26C944.37,565.5,944.37,566.69,943.1,567.42Z"/><path class="cls-4" d="M943.1,539.3l-42,24.26a4.62,4.62,0,0,1-2.29.54,4.75,4.75,0,0,1-2.29-.53l-42-24.27a1.4,1.4,0,0,1,0-2.65l6.67-3.85,35.35-20.41a5.08,5.08,0,0,1,4.59,0l42,24.26C944.37,537.38,944.37,538.57,943.1,539.3Z"/><path class="cls-5" d="M898.79,554.54v9.56a4.75,4.75,0,0,1-2.29-.53l-42-24.27a1.61,1.61,0,0,1-1-1.32v-8.29a1.33,1.33,0,0,1,.5-1l7.12,4.11Z"/><path class="cls-6" d="M898.79,554.54v9.56a4.68,4.68,0,0,0,2.28-.53l42-24.27a1.62,1.62,0,0,0,1-1.32v-8.29a1.34,1.34,0,0,0-.51-1l-7.12,4.11Z"/><path class="cls-4" d="M943.1,531l-42,24.27a4.62,4.62,0,0,1-2.29.54,4.68,4.68,0,0,1-2.3-.54l-42-24.27a1.59,1.59,0,0,1-1-1.32,1.33,1.33,0,0,1,.5-1,2,2,0,0,1,.45-.32l42-24.26a5.08,5.08,0,0,1,4.59,0l42,24.26C944.37,529.1,944.37,530.29,943.1,531Z"/><path class="cls-7" d="M898.78,504.56a3.66,3.66,0,0,1,1.8.42l42,24.25c.33.19.45.38.45.46s-.12.27-.45.46l-42,24.26a3.7,3.7,0,0,1-1.79.41,3.74,3.74,0,0,1-1.8-.41l-42-24.27c-.3-.17-.44-.35-.44-.45s0-.13.18-.26a1.11,1.11,0,0,1,.27-.2L897,505a3.76,3.76,0,0,1,1.79-.41m0-1a4.62,4.62,0,0,0-2.29.55l-42,24.26a2,2,0,0,0-.45.32,1.33,1.33,0,0,0-.5,1,1.59,1.59,0,0,0,1,1.32l42,24.27a4.68,4.68,0,0,0,2.3.54,4.62,4.62,0,0,0,2.29-.54l42-24.27c1.27-.72,1.27-1.91,0-2.64l-42-24.26a4.66,4.66,0,0,0-2.3-.55Z"/><path class="cls-8" d="M897.26,509.88l-32.8,18.93a.94.94,0,0,0,0,1.77l32.8,18.93a3.35,3.35,0,0,0,3,0l32.8-18.93a.94.94,0,0,0,0-1.77l-32.8-18.93A3.35,3.35,0,0,0,897.26,509.88Z"/><path class="cls-9" d="M933.11,528.81l-32.8-18.93a3,3,0,0,0-1.53-.37v1.55l34.07,19.67.26-.15A.94.94,0,0,0,933.11,528.81Z"/><path class="cls-10" d="M898.78,509.51a3,3,0,0,0-1.52.37l-32.8,18.93a.94.94,0,0,0,0,1.77l.26.15,34.07-19.67Z"/><polygon class="cls-58" points="888.03 519.34 898.78 525.55 898.78 492.43 888.03 486.22 888.03 519.34"/><polygon class="cls-12" points="898.78 525.55 909.54 519.34 909.54 486.22 898.78 492.43 898.78 525.55"/><polygon class="cls-11" points="909.54 486.22 898.78 480.01 888.03 486.22 898.78 492.43 909.54 486.22"/><path class="cls-7" d="M898.78,525.55a1.1,1.1,0,0,1-.37-1v-3.11l0-4.14,0-8.28c.06-5.52.13-11,.29-16.56.16,5.52.23,11,.29,16.56l0,8.28,0,4.14v3.11A1.1,1.1,0,0,1,898.78,525.55Z"/><path class="cls-7" d="M909.54,486.22c.07.39,0,.47-.15.52l-.34.19-.67.39-1.35.77c-.91.49-1.81,1-2.72,1.49-1.83,1-3.65,2-5.53,2.85,1.72-1.17,3.47-2.27,5.23-3.36.88-.55,1.77-1.07,2.66-1.6l1.34-.79.67-.39.33-.2C909.12,486,909.24,486,909.54,486.22Z"/><polygon class="cls-58" points="905.96 529.69 916.71 535.9 916.71 506.92 905.96 500.71 905.96 529.69"/><polygon class="cls-12" points="916.71 535.9 927.47 529.69 927.47 500.71 916.71 506.92 916.71 535.9"/><polygon class="cls-11" points="927.47 500.71 916.71 494.5 905.96 500.71 916.71 506.92 927.47 500.71"/><path class="cls-7" d="M916.71,535.9a.89.89,0,0,1-.37-.9v-2.72l0-3.62c0-2.42,0-4.83,0-7.25.06-4.83.13-9.66.29-14.49.16,4.83.23,9.66.3,14.49,0,2.42,0,4.83,0,7.25l0,3.62V535A.89.89,0,0,1,916.71,535.9Z"/><path class="cls-7" d="M927.47,500.71c.07.39,0,.47-.15.52l-.34.19-.67.39-1.35.77c-.91.49-1.81,1-2.72,1.49-1.83,1-3.65,2-5.53,2.85,1.72-1.17,3.47-2.27,5.23-3.36.88-.55,1.77-1.07,2.66-1.61l1.34-.78.67-.39.33-.2C927.05,500.5,927.17,500.45,927.47,500.71Z"/><polygon class="cls-58" points="870.1 529.69 880.85 535.9 880.85 502.78 870.1 496.57 870.1 529.69"/><polygon class="cls-12" points="880.85 535.9 891.61 529.69 891.61 496.57 880.85 502.78 880.85 535.9"/><polygon class="cls-11" points="891.61 496.57 880.85 490.36 870.1 496.57 880.85 502.78 891.61 496.57"/><path class="cls-7" d="M880.85,535.9a1.1,1.1,0,0,1-.37-1v-3.11l0-4.14,0-8.28c.06-5.52.13-11,.29-16.56.16,5.52.23,11,.29,16.56l.05,8.28,0,4.14v3.11A1.1,1.1,0,0,1,880.85,535.9Z"/><path class="cls-7" d="M891.61,496.57c.07.39,0,.47-.15.52l-.34.19-.67.39-1.35.77c-.91.49-1.81,1-2.72,1.49-1.83,1-3.66,2-5.53,2.85,1.72-1.17,3.47-2.27,5.23-3.36.88-.55,1.77-1.07,2.66-1.61l1.34-.78.67-.39.33-.2C891.19,496.36,891.3,496.31,891.61,496.57Z"/><polygon class="cls-58" points="888.03 540.04 898.78 546.25 898.79 521.41 888.03 515.2 888.03 540.04"/><polygon class="cls-12" points="898.78 546.25 909.54 540.04 909.54 515.2 898.79 521.41 898.78 546.25"/><polygon class="cls-11" points="909.54 515.2 898.78 508.99 888.03 515.2 898.79 521.41 909.54 515.2"/><path class="cls-7" d="M898.78,546.25a.72.72,0,0,1-.37-.77v-2.33l0-3.11c0-2.07,0-4.14,0-6.21.06-4.14.14-8.28.3-12.42.16,4.14.23,8.28.29,12.42,0,2.07,0,4.14,0,6.21v5.44A.72.72,0,0,1,898.78,546.25Z"/><path class="cls-7" d="M909.54,515.2c.08.39,0,.47-.15.52l-.34.19-.67.39-1.35.77c-.91.49-1.8,1-2.72,1.49-1.82,1-3.65,2-5.52,2.85,1.71-1.17,3.47-2.27,5.23-3.36.87-.55,1.77-1.07,2.65-1.61l1.34-.78.67-.39.34-.2C909.12,515,909.24,514.94,909.54,515.2Z"/><path class="cls-59" d="M901.08,468.33a3.88,3.88,0,0,1-2.3.55h0v81a3.57,3.57,0,0,0,1.53-.36l32.53-18.78c.61-.34.9-.63.9-1V449.48Z"/><path class="cls-60" d="M898.74,468.88a5.33,5.33,0,0,1-.57,0h0a4.85,4.85,0,0,1-.55-.09l-.34-.1-.22-.07a3.54,3.54,0,0,1-.52-.25l-32.68-18.86v80.21a1.1,1.1,0,0,0,.63.88l32.8,18.94a3.54,3.54,0,0,0,1.49.36h0v-81Z"/><path class="cls-49" d="M872.94,503.51a19.87,19.87,0,0,0-2.55-.15,4.74,4.74,0,0,1-2.2-.19c-.92-.3-3.07-2.1-4.91-4a25.81,25.81,0,0,1-4.7-7.37c-1.24-3.29-2.28-8.25-2.89-10.2A3.19,3.19,0,0,0,853,479c-1.38-.3-2.57.72-2.05,3.62a55.07,55.07,0,0,0,3.68,11.54,27.39,27.39,0,0,0,5.15,7.32,32,32,0,0,0,6.11,4.74c.63.41,1,.88,2.12,1.81a9.08,9.08,0,0,0,3.84,1.94c1.2.19,1.66.08,1.81-.15s0-.54-.55-.69a7.42,7.42,0,0,1-2.45-1s1.16.39,1.87.57a7.68,7.68,0,0,0,2,.21c.63,0,1.14-.82.6-1s-1-.15-2.06-.43a7.28,7.28,0,0,1-1.61-.62,13.29,13.29,0,0,0,2.17.25,3.07,3.07,0,0,0,1.69-.34c.27-.14.42-.69-.28-.81a10.72,10.72,0,0,1-2.63-.36c-.84-.29-1.4-.61-1.24-.7s.64.12,1.4,0,1.39-.66,1.29-1.07S873.71,503.51,872.94,503.51Z"/><path class="cls-50" d="M852.1,478.84c-1.45.6-2.14,2.17-1.57,5s1.75,7.09,1.75,7.09a9,9,0,0,0,5.5-2.23s-1.34-6.12-1.86-7.7S854,478,852.1,478.84Z"/><path class="cls-49" d="M1098.08,699c.17,1.48,1.94,7.88,1.56,10.07s-6.42,5.85-6.42,5.85l-.84-3.75,3.35-3.28-.91-6.21Z"/><path class="cls-50" d="M1093.41,691.81a2.63,2.63,0,0,1,3.36,1c.89,1.47,1.81,6.52,1.9,7.39a3.56,3.56,0,0,1-3.12,1.43Z"/><path class="cls-51" d="M1094.25,759.75a12.88,12.88,0,0,0,.27,1.49c.16.64.19,1.47-.53,1.7a1.75,1.75,0,0,1-2-.46,13.7,13.7,0,0,0-1.72-2.51,6,6,0,0,1-2.08-2.71c-.26-1-.1-1.69.62-1.8a5.4,5.4,0,0,1,3.06,1.16A27.64,27.64,0,0,1,1094.25,759.75Z"/><path class="cls-51" d="M1086,762.78s0,.83.1,1.49a6.13,6.13,0,0,1,.07,2.2c-.21.49-1.3.85-2.58.84a6.33,6.33,0,0,0-3,1.13,4.73,4.73,0,0,1-3.78.65c-1.1-.35-2.32-.86-2.51-1.36s.39-.76,3.08-2,4.66-2.08,5.7-3.5Z"/><path class="cls-61" d="M1094.9,745.49a31.16,31.16,0,0,0-1.18-5.6s.35-4.83.53-9.41c.2-5.2,2-9.78.58-13.93l-16,3.57s1,20.73,1.18,23.24a48.68,48.68,0,0,0,.72,5.81c.74,4,1.93,13.6,1.93,13.6a3.57,3.57,0,0,0,3.37,0s.43-11.67.32-14.57c-.14-3.54-.24-3.27-.24-3.27l.53-8.82.34-4.39s.45,3.22.74,6.1c.25,2.5.85,4.77,1.53,9.44.59,4.05,2.12,12.39,2.12,12.39a2.72,2.72,0,0,0,2.92.09S1095.36,749,1094.9,745.49Z"/><path class="cls-62" d="M1086.94,731.73s.45,3.22.74,6.1c.12,1.21.32,2.36.58,3.75,0,0-.23-5.35-.14-7.88s.34-5.28.34-5.28c3.37-1.43,4.06-3.48,4.06-3.48a13.93,13.93,0,0,1-5.13,2.79Z"/><path class="cls-49" d="M1092.56,691.89c-1.22.06-2.13.38-2.28,0A15.71,15.71,0,0,1,1090,690c.14-.36.26-.74.26-.74a5.93,5.93,0,0,0,2.83-4.47,6,6,0,0,0-5.35-6.59c-3.1-.33-5.38,1.85-6,4.85a13.91,13.91,0,0,0,.11,7c.49,1.36.92,2,1.56,2.17a12.65,12.65,0,0,0,1.83,0h0s.16.92.28,1.5.06.9-1.11,1.62,1.77,2.21,3.7,2.06,4.08-1.3,4.67-2.55S1093.4,691.85,1092.56,691.89Z"/><path class="cls-54" d="M1084.42,695.36l-.09.08,1.67.58,5-.77,1.16-3-.12-.35c-.93.1-1.6.27-1.72,0a10.58,10.58,0,0,1-.26-1.66c-.89.16-1.94.34-2.2.35-.45,0-2-2.31-2-2.31a18,18,0,0,1-.43,2.49,3.62,3.62,0,0,1-2.19,1.37l.26.11a12.65,12.65,0,0,0,1.83,0h0s.16.92.28,1.5S1085.59,694.64,1084.42,695.36Z"/><path class="cls-63" d="M1093.13,681c-.15-.71-.65-1.64-4.52-2.73-3.69-1-6.58-1.47-7.28-1s-.89,4.12,2.6,5.85a2.21,2.21,0,0,1,.22,1c0,.57-.05,1,0,1.63a1.1,1.1,0,0,0,1,.93v-1.55a1.14,1.14,0,0,1,2,.1,2.66,2.66,0,0,1-.12,2.45c-.41.77-1.09.84-1.33.56a4.83,4.83,0,0,0,1.15,3.28,3.62,3.62,0,0,0,3.17-.69,15.63,15.63,0,0,1,1.17-2,9.66,9.66,0,0,0,1.86-3.72A8.81,8.81,0,0,0,1093.13,681Z"/><path class="cls-55" d="M1090.79,692.08c.34.84-.52,1.87-2.81,2.59s-2.5-.2-2.5-.2a45.23,45.23,0,0,0-4.46,2.29c-1.38,1-2,3.75-2.18,8.45-.21,5.44-.23,13.52,0,14.91a8.31,8.31,0,0,0,5.87,2.3c3.29-.27,8.83-3.19,10.18-5.44,0-4.77-.6-5.55.17-8.3,1.77-6.29,2.7-8.87,1.84-13-.71-3.44-1.7-3.87-3.06-3.84A29.49,29.49,0,0,0,1090.79,692.08Z"/><path class="cls-50" d="M1090.2,691.61a6.52,6.52,0,0,1-4.7,2c-.5-.08-.77.88-1,1.36,0,0,1.15.94,3.72.29s3.48-2.55,3.26-3.25C1091.43,692,1090.61,691.09,1090.2,691.61Z"/><path class="cls-49" d="M1073.67,710.6c2.7.68,3.33-1,3.69-2.44.86-3.41,1.32-6.5,2-8.44.76-2.29,1.55-2.65,2.66-3.1,1.3-.52,2.43.58,2,3.49a58.42,58.42,0,0,1-2.47,9.94,8.91,8.91,0,0,1-2.22,3.87c-1.4,1.12-3.5,1.08-6.67.29a36.13,36.13,0,0,1-5.41-2.35c-.69-.32-1.22-.53-2.54-1.15a9,9,0,0,1-3.39-2.64c-.69-1-.78-1.47-.64-1.7s.49-.23.86.2a7.21,7.21,0,0,0,1.94,1.79s-.85-.88-1.32-1.45a7.5,7.5,0,0,1-1-1.67c-.24-.58.26-1.38.64-1s.57.84,1.27,1.68a7,7,0,0,0,1.25,1.19,13.78,13.78,0,0,1-1.15-1.85,3,3,0,0,1-.42-1.68c0-.31.45-.67.85-.09a11.48,11.48,0,0,0,1.45,2.22c.62.64,1.14,1,1.16.83s-.37-.53-.59-1.28,0-1.53.41-1.62.33-.06.66.64a20.08,20.08,0,0,1,1.23,2.23,4.59,4.59,0,0,0,1.11,1.91C1069.63,709.17,1071.1,710,1073.67,710.6Z"/><path class="cls-50" d="M1083,696.16c-1.8-.27-3.08.54-3.88,3.28s-1.35,5-1.35,5a4.89,4.89,0,0,0,3,2c2.16.53,2.94-.5,2.94-.5s.6-2.87,1-4.82S1085.21,696.49,1083,696.16Z"/><path class="cls-3" d="M1204.49,574.48l6.23-3.6c4.22-2.43,10-3,13-1.3s2,5.08-2.27,7.51l-6.22,3.6c-4.22,2.44-10,3-13,1.31S1200.27,576.92,1204.49,574.48Z"/><g class="cls-64"><path class="cls-58" d="M1141.71,480.47l38.44-22.19c1.27-.73,2.29-.14,2.29,1.33v27.82a5.05,5.05,0,0,1-2.29,4l-38.44,22.19c-1.26.74-2.29.14-2.29-1.32V484.45A5.1,5.1,0,0,1,1141.71,480.47Z"/><path class="cls-65" d="M1141.71,480.47l38.44-22.19c1.27-.73,2.29-.14,2.29,1.33v27.82a5.05,5.05,0,0,1-2.29,4l-38.44,22.19c-1.26.74-2.29.14-2.29-1.32V484.45A5.1,5.1,0,0,1,1141.71,480.47Z"/><path class="cls-66" d="M1144.15,484.63l15.63-9c.64-.37,1.15-.07,1.15.66v.06a2.52,2.52,0,0,1-1.15,2l-15.63,9c-.63.36-1.15.06-1.15-.67v-.06A2.56,2.56,0,0,1,1144.15,484.63Z"/><path class="cls-66" d="M1164.24,473l13.47-7.78c.64-.37,1.15-.07,1.15.66V466a2.52,2.52,0,0,1-1.15,2l-13.47,7.78c-.63.36-1.15.07-1.15-.66V475A2.53,2.53,0,0,1,1164.24,473Z"/><g class="cls-67"><path class="cls-68" d="M1144.15,497.39l15.63-9c.64-.37,1.15-.07,1.15.66v.06a2.52,2.52,0,0,1-1.15,2l-15.63,9c-.63.36-1.15.06-1.15-.67v-.06A2.56,2.56,0,0,1,1144.15,497.39Z"/><path class="cls-68" d="M1164.24,485.8l13.47-7.78c.64-.37,1.15-.07,1.15.66v.06a2.52,2.52,0,0,1-1.15,2l-13.47,7.78c-.63.36-1.15.07-1.15-.66v-.07A2.53,2.53,0,0,1,1164.24,485.8Z"/></g><g class="cls-67"><path class="cls-68" d="M1144.15,491l8.46-4.88c.64-.37,1.15-.07,1.15.66v.06a2.54,2.54,0,0,1-1.15,2l-8.46,4.89c-.63.36-1.15.06-1.15-.67V493A2.56,2.56,0,0,1,1144.15,491Z"/><path class="cls-68" d="M1156.41,483.93l7.18-4.17c.64-.36,1.15-.07,1.15.66v.07a2.54,2.54,0,0,1-1.15,2l-7.18,4.16c-.63.37-1.14.08-1.14-.65v-.07A2.55,2.55,0,0,1,1156.41,483.93Z"/><path class="cls-68" d="M1167.66,477.41l10-5.77c.63-.37,1.15-.07,1.15.66v.06a2.55,2.55,0,0,1-1.15,2l-10,5.77c-.63.36-1.15.07-1.15-.66v-.07A2.53,2.53,0,0,1,1167.66,477.41Z"/></g><g class="cls-67"><path class="cls-68" d="M1144.15,503.84l13.64-7.85c.63-.37,1.14-.07,1.14.66v.06a2.55,2.55,0,0,1-1.14,2l-13.64,7.86c-.63.36-1.15.06-1.15-.67v-.06A2.56,2.56,0,0,1,1144.15,503.84Z"/><path class="cls-68" d="M1161.59,493.79l7.18-4.17c.63-.36,1.14-.07,1.14.66v.07a2.55,2.55,0,0,1-1.14,2l-7.18,4.16c-.64.37-1.15.08-1.15-.65v-.07A2.54,2.54,0,0,1,1161.59,493.79Z"/><path class="cls-68" d="M1172.84,487.27l4.87-2.81c.63-.36,1.15-.06,1.15.67v.06a2.55,2.55,0,0,1-1.15,2l-4.87,2.8c-.64.36-1.15.07-1.15-.66v-.07A2.5,2.5,0,0,1,1172.84,487.27Z"/></g></g><g class="cls-69"><path class="cls-58" d="M1148.88,484.61l38.44-22.19c1.27-.73,2.29-.14,2.29,1.33v27.82a5.06,5.06,0,0,1-2.3,4l-38.44,22.2c-1.26.73-2.29.13-2.29-1.33V488.59A5.1,5.1,0,0,1,1148.88,484.61Z"/><path class="cls-65" d="M1148.88,484.61l38.44-22.19c1.27-.73,2.29-.14,2.29,1.33v27.82a5.06,5.06,0,0,1-2.3,4l-38.44,22.2c-1.26.73-2.29.13-2.29-1.33V488.59A5.1,5.1,0,0,1,1148.88,484.61Z"/><path class="cls-66" d="M1151.32,488.77l15.64-9c.63-.37,1.14-.07,1.14.66v.06a2.54,2.54,0,0,1-1.14,2l-15.64,9c-.63.36-1.14.06-1.14-.67v-.06A2.55,2.55,0,0,1,1151.32,488.77Z"/><path class="cls-66" d="M1171.41,477.18l13.47-7.78c.64-.37,1.15-.07,1.15.66v.06a2.52,2.52,0,0,1-1.15,2l-13.47,7.78c-.63.36-1.15.07-1.15-.66v-.07A2.53,2.53,0,0,1,1171.41,477.18Z"/><g class="cls-67"><path class="cls-68" d="M1151.32,501.53l15.64-9c.63-.37,1.14-.07,1.14.66v.06a2.54,2.54,0,0,1-1.14,2l-15.64,9c-.63.36-1.14.06-1.14-.67v-.06A2.55,2.55,0,0,1,1151.32,501.53Z"/><path class="cls-68" d="M1171.41,489.94l13.47-7.78c.64-.37,1.15-.07,1.15.66v.06a2.52,2.52,0,0,1-1.15,2l-13.47,7.78c-.63.36-1.15.07-1.15-.66v-.07A2.53,2.53,0,0,1,1171.41,489.94Z"/></g><g class="cls-67"><path class="cls-68" d="M1151.32,495.15l8.47-4.88c.63-.37,1.14-.07,1.14.66V491a2.55,2.55,0,0,1-1.14,2l-8.47,4.89c-.63.36-1.14.06-1.14-.67v-.06A2.55,2.55,0,0,1,1151.32,495.15Z"/><path class="cls-68" d="M1163.58,488.07l7.18-4.17c.64-.36,1.15-.07,1.15.66v.07a2.54,2.54,0,0,1-1.15,2l-7.18,4.16c-.63.37-1.14.08-1.14-.65v-.07A2.55,2.55,0,0,1,1163.58,488.07Z"/><path class="cls-68" d="M1174.83,481.55l10.05-5.77c.64-.37,1.15-.07,1.15.66v.06a2.52,2.52,0,0,1-1.15,2l-10.05,5.77c-.63.36-1.14.07-1.14-.66v-.07A2.52,2.52,0,0,1,1174.83,481.55Z"/></g><g class="cls-67"><path class="cls-68" d="M1151.32,508l13.64-7.85c.63-.37,1.15-.07,1.15.66v.06a2.55,2.55,0,0,1-1.15,2l-13.64,7.86c-.63.36-1.14.06-1.14-.67V510A2.55,2.55,0,0,1,1151.32,508Z"/><path class="cls-68" d="M1168.76,497.93l7.18-4.17c.63-.36,1.14-.07,1.14.66v.07a2.55,2.55,0,0,1-1.14,2l-7.18,4.16c-.63.37-1.15.08-1.15-.65v-.07A2.56,2.56,0,0,1,1168.76,497.93Z"/><path class="cls-68" d="M1180,491.41l4.87-2.81c.64-.36,1.15-.06,1.15.67v.06a2.52,2.52,0,0,1-1.15,2l-4.87,2.8c-.64.36-1.15.07-1.15-.66v-.07A2.5,2.5,0,0,1,1180,491.41Z"/></g></g><g class="cls-21"><path class="cls-58" d="M1156.05,488.75l38.44-22.19c1.27-.73,2.3-.14,2.3,1.33v27.82a5.06,5.06,0,0,1-2.3,4l-38.44,22.2c-1.26.73-2.29.13-2.29-1.33V492.73A5.1,5.1,0,0,1,1156.05,488.75Z"/><path class="cls-65" d="M1156.05,488.75l38.44-22.19c1.27-.73,2.3-.14,2.3,1.33v27.82a5.06,5.06,0,0,1-2.3,4l-38.44,22.2c-1.26.73-2.29.13-2.29-1.33V492.73A5.1,5.1,0,0,1,1156.05,488.75Z"/><path class="cls-66" d="M1158.49,492.91l15.64-9c.63-.37,1.14-.07,1.14.66v.06a2.54,2.54,0,0,1-1.14,2l-15.64,9c-.63.36-1.14.07-1.14-.67v-.06A2.55,2.55,0,0,1,1158.49,492.91Z"/><path class="cls-66" d="M1178.58,481.32l13.47-7.78c.64-.37,1.15-.07,1.15.66v.06a2.52,2.52,0,0,1-1.15,2L1178.58,484c-.63.36-1.14.07-1.14-.66v-.07A2.52,2.52,0,0,1,1178.58,481.32Z"/><g class="cls-67"><path class="cls-68" d="M1158.49,505.67l15.64-9c.63-.37,1.14-.07,1.14.66v.06a2.54,2.54,0,0,1-1.14,2l-15.64,9c-.63.36-1.14.06-1.14-.67v-.06A2.55,2.55,0,0,1,1158.49,505.67Z"/><path class="cls-68" d="M1178.58,494.08l13.47-7.78c.64-.37,1.15-.07,1.15.66V487a2.52,2.52,0,0,1-1.15,2l-13.47,7.78c-.63.36-1.14.07-1.14-.66v-.07A2.52,2.52,0,0,1,1178.58,494.08Z"/></g><g class="cls-67"><path class="cls-68" d="M1158.49,499.29l8.47-4.88c.63-.37,1.14-.07,1.14.66v.06a2.54,2.54,0,0,1-1.14,2l-8.47,4.89c-.63.36-1.14.06-1.14-.67v-.06A2.55,2.55,0,0,1,1158.49,499.29Z"/><path class="cls-68" d="M1170.76,492.21l7.18-4.17c.63-.36,1.14-.07,1.14.66v.07a2.55,2.55,0,0,1-1.14,2l-7.18,4.16c-.64.37-1.15.08-1.15-.65v-.07A2.54,2.54,0,0,1,1170.76,492.21Z"/><path class="cls-68" d="M1182,485.69l10-5.77c.64-.37,1.15-.07,1.15.66v.06a2.52,2.52,0,0,1-1.15,2l-10,5.77c-.64.36-1.15.07-1.15-.66v-.07A2.5,2.5,0,0,1,1182,485.69Z"/></g><g class="cls-67"><path class="cls-68" d="M1158.49,512.12l13.64-7.85c.63-.37,1.15-.07,1.15.66V505a2.55,2.55,0,0,1-1.15,2l-13.64,7.86c-.63.36-1.14.06-1.14-.67v-.06A2.55,2.55,0,0,1,1158.49,512.12Z"/><path class="cls-68" d="M1175.93,502.07l7.18-4.17c.63-.36,1.14-.07,1.14.66v.07a2.55,2.55,0,0,1-1.14,2l-7.18,4.16c-.63.37-1.15.08-1.15-.65v-.07A2.56,2.56,0,0,1,1175.93,502.07Z"/><path class="cls-68" d="M1187.18,495.55l4.87-2.81c.64-.36,1.15-.06,1.15.67v.06a2.52,2.52,0,0,1-1.15,2l-4.87,2.8c-.64.36-1.15.07-1.15-.66v-.07A2.5,2.5,0,0,1,1187.18,495.55Z"/></g></g><g class="cls-70"><path class="cls-58" d="M1163.23,492.89l38.43-22.19c1.27-.73,2.3-.14,2.3,1.33v27.82a5.06,5.06,0,0,1-2.3,4L1163.23,526c-1.27.73-2.3.13-2.3-1.33V496.87A5.08,5.08,0,0,1,1163.23,492.89Z"/><path class="cls-65" d="M1163.23,492.89l38.43-22.19c1.27-.73,2.3-.14,2.3,1.33v27.82a5.06,5.06,0,0,1-2.3,4L1163.23,526c-1.27.73-2.3.13-2.3-1.33V496.87A5.08,5.08,0,0,1,1163.23,492.89Z"/><path class="cls-66" d="M1165.66,497.05l15.64-9c.63-.37,1.14-.07,1.14.66v.06a2.54,2.54,0,0,1-1.14,2l-15.64,9c-.63.36-1.14.07-1.14-.67V499A2.55,2.55,0,0,1,1165.66,497.05Z"/><path class="cls-66" d="M1185.75,485.46l13.48-7.78c.63-.37,1.14-.07,1.14.66v.06a2.54,2.54,0,0,1-1.14,2l-13.48,7.78c-.63.36-1.14.07-1.14-.66v-.07A2.52,2.52,0,0,1,1185.75,485.46Z"/><g class="cls-67"><path class="cls-68" d="M1165.66,509.81l15.64-9c.63-.37,1.14-.07,1.14.66v.06a2.54,2.54,0,0,1-1.14,2l-15.64,9c-.63.36-1.14.06-1.14-.67v-.06A2.55,2.55,0,0,1,1165.66,509.81Z"/><path class="cls-68" d="M1185.75,498.22l13.48-7.78c.63-.37,1.14-.07,1.14.66v.06a2.54,2.54,0,0,1-1.14,2l-13.48,7.78c-.63.36-1.14.07-1.14-.66v-.07A2.52,2.52,0,0,1,1185.75,498.22Z"/></g><g class="cls-67"><path class="cls-68" d="M1165.66,503.43l8.47-4.88c.63-.37,1.14-.07,1.14.66v.06a2.54,2.54,0,0,1-1.14,2l-8.47,4.89c-.63.36-1.14.07-1.14-.67v-.06A2.55,2.55,0,0,1,1165.66,503.43Z"/><path class="cls-68" d="M1177.93,496.35l7.18-4.17c.63-.36,1.14-.07,1.14.66v.07a2.55,2.55,0,0,1-1.14,2l-7.18,4.16c-.63.37-1.15.08-1.15-.65v-.07A2.56,2.56,0,0,1,1177.93,496.35Z"/><path class="cls-68" d="M1189.18,489.83l10-5.77c.64-.37,1.15-.07,1.15.66v.06a2.52,2.52,0,0,1-1.15,2l-10,5.77c-.64.36-1.15.07-1.15-.66v-.07A2.5,2.5,0,0,1,1189.18,489.83Z"/></g><g class="cls-67"><path class="cls-68" d="M1165.66,516.26l13.64-7.85c.63-.37,1.15-.07,1.15.66v.06a2.55,2.55,0,0,1-1.15,2L1165.66,519c-.63.36-1.14.06-1.14-.67v-.06A2.55,2.55,0,0,1,1165.66,516.26Z"/><path class="cls-68" d="M1183.1,506.21l7.18-4.17c.63-.36,1.14-.07,1.14.66v.07a2.55,2.55,0,0,1-1.14,2l-7.18,4.17c-.63.36-1.14.07-1.14-.66v-.07A2.55,2.55,0,0,1,1183.1,506.21Z"/><path class="cls-68" d="M1194.35,499.69l4.87-2.8c.64-.37,1.15-.07,1.15.66v.06a2.52,2.52,0,0,1-1.15,2l-4.87,2.8c-.64.36-1.15.07-1.15-.66v-.07A2.5,2.5,0,0,1,1194.35,499.69Z"/></g></g><path class="cls-49" d="M1213.4,571.81c.62-.67,1.24-3.71,1.24-3.71a6.47,6.47,0,0,0,.29-1.62c0-.47-.54-3.7-.54-3.7l3.16-.31s-.18,2.66-.19,3.51a8.85,8.85,0,0,0,.37,2.87c-.15.45-1.89,3.59-1.89,3.6s-1.87.48-1.87.48l-.91-.38Z"/><path class="cls-51" d="M1212.92,573.57c-.44-.1-1.85-1.08-1-1.52a1.8,1.8,0,0,1,1.36-.15s-.19.34.11.31c.56-.05,1-2.53,1-3.36l1.57.57-.63,3.42-.72.47-1.2.26Z"/><path class="cls-71" d="M1215,570.08a4.28,4.28,0,0,1-.57,2.65,1.36,1.36,0,0,1-1.32.76,8.24,8.24,0,0,0,4.34-.23c.36-.26.12-1,.12-1.83s.26-1.83.24-2.29S1215,570.08,1215,570.08Z"/><path class="cls-51" d="M1216,567.18a1.83,1.83,0,0,0-1.65,1.77c-.05.82.78.92,1.43,2.49a9.83,9.83,0,0,1,.45,3.24.39.39,0,0,0,.54,0s0-.93.06-1.83a14.41,14.41,0,0,1,.23-1.88c.25-.84.77-1.23.7-2.09a2.73,2.73,0,0,0-.5-1.34A1.91,1.91,0,0,0,1216,567.18Z"/><path class="cls-71" d="M1209.82,578.36s.28.5,1.81-.14a3.76,3.76,0,0,0,1.27-.8,14.86,14.86,0,0,1,.6-1.68s-.31-2-1.25-1.23S1209.82,578.36,1209.82,578.36Z"/><path class="cls-49" d="M1213.36,567.52c.18,1.13.27,1.91.39,2.61a2.91,2.91,0,0,0,.46,1.19,3.35,3.35,0,0,1,.66,1.45,4.59,4.59,0,0,0-2.74,1.51c-.92,1.25-.87,2.5-1.73,2.71s-2.29-.78-2.29-.78a1.48,1.48,0,0,0,1.26-1.17c.36-1.14,1.28-3.61,1.36-4.24a7.78,7.78,0,0,0-.68-2.71Z"/><path class="cls-51" d="M1213.67,571.37c-.79,0-2,1.31-2.4,2.22a6.65,6.65,0,0,1-1.59,2.5c-.51.28-1.42-.14-2.2-.14s-1.33.35-1.37.92l3.24,1.53c.74.36,1.37.37,2-1.18s1.13-2.89,1.87-1.8a8.33,8.33,0,0,1,.91,2.82s.3.24.65-.14a7.38,7.38,0,0,1-.18-1.63c0-2.08.72-2.59.53-3.41C1214.82,571.86,1214.52,571.32,1213.67,571.37Z"/><path class="cls-57" d="M1205,490.05s-2.06-1.2-1.85-3,2.94-6.17,7.83-4.05C1215.52,484,1205,490.05,1205,490.05Z"/><path class="cls-49" d="M1216.66,498c1.41.4,2.21,2,3.45,5.29s2.52,8.18,2.35,9.46c-.39,3.14-2.34,5.82-5.7,8l-1.5-2.74s3.29-2.65,3.61-5.79c.18-1.76-2.11-7.76-2.11-7.92S1216.66,498,1216.66,498Z"/><path class="cls-52" d="M1218.1,552.15a33.62,33.62,0,0,1-.39-5.12s.55-5.32,1-9.88c.65-6.73,1.93-8.26,1.2-12.32-.64-3.51-3-6.24-4-8.82l-11,.87s-1,3.11-2.19,9.31-.77,14.61.17,23.27c.27,2.51,1.85,5.87,3.63,10.12,1.63,3.89,4.1,10.3,4.1,10.3,1.69,1,3.05-.71,3.05-.71s-1.26-8.44-1.77-11.29a14.76,14.76,0,0,0-3.13-7.22s.51-3.53.87-6.66c.39-3.39,1.53-9,1.53-9s.06,8.71.23,11.22a57,57,0,0,0,1.15,7.69c.72,4,2.31,12,2.31,12a3.17,3.17,0,0,0,2.53-.09S1218.55,555.66,1218.1,552.15Z"/><path class="cls-53" d="M1217.71,528.83c-2.17,2.24-6,2.71-6,2.71l-.52,3.45c-.14,2.82.22,6.15.15,9.38,0,0,.79-8.42,1.84-9.81S1217,530.76,1217.71,528.83Z"/><path class="cls-49" d="M1216,497.91c-2.34-.14-2.56.25-2.75-.58-.07-.3-.2-2.35-.2-2.35a7,7,0,0,0,.59-.87,6,6,0,0,0-2.52-11.06c-3.1-.33-5.38,1.85-6,4.85a13.2,13.2,0,0,0,.25,6.91c.52,1.37,1,2.33,2.24,2.28a7.49,7.49,0,0,0,1.22-.21,11.25,11.25,0,0,1,.07,1.71c0,.6.06.9-1.11,1.62s1.77,2.21,3.7,2.06,4.08-1.3,4.67-2.55S1217.11,498,1216,497.91Z"/><path class="cls-54" d="M1214.34,493.61l-2,.11-2.19,0-.68-.79s-.14,2.53-.83,3.15a5.83,5.83,0,0,1-1.6,1,2,2,0,0,0,.61.08,7.49,7.49,0,0,0,1.22-.21,11.25,11.25,0,0,1,.07,1.71c0,.6.06.9-1.11,1.62s1.77,2.21,3.7,2.06,4.08-1.3,4.67-2.55.93-1.74-.17-1.81c-2.34-.14-2.56.25-2.75-.58-.07-.3-.2-2.35-.2-2.35a7,7,0,0,0,.59-.87A6.72,6.72,0,0,0,1214.34,493.61Z"/><path class="cls-57" d="M1214.3,494.31a6.48,6.48,0,0,0,2.18-4.67,6,6,0,0,0-5.35-6.59,4.94,4.94,0,0,0-5.45,3.2,1,1,0,0,0,.72.47,1.53,1.53,0,0,0,.33,1.24,3,3,0,0,1,.74,1.72,12.32,12.32,0,0,0,.11,2,1,1,0,0,0,1,.7s.05-1.24.18-2.43c.37-.84,1.86-1,2.14.05a3,3,0,0,1-.34,2.3c-.26.53-.72.8-1.14.6a2.22,2.22,0,0,0,1.85,2.51c1.31.37,1.43-.11,2.1-.46A5.59,5.59,0,0,0,1214.3,494.31Z"/><path class="cls-55" d="M1213.69,497.86c.43.54.48,1.22-1.19,1.64a5.25,5.25,0,0,1-3.65-.28,24.69,24.69,0,0,0-3.78,2c-3.74,2.6-4.64,7.1-.87,8.65.23,1.69.51,6,.58,7,3.18,2.23,9.65,1.47,11.1-.89a18.52,18.52,0,0,1,.22-2.35c1.52-5.63,2.71-7.13,2.28-11.38-.24-2.43-.43-3.65-1.72-4.3A11,11,0,0,0,1213.69,497.86Z"/><path class="cls-57" d="M1209.45,492.89v14.77s1.53,1.06,4.2-.22,2.86-2.05,2.86-3.47V488.92s-3,3.61-5.23,4.36C1209.58,493.87,1209.45,492.89,1209.45,492.89Z"/><path class="cls-49" d="M1182.19,516a19.45,19.45,0,0,1,2.44.69,8.42,8.42,0,0,0,2.33.78c.88.14,2.26-.32,4.64-1.44a25.68,25.68,0,0,0,7-5.23,60.14,60.14,0,0,0,6.07-8.67c1-1.88,2.33-2.35,3.47-2,1.36.45,1.52,1.79,0,4.32a48,48,0,0,1-6.95,9.11,26.21,26.21,0,0,1-7.25,5.11,22.32,22.32,0,0,1-6.1,2.12c-.74.16-1.25.47-2.62.95a9,9,0,0,1-4.27.47c-1.2-.23-1.59-.5-1.65-.77s.19-.5.75-.45a7.54,7.54,0,0,0,2.65-.07s-1.23,0-2-.13a7.09,7.09,0,0,1-1.9-.48c-.58-.25-.77-1.17-.21-1.14s1,.21,2.08.32a7.07,7.07,0,0,0,1.73,0,14.13,14.13,0,0,1-2.12-.53,3,3,0,0,1-1.47-.91c-.2-.23-.15-.79.55-.66a10.87,10.87,0,0,0,2.58.58c.89,0,1.52-.08,1.41-.22s-.64-.11-1.31-.49-1.07-1.11-.84-1.45S1181.46,515.74,1182.19,516Z"/><path class="cls-71" d="M975.2,767.38s-.28.48-1.76-.14a3.92,3.92,0,0,1-1.89-1.36s.38-3,1.3-2.22A16.55,16.55,0,0,1,975.2,767.38Z"/><path class="cls-49" d="M971.48,757c0,1.56.07,2.75-.53,3.59a3.2,3.2,0,0,0-.64,1.4,4.48,4.48,0,0,1,2.66,1.46c.89,1.21.84,2.42,1.67,2.62s2.21-.75,2.21-.75a1.45,1.45,0,0,1-1.22-1.14,41.48,41.48,0,0,1-1.26-4.07c0-.62,0-3,0-3Z"/><path class="cls-51" d="M971.46,761a3.37,3.37,0,0,1,2.33,1.79,6.46,6.46,0,0,0,1.54,2.41c.5.28,1.38-.13,2.13-.13s1.28.34,1.33.89l-3.13,1.48c-.73.35-1.33.36-1.9-1.14s-.78-2.35-1.23-1.33a14.48,14.48,0,0,0-.64,3.32.74.74,0,0,1-.91-.38,15,15,0,0,0-.11-2c-.13-.92-1-2.08-.9-3.19S970.63,760.93,971.46,761Z"/><path class="cls-71" d="M986.86,773.4s-.29.49-1.82-.15a4,4,0,0,1-2-1.41s.4-3.07,1.35-2.3S986.86,773.4,986.86,773.4Z"/><path class="cls-49" d="M983,762.65c0,1.61.07,2.84-.54,3.71a3.3,3.3,0,0,0-.66,1.45,4.56,4.56,0,0,1,2.74,1.51c.92,1.25.87,2.5,1.73,2.71s2.29-.78,2.29-.78a1.52,1.52,0,0,1-1.27-1.18,39.46,39.46,0,0,1-1.29-4.21c0-.64-.16-3.21-.16-3.21Z"/><path class="cls-51" d="M983,766.77a3.48,3.48,0,0,1,2.4,1.86,6.94,6.94,0,0,0,1.59,2.49c.52.29,1.43-.13,2.21-.14s1.32.36,1.37.92l-3.24,1.54c-.75.35-1.38.36-2-1.19s-.81-2.42-1.28-1.37a15.07,15.07,0,0,0-.65,3.43.77.77,0,0,1-1-.39,16.09,16.09,0,0,0-.11-2.08c-.13-1-1-2.15-.93-3.3S982.14,766.72,983,766.77Z"/><path class="cls-49" d="M970.71,693.13c-1.4.41-2.21,2-3.44,5.29s-2.52,8.19-2.36,9.47c.4,3.14,2.35,5.81,5.71,8l1.49-2.75s-3.29-2.65-3.6-5.79c-.18-1.76,2.11-7.76,2.11-7.92S970.71,693.13,970.71,693.13Z"/><path class="cls-52" d="M969.65,747.6a16.31,16.31,0,0,1,.66-4.82s-1.2-5.91-1.64-10.48c-.66-6.73-1.85-8.34-.77-12.32,1-3.67,2.55-6.24,3.59-8.81l11,.86s.95,3.12,2.19,9.32,1.79,13.52,1.67,23.29c0,2.51-.05,4.76-.2,11-.1,4.21-.14,9.89-.14,9.89a2.87,2.87,0,0,1-3.13-.13s-2.6-12.51-3-15.38a9,9,0,0,1,.38-4.74s-.83-3.93-1.44-7c-.74-3.76-2.59-11.9-2.59-11.9s-.05,12.45-.23,15-.07,4.52-.54,7.87c-.56,4-1.07,10.87-1.07,10.87a3.77,3.77,0,0,1-3-.53S969.65,751.14,969.65,747.6Z"/><path class="cls-53" d="M976.21,726.4s-.05,12.45-.23,15c0,.32,0,.6-.06.85v.16l-1.28-14.56a7.37,7.37,0,0,1-4.66-3.39C972.35,726.82,976.21,726.4,976.21,726.4Z"/><path class="cls-49" d="M971.36,693.07c2.34-.14,2.57.25,2.75-.58.07-.3.2-2.36.2-2.36a6.7,6.7,0,0,1-.58-.86,6,6,0,0,1-2.84-4.47,6,6,0,0,1,5.35-6.6c3.11-.32,5.39,1.86,6,4.85A13.24,13.24,0,0,1,982,690c-.52,1.37-1,2.33-2.24,2.28a7.62,7.62,0,0,1-1.22-.22,11.39,11.39,0,0,0-.07,1.72c0,.6-.07.9,1.1,1.62s-1.77,2.2-3.69,2.06-4.09-1.31-4.68-2.55S970.26,693.14,971.36,693.07Z"/><path class="cls-54" d="M971.19,694.88c-.66-1.39-.93-1.74.17-1.81,2.34-.14,2.57.25,2.75-.58.07-.3.2-2.36.2-2.36a6.7,6.7,0,0,1-.58-.86,6,6,0,0,1-2.05-2.1l.14-.13,5,2.58.93-.21.74-.83a12,12,0,0,0,.35,2.1c.22.65,1.73,1.4,1.74,1.41a1.74,1.74,0,0,1-.82.16,7.62,7.62,0,0,1-1.22-.22,11.39,11.39,0,0,0-.07,1.72c0,.6-.07.9,1.1,1.62s-1.77,2.2-3.69,2.06S971.78,696.12,971.19,694.88Z"/><path class="cls-57" d="M973.07,689.47a6.54,6.54,0,0,1-2.18-4.67,6,6,0,0,1,5.35-6.6,5.17,5.17,0,0,1,5,2.35,3.42,3.42,0,0,1-.56.78,1.41,1.41,0,0,1-.22,1.31,1.8,1.8,0,0,0-.37,1.46,7.7,7.7,0,0,1,.09,1.87,1.71,1.71,0,0,1-.9,1.27,8.11,8.11,0,0,0-.45-2,1.13,1.13,0,0,0-2,.1,2.6,2.6,0,0,0,.2,2.62,1.28,1.28,0,0,0,1.52.67,1.64,1.64,0,0,1-1.31,1.84,4.57,4.57,0,0,1-3.19-.32A5.89,5.89,0,0,1,973.07,689.47Z"/><path class="cls-57" d="M979.73,679.05a2.7,2.7,0,0,1,3.11,2.71,4,4,0,0,1-3,3.82Z"/><path class="cls-55" d="M973.69,693c-.44.54-.49,1.22,1.19,1.64a5.32,5.32,0,0,0,3.65-.28,23.74,23.74,0,0,1,3.78,2c3.73,2.59,4.63,7.09.87,8.64-.23,1.69-.51,6.05-.58,7-3.19,2.22-9.66,1.46-11.11-.89a17.15,17.15,0,0,0-.22-2.36c-1.52-5.63-2.7-7.13-2.28-11.37.24-2.43.43-3.66,1.72-4.31A11.44,11.44,0,0,1,973.69,693Z"/><path class="cls-50" d="M979.31,694.72l-.48-1.3a.48.48,0,0,0-.38-.29s-.43.54-1.83.4-2.52-.79-2.47-1.28l0-.32a.81.81,0,0,0-.68.23c-.29.3-.7.85-.7.85s-.23,1.16,1.65,1.86A6.36,6.36,0,0,0,979.31,694.72Z"/><path class="cls-49" d="M997.05,722.28a18.78,18.78,0,0,0-2.47-.57,7.87,7.87,0,0,1-2.42-.44c-.84-.3-1.83-1.36-3.37-3.49a25.72,25.72,0,0,1-3.58-7.93,61,61,0,0,1-1.15-10.52c0-2.14-1-3-2.09-3.41-1.32-.49-2.23,0-2.13,2.91a54.9,54.9,0,0,0,1.75,12.2,26,26,0,0,0,3.89,8,22.17,22.17,0,0,0,4.33,4.79c.57.5.86,1,1.84,2.1a9,9,0,0,0,3.51,2.47c1.16.37,1.64.32,1.82.12s.07-.54-.44-.77a7.35,7.35,0,0,1-2.29-1.33s1.09.56,1.78.83a7,7,0,0,0,1.89.49c.63.07,1.24-.65.73-.89s-1-.3-2-.72a7.35,7.35,0,0,1-1.51-.85,14.14,14.14,0,0,0,2.11.56,3.17,3.17,0,0,0,1.73-.08c.29-.11.51-.63-.16-.85a11.51,11.51,0,0,1-2.55-.74c-.79-.4-1.29-.8-1.13-.87s.62.21,1.39.2,1.47-.45,1.43-.87S997.82,722.4,997.05,722.28Z"/><path class="cls-3" d="M1194.34,648.72l-20.51-11.84a5.08,5.08,0,0,0-4.59,0l-20.51,11.84c-1.27.73-1.27,1.92,0,2.65l20.51,11.84a5.08,5.08,0,0,0,4.59,0l20.51-11.84A1.4,1.4,0,0,0,1194.34,648.72Z"/><path class="cls-3" d="M1163.45,660.15l-7.21-4.16c-4.89-2.82-11.65-3.5-15.09-1.51s-2.26,5.88,2.63,8.71l7.21,4.16c4.89,2.82,11.64,3.5,15.09,1.51S1168.34,663,1163.45,660.15Z"/><path class="cls-4" d="M1148.26,625.7l20.51-11.85a5.08,5.08,0,0,1,4.59,0l20.51,11.85c1.27.73,1.27,1.91,0,2.64l-20.51,11.85a5.08,5.08,0,0,1-4.59,0l-20.51-11.85A1.39,1.39,0,0,1,1148.26,625.7Z"/><path class="cls-7" d="M1171.07,614.3a3.76,3.76,0,0,1,1.79.42l20.51,11.84c.33.19.45.38.45.46s-.12.27-.45.46l-20.51,11.84a4.13,4.13,0,0,1-3.59,0l-20.51-11.84c-.33-.19-.45-.38-.45-.46s.12-.27.45-.46l20.51-11.84a3.77,3.77,0,0,1,1.8-.42m0-1a4.8,4.8,0,0,0-2.3.55l-20.51,11.85a1.39,1.39,0,0,0,0,2.64l20.51,11.85a4.79,4.79,0,0,0,2.3.54,4.72,4.72,0,0,0,2.29-.54l20.51-11.85c1.27-.73,1.27-1.91,0-2.64l-20.51-11.85a4.73,4.73,0,0,0-2.29-.55Z"/><path class="cls-5" d="M1147.31,647.72a1.62,1.62,0,0,0,1,1.32l20.51,11.85a4.68,4.68,0,0,0,2.3.54v-20.7a4.71,4.71,0,0,1-2.3-.54l-20.51-11.85a1.59,1.59,0,0,1-1-1.32Z"/><path class="cls-6" d="M1194.82,647.72a1.6,1.6,0,0,1-1,1.32l-20.51,11.85a4.64,4.64,0,0,1-2.29.54v-20.7a4.64,4.64,0,0,0,2.29-.54l20.51-11.85a1.59,1.59,0,0,0,1-1.32Z"/><path class="cls-49" d="M1142.89,614.38a21.25,21.25,0,0,1,2.53-.16,8.09,8.09,0,0,0,2.46,0c.88-.16,3.21-2.14,5.08-4a21.08,21.08,0,0,0,4.65-7.06c.89-2.8,2.17-8.54,2.82-10.48a3.2,3.2,0,0,1,2.76-2.58c1.38-.27,2.31.23,1.73,3.12a56.65,56.65,0,0,1-3.65,12,27.53,27.53,0,0,1-5.29,7.22,31.94,31.94,0,0,1-6.19,4.63c-.64.4-1,.85-2.16,1.76a9,9,0,0,1-3.87,1.87c-1.21.17-1.67,0-1.81-.18s0-.54.56-.68a7.42,7.42,0,0,0,2.47-1s-1.17.37-1.89.54a7.41,7.41,0,0,1-1.95.17c-.63,0-1.11-.84-.57-1s1-.13,2.06-.39a7.21,7.21,0,0,0,1.63-.59,14.58,14.58,0,0,1-2.18.21,3.14,3.14,0,0,1-1.69-.37c-.26-.15-.4-.7.3-.81a10.64,10.64,0,0,0,2.63-.31c.85-.27,1.41-.58,1.26-.67s-.64.1-1.4,0-1.38-.69-1.27-1.09S1142.11,614.37,1142.89,614.38Z"/><path class="cls-50" d="M1163.32,589.79c-1.38-.27-2.58,1-3.24,3s-1.58,6.33-2.15,7.82a15,15,0,0,0-.76,2.73s2.35,2,5,1.49a64,64,0,0,0,2.5-8.32C1165.45,592.7,1165.81,590.27,1163.32,589.79Z"/><path class="cls-55" d="M1159.56,604a5.11,5.11,0,0,1-2.24-1.43l.12-.5s-.27,0-.7,1.16-.52,1.94-.34,2.2c1.09,1.56,4.32,2.25,4.95,1.41.44-.6,1.48-2.27,1.16-3l-.21.55A6.32,6.32,0,0,1,1159.56,604Z"/><path class="cls-51" d="M1151.4,651.31a11.81,11.81,0,0,0,.26,1.42,6.23,6.23,0,0,1,.21,2.22c-.12.52-1.6,1.26-2.42,1.36a5.2,5.2,0,0,0-2.56,1.58,4.7,4.7,0,0,1-3.59,1.35c-1.15-.14-2.44-.41-2.72-.87s.11-1,2.52-2.69,4-2.76,4.77-4.35Z"/><path class="cls-51" d="M1160.11,667.57a3.79,3.79,0,0,1-2.68,1.43,11.61,11.61,0,0,1-1.67.07c-.58,0-1.49-.35-1.43-1.09a1.15,1.15,0,0,1,.31-.61c.94-1.22,1.95-2.39,2.81-3.67a11.62,11.62,0,0,0,2.29-5l3.61,0c0,.31.09.73.15,1.13a12,12,0,0,0,.25,1.19,3.25,3.25,0,0,1-.1,2.34,4.84,4.84,0,0,1-1.39,1.27A13.29,13.29,0,0,0,1160.11,667.57Z"/><path class="cls-52" d="M1177.14,619.85c1.31,8.16-2.89,10.55-6.87,13.61a63.09,63.09,0,0,1-6.42,4.31,38.28,38.28,0,0,1,.4,5.94c0,3.54-.9,15.06-.9,15.06a3.92,3.92,0,0,1-3.61,0s-1.22-8.72-1.79-13.17c-.8-6.26-1.5-9.08-1.19-10.39.27-1.15,5.44-6.88,6.69-8.81l-11.54,6.71a39.54,39.54,0,0,1,.33,5.13c-.12,4.81-.84,13.11-.84,13.11s-1.91,1.37-3.53,0c0,0-3.62-19.56-3.62-21.28,0-2.62,10.57-9.19,12.92-10.74,1.91-1.25,4-2.89,4-2.89Z"/><path class="cls-53" d="M1163.45,626.36a8.23,8.23,0,0,1-2.63-3.76,19.14,19.14,0,0,0,.41,2.86c.31,1.25-9.32,7.61-9.32,7.61Z"/><path class="cls-49" d="M1172.38,588.63s-.2,3.89-.12,4.23,1.79,1.49,2.28,1.9-2.69,3.55-4.23,4.26-6.46-1.16-6.54-3.57.84-4.43,1.59-4.54S1172.38,588.63,1172.38,588.63Z"/><path class="cls-54" d="M1166.82,593.09c-.51-.47.6-2,1-2.67,1.6-.48,4.6-1.79,4.6-1.79s-.05.9-.07,1.52h0a2.57,2.57,0,0,1-1,1.92,7.33,7.33,0,0,1-1.74,1C1168.89,593.33,1167.6,593.82,1166.82,593.09Z"/><path class="cls-55" d="M1172.82,593.17s-2.82,4.21-6.76,4.6c-1.24-1.22-1.35-5.58.37-7,0,0-1.58-1.27-2.66-1a5.62,5.62,0,0,0-2.44,3.11,25.21,25.21,0,0,0-1.38,9c.08,4.55.52,16.9.44,14.71,0,0-.5,2.2,3.06,4.18s6.85,2.9,9.26,2.34c2-.47,4.12-1.68,4.43-3.26-.18-2.89-.79-7.72-.31-11.36s.44-6.65.64-9.6-.39-2.88-1.86-3.92A24.21,24.21,0,0,0,1172.82,593.17Z"/><path class="cls-50" d="M1166.06,597.77a22.12,22.12,0,0,1-.34-2.87,9.14,9.14,0,0,1,1.1-3.11V590.7a2.54,2.54,0,0,0-1.44.94,6.06,6.06,0,0,0-1.43,4.28A5,5,0,0,0,1166.06,597.77Z"/><path class="cls-55" d="M1166.06,597.77c-.28-.55-.83-2.43-1.1-2.7-.52-.17-1,.85-1,.85a2.71,2.71,0,0,0,.67,1.7A1.23,1.23,0,0,0,1166.06,597.77Z"/><path class="cls-56" d="M1165,595.07c.27.27.82,2.15,1.1,2.7a10.05,10.05,0,0,0-.59-.9c-.3-.37-.65-1.09-1.52-1C1164,595.92,1164.44,594.9,1165,595.07Z"/><path class="cls-57" d="M1174,580.14s.38-1.19-1.15-2.35c-1.82-1.38-4.38-1.07-7.08,0-1.72.69-4.4-.15-3.88,1.82.76,2.9,6.36,3.15,8.79,1.13A6.26,6.26,0,0,1,1174,580.14Z"/><path class="cls-50" d="M1172.25,591.81c-.07.6-3.24,3-4,3.26s-2.2,2.7-2.2,2.7a3.14,3.14,0,0,1,2.88,1.12s4.5-1.89,5.23-4.91c0,0-.84-1.62-1-2s-.46-.89-.93-.91Z"/><path class="cls-55" d="M1168.94,598.89s-.33-2.31-.82-2.53-2.06,1.41-2.06,1.41A4.29,4.29,0,0,0,1168.94,598.89Z"/><path class="cls-56" d="M1168.12,596.36c.49.22.82,2.53.82,2.53a10,10,0,0,0-1.65-1.27,3,3,0,0,0-1.23.15S1167.64,596.15,1168.12,596.36Z"/><path class="cls-49" d="M1163.57,582.83h0c.47-3,2.64-5.3,5.76-5.13a10.66,10.66,0,0,1,2.56,12.25c-1.1,1.29-4.43,2.08-5.38,1.95a2.85,2.85,0,0,1-2.48-2C1163,587.49,1163.32,584.33,1163.57,582.83Z"/><path class="cls-57" d="M1164,580.4a5.91,5.91,0,0,1,6.22-2.58,6,6,0,0,1,4.72,5.31,5.94,5.94,0,0,1-2.59,5.5c.06-.2,1.63-2.55,0-3.07a1.93,1.93,0,0,0-.34,1.23s-.8-.07-.62-1c0-.27.1-.51.14-.72a2.83,2.83,0,0,0-.46-2.09,2.41,2.41,0,0,1-.43-2,8,8,0,0,1-4.55.36A4.2,4.2,0,0,1,1164,580.4Z"/><path class="cls-49" d="M1174.81,628.48a19.45,19.45,0,0,1,1.9-1.7,4.54,4.54,0,0,0,1.61-1.52c.54-.8,1.12-3.55,1.39-6.16a25.61,25.61,0,0,0-.86-8.69c-1.07-3.36-3.32-7.9-4-9.8a3.21,3.21,0,0,1,.5-3.75c.9-1.09,2.47-1,3.85,1.57a54.48,54.48,0,0,1,4.25,11.34,27,27,0,0,1,.49,9,31.68,31.68,0,0,1-1.86,7.5c-.24.72-.24,1.31-.54,2.73a9.11,9.11,0,0,1-1.82,3.9c-.82.9-1.26,1.09-1.51,1s-.33-.43,0-.89a7.57,7.57,0,0,0,1.31-2.29s-.66,1-1.12,1.6a7.21,7.21,0,0,1-1.4,1.38c-.51.37-1.4.05-1.08-.41s.69-.74,1.35-1.61a7.5,7.5,0,0,0,.89-1.49,13.69,13.69,0,0,1-1.55,1.54,3.07,3.07,0,0,1-1.54.79c-.31,0-.76-.29-.28-.82a11,11,0,0,0,1.83-1.91c.49-.74.73-1.34.55-1.31s-.43.48-1.11.86-1.49.34-1.67,0S1174.21,629,1174.81,628.48Z"/><path class="cls-50" d="M1175.44,596.19c-1.28.61-1.5,2.33-.85,4.33s2.48,6,2.91,7.59a14.76,14.76,0,0,0,1,2.64s3.08.22,4.89-1.76a63.38,63.38,0,0,0-2.91-8.18C1178.87,597.28,1177.73,595.11,1175.44,596.19Z"/><path class="cls-55" d="M1180.85,609.9a5.23,5.23,0,0,1-2.65.18l-.2-.48s-.22.16.12,1.35.73,1.87,1,2c1.8.61,4.82-.75,4.82-1.8,0-.74-.15-2.7-.86-3.12l.16.56A6.24,6.24,0,0,1,1180.85,609.9Z"/><path class="cls-49" d="M1172.38,588.61s.14.32.72.35c1.09,0,2.37-2,1.49-3.36a1.42,1.42,0,0,0-2.19,0Z"/><path class="cls-72" d="M1145.45,624.22l9.33-5.38a.51.51,0,0,1,.53,0l16.36,9.44-9.59,5.54Z"/><polygon class="cls-73" points="1162.16 633.03 1167.19 630.13 1152.49 621.64 1147.43 624.52 1162.16 633.03"/><polygon class="cls-74" points="1164.64 624.96 1164.54 625.01 1162.08 626.43 1157.69 623.9 1157.6 623.85 1160.16 622.38 1164.64 624.96"/><polygon class="cls-73" points="1164.54 625.01 1162.08 626.43 1157.69 623.9 1160.16 622.48 1164.54 625.01"/><path class="cls-6" d="M1171.67,628.28v.22a.9.9,0,0,1-.45.78l-8.69,5a.92.92,0,0,1-.45.12.89.89,0,0,1-.45-.12l-15.73-9.08a.92.92,0,0,1-.45-.78v-.22l16.63,9.6Z"/><path class="cls-73" d="M1162.08,633.82v.6a.89.89,0,0,1-.45-.12l-15.73-9.08a.92.92,0,0,1-.45-.78v-.22Z"/><path class="cls-72" d="M1161.83,634a1.06,1.06,0,0,1-.92-.07l-15.66-9a1.1,1.1,0,0,1-.52-.74L1143,613.87a.88.88,0,0,1,0-.17,1.09,1.09,0,0,1,.32-.76l16.27,9.4a.8.8,0,0,1,.38.55Z"/><path class="cls-6" d="M1162.08,633.82l-.11.06-.14.07L1160,622.89a.8.8,0,0,0-.38-.55l-16.27-9.4a.89.89,0,0,1,.22-.16l16.3,9.41a.8.8,0,0,1,.38.55Z"/><path class="cls-73" d="M1153,624.52a3.43,3.43,0,0,0-1.58-2c-.76-.44-1.28-.24-1.16.44a3.42,3.42,0,0,0,1.57,2C1152.6,625.4,1153.12,625.2,1153,624.52Z"/><path class="cls-3" d="M900.57,673.09l6.58-3.8c4.46-2.58,10.63-3.2,13.77-1.38s2.07,5.37-2.39,8l-6.59,3.8c-4.46,2.57-10.63,3.19-13.77,1.38S896.1,675.67,900.57,673.09Z"/><path class="cls-49" d="M925.65,619.06a17.1,17.1,0,0,0-2.17,1.13,8,8,0,0,1-2.06,1.19c-.81.31-3.51.07-6-.52a24.85,24.85,0,0,1-7.6-3.59,48.5,48.5,0,0,1-6.92-6.82,3.89,3.89,0,0,0-4.18-1.39c-1.28.47-1.67,1.38.25,3.48a53.24,53.24,0,0,0,8.93,7.86,25.06,25.06,0,0,0,7.85,3.42,31.45,31.45,0,0,0,7.49.89c.73,0,1.27.2,2.66.38a8.76,8.76,0,0,0,4.14-.38c1.08-.46,1.4-.79,1.41-1.05s-.29-.44-.81-.29a7.08,7.08,0,0,1-2.52.45s1.16-.27,1.83-.5a6.74,6.74,0,0,0,1.7-.82c.51-.35.51-1.26,0-1.12s-.9.39-1.9.71a7,7,0,0,1-1.64.32,12.87,12.87,0,0,0,1.9-.91,2.92,2.92,0,0,0,1.22-1.15c.14-.25,0-.77-.65-.51a10.62,10.62,0,0,1-2.33,1c-.84.2-1.46.23-1.38.08s.58-.24,1.15-.73.79-1.25.51-1.53S926.28,618.66,925.65,619.06Z"/><path class="cls-50" d="M896.61,608.72c1.2-.49,3.12-.1,5,2.28a34.61,34.61,0,0,0,7.91,7,26.33,26.33,0,0,0,9.53,3.44,2.79,2.79,0,0,1-.16,3.15,25.14,25.14,0,0,1-9.58-2.14c-5-2.21-9.51-6.62-11.55-8.6S894.38,609.65,896.61,608.72Z"/><path class="cls-51" d="M901,669.84a3.88,3.88,0,0,0,.37,2.67,12.5,12.5,0,0,1,.41,3.87.75.75,0,0,0,1,0s-.07-3.65.9-3.36Z"/><path class="cls-49" d="M909.18,675.53c-1-1.45-2.37-6.2-2.69-7.3a7.68,7.68,0,0,1-.2-2.16c.05-1.61.06-5.76.06-5.76l-4.13-.8.67,6.38a3.39,3.39,0,0,1-.53,1.79,16.29,16.29,0,0,0-1,2.15,1.76,1.76,0,0,0,.58,2.3,15,15,0,0,1,2.5,2.31c.72.9.66,2.09,1.83,3.15s3.37.26,3.79-.1C910.64,677,910.44,676.52,909.18,675.53Z"/><path class="cls-51" d="M909,676.75c-2.47.59-3,.27-3.66-2.51-.54-2.12-1-3.65-2-4.46-1.11-1-1.19-1.61-.92-2.34-.24,0-.53.09-.69.63-.36,1.23-.93,1.44-.95,2.31a2.54,2.54,0,0,0,1.23,2.08,4.08,4.08,0,0,1,1.87,2.06c.59,1.23.46,2.58.86,3.72,1.71,1.34,3.54,2.21,6.3.94.53-1.39,1-2-1.93-3.65C909.71,676.15,910,676.52,909,676.75Z"/><path class="cls-51" d="M906.88,665.14a3.93,3.93,0,0,0,.36,2.69,12.24,12.24,0,0,1,.41,3.88.78.78,0,0,0,1-.05s-.07-3.66.9-3.36Z"/><path class="cls-49" d="M915.1,670.86c-1-1.45-2.37-6.21-2.69-7.3a8.17,8.17,0,0,1-.2-2.16c0-1.61.69-5.65.69-5.65l-3.56-.68-.53,6.14a3.36,3.36,0,0,1-.53,1.79,16.91,16.91,0,0,0-1,2.15,1.77,1.77,0,0,0,.58,2.31,14.2,14.2,0,0,1,2.5,2.31c.72.9.66,2.09,1.83,3.15s3.37.26,3.8-.11C916.56,672.3,916.36,671.84,915.1,670.86Z"/><path class="cls-51" d="M914.94,672.07c-2.46.6-3,.27-3.66-2.5-.54-2.13-1-3.65-1.94-4.47-1.12-1-1.2-1.6-.93-2.34-.24,0-.53.1-.69.64-.36,1.23-.93,1.43-1,2.31a2.57,2.57,0,0,0,1.23,2.07,4.1,4.1,0,0,1,1.87,2.07c.59,1.22.46,2.58.86,3.72,1.71,1.33,3.54,2.21,6.3.94.54-1.4,1-2-1.93-3.65C915.63,671.47,915.87,671.84,914.94,672.07Z"/><path class="cls-57" d="M891.35,593.82a7.15,7.15,0,0,1,7.19,0c2.12,1.29,3.41,4.93.87,6.6S891.35,593.82,891.35,593.82Z"/><path class="cls-57" d="M890.54,594.46a3.46,3.46,0,0,0-3.26-.32c-1.31.61-2.52,1.21-2.45,5.45.06,3.74-1.16,14.38,1.94,14.7,4.39.46,5-1.9,5-8.59A47,47,0,0,0,890.54,594.46Z"/><path class="cls-52" d="M887.1,633c-1.59,4.31-1.35,7.86,4.31,11,3,1.67,10.07,5.38,10.07,5.38a8.8,8.8,0,0,0-.34,3.73c.53,3.5,1.64,13,1.64,13s1.93,1.32,3.58.27c0,0,.69-7.22.92-12.08.33-6.67.57-7.92-.22-9.19-.62-1-6.62-5-8.41-6.89l.29-.11,10.61,5.21s-.83.71-1,4.15c-.26,5.46.1,13.72.1,13.72s2,1.46,3.67.11c.74-3,4.28-19.83,3.91-21.33-.69-2.85-15-9.73-15.64-11.1Z"/><path class="cls-49" d="M890.54,604.36s.26,4.7.18,5-1.85.67-2.35,1.08,2.54,5.18,4.09,5.89,6.36-1.07,6.7-3.46c.31-2.2-1.37-3.91-2-4.51a10.94,10.94,0,0,0-1.33,0l-.13-2.28C893.59,605.42,890.54,604.36,890.54,604.36Z"/><path class="cls-55" d="M889.88,609.86c-1.32.2-2.83.9-3,1.62a15.59,15.59,0,0,0,.35,7.85,55.11,55.11,0,0,0,2.94,6.38,13.08,13.08,0,0,0,9.79-1.28,30.75,30.75,0,0,0,.5-4.19c4.1-3.56.89-8-2.56-11.46a1.45,1.45,0,0,0-1-.42c-.25,0-.5,0-.67,0,0,0,2.11,5.46,1,6C895.46,615.07,891.41,610.72,889.88,609.86Z"/><path class="cls-54" d="M895.8,607.94l-.11-1.85-1.49-.49-3.66-1.24.07,1.48s.15,1.6,2.8,2.86C893.88,608.92,895.65,609.09,895.8,607.94Z"/><path class="cls-49" d="M899.2,598.33h0c-.47-3-2.5-5.07-5.62-4.9a6,6,0,0,0-3,10.93,7.45,7.45,0,0,0,.47,1.06c1.17,1.58,3.77,2.2,5.34,2.2a2.35,2.35,0,0,0,2.3-1.76A15.3,15.3,0,0,0,899.2,598.33Z"/><path class="cls-57" d="M898.88,597.05c-.51-2.95-3.77-4.16-6.35-3.63a6.2,6.2,0,0,0-4.75,5.41,6.12,6.12,0,0,0,2.76,5.53c-.07-.2-1.64-2.55,0-3.07a2.76,2.76,0,0,1,.27,1.45.87.87,0,0,0,.81-1,2.62,2.62,0,0,1,.25-1.73c.33-.49,1.18-.63,1.32-1.84,0,0,1.82-2.56,3.41-.25C896.78,596.78,898.24,596,898.88,597.05Z"/><path class="cls-49" d="M891.93,641.49A18.73,18.73,0,0,0,890,640a7.66,7.66,0,0,1-1.93-1.38c-.61-.61-1.51-3.17-2-5.66a24.57,24.57,0,0,1,.14-8.4,48.65,48.65,0,0,1,3.37-9.12,3.91,3.91,0,0,0-.46-4.38c-.95-1-1.94-.95-3.07,1.66a53.23,53.23,0,0,0-3.49,11.38,25.08,25.08,0,0,0,.12,8.56,31,31,0,0,0,2.28,7.19c.29.67.34,1.24.74,2.59a8.69,8.69,0,0,0,2,3.6c.86.81,1.3,1,1.54.86s.28-.44-.07-.85a7.47,7.47,0,0,1-1.45-2.11s.73.93,1.21,1.46a7.35,7.35,0,0,0,1.45,1.21c.53.31,1.35-.06,1-.48s-.72-.66-1.43-1.44a6.89,6.89,0,0,1-1-1.37,12.73,12.73,0,0,0,1.61,1.36,2.93,2.93,0,0,0,1.54.64c.3,0,.7-.34.21-.8a11.36,11.36,0,0,1-1.92-1.7c-.53-.68-.8-1.23-.63-1.22s.45.43,1.13.74,1.47.21,1.61-.17S892.55,641.91,891.93,641.49Z"/><path class="cls-50" d="M889.39,610.78c1,.88,1.38,2.8,0,5.53a34.19,34.19,0,0,0-3.14,10.09,26.46,26.46,0,0,0,.78,10.1,2.79,2.79,0,0,1-2.94,1.16,25.24,25.24,0,0,1-2-9.61c0-5.47,2.12-11.4,3.09-14.07S887.62,609.12,889.39,610.78Z"/><path class="cls-49" d="M890.54,604.36s-.14.3-.73.33c-1.09,0-2.37-2-1.49-3.35a1.43,1.43,0,0,1,2.2-.05Z"/><path class="cls-55" d="M889.81,625.1c.32.61.16,1.44-.53,2.84a35,35,0,0,0-2.59,6.16c.08.38,1,1.26,4.73,1.69,4.57.52,10.26-2.39,9.75-6-.3-1.93-1-3.44-1.25-5.35S889.81,625.1,889.81,625.1Z"/><path class="cls-3" d="M1227.54,772l27.81,16.05a3.4,3.4,0,0,0,3.06,0l54.51-31.25a.93.93,0,0,0,0-1.76l-28-16.17a3.35,3.35,0,0,0-3.05,0l-54.31,31.35A.93.93,0,0,0,1227.54,772Z"/><path class="cls-5" d="M1225.68,718v46.47a5.07,5.07,0,0,0,2.29,4l26.61,15.37h0a4.8,4.8,0,0,0,2.28.54V747.86Z"/><path class="cls-6" d="M1256.88,784.35a4.73,4.73,0,0,0,2.25-.53h0l44.34-25.6a5.07,5.07,0,0,0,2.28-4V723.76l-48.91,24.1Z"/><path class="cls-4" d="M1226.8,715.49l45.61-26.34a3.45,3.45,0,0,1,4.08.63l28.69,31.29a2,2,0,0,1-.5,3.27l-45.61,26.34a3.44,3.44,0,0,1-4.08-.63l-28.69-31.29A2,2,0,0,1,1226.8,715.49Z"/><path class="cls-9" d="M1298.58,722.82h0l-39.3,22.7-.06,0a2.3,2.3,0,0,1-2.65-.42l0,0-23.77-25.93-.11-.12h0a1.34,1.34,0,0,1,.42-2h0l39.3-22.69,0,0a2.24,2.24,0,0,1,1.42-.21,2.31,2.31,0,0,1,1.24.63l0,0,23.77,25.92,0,.05A1.35,1.35,0,0,1,1298.58,722.82Z"/><path class="cls-8" d="M1232.66,719.06l23.83,26a2.3,2.3,0,0,0,2.84.44l39.49-22.8-25.08-27.35Z"/><path class="cls-75" d="M1243.33,723c2.83-1.64,4.83,1.82,7.67.19s.84-5.11,3.67-6.75,4.84,1.83,7.68.19.83-5.1,3.67-6.74,4.84,1.83,7.68.19.84-5.11,3.68-6.75"/><path class="cls-75" d="M1247.81,728.67c2.43-1.41,4.43,2.06,6.86.65s.43-4.86,2.86-6.27,4.43,2.06,6.87.66.43-4.87,2.86-6.27,4.43,2.06,6.87.65.43-4.87,2.87-6.27,4.43,2,6.87.65"/><path class="cls-75" d="M1252.29,734.36c3.4-2,5.4,1.5,8.81-.47s1.4-5.43,4.8-7.39,5.41,1.5,8.82-.47,1.4-5.43,4.81-7.4,5.41,1.5,8.82-.47"/><path class="cls-10" d="M1273.88,694.07l-.14,1.27-41.07,23.72a1.34,1.34,0,0,1,.42-2h0l39.3-22.69,0,0A2.24,2.24,0,0,1,1273.88,694.07Z"/><polygon class="cls-34" points="1253.46 663.3 1260.45 667.33 1260.45 675.4 1253.46 671.37 1253.46 663.3"/><polygon class="cls-12" points="1260.45 667.33 1267.43 663.3 1267.43 671.37 1260.45 675.4 1260.45 667.33"/><polygon class="cls-11" points="1267.43 663.3 1260.45 659.27 1253.46 663.3 1260.45 667.33 1267.43 663.3"/><line class="cls-76" x1="1260.45" y1="663.3" x2="1243.67" y2="649.59"/><line class="cls-76" x1="1256.95" y1="669.35" x2="1237.39" y2="689.93"/><polygon class="cls-34" points="1223.19 687.23 1232.5 692.61 1232.5 703.36 1223.19 697.98 1223.19 687.23"/><path class="cls-12" d="M1232.5,692.61l9.31-5.38V698s-9.31,5.56-9.31,5.38Z"/><polygon class="cls-11" points="1241.81 687.23 1232.5 681.86 1223.19 687.23 1232.5 692.61 1241.81 687.23"/><polygon class="cls-34" points="1235.29 647.97 1240.88 651.2 1240.88 657.65 1235.29 654.42 1235.29 647.97"/><path class="cls-12" d="M1240.88,651.2l5.59-3.23v6.45s-5.59,3.34-5.59,3.23Z"/><polygon class="cls-11" points="1246.47 647.97 1240.88 644.74 1235.29 647.97 1240.88 651.2 1246.47 647.97"/><line class="cls-76" x1="1232.71" y1="686.98" x2="1238.08" y2="652.81"/><path class="cls-51" d="M1293.1,779a3.35,3.35,0,0,1-3,1c-.73-.16-1.2-.29-1.75-.46a12.08,12.08,0,0,0-2.55-.29,23.18,23.18,0,0,1-2.51-.12,9.35,9.35,0,0,1-2.27-.64c-1-.4-2.59-2.35-1.39-3.09a.75.75,0,0,1,.3-.09c3.2-.48,7.34-.29,8.35-1.52l4.35-.22c-.13,0,.71,3.93.78,4.25a1.88,1.88,0,0,1,.06.53A1.31,1.31,0,0,1,1293.1,779Z"/><path class="cls-77" d="M1290.4,754l1.81-1.53a18.38,18.38,0,0,1,1.12,4.08c0,1.07-.77,17.06-.77,17.06s-2.43,1.84-4.33.2c0,0-1.29-18.91-1.59-21.87l3.76,2.06"/><path class="cls-51" d="M1283.48,783.91a3.38,3.38,0,0,1-3.13.7,17.44,17.44,0,0,1-1.7-.63,11.74,11.74,0,0,0-2.52-.51c-.89-.14-1.61-.14-2.48-.35a9,9,0,0,1-2.2-.85c-.92-.49-2.36-2.58-1.11-3.2a.82.82,0,0,1,.31-.07c3.23-.18,7.34.39,8.46-.75l4.35.18c-.13,0,.34,4,.38,4.31a1.35,1.35,0,0,1,0,.53A1.26,1.26,0,0,1,1283.48,783.91Z"/><path class="cls-52" d="M1284.23,761.37c0,1.08-.77,17.06-.77,17.06s-2.45,1.46-4.35-.18c0,0-1.28-18.52-1.57-21.48"/><path class="cls-3" d="M1281.22,788.26l20.51-11.84a5.08,5.08,0,0,1,4.59,0l20.51,11.84c1.27.73,1.27,1.92,0,2.65l-20.51,11.84a5,5,0,0,1-4.58,0l-20.52-11.84A1.4,1.4,0,0,1,1281.22,788.26Z"/><path class="cls-4" d="M1281.22,763.65l20.51-11.84a5.08,5.08,0,0,1,4.59,0l20.51,11.84c1.27.73,1.27,1.92,0,2.65l-20.51,11.84a5.06,5.06,0,0,1-4.58,0l-20.52-11.84A1.4,1.4,0,0,1,1281.22,763.65Z"/><path class="cls-7" d="M1304,752.26a3.62,3.62,0,0,1,1.79.42l20.51,11.84c.33.19.45.38.45.46s-.12.26-.45.45l-20.51,11.85a4.11,4.11,0,0,1-3.58,0l-20.52-11.85c-.33-.19-.45-.37-.45-.45s.12-.27.45-.46l20.51-11.84a3.66,3.66,0,0,1,1.8-.42m0-1a4.69,4.69,0,0,0-2.3.55l-20.51,11.84a1.4,1.4,0,0,0,0,2.65l20.52,11.84a5,5,0,0,0,4.58,0l20.51-11.84c1.27-.73,1.27-1.92,0-2.65l-20.51-11.84a4.62,4.62,0,0,0-2.29-.55Z"/><path class="cls-5" d="M1280.27,785.68a1.66,1.66,0,0,0,1,1.32l20.52,11.84a4.61,4.61,0,0,0,2.29.55v-20.7a4.64,4.64,0,0,1-2.29-.55l-20.52-11.84a1.61,1.61,0,0,1-1-1.32Z"/><path class="cls-6" d="M1327.78,785.68a1.62,1.62,0,0,1-1,1.32l-20.51,11.84a4.64,4.64,0,0,1-2.29.55v-20.7a4.64,4.64,0,0,0,2.29-.55l20.51-11.84a1.61,1.61,0,0,0,1-1.32Z"/><path class="cls-77" d="M1292.34,747.81c2.13.77,16.52,6.17,16.52,6.17s-.57,10.2-3.64,8.56L1290.4,754l-3.76-2.06C1286.31,748.6,1290,747,1292.34,747.81Z"/><path class="cls-52" d="M1277.54,756.77c-.33-3.33,3.36-5,5.7-4.12,2.13.78,16.51,6.18,16.51,6.18l14.28-1.21c.35,5.34-3.12,7.63-7.1,9.38s-7.75,2-10.82.38l-14.82-8.55,1.82-1.53a18.42,18.42,0,0,1,1.12,4.07"/><path class="cls-49" d="M1298.5,722.77c.31-3,2.37-5.43,5.48-5.42a6,6,0,0,1,3.61,10.77s-.09.39-.19.75a15.45,15.45,0,0,0,.47,1.88c.18.34,1.09,0,2.3-.17.83-.13,1,1.42.5,2.87-.47,1.29-2.51,2.66-4.41,3s-5-.85-3.88-1.69,1.11-1.14.94-1.72l-.5-1.66a7,7,0,0,1-1.62.18c-1.24-.12-1.85-.36-2.25-1.77A19.77,19.77,0,0,1,1298.5,722.77Z"/><path class="cls-54" d="M1305.18,733.18l-1.83,0,0-.1-.5-1.66a7,7,0,0,1-1.62.18,3.43,3.43,0,0,1-1.26-.3,2.55,2.55,0,0,0,2.21-1.06,9.22,9.22,0,0,0,.28-2.45,3.53,3.53,0,0,0,.24.64.49.49,0,0,0,.52.26l1.17-.14,3.47-.61-.24.22s-.09.39-.19.75a15.45,15.45,0,0,0,.47,1.88c.08.15.31.16.65.12l-.46.6Z"/><path class="cls-63" d="M1297.93,717c1.9.59,8.94-2.12,10.21,2.07a3.34,3.34,0,0,1,1.82,2.56,7.06,7.06,0,0,1-.73,5.61,31.23,31.23,0,0,0-1.53,3,4.79,4.79,0,0,1-2,.91,2.51,2.51,0,0,1-2.91-1.71,8.56,8.56,0,0,1-.36-1.65c.28.43,1.09.19,1.53-.69a2.61,2.61,0,0,0,0-2.54,1.13,1.13,0,0,0-2,.06,5.54,5.54,0,0,0-.1,1.65.88.88,0,0,1-1-.76,7.42,7.42,0,0,1-.1-1.87,1.81,1.81,0,0,0-.52-1.42,1.42,1.42,0,0,1-.34-1.28,3.32,3.32,0,0,1-2.55-1.69C1296.47,717.6,1296,716.39,1297.93,717Z"/><path class="cls-55" d="M1308.51,730.84c.14.44-.24,1.16-1.81,2a6.4,6.4,0,0,1-3.38,1s-2.52,1.37-3.61,2.13c-1.38,1-2,3.75-2.18,8.45-.16,4.16-.21,10.77-.14,14.27a4.24,4.24,0,0,0,2.39,3.75,7,7,0,0,0,3.57.73c3.29-.27,9.33-3.28,10.68-5.53,0-4.77-.44-7.67-.27-10.52.29-5,1.39-9,0-13.05-1.21-3.51-2.61-3.68-4-3.49A7.73,7.73,0,0,0,1308.51,730.84Z"/><path class="cls-50" d="M1307.73,730.32c.54-.07.69.13,1.06.46,0,0,.48,1.33-1.29,2.48a7.67,7.67,0,0,1-4.54.76l-.64.36s.3-1.82.82-1.94a7.18,7.18,0,0,0,3.15-.69C1307.89,731,1307.73,730.32,1307.73,730.32Z"/><path class="cls-49" d="M1276.12,735.23a19.73,19.73,0,0,1,1.22,2.24,4.57,4.57,0,0,0,1.1,1.92,24.19,24.19,0,0,0,5.36,3.2c2.77,1.4,5,1.35,6.59.73,3.55-1.36,5.5-4.49,7.78-6.31,1.59-1.28,3.15-.7,3.42.47.21.91-.57,3.46-3.31,6.1-2.12,2-5.74,4.3-8.78,4.38a15,15,0,0,1-5.94-1.25,53.71,53.71,0,0,1-6.9-3.93c-.65-.41-1.22-.54-2.54-1.17a9,9,0,0,1-3.37-2.66c-.69-1-.78-1.48-.63-1.71s.49-.22.85.21a7.72,7.72,0,0,0,1.94,1.81s-.85-.89-1.31-1.47a7.06,7.06,0,0,1-1-1.67c-.24-.59.27-1.38.65-1s.56.84,1.25,1.69a7.55,7.55,0,0,0,1.24,1.2,14.73,14.73,0,0,1-1.14-1.86,3.07,3.07,0,0,1-.41-1.69c0-.3.46-.66.86-.08a10.88,10.88,0,0,0,1.44,2.23c.61.64,1.13,1,1.15.84s-.37-.54-.59-1.28,0-1.54.42-1.62S1275.8,734.53,1276.12,735.23Z"/><path class="cls-50" d="M1301.2,736.5a2.51,2.51,0,0,1,.43,2.56,16.17,16.17,0,0,1-2.67,4.26,31.47,31.47,0,0,1-2.55,2.51s-2.75-1.88-3.46-4.19c0,0,3.52-3.38,4.46-4.25S1299.88,735.24,1301.2,736.5Z"/><path class="cls-3" d="M735.58,800.3l88.1-50.88a1.65,1.65,0,0,1,1.53,0l2.07,1.2a.46.46,0,0,1,0,.88l-88.11,50.87a1.65,1.65,0,0,1-1.53,0l-2-1.18C735.15,800.94,735.15,800.55,735.58,800.3Z"/><path class="cls-3" d="M800.84,791.19l6.23-3.59c4.22-2.44,10-3,13-1.31s2,5.08-2.27,7.52l-6.22,3.59c-4.22,2.44-10.05,3-13,1.31S796.62,793.63,800.84,791.19Z"/><path class="cls-71" d="M813.66,792.72s.32.58,2.1-.17a4.7,4.7,0,0,0,2.29-1.64s-.47-3.57-1.57-2.67S813.66,792.72,813.66,792.72Z"/><path class="cls-54" d="M818.13,780.21c0,1.88-.08,3.31.63,4.31a3.91,3.91,0,0,1,.77,1.69,5.35,5.35,0,0,0-3.19,1.76c-1.07,1.45-1,2.91-2,3.15s-2.67-.9-2.67-.9a1.74,1.74,0,0,0,1.47-1.37,42.42,42.42,0,0,0,1.51-4.9c0-.74,0-3.62,0-3.62Z"/><path class="cls-51" d="M818.15,785a4.12,4.12,0,0,0-2.81,2.15,7.89,7.89,0,0,1-1.84,2.91c-.6.33-1.66-.16-2.57-.16s-1.55.41-1.6,1.07l3.77,1.79c.87.41,1.6.42,2.29-1.38s.94-2.82,1.48-1.6a17.5,17.5,0,0,1,.77,4,.86.86,0,0,0,1.09-.46,17.94,17.94,0,0,1,.14-2.41c.15-1.11,1.16-2.5,1.08-3.84S819.15,785,818.15,785Z"/><path class="cls-54" d="M813.66,764.33l4.54.4a10.72,10.72,0,0,1,1,3.3c1.28,3.33-1,12-.8,15.87a4.2,4.2,0,0,1-3.8.05s-1.79-16.76-2.09-19.76Z"/><path class="cls-71" d="M804.32,797.13s.33.58,2.11-.17a4.7,4.7,0,0,0,2.28-1.64s-.46-3.57-1.57-2.67S804.32,797.13,804.32,797.13Z"/><path class="cls-49" d="M808.79,784.62c0,1.88-.08,3.31.64,4.32a3.86,3.86,0,0,1,.77,1.68,5.36,5.36,0,0,0-3.2,1.76c-1.07,1.46-1,2.91-2,3.16s-2.66-.91-2.66-.91a1.75,1.75,0,0,0,1.47-1.37,46.79,46.79,0,0,0,1.51-4.9c0-.74,0-3.62,0-3.62Z"/><path class="cls-51" d="M808.81,789.42a4.07,4.07,0,0,0-2.8,2.16,7.93,7.93,0,0,1-1.85,2.9c-.6.34-1.66-.15-2.57-.16s-1.54.41-1.59,1.07l3.77,1.79c.86.41,1.6.42,2.28-1.38s.94-2.82,1.48-1.59a16.8,16.8,0,0,1,.77,4,.88.88,0,0,0,1.1-.45,17.1,17.1,0,0,1,.13-2.41c.15-1.11,1.16-2.51,1.09-3.85S809.81,789.36,808.81,789.42Z"/><path class="cls-49" d="M809.91,772.89c1.23,2-.25,7.48-.84,15.36a3.67,3.67,0,0,1-3.76.31s-1.7-16.44-2-19.45"/><path class="cls-9" d="M828.52,735.54l-85.38,49.28-2.92,1.69-3.48-2a1.71,1.71,0,0,1-.76-1.32V712.11a1.77,1.77,0,0,1,.25-.87,1.82,1.82,0,0,1,.63-.66l86.64-50a1.65,1.65,0,0,1,1.53,0l3.47,2Z"/><path class="cls-10" d="M743.14,715.23v69.59l-2.92,1.69-3.48-2a1.71,1.71,0,0,1-.76-1.32V712.11a1.77,1.77,0,0,1,.25-.87Z"/><path class="cls-8" d="M741.85,711.84l85-49.11c1.27-.73,2.29-.13,2.29,1.33v69.22a5.07,5.07,0,0,1-2.29,4l-85,49.1c-1.26.73-2.29.14-2.29-1.33V715.81A5.08,5.08,0,0,1,741.85,711.84Z"/><path class="cls-31" d="M756.23,711.84l85-49.11c1.27-.73,2.3-.13,2.3,1.33v69.22a5.08,5.08,0,0,1-2.3,4l-85,49.1c-1.26.73-2.29.14-2.29-1.33V715.81A5.08,5.08,0,0,1,756.23,711.84Z"/><path class="cls-65" d="M756.23,711.84l85-49.11c1.27-.73,2.3-.13,2.3,1.33v69.22a5.08,5.08,0,0,1-2.3,4l-85,49.1c-1.26.73-2.29.14-2.29-1.33V715.81A5.08,5.08,0,0,1,756.23,711.84Z"/><path class="cls-78" d="M773.59,722.49l.67-.39a5.21,5.21,0,0,1,5.59,0c.83.56,2.94,1.69,2.94,1.69l1.14,6.35a5.14,5.14,0,0,0,7.59,2.67l.06,0a13,13,0,0,0,5.78-9.25l2.73-22.42a12.73,12.73,0,0,1,5.56-9.12,4.81,4.81,0,0,1,4.71-.18c1.11.57,3.55,2,3.55,2l2.39,13.48c1.18,3.2,4.26,4.57,6.87,3.06a3.92,3.92,0,0,1,4.17,0c1,.64,2.94,1.74,2.94,1.74l2.5,13.41L768.24,767l-3.58-2.06,3-33.18A13.36,13.36,0,0,1,773.59,722.49Z"/><path class="cls-12" d="M777.18,724.56l.66-.39a5.05,5.05,0,0,1,7.51,2.49l2.16,5.58a5.15,5.15,0,0,0,7.6,2.67l0,0a13,13,0,0,0,5.79-9.25l2.72-22.42a12.1,12.1,0,0,1,5.56-9.12,4.94,4.94,0,0,1,7.27,2.84l3.39,12.51c1.18,3.2,4.25,4.57,6.87,3.06s5.46-.06,6.35,3.23l3.26,11.93L768.24,767l3-33.17A13.33,13.33,0,0,1,777.18,724.56Z"/><path class="cls-78" d="M768.78,714.06c0,.7.64.91,1.42.46l12.68-7.32a2.83,2.83,0,0,0,1.41-2.1c0-.7-.63-.91-1.41-.46L770.2,712A2.84,2.84,0,0,0,768.78,714.06Z"/><path class="cls-78" d="M768.78,719.23c0,.71.64.92,1.42.47l12.68-7.32a2.83,2.83,0,0,0,1.41-2.1c0-.71-.63-.91-1.41-.46l-12.68,7.32A2.84,2.84,0,0,0,768.78,719.23Z"/><path class="cls-3" d="M851.81,800.85,831.3,789a5.08,5.08,0,0,0-4.59,0L806.2,800.85a1.39,1.39,0,0,0,0,2.64l20.51,11.85a5.08,5.08,0,0,0,4.59,0l20.51-11.85C853.08,802.76,853.08,801.58,851.81,800.85Z"/><path class="cls-4" d="M851.81,775.46,831.3,763.62a5.08,5.08,0,0,0-4.59,0L806.2,775.46c-1.26.74-1.26,1.92,0,2.65L826.71,790a5.08,5.08,0,0,0,4.59,0l20.51-11.84C853.08,777.38,853.08,776.19,851.81,775.46Z"/><path class="cls-7" d="M829,764.07a3.64,3.64,0,0,1,1.79.42l20.51,11.84c.33.19.45.38.45.46s-.12.26-.45.46L830.8,789.09a4.13,4.13,0,0,1-3.59,0L806.7,777.25c-.33-.2-.45-.38-.45-.46s.12-.27.45-.46l20.51-11.84a3.66,3.66,0,0,1,1.8-.42m0-1a4.8,4.8,0,0,0-2.3.55L806.2,775.46c-1.26.74-1.26,1.92,0,2.65L826.71,790a4.69,4.69,0,0,0,2.3.55,4.62,4.62,0,0,0,2.29-.55l20.51-11.84c1.27-.73,1.27-1.92,0-2.65L831.3,763.62a4.73,4.73,0,0,0-2.29-.55Z"/><path class="cls-5" d="M852.76,797.49a1.64,1.64,0,0,1-1,1.32L831.3,810.65a4.53,4.53,0,0,1-2.29.55V790.5a4.54,4.54,0,0,0,2.29-.55l20.51-11.84a1.61,1.61,0,0,0,1-1.32Z"/><path class="cls-6" d="M805.25,797.49a1.64,1.64,0,0,0,1,1.32l20.51,11.84a4.57,4.57,0,0,0,2.3.55V790.5a4.58,4.58,0,0,1-2.3-.55L806.2,778.11a1.61,1.61,0,0,1-1-1.32Z"/><path class="cls-63" d="M833,730.19a8,8,0,0,0-5.7-1.38,5.31,5.31,0,0,0-3,1.92,4.75,4.75,0,0,0-.64,3.5,2.14,2.14,0,0,0,1.6,1.8,2.61,2.61,0,0,0,1.52-.33,5.65,5.65,0,0,0,1-.81c.64-.51,1.26-1,1.88-1.59,1-.89,2-1.81,3-2.74A4.36,4.36,0,0,1,833,730.19Z"/><path class="cls-54" d="M818.34,760c2.16.79,16,6.27,16,6.27s-.57,10.36-3.69,8.69l-14.31-8.69-3.81-2.09C812.22,760.81,816,759.15,818.34,760Z"/><path class="cls-49" d="M803.31,769.11c-.33-3.38,3.42-5,5.79-4.18,2.16.79,16.32,5.78,16.32,5.78L838,770c2.16,5.17-1.57,7.74-5.61,9.52s-7.86,2.06-11,.39l-14.31-8.69,1.84-1.55a10.8,10.8,0,0,1,.95,3.24"/><path class="cls-49" d="M824.9,734.69c.47-3,2.64-5.3,5.76-5.13a6,6,0,0,1,3,10.94,6.67,6.67,0,0,1-.54.89s.43,2.08.51,2.38c.22.82.41.56,2.75.59,1.11,0,.68.2.08,1.62-.53,1.27-2.63,2.53-4.55,2.77s-4.92-1.11-3.79-1.88,1.64-.92,1.51-1.51a13.39,13.39,0,0,0-.54-1.9,7.71,7.71,0,0,1-1.3.3c-1.23.11-1.76-.83-2.34-2.17A13.17,13.17,0,0,1,824.9,734.69Z"/><path class="cls-54" d="M829.12,743.46a7.71,7.71,0,0,1-1.3.3,1.72,1.72,0,0,1-.77-.1,4.22,4.22,0,0,0,1.15-.67c.93-.74.76-2.37.75-3.26l.32.85.59.55,2.34.62,1-.12c.11.55.39,1.9.46,2.14.22.82.41.56,2.75.59,1.11,0,.68.2.08,1.62a4.79,4.79,0,0,1-2.37,2.1l-1,.39-.13,0-4.62-1.79c1-.64,1.4-.81,1.28-1.36A13.39,13.39,0,0,0,829.12,743.46Z"/><path class="cls-52" d="M836.69,762.53c.12,1.7.94,3.27,2,6.56s1.24,7-4.68,9.94-9.76,2.48-12.75,1-14.1-8.82-14.1-8.82c-1.3-1.72,3.74-9.45,13.85-10.18l7.13,2.83Z"/><path class="cls-55" d="M834.5,744.38c.43.54.48,1.22-1.19,1.64a5.25,5.25,0,0,1-3.65-.28,23.74,23.74,0,0,0-3.78,2c-3.73,2.59-4.64,7.09-.87,8.64.23,1.7.51,6,.58,7,3.18,2.22,9.65,1.47,11.1-.89a21.13,21.13,0,0,1,.22-2.36c1.52-5.63,2.71-7.12,2.28-11.37-.24-2.43-.43-3.66-1.72-4.31A11.37,11.37,0,0,0,834.5,744.38Z"/><path class="cls-63" d="M834.36,740.67a6.55,6.55,0,0,0,1.95-4.77,6,6,0,0,0-5.65-6.34,5.18,5.18,0,0,0-4.85,2.58,3.18,3.18,0,0,0,.59.75,1.42,1.42,0,0,0,.28,1.3,1.79,1.79,0,0,1,.44,1.44,7.88,7.88,0,0,0,0,1.88,1.7,1.7,0,0,0,1,1.22,5.19,5.19,0,0,1,.51-2.15c.55-.75,1.3-.76,2,.08a2.57,2.57,0,0,1-.1,2.63c-.81,1.11-1.56.44-1.56.44.27.74,0,1.77,1.36,2.08a4.51,4.51,0,0,0,3.17-.47A5.51,5.51,0,0,0,834.36,740.67Z"/><path class="cls-63" d="M834,730.8c1.56-.44,3,2,3.56,5.25s.59,5.56-.42,6.79-5.18,3.13-9.06,1.71c0,0,1.07-.6.91-4.82a3.19,3.19,0,0,0,3.07.44c2-.57,2.79-2.32,2.65-4.64A32.47,32.47,0,0,0,834,730.8Z"/><path class="cls-49" d="M804,747.24a20,20,0,0,1,1.17,2.26,4.42,4.42,0,0,0,1.06,1.94,23.79,23.79,0,0,0,5.29,3.32c2.74,1.45,4.94,1.45,6.58.87,3.57-1.28,5.59-4.37,7.9-6.15,1.62-1.24,3.17-.63,3.42.54.19.92-.65,3.45-3.44,6-2.16,2-5.83,4.18-8.87,4.2a15,15,0,0,1-5.92-1.37,55.38,55.38,0,0,1-6.82-4.08,27.68,27.68,0,0,0-2.51-1.22,9,9,0,0,1-3.31-2.74c-.67-1-.75-1.49-.6-1.72s.5-.21.86.22a7.15,7.15,0,0,0,1.89,1.86s-.83-.91-1.28-1.49a7.65,7.65,0,0,1-1-1.7c-.23-.59.3-1.37.67-1s.54.86,1.21,1.72a7.51,7.51,0,0,0,1.22,1.23,14.1,14.1,0,0,1-1.1-1.89,3,3,0,0,1-.37-1.69c0-.31.46-.66.85-.07a11.4,11.4,0,0,0,1.39,2.26c.6.66,1.12,1,1.14.86s-.36-.54-.56-1.29.05-1.53.46-1.61S803.68,746.53,804,747.24Z"/></g></g></svg>