<svg id="Layer_1" data-name="Layer 1" xmlns="http://www.w3.org/2000/svg" xmlns:xlink="http://www.w3.org/1999/xlink" viewBox="0 0 1395.59 1333.36"><defs><style>.cls-1{fill:url(#linear-gradient);}.cls-2{fill:#6b99d1;}.cls-2,.cls-45{opacity:0.15;}.cls-13,.cls-14,.cls-17,.cls-18,.cls-19,.cls-2,.cls-21,.cls-29,.cls-30,.cls-44,.cls-45,.cls-46,.cls-47,.cls-58,.cls-59,.cls-65{isolation:isolate;}.cls-3{fill:#dceeff;}.cls-4{fill:#a5cbfa;}.cls-5{fill:#c8e2ff;}.cls-44,.cls-6{fill:#fff;}.cls-45,.cls-7{fill:#344593;}.cls-8{fill:#1e3779;}.cls-9{fill:#031f60;}.cls-10{fill:#abffef;}.cls-11,.cls-19,.cls-21{fill:#6cffe6;}.cls-12{fill:#47eace;}.cls-13,.cls-46,.cls-58,.cls-63{opacity:0.3;}.cls-13{fill:url(#linear-gradient-2);}.cls-14,.cls-18,.cls-21,.cls-29,.cls-47,.cls-59,.cls-68{opacity:0.5;}.cls-14{fill:url(#linear-gradient-3);}.cls-15{fill:url(#linear-gradient-4);}.cls-16{fill:url(#linear-gradient-5);}.cls-17,.cls-44{opacity:0.4;}.cls-17{fill:url(#linear-gradient-6);}.cls-18,.cls-57{fill:#57f7e0;}.cls-19,.cls-20{opacity:0.7;}.cls-22{fill:url(#linear-gradient-7);}.cls-23{fill:url(#linear-gradient-8);}.cls-24,.cls-31,.cls-32,.cls-64,.cls-74,.cls-75{fill:none;stroke-miterlimit:10;}.cls-24,.cls-75{stroke:#344593;}.cls-25{fill:url(#linear-gradient-9);}.cls-26{fill:url(#linear-gradient-10);}.cls-27{fill:url(#linear-gradient-11);}.cls-28{fill:url(#linear-gradient-12);}.cls-29{fill:url(#linear-gradient-13);}.cls-30{fill:#e9fffb;opacity:0.2;}.cls-31{stroke:#eef7ff;}.cls-32{stroke:#fff;}.cls-32,.cls-75{stroke-linecap:round;}.cls-33{fill:#41e5c9;}.cls-34{fill:url(#linear-gradient-14);}.cls-35{fill:url(#linear-gradient-15);}.cls-36{fill:url(#linear-gradient-16);}.cls-37{fill:url(#linear-gradient-17);}.cls-38{fill:url(#linear-gradient-18);}.cls-39{fill:url(#linear-gradient-19);}.cls-40{fill:url(#linear-gradient-20);}.cls-41{fill:url(#linear-gradient-21);}.cls-42{fill:#b5deff;}.cls-43{fill:#3a52aa;}.cls-46{fill:url(#linear-gradient-22);}.cls-47{fill:url(#linear-gradient-23);}.cls-48{fill:#ffa8a7;}.cls-49{fill:#e4f2f2;}.cls-50{fill:#2d2979;}.cls-51{fill:#7fa8e6;}.cls-52{fill:#597bc6;}.cls-53{fill:#f28f8f;}.cls-54{fill:#f5fbfb;}.cls-55{fill:#c8dbda;}.cls-56{fill:#543354;}.cls-58{fill:url(#linear-gradient-24);}.cls-59{fill:url(#linear-gradient-25);}.cls-60{fill:#c4d9ff;}.cls-61{fill:#9ebce8;}.cls-62{fill:#3a2c6d;}.cls-64{stroke:#e9fffb;}.cls-65,.cls-67{fill:#0b3fa5;}.cls-65,.cls-66{opacity:0.8;}.cls-69{opacity:0.9;}.cls-70{fill:#291d51;}.cls-71{fill:#eff6fe;}.cls-72{fill:#aad1fc;}.cls-73{fill:#aeb5b7;}.cls-74{stroke:#6cffe6;}.cls-76{fill:#6f89d1;}.cls-77{fill:#3fe0c5;}</style><linearGradient id="linear-gradient" x1="-74.04" y1="2196.94" x2="1178.96" y2="1473.52" gradientTransform="matrix(1, 0, 0, -1, 0, 2418)" gradientUnits="userSpaceOnUse"><stop offset="0" stop-color="#150773"/><stop offset="0.5" stop-color="#5333ed"/><stop offset="1" stop-color="#2cd4d9"/></linearGradient><linearGradient id="linear-gradient-2" x1="1278.9" y1="54.62" x2="1252.15" y2="7.5" gradientTransform="translate(0 542)" gradientUnits="userSpaceOnUse"><stop offset="0" stop-color="#57f7e0"/><stop offset="0.12" stop-color="#57f7e0" stop-opacity="0.88"/><stop offset="0.73" stop-color="#57f7e0" stop-opacity="0.25"/><stop offset="1" stop-color="#57f7e0" stop-opacity="0"/></linearGradient><linearGradient id="linear-gradient-3" x1="1216.22" y1="54.8" x2="1237.68" y2="16.64" xlink:href="#linear-gradient-2"/><linearGradient id="linear-gradient-4" x1="908.15" y1="248.13" x2="958.75" y2="248.13" gradientTransform="translate(0 542)" gradientUnits="userSpaceOnUse"><stop offset="0" stop-color="#6b99d1"/><stop offset="0.02" stop-color="#6e9bd3"/><stop offset="0.24" stop-color="#86b0e4"/><stop offset="0.46" stop-color="#97bff0"/><stop offset="0.71" stop-color="#a2c8f8"/><stop offset="1" stop-color="#a5cbfa"/></linearGradient><linearGradient id="linear-gradient-5" x1="913.02" y1="239.18" x2="953.93" y2="239.18" gradientTransform="translate(0 542)" gradientUnits="userSpaceOnUse"><stop offset="0" stop-color="#a5cbfa"/><stop offset="0.36" stop-color="#a8cdfa"/><stop offset="0.67" stop-color="#b3d4fc"/><stop offset="0.95" stop-color="#c4dffe"/><stop offset="1" stop-color="#c8e2ff"/></linearGradient><linearGradient id="linear-gradient-6" x1="933.46" y1="245.71" x2="933.46" y2="128.71" gradientTransform="translate(0 542)" gradientUnits="userSpaceOnUse"><stop offset="0" stop-color="#57f7d7" stop-opacity="0.7"/><stop offset="0.11" stop-color="#57f7d7" stop-opacity="0.67"/><stop offset="0.29" stop-color="#57f7d9" stop-opacity="0.58"/><stop offset="0.5" stop-color="#57f7da" stop-opacity="0.44"/><stop offset="0.74" stop-color="#57f7dd" stop-opacity="0.24"/><stop offset="1" stop-color="#57f7e0" stop-opacity="0"/></linearGradient><linearGradient id="linear-gradient-7" x1="1101.74" y1="246.64" x2="1157.58" y2="246.64" xlink:href="#linear-gradient-5"/><linearGradient id="linear-gradient-8" x1="1106.51" y1="238.08" x2="1152.75" y2="238.08" xlink:href="#linear-gradient-5"/><linearGradient id="linear-gradient-9" x1="1333.88" y1="-271.98" x2="1339.52" y2="-266.35" gradientTransform="matrix(0.96, -0.27, 0.27, 0.96, -95.84, 1351.01)" gradientUnits="userSpaceOnUse"><stop offset="0" stop-color="#91f1e6"/><stop offset="1" stop-color="#0662dd"/></linearGradient><linearGradient id="linear-gradient-10" x1="1351.54" y1="-285.66" x2="1354.58" y2="-282.63" xlink:href="#linear-gradient-9"/><linearGradient id="linear-gradient-11" x1="1361.35" y1="-280.9" x2="1364.4" y2="-277.86" xlink:href="#linear-gradient-9"/><linearGradient id="linear-gradient-12" x1="1354.64" y1="-268.01" x2="1358.45" y2="-264.2" xlink:href="#linear-gradient-9"/><linearGradient id="linear-gradient-13" x1="1129.67" y1="245.46" x2="1129.67" y2="113.17" xlink:href="#linear-gradient-6"/><linearGradient id="linear-gradient-14" x1="995.08" y1="137.17" x2="1003.77" y2="137.17" gradientTransform="translate(0 542)" gradientUnits="userSpaceOnUse"><stop offset="0" stop-color="#c8e2ff"/><stop offset="0.18" stop-color="#c2defc"/><stop offset="0.41" stop-color="#b2d1f4"/><stop offset="0.67" stop-color="#97bce7"/><stop offset="0.95" stop-color="#729fd5"/><stop offset="1" stop-color="#6b99d1"/></linearGradient><linearGradient id="linear-gradient-15" x1="1002.36" y1="141.42" x2="1011.05" y2="141.42" xlink:href="#linear-gradient-14"/><linearGradient id="linear-gradient-16" x1="1009.64" y1="145.6" x2="1018.32" y2="145.6" xlink:href="#linear-gradient-14"/><linearGradient id="linear-gradient-17" x1="1016.91" y1="149.86" x2="1025.6" y2="149.86" xlink:href="#linear-gradient-14"/><linearGradient id="linear-gradient-18" x1="5242.13" y1="137.17" x2="5250.82" y2="137.17" gradientTransform="matrix(-1, 0, 0, 1, 6312.87, 542)" xlink:href="#linear-gradient-14"/><linearGradient id="linear-gradient-19" x1="5249.42" y1="141.42" x2="5258.1" y2="141.42" gradientTransform="matrix(-1, 0, 0, 1, 6312.87, 542)" xlink:href="#linear-gradient-14"/><linearGradient id="linear-gradient-20" x1="5256.69" y1="145.6" x2="5265.37" y2="145.6" gradientTransform="matrix(-1, 0, 0, 1, 6312.87, 542)" xlink:href="#linear-gradient-14"/><linearGradient id="linear-gradient-21" x1="5263.97" y1="149.86" x2="5272.66" y2="149.86" gradientTransform="matrix(-1, 0, 0, 1, 6312.87, 542)" xlink:href="#linear-gradient-14"/><linearGradient id="linear-gradient-22" x1="1099.21" y1="134.1" x2="1036.91" y2="24.36" xlink:href="#linear-gradient-2"/><linearGradient id="linear-gradient-23" x1="966.71" y1="134.53" x2="1016.68" y2="45.65" xlink:href="#linear-gradient-2"/><linearGradient id="linear-gradient-24" x1="950.68" y1="7.75" x2="927.44" y2="-33.19" gradientTransform="translate(0 542)" gradientUnits="userSpaceOnUse"><stop offset="0" stop-color="#57f7e0"/><stop offset="0.04" stop-color="#57f7e0" stop-opacity="0.91"/><stop offset="0.14" stop-color="#57f7e0" stop-opacity="0.7"/><stop offset="0.25" stop-color="#57f7e0" stop-opacity="0.51"/><stop offset="0.36" stop-color="#57f7e0" stop-opacity="0.35"/><stop offset="0.47" stop-color="#57f7e0" stop-opacity="0.22"/><stop offset="0.59" stop-color="#57f7e0" stop-opacity="0.13"/><stop offset="0.71" stop-color="#57f7e0" stop-opacity="0.06"/><stop offset="0.84" stop-color="#57f7e0" stop-opacity="0.01"/><stop offset="1" stop-color="#57f7e0" stop-opacity="0"/></linearGradient><linearGradient id="linear-gradient-25" x1="892.43" y1="7.92" x2="911.08" y2="-25.24" xlink:href="#linear-gradient-24"/></defs><title>hero_bg_new</title><g id="Layer_1-2" data-name="Layer 1-2"><polygon class="cls-1" points="0 0 0 1333.36 1395.59 520.7 1395.59 0 0 0"/><path class="cls-2" d="M1284.47,609.31l-35,20.22a3.85,3.85,0,0,1-1.91.46,3.91,3.91,0,0,1-1.92-.46l-35-20.22a1.34,1.34,0,0,1-.83-1.11,1.13,1.13,0,0,1,.42-.83,1.67,1.67,0,0,1,.37-.28l35-20.22a4.23,4.23,0,0,1,3.83,0l35,20.22a1.17,1.17,0,0,1,0,2.22Z"/><path class="cls-3" d="M1284.47,605.15l-35,20.21a3.77,3.77,0,0,1-1.91.46,3.87,3.87,0,0,1-1.91-.45l-35-20.22a1.36,1.36,0,0,1-.83-1.1,1.34,1.34,0,0,1,.83-1.11l5.56-3.21,29.46-17a4.17,4.17,0,0,1,3.83,0l35,20.22a1.17,1.17,0,0,1,0,2.21Z"/><path class="cls-4" d="M1247.55,617.84v8a3.87,3.87,0,0,1-1.91-.45l-35-20.22a1.36,1.36,0,0,1-.83-1.1v-6.91a1.14,1.14,0,0,1,.42-.83l5.93,3.43Z"/><path class="cls-5" d="M1247.55,617.84v8a3.82,3.82,0,0,0,1.9-.45l35-20.22a1.36,1.36,0,0,0,.83-1.1v-6.91a1.14,1.14,0,0,0-.42-.83l-5.94,3.43Z"/><path class="cls-3" d="M1284.47,598.24l-35,20.23a3.85,3.85,0,0,1-1.91.45,3.9,3.9,0,0,1-1.92-.45l-35-20.23a1.33,1.33,0,0,1-.83-1.1,1.14,1.14,0,0,1,.42-.83,2,2,0,0,1,.37-.28l35-20.21a4.23,4.23,0,0,1,3.83,0l35,20.21C1285.52,596.65,1285.52,597.65,1284.47,598.24Z"/><path class="cls-6" d="M1247.55,576.2a3.11,3.11,0,0,1,1.49.34l35,20.22c.27.16.37.32.37.38s-.1.23-.37.38l-35,20.22a3.08,3.08,0,0,1-1.49.34,3.14,3.14,0,0,1-1.5-.34l-35-20.23c-.26-.14-.37-.3-.37-.38s0-.11.15-.23a1.19,1.19,0,0,1,.23-.16l35-20.22a3.08,3.08,0,0,1,1.49-.34m0-.83a3.88,3.88,0,0,0-1.92.46l-35,20.21a2,2,0,0,0-.37.28,1.14,1.14,0,0,0-.42.83,1.33,1.33,0,0,0,.83,1.1l35,20.23a3.9,3.9,0,0,0,1.92.45,3.85,3.85,0,0,0,1.91-.45l35-20.23a1.17,1.17,0,0,0,0-2.21l-35-20.21a3.85,3.85,0,0,0-1.91-.46Z"/><path class="cls-7" d="M1246.26,580.62l-27.33,15.78a.77.77,0,0,0,0,1.47l27.33,15.78a2.81,2.81,0,0,0,2.55,0l27.33-15.78c.71-.4.71-1.06,0-1.47l-27.33-15.78A2.86,2.86,0,0,0,1246.26,580.62Z"/><path class="cls-8" d="M1276.14,596.4l-27.33-15.78a2.67,2.67,0,0,0-1.28-.3v1.29L1275.92,598l.22-.13C1276.85,597.47,1276.85,596.81,1276.14,596.4Z"/><path class="cls-9" d="M1247.55,580.32a2.62,2.62,0,0,0-1.28.3l-27.33,15.78a.77.77,0,0,0,0,1.47l.23.13,28.38-16.39Z"/><polygon class="cls-10" points="1232.6 572.99 1253.51 560.91 1262.48 566.09 1241.56 578.16 1232.6 572.99"/><path class="cls-11" d="M1232.6,596.9a7,7,0,0,0,3.18,5.52l2.59,1.5a7,7,0,0,0,6.38,0l14.53-8.38a7.08,7.08,0,0,0,3.19-5.52V566.09l-20.92,12.08-9-5.18Z"/><path class="cls-12" d="M1235.78,602.42l1.3.75,1.29.75a6.53,6.53,0,0,0,3.19.76V578.16l-9-5.18V596.9A7,7,0,0,0,1235.78,602.42Z"/><path class="cls-7" d="M1252.21,580.89c2-1.16,3.61-.22,3.61,2.08a8,8,0,0,1-3.61,6.27c-2,1.15-3.62.22-3.62-2.09A8,8,0,0,1,1252.21,580.89Z"/><path class="cls-7" d="M1251,592.5c0,1,.53,1.45,1.19,1.07a3.06,3.06,0,0,0,1.2-2.5v-9.45L1251,583Z"/><path class="cls-7" d="M1239.45,571.76a1.29,1.29,0,0,0,0,2.44,4.66,4.66,0,0,0,4.22,0,1.29,1.29,0,0,0,0-2.44A4.72,4.72,0,0,0,1239.45,571.76Z"/><path class="cls-7" d="M1251.41,564.86a1.29,1.29,0,0,0,0,2.44,4.64,4.64,0,0,0,4.22,0,1.29,1.29,0,0,0,0-2.44A4.69,4.69,0,0,0,1251.41,564.86Z"/><path class="cls-7" d="M1238.57,561.14V573h6V561.32a.74.74,0,0,1,.37-.64l5.06-2.92a.37.37,0,0,1,.55.32v8h6v-12c0-3.86-2.73-5.43-6.07-3.51l-8.67,5A7,7,0,0,0,1238.57,561.14Z"/><path class="cls-13" d="M1249.46,535.76a3.33,3.33,0,0,1-1.92.46h0V614a3,3,0,0,0,1.28-.3l27.1-15.7c.51-.28.75-.53.75-.83V520.09Z"/><path class="cls-14" d="M1247.55,536.22h-.47l-.46-.08-.28-.09h-.18a4.17,4.17,0,0,1-.43-.21L1218.4,520.1v77.08a.9.9,0,0,0,.53.73l27.33,15.78a3,3,0,0,0,1.24.3h0V536.22Z"/><path class="cls-2" d="M896.94,658.56,914,648.69a4.23,4.23,0,0,1,3.83,0L935,658.56a1.16,1.16,0,0,1,0,2.2l-17.09,9.88a4.23,4.23,0,0,1-3.83,0L897,660.76C895.88,660.15,895.88,659.17,896.94,658.56Z"/><path class="cls-3" d="M896.94,638.71,914,628.85a4.23,4.23,0,0,1,3.83,0L935,638.71a1.17,1.17,0,0,1,0,2.21l-17.09,9.87a4.23,4.23,0,0,1-3.83,0L897,640.92a1.16,1.16,0,0,1,0-2.21Z"/><path class="cls-6" d="M915.94,629.22a3.05,3.05,0,0,1,1.5.35l17.09,9.87c.28.16.38.32.38.38s-.1.23-.38.38l-17.09,9.87a3.44,3.44,0,0,1-3,0l-17.09-9.87c-.28-.17-.38-.32-.38-.38s.1-.23.38-.38l17.09-9.87a3,3,0,0,1,1.49-.35m0-.83a3.94,3.94,0,0,0-1.91.46l-17.09,9.87a1.16,1.16,0,0,0,0,2.21L914,650.79a3.85,3.85,0,0,0,1.91.46,3.91,3.91,0,0,0,1.92-.46L935,640.92a1.17,1.17,0,0,0,0-2.21l-17.09-9.87a4,4,0,0,0-2-.45Z"/><path class="cls-4" d="M896.15,657.07a1.35,1.35,0,0,0,.79,1.1L914,668a3.77,3.77,0,0,0,1.91.46V651.25a3.78,3.78,0,0,1-1.91-.46l-17.09-9.87a1.34,1.34,0,0,1-.79-1.1Z"/><path class="cls-5" d="M935.75,657.07a1.37,1.37,0,0,1-.83,1.1L917.82,668a3.81,3.81,0,0,1-1.92.46V651.25a3.82,3.82,0,0,0,1.92-.46l17.09-9.87a1.34,1.34,0,0,0,.83-1.1Z"/><path class="cls-2" d="M915.4,782.56c-10,5.76-10,15.09,0,20.83s26.15,5.76,36.13,0,10-15.1,0-20.83S925.38,776.81,915.4,782.56Z"/><path class="cls-15" d="M954.26,781.81l-.35-.66h-.49a19.26,19.26,0,0,0-2.07-1.36c-9.88-5.7-25.9-5.7-35.78,0a23.5,23.5,0,0,0-2.08,1.36H913l-.36.68c-1.67,3.1-4.49,7.28-4.49,8.27,0,3.75,2.5,7.5,7.4,10.36,9.88,5.71,25.9,5.71,35.78,0,4.94-2.84,7.42-6.59,7.42-10.33C958.77,789,956.4,784.69,954.26,781.81Z"/><path class="cls-16" d="M951.29,775.42a15.69,15.69,0,0,0-3.33-2.58c-8-4.61-20.93-4.61-28.91,0a15.76,15.76,0,0,0-3.33,2.58H913.1v5.77h0c0,3,2,6,6,8.33,8,4.61,20.93,4.61,28.91,0,4-2.3,6-5.33,6-8.33v-5.77Z"/><path class="cls-3" d="M919,767.8c-8,4.61-8,12.08,0,16.67s20.93,4.61,28.91,0,8-12.08,0-16.67S927,763.19,919,767.8Z"/><path class="cls-6" d="M933.46,765.15a28.63,28.63,0,0,1,14.08,3.33c3.59,2.08,5.58,4.78,5.58,7.63s-2,5.55-5.58,7.63a31.08,31.08,0,0,1-28.08,0c-3.59-2.08-5.58-4.78-5.58-7.63s2-5.55,5.58-7.63a28.6,28.6,0,0,1,14-3.33m0-.83A29.51,29.51,0,0,0,919,767.78c-8,4.61-8,12.08,0,16.67a31.93,31.93,0,0,0,28.91,0c8-4.61,8-12.08,0-16.67a29.52,29.52,0,0,0-14.42-3.47Z"/><path class="cls-17" d="M913,776.14c0,3,2,6,6,8.33,8,4.61,20.93,4.61,28.92,0,4-2.31,6-5.33,6-8.33V671.42H913Z"/><path class="cls-18" d="M912.49,752.79a22.43,22.43,0,0,1-4.93-3.77,12.1,12.1,0,0,1-3.75-8.15v16.67c.08,4.32,3,8.62,8.68,11.91a37.5,37.5,0,0,0,12.13,4.24V757A37.64,37.64,0,0,1,912.49,752.79Z"/><path class="cls-18" d="M950.2,760.56a22.24,22.24,0,0,0,4.93-3.74,12.06,12.06,0,0,0,3.75-8.15v16.67c-.08,4.32-3,8.63-8.68,11.92a37.64,37.64,0,0,1-12.13,4.23V764.81A37.64,37.64,0,0,0,950.2,760.56Z"/><path class="cls-18" d="M942.59,747.79v20.33a49.39,49.39,0,0,1-17.74.09A36.67,36.67,0,0,1,913,764a21.18,21.18,0,0,1-2.43-1.6V742.16a25.06,25.06,0,0,0,2.43,1.59,36.62,36.62,0,0,0,11.83,4.13A49.58,49.58,0,0,0,942.59,747.79Z"/><path class="cls-19" d="M927.17,752v8a49.58,49.58,0,0,0,10.55.21v-8A50.13,50.13,0,0,1,927.17,752Z"/><path class="cls-18" d="M954.58,728.7a16.14,16.14,0,0,1-1.93,1.67,14.85,14.85,0,0,1-1.3.89c-.26.17-.52.33-.79.48a30.54,30.54,0,0,1-9.47,3.33,37.39,37.39,0,0,1-5.13.63v18.78a38.75,38.75,0,0,0,5.13-.63,30.33,30.33,0,0,0,9.47-3.33,22.74,22.74,0,0,0,2.09-1.38,16.19,16.19,0,0,0,1.93-1.67,10.33,10.33,0,0,0,3-5.49V723.21A10.33,10.33,0,0,1,954.58,728.7Z"/><g class="cls-20"><path class="cls-21" d="M946.16,738v10.74c-.83.29-1.67.55-2.5.78V738.77C944.5,738.54,945.35,738.28,946.16,738Z"/><path class="cls-21" d="M951,735.72v10.73a4.57,4.57,0,0,1-.43.26,23.32,23.32,0,0,1-2.08,1.07V737a23.29,23.29,0,0,0,2.08-1.07Z"/><path class="cls-21" d="M955.81,731.43v10.74a12.5,12.5,0,0,1-1.23,1.48c-.39.4-.83.79-1.28,1.17V734.09a15.83,15.83,0,0,0,1.28-1.17A12.57,12.57,0,0,0,955.81,731.43Z"/></g><path class="cls-18" d="M940,719.31V741a39,39,0,0,1-4.1.46,41.39,41.39,0,0,1-9.7-.56c-.55-.1-1.09-.22-1.67-.34V718.87c.54.13,1.08.24,1.67.34a41,41,0,0,0,9.7.56A36.94,36.94,0,0,0,940,719.31Z"/><path class="cls-18" d="M954.21,706.41V724a20.37,20.37,0,0,0-3.39-2.4,37.18,37.18,0,0,0-17.38-4.41V700.51c6.67,0,13.4,1.48,18.52,4.43A21.16,21.16,0,0,1,954.21,706.41Z"/><path class="cls-18" d="M925.64,709.18c-.6-.1-1.18-.23-1.78-.36a32.37,32.37,0,0,1-7-2.33h0a22.18,22.18,0,0,1-2-1c-.29-.18-.58-.34-.83-.53s-.54-.33-.83-.51l-.56-.41h0a16.45,16.45,0,0,1-2.12-1.83,10.73,10.73,0,0,1-3.33-7.18l.06,18.93v.37a10.67,10.67,0,0,0,3.33,7.19,17,17,0,0,0,2.12,1.83h0a13.77,13.77,0,0,0,1.36.92l.83.52a17.76,17.76,0,0,0,2,1h0a32.13,32.13,0,0,0,7,2.32c.58.14,1.17.27,1.77.38,1.38.24,2.79.42,4.17.53V709.73C928.43,709.61,927,709.42,925.64,709.18Z"/><path class="cls-19" d="M915.39,708.7c-2-.77-4.23,1.07-4.13,3.33s.48,5,4,7c3.83,2.19,5.59-.78,5.45-3.42A7.82,7.82,0,0,0,915.39,708.7Z"/><path class="cls-2" d="M1109.93,782c-10.9,6.3-10.9,16.5,0,22.79s28.58,6.3,39.48,0,10.9-16.49,0-22.79S1120.83,775.74,1109.93,782Z"/><path class="cls-22" d="M1154,780.77a21.14,21.14,0,0,0-4.6-3.53c-10.91-6.29-28.58-6.29-39.48,0a21.14,21.14,0,0,0-4.6,3.53h-3.58v7.87h0c0,4.13,2.73,8.25,8.18,11.4,10.9,6.29,28.58,6.29,39.48,0,5.45-3.15,8.18-7.28,8.18-11.4v-7.87Z"/><path class="cls-3" d="M1109.93,770.36c-10.9,6.29-10.9,16.5,0,22.79s28.58,6.3,39.48,0,10.9-16.49,0-22.79S1120.83,764.06,1109.93,770.36Z"/><path class="cls-6" d="M1129.67,766.47c7.31,0,14.17,1.67,19.33,4.61,5,2.88,7.76,6.67,7.76,10.68s-2.76,7.78-7.76,10.68c-5.15,3-12,4.61-19.33,4.61s-14.17-1.67-19.33-4.61c-5-2.89-7.76-6.67-7.76-10.68s2.76-7.79,7.76-10.68c5.15-3,12-4.61,19.33-4.61m0-.83c-7.14,0-14.29,1.58-19.74,4.72-10.9,6.29-10.9,16.5,0,22.79,5.45,3.15,12.6,4.73,19.74,4.73s14.28-1.58,19.74-4.73c10.9-6.29,10.9-16.49,0-22.79-5.41-3.15-12.6-4.72-19.74-4.72Z"/><path class="cls-23" d="M1149.83,773.56a17.6,17.6,0,0,0-3.82-2.92c-9-5.22-23.66-5.22-32.69,0a17.74,17.74,0,0,0-3.81,2.92h-3v6.52h0c0,3.42,2.26,6.83,6.77,9.44,9,5.21,23.67,5.21,32.69,0,4.52-2.61,6.78-6,6.78-9.44v-6.52Z"/><path class="cls-3" d="M1113.32,764.94c-9,5.22-9,13.67,0,18.88s23.67,5.22,32.69,0,9-13.66,0-18.88S1122.35,759.73,1113.32,764.94Z"/><path class="cls-6" d="M1129.67,761.86a32.4,32.4,0,0,1,15.93,3.8c4.1,2.37,6.36,5.46,6.36,8.72s-2.26,6.35-6.36,8.72a35.36,35.36,0,0,1-31.86,0c-4.09-2.37-6.35-5.47-6.35-8.72s2.26-6.35,6.35-8.72a32.39,32.39,0,0,1,15.93-3.8m0-.83a33.5,33.5,0,0,0-16.35,3.91c-9,5.22-9,13.67,0,18.88a36.14,36.14,0,0,0,32.69,0c9-5.21,9-13.66,0-18.88a33.45,33.45,0,0,0-16.34-3.94Z"/><polyline class="cls-24" points="1139.34 731.95 1141.89 717.51 1131.15 715.56"/><polyline class="cls-24" points="1119.4 734.28 1131.15 715.56 1139.34 731.95"/><path class="cls-25" d="M1115.32,735.41a4.23,4.23,0,1,1,0,.05Z"/><path class="cls-26" d="M1128.95,716.18a2.28,2.28,0,1,1,2.82,1.58h0a2.28,2.28,0,0,1-2.82-1.57Z"/><path class="cls-27" d="M1139.69,718.12a2.28,2.28,0,1,1,2.81,1.59h0a2.27,2.27,0,0,1-2.8-1.57h0Z"/><path class="cls-28" d="M1136.58,732.71a2.87,2.87,0,1,1,3.53,2h0A2.88,2.88,0,0,1,1136.58,732.71Z"/><path class="cls-29" d="M1106.55,774.37c0,3.42,2.26,6.83,6.77,9.44,9,5.21,23.68,5.21,32.69,0,4.51-2.61,6.78-6,6.78-9.44V656h-46.23Z"/><path class="cls-30" d="M817.75,608.2l-20.08,11.59a1.17,1.17,0,0,0,0,2.21l20.08,11.59a4.23,4.23,0,0,0,3.83,0L841.65,622a1.16,1.16,0,0,0,0-2.21L821.58,608.2A4.23,4.23,0,0,0,817.75,608.2Z"/><path class="cls-2" d="M817.75,616.69l-20.08,11.59a1.17,1.17,0,0,0,0,2.21l20.08,11.59a4.23,4.23,0,0,0,3.83,0l20.08-11.59a1.16,1.16,0,0,0,0-2.21l-20.08-11.59A4.23,4.23,0,0,0,817.75,616.69Z"/><path class="cls-31" d="M817.75,608.2l-20.08,11.59a1.17,1.17,0,0,0,0,2.21l20.08,11.59a4.23,4.23,0,0,0,3.83,0L841.65,622a1.16,1.16,0,0,0,0-2.21L821.58,608.2A4.23,4.23,0,0,0,817.75,608.2Z"/><path class="cls-5" d="M842.44,579.49v26a4.24,4.24,0,0,1-1.91,3.33l-19,10.94a4.17,4.17,0,0,1-3.82,0l-19-11a4.25,4.25,0,0,1-1.92-3.33v-26Z"/><path class="cls-4" d="M819.66,579.49v40.76a3.94,3.94,0,0,1-1.91-.46l-19-10.94a4.25,4.25,0,0,1-1.92-3.33v-26Z"/><path class="cls-3" d="M817.75,566.81,797.67,578.4a1.17,1.17,0,0,0,0,2.21l20.08,11.59a4.23,4.23,0,0,0,3.83,0l20.08-11.59a1.16,1.16,0,0,0,0-2.21l-20.08-11.59A4.23,4.23,0,0,0,817.75,566.81Z"/><path class="cls-9" d="M827,598.32V606c0,.83.58,1.14,1.28.74l.22-.13,6.4-3.69a2.5,2.5,0,0,0,.91-1l-8.42-4.85A2.5,2.5,0,0,0,827,598.32Z"/><path class="cls-8" d="M836.19,593.29V593c0-.83-.57-1.14-1.27-.73l-.13.07-6.48,3.74a2.57,2.57,0,0,0-.9,1l8.42,4.85a2.5,2.5,0,0,0,.37-1.24Z"/><path class="cls-7" d="M834.8,599.73a2.39,2.39,0,0,1-.38,1.25,2.61,2.61,0,0,1-.89,1l-6.41,3.69-.1.06v-7.37a2.5,2.5,0,0,1,.38-1.25,2.57,2.57,0,0,1,.9-1l6.48-3.74Z"/><path class="cls-9" d="M812.29,598.32V606c0,.83-.57,1.14-1.27.74l-.23-.13-6.4-3.69a2.57,2.57,0,0,1-.9-1l8.42-4.85A2.5,2.5,0,0,1,812.29,598.32Z"/><path class="cls-8" d="M803.13,593.29V593c0-.83.57-1.14,1.27-.73l.12.07,6.49,3.74a2.57,2.57,0,0,1,.9,1l-8.42,4.85a2.45,2.45,0,0,1-.37-1.24Z"/><path class="cls-7" d="M804.52,599.73a2.39,2.39,0,0,0,.38,1.25,2.61,2.61,0,0,0,.89,1l6.41,3.69.09.06v-7.37a2.5,2.5,0,0,0-.38-1.25,2.57,2.57,0,0,0-.9-1l-6.49-3.74Z"/><path class="cls-3" d="M817.75,566.81,797.67,578.4a1.17,1.17,0,0,0,0,2.21l20.08,11.59a4.23,4.23,0,0,0,3.83,0l20.08-11.59a1.16,1.16,0,0,0,0-2.21l-20.08-11.59A4.23,4.23,0,0,0,817.75,566.81Z"/><path class="cls-8" d="M827.54,580.22l-.21.13-6.4,3.7a2.5,2.5,0,0,1-1.27.3,2.58,2.58,0,0,1-1.28-.3l-6.4-3.7-.22-.13a.78.78,0,0,1,0-1.47l6.61-3.82a2.79,2.79,0,0,1,2.55,0l6.61,3.82a.78.78,0,0,1,0,1.47Z"/><path class="cls-9" d="M819.67,574.63v9.68a2.58,2.58,0,0,1-1.28-.3l-6.4-3.7-.22-.13a.78.78,0,0,1,0-1.47l6.61-3.82A2.59,2.59,0,0,1,819.67,574.63Z"/><path class="cls-7" d="M827.34,580.35l-6.4,3.7a2.81,2.81,0,0,1-2.55,0l-6.4-3.7,6.4-3.68a2.81,2.81,0,0,1,2.55,0Z"/><path class="cls-2" d="M1099.6,699.31l-63.73,36.76a6.58,6.58,0,0,1-5.94,0L966.2,699.31a2.07,2.07,0,0,1-1.2-1.71,1.77,1.77,0,0,1,.65-1.29,2.7,2.7,0,0,1,.58-.43L1030,659.12a6.55,6.55,0,0,1,5.94,0l63.73,36.76C1101.24,696.81,1101.24,698.36,1099.6,699.31Z"/><path class="cls-2" d="M996.55,747.59l-5.18-3c-3.52-2-8.38-2.5-10.83-1.09s-1.63,4.23,1.89,6.27l5.19,3c3.52,2,8.38,2.5,10.83,1.08S1000,749.61,996.55,747.59Z"/><path class="cls-3" d="M1099.6,694.06l-63.73,36.76a6,6,0,0,1-3,.71,6.12,6.12,0,0,1-3-.69L966.2,694.06a2.1,2.1,0,0,1-1.23-1.72,2.07,2.07,0,0,1,1.23-1.72l8.64-5,55.1-31.78a6.55,6.55,0,0,1,5.94,0l63.73,36.77C1101.24,691.56,1101.24,693.11,1099.6,694.06Z"/><path class="cls-4" d="M1032.89,719.14v12.38a6.12,6.12,0,0,1-3-.69L966.2,694.06a2.1,2.1,0,0,1-1.23-1.72V681.61a1.77,1.77,0,0,1,.65-1.29l9.23,5.33Z"/><path class="cls-5" d="M1032.89,719.14v12.38a6.14,6.14,0,0,0,3-.69l63.75-36.78a2.12,2.12,0,0,0,1.23-1.72V681.61a1.74,1.74,0,0,0-.65-1.29l-9.23,5.33Z"/><path class="cls-3" d="M1099.6,683.32l-63.73,36.78a6.58,6.58,0,0,1-5.94,0L966.2,683.33a2.06,2.06,0,0,1-1.23-1.72,1.77,1.77,0,0,1,.65-1.29,2.68,2.68,0,0,1,.58-.42l63.8-36.76a6.6,6.6,0,0,1,5.94,0l63.73,36.76C1101.24,680.85,1101.24,682.39,1099.6,683.32Z"/><path class="cls-2" d="M996.55,747.59l-5.18-3c-3.52-2-8.38-2.5-10.83-1.09s-1.63,4.23,1.89,6.27l5.19,3c3.52,2,8.38,2.5,10.83,1.08S1000,749.61,996.55,747.59Z"/><path class="cls-2" d="M1069.55,742.84l5.19-3c3.52-2,8.33-2.5,10.83-1.09s1.62,4.23-1.89,6.27l-5.18,3c-3.52,2-8.38,2.5-10.83,1.09S1066,744.87,1069.55,742.84Z"/><path class="cls-6" d="M1032.9,643.26a5.3,5.3,0,0,1,2.56.6l63.72,36.75c.52.3.83.67.83,1s-.3.69-.83,1l-63.74,36.77a5.73,5.73,0,0,1-5.11,0L966.6,682.65c-.52-.29-.83-.66-.83-1a1,1,0,0,1,.38-.68,2.07,2.07,0,0,1,.43-.32l63.74-36.76a5.22,5.22,0,0,1,2.55-.6m0-.83a6,6,0,0,0-3,.71l-63.74,36.77a2.68,2.68,0,0,0-.58.42,1.77,1.77,0,0,0-.65,1.29,2.06,2.06,0,0,0,1.23,1.72l63.73,36.77a6.58,6.58,0,0,0,5.94,0l63.74-36.78c1.67-.93,1.67-2.5,0-3.43l-63.7-36.8a6.08,6.08,0,0,0-3-.71Z"/><path class="cls-7" d="M1030.92,650.6l-51.79,29.88a1.21,1.21,0,0,0,0,2.28l51.75,29.88a4.36,4.36,0,0,0,4,0l51.79-29.88a1.21,1.21,0,0,0,0-2.28l-51.78-29.87A4.36,4.36,0,0,0,1030.92,650.6Z"/><path class="cls-8" d="M1086.66,680.47l-51.78-29.87a4,4,0,0,0-2-.48v2L1086.32,683l.34-.2a1.23,1.23,0,0,0,.77-1.55A1.25,1.25,0,0,0,1086.66,680.47Z"/><path class="cls-9" d="M1032.9,650.15a4.06,4.06,0,0,0-2,.48l-51.79,29.86a1.21,1.21,0,0,0,0,2.28l.34.2,53.43-30.83Z"/><path class="cls-32" d="M1033.32,667.91l15.33-8.83a.26.26,0,0,0,0-.5l-15.33-8.85a1,1,0,0,0-.83,0l-15.31,8.85a.27.27,0,0,0,0,.5l15.31,8.83A1,1,0,0,0,1033.32,667.91Z"/><path class="cls-11" d="M1032.9,662.13v35.46a5.16,5.16,0,0,0,2.5-.6l32.81-19a5.56,5.56,0,0,0,2.5-4.35V662.13Z"/><path class="cls-33" d="M995,662.13V673.7a5.54,5.54,0,0,0,2.5,4.35l32.85,19a5.13,5.13,0,0,0,2.5.6V662.13Z"/><path class="cls-10" d="M1030.38,683.38l-34.27-19.8c-1.39-.83-1.39-2.1,0-2.9l34.28-19.79a5.56,5.56,0,0,1,5,0l34.28,19.79c1.39.83,1.39,2.1,0,2.9l-34.29,19.8A5.56,5.56,0,0,1,1030.38,683.38Z"/><path class="cls-32" d="M1003.15,661.16l28.08-16.22a3.66,3.66,0,0,1,3.33,0l28.1,16.22a1,1,0,0,1,0,1.94l-28.09,16.21a3.66,3.66,0,0,1-3.33,0l-28.08-16.22a1,1,0,0,1,0-1.93Z"/><path class="cls-32" d="M1033.73,649l22.15,12.65a.51.51,0,0,1,0,1l-22.11,12.66a1.8,1.8,0,0,1-1.67,0l-22-12.63a.52.52,0,0,1,0-1l22-12.68A1.85,1.85,0,0,1,1033.73,649Z"/><path class="cls-34" d="M1003.77,674.6a2.62,2.62,0,0,0-1.19-2.06.83.83,0,0,0-.83-.08h0l-4.86,2.81a4,4,0,0,0-1.79,3.1V685h0a.83.83,0,0,0,.49.68,2.64,2.64,0,0,0,2.38,0,.83.83,0,0,0,.49-.68v-6.57a.4.4,0,0,1,.21-.36l4.76-2.75h0A.83.83,0,0,0,1003.77,674.6Z"/><path class="cls-35" d="M1011,678.82a2.63,2.63,0,0,0-1.19-2.06.83.83,0,0,0-.83-.08h0l-4.85,2.8a4,4,0,0,0-1.79,3.11v6.67h0a.83.83,0,0,0,.49.68,2.6,2.6,0,0,0,2.37,0,.83.83,0,0,0,.49-.68V682.7a.43.43,0,0,1,.21-.36l4.77-2.75h0A.83.83,0,0,0,1011,678.82Z"/><path class="cls-36" d="M1018.32,683a2.61,2.61,0,0,0-1.18-2.06.83.83,0,0,0-.83-.08h0l-4.86,2.8a4,4,0,0,0-1.79,3.11v6.67h0a.83.83,0,0,0,.49.68,2.6,2.6,0,0,0,2.37,0,.83.83,0,0,0,.5-.68v-6.56a.42.42,0,0,1,.2-.36l4.77-2.75h0A.83.83,0,0,0,1018.32,683Z"/><path class="cls-37" d="M1025.6,687.27a2.65,2.65,0,0,0-1.19-2.07.83.83,0,0,0-.83-.08h0l-4.85,2.81a4,4,0,0,0-1.8,3.1v6.67h0a.83.83,0,0,0,.5.69,2.65,2.65,0,0,0,2.37,0,.83.83,0,0,0,.49-.69v-6.56a.42.42,0,0,1,.21-.36l4.76-2.75h0A.83.83,0,0,0,1025.6,687.27Z"/><path class="cls-38" d="M1062,674.6a2.62,2.62,0,0,1,1.19-2.06.83.83,0,0,1,.83-.08h0l4.85,2.81a4,4,0,0,1,1.79,3.1V685h0a.83.83,0,0,1-.49.68,2.62,2.62,0,0,1-2.37,0,.83.83,0,0,1-.49-.68v-6.57a.42.42,0,0,0-.21-.36l-4.77-2.75h0A.83.83,0,0,1,1062,674.6Z"/><path class="cls-39" d="M1054.76,678.82a2.63,2.63,0,0,1,1.19-2.06.83.83,0,0,1,.83-.08h0l4.86,2.8a4,4,0,0,1,1.79,3.11v6.67h0a.83.83,0,0,1-.49.68,2.62,2.62,0,0,1-2.38,0,.83.83,0,0,1-.49-.68V682.7a.43.43,0,0,0-.2-.36l-4.77-2.75h0A.83.83,0,0,1,1054.76,678.82Z"/><path class="cls-40" d="M1047.49,683a2.62,2.62,0,0,1,1.19-2.06.83.83,0,0,1,.83-.08h0l4.85,2.8a4,4,0,0,1,1.79,3.11v6.67h0a.83.83,0,0,1-.49.68,2.6,2.6,0,0,1-2.37,0,.83.83,0,0,1-.49-.68v-6.56a.4.4,0,0,0-.21-.36l-4.77-2.75h0A.83.83,0,0,1,1047.49,683Z"/><path class="cls-41" d="M1040.21,687.27a2.66,2.66,0,0,1,1.18-2.07.83.83,0,0,1,.83-.08h0l4.86,2.81a4,4,0,0,1,1.79,3.1v6.67h0a.83.83,0,0,1-.49.69,2.65,2.65,0,0,1-2.37,0,.83.83,0,0,1-.49-.69v-6.56a.43.43,0,0,0-.21-.36l-4.77-2.75h0A.83.83,0,0,1,1040.21,687.27Z"/><path class="cls-42" d="M1063.09,572.71a32.43,32.43,0,1,1-22.81-19.54A32.43,32.43,0,0,1,1063.09,572.71Z"/><path class="cls-43" d="M1029.11,557.1c-1.48,0-3.39.55-2,1.39s2.26.92,2.27,2-.71,2.24-.35,3,.92,1.67,1.49,1.42,2.11-2,3-1.91,3.88.22,4.32-.77.88-.91,1.59-2,.68-2.55-.19-2.55a11.8,11.8,0,0,1-2.5.26c-1.51-.11-2.15-1.07-3.58-.83A22.5,22.5,0,0,1,1029.11,557.1Z"/><path class="cls-43" d="M1023.6,557.49c-1.67.9-5.23,2.25-6.87,1.8a28.8,28.8,0,0,0-2.82-.75,32.5,32.5,0,0,0-12.5,18.94,11.27,11.27,0,0,0,1.47,2.27c1.28,1.51,2.61,1.67,4.23,2s1.12,1.22,1.93,2.19a7,7,0,0,0,2,2c.92.52-.33,1.48-.68,2.5s-.46,1.67.29,3.77,2.92,3.87,3.57,4.69-.45,1.78-.17,3.51.18,6.32,1.85,8.9,2.65,2.28,2.5.54-.7-3.39.31-4.69,3-1,3.74-3.33,1.14-2.28,2.24-3.09.62-1.51,1.67-3.33,1.33-3.58-.19-4.34-2.5-.68-3.83-2.5a16.61,16.61,0,0,0-5.22-4.56c-1.89-1-4.88.23-6.08-.13s-2-2.62-1.88-3.5-.83-1.11-1.67-.89-1.33-.33-1.58-1.48,1.56-2.6,3-2.72,2.23.57,2.5,2.43a3.66,3.66,0,0,0,2.87,3.14c1.34.33.5-1.06-.45-2s-1-1.82-.3-3.92,2.5-1.94,3.79-3.88,1.57-.48,2.89-.28,1.13-.53,1.62-1.73,2.18-.16,3.57-1.14-1.51-2.5-1.32-3.84,1.51-1.28.78-3.27.28-2.06.83-2.8S1025.28,556.59,1023.6,557.49Zm-2,4.85c-.44,1-.83.83-1.53,1.87a4.07,4.07,0,0,1-2.56,1.78c-.73.09-1.92-1.2-2-2s1.08-1,2.38-1.21a7.17,7.17,0,0,0,3.59-1.67c.92-.74.53.24.09,1.23Z"/><path class="cls-43" d="M1065.31,582.3v.09a2.3,2.3,0,0,0-1.29,1.28c-.73,1.8-.83,1-2.6,2.24s-1.07,2.19-1,3.43-1.91,2.63-2.9,3.07-1.43,3.24-1.11,4.61-1.31,1.92-2.31,3.17-1.57,3.33-2.23,4.33a3.07,3.07,0,0,1-3,1.4c-1.18-.2-2.28-2.17-2.92-3.87a9.85,9.85,0,0,1-.49-5.43c.37-1.84.23-1.62-.2-4.5a4.6,4.6,0,0,0-3.59-4c-1.12-.28-3,.37-4-.21s-1.42-1.43-2.07-4.17.7-3.33,1.75-4.8a10.2,10.2,0,0,1,5-3.52,5.48,5.48,0,0,1,4.28.55c1.13.57,1.67,1.84,2.5,1.93s1.5-.33,2.32-.18,1.35.55,2.14.42.29-1,.17-1.54-.83-.38-1.78-.38a1.37,1.37,0,0,1-1.52-.9c-.34-.63-.88-.08-1.34-.33s-.37.9-.41,1.35-.39-.34-.39-.34-.39.62-.56.33.22-1,.17-1.67-1.06-.53-1.67-1.07a2.38,2.38,0,0,0-2.35-.33c-.83.29-1,.08-1.4.83s-2.23,1.27-2.83,1.17-.17-1.3.33-2.36,1.54-.7,2.19-1.77-.23-1.22-.83-1.4-.78-.74-.17-2.1,1.46-1,1.8-.36a2.1,2.1,0,0,0,1.9,1c.83,0,.61-.56.59-1.73a2.16,2.16,0,0,1,1.58-2.23,15.53,15.53,0,0,0,3.51-1.8c.68-.63,1.88-.22,2.5.47s2,.93,3.53,1.18a1.22,1.22,0,0,0,1-.34A32.28,32.28,0,0,1,1065.31,582.3Z"/><path class="cls-43" d="M1059.21,598.25c-.78-.13-.72.13-1.18.75s-1.13,1.33-1,2,.18,1.44.73,1,.36-1,1.13-1.4S1060.42,598.48,1059.21,598.25Z"/><path class="cls-44" d="M1041.43,556c-20.64-6-24.5,8.12-13.56,17s29.7,11.79,32.23,6S1056.78,560.46,1041.43,556Z"/><path class="cls-45" d="M1024.21,601c-16-13.17-15.55-38.73-1.48-47h0c-.59.2-1.18.41-1.78.64a32.42,32.42,0,1,0,42,42.62C1058.38,603.57,1040.23,614.16,1024.21,601Z"/><path class="cls-46" d="M1036.47,530.89a6.14,6.14,0,0,1-3.58.83h0V713.11a4.39,4.39,0,0,0,2.39-.73L1086,683.07c.94-.52,1.4-1,1.4-1.61v-180Z"/><path class="cls-47" d="M1032.84,531.74a6.58,6.58,0,0,1-.91,0h-.05a7.1,7.1,0,0,1-.83-.14,1.73,1.73,0,0,1-.53-.17l-.33-.1a7.41,7.41,0,0,1-.83-.38l-51-29.48v180a1.67,1.67,0,0,0,1,1.38l51.18,29.55a4,4,0,0,0,2.31.71h.07V531.74Z"/><path class="cls-48" d="M911.89,520.82a15.65,15.65,0,0,0-2.12,0,6.57,6.57,0,0,1-2,.08c-.73-.1-2.77-1.67-4.4-3.09a17.67,17.67,0,0,1-4.17-5.67c-.83-2.29-2.18-7-2.81-8.59a2.65,2.65,0,0,0-2.42-2c-1.16-.17-1.91.29-1.3,2.67a47.5,47.5,0,0,0,3.58,9.83,22.8,22.8,0,0,0,4.73,5.78,26.46,26.46,0,0,0,5.36,3.58c.55.3.89.67,1.88,1.38a7.5,7.5,0,0,0,3.33,1.38c1,.09,1.39,0,1.5-.23s0-.44-.5-.54a6,6,0,0,1-2.1-.68s1,.26,1.59.36a5.83,5.83,0,0,0,1.67.06c.53-.06.89-.75.43-.83s-.83-.07-1.73-.23a5.73,5.73,0,0,1-1.38-.42,12.28,12.28,0,0,0,1.83.08,2.57,2.57,0,0,0,1.38-.38c.22-.14.31-.6-.28-.66a9,9,0,0,1-2.2-.15c-.72-.18-1.2-.42-1.07-.5s.53.06,1.17-.08,1.11-.63,1-1S912.54,520.77,911.89,520.82Z"/><path class="cls-49" d="M896.81,504.35a4.07,4.07,0,0,0-1.48-2.5,2.5,2.5,0,0,0-1.46-.5l-1.67,7.46,1.67,3.83c2.66.68,4.87-2.14,4.87-2.14S897.18,505.56,896.81,504.35Z"/><path class="cls-50" d="M887.92,560.23a10.72,10.72,0,0,1-.39,1.14,4.87,4.87,0,0,0-.44,1.8c0,.44,1,1.2,1.61,1.39a4.24,4.24,0,0,1,1.92,1.62,4,4,0,0,0,2.77,1.55c1,0,2.06,0,2.34-.38s0-.83-1.74-2.5-3-2.76-3.4-4.17Z"/><path class="cls-50" d="M883.13,565.47a3.41,3.41,0,0,0-.49,2.26,12.57,12.57,0,0,1-.16,3.14,5.73,5.73,0,0,0,1,3.49,1.47,1.47,0,0,0,2.55-.43,6,6,0,0,0,.26-3.75c-.34-1.33.11-2.33-.12-3.23a7.34,7.34,0,0,0-.53-1.49Z"/><path class="cls-51" d="M883.13,528.93c0,1.48.51,7.94.72,11.36s.52,7.39.52,7.39a37.5,37.5,0,0,0-1.23,5.63c-.38,2.93,0,12.16,0,12.16a2.33,2.33,0,0,0,2.5,0s1.73-8.14,2.5-11.47,1.48-4.91,1.67-7,.88-13.72.88-13.72h.39l1,10.63a17.37,17.37,0,0,0-1.82,4.17c-.54,2.09-2.24,12.15-2.24,12.15a2.16,2.16,0,0,0,2.69.43s5.91-13.52,6.45-14.85-.25-20.38-.25-20.38Z"/><path class="cls-52" d="M890.63,533.29a19.84,19.84,0,0,0,3.88-1.93,6.62,6.62,0,0,1-2.34,1.93c-.14,1.4-.18,10.63-.18,10.63l-1-10.63Z"/><path class="cls-48" d="M886.71,500.2s.17,3.24.09,3.53a11.66,11.66,0,0,1-1.9,1.58c-.42.34,2.24,3,3.53,3.54s5.38-1,5.45-3-.7-3.69-1.33-3.78S886.71,500.2,886.71,500.2Z"/><path class="cls-53" d="M886.71,500.15l.09,2.24s2.07,2,3.72,1.67c.92-.17.83-.77.83-.77V501.4Z"/><path class="cls-54" d="M886.33,504.2s2.35,3.51,5.63,3.83c1-1,1.12-4.65-.31-5.83,0,0,1.32-1.06,2.22-.83a4.64,4.64,0,0,1,2,2.58,21.23,21.23,0,0,1,1.15,7.5v13.94a6.57,6.57,0,0,1-3.43,3.88c-3,1.66-5.17,1.81-7.18,1.34-1.67-.39-3-1-3.61-2.18.15-2.42,1.22-8.7.83-11.73s-1-5.29-1.21-7.74.33-2.4,1.55-3.28A20.17,20.17,0,0,1,886.33,504.2Z"/><path class="cls-49" d="M892,508a18.43,18.43,0,0,0,.28-2.39,7.81,7.81,0,0,0-.92-2.59v-.91a2.18,2.18,0,0,1,1.2.78,5.07,5.07,0,0,1,1.19,3.57A4.17,4.17,0,0,1,892,508Z"/><path class="cls-54" d="M892,508c.23-.46.69-2,.92-2.25.43-.14.83.71.83.71a2.24,2.24,0,0,1-.56,1.42A1,1,0,0,1,892,508Z"/><path class="cls-55" d="M892.88,505.79c-.23.23-.68,1.79-.92,2.25a8.39,8.39,0,0,1,.49-.75c.25-.31.54-.91,1.27-.79C893.72,506.5,893.31,505.65,892.88,505.79Z"/><path class="cls-48" d="M894,495.36h0c-.38-2.5-2.2-4.43-4.79-4.28a5,5,0,0,0-2.5,9.11,4.92,4.92,0,0,0,.4,1.1c.92,1.08,3.69,1.73,4.49,1.62a2.37,2.37,0,0,0,2.07-1.67A12.17,12.17,0,0,0,894,495.36Z"/><path class="cls-56" d="M893.65,493.34a5,5,0,0,0-8.33,0c-1.09.38-1.2,1.2-1.07,2.5a9.78,9.78,0,0,0,1.09,3.93c.23.4.94.13,1.34.41-.06-.17-1.37-2.13,0-2.56a1.6,1.6,0,0,1,.28,1,.63.63,0,0,0,.53-.83,3.19,3.19,0,0,0-.12-.6,2.27,2.27,0,0,1,.38-1.73,2,2,0,0,0,.35-1.67,6.67,6.67,0,0,0,3.8.29A3.43,3.43,0,0,0,893.65,493.34Z"/><path class="cls-56" d="M885.33,493.35s-.32-1,1-2c1.52-1.15,3.65-.89,5.9,0,1.43.58,3.67-.12,3.23,1.52-.63,2.42-5.3,2.63-7.33.94A5.31,5.31,0,0,0,885.33,493.35Z"/><path class="cls-48" d="M886.71,500.15s-.12.27-.61.29a1.94,1.94,0,0,1-1.24-2.8,1.19,1.19,0,0,1,1.67-.16h0l.16.16Z"/><path class="cls-49" d="M886.8,503.08c.06.49,2.7,2.5,3.33,2.72S892,508,892,508a2.61,2.61,0,0,0-2.4.94s-3.75-1.58-4.36-4.1c0,0,.7-1.35.83-1.67s.38-.75.77-.77Z"/><path class="cls-54" d="M889.56,509s.28-1.93.68-2.11S892,508,892,508A3.63,3.63,0,0,1,889.56,509Z"/><path class="cls-55" d="M890.24,506.87c-.41.17-.68,2.11-.68,2.11a8.27,8.27,0,0,1,1.38-1.07,2.62,2.62,0,0,1,1,.12S890.64,506.7,890.24,506.87Z"/><path class="cls-2" d="M958.46,580.5l-35,20.22a3.85,3.85,0,0,1-1.91.46,3.91,3.91,0,0,1-1.92-.46l-35-20.22a1.33,1.33,0,0,1-.83-1.11,1.11,1.11,0,0,1,.42-.83,1.67,1.67,0,0,1,.38-.28l35-20.22a4.23,4.23,0,0,1,3.83,0l35,20.22C959.52,578.9,959.52,579.89,958.46,580.5Z"/><path class="cls-3" d="M958.46,557.06l-35,20.22a3.85,3.85,0,0,1-1.91.45,4,4,0,0,1-1.91-.44l-35-20.23a1.17,1.17,0,0,1,0-2.21l5.56-3.21,29.46-17a4.23,4.23,0,0,1,3.83,0l35,20.22a1.17,1.17,0,0,1,0,2.2Z"/><path class="cls-4" d="M921.54,569.76v8a4,4,0,0,1-1.91-.44l-35-20.23a1.34,1.34,0,0,1-.83-1.1v-6.91a1.11,1.11,0,0,1,.42-.83l5.93,3.43Z"/><path class="cls-5" d="M921.54,569.76v8a3.9,3.9,0,0,0,1.9-.44l35-20.23a1.35,1.35,0,0,0,.83-1.1v-6.91a1.12,1.12,0,0,0-.43-.83l-5.93,3.43Z"/><path class="cls-3" d="M958.46,550.15l-35,20.23a3.85,3.85,0,0,1-1.91.45,3.9,3.9,0,0,1-1.92-.45l-35-20.23a1.33,1.33,0,0,1-.83-1.1,1.11,1.11,0,0,1,.42-.83,1.67,1.67,0,0,1,.38-.27l35-20.22a4.23,4.23,0,0,1,3.83,0l35,20.22C959.52,548.56,959.52,549.55,958.46,550.15Z"/><path class="cls-6" d="M921.53,528.11a3.05,3.05,0,0,1,1.5.35l35,20.21c.28.16.38.32.38.38s-.1.23-.38.38l-35,20.22a3.08,3.08,0,0,1-1.49.34,3.12,3.12,0,0,1-1.5-.34l-35-20.23c-.25-.14-.37-.29-.37-.38s0-.11.15-.22a.92.92,0,0,1,.23-.17l35-20.19a3.13,3.13,0,0,1,1.49-.34m0-.83a3.85,3.85,0,0,0-1.91.46l-35,20.22a1.67,1.67,0,0,0-.38.27,1.11,1.11,0,0,0-.42.83,1.33,1.33,0,0,0,.83,1.1l35,20.23a3.9,3.9,0,0,0,1.92.45,3.85,3.85,0,0,0,1.91-.45l35-20.23a1.16,1.16,0,0,0,0-2.2l-35-20.22a3.88,3.88,0,0,0-1.92-.46Z"/><path class="cls-7" d="M920.26,532.55l-27.33,15.78a.78.78,0,0,0,0,1.48l27.33,15.78a2.79,2.79,0,0,0,2.5,0L950.1,549.8a.78.78,0,0,0,0-1.48l-27.33-15.78A2.79,2.79,0,0,0,920.26,532.55Z"/><path class="cls-8" d="M950.14,548.32,922.8,532.55a2.5,2.5,0,0,0-1.28-.31v1.29l28.39,16.39.22-.13a.78.78,0,0,0,0-1.47Z"/><path class="cls-9" d="M921.53,532.24a2.5,2.5,0,0,0-1.27.31l-27.33,15.78a.78.78,0,0,0,0,1.48l.22.13,28.39-16.39Z"/><polygon class="cls-57" points="912.57 540.43 921.53 545.6 921.53 518 912.57 512.83 912.57 540.43"/><polygon class="cls-11" points="921.53 545.6 930.5 540.43 930.5 512.83 921.53 518 921.53 545.6"/><polygon class="cls-10" points="930.5 512.83 921.53 507.65 912.57 512.83 921.53 518 930.5 512.83"/><path class="cls-6" d="M921.53,545.6a.92.92,0,0,1-.31-.83V531.83c0-4.6.11-9.17.24-13.8.13,4.6.19,9.17.24,13.8v12.94A.92.92,0,0,1,921.53,545.6Z"/><path class="cls-6" d="M930.49,512.83c.06.33,0,.39-.13.43l-.28.16-.56.33-1.12.64-2.27,1.24c-1.53.83-3,1.67-4.61,2.38,1.43-1,2.89-1.89,4.36-2.8.73-.46,1.48-.89,2.22-1.33l1.12-.66.56-.33.28-.17C930.15,512.65,930.25,512.65,930.49,512.83Z"/><polygon class="cls-57" points="927.51 549.05 936.47 554.23 936.47 530.08 927.51 524.9 927.51 549.05"/><polygon class="cls-11" points="936.47 554.23 945.44 549.05 945.44 524.9 936.47 530.08 936.47 554.23"/><polygon class="cls-10" points="945.44 524.9 936.47 519.73 927.51 524.9 936.47 530.08 945.44 524.9"/><path class="cls-6" d="M936.47,554.23a.74.74,0,0,1-.31-.75V542.15c0-4,.11-8,.24-12.08.13,4,.19,8,.25,12.08v11.33A.74.74,0,0,1,936.47,554.23Z"/><path class="cls-6" d="M945.44,524.9c.06.33,0,.39-.13.43l-.28.16-.56.33-1.12.64-2.27,1.24c-1.53.83-3,1.67-4.61,2.38,1.43-1,2.89-1.89,4.36-2.8.73-.46,1.48-.89,2.22-1.34l1.12-.65.56-.33.28-.17C945.09,524.73,945.19,524.69,945.44,524.9Z"/><polygon class="cls-57" points="897.63 549.05 906.59 554.23 906.59 526.63 897.63 521.45 897.63 549.05"/><polygon class="cls-11" points="906.59 554.23 915.55 549.05 915.55 521.45 906.59 526.63 906.59 554.23"/><polygon class="cls-10" points="915.55 521.45 906.59 516.28 897.63 521.45 906.59 526.63 915.55 521.45"/><path class="cls-6" d="M906.59,554.23a.92.92,0,0,1-.31-.83V540.45c0-4.6.11-9.17.24-13.8.13,4.6.19,9.17.24,13.8v12.9A.92.92,0,0,1,906.59,554.23Z"/><path class="cls-6" d="M915.55,521.45c.06.33,0,.39-.13.43l-.28.16-.56.33-1.12.64-2.27,1.24c-1.53.83-3,1.67-4.61,2.38,1.43-1,2.89-1.89,4.36-2.8.73-.46,1.48-.89,2.22-1.34l1.12-.65.56-.33.28-.17C915.2,521.28,915.29,521.24,915.55,521.45Z"/><polygon class="cls-57" points="912.57 557.68 921.53 562.85 921.54 542.15 912.57 536.98 912.57 557.68"/><polygon class="cls-11" points="921.53 562.85 930.5 557.68 930.5 536.98 921.54 542.15 921.53 562.85"/><polygon class="cls-10" points="930.5 536.98 921.53 531.8 912.57 536.98 921.54 542.15 930.5 536.98"/><path class="cls-6" d="M921.53,562.85a.6.6,0,0,1-.31-.64V552.5c0-3.45.12-6.9.25-10.35.13,3.45.19,6.9.24,10.35v9.71A.6.6,0,0,1,921.53,562.85Z"/><path class="cls-6" d="M930.49,537c.07.33,0,.39-.13.43l-.28.16-.56.33-1.12.64c-.76.41-1.5.83-2.27,1.24-1.52.83-3,1.67-4.6,2.37,1.43-1,2.89-1.89,4.36-2.8.73-.46,1.48-.89,2.21-1.34l1.12-.65.56-.33.28-.17C930.15,536.81,930.25,536.76,930.49,537Z"/><path class="cls-58" d="M923.44,497.92a3.23,3.23,0,0,1-1.92.46h0v67.5a3,3,0,0,0,1.28-.3l27.11-15.65c.51-.28.75-.53.75-.83V482.21Z"/><path class="cls-59" d="M921.49,498.38H921l-.46-.07-.28-.08-.18-.06a3,3,0,0,1-.43-.21l-27.23-15.72v66.84a.92.92,0,0,0,.53.73l27.33,15.78a3,3,0,0,0,1.24.3h0V498.4Z"/><path class="cls-48" d="M900,527.24a16.56,16.56,0,0,0-2.13-.12A4,4,0,0,1,896,527a16.3,16.3,0,0,1-4.09-3.33,21.51,21.51,0,0,1-3.92-6.14c-1-2.74-1.9-6.88-2.41-8.5a2.66,2.66,0,0,0-2.24-2.17c-1.15-.25-2.14.6-1.71,3a45.89,45.89,0,0,0,3.07,9.62,22.82,22.82,0,0,0,4.29,6.1,26.67,26.67,0,0,0,5.09,4c.53.34.83.73,1.77,1.51a7.57,7.57,0,0,0,3.2,1.62c1,.16,1.38.07,1.51-.12s0-.45-.46-.58a6.18,6.18,0,0,1-2-.83s1,.33,1.56.48a6.4,6.4,0,0,0,1.67.17c.53,0,1-.68.5-.83s-.83-.12-1.72-.36a6.07,6.07,0,0,1-1.34-.52,11.08,11.08,0,0,0,1.81.21A2.56,2.56,0,0,0,902,530c.23-.12.35-.58-.23-.68a8.93,8.93,0,0,1-2.19-.3c-.7-.24-1.17-.51-1-.58s.53.1,1.17,0,1.16-.55,1.07-.89S900.64,527.24,900,527.24Z"/><path class="cls-49" d="M882.63,506.68c-1.21.5-1.78,1.81-1.31,4.17s1.46,5.91,1.46,5.91a7.5,7.5,0,0,0,4.58-1.86s-1.12-5.1-1.55-6.42S884.21,506,882.63,506.68Z"/><path class="cls-48" d="M1087.61,690.15c.14,1.23,1.62,6.57,1.3,8.39s-5.35,4.88-5.35,4.88l-.7-3.13,2.79-2.73-.76-5.18Z"/><path class="cls-49" d="M1083.72,684.15a2.19,2.19,0,0,1,2.8.83c.74,1.22,1.51,5.43,1.58,6.16a3,3,0,0,1-2.6,1.19Z"/><path class="cls-50" d="M1084.42,740.77a10.71,10.71,0,0,0,.23,1.24c.13.53.16,1.22-.44,1.42a1.46,1.46,0,0,1-1.67-.38,11.42,11.42,0,0,0-1.43-2.09,5,5,0,0,1-1.73-2.26c-.22-.83-.08-1.41.52-1.5a4.5,4.5,0,0,1,2.55,1A23,23,0,0,1,1084.42,740.77Z"/><path class="cls-50" d="M1077.55,743.3a9.91,9.91,0,0,0,.08,1.24,5.11,5.11,0,0,1,.06,1.83c-.17.41-1.08.71-2.15.7a5.27,5.27,0,0,0-2.5.94,3.94,3.94,0,0,1-3.15.54c-.92-.29-1.93-.72-2.09-1.13s.33-.63,2.57-1.67,3.88-1.73,4.75-2.92Z"/><path class="cls-60" d="M1085,728.89a26,26,0,0,0-1-4.67s.29-4,.44-7.84c.17-4.33,1.67-8.15.48-11.61l-13.33,3s.83,17.28,1,19.37a40.58,40.58,0,0,0,.6,4.84c.62,3.33,1.61,11.33,1.61,11.33a3,3,0,0,0,2.81,0s.36-9.73.27-12.14c-.12-3-.2-2.73-.2-2.73l.44-7.35.28-3.66s.37,2.68.62,5.08c.21,2.08.71,4,1.28,7.87.49,3.38,1.77,10.33,1.77,10.33a2.27,2.27,0,0,0,2.43.08S1085.35,731.81,1085,728.89Z"/><path class="cls-61" d="M1078.33,717.42s.37,2.68.62,5.08c.1,1,.27,2,.48,3.13,0,0-.19-4.46-.12-6.57s.28-4.4.28-4.4c2.81-1.19,3.38-2.9,3.38-2.9a11.61,11.61,0,0,1-4.28,2.32Z"/><path class="cls-48" d="M1083,684.22c-1,0-1.78.32-1.9,0a13.08,13.08,0,0,1-.23-1.58c.12-.3.22-.62.22-.62a4.94,4.94,0,0,0,2.36-3.73,5,5,0,0,0-4.45-5.49h0c-2.58-.28-4.48,1.54-5,4a11.59,11.59,0,0,0,.09,5.83c.41,1.13.77,1.67,1.3,1.81a10.55,10.55,0,0,0,1.52,0h0s.13.77.23,1.25.05.75-.92,1.35,1.48,1.84,3.08,1.72,3.4-1.08,3.89-2.13S1083.71,684.19,1083,684.22Z"/><path class="cls-53" d="M1076.23,687.11l-.07.07,1.39.48,4.17-.64,1-2.5-.1-.29c-.78.08-1.33.23-1.43,0a8.82,8.82,0,0,1-.22-1.38c-.74.13-1.62.28-1.83.29-.37,0-1.67-1.93-1.67-1.93a15,15,0,0,1-.36,2.08,3,3,0,0,1-1.82,1.14l.22.09a10.55,10.55,0,0,0,1.52,0h0s.13.77.23,1.25S1077.2,686.51,1076.23,687.11Z"/><path class="cls-62" d="M1083.49,675.15c-.13-.59-.54-1.37-3.77-2.28-3.07-.83-5.48-1.22-6.07-.83s-.74,3.43,2.17,4.88a1.84,1.84,0,0,1,.18.83v1.36a.92.92,0,0,0,.83.77v-1.29a1,1,0,0,1,1.67.08,2.22,2.22,0,0,1-.1,2c-.34.64-.91.7-1.11.47a4,4,0,0,0,1,2.73,3,3,0,0,0,2.64-.58,13,13,0,0,1,1-1.67,8.05,8.05,0,0,0,1.55-3.1A7.34,7.34,0,0,0,1083.49,675.15Z"/><path class="cls-54" d="M1081.54,684.38c.28.7-.43,1.56-2.34,2.16s-2.08-.17-2.08-.17a37.69,37.69,0,0,0-3.72,1.91c-1.15.83-1.67,3.13-1.82,7-.17,4.53-.19,11.27,0,12.43a6.93,6.93,0,0,0,4.89,1.92c2.74-.23,7.36-2.66,8.48-4.53,0-4-.5-4.63.14-6.92,1.48-5.24,2.25-7.39,1.53-10.83-.59-2.87-1.42-3.23-2.55-3.2A24.58,24.58,0,0,0,1081.54,684.38Z"/><path class="cls-49" d="M1081,684a5.43,5.43,0,0,1-3.92,1.67c-.42-.07-.64.73-.83,1.13a3.69,3.69,0,0,0,3.1.24c2.1-.54,2.9-2.13,2.72-2.71C1082.07,684.31,1081.39,683.56,1081,684Z"/><path class="cls-48" d="M1067.27,699.81c2.25.57,2.77-.83,3.07-2,.72-2.84,1.1-5.42,1.67-7,.63-1.91,1.29-2.21,2.22-2.58,1.08-.43,2,.48,1.67,2.91a48.68,48.68,0,0,1-2.06,8.28,7.43,7.43,0,0,1-1.85,3.23c-1.17.93-2.92.9-5.56.24a30.1,30.1,0,0,1-4.51-2c-.57-.27-1-.44-2.12-1a7.5,7.5,0,0,1-2.83-2.2c-.57-.83-.65-1.22-.53-1.42s.41-.19.72.17a6,6,0,0,0,1.62,1.49s-.71-.73-1.1-1.21a6.25,6.25,0,0,1-.83-1.39c-.2-.48.22-1.15.53-.83s.47.7,1.06,1.4a5.83,5.83,0,0,0,1,1,11.49,11.49,0,0,1-1-1.54,2.5,2.5,0,0,1-.35-1.4c0-.26.37-.56.71-.08a9.58,9.58,0,0,0,1.21,1.85c.52.53,1,.83,1,.69a10.18,10.18,0,0,1-.49-1.07c-.18-.63,0-1.28.34-1.35s.27,0,.55.53a16.72,16.72,0,0,1,1,1.86,3.82,3.82,0,0,0,.92,1.59A7.7,7.7,0,0,0,1067.27,699.81Z"/><path class="cls-49" d="M1075,687.78c-1.5-.23-2.57.45-3.23,2.73s-1.12,4.17-1.12,4.17a4.07,4.07,0,0,0,2.5,1.67c1.8.44,2.45-.42,2.45-.42s.5-2.39.83-4S1076.89,688.06,1075,687.78Z"/><path class="cls-2" d="M1176.29,586.38l5.19-3c3.52-2,8.33-2.5,10.83-1.08s1.67,4.23-1.89,6.26l-5.18,3c-3.52,2-8.33,2.5-10.83,1.09S1172.77,588.41,1176.29,586.38Z"/><g class="cls-63"><path class="cls-57" d="M1124,508l32-18.49c1.06-.61,1.91-.12,1.91,1.11V513.8a4.21,4.21,0,0,1-1.91,3.33l-32,18.49c-1.05.62-1.91.12-1.91-1.1V511.35A4.25,4.25,0,0,1,1124,508Z"/><path class="cls-64" d="M1124,508l32-18.49c1.06-.61,1.91-.12,1.91,1.11V513.8a4.21,4.21,0,0,1-1.91,3.33l-32,18.49c-1.05.62-1.91.12-1.91-1.1V511.35A4.25,4.25,0,0,1,1124,508Z"/><path class="cls-65" d="M1126,511.5l13-7.5c.53-.31,1-.06,1,.55h0a2.1,2.1,0,0,1-1,1.67l-13,7.5a.62.62,0,0,1-1-.56h0A2.13,2.13,0,0,1,1126,511.5Z"/><path class="cls-65" d="M1142.75,501.81l11.23-6.48c.53-.31,1-.06,1,.55v.1a2.1,2.1,0,0,1-1,1.67l-11.23,6.48c-.53.3-1,.06-1-.55v-.1A2.11,2.11,0,0,1,1142.75,501.81Z"/><g class="cls-66"><path class="cls-67" d="M1126,522.14l13-7.5c.53-.31,1-.06,1,.55h0a2.1,2.1,0,0,1-1,1.67l-13,7.5a.62.62,0,0,1-1-.56h0A2.13,2.13,0,0,1,1126,522.14Z"/><path class="cls-67" d="M1142.75,512.48,1154,506c.53-.31,1-.06,1,.55h0a2.1,2.1,0,0,1-1,1.67l-11.23,6.48c-.53.3-1,.06-1-.55v-.06A2.11,2.11,0,0,1,1142.75,512.48Z"/></g><g class="cls-66"><path class="cls-67" d="M1126,516.81l7.05-4.07c.53-.31,1-.06,1,.55h0a2.12,2.12,0,0,1-1,1.67L1126,519a.62.62,0,0,1-1-.56h0A2.13,2.13,0,0,1,1126,516.81Z"/><path class="cls-67" d="M1136.22,510.92l6-3.48c.53-.3,1-.06,1,.55V508a2.12,2.12,0,0,1-1,1.67l-6,3.47c-.53.31-1,.07-1-.54v-.06A2.13,2.13,0,0,1,1136.22,510.92Z"/><path class="cls-67" d="M1145.6,505.49l8.33-4.81c.53-.31,1-.06,1,.55h0a2.12,2.12,0,0,1-1,1.67l-8.33,4.81c-.53.3-1,.06-1-.55v-.06A2.11,2.11,0,0,1,1145.6,505.49Z"/></g><g class="cls-66"><path class="cls-67" d="M1126,527.51l11.37-6.54c.53-.31,1-.06,1,.55h0a2.13,2.13,0,0,1-1,1.67l-11.37,6.6a.62.62,0,0,1-1-.56h0A2.13,2.13,0,0,1,1126,527.51Z"/><path class="cls-67" d="M1140.54,519.14l6-3.48c.53-.3,1-.06,1,.55v.06a2.12,2.12,0,0,1-1,1.67l-6,3.47c-.53.31-1,.07-1-.54v-.06A2.12,2.12,0,0,1,1140.54,519.14Z"/><path class="cls-67" d="M1149.91,513.7l4.06-2.34a.62.62,0,0,1,1,.56h0a2.12,2.12,0,0,1-1,1.67l-4.06,2.33c-.53.3-1,.06-1-.55v-.06A2.08,2.08,0,0,1,1149.91,513.7Z"/></g></g><g class="cls-68"><path class="cls-57" d="M1129.95,511.49,1162,493c1.06-.61,1.91-.12,1.91,1.11v23.18a4.22,4.22,0,0,1-1.92,3.33l-32,18.5c-1.05.61-1.91.11-1.91-1.11V514.8A4.25,4.25,0,0,1,1129.95,511.49Z"/><path class="cls-64" d="M1129.95,511.49,1162,493c1.06-.61,1.91-.12,1.91,1.11v23.18a4.22,4.22,0,0,1-1.92,3.33l-32,18.5c-1.05.61-1.91.11-1.91-1.11V514.8A4.25,4.25,0,0,1,1129.95,511.49Z"/><path class="cls-65" d="M1132,515l13-7.5c.53-.31,1-.06,1,.55h0a2.12,2.12,0,0,1-1,1.67l-13,7.5a.62.62,0,0,1-1-.56h0A2.12,2.12,0,0,1,1132,515Z"/><path class="cls-65" d="M1148.72,505.3l11.23-6.48c.53-.31,1-.06,1,.55h0a2.1,2.1,0,0,1-1,1.67l-11.23,6.48c-.53.3-1,.06-1-.55v0A2.11,2.11,0,0,1,1148.72,505.3Z"/><g class="cls-66"><path class="cls-67" d="M1132,525.59l13-7.5c.53-.31,1-.06,1,.55h0a2.12,2.12,0,0,1-1,1.67l-13,7.5a.62.62,0,0,1-1-.56h0A2.12,2.12,0,0,1,1132,525.59Z"/><path class="cls-67" d="M1148.72,515.93l11.23-6.48c.53-.31,1-.06,1,.55h0a2.1,2.1,0,0,1-1,1.67l-11.23,6.48c-.53.3-1,.06-1-.55v-.06A2.11,2.11,0,0,1,1148.72,515.93Z"/></g><g class="cls-66"><path class="cls-67" d="M1132,520.27l7.06-4.07c.53-.31,1-.06,1,.55v.06a2.13,2.13,0,0,1-1,1.67l-7.06,4.08a.62.62,0,0,1-1-.56h0A2.13,2.13,0,0,1,1132,520.27Z"/><path class="cls-67" d="M1142.2,514.37l6-3.48c.53-.3,1-.06,1,.55v.06a2.12,2.12,0,0,1-1,1.67l-6,3.47c-.53.31-1,.07-1-.54V516A2.13,2.13,0,0,1,1142.2,514.37Z"/><path class="cls-67" d="M1151.57,508.94l8.38-4.81c.53-.31,1-.06,1,.55h0a2.1,2.1,0,0,1-1,1.67l-8.38,4.81c-.53.3-1,.06-1-.55v-.06A2.1,2.1,0,0,1,1151.57,508.94Z"/></g><g class="cls-66"><path class="cls-67" d="M1132,531l11.37-6.54c.53-.31,1-.06,1,.55h0a2.12,2.12,0,0,1-1,1.67L1132,533.25a.62.62,0,0,1-1-.56h0A2.13,2.13,0,0,1,1132,531Z"/><path class="cls-67" d="M1146.51,522.59l6-3.48c.53-.3,1-.06,1,.55v.06a2.12,2.12,0,0,1-1,1.67l-6,3.47c-.53.31-1,.07-1-.54v-.06A2.13,2.13,0,0,1,1146.51,522.59Z"/><path class="cls-67" d="M1155.88,517.15l4.06-2.34a.62.62,0,0,1,1,.56h0a2.1,2.1,0,0,1-1,1.67l-4.06,2.33c-.53.3-1,.06-1-.55v-.06A2.08,2.08,0,0,1,1155.88,517.15Z"/></g></g><g class="cls-20"><path class="cls-57" d="M1135.92,514.94l32-18.49c1.06-.61,1.92-.12,1.92,1.11v23.18a4.22,4.22,0,0,1-1.92,3.33l-32,18.5c-1.05.61-1.91.11-1.91-1.11V518.25A4.25,4.25,0,0,1,1135.92,514.94Z"/><path class="cls-64" d="M1135.92,514.94l32-18.49c1.06-.61,1.92-.12,1.92,1.11v23.18a4.22,4.22,0,0,1-1.92,3.33l-32,18.5c-1.05.61-1.91.11-1.91-1.11V518.25A4.25,4.25,0,0,1,1135.92,514.94Z"/><path class="cls-65" d="M1138,518.4l13-7.5c.53-.31,1-.06,1,.55h0a2.12,2.12,0,0,1-1,1.67l-13,7.5c-.53.3-1,.06-1-.56h0A2.12,2.12,0,0,1,1138,518.4Z"/><path class="cls-65" d="M1154.7,508.75l11.23-6.48c.53-.31,1-.06,1,.55h0a2.1,2.1,0,0,1-1,1.67L1154.7,511c-.53.3-1,.06-1-.55v-.06A2.1,2.1,0,0,1,1154.7,508.75Z"/><g class="cls-66"><path class="cls-67" d="M1138,529l13-7.5c.53-.31,1-.06,1,.55h0a2.12,2.12,0,0,1-1,1.67l-13,7.5a.62.62,0,0,1-1-.56h0A2.12,2.12,0,0,1,1138,529Z"/><path class="cls-67" d="M1154.7,519.38l11.23-6.48c.53-.31,1-.06,1,.55h0a2.1,2.1,0,0,1-1,1.67l-11.23,6.48c-.53.3-1,.06-1-.55v0A2.1,2.1,0,0,1,1154.7,519.38Z"/></g><g class="cls-66"><path class="cls-67" d="M1138,523.72l7.06-4.07c.53-.31,1-.06,1,.55h0a2.12,2.12,0,0,1-1,1.67L1138,526a.62.62,0,0,1-1-.56h0A2.13,2.13,0,0,1,1138,523.72Z"/><path class="cls-67" d="M1148.18,517.82l6-3.48c.53-.3,1-.06,1,.55V515a2.13,2.13,0,0,1-1,1.67l-6,3.47c-.53.31-1,.07-1-.54v-.06A2.12,2.12,0,0,1,1148.18,517.82Z"/><path class="cls-67" d="M1157.55,512.39l8.33-4.81c.53-.31,1-.06,1,.55h0a2.1,2.1,0,0,1-1,1.67l-8.33,4.81c-.53.3-1,.06-1-.55V514A2.08,2.08,0,0,1,1157.55,512.39Z"/></g><g class="cls-66"><path class="cls-67" d="M1138,534.41l11.37-6.54c.53-.31,1-.06,1,.55v.06a2.12,2.12,0,0,1-1,1.67L1138,536.7a.62.62,0,0,1-1-.56h0A2.13,2.13,0,0,1,1138,534.41Z"/><path class="cls-67" d="M1152.49,526l6-3.48c.53-.3,1-.06,1,.55v.06a2.12,2.12,0,0,1-1,1.67l-6,3.47c-.53.31-1,.07-1-.54v-.06A2.13,2.13,0,0,1,1152.49,526Z"/><path class="cls-67" d="M1161.86,520.6l4.06-2.34a.62.62,0,0,1,1,.56h0a2.1,2.1,0,0,1-1,1.67l-4.06,2.33c-.53.3-1,.06-1-.55v-.06A2.08,2.08,0,0,1,1161.86,520.6Z"/></g></g><g class="cls-69"><path class="cls-57" d="M1141.9,518.39l32-18.49c1.06-.61,1.92-.12,1.92,1.11v23.18a4.22,4.22,0,0,1-1.92,3.33l-32,18.46c-1.06.61-1.92.11-1.92-1.11V521.7A4.23,4.23,0,0,1,1141.9,518.39Z"/><path class="cls-64" d="M1141.9,518.39l32-18.49c1.06-.61,1.92-.12,1.92,1.11v23.18a4.22,4.22,0,0,1-1.92,3.33l-32,18.46c-1.06.61-1.92.11-1.92-1.11V521.7A4.23,4.23,0,0,1,1141.9,518.39Z"/><path class="cls-65" d="M1143.93,521.85l13-7.5c.53-.31,1-.06,1,.55h0a2.12,2.12,0,0,1-1,1.67l-13,7.5c-.53.3-1,.06-1-.56v-.08A2.12,2.12,0,0,1,1143.93,521.85Z"/><path class="cls-65" d="M1160.67,512.2l11.23-6.48c.53-.31,1-.06,1,.55h0a2.12,2.12,0,0,1-1,1.67l-11.23,6.48c-.53.3-1,.06-1-.55v-.06A2.1,2.1,0,0,1,1160.67,512.2Z"/><g class="cls-66"><path class="cls-67" d="M1143.93,532.49l13-7.5c.53-.31,1-.06,1,.55h0a2.12,2.12,0,0,1-1,1.67l-13,7.5a.62.62,0,0,1-1-.56h0A2.13,2.13,0,0,1,1143.93,532.49Z"/><path class="cls-67" d="M1160.67,522.83l11.23-6.48c.53-.31,1-.06,1,.55h0a2.12,2.12,0,0,1-1,1.67L1160.67,525c-.53.3-1,.06-1-.55v-.06A2.1,2.1,0,0,1,1160.67,522.83Z"/></g><g class="cls-66"><path class="cls-67" d="M1143.93,527.17l7.06-4.07c.53-.31,1-.06,1,.55h0a2.12,2.12,0,0,1-1,1.67l-7.06,4.08c-.53.3-1,.06-1-.56h0A2.12,2.12,0,0,1,1143.93,527.17Z"/><path class="cls-67" d="M1154.16,521.27l6-3.48c.53-.3,1-.06,1,.55v.06a2.13,2.13,0,0,1-1,1.67l-6,3.47c-.53.31-1,.07-1-.54v-.06A2.13,2.13,0,0,1,1154.16,521.27Z"/><path class="cls-67" d="M1163.53,515.84l8.33-4.81c.53-.31,1-.06,1,.55h0a2.1,2.1,0,0,1-1,1.67l-8.33,4.81c-.53.3-1,.06-1-.55v-.06A2.08,2.08,0,0,1,1163.53,515.84Z"/></g><g class="cls-66"><path class="cls-67" d="M1143.93,537.86l11.37-6.54c.53-.31,1-.06,1,.55h0a2.12,2.12,0,0,1-1,1.67l-11.37,6.56a.62.62,0,0,1-1-.56h0A2.13,2.13,0,0,1,1143.93,537.86Z"/><path class="cls-67" d="M1158.46,529.49l6-3.48c.53-.3,1-.06,1,.55v.06a2.12,2.12,0,0,1-1,1.67l-6,3.48c-.53.3-1,.06-1-.55v-.06A2.12,2.12,0,0,1,1158.46,529.49Z"/><path class="cls-67" d="M1167.84,524l4.06-2.33c.53-.31,1-.06,1,.55h0a2.1,2.1,0,0,1-1,1.67l-4.06,2.33c-.53.3-1,.06-1-.55v-.06A2.08,2.08,0,0,1,1167.84,524Z"/></g></g><path class="cls-48" d="M1183.71,584.15a11.09,11.09,0,0,0,1-3.09,5.39,5.39,0,0,0,.24-1.35c0-.39-.45-3.08-.45-3.08l2.63-.26s-.15,2.22-.16,2.93a7.38,7.38,0,0,0,.31,2.39c-.13.38-1.58,3-1.58,3l-1.56.4-.76-.32Z"/><path class="cls-50" d="M1183.31,585.62c-.37-.08-1.54-.9-.83-1.27a1.5,1.5,0,0,1,1.13-.13s-.16.28.09.26c.47,0,.83-2.11.83-2.8l1.31.48-.53,2.85-.6.39-1,.22Z"/><path class="cls-70" d="M1185,582.71a3.57,3.57,0,0,1-.47,2.21,1.13,1.13,0,0,1-1.1.63,6.87,6.87,0,0,0,3.62-.19c.3-.22.1-.83.1-1.53s.22-1.53.2-1.91S1185,582.71,1185,582.71Z"/><path class="cls-50" d="M1185.88,580.3a1.53,1.53,0,0,0-1.38,1.48c0,.68.65.77,1.19,2.08a8.19,8.19,0,0,1,.37,2.7.33.33,0,0,0,.45,0s0-.77.05-1.53a12,12,0,0,1,.19-1.57c.21-.7.64-1,.58-1.74a2.28,2.28,0,0,0-.42-1.12A1.59,1.59,0,0,0,1185.88,580.3Z"/><path class="cls-70" d="M1180.73,589.61s.23.42,1.51-.12a3.13,3.13,0,0,0,1.06-.67,12.39,12.39,0,0,1,.5-1.4s-.26-1.67-1-1A14.52,14.52,0,0,0,1180.73,589.61Z"/><path class="cls-48" d="M1183.68,580.58c.15.94.23,1.59.33,2.18a2.42,2.42,0,0,0,.38,1,2.79,2.79,0,0,1,.55,1.21,3.83,3.83,0,0,0-2.28,1.26c-.77,1-.73,2.08-1.44,2.26s-1.91-.65-1.91-.65a1.23,1.23,0,0,0,1.05-1c.3-1,1.07-3,1.13-3.53a6.48,6.48,0,0,0-.57-2.26Z"/><path class="cls-50" d="M1183.94,583.79c-.66,0-1.67,1.09-2,1.85a5.54,5.54,0,0,1-1.32,2.08c-.43.23-1.18-.12-1.83-.12s-1.11.29-1.14.77l2.7,1.28c.62.3,1.14.31,1.67-1s.94-2.41,1.56-1.5a6.94,6.94,0,0,1,.76,2.35s.25.2.54-.12a6.15,6.15,0,0,1-.15-1.36c0-1.73.6-2.16.44-2.84C1184.9,584.2,1184.65,583.75,1183.94,583.79Z"/><path class="cls-56" d="M1176.71,516s-1.72-1-1.54-2.5a4.62,4.62,0,0,1,6.53-3.38C1185.48,511,1176.71,516,1176.71,516Z"/><path class="cls-48" d="M1186.43,522.65c1.18.33,1.84,1.67,2.87,4.41s2.1,6.82,2,7.88c-.33,2.62-1.95,4.85-4.75,6.67l-1.25-2.28s2.74-2.21,3-4.83c.15-1.47-1.76-6.47-1.76-6.6S1186.43,522.65,1186.43,522.65Z"/><path class="cls-51" d="M1187.63,567.77a28,28,0,0,1-.33-4.27s.46-4.43.83-8.23c.54-5.61,1.61-6.88,1-10.27-.53-2.93-2.5-5.2-3.33-7.35l-9.17.73a73.49,73.49,0,0,0-1.82,7.76c-1,5.17-.64,12.18.14,19.39.23,2.09,1.54,4.89,3,8.43,1.36,3.24,3.42,8.58,3.42,8.58a2,2,0,0,0,2.54-.59s-1.05-7-1.48-9.41a12.3,12.3,0,0,0-2.61-6s.43-2.94.73-5.55c.33-2.83,1.28-7.5,1.28-7.5s.05,7.26.19,9.35a47.51,47.51,0,0,0,1,6.41c.6,3.33,1.93,10,1.93,10a2.64,2.64,0,0,0,2.11-.08S1188,570.7,1187.63,567.77Z"/><path class="cls-52" d="M1187.31,548.34a9.56,9.56,0,0,1-5,2.26l-.43,2.88c-.12,2.35.18,5.13.13,7.82,0,0,.66-7,1.53-8.18S1186.71,550,1187.31,548.34Z"/><path class="cls-48" d="M1185.88,522.57c-1.95-.12-2.13.21-2.29-.48-.06-.25-.17-2-.17-2a5.84,5.84,0,0,0,.49-.73,5,5,0,0,0-2.1-9.22c-2.58-.27-4.48,1.54-5,4A11,11,0,0,0,1177,520c.43,1.14.83,1.94,1.87,1.9a6.24,6.24,0,0,0,1-.17,9.38,9.38,0,0,1,.06,1.43c0,.5.05.75-.92,1.35s1.48,1.84,3.08,1.72,3.4-1.08,3.89-2.13S1186.81,522.65,1185.88,522.57Z"/><path class="cls-53" d="M1184.5,519l-1.67.09H1181l-.57-.66s-.12,2.11-.69,2.63a4.86,4.86,0,0,1-1.33.83,1.67,1.67,0,0,0,.51.07,6.24,6.24,0,0,0,1-.17,9.38,9.38,0,0,1,.06,1.43c0,.5.05.75-.92,1.35s1.48,1.84,3.08,1.72,3.4-1.08,3.89-2.13.78-1.45-.14-1.51c-1.95-.12-2.13.21-2.29-.48-.06-.25-.17-2-.17-2a5.84,5.84,0,0,0,.49-.73A5.61,5.61,0,0,0,1184.5,519Z"/><path class="cls-56" d="M1184.46,519.57a5.4,5.4,0,0,0,1.82-3.89,5,5,0,0,0-4.45-5.49h0a4.12,4.12,0,0,0-4.54,2.67.83.83,0,0,0,.6.39,1.27,1.27,0,0,0,.27,1,2.5,2.5,0,0,1,.62,1.43,10.25,10.25,0,0,0,.09,1.67.83.83,0,0,0,.83.58,15.39,15.39,0,0,1,.15-2c.31-.7,1.55-.83,1.78,0a2.5,2.5,0,0,1-.28,1.92c-.22.44-.6.67-1,.5a1.85,1.85,0,0,0,1.54,2.09c1.09.31,1.19-.09,1.75-.38A4.66,4.66,0,0,0,1184.46,519.57Z"/><path class="cls-54" d="M1184,522.53c.36.45.4,1-1,1.37a4.38,4.38,0,0,1-3-.23,20.58,20.58,0,0,0-3.15,1.67c-3.12,2.17-3.87,5.92-.73,7.21.19,1.41.43,5,.48,5.83,2.65,1.86,8,1.22,9.25-.74a15.44,15.44,0,0,1,.18-2c1.27-4.69,2.26-5.94,1.9-9.48-.2-2-.36-3-1.43-3.58A9.17,9.17,0,0,0,1184,522.53Z"/><path class="cls-56" d="M1180.42,518.39V530.7s1.28.88,3.5-.18,2.38-1.71,2.38-2.89V515.08s-2.5,3-4.36,3.63C1180.53,519.2,1180.42,518.39,1180.42,518.39Z"/><path class="cls-48" d="M1157.71,537.65a16.2,16.2,0,0,1,2,.58,7,7,0,0,0,1.94.65c.73.12,1.88-.27,3.87-1.2a21.4,21.4,0,0,0,5.83-4.36,50.12,50.12,0,0,0,5.06-7.23c.83-1.57,1.94-2,2.89-1.67,1.13.38,1.27,1.49,0,3.6a40,40,0,0,1-5.79,7.59,21.84,21.84,0,0,1-6,4.26,18.6,18.6,0,0,1-5.08,1.77c-.62.13-1,.39-2.18.79a7.5,7.5,0,0,1-3.56.39c-1-.19-1.32-.42-1.38-.64s.16-.42.63-.38a6.28,6.28,0,0,0,2.21-.06,12.82,12.82,0,0,1-1.67-.11,5.91,5.91,0,0,1-1.58-.4c-.48-.21-.64-1-.17-1s.83.18,1.73.27a5.89,5.89,0,0,0,1.44,0,11.78,11.78,0,0,1-1.77-.44,2.5,2.5,0,0,1-1.22-.76c-.17-.19-.13-.66.46-.55a9.06,9.06,0,0,0,2.15.48c.74,0,1.27-.07,1.18-.18s-.53-.09-1.09-.41-.89-.92-.7-1.21S1157.1,537.43,1157.71,537.65Z"/><path class="cls-70" d="M985.21,747.13s-.23.4-1.47-.12a3.27,3.27,0,0,1-1.58-1.13s.32-2.5,1.08-1.85A13.79,13.79,0,0,1,985.21,747.13Z"/><path class="cls-48" d="M982.11,738.48c0,1.3.06,2.29-.44,3a2.67,2.67,0,0,0-.53,1.17,3.73,3.73,0,0,1,2.22,1.22c.74,1,.7,2,1.39,2.18s1.84-.63,1.84-.63a1.21,1.21,0,0,1-1-1,34.55,34.55,0,0,1-1-3.39v-2.5Z"/><path class="cls-50" d="M982.1,741.81A2.81,2.81,0,0,1,984,743.3a5.38,5.38,0,0,0,1.28,2c.42.23,1.15-.11,1.78-.11s1.07.28,1.11.74l-2.61,1.23c-.61.29-1.11.3-1.58-1s-.65-2-1-1.11a12.06,12.06,0,0,0-.53,2.77.62.62,0,0,1-.76-.32,12.5,12.5,0,0,0-.09-1.67c-.11-.77-.83-1.73-.75-2.66S981.4,741.76,982.1,741.81Z"/><path class="cls-70" d="M994.93,752.15s-.24.41-1.52-.13a3.33,3.33,0,0,1-1.67-1.17s.33-2.56,1.12-1.92A14.67,14.67,0,0,1,994.93,752.15Z"/><path class="cls-48" d="M991.71,743.19c0,1.34.06,2.37-.45,3.09a2.75,2.75,0,0,0-.55,1.21,3.8,3.8,0,0,1,2.28,1.26c.77,1,.73,2.08,1.44,2.26s1.91-.65,1.91-.65a1.27,1.27,0,0,1-1.06-1,32.89,32.89,0,0,1-1.07-3.51c0-.53-.13-2.68-.13-2.68Z"/><path class="cls-50" d="M991.71,746.62a2.9,2.9,0,0,1,2,1.55,5.78,5.78,0,0,0,1.33,2.08c.43.24,1.19-.11,1.84-.12s1.1.3,1.14.77l-2.7,1.28c-.63.29-1.15.3-1.67-1s-.68-2-1.07-1.14a12.56,12.56,0,0,0-.54,2.86.64.64,0,0,1-.83-.33,13.41,13.41,0,0,0-.09-1.73c-.11-.83-.83-1.79-.77-2.75S991,746.58,991.71,746.62Z"/><path class="cls-48" d="M981.47,685.25c-1.17.34-1.84,1.67-2.87,4.41s-2.1,6.83-2,7.89c.33,2.62,2,4.84,4.76,6.67l1.24-2.29s-2.74-2.21-3-4.83c-.15-1.47,1.76-6.47,1.76-6.6S981.47,685.25,981.47,685.25Z"/><path class="cls-51" d="M980.59,730.65a13.59,13.59,0,0,1,.55-4s-1-4.93-1.37-8.73c-.55-5.61-1.54-7-.64-10.27a55.32,55.32,0,0,1,3-7.34l9.17.72s.79,2.6,1.83,7.77a93.06,93.06,0,0,1,1.39,19.41c0,2.09,0,4-.17,9.17-.08,3.51-.12,8.24-.12,8.24a2.39,2.39,0,0,1-2.61-.11s-2.17-10.43-2.5-12.82a7.5,7.5,0,0,1,.32-4s-.69-3.28-1.2-5.83c-.62-3.13-2.16-9.92-2.16-9.92s0,10.38-.19,12.5-.06,3.77-.45,6.56c-.47,3.33-.89,9.06-.89,9.06a3.14,3.14,0,0,1-2.5-.44S980.59,733.6,980.59,730.65Z"/><path class="cls-52" d="M986,713s0,10.38-.19,12.5a3.11,3.11,0,0,1,0,.71v.13l-1.07-12.13a6.14,6.14,0,0,1-3.88-2.83C982.84,713.33,986,713,986,713Z"/><path class="cls-48" d="M982,685.2c2-.12,2.14.21,2.29-.48.06-.25.17-2,.17-2A5.59,5.59,0,0,1,984,682a5,5,0,0,1,2.08-9.22h0a4.63,4.63,0,0,1,5,4,11,11,0,0,1-.2,5.79c-.43,1.14-.83,1.94-1.87,1.9a6.35,6.35,0,0,1-1-.18,9.49,9.49,0,0,0-.06,1.43c0,.5-.06.75.92,1.35s-1.48,1.83-3.08,1.72-3.41-1.09-3.9-2.13S981.1,685.26,982,685.2Z"/><path class="cls-53" d="M981.87,686.71c-.55-1.16-.77-1.45.14-1.51,2-.12,2.14.21,2.29-.48.06-.25.17-2,.17-2A5.59,5.59,0,0,1,984,682a5,5,0,0,1-1.71-1.75l.12-.11,4.17,2.15.77-.18.62-.69a10,10,0,0,0,.29,1.75c.18.54,1.44,1.17,1.45,1.17a1.45,1.45,0,0,1-.68.13,6.35,6.35,0,0,1-1-.18,9.49,9.49,0,0,0-.06,1.43c0,.5-.06.75.92,1.35s-1.48,1.83-3.08,1.72S982.36,687.75,981.87,686.71Z"/><path class="cls-56" d="M983.44,682.2a5.45,5.45,0,0,1-1.82-3.89,5,5,0,0,1,4.44-5.5h0a4.31,4.31,0,0,1,4.17,2,2.85,2.85,0,0,1-.47.65,1.18,1.18,0,0,1-.18,1.09,1.5,1.5,0,0,0-.31,1.22,6.42,6.42,0,0,1,.08,1.56,1.43,1.43,0,0,1-.75,1.06,6.76,6.76,0,0,0-.38-1.67.94.94,0,0,0-1.67.08,2.17,2.17,0,0,0,.17,2.18,1.07,1.07,0,0,0,1.27.56,1.37,1.37,0,0,1-1.09,1.53,3.81,3.81,0,0,1-2.66-.27A4.91,4.91,0,0,1,983.44,682.2Z"/><path class="cls-56" d="M989,673.52a2.25,2.25,0,0,1,2.59,2.26,3.33,3.33,0,0,1-2.5,3.18Z"/><path class="cls-54" d="M984,685.15c-.37.45-.41,1,1,1.37a4.43,4.43,0,0,0,3-.23,19.78,19.78,0,0,1,3.15,1.67c3.11,2.16,3.86,5.91.73,7.2-.19,1.41-.43,5-.48,5.83-2.66,1.85-8,1.22-9.26-.74a14.29,14.29,0,0,0-.18-2c-1.27-4.69-2.25-5.94-1.9-9.48.2-2,.36-3,1.43-3.59A9.53,9.53,0,0,1,984,685.15Z"/><path class="cls-49" d="M988.64,686.58l-.4-1.08a.4.4,0,0,0-.32-.24s-.36.45-1.53.33-2.1-.66-2.06-1.07v-.27a.67.67,0,0,0-.57.19c-.24.25-.58.71-.58.71s-.19,1,1.38,1.55A5.3,5.3,0,0,0,988.64,686.58Z"/><path class="cls-48" d="M1003.42,709.55a15.65,15.65,0,0,0-2.06-.48,6.56,6.56,0,0,1-2-.37c-.7-.25-1.53-1.13-2.81-2.91a21.43,21.43,0,0,1-3-6.61,50.82,50.82,0,0,1-1-8.77,2.66,2.66,0,0,0-1.74-2.84c-1.1-.41-1.86,0-1.78,2.42a45.75,45.75,0,0,0,1.46,10.17,21.67,21.67,0,0,0,3.24,6.67,18.47,18.47,0,0,0,3.61,4,21.54,21.54,0,0,1,1.53,1.75,7.5,7.5,0,0,0,2.93,2.06c1,.31,1.37.27,1.52.1s.06-.45-.37-.64A6.13,6.13,0,0,1,1001,713s.91.47,1.48.69a5.83,5.83,0,0,0,1.58.41c.53.06,1-.54.61-.74s-.83-.25-1.67-.6a6.13,6.13,0,0,1-1.26-.71,11.78,11.78,0,0,0,1.76.47,2.64,2.64,0,0,0,1.44-.07c.24-.09.43-.53-.13-.71a9.59,9.59,0,0,1-2.13-.62c-.66-.33-1.07-.67-.94-.73s.52.18,1.16.17,1.22-.38,1.19-.73S1004.06,709.65,1003.42,709.55Z"/><path class="cls-2" d="M1167.83,648.25l-17.09-9.87a4.23,4.23,0,0,0-3.83,0l-17.09,9.87a1.16,1.16,0,0,0,0,2.21l17.09,9.87a4.23,4.23,0,0,0,3.83,0l17.09-9.87a1.17,1.17,0,0,0,0-2.21Z"/><path class="cls-2" d="M1142.09,657.77l-6-3.47c-4.08-2.35-9.71-2.92-12.58-1.26s-1.88,4.9,2.19,7.26l6,3.47c4.08,2.35,9.7,2.92,12.58,1.26S1146.16,660.15,1142.09,657.77Z"/><path class="cls-3" d="M1129.43,629.06l17.09-9.88a4.23,4.23,0,0,1,3.83,0l17.09,9.88a1.16,1.16,0,0,1,0,2.2l-17.09,9.88a4.23,4.23,0,0,1-3.83,0l-17.09-9.88a1.16,1.16,0,0,1,0-2.2Z"/><path class="cls-6" d="M1148.44,619.56a3.13,3.13,0,0,1,1.49.35l17.09,9.87c.27.16.37.32.37.38s-.1.23-.37.38l-17.09,9.87a3.44,3.44,0,0,1-3,0l-17.09-9.87c-.27-.16-.37-.32-.37-.38s.1-.23.37-.38l17.09-9.87a3.14,3.14,0,0,1,1.5-.35m0-.83a4,4,0,0,0-1.92.46l-17.09,9.88a1.16,1.16,0,0,0,0,2.2l17.09,9.88a4,4,0,0,0,1.92.45,3.93,3.93,0,0,0,1.91-.45l17.09-9.88a1.16,1.16,0,0,0,0-2.2l-17.09-9.88a3.94,3.94,0,0,0-1.9-.46Z"/><path class="cls-4" d="M1128.64,647.41a1.35,1.35,0,0,0,.83,1.1l17.09,9.88a3.9,3.9,0,0,0,1.92.45V641.59a3.92,3.92,0,0,1-1.92-.45l-17.09-9.88a1.33,1.33,0,0,1-.83-1.1Z"/><path class="cls-5" d="M1168.23,647.41a1.33,1.33,0,0,1-.83,1.1l-17.09,9.88a3.87,3.87,0,0,1-1.91.45V641.59a3.87,3.87,0,0,0,1.91-.45l17.09-9.88a1.33,1.33,0,0,0,.83-1.1Z"/><path class="cls-48" d="M1125,619.63a17.71,17.71,0,0,1,2.11-.13,6.74,6.74,0,0,0,2,0c.73-.13,2.67-1.78,4.23-3.33a17.57,17.57,0,0,0,3.88-5.88c.74-2.33,1.81-7.12,2.35-8.73a2.67,2.67,0,0,1,2.3-2.15c1.15-.23,1.93.19,1.44,2.6a47.21,47.21,0,0,1-3,10,22.94,22.94,0,0,1-4.41,6,26.62,26.62,0,0,1-5.16,3.86c-.53.33-.83.71-1.8,1.47a7.5,7.5,0,0,1-3.23,1.56c-1,.14-1.39,0-1.51-.15s0-.45.47-.57a6.18,6.18,0,0,0,2.06-.83s-1,.31-1.58.45a6.18,6.18,0,0,1-1.62.14c-.53,0-.92-.7-.47-.83s.83-.11,1.72-.33a6,6,0,0,0,1.36-.49,12.15,12.15,0,0,1-1.82.18,2.62,2.62,0,0,1-1.41-.31c-.22-.13-.33-.58.25-.68a8.87,8.87,0,0,0,2.19-.26c.71-.23,1.18-.48,1.05-.56s-.53.08-1.17,0-1.15-.58-1.06-.91S1124.3,619.62,1125,619.63Z"/><path class="cls-49" d="M1142,599.14c-1.15-.23-2.15.83-2.7,2.5s-1.32,5.28-1.79,6.52a12.5,12.5,0,0,0-.63,2.28,5.6,5.6,0,0,0,4.17,1.24,53.32,53.32,0,0,0,2.08-6.93C1143.75,601.56,1144.06,599.54,1142,599.14Z"/><path class="cls-54" d="M1138.85,611a4.26,4.26,0,0,1-1.87-1.19l.1-.42s-.23,0-.58,1-.43,1.62-.28,1.83c.91,1.3,3.6,1.88,4.12,1.17.37-.5,1.23-1.89,1-2.5l-.17.46A5.27,5.27,0,0,1,1138.85,611Z"/><path class="cls-50" d="M1132,650.4a9.83,9.83,0,0,0,.22,1.18,5.19,5.19,0,0,1,.17,1.85c-.1.43-1.33,1-2,1.13a4.33,4.33,0,0,0-2.13,1.32,4.26,4.26,0,0,1-5.27.39c-.27-.39.09-.83,2.1-2.24s3.33-2.3,4-3.63Z"/><path class="cls-50" d="M1139.3,664a3.16,3.16,0,0,1-2.23,1.19,9.67,9.67,0,0,1-1.39.06c-.48,0-1.24-.29-1.19-.91a1,1,0,0,1,.26-.51c.78-1,1.62-2,2.34-3.06a9.68,9.68,0,0,0,1.91-4.17h3a7.55,7.55,0,0,0,.13.94,10,10,0,0,0,.21,1,2.71,2.71,0,0,1-.08,2,4,4,0,0,1-1.16,1.06A11.08,11.08,0,0,0,1139.3,664Z"/><path class="cls-51" d="M1153.5,624.19c1.09,6.8-2.41,8.79-5.73,11.34a52.58,52.58,0,0,1-5.35,3.59,31.89,31.89,0,0,1,.33,5c0,3-.75,12.55-.75,12.55a3.27,3.27,0,0,1-3,0s-1-7.27-1.49-11c-.67-5.22-1.25-7.57-1-8.66s4.53-5.73,5.57-7.34l-9.62,5.59a32.94,32.94,0,0,1,.27,4.28c-.1,4-.7,10.93-.7,10.93a2.49,2.49,0,0,1-2.94,0s-3-16.3-3-17.73c0-2.18,8.81-7.66,10.77-9a40.77,40.77,0,0,0,3.33-2.41Z"/><path class="cls-52" d="M1142.09,629.61a6.86,6.86,0,0,1-2.19-3.13,16,16,0,0,0,.34,2.38c.26,1-7.77,6.34-7.77,6.34Z"/><path class="cls-48" d="M1149.53,598.17s-.17,3.24-.1,3.53,1.49,1.24,1.9,1.58-2.24,3-3.53,3.55-5.38-1-5.45-3,.7-3.69,1.32-3.78S1149.53,598.17,1149.53,598.17Z"/><path class="cls-53" d="M1144.9,601.89c-.43-.39.5-1.67.83-2.23,1.33-.4,3.83-1.49,3.83-1.49s0,.75-.06,1.27h0a2.14,2.14,0,0,1-.83,1.6,6.11,6.11,0,0,1-1.45.83C1146.62,602.09,1145.55,602.5,1144.9,601.89Z"/><path class="cls-54" d="M1149.9,602s-2.35,3.51-5.63,3.83c-1-1-1.12-4.65.31-5.83,0,0-1.32-1.06-2.22-.83a4.68,4.68,0,0,0-2,2.59,21,21,0,0,0-1.15,7.5c.07,3.79.43,14.08.37,12.26,0,0-.42,1.83,2.55,3.48s5.71,2.42,7.72,2c1.67-.39,3.43-1.4,3.69-2.72-.15-2.41-.66-6.43-.26-9.47s.37-5.54.53-8-.33-2.4-1.55-3.27A20.18,20.18,0,0,0,1149.9,602Z"/><path class="cls-49" d="M1144.26,605.79a18.43,18.43,0,0,1-.28-2.39,7.62,7.62,0,0,1,.92-2.59v-.91a2.12,2.12,0,0,0-1.2.78,5,5,0,0,0-1.19,3.57A4.17,4.17,0,0,0,1144.26,605.79Z"/><path class="cls-54" d="M1144.26,605.79c-.23-.46-.69-2-.92-2.25-.43-.14-.83.71-.83.71a2.26,2.26,0,0,0,.56,1.42A1,1,0,0,0,1144.26,605.79Z"/><path class="cls-55" d="M1143.38,603.54c.23.23.68,1.79.92,2.25a8.35,8.35,0,0,0-.49-.75c-.25-.31-.54-.91-1.27-.83C1142.55,604.25,1142.91,603.4,1143.38,603.54Z"/><path class="cls-56" d="M1150.88,591.1s.32-1-1-2c-1.52-1.15-3.65-.89-5.9,0-1.43.58-3.67-.13-3.23,1.52.63,2.42,5.3,2.63,7.33.94A5.22,5.22,0,0,1,1150.88,591.1Z"/><path class="cls-49" d="M1149.42,600.82c-.06.5-2.7,2.5-3.33,2.72s-1.83,2.25-1.83,2.25a2.62,2.62,0,0,1,2.4.93s3.75-1.58,4.36-4.09c0,0-.7-1.35-.83-1.67s-.38-.74-.78-.76Z"/><path class="cls-54" d="M1146.66,606.72s-.27-1.93-.68-2.11-1.72,1.17-1.72,1.17A3.58,3.58,0,0,0,1146.66,606.72Z"/><path class="cls-55" d="M1146,604.61c.41.18.68,2.11.68,2.11a8.33,8.33,0,0,0-1.38-1.06,2.5,2.5,0,0,0-1,.13S1145.58,604.44,1146,604.61Z"/><path class="cls-48" d="M1142.19,593.34h0c.39-2.5,2.2-4.42,4.8-4.28a8.88,8.88,0,0,1,2.13,10.21c-.92,1.07-3.69,1.73-4.48,1.63a2.38,2.38,0,0,1-2.07-1.67A11.51,11.51,0,0,1,1142.19,593.34Z"/><path class="cls-56" d="M1142.55,591.31a4.93,4.93,0,0,1,5.18-2.15,5,5,0,0,1,1.77,9c.05-.17,1.36-2.13,0-2.56a1.61,1.61,0,0,0-.28,1,.62.62,0,0,1-.52-.83,2.94,2.94,0,0,1,.12-.6,2.36,2.36,0,0,0-.38-1.74,2,2,0,0,1-.36-1.67,6.67,6.67,0,0,1-3.79.3A3.5,3.5,0,0,1,1142.55,591.31Z"/><path class="cls-48" d="M1151.56,631.38a16.21,16.21,0,0,1,1.58-1.42,3.78,3.78,0,0,0,1.34-1.27,16.16,16.16,0,0,0,1.16-5.13,21.34,21.34,0,0,0-.72-7.24c-.89-2.8-2.77-6.58-3.33-8.17A2.67,2.67,0,0,1,1152,605c.75-.91,2.06-.83,3.21,1.31a45.4,45.4,0,0,1,3.54,9.45,22.5,22.5,0,0,1,.41,7.5,26.4,26.4,0,0,1-1.55,6.25c-.2.6-.2,1.09-.45,2.28a7.59,7.59,0,0,1-1.52,3.25c-.68.75-1.05.91-1.26.83s-.27-.36,0-.74a6.31,6.31,0,0,0,1.09-1.91s-.55.83-.93,1.33a6,6,0,0,1-1.17,1.15c-.43.31-1.17,0-.9-.34s.57-.62,1.12-1.34a6.25,6.25,0,0,0,.74-1.24,11.41,11.41,0,0,1-1.29,1.28,2.56,2.56,0,0,1-1.28.66c-.26,0-.63-.24-.23-.68a9.17,9.17,0,0,0,1.52-1.59c.41-.62.61-1.12.46-1.09s-.36.4-.92.72-1.24.28-1.39,0S1151.06,631.81,1151.56,631.38Z"/><path class="cls-49" d="M1152.08,604.47c-1.07.51-1.25,1.94-.71,3.61s2.07,5,2.43,6.33a12.3,12.3,0,0,0,.83,2.2,5.54,5.54,0,0,0,4.08-1.47,52.81,52.81,0,0,0-2.43-6.82C1154.94,605.38,1154,603.57,1152.08,604.47Z"/><path class="cls-54" d="M1156.59,615.9a4.36,4.36,0,0,1-2.21.15l-.17-.4s-.18.13.1,1.12a3.14,3.14,0,0,0,.83,1.67c1.5.51,4-.63,4-1.5,0-.62-.13-2.25-.72-2.6l.13.47A5.2,5.2,0,0,1,1156.59,615.9Z"/><path class="cls-48" d="M1149.53,598.15s.12.27.6.29a2,2,0,0,0,1.24-2.8,1.18,1.18,0,0,0-1.82,0Z"/><path class="cls-71" d="M1127.09,627.83l7.78-4.48a.43.43,0,0,1,.44,0l13.63,7.87-8,4.62Z"/><polygon class="cls-72" points="1141.01 635.17 1145.2 632.75 1132.95 625.68 1128.74 628.08 1141.01 635.17"/><polygon class="cls-73" points="1143.08 628.45 1143 628.49 1140.95 629.67 1137.29 627.56 1137.21 627.52 1139.35 626.3 1143.08 628.45"/><polygon class="cls-72" points="1143 628.49 1140.95 629.67 1137.29 627.56 1139.35 626.38 1143 628.49"/><path class="cls-5" d="M1148.94,631.21v.18a.75.75,0,0,1-.37.65l-7.24,4.17a.77.77,0,0,1-.37.1.74.74,0,0,1-.37-.1l-13.11-7.57a.77.77,0,0,1-.37-.65v-.18l13.86,8Z"/><path class="cls-72" d="M1140.95,635.83v.5a.74.74,0,0,1-.37-.1l-13.11-7.57a.77.77,0,0,1-.37-.65v-.18Z"/><path class="cls-71" d="M1140.74,636a.88.88,0,0,1-.77-.06l-13.05-7.5a.92.92,0,0,1-.43-.62l-1.44-8.6a.73.73,0,0,1,0-.14.91.91,0,0,1,.27-.63l13.56,7.83a.67.67,0,0,1,.32.46Z"/><path class="cls-5" d="M1140.95,635.83h-.09l-.12.06-1.52-9.22a.67.67,0,0,0-.32-.46l-13.56-7.83a.74.74,0,0,1,.18-.13l13.58,7.84a.67.67,0,0,1,.32.46Z"/><path class="cls-72" d="M1133.38,628.08a2.86,2.86,0,0,0-1.32-1.67c-.63-.37-1.07-.2-1,.37a2.85,2.85,0,0,0,1.31,1.67C1133,628.81,1133.48,628.65,1133.38,628.08Z"/><path class="cls-2" d="M923,668.55l5.48-3.17c3.72-2.15,8.86-2.67,11.48-1.15s1.73,4.48-2,6.67l-5.49,3.17c-3.72,2.14-8.86,2.66-11.48,1.15S919.29,670.7,923,668.55Z"/><path class="cls-48" d="M943.92,623.53a14.26,14.26,0,0,0-1.81.94,6.67,6.67,0,0,1-1.72,1c-.68.26-2.93.06-5-.43a20.71,20.71,0,0,1-6.33-3,40.42,40.42,0,0,1-5.77-5.68,3.24,3.24,0,0,0-3.48-1.16c-1.07.39-1.39,1.15.21,2.9a44.37,44.37,0,0,0,7.44,6.55A20.88,20.88,0,0,0,934,627.5a26.21,26.21,0,0,0,6.24.74c.61,0,1.06.17,2.22.32a7.3,7.3,0,0,0,3.45-.32c.9-.38,1.17-.66,1.17-.87s-.24-.37-.68-.24a5.9,5.9,0,0,1-2.1.38s1-.23,1.53-.42a5.62,5.62,0,0,0,1.42-.68c.43-.29.43-1,0-.93s-.75.33-1.58.59a5.83,5.83,0,0,1-1.37.27,10.73,10.73,0,0,0,1.58-.76,2.43,2.43,0,0,0,1-1c.12-.21,0-.64-.54-.43a8.85,8.85,0,0,1-1.94.83c-.7.17-1.22.19-1.15.07s.48-.2,1-.61.66-1,.43-1.28S944.45,623.2,943.92,623.53Z"/><path class="cls-49" d="M919.72,614.91c1-.41,2.6-.08,4.17,1.9a28.84,28.84,0,0,0,6.59,5.83,21.94,21.94,0,0,0,7.94,2.87,2.33,2.33,0,0,1-.13,2.63,21,21,0,0,1-8-1.78c-4.17-1.84-7.93-5.52-9.63-7.17S917.86,615.69,919.72,614.91Z"/><path class="cls-50" d="M923.38,665.85a3.23,3.23,0,0,0,.31,2.23,10.42,10.42,0,0,1,.34,3.23.63.63,0,0,0,.83,0s-.06-3,.75-2.8Z"/><path class="cls-48" d="M930.2,670.59a31.09,31.09,0,0,1-2.24-6.08,6.4,6.4,0,0,1-.17-1.8v-4.8l-3.44-.67.56,5.32a2.83,2.83,0,0,1-.44,1.49,13.56,13.56,0,0,0-.83,1.79,1.47,1.47,0,0,0,.48,1.92,12.5,12.5,0,0,1,2.08,1.93c.6.75.55,1.74,1.53,2.63s2.81.22,3.16-.08S931.25,671.41,930.2,670.59Z"/><path class="cls-50" d="M930,671.6c-2.06.49-2.5.23-3-2.09-.45-1.77-.83-3-1.67-3.72s-1-1.34-.77-2c-.2,0-.44.08-.58.53-.3,1-.77,1.2-.79,1.93a2.12,2.12,0,0,0,1,1.73,3.4,3.4,0,0,1,1.56,1.72c.49,1,.38,2.15.72,3.1a4.53,4.53,0,0,0,5.25.78c.44-1.16.83-1.67-1.61-3C930.64,671.1,930.88,671.41,930,671.6Z"/><path class="cls-50" d="M928.28,661.93a3.28,3.28,0,0,0,.3,2.24,10.2,10.2,0,0,1,.34,3.23.65.65,0,0,0,.83,0s-.06-3,.75-2.8Z"/><path class="cls-48" d="M935.13,666.7a31.33,31.33,0,0,1-2.24-6.08,6.81,6.81,0,0,1-.17-1.8,44.1,44.1,0,0,1,.58-4.71l-3-.57-.44,5.12a2.8,2.8,0,0,1-.44,1.49,14.09,14.09,0,0,0-.83,1.79,1.48,1.48,0,0,0,.48,1.93,11.83,11.83,0,0,1,2.08,1.93c.6.75.55,1.74,1.53,2.63s2.81.22,3.17-.09S936.18,667.51,935.13,666.7Z"/><path class="cls-50" d="M935,667.7c-2,.5-2.5.23-3-2.08-.45-1.78-.83-3-1.62-3.73s-1-1.33-.77-2c-.2,0-.44.08-.58.53-.3,1-.77,1.19-.83,1.93a2.14,2.14,0,0,0,1,1.73,3.42,3.42,0,0,1,1.56,1.73c.49,1,.38,2.15.72,3.1a4.54,4.54,0,0,0,5.25.78c.45-1.17.83-1.67-1.61-3C935.57,667.2,935.77,667.51,935,667.7Z"/><path class="cls-56" d="M915.34,602.5a6,6,0,0,1,6,0c1.77,1.07,2.84,4.11.73,5.5S915.34,602.5,915.34,602.5Z"/><path class="cls-56" d="M914.66,603a2.88,2.88,0,0,0-2.72-.27c-1.09.51-2.1,1-2,4.54,0,3.12-1,12,1.62,12.25,3.66.38,4.17-1.58,4.17-7.16A39.17,39.17,0,0,0,914.66,603Z"/><path class="cls-51" d="M911.79,635.15c-1.33,3.59-1.12,6.55,3.59,9.17,2.5,1.39,8.39,4.48,8.39,4.48a7.33,7.33,0,0,0-.28,3.11c.44,2.92,1.37,10.83,1.37,10.83a3,3,0,0,0,3,.23s.58-6,.77-10.07c.28-5.56.48-6.6-.18-7.66-.52-.83-5.52-4.17-7-5.74l.24-.09,8.84,4.34s-.69.59-.83,3.46c-.22,4.55.08,11.43.08,11.43s1.67,1.22,3.06.09c.62-2.5,3.57-16.53,3.26-17.78-.58-2.37-12.5-8.11-13-9.25Z"/><path class="cls-48" d="M914.66,611.28s.22,3.92.15,4.17-1.54.56-2,.9,2.12,4.32,3.41,4.91,5.3-.89,5.58-2.88a4.61,4.61,0,0,0-1.67-3.76,9.13,9.13,0,0,0-1.11,0l-.11-1.9C917.2,612.16,914.66,611.28,914.66,611.28Z"/><path class="cls-54" d="M914.11,615.86c-1.1.17-2.36.75-2.5,1.35a13,13,0,0,0,.29,6.54,45.92,45.92,0,0,0,2.45,5.32,10.9,10.9,0,0,0,8.16-1.07,25.62,25.62,0,0,0,.42-3.49c3.42-3,.74-6.67-2.13-9.55a1.21,1.21,0,0,0-.83-.35h-.56s1.76,4.55.83,5C918.76,620.2,915.39,616.58,914.11,615.86Z"/><path class="cls-53" d="M919,614.26l-.09-1.54-1.24-.41-3-1,.06,1.23s.13,1.33,2.33,2.38C917.44,615.08,918.92,615.22,919,614.26Z"/><path class="cls-48" d="M921.88,606.25h0c-.39-2.5-2.08-4.23-4.68-4.08a5,5,0,0,0-2.5,9.11,6.21,6.21,0,0,0,.39.88,6,6,0,0,0,4.45,1.83,2,2,0,0,0,1.92-1.47A12.75,12.75,0,0,0,921.88,606.25Z"/><path class="cls-56" d="M921.61,605.19c-.43-2.46-3.14-3.47-5.29-3a5.17,5.17,0,0,0-4,4.51,5.1,5.1,0,0,0,2.3,4.61c-.06-.17-1.37-2.13,0-2.56a2.3,2.3,0,0,1,.23,1.21.73.73,0,0,0,.68-.77v-.07a2.18,2.18,0,0,1,.21-1.44c.28-.41,1-.53,1.1-1.53,0,0,1.52-2.13,2.84-.21C919.86,605,921.08,604.31,921.61,605.19Z"/><path class="cls-48" d="M915.82,642.22a15.61,15.61,0,0,0-1.61-1.24,6.38,6.38,0,0,1-1.61-1.15,13,13,0,0,1-1.67-4.72,20.48,20.48,0,0,1,.12-7,40.54,40.54,0,0,1,2.81-7.6,3.26,3.26,0,0,0-.38-3.65c-.79-.83-1.62-.79-2.56,1.38a44.36,44.36,0,0,0-2.91,9.48,20.9,20.9,0,0,0,.1,7.13,25.83,25.83,0,0,0,1.9,6c.24.56.28,1,.62,2.16a7.24,7.24,0,0,0,1.67,3c.72.68,1.08.83,1.28.72s.23-.37-.06-.71a6.23,6.23,0,0,1-1.21-1.76s.61.77,1,1.22a6.13,6.13,0,0,0,1.21,1c.44.26,1.12,0,.83-.4s-.6-.55-1.19-1.2a5.74,5.74,0,0,1-.83-1.14,10.61,10.61,0,0,0,1.34,1.13,2.44,2.44,0,0,0,1.28.53c.25,0,.58-.28.18-.67a9.47,9.47,0,0,1-1.6-1.42c-.44-.57-.67-1-.53-1s.38.36.94.62,1.22.18,1.34-.14S916.34,642.57,915.82,642.22Z"/><path class="cls-49" d="M913.7,616.63c.83.73,1.15,2.33,0,4.61a28.49,28.49,0,0,0-2.62,8.41,22.05,22.05,0,0,0,.65,8.42,2.32,2.32,0,0,1-2.45,1,21,21,0,0,1-1.67-8c0-4.56,1.77-9.5,2.58-11.73S912.23,615.25,913.7,616.63Z"/><path class="cls-48" d="M914.66,611.28s-.12.25-.61.28a2,2,0,0,1-1.24-2.79,1.19,1.19,0,0,1,1.67-.19l.16.15Z"/><path class="cls-54" d="M914,628.56c.27.51.13,1.2-.44,2.37a29.17,29.17,0,0,0-2.16,5.13c.07.32.83,1,3.94,1.41,3.81.43,8.55-2,8.13-5-.25-1.61-.83-2.87-1-4.46S914,628.56,914,628.56Z"/><path class="cls-2" d="M1195.5,751l23.18,13.38a2.83,2.83,0,0,0,2.55,0l45.43-26a.77.77,0,0,0,0-1.47l-23.33-13.48a2.79,2.79,0,0,0-2.54,0l-45.26,26.13a.77.77,0,0,0,0,1.48Z"/><path class="cls-4" d="M1193.95,706v38.73a4.22,4.22,0,0,0,1.91,3.33L1218,760.85h0a4,4,0,0,0,1.9.45V730.86Z"/><path class="cls-5" d="M1219.95,761.27a3.94,3.94,0,0,0,1.88-.44h0l37-21.33a4.22,4.22,0,0,0,1.9-3.33V710.78L1220,730.86Z"/><path class="cls-3" d="M1194.88,703.89l38-22a2.88,2.88,0,0,1,3.4.53l23.91,26.08a1.67,1.67,0,0,1-.42,2.73l-38,22a2.87,2.87,0,0,1-3.4-.53l-23.91-26.08a1.67,1.67,0,0,1,.42-2.73Z"/><path class="cls-8" d="M1254.7,710h0l-32.75,18.92h-.05a1.92,1.92,0,0,1-2.21-.35h0L1199.88,707l-.09-.1h0a1.12,1.12,0,0,1,.2-1.57l.15-.1h0l32.75-18.91h0a1.87,1.87,0,0,1,1.18-.18,1.92,1.92,0,0,1,1,.53h0l19.81,21.6h0a1.13,1.13,0,0,1,0,1.59Z"/><path class="cls-7" d="M1199.76,706.86l19.86,21.67a1.92,1.92,0,0,0,2.37.37l32.91-19L1234,687.11Z"/><path class="cls-74" d="M1208.66,710.15c2.36-1.37,4,1.52,6.39.16s.7-4.26,3.06-5.63,4,1.53,6.4.16.69-4.25,3.06-5.62,4,1.53,6.4.16.7-4.26,3.07-5.63"/><path class="cls-74" d="M1212.39,714.87c2-1.17,3.69,1.72,5.72.54s.36-4,2.38-5.23,3.69,1.72,5.73.55.36-4.06,2.38-5.23,3.69,1.72,5.73.54.36-4.06,2.39-5.23,3.69,1.67,5.73.54"/><path class="cls-74" d="M1216.12,719.61c2.83-1.67,4.5,1.25,7.34-.39s1.17-4.53,4-6.16,4.51,1.25,7.35-.39,1.17-4.53,4-6.17,4.51,1.25,7.35-.39"/><path class="cls-9" d="M1234.11,686l-.12,1.06-34.23,19.77a1.12,1.12,0,0,1,.2-1.57l.15-.1h0l32.75-18.91h0A1.87,1.87,0,0,1,1234.11,686Z"/><polygon class="cls-33" points="1217.1 660.4 1222.92 663.75 1222.92 670.48 1217.1 667.12 1217.1 660.4"/><polygon class="cls-11" points="1222.92 663.75 1228.74 660.4 1228.74 667.12 1222.92 670.48 1222.92 663.75"/><polygon class="cls-10" points="1228.74 660.4 1222.92 657.04 1217.1 660.4 1222.92 663.75 1228.74 660.4"/><line class="cls-75" x1="1222.92" y1="660.4" x2="1208.94" y2="648.97"/><line class="cls-75" x1="1220.01" y1="665.44" x2="1203.71" y2="682.59"/><polygon class="cls-33" points="1191.87 680.34 1199.63 684.82 1199.63 693.78 1191.87 689.3 1191.87 680.34"/><path class="cls-11" d="M1199.63,684.82l7.76-4.48v9s-7.76,4.63-7.76,4.48Z"/><polygon class="cls-10" points="1207.39 680.34 1199.63 675.86 1191.87 680.34 1199.63 684.82 1207.39 680.34"/><polygon class="cls-33" points="1201.95 647.62 1206.61 650.31 1206.61 655.69 1201.95 653 1201.95 647.62"/><path class="cls-11" d="M1206.61,650.31l4.66-2.69V653s-4.66,2.78-4.66,2.69Z"/><polygon class="cls-10" points="1211.27 647.62 1206.61 644.93 1201.95 647.62 1206.61 650.31 1211.27 647.62"/><line class="cls-75" x1="1199.81" y1="680.13" x2="1204.28" y2="651.65"/><path class="cls-50" d="M1250.13,756.81a2.79,2.79,0,0,1-2.5.83c-.61-.13-1-.24-1.46-.38A10.07,10.07,0,0,0,1244,757a19.32,19.32,0,0,1-2.09-.1,7.79,7.79,0,0,1-1.89-.53c-.83-.33-2.16-2-1.16-2.58a.62.62,0,0,1,.25-.08c2.67-.4,6.12-.24,7-1.27l3.63-.18a35.79,35.79,0,0,0,.65,3.54,1.57,1.57,0,0,1,.05.44A1.09,1.09,0,0,1,1250.13,756.81Z"/><path class="cls-76" d="M1247.88,736l1.51-1.28a15.32,15.32,0,0,1,.93,3.4c0,.89-.64,14.22-.64,14.22s-2,1.53-3.61.17c0,0-1.08-15.76-1.32-18.23l3.13,1.72"/><path class="cls-50" d="M1242.11,760.91a2.82,2.82,0,0,1-2.61.58,14.53,14.53,0,0,1-1.42-.53,9.78,9.78,0,0,0-2.1-.43c-.74-.12-1.34-.12-2.07-.29a7.5,7.5,0,0,1-1.83-.71c-.77-.41-2-2.15-.92-2.67a.68.68,0,0,1,.26-.06c2.69-.15,6.12.33,7.05-.63l3.63.15a34.22,34.22,0,0,0,.32,3.59,1.12,1.12,0,0,1,0,.44A1.05,1.05,0,0,1,1242.11,760.91Z"/><path class="cls-51" d="M1242.74,742.12c0,.9-.64,14.22-.64,14.22a3.28,3.28,0,0,1-3.63-.15s-1.07-15.43-1.31-17.9"/><path class="cls-2" d="M1240.23,764.53l17.09-9.87a4.23,4.23,0,0,1,3.83,0l17.09,9.87a1.16,1.16,0,0,1,0,2.21l-17.09,9.87a4.17,4.17,0,0,1-3.82,0l-17.1-9.87a1.17,1.17,0,0,1,0-2.21Z"/><path class="cls-3" d="M1240.23,744l17.09-9.87a4.23,4.23,0,0,1,3.83,0l17.09,9.87a1.16,1.16,0,0,1,0,2.21l-17.09,9.87a4.22,4.22,0,0,1-3.82,0l-17.1-9.87a1.17,1.17,0,0,1,0-2.21Z"/><path class="cls-6" d="M1259.21,734.53a3,3,0,0,1,1.49.35l17.09,9.87c.27.16.37.32.37.38s-.1.22-.37.38l-17.09,9.88a3.43,3.43,0,0,1-3,0l-17.1-9.88c-.27-.16-.37-.31-.37-.38s.1-.23.37-.38l17.09-9.87a3,3,0,0,1,1.5-.35m0-.83a3.91,3.91,0,0,0-1.92.46L1240.21,744a1.17,1.17,0,0,0,0,2.21l17.1,9.87a4.17,4.17,0,0,0,3.82,0l17.09-9.87a1.16,1.16,0,0,0,0-2.21l-17.09-9.87a3.85,3.85,0,0,0-1.91-.46Z"/><path class="cls-4" d="M1239.44,762.38a1.38,1.38,0,0,0,.83,1.1l17.1,9.87a3.84,3.84,0,0,0,1.91.46V756.56a3.87,3.87,0,0,1-1.91-.46l-17.1-9.87a1.34,1.34,0,0,1-.83-1.1Z"/><path class="cls-5" d="M1279,762.38a1.35,1.35,0,0,1-.83,1.1l-17.09,9.87a3.87,3.87,0,0,1-1.91.46V756.56a3.87,3.87,0,0,0,1.91-.46l17.09-9.87a1.34,1.34,0,0,0,.83-1.1Z"/><path class="cls-76" d="M1249.5,730.82c1.78.64,13.77,5.14,13.77,5.14s-.47,8.5-3,7.13L1247.88,736l-3.13-1.72C1244.47,731.48,1247.55,730.15,1249.5,730.82Z"/><path class="cls-51" d="M1237.16,738.29c-.27-2.78,2.8-4.17,4.75-3.43,1.78.65,13.76,5.15,13.76,5.15l11.9-1c.29,4.45-2.6,6.36-5.92,7.82s-6.46,1.67-9,.32L1240.29,740l1.52-1.28a15.35,15.35,0,0,1,.93,3.39"/><path class="cls-48" d="M1254.63,710c.26-2.5,2-4.53,4.57-4.52a5,5,0,0,1,3,9s-.07.33-.16.63a12.9,12.9,0,0,0,.39,1.57c.15.28.91,0,1.92-.14.69-.11.83,1.18.42,2.39s-2.09,2.22-3.68,2.5-4.17-.71-3.23-1.41.92-1,.78-1.43l-.42-1.38a5.83,5.83,0,0,1-1.35.15c-1-.1-1.54-.3-1.88-1.48A16.47,16.47,0,0,1,1254.63,710Z"/><path class="cls-53" d="M1260.2,718.63h-1.52v-.08l-.42-1.38a5.83,5.83,0,0,1-1.35.15,2.86,2.86,0,0,1-1.05-.25,2.13,2.13,0,0,0,1.84-.88,7.69,7.69,0,0,0,.23-2,2.94,2.94,0,0,0,.2.53.41.41,0,0,0,.43.22l1-.12,2.89-.51-.2.18s-.07.33-.16.63a12.9,12.9,0,0,0,.39,1.57c.07.13.26.13.54.1l-.38.5Z"/><path class="cls-62" d="M1254.16,705.15c1.58.49,7.45-1.77,8.51,1.73a2.78,2.78,0,0,1,1.52,2.13,5.88,5.88,0,0,1-.61,4.68,26,26,0,0,0-1.28,2.5,4,4,0,0,1-1.67.76,2.09,2.09,0,0,1-2.43-1.43,7.13,7.13,0,0,1-.3-1.38c.23.36.91.16,1.28-.58a2.18,2.18,0,0,0,0-2.12.94.94,0,0,0-1.67,0,4.62,4.62,0,0,0-.08,1.38.73.73,0,0,1-.83-.61h0a6.18,6.18,0,0,1-.08-1.56,1.51,1.51,0,0,0-.43-1.18,1.18,1.18,0,0,1-.28-1.07,2.77,2.77,0,0,1-2.13-1.41C1252.94,705.65,1252.55,704.64,1254.16,705.15Z"/><path class="cls-54" d="M1263,716.68c.12.37-.2,1-1.51,1.67a5.33,5.33,0,0,1-2.82.83s-2.1,1.14-3,1.78c-1.15.83-1.67,3.13-1.82,7-.13,3.47-.17,9-.12,11.89a3.53,3.53,0,0,0,2,3.13,5.83,5.83,0,0,0,3,.61c2.74-.23,7.78-2.73,8.9-4.61,0-4-.37-6.39-.23-8.77.24-4.17,1.16-7.5,0-10.88-1-2.93-2.18-3.07-3.33-2.91A6.43,6.43,0,0,0,1263,716.68Z"/><path class="cls-49" d="M1262.32,716.25c.45-.06.57.11.88.38,0,0,.4,1.11-1.08,2.07a6.39,6.39,0,0,1-3.78.63l-.53.3s.25-1.52.68-1.62a6,6,0,0,0,2.63-.58C1262.46,716.81,1262.32,716.25,1262.32,716.25Z"/><path class="cls-48" d="M1236,720.34a16.42,16.42,0,0,1,1,1.87,3.81,3.81,0,0,0,.92,1.6,20.16,20.16,0,0,0,4.47,2.67,6.65,6.65,0,0,0,5.49.61c3-1.13,4.58-3.74,6.48-5.26,1.32-1.07,2.63-.58,2.85.39.17.76-.47,2.88-2.76,5.08-1.77,1.67-4.78,3.58-7.32,3.65a12.5,12.5,0,0,1-4.95-1,44.76,44.76,0,0,1-5.75-3.28c-.54-.34-1-.45-2.12-1a7.5,7.5,0,0,1-2.81-2.22c-.57-.83-.65-1.23-.53-1.43s.41-.18.71.18a6.43,6.43,0,0,0,1.62,1.51s-.71-.74-1.09-1.22a5.88,5.88,0,0,1-.83-1.39c-.2-.49.23-1.15.54-.83s.47.7,1,1.41a6.29,6.29,0,0,0,1,1,12.27,12.27,0,0,1-1-1.55,2.56,2.56,0,0,1-.34-1.41c0-.25.38-.55.72-.07a9.07,9.07,0,0,0,1.2,1.86c.51.53.94.83,1,.7s-.31-.45-.49-1.07,0-1.28.35-1.35S1235.71,719.76,1236,720.34Z"/><path class="cls-49" d="M1256.88,721.4a2.09,2.09,0,0,1,.36,2.13,13.47,13.47,0,0,1-2.23,3.55,26.23,26.23,0,0,1-2.13,2.09,8.21,8.21,0,0,1-2.88-3.49s2.93-2.82,3.72-3.54S1255.78,720.35,1256.88,721.4Z"/><path class="cls-2" d="M785.53,774.56,859,732.16a1.38,1.38,0,0,1,1.28,0l1.73,1a.38.38,0,0,1,0,.73l-73.43,42.39a1.38,1.38,0,0,1-1.28,0l-1.67-1C785.17,775.1,785.17,774.77,785.53,774.56Z"/><path class="cls-2" d="M839.91,767l5.19-3c3.52-2,8.33-2.5,10.83-1.09s1.67,4.23-1.89,6.27l-5.18,3c-3.52,2-8.38,2.5-10.83,1.09S836.39,769,839.91,767Z"/><path class="cls-70" d="M850.59,768.25s.27.48,1.75-.14a3.92,3.92,0,0,0,1.91-1.37s-.39-3-1.31-2.23A16.69,16.69,0,0,0,850.59,768.25Z"/><path class="cls-53" d="M854.32,757.82c0,1.57-.07,2.76.53,3.59a3.26,3.26,0,0,1,.64,1.41,4.46,4.46,0,0,0-2.66,1.47c-.89,1.21-.83,2.42-1.67,2.63s-2.23-.75-2.23-.75a1.45,1.45,0,0,0,1.22-1.14,35.35,35.35,0,0,0,1.26-4.08v-3Z"/><path class="cls-50" d="M854.34,761.81A3.43,3.43,0,0,0,852,763.6a6.58,6.58,0,0,1-1.53,2.42c-.5.28-1.38-.13-2.14-.13s-1.29.34-1.33.89l3.14,1.49c.73.34,1.33.35,1.91-1.15s.78-2.35,1.23-1.33a14.58,14.58,0,0,1,.64,3.33.72.72,0,0,0,.91-.38,15,15,0,0,1,.12-2c.13-.92,1-2.08.9-3.2S855.17,761.81,854.34,761.81Z"/><path class="cls-53" d="M850.59,744.59l3.78.33a8.93,8.93,0,0,1,.83,2.75c1.07,2.78-.83,10-.67,13.23a3.5,3.5,0,0,1-3.17,0s-1.49-14-1.74-16.47Z"/><path class="cls-70" d="M842.81,771.92s.28.48,1.76-.14a3.92,3.92,0,0,0,1.9-1.37s-.38-3-1.31-2.23A16.64,16.64,0,0,0,842.81,771.92Z"/><path class="cls-48" d="M846.54,761.5c0,1.57-.07,2.76.53,3.6a3.22,3.22,0,0,1,.64,1.4A4.47,4.47,0,0,0,845,768c-.89,1.22-.83,2.42-1.67,2.63s-2.22-.76-2.22-.76a1.46,1.46,0,0,0,1.22-1.14,39,39,0,0,0,1.26-4.08v-3Z"/><path class="cls-50" d="M846.55,765.5a3.39,3.39,0,0,0-2.33,1.8,6.61,6.61,0,0,1-1.54,2.42c-.5.28-1.38-.13-2.14-.13s-1.28.34-1.33.89l3.14,1.49c.72.34,1.33.35,1.9-1.15s.78-2.35,1.23-1.33a14,14,0,0,1,.64,3.33.73.73,0,0,0,.92-.38,14.24,14.24,0,0,1,.11-2c.13-.92,1-2.09.91-3.21S847.39,765.45,846.55,765.5Z"/><path class="cls-48" d="M847.47,751.72c1,1.67-.21,6.23-.7,12.8a3.06,3.06,0,0,1-3.13.26s-1.42-13.7-1.67-16.21"/><path class="cls-8" d="M863,720.6l-71.15,41.07-2.43,1.41-2.9-1.67a1.43,1.43,0,0,1-.63-1.1V701.07a1.48,1.48,0,0,1,.21-.73,1.52,1.52,0,0,1,.53-.55l72.2-41.67a1.38,1.38,0,0,1,1.28,0L863,659.8Z"/><path class="cls-9" d="M791.83,703.67v58l-2.43,1.41-2.9-1.67a1.43,1.43,0,0,1-.63-1.1V701.07a1.48,1.48,0,0,1,.21-.73Z"/><path class="cls-7" d="M790.75,700.85l70.83-40.93c1.06-.61,1.91-.11,1.91,1.11v57.68a4.23,4.23,0,0,1-1.91,3.33l-70.83,41c-1,.61-1.91.12-1.91-1.11v-57.7A4.23,4.23,0,0,1,790.75,700.85Z"/><path class="cls-30" d="M802.74,700.85l70.83-40.93c1.06-.61,1.92-.11,1.92,1.11v57.68a4.23,4.23,0,0,1-1.92,3.33l-70.83,41c-1,.61-1.91.12-1.91-1.11v-57.7A4.23,4.23,0,0,1,802.74,700.85Z"/><path class="cls-64" d="M802.74,700.85l70.83-40.93c1.06-.61,1.92-.11,1.92,1.11v57.68a4.23,4.23,0,0,1-1.92,3.33l-70.83,41c-1,.61-1.91.12-1.91-1.11v-57.7A4.23,4.23,0,0,1,802.74,700.85Z"/><path class="cls-77" d="M817.2,709.72l.56-.33a4.34,4.34,0,0,1,4.66,0c.69.47,2.45,1.41,2.45,1.41l1,5.29a4.28,4.28,0,0,0,6.33,2.23h0a10.83,10.83,0,0,0,4.82-7.71l2.28-18.68a10.61,10.61,0,0,1,4.63-7.6,4,4,0,0,1,3.93-.15c.92.48,3,1.67,3,1.67l2,11.23c1,2.67,3.55,3.81,5.73,2.55a3.27,3.27,0,0,1,3.48,0c.83.53,2.45,1.45,2.45,1.45l2.08,11.18-53.78,34.56-3-1.72,2.5-27.65A11.13,11.13,0,0,1,817.2,709.72Z"/><path class="cls-11" d="M820.19,711.45l.55-.33A4.21,4.21,0,0,1,827,713.2l1.8,4.65a4.29,4.29,0,0,0,6.33,2.23h0a10.83,10.83,0,0,0,4.83-7.71l2.27-18.68a10.08,10.08,0,0,1,4.63-7.6,4.12,4.12,0,0,1,6.06,2.37l2.83,10.43c1,2.67,3.54,3.81,5.73,2.55s4.55,0,5.29,2.69l2.72,9.94-56.73,32.76,2.5-27.64A11.11,11.11,0,0,1,820.19,711.45Z"/><path class="cls-77" d="M813.19,702.7c0,.58.53.76,1.18.38l10.57-6.1a2.36,2.36,0,0,0,1.17-1.75c0-.58-.53-.76-1.17-.38L814.38,701A2.37,2.37,0,0,0,813.19,702.7Z"/><path class="cls-77" d="M813.19,707c0,.59.53.77,1.18.39l10.57-6.1a2.36,2.36,0,0,0,1.17-1.75c0-.59-.53-.76-1.17-.38l-10.57,6.1A2.37,2.37,0,0,0,813.19,707Z"/><path class="cls-2" d="M882.39,775l-17.09-9.88a4.23,4.23,0,0,0-3.83,0L844.38,775a1.16,1.16,0,0,0,0,2.2l17.09,9.88a4.23,4.23,0,0,0,3.83,0l17.09-9.88a1.11,1.11,0,0,0,1.16-1.1A1.08,1.08,0,0,0,882.39,775Z"/><path class="cls-3" d="M882.39,753.86,865.29,744a4.23,4.23,0,0,0-3.83,0l-17.09,9.87a1.17,1.17,0,0,0,0,2.21l17.1,9.92a4.23,4.23,0,0,0,3.83,0l17.09-9.87C883.44,755.46,883.44,754.47,882.39,753.86Z"/><path class="cls-6" d="M863.38,744.37a3,3,0,0,1,1.49.35L882,754.59c.28.16.38.32.38.38s-.1.22-.38.38l-17.08,9.87a3.44,3.44,0,0,1-3,0l-17.09-9.87c-.28-.17-.38-.32-.38-.38s.1-.23.38-.38l17.09-9.87a3.05,3.05,0,0,1,1.5-.35m0-.83a4,4,0,0,0-1.92.46l-17.09,9.87a1.17,1.17,0,0,0,0,2.21L861.47,766a3.91,3.91,0,0,0,1.92.46,3.85,3.85,0,0,0,1.91-.46l17.09-9.87a1.16,1.16,0,0,0,0-2.21L865.29,744a3.94,3.94,0,0,0-1.91-.46Z"/><path class="cls-4" d="M883.18,772.22a1.37,1.37,0,0,1-.83,1.1l-17,9.87a3.77,3.77,0,0,1-1.91.46V766.4a3.78,3.78,0,0,0,1.91-.46l17.09-9.87a1.34,1.34,0,0,0,.83-1.1Z"/><path class="cls-5" d="M843.59,772.22a1.37,1.37,0,0,0,.83,1.1l17.09,9.87a3.81,3.81,0,0,0,1.92.46V766.4a3.82,3.82,0,0,1-1.92-.46l-17.13-9.87a1.34,1.34,0,0,1-.83-1.1Z"/><path class="cls-62" d="M866.71,716.14A6.67,6.67,0,0,0,862,715a4.42,4.42,0,0,0-2.5,1.6,4,4,0,0,0-.53,2.92,1.78,1.78,0,0,0,1.33,1.5,2.17,2.17,0,0,0,1.27-.28,4.71,4.71,0,0,0,.83-.68c.53-.43,1-.83,1.57-1.33.83-.74,1.67-1.51,2.5-2.28A3.64,3.64,0,0,1,866.71,716.14Z"/><path class="cls-53" d="M854.49,741c1.8.66,13.33,5.23,13.33,5.23s-.48,8.63-3.08,7.24l-11.93-7.24-3.18-1.74C849.39,741.66,852.54,740.27,854.49,741Z"/><path class="cls-48" d="M842,748.57c-.28-2.82,2.85-4.17,4.83-3.48,1.8.66,13.6,4.82,13.6,4.82l10.48-.59c1.8,4.31-1.31,6.45-4.68,7.93s-6.55,1.72-9.17.33l-11.93-7.24,1.53-1.29a9,9,0,0,1,.79,2.7"/><path class="cls-48" d="M860,719.89c.39-2.5,2.2-4.42,4.8-4.28a5,5,0,0,1,2.5,9.12,5.56,5.56,0,0,1-.45.74s.36,1.73.43,2c.18.68.34.47,2.29.49.92,0,.57.17.07,1.35s-2.19,2.11-3.79,2.31-4.1-.92-3.16-1.57,1.37-.77,1.26-1.26a11.17,11.17,0,0,0-.45-1.58,6.42,6.42,0,0,1-1.08.25c-1,.09-1.47-.69-2-1.81A11,11,0,0,1,860,719.89Z"/><path class="cls-53" d="M863.48,727.2a6.42,6.42,0,0,1-1.08.25,1.43,1.43,0,0,1-.64-.08,3.52,3.52,0,0,0,1-.56c.77-.62.63-2,.63-2.72l.27.71.49.46,2,.52.83-.1c.09.46.33,1.58.38,1.78.18.68.34.47,2.29.49.92,0,.57.17.07,1.35a4,4,0,0,1-2,1.75l-.83.33h-.11l-3.85-1.49c.83-.53,1.17-.68,1.07-1.13A11.16,11.16,0,0,0,863.48,727.2Z"/><path class="cls-51" d="M869.79,743.09c.1,1.42.78,2.73,1.67,5.47s1,5.83-3.9,8.28-8.13,2.07-10.63.83-11.75-7.35-11.75-7.35c-1.08-1.43,3.12-7.88,11.54-8.48l5.94,2.36Z"/><path class="cls-54" d="M868,728c.36.45.4,1-1,1.37a4.37,4.37,0,0,1-3-.23,19.78,19.78,0,0,0-3.15,1.67c-3.11,2.16-3.87,5.91-.73,7.2.19,1.42.43,5,.48,5.83,2.65,1.85,8,1.22,9.25-.74a17.62,17.62,0,0,1,.18-2c1.27-4.69,2.26-5.93,1.9-9.48-.2-2-.36-3-1.43-3.59A9.48,9.48,0,0,0,868,728Z"/><path class="cls-62" d="M867.84,724.87a5.46,5.46,0,0,0,1.63-4,5,5,0,0,0-4.7-5.28h0a4.32,4.32,0,0,0-4,2.15,2.65,2.65,0,0,0,.49.63,1.18,1.18,0,0,0,.23,1.08,1.49,1.49,0,0,1,.37,1.2,6.57,6.57,0,0,0,0,1.57,1.42,1.42,0,0,0,.83,1,4.32,4.32,0,0,1,.43-1.79c.46-.63,1.08-.63,1.67.07a2.14,2.14,0,0,1-.08,2.19c-.68.92-1.3.37-1.3.37.23.62,0,1.48,1.13,1.73a3.76,3.76,0,0,0,2.64-.39A4.59,4.59,0,0,0,867.84,724.87Z"/><path class="cls-62" d="M867.54,716.65c1.3-.37,2.5,1.67,3,4.38s.49,4.63-.35,5.66-4.32,2.61-7.55,1.43c0,0,.89-.5.76-4a2.66,2.66,0,0,0,2.56.37c1.67-.48,2.32-1.93,2.21-3.87A27.05,27.05,0,0,0,867.54,716.65Z"/><path class="cls-48" d="M842.54,730.35a16.67,16.67,0,0,1,1,1.88,3.68,3.68,0,0,0,.88,1.62,19.82,19.82,0,0,0,4.41,2.77,6.7,6.7,0,0,0,5.48.73c3-1.07,4.66-3.64,6.58-5.13,1.35-1,2.64-.53,2.85.45.16.77-.54,2.88-2.87,5-1.8,1.67-4.86,3.48-7.39,3.5a12.5,12.5,0,0,1-4.93-1.14,46.15,46.15,0,0,1-5.68-3.4,23.07,23.07,0,0,0-2.09-1,7.5,7.5,0,0,1-2.76-2.28c-.56-.83-.63-1.24-.5-1.43s.42-.18.72.18a6,6,0,0,0,1.58,1.55s-.69-.76-1.07-1.24a6.38,6.38,0,0,1-.83-1.42c-.19-.49.25-1.14.56-.83s.45.72,1,1.43a6.26,6.26,0,0,0,1,1,11.75,11.75,0,0,1-.92-1.58,2.5,2.5,0,0,1-.31-1.41c0-.26.38-.55.71-.06a9.5,9.5,0,0,0,1.16,1.88c.5.55.93.83,1,.72s-.3-.45-.47-1.07,0-1.28.38-1.34S842.28,729.76,842.54,730.35Z"/></g></svg>